<svg width="312" height="286" viewBox="0 0 312 286" fill="none" xmlns="http://www.w3.org/2000/svg">
<path d="M88.6252 240.466C114.324 240.467 135.568 258.297 135.569 285.855H123.569C123.569 265.732 108.534 252.466 88.6252 252.466H0V240.466H88.6252ZM90.4386 214.035C103.729 214.035 120.839 218.198 135.127 229.144C149.617 240.245 160.845 258.065 162.379 284.472L156.389 284.819L150.399 285.167C149.065 262.188 139.504 247.615 127.829 238.67C115.952 229.571 101.519 226.035 90.4386 226.035H12.3085V214.035H90.4386ZM179.533 16.5415L179.08 16.6637C176.667 17.3157 174.307 17.9542 171.755 18.6693C157.893 23.7622 149.247 33.7237 144.645 47.2121C137.5 68.1574 139.956 87.7071 153.998 105.296C154.443 105.852 154.929 106.342 155.446 106.88C170.691 91.1028 176.42 60.9141 160.354 35.4965L160.038 34.9982L160.523 34.664C164.59 31.859 168.671 29.0439 173.156 25.9501L173.719 25.562L174.044 26.1627C175.863 29.5243 177.786 32.7095 179.331 36.0379C180.775 39.1492 181.92 42.4275 183.135 45.5806C185.55 43.8009 187.975 41.9029 190.529 40.2475C195.547 36.9954 201.099 35.1387 206.939 34.1226C207.897 33.9558 208.818 33.9433 209.608 34.2951C210.429 34.6608 210.998 35.3694 211.346 36.4062C212.701 40.4562 214.036 44.5145 215.521 48.9962L215.752 49.6938L215.024 49.7962C213.507 50.0104 212.681 50.1265 211.855 50.2442C204.409 51.3048 198.921 53.4952 194.88 57.1854C190.84 60.875 188.177 66.1256 186.501 73.4407C185.233 78.9809 184.21 84.5647 183.009 90.5429C184.905 90.2295 186.631 89.9823 188.346 89.5978C192.641 88.6338 196.921 87.758 201.107 86.5474C208.006 84.5525 213.017 81.082 216.507 76.4273C220.003 71.7652 222.004 65.8723 222.806 58.9887C223.625 51.9457 222.584 45.207 219.304 38.4047L219.034 37.8453L219.596 37.583C224.187 35.4399 228.669 33.3477 233.391 31.1431L233.959 30.8778L234.211 31.4516C238.769 41.792 240.722 51.7771 239.672 61.4243C238.657 70.7539 234.838 79.7236 227.921 88.3572C241.861 89.5267 252.298 83.7975 260.823 72.8924L261.163 72.4588L261.63 72.7495C265.801 75.3375 270.01 77.95 274.454 80.7079L274.982 81.0348L274.648 81.5579C271.45 86.5762 267.419 90.6275 262.901 94.1801C251.431 103.197 238.345 106.187 224.051 104.687C217.752 104.026 211.475 103.283 205.202 103.202C193.529 103.051 183.392 106.003 175.025 111.823C166.658 117.644 160.026 126.361 155.411 137.8C149.336 152.856 148.037 168.01 154.305 183.316C154.661 184.184 155.022 185.046 155.462 186.093C159.106 177.751 161.025 169.542 160.643 160.837C160.586 159.524 160.653 158.377 160.401 157.262C159.187 151.892 160.005 147.114 161.666 142.561C163.315 138.044 165.832 133.665 168.005 129.195L168.486 128.207L169.075 129.134C169.345 129.56 169.548 129.852 169.722 130.113C169.892 130.367 170.04 130.601 170.152 130.865C180.797 155.701 177.847 180.999 166.867 201.413C165.646 203.682 164.373 205.623 163.144 207.264C169.616 202.179 175.859 198.413 182.235 195.621C192.064 191.317 201.866 189.476 212.681 188.409L212.974 188.379H286.088V200.38H213.571C203.525 201.388 195.191 203.048 187.049 206.613C179.899 209.744 172.638 214.46 164.423 221.887C167.517 225.407 170.413 229.254 173.049 233.441C178.472 227.972 183.433 223.67 188.734 220.557C196.849 215.792 205.331 214.035 216.637 214.035H298.525V226.035H216.637C206.724 226.035 200.533 227.545 194.811 230.905C190.011 233.723 185.273 237.985 179.011 244.528C181.406 249.811 183.412 255.532 184.941 261.716C192.814 249.456 205.155 240.422 222.906 239.952L222.986 239.95H312V251.95H223.15C204.302 252.484 193.006 266.058 188.152 284.221C188.157 284.329 188.163 284.438 188.168 284.546L182.174 284.819L176.18 285.093C174.71 252.86 160.722 232.108 144.224 219.3C127.492 206.31 108.065 201.417 96.1408 201.417H25.9142V189.416H96.1408C109.926 189.416 130.507 194.593 148.737 207.697C147.493 205.981 146.142 203.905 144.757 201.42C137.768 188.882 133.125 175.562 133.738 160.885C134.298 147.478 137.957 134.863 144.345 123.098C144.883 122.109 145.043 121.417 144.962 120.819C144.881 120.218 144.539 119.595 143.803 118.781C134.16 108.115 121.837 103.518 107.814 103.284C100.599 103.163 93.3541 104.043 86.0789 104.736C65.8797 106.663 49.7536 99.3537 37.4429 83.3774C37.05 82.8678 36.7182 82.2466 36.2774 81.5474L35.9492 81.0268L36.4709 80.7005C40.679 78.069 44.8272 75.4755 49.189 72.7477L49.6585 72.4545L49.9981 72.8906C58.4096 83.6976 68.9466 89.5898 82.9598 88.3627C76.047 79.7647 72.2209 70.8165 71.1986 61.4899C70.1413 51.8451 72.0872 41.8426 76.6444 31.4605L76.8964 30.8862L77.4643 31.1515C82.1748 33.3494 86.6492 35.4369 91.2727 37.5944L91.835 37.8573L91.5664 38.4167C87.0307 47.837 86.8712 57.26 89.7309 66.9645C92.4182 76.0826 98.0591 82.4637 106.926 85.4693C113.565 87.7194 120.446 89.1477 127.823 91.0488C127.17 87.2275 126.743 84.0907 126.014 81.001C124.859 76.1157 123.805 71.2292 122.116 66.5892C118.641 57.0416 111.313 52.1573 101.445 50.5856C99.9038 50.3402 98.3645 50.1338 96.5964 49.8759L96.0365 49.7938L96.0727 49.2297C96.4026 44.106 97.6868 39.3922 100.345 35.1425C100.533 34.8432 100.83 34.6512 101.103 34.5257C101.387 34.3956 101.711 34.3069 102.032 34.2484C102.672 34.132 103.392 34.1196 103.951 34.204C112.259 35.4571 119.588 38.9261 126.017 44.2978C126.544 44.7376 127.078 45.169 127.617 45.5992C131.717 33.3459 137.687 23.1176 145.983 15.3904C154.417 7.53406 165.222 2.2922 178.823 0.11379L179.533 0V16.5415ZM100.631 165.051C105.648 162.182 111.369 160.494 116.395 160.823C119.682 161.038 122.226 162.142 123.683 164.036C125.153 165.946 125.413 168.522 124.415 171.434L124.392 171.501L124.354 171.562C121.152 176.651 116.027 178.407 110.954 179.561C103.517 181.253 96.2432 180.336 89.209 177.437L88.5951 177.185L88.8956 176.593C91.2199 172.017 95.6127 167.921 100.631 165.051ZM187.883 166.277C189.011 162.593 192.883 160.473 198.008 160.819C209.106 161.569 217.394 167.069 223.643 176.288L224.033 176.865L223.412 177.179C222.698 177.542 222.114 177.837 221.341 178.198L221.307 178.214L221.273 178.225C211.696 181.367 202.432 181.398 193.526 176.444C191.193 175.146 189.488 173.582 188.512 171.843C187.528 170.09 187.299 168.186 187.883 166.277ZM110.817 178.963C111.128 178.892 111.438 178.82 111.747 178.744L111.761 178.741C111.448 178.817 111.133 178.891 110.817 178.963ZM39.6001 94.0587C43.9394 97.3201 48.1849 100.42 52.2841 103.693C52.756 104.07 53.0014 104.692 53.1345 105.237C53.274 105.808 53.3221 106.428 53.3094 106.937C53.0504 117.285 55.6829 126.531 63.0243 134.021C69.8138 140.949 77.9764 143.548 87.509 141.475C90.3761 140.852 93.1811 140.033 96.3597 139.185C89.2329 131.205 85.4626 122.068 85.208 111.17L85.1952 110.602L85.7618 110.546C90.7569 110.055 95.698 109.571 101.133 109.037L101.715 108.98L101.8 109.558C102.989 117.674 106.07 123.914 110.74 128.523C115.415 133.137 121.723 136.158 129.43 137.76L130.016 137.881L129.908 138.47C128.914 143.899 128.001 148.888 127.08 153.924L126.965 154.544L126.349 154.414C124.339 153.99 122.306 153.56 120.042 153.094C101.154 151.724 86.7283 158.993 76.3022 174.407C75.8195 175.12 75.3185 175.67 74.6574 175.937C73.9834 176.21 73.2634 176.141 72.4576 175.906C68.2659 174.684 64.0423 173.593 59.0229 172.231L58.1927 172.006L58.6767 171.294C62.1345 166.207 65.2909 161.563 68.5449 156.776C53.9815 151.049 43.7052 140.687 39.0958 125.209C36.0521 114.988 35.922 104.611 38.6389 94.3917L38.8724 93.5123L39.6001 94.0587ZM273.378 94.4089C276.453 107.488 275.967 120.077 270.418 132.219C264.924 144.243 255.665 152.266 243.621 156.906C246.816 161.627 249.983 166.307 253.458 171.442L253.94 172.154L253.11 172.377C247.939 173.769 243.485 175.066 238.976 176.081C238.648 176.156 238.314 176.093 238.037 176C237.749 175.904 237.462 175.754 237.196 175.583C236.674 175.244 236.158 174.77 235.852 174.302C228.753 163.487 218.966 156.648 206.352 153.947C199.591 152.499 192.846 152.615 186.251 154.682L185.59 154.889L185.464 154.207C184.531 149.136 183.629 144.233 182.669 139.019L182.559 138.419L183.157 138.305C190.232 136.957 196.909 134.465 202.492 129.313C208.033 124.108 210.451 117.698 210.835 110.004L210.867 109.363L211.506 109.424C216.547 109.903 221.46 110.37 226.587 110.857L227.162 110.912L227.142 111.49C226.752 122.212 223.231 131.387 216.222 139.133C220.508 141.819 226.155 142.848 231.796 142.309C237.699 141.745 243.522 139.471 247.682 135.685C255.122 128.913 258.694 120.316 258.619 110.398C258.603 108.298 258.907 106.58 259.702 105.105C260.498 103.626 261.754 102.454 263.527 101.385C265.057 100.462 266.467 99.3163 267.904 98.0548C269.322 96.8074 270.802 95.4134 272.387 94.0796L273.15 93.4375L273.378 94.4089ZM150.647 173.409C150.744 173.89 150.849 174.372 150.96 174.854L150.799 174.131C150.746 173.89 150.695 173.65 150.647 173.409ZM282 144.327C280.524 152.986 276.822 159.972 269.504 165.027L269.464 165.054L269.42 165.075C267.877 165.814 266.378 166.702 264.802 167.169C262.398 167.882 259.91 167.622 258.017 165.562C256.191 163.576 255.689 160.959 256.946 158.616C258.364 155.971 260.038 153.252 262.197 151.107C267.367 145.971 273.877 143.895 281.372 143.611L282.126 143.583L282 144.327ZM31.1796 144.224C37.5957 144.199 43.0981 146.101 48.1613 149.838L48.65 150.206L48.7003 150.244L48.7416 150.292C50.6799 152.536 52.8417 154.639 54.3928 157.082C56.0046 159.621 56.3661 162.686 54.1934 165.391C52.3377 167.701 49.0485 168.17 45.7849 166.64C36.7511 162.403 32.4819 154.694 30.5802 144.955L30.4382 144.227L31.1796 144.224ZM264.207 166.694C264.14 166.711 264.073 166.727 264.006 166.741C264.143 166.711 264.28 166.678 264.417 166.641L264.207 166.694ZM149.576 163.316C149.578 163.435 149.58 163.554 149.582 163.673C149.579 163.525 149.577 163.378 149.575 163.231L149.576 163.316ZM134.412 159.667L134.412 159.665C134.434 159.277 134.459 158.888 134.486 158.502C134.459 158.889 134.434 159.278 134.412 159.667ZM187.327 153.725C186.907 153.841 186.487 153.965 186.067 154.096C186.277 154.031 186.487 153.968 186.697 153.906C186.907 153.844 187.117 153.783 187.327 153.725ZM49.0261 151.543C49.0869 151.611 49.1485 151.679 49.2094 151.746C49.0233 151.54 48.8367 151.332 48.6512 151.121L49.0261 151.543ZM175.281 150.925C175.272 150.864 175.265 150.804 175.255 150.744C175.249 150.705 175.242 150.666 175.236 150.627C175.251 150.727 175.266 150.826 175.281 150.925ZM96.1334 137.996C96.1506 138.015 96.1678 138.035 96.1849 138.055C96.0574 137.907 95.931 137.758 95.8065 137.61L96.1334 137.996ZM63.3144 109.897C69.8549 111.416 75.0824 114.566 79.2551 119.684L79.6561 120.186L79.6997 120.242L79.7297 120.307C81.1188 123.315 82.7562 126.236 83.6749 129.328C84.4292 131.864 83.448 134.433 80.9673 135.925C78.3977 137.471 75.8195 136.946 73.5676 135.542C69.409 132.949 66.688 129.159 64.8328 124.81C62.9145 120.313 62.1602 115.615 62.5644 110.446L62.6196 109.736L63.3144 109.897ZM250.081 110.47C250.451 119.796 248.131 128.178 240.588 134.361C238.947 135.706 236.311 137.311 233.597 136.75L233.541 136.739L233.489 136.718C231.639 135.96 230.297 134.97 229.5 133.657C228.697 132.338 228.498 130.776 228.767 128.983C229.425 124.608 232.351 120.05 236.179 116.499C240.009 112.946 244.839 110.31 249.411 109.883L250.056 109.823L250.081 110.47ZM93.2449 134.271C93.3823 134.468 93.5215 134.666 93.6632 134.861C93.8551 135.127 94.0501 135.392 94.2495 135.656C93.9036 135.199 93.5693 134.736 93.2449 134.271ZM70.2063 132.044C70.2155 132.053 70.2253 132.062 70.2339 132.071C70.2026 132.038 70.1707 132.006 70.1394 131.973C70.1621 131.996 70.1842 132.02 70.2063 132.044ZM197.249 109.949C199.005 109.811 200.824 109.927 202.897 109.927H203.655L203.496 110.668C202.488 115.386 200.52 119.058 197.805 122.56L197.799 122.568L197.793 122.575C194.657 126.372 190.938 129.036 186.325 130.332C184.888 130.736 183.455 130.871 182.107 130.563C180.747 130.253 179.518 129.499 178.491 128.205C176.565 125.778 176.709 122.459 178.852 119.528C183.414 113.288 189.847 110.532 197.249 109.949ZM112.348 109.89C119.581 109.726 125.831 111.804 131.012 116.859C134.736 120.491 135.938 124.715 133.706 128.031C132.655 129.592 131.18 130.491 129.343 130.69C127.536 130.885 125.426 130.4 123.064 129.315C116.341 126.226 111.361 119.73 109.087 111.017L108.914 110.353L109.593 110.256C110.434 110.136 111.243 110.019 112.289 109.894L112.318 109.89H112.348ZM144.884 123.391L144.986 123.198C144.992 123.186 144.998 123.174 145.003 123.162C144.965 123.237 144.926 123.313 144.884 123.391ZM180.64 118.272C180.574 118.348 180.509 118.426 180.442 118.502C180.582 118.339 180.723 118.178 180.866 118.02L180.64 118.272ZM52.6817 108.873C52.6821 108.909 52.6837 108.945 52.6841 108.98C52.6836 108.934 52.6822 108.888 52.6817 108.842V108.873ZM199.798 102.746C199.778 102.747 199.757 102.749 199.736 102.751C199.934 102.736 200.131 102.722 200.329 102.709L199.798 102.746ZM128.323 90.335C128.408 90.8391 128.496 91.3536 128.589 91.8804C128.483 91.2825 128.385 90.6992 128.289 90.1301C128.301 90.1982 128.312 90.2663 128.323 90.335ZM156.015 46.2556C158.589 48.5401 160.487 52.0485 161.745 56.0822C163.006 60.1246 163.64 64.7451 163.648 69.3121C163.655 73.8785 163.037 78.4167 161.775 82.2913C160.516 86.1555 158.596 89.4224 155.954 91.364L155.487 91.7068L155.118 91.2604C148.898 83.7356 147.099 75.0125 147.871 65.34L147.872 65.3241L147.874 65.3081C148.81 58.2685 151.066 51.9831 155.11 46.3562L155.507 45.8047L156.015 46.2556ZM199.41 87.6531C199.505 87.628 199.6 87.6035 199.694 87.5783L199.744 87.5642C199.633 87.5943 199.522 87.6231 199.41 87.6531ZM108.034 86.4812C108.577 86.6553 109.122 86.824 109.668 86.9902C109.391 86.9062 109.115 86.8216 108.84 86.7357L108.034 86.4812ZM201.781 86.9859L201.929 86.9424C202.033 86.9099 202.137 86.8761 202.24 86.843C202.088 86.8915 201.935 86.9387 201.781 86.9859ZM78.77 81.3616C78.9411 81.6425 79.1158 81.9221 79.2931 82.2024C78.9386 81.6425 78.5964 81.0807 78.2665 80.5178L78.77 81.3616ZM198.927 64.1153C203.143 59.5641 209.18 56.5259 215.235 57.2453L215.867 57.3202L215.768 57.9496C215.291 60.9725 214.815 63.9865 214.261 67.1884L214.248 67.2583L214.221 67.3233C210.94 75.045 202.307 80.8434 193.986 81.0574L193.473 81.0703L193.37 80.5668C192.204 74.8493 194.714 68.6639 198.927 64.1153ZM98.4 56.5434C100.489 57.045 102.56 57.5427 104.707 58.0712L106.882 58.6114L106.947 58.6275L107.006 58.6569C116.175 63.2242 118.907 71.2979 120.101 80.1014L120.177 80.6674L119.618 80.7845C113.891 81.9847 107.86 79.1171 103.565 74.4967C99.2635 69.869 96.5762 63.353 97.6519 57.0369L97.7623 56.3907L98.4 56.5434ZM54.0921 47.3654C63.9644 51.0116 73.1021 63.4579 67.4963 78.2088L67.2264 78.9171L66.5899 78.5062C64.0436 76.8627 61.585 75.2762 58.9815 73.5694L58.9402 73.5418L58.9031 73.5081C50.7847 66.0581 51.2727 57.0294 53.2806 47.8104L53.431 47.121L54.0921 47.3654ZM258.266 47.7534C260.426 54.482 260.515 60.8979 258.353 66.2936C256.186 71.7014 251.784 76.0139 245.109 78.5639L244.51 78.792L244.308 78.1849C241.721 70.4222 242.201 63.0685 247.077 56.0373L247.089 56.0194L247.103 56.0026C250.012 52.384 253.207 49.3154 257.427 47.3833L258.055 47.0958L258.266 47.7534ZM236.631 71.9142C236.528 72.2031 236.422 72.4919 236.312 72.7802L236.631 71.9142C236.734 71.6248 236.835 71.3353 236.932 71.0458L236.631 71.9142ZM89.4083 68.001C89.4666 68.1819 89.5261 68.3622 89.5868 68.5413C89.5733 68.5002 89.5592 68.4597 89.5457 68.4186L89.4083 68.001ZM169.415 56.4829C169.499 56.9067 169.578 57.3303 169.653 57.7538L169.537 57.1184C169.498 56.9065 169.456 56.6948 169.415 56.4829ZM115.207 55.6187L114.879 55.3588C114.833 55.323 114.785 55.2882 114.739 55.2528C114.897 55.3729 115.053 55.4945 115.207 55.6187ZM60.3716 51.7918L60.3446 51.7684C60.2342 51.675 60.1226 51.5834 60.011 51.4924C60.1318 51.5909 60.2522 51.6906 60.3716 51.7918ZM127.704 46.4305C127.709 46.4306 127.714 46.429 127.719 46.4287C127.703 46.4296 127.689 46.4301 127.677 46.4269L127.704 46.4305ZM127.766 46.4233C127.769 46.4228 127.773 46.4233 127.776 46.4227L127.798 46.4191C127.787 46.4212 127.776 46.4217 127.766 46.4233ZM197.066 5.4685C197.662 7.71871 198.377 9.75182 198.708 11.7958C199.906 19.2107 199.208 26.4348 194.259 32.5421C193.601 33.3547 192.677 33.8937 191.742 34.337C191.271 34.56 190.778 34.7679 190.299 34.9725C189.816 35.1792 189.343 35.3843 188.889 35.6109L188.688 35.7114L188.469 35.6581C186.641 35.2122 185.212 34.5208 184.226 33.4207C183.233 32.3118 182.758 30.8635 182.684 29.0452C182.251 18.4407 187.585 11.1105 196.121 5.12354L196.841 4.61867L197.066 5.4685ZM100.952 35.3563C100.935 35.3741 100.92 35.3928 100.905 35.4114C100.934 35.3743 100.968 35.3386 101.005 35.3048L100.952 35.3563ZM135.359 3.74848C135.98 14.0156 132.96 22.5581 124.893 29.0835C124.298 29.5653 123.617 29.9367 122.983 30.2591C120.548 31.4975 117.884 32.0009 115.313 30.2483C114.005 29.3564 113.104 28.2401 112.603 26.9502C112.104 25.664 112.017 24.2428 112.275 22.7574C113.328 16.7022 116.921 12.211 121.81 8.86362C124.442 7.06196 127.565 5.84881 130.502 4.36654L130.55 4.34198L130.602 4.32641C131.97 3.91668 133.151 3.59041 134.583 3.1945L135.313 2.99267L135.359 3.74848Z" fill="url(#paint0_linear_1632_359)"/>
<defs>
<linearGradient id="paint0_linear_1632_359" x1="11.5" y1="142.928" x2="311.998" y2="143.662" gradientUnits="userSpaceOnUse">
<stop stop-color="#0A7FD2"/>
<stop offset="1" stop-color="#FCFF32"/>
</linearGradient>
</defs>
</svg>
