<svg xmlns="http://www.w3.org/2000/svg" width="1814" height="1803" fill="none"><g filter="url(#a)"><path fill="#000" fill-opacity=".3" d="m1093.82 1608.24 24.92-26.92v-46.85l-49.96-81.06-83.989-99.11 10.079-85.68 10.08-43.07 11.14-36.47-31.299-22.11-58.796-12.58-329.258 18.38-115.912-26.88H376.673c-99.114-54.32-254.371-153.062-262.434-157.093-8.064-4.032 7.401 166.563 10.761 271.273l138.123 125.17 139.43 119.28 125.991 45.35 103.09 74.04 78.144 37.16 144.796 21.51 87.724-12.54 36.884-8.97 62.798-10.96 51.84-7.98z"/></g><path fill="url(#b)" d="m838.452 1387.87 26.932 20.46L25.5 1802.07l-25.5-21z"/><path fill="url(#c)" d="m1787.07 874.617 26.93 20.452-979.859 453.711-26.499-20.51z"/><g filter="url(#d)"><path fill="url(#e)" d="M550.303 949.148c74.07-64.619 102-203.657 47.718-259.394-63.722-65.432-172.725-41.855-236.867 23.128-72.305 73.253-88.342 211.848-2.661 270.448 62.548 42.78 134.729 15.615 191.81-34.182"/><path fill="#6D6D6D" fill-opacity=".1" d="M550.303 949.148c74.07-64.619 102-203.657 47.718-259.394-63.722-65.432-172.725-41.855-236.867 23.128-72.305 73.253-88.342 211.848-2.661 270.448 62.548 42.78 134.729 15.615 191.81-34.182"/></g><mask id="g" width="327" height="355" x="300" y="650" maskUnits="userSpaceOnUse" style="mask-type:alpha"><path fill="url(#f)" d="M550.303 949.148c74.07-64.619 102-203.657 47.718-259.394-63.722-65.432-172.725-41.855-236.867 23.128-72.305 73.253-88.342 211.848-2.661 270.448 62.548 42.78 134.729 15.615 191.81-34.182"/><path fill="#6D6D6D" fill-opacity=".1" d="M550.303 949.148c74.07-64.619 102-203.657 47.718-259.394-63.722-65.432-172.725-41.855-236.867 23.128-72.305 73.253-88.342 211.848-2.661 270.448 62.548 42.78 134.729 15.615 191.81-34.182"/></mask><g mask="url(#g)"><g filter="url(#h)"><path fill="#000" fill-opacity=".15" d="m501.297 669.397 39.964-2.42s26.017 43.176 46.311 68.838c14.614 18.479 38.614 30.56 38.614 30.56l.308 9.608-3.406 8.872-96.702-12.91z"/></g><g filter="url(#i)"><path fill="#000" fill-opacity=".2" d="m282.024 871.851 63.035-23.808s26.017 43.176 46.31 68.837c14.614 18.48 38.614 30.56 38.614 30.56l.309 9.609-38.923 43.421s-22.554-37.759-40.092-59.686c-23.835-29.8-69.253-68.933-69.253-68.933"/></g></g><g filter="url(#j)"><path fill="url(#k)" d="M972.55 979.247c-30.485-3.827-48.266-11.96-75.37-30.161-10.068-6.761-86.899-4.672-95.502-1.278-14.096 5.561-4.838 35.236-.443 45.658L463.892 1156.74l-44.517-65c-32.259-58.88-23.184-61.25-34.537-112.492-10.758-32.834-18.411-35.389-28.078-48.286-17.984-23.99-31.007-31.745-50.076-49.572-17.425-16.291-39.924-46.229-39.924-46.229l74.905-171.041 148.199-34.481 52.731 47.05s27.799 46.874 52.324 71.932c8.775 8.966 17.81 15.174 31.269 19.696 50.035 16.81 96.368 5.348 148.351 29.581 0 0 41.881 22.49 67.123 31.118 28.818 9.849 48.445 8.503 76.111 22.006 21.598 10.542 29.435 23.832 50.742 34.824 21.545 11.114 40.415 15.075 56.875 21.502s18.8 32.588 13.3 40.623c-16.32 23.908-30.31 31.607-66.14 31.276"/><path fill="#6D6D6D" fill-opacity=".1" d="M972.55 979.247c-30.485-3.827-48.266-11.96-75.37-30.161-10.068-6.761-86.899-4.672-95.502-1.278-14.096 5.561-4.838 35.236-.443 45.658L463.892 1156.74l-44.517-65c-32.259-58.88-23.184-61.25-34.537-112.492-10.758-32.834-18.411-35.389-28.078-48.286-17.984-23.99-31.007-31.745-50.076-49.572-17.425-16.291-39.924-46.229-39.924-46.229l74.905-171.041 148.199-34.481 52.731 47.05s27.799 46.874 52.324 71.932c8.775 8.966 17.81 15.174 31.269 19.696 50.035 16.81 96.368 5.348 148.351 29.581 0 0 41.881 22.49 67.123 31.118 28.818 9.849 48.445 8.503 76.111 22.006 21.598 10.542 29.435 23.832 50.742 34.824 21.545 11.114 40.415 15.075 56.875 21.502s18.8 32.588 13.3 40.623c-16.32 23.908-30.31 31.607-66.14 31.276"/></g><mask id="m" width="804" height="638" x="238" y="588" maskUnits="userSpaceOnUse" style="mask-type:alpha"><path fill="#969696" d="M972.55 979.246c-30.485-3.827-48.266-11.96-75.37-30.161-10.068-6.761-83.549-5.589-95.502-1.278s-7.656 28.09-3.095 39.133c12.92 31.28 20.634 46.02 38.594 74.07l-334.552 164.35-83.25-133.62c-32.259-58.88-51.577-102.282-62.93-153.53-10.758-32.833-18.411-35.388-28.078-48.285-17.983-23.991-31.007-31.745-50.076-49.573-17.425-16.29-39.924-46.228-39.924-46.228l74.906-171.042 148.198-34.48 52.731 47.05s27.799 46.873 52.325 71.932c8.775 8.966 17.809 15.174 31.268 19.696 42.158 14.163 74.237 16.585 117.839 37.488 20.862 10.002 51.459 29.356 51.459 29.356s49.327 26.263 74.569 34.89c28.818 9.85 48.445 8.504 76.111 22.007 21.598 10.542 29.435 23.831 50.742 34.823 21.545 11.115 40.415 15.076 56.875 21.503s18.8 32.588 13.3 40.623c-16.32 23.907-30.31 31.607-66.14 31.276"/></mask><g filter="url(#l)" mask="url(#m)"><path fill="url(#o)" d="M977.225 933.476c23.125 3.155 60.705 0 60.705 0l16.81 10.74-44.36 48.099h-56.009l-54.366-25.476-103.033-14.685s2.117-11.908 5.604-18.678c5.496-10.676 16.676-20.343 33.621-27.086 23.824-9.48 42.095-2.185 67.246 2.803 29.754 5.901 43.382 20.135 73.782 24.283"/><path fill="#6D6D6D" fill-opacity=".1" d="M977.225 933.476c23.125 3.155 60.705 0 60.705 0l16.81 10.74-44.36 48.099h-56.009l-54.366-25.476-103.033-14.685s2.117-11.908 5.604-18.678c5.496-10.676 16.676-20.343 33.621-27.086 23.824-9.48 42.095-2.185 67.246 2.803 29.754 5.901 43.382 20.135 73.782 24.283"/></g><g filter="url(#p)"><path fill="url(#q)" d="M655.188 1541.23s8.884 5.77 26.82 19.86c26.469 20.8 48.626 39.11 80.1 51.16 38.819 14.87 94.274 36.71 94.274 36.71s23.558 6.57 33.313-2.66c6.226-5.89 8.669-20.24 8.669-20.24 21.229 25.15 40.834 38.83 52.964 42.83 20.725 6.84 29.525 2.8 38.663-14.46 18.599 11.52 27.559 15.2 44.379 15.2 14.52 0 25.75-17.48 21.2-30.63-2.89-8.35-19.2-37.62-42.94-59.31-10.96-21.38-17.578-33.21-36.636-53.79-9.135-18.68-15.976-31.8-27.364-51.4 24.081 29.87 40.884 49.27 67.35 76.24 20.33 20.72 42.34 31.73 62.38 37.96 14.38 4.47 25.46.49 31.55-7.31 4.93-6.31 2.14-24.49-11.98-43.13l-34.04-35.96c-.02-.04-12.6-24.81-23.83-38.72-7.69-9.51-18.09-17.3-23.29-26.91-18.789-34.67-28.611-56.53-28.611-56.53zm104.82-19.72c-1.051-1.66 4.368-7.34 10.491-6.3 29.113 4.96 67.991 46.54 88.363 65.8-18.035-11.21-30.487-14.19-48.902-23.86-8.59-4.51-18.172-14.07-26.326-19.9-8.017-5.72-21.019-11.64-23.626-15.74"/><path fill="#6D6D6D" fill-opacity=".1" d="M655.188 1541.23s8.884 5.77 26.82 19.86c26.469 20.8 48.626 39.11 80.1 51.16 38.819 14.87 94.274 36.71 94.274 36.71s23.558 6.57 33.313-2.66c6.226-5.89 8.669-20.24 8.669-20.24 21.229 25.15 40.834 38.83 52.964 42.83 20.725 6.84 29.525 2.8 38.663-14.46 18.599 11.52 27.559 15.2 44.379 15.2 14.52 0 25.75-17.48 21.2-30.63-2.89-8.35-19.2-37.62-42.94-59.31-10.96-21.38-17.578-33.21-36.636-53.79-9.135-18.68-15.976-31.8-27.364-51.4 24.081 29.87 40.884 49.27 67.35 76.24 20.33 20.72 42.34 31.73 62.38 37.96 14.38 4.47 25.46.49 31.55-7.31 4.93-6.31 2.14-24.49-11.98-43.13l-34.04-35.96c-.02-.04-12.6-24.81-23.83-38.72-7.69-9.51-18.09-17.3-23.29-26.91-18.789-34.67-28.611-56.53-28.611-56.53zm104.82-19.72c-1.051-1.66 4.368-7.34 10.491-6.3 29.113 4.96 67.991 46.54 88.363 65.8-18.035-11.21-30.487-14.19-48.902-23.86-8.59-4.51-18.172-14.07-26.326-19.9-8.017-5.72-21.019-11.64-23.626-15.74"/></g><mask id="r" width="458" height="293" x="655" y="1380" maskUnits="userSpaceOnUse" style="mask-type:luminance"><path fill="#fff" d="M655.178 1541.23s8.889 5.76 26.83 19.86c26.47 20.8 48.626 39.11 80.1 51.16 38.799 14.86 94.216 36.69 94.274 36.71 0 0 23.558 6.57 33.313-2.66 6.226-5.89 8.669-20.24 8.669-20.24 21.229 25.15 40.834 38.83 52.964 42.83 20.725 6.84 29.525 2.8 38.663-14.46 18.599 11.52 27.559 15.2 44.379 15.2 14.52 0 25.75-17.48 21.2-30.63-2.89-8.35-19.2-37.62-42.94-59.31-10.96-21.38-17.578-33.21-36.636-53.79-9.135-18.68-15.976-31.8-27.364-51.4 24.081 29.86 40.884 49.27 67.35 76.24 20.33 20.71 42.34 31.73 62.38 37.96 14.38 4.47 25.46.49 31.55-7.31 4.93-6.31 2.14-24.49-11.98-43.13l-34.04-35.96c-.02-.04-12.6-24.81-23.83-38.72-7.69-9.52-18.09-17.3-23.29-26.91-18.789-34.67-28.688-56.62-28.688-56.62zm104.83-19.72c-1.051-1.66 4.368-7.34 10.491-6.3 29.113 4.96 67.991 46.54 88.363 65.8-18.035-11.21-30.487-14.19-48.902-23.86-8.59-4.51-18.172-14.08-26.326-19.9-8.017-5.73-21.019-11.64-23.626-15.74"/></mask><g mask="url(#r)"><g filter="url(#s)"><path fill="url(#t)" d="M791.357 1507.68c18.145 20.09 38.555 45.03 38.555 45.03l-69.981-31.42s-1.308-4.08 0-7.78c1.553-4.39 3.997-8.81 8.1-11.02 8.224-4.41 17.071-1.74 23.326 5.19"/><path fill="#6D6D6D" fill-opacity=".1" d="M791.357 1507.68c18.145 20.09 38.555 45.03 38.555 45.03l-69.981-31.42s-1.308-4.08 0-7.78c1.553-4.39 3.997-8.81 8.1-11.02 8.224-4.41 17.071-1.74 23.326 5.19"/></g><g filter="url(#u)"><path fill="url(#v)" d="M759.455 1590.88c23.998 14.7 88.486 53.43 88.486 53.43s-114.032-30.24-144.208-48.86c-33.993-20.98-74.468-70.12-74.468-70.12s10.827-10.86 19.786-13.68c9.112-2.86 15.168-2.21 24.462 0s23.348 24.48 39.213 39.22c17.598 16.35 25.924 27.26 46.729 40.01"/><path fill="#6D6D6D" fill-opacity=".1" d="M759.455 1590.88c23.998 14.7 88.486 53.43 88.486 53.43s-114.032-30.24-144.208-48.86c-33.993-20.98-74.468-70.12-74.468-70.12s10.827-10.86 19.786-13.68c9.112-2.86 15.168-2.21 24.462 0s23.348 24.48 39.213 39.22c17.598 16.35 25.924 27.26 46.729 40.01"/></g><g filter="url(#w)"><path fill="url(#x)" d="M989.05 1637.68c-1.642-7.42-7.803-17.84-7.803-17.84s26.703 19.52 39.713 33.33c7.26 7.71 14.97 22.89 14.97 22.89l-23.55-4.68-22.648-13.3s1.152-12.11-.682-20.4"/><path fill="#6D6D6D" fill-opacity=".1" d="M989.05 1637.68c-1.642-7.42-7.803-17.84-7.803-17.84s26.703 19.52 39.713 33.33c7.26 7.71 14.97 22.89 14.97 22.89l-23.55-4.68-22.648-13.3s1.152-12.11-.682-20.4"/></g><g filter="url(#y)"><path fill="url(#z)" d="M1080.05 1577.6c7.4 5.55 17.51 15.95 17.51 15.95s-31.44-.89-51.57-11.74c-28.74-15.48-96.83-106.81-96.83-106.81s73.34 67.97 96.83 82.6c11.46 7.14 23.26 11.9 34.06 20"/><path fill="#6D6D6D" fill-opacity=".1" d="M1080.05 1577.6c7.4 5.55 17.51 15.95 17.51 15.95s-31.44-.89-51.57-11.74c-28.74-15.48-96.83-106.81-96.83-106.81s73.34 67.97 96.83 82.6c11.46 7.14 23.26 11.9 34.06 20"/></g><g filter="url(#A)"><path fill="url(#B)" d="m965.958 1696.06 16.236-30.4a.22.22 0 0 0 .085-.16l-.085.16c-1.974 1.78-38.226.78-83.958-39.7l1.519 16.9 13.31 15.72z"/><path fill="#6D6D6D" fill-opacity=".1" d="m965.958 1696.06 16.236-30.4a.22.22 0 0 0 .085-.16l-.085.16c-1.974 1.78-38.226.78-83.958-39.7l1.519 16.9 13.31 15.72z"/></g></g><g filter="url(#C)"><path fill="url(#D)" d="M489.978 675.953c64.372-8.879 117.219 25.117 117.219 25.117s-80.612-149.062-133.015-248.853c0 0-67.373-134.163-118.45-215.477C295.265 140.477 123.279 0 123.279 0L111.81 690.067c78.274 98.839 153.493 197.146 232.003 281.715 0 0-64.774-127.495 11.919-229.3 7.364-9.776 64.237-56.873 134.246-66.529"/><path fill="#6D6D6D" fill-opacity=".1" d="M489.978 675.953c64.372-8.879 117.219 25.117 117.219 25.117s-80.612-149.062-133.015-248.853c0 0-67.373-134.163-118.45-215.477C295.265 140.477 123.279 0 123.279 0L111.81 690.067c78.274 98.839 153.493 197.146 232.003 281.715 0 0-64.774-127.495 11.919-229.3 7.364-9.776 64.237-56.873 134.246-66.529"/></g><mask id="E" width="521" height="549" x="468" y="993" maskUnits="userSpaceOnUse" style="mask-type:alpha"><path fill="#D9D9D9" d="m961.473 1324.88 26.701 20.56v34.68l-332.979 161.12v-34.68L628.494 1486v-34.68l-26.7-20.56v-34.68l-26.701-20.56.001-34.68-26.699-20.56v-34.68l-26.701-20.57v-34.66l-26.701-20.56-.001-34.68-26.701-20.56 332.9-161.136 26.7 20.566.001 34.67 26.701 20.57v34.68l26.781 20.56-.001 34.68 26.701 20.56v34.68l26.699 20.56v34.68l26.7 20.56z"/></mask><g mask="url(#E)"><path fill="#023558" d="M994.768 1342.25v34.68L648.877 1545v-35.55z"/><path fill="#023558" d="m828.264 950.806 220.206 427.014-406.119 188.95-231.53-420.65z"/><path fill="#024D81" d="m965.043 1322.99 26.932 20.45-338.59 163.83-26.502-20.5zm-20.618-58.13 26.933 20.45-344.348 166.55-26.45-20.68zm-18.072-59.44 27.301 20.33-352.242 170.34-26.45-20.68zm-32.388-52.52 27.478 20.2-352.233 170.45-26.45-20.67zm-33.949-51.72 27.478 20.19-352.336 170.46-26.433-20.55zm-25.981-55.55 27.479 20.19-352.197 170.57-26.684-20.59zm-30.266-53.341 27.26 20.201-352.118 170.45-26.348-20.68z"/></g><path fill="#000" fill-opacity=".15" d="m921.391 1374.99 69.025 53.76 3.899 18.67-8.084 8.88-14.92 2.1-.524-5.24 3.306-4.1-66.86-58.5-76.744-56.06-59.75-76.08-48.721-37.07-50.966 26.09 50.966 34.96 18.755 25.02 15.754 27.08 18.903 26.7-53.412 25.86-4.893-9.96 23.648-23.24-9.659-7.34-16.03-26.59-20.72-24.42s-23.849-9.83-37.896-18.39c-19.288-11.75-45.028-36.29-45.028-36.29s-4.88-7.84-5.392-13.48c-.664-7.34 5.392-18.07 5.392-18.07l33.713-29.34s3.798-22.05-5.619-28.09c-21.149-13.57-65.019-33.51-65.019-33.51l6.422-16.26c2.993-7.67 1.785-14.84-6.422-14.84s-16.68-2.41-24.08-9.24c-5.176-4.78-11.333-8.42-9.633-15.25 1.94-7.8 12.308-8.8 19.929-8.8 14.449 0 29.488 3.24 42.682 13.61 4.041 3.18 8.027 10.44 8.027 10.44l11.358 9.24s67.89 14.84 83.624 26.07c5.724 4.08 11.753 13.64 11.753 13.64l29.738 67.65 56.79 48.64 49.816 79.24z"/><path fill="url(#F)" d="M1001.16 1419.24s.44 6.24 0 10.2c-.65 5.75-1.457 9.07-4.011 14.25-3.359 6.82-8.198 14.71-8.198 14.71h-14.363v-5.44s4.982-4.27 5.253-7.48c.651-7.74 0-21.87 0-21.87h-5.253s-3.637-62.01-7.872-71.65c-2.647-6.02-19.366-24-25.2-51.05-4.65-21.55-10.881-54.74-10.881-54.74-21.478 11.19-32.084 16.37-50.448 33.19 0 0 2.903 12.87 5.776 21.55 3.132 9.47 3.964 15.77 6.127 25.44 3.269 14.63 10.163 39.36 10.163 39.36 1.244 5.79 2.813 10.98-1.611 14.11-4.423 3.13-35.044 5.32-48.759 9.51v-5.47l32.285-15.69s-10.088-22.41-13.892-36.53c-5.311-19.72-18.393-48.8-18.393-48.8s-4.505-10.82-2.87-17.58c1.47-6.08 8.97-13.27 8.97-13.27l43.321-40.74s-2.707-30.07-4.023-47.78c-1.589-21.37-9.105-32.09-9.97-53.5-.222-5.49-.495-15.63 1.025-18.63 2.222-4.38 8.945-8.85 8.945-8.85s-6.697-8.06-8.945-14.46c-3.691-10.5-3.42-19.66 0-28.94 2.441-6.61 11.586-15.39 23.16-14.89 9.85.43 14.544 4.86 18.568 11.92 3.32 5.82 2.426 13.24 1.329 20.16-1.031 6.49-2.99 16.57-2.99 16.57 15.424 8.5 22.837 25.67 26.574 31.76 4.381 7.13 15.018 38.78 15.018 63.54 0 10.88 4.76 36.39 5.017 62.39l-5.017 6.18s-1.224 55.69 8.158 75.44c4.486 9.45 8.663 18.82 12.428 33.28 6.7 25.72 7.228 71.5 7.228 71.5z"/><path fill="url(#G)" d="M937.825 1232.19c1.244-5.55 3.867-7.08 3.867-12.57 0-2.7-3.451-29.17-8.319-47.26-5.295-19.68-18.346-48.87-18.346-48.87l26.665-5.23s7.842 28.56 10.795 47.26c4.018 25.46 1.37 44.02 3.006 65.83.177 2.36 1.358 4.27 2.145 5.84.787 1.56 1.036 1.95 1.036 2.77s-.843 1.27-1.779 1.44c-1.168.21-4.008-4.27-6.241-7.9-.264 3.84.564 10.14 2.006 12.12 1.443 1.99-.442 4.29-1.696 3.73-4.119-1.84-5.895-6.58-7.438-12.41 0 0-2.779 9.98-3.328 11.49s-2.853 1.13-3.24 0c-.386-1.12-.67-9.39.867-16.24"/><defs><linearGradient id="b" x1="941.943" x2="151.181" y1="1366.61" y2="1722.07" gradientUnits="userSpaceOnUse"><stop offset=".735" stop-color="#024D81"/><stop offset=".831" stop-color="#32FF92"/><stop offset="1" stop-color="#FCFF32"/></linearGradient><linearGradient id="c" x1="1630.01" x2="932.705" y1="962.662" y2="1269.05" gradientUnits="userSpaceOnUse"><stop stop-color="#FCFF32"/><stop offset=".652" stop-color="#32FF92"/><stop offset=".759" stop-color="#024D81"/></linearGradient><linearGradient id="e" x1="638.301" x2="334.925" y1="726.412" y2="981.453" gradientUnits="userSpaceOnUse"><stop stop-color="#A6FE5B"/><stop offset="1" stop-color="#01518A"/></linearGradient><linearGradient id="f" x1="638.301" x2="334.925" y1="726.412" y2="981.453" gradientUnits="userSpaceOnUse"><stop stop-color="#A6FE5B"/><stop offset="1" stop-color="#01518A"/></linearGradient><linearGradient id="k" x1="1057.78" x2="374.151" y1="947.5" y2="1243.35" gradientUnits="userSpaceOnUse"><stop stop-color="#0A7FD2"/><stop offset=".512" stop-color="#32FF92"/><stop offset="1" stop-color="#FCFF32"/></linearGradient><linearGradient id="o" x1="1048.78" x2="926.635" y1="938.5" y2="1107.15" gradientUnits="userSpaceOnUse"><stop stop-color="#0A7FD2"/><stop offset=".704" stop-color="#32FF92"/><stop offset="1" stop-color="#FCFF32"/></linearGradient><linearGradient id="q" x1="993.071" x2="782.697" y1="1409.16" y2="1714.27" gradientUnits="userSpaceOnUse"><stop stop-color="#0A7FD2"/><stop offset=".512" stop-color="#32FF92"/><stop offset="1" stop-color="#FCFF32"/></linearGradient><linearGradient id="t" x1="829.912" x2="772.638" y1="1530.67" y2="1534.43" gradientUnits="userSpaceOnUse"><stop stop-color="#4DFB7E"/><stop offset=".481" stop-color="#2DEE94"/><stop offset="1" stop-color="#1DBCB3"/></linearGradient><linearGradient id="v" x1="845.808" x2="623.806" y1="1643.4" y2="1603.58" gradientUnits="userSpaceOnUse"><stop stop-color="#A6FF5B"/><stop offset=".481" stop-color="#2DEE99"/><stop offset="1" stop-color="#7BFF6F"/></linearGradient><linearGradient id="x" x1="1030.94" x2="955.579" y1="1669.45" y2="1657.98" gradientUnits="userSpaceOnUse"><stop stop-color="#32FF92"/><stop offset=".481" stop-color="#2DEE99"/><stop offset="1" stop-color="#1DBCB3"/></linearGradient><linearGradient id="z" x1="1100.41" x2="966.638" y1="1586.34" y2="1493.69" gradientUnits="userSpaceOnUse"><stop stop-color="#17BCB8"/><stop offset=".476" stop-color="#1DB2AC"/><stop offset="1" stop-color="#1CA0A2"/></linearGradient><linearGradient id="B" x1="982.279" x2="914.002" y1="1666.56" y2="1670.55" gradientUnits="userSpaceOnUse"><stop stop-color="#4DFB7E"/><stop offset=".481" stop-color="#2DEE94"/><stop offset="1" stop-color="#1DBCB3"/></linearGradient><linearGradient id="D" x1="530.779" x2="141.779" y1="505.5" y2="780.5" gradientUnits="userSpaceOnUse"><stop stop-color="#0A7FD2"/><stop offset=".623" stop-color="#023558"/><stop offset="1" stop-color="#023558"/></linearGradient><linearGradient id="F" x1="925.613" x2="925.479" y1="1132.04" y2="1453.35" gradientUnits="userSpaceOnUse"><stop stop-color="#32FF92"/><stop offset="1" stop-color="#096BAE"/></linearGradient><linearGradient id="G" x1="922.21" x2="925.433" y1="1254.54" y2="1118.68" gradientUnits="userSpaceOnUse"><stop stop-color="#FCFF32"/><stop offset="1" stop-color="#32FF92"/></linearGradient><filter id="a" width="1108.65" height="795.705" x="61.015" y="937.803" color-interpolation-filters="sRGB" filterUnits="userSpaceOnUse"><feFlood flood-opacity="0" result="BackgroundImageFix"/><feBlend in="SourceGraphic" in2="BackgroundImageFix" result="shape"/><feGaussianBlur result="effect1_foregroundBlur_2372_552" stdDeviation="25.462"/></filter><filter id="d" width="325.993" height="353.698" x="300.372" y="650.877" color-interpolation-filters="sRGB" filterUnits="userSpaceOnUse"><feFlood flood-opacity="0" result="BackgroundImageFix"/><feBlend in="SourceGraphic" in2="BackgroundImageFix" result="shape"/><feTurbulence baseFrequency="2 2" numOctaves="3" result="noise" seed="1706" stitchTiles="stitch" type="fractalNoise"/><feColorMatrix in="noise" result="alphaNoise" type="luminanceToAlpha"/><feComponentTransfer in="alphaNoise" result="coloredNoise1"><feFuncA tableValues="1 1 1 1 1 1 1 1 1 1 1 1 1 1 1 1 1 1 1 1 1 1 1 1 1 1 1 1 1 1 1 1 1 1 1 1 1 1 1 1 1 1 1 1 1 1 1 1 1 1 1 0 0 0 0 0 0 0 0 0 0 0 0 0 0 0 0 0 0 0 0 0 0 0 0 0 0 0 0 0 0 0 0 0 0 0 0 0 0 0 0 0 0 0 0 0 0 0 0 0" type="discrete"/></feComponentTransfer><feComposite in="coloredNoise1" in2="shape" operator="in" result="noise1Clipped"/><feFlood flood-color="rgba(0, 0, 0, 0.08)" result="color1Flood"/><feComposite in="color1Flood" in2="noise1Clipped" operator="in" result="color1"/><feMerge result="effect1_noise_2372_552"><feMergeNode in="shape"/><feMergeNode in="color1"/></feMerge></filter><filter id="h" width="157.197" height="149.877" x="485.297" y="650.978" color-interpolation-filters="sRGB" filterUnits="userSpaceOnUse"><feFlood flood-opacity="0" result="BackgroundImageFix"/><feBlend in="SourceGraphic" in2="BackgroundImageFix" result="shape"/><feGaussianBlur result="effect1_foregroundBlur_2372_552" stdDeviation="8"/></filter><filter id="i" width="180.267" height="184.422" x="266.024" y="832.043" color-interpolation-filters="sRGB" filterUnits="userSpaceOnUse"><feFlood flood-opacity="0" result="BackgroundImageFix"/><feBlend in="SourceGraphic" in2="BackgroundImageFix" result="shape"/><feGaussianBlur result="effect1_foregroundBlur_2372_552" stdDeviation="8"/></filter><filter id="j" width="774.598" height="527.104" x="266.76" y="629.639" color-interpolation-filters="sRGB" filterUnits="userSpaceOnUse"><feFlood flood-opacity="0" result="BackgroundImageFix"/><feBlend in="SourceGraphic" in2="BackgroundImageFix" result="shape"/><feTurbulence baseFrequency="1 1" numOctaves="3" result="noise" seed="1706" stitchTiles="stitch" type="fractalNoise"/><feColorMatrix in="noise" result="alphaNoise" type="luminanceToAlpha"/><feComponentTransfer in="alphaNoise" result="coloredNoise1"><feFuncA tableValues="1 1 1 1 1 1 1 1 1 1 1 1 1 1 1 1 1 1 1 1 1 1 1 1 1 1 1 1 1 1 1 1 1 1 1 1 1 1 1 1 1 1 1 1 1 1 1 1 1 1 1 0 0 0 0 0 0 0 0 0 0 0 0 0 0 0 0 0 0 0 0 0 0 0 0 0 0 0 0 0 0 0 0 0 0 0 0 0 0 0 0 0 0 0 0 0 0 0 0 0" type="discrete"/></feComponentTransfer><feComposite in="coloredNoise1" in2="shape" operator="in" result="noise1Clipped"/><feFlood flood-color="rgba(0, 0, 0, 0.05)" result="color1Flood"/><feComposite in="color1Flood" in2="noise1Clipped" operator="in" result="color1"/><feMerge result="effect1_noise_2372_552"><feMergeNode in="shape"/><feMergeNode in="color1"/></feMerge></filter><filter id="l" width="257.772" height="90.532" x="796.972" y="901.782" color-interpolation-filters="sRGB" filterUnits="userSpaceOnUse"><feFlood flood-opacity="0" result="BackgroundImageFix"/><feBlend in="SourceGraphic" in2="BackgroundImageFix" result="shape"/><feTurbulence baseFrequency="1 1" numOctaves="3" result="noise" seed="1706" stitchTiles="stitch" type="fractalNoise"/><feColorMatrix in="noise" result="alphaNoise" type="luminanceToAlpha"/><feComponentTransfer in="alphaNoise" result="coloredNoise1"><feFuncA tableValues="1 1 1 1 1 1 1 1 1 1 1 1 1 1 1 1 1 1 1 1 1 1 1 1 1 1 1 1 1 1 1 1 1 1 1 1 1 1 1 1 1 1 1 1 1 1 1 1 1 1 1 0 0 0 0 0 0 0 0 0 0 0 0 0 0 0 0 0 0 0 0 0 0 0 0 0 0 0 0 0 0 0 0 0 0 0 0 0 0 0 0 0 0 0 0 0 0 0 0 0" type="discrete"/></feComponentTransfer><feComposite in="coloredNoise1" in2="shape" operator="in" result="noise1Clipped"/><feFlood flood-color="rgba(0, 0, 0, 0.05)" result="color1Flood"/><feComposite in="color1Flood" in2="noise1Clipped" operator="in" result="color1"/><feMerge result="effect1_noise_2372_552"><feMergeNode in="shape"/><feMergeNode in="color1"/></feMerge></filter><filter id="p" width="456.978" height="291.905" x="655.188" y="1380.14" color-interpolation-filters="sRGB" filterUnits="userSpaceOnUse"><feFlood flood-opacity="0" result="BackgroundImageFix"/><feBlend in="SourceGraphic" in2="BackgroundImageFix" result="shape"/><feTurbulence baseFrequency="2 2" numOctaves="3" result="noise" seed="1706" stitchTiles="stitch" type="fractalNoise"/><feColorMatrix in="noise" result="alphaNoise" type="luminanceToAlpha"/><feComponentTransfer in="alphaNoise" result="coloredNoise1"><feFuncA tableValues="1 1 1 1 1 1 1 1 1 1 1 1 1 1 1 1 1 1 1 1 1 1 1 1 1 1 1 1 1 1 1 1 1 1 1 1 1 1 1 1 1 1 1 1 1 1 1 1 1 1 1 0 0 0 0 0 0 0 0 0 0 0 0 0 0 0 0 0 0 0 0 0 0 0 0 0 0 0 0 0 0 0 0 0 0 0 0 0 0 0 0 0 0 0 0 0 0 0 0 0" type="discrete"/></feComponentTransfer><feComposite in="coloredNoise1" in2="shape" operator="in" result="noise1Clipped"/><feFlood flood-color="rgba(0, 0, 0, 0.05)" result="color1Flood"/><feComposite in="color1Flood" in2="noise1Clipped" operator="in" result="color1"/><feMerge result="effect1_noise_2372_552"><feMergeNode in="shape"/><feMergeNode in="color1"/></feMerge></filter><filter id="s" width="70.562" height="52.374" x="759.35" y="1500.34" color-interpolation-filters="sRGB" filterUnits="userSpaceOnUse"><feFlood flood-opacity="0" result="BackgroundImageFix"/><feBlend in="SourceGraphic" in2="BackgroundImageFix" result="shape"/><feTurbulence baseFrequency="2 2" numOctaves="3" result="noise" seed="1706" stitchTiles="stitch" type="fractalNoise"/><feColorMatrix in="noise" result="alphaNoise" type="luminanceToAlpha"/><feComponentTransfer in="alphaNoise" result="coloredNoise1"><feFuncA tableValues="1 1 1 1 1 1 1 1 1 1 1 1 1 1 1 1 1 1 1 1 1 1 1 1 1 1 1 1 1 1 1 1 1 1 1 1 1 1 1 1 1 1 1 1 1 1 1 1 1 1 1 0 0 0 0 0 0 0 0 0 0 0 0 0 0 0 0 0 0 0 0 0 0 0 0 0 0 0 0 0 0 0 0 0 0 0 0 0 0 0 0 0 0 0 0 0 0 0 0 0" type="discrete"/></feComponentTransfer><feComposite in="coloredNoise1" in2="shape" operator="in" result="noise1Clipped"/><feFlood flood-color="rgba(0, 0, 0, 0.05)" result="color1Flood"/><feComposite in="color1Flood" in2="noise1Clipped" operator="in" result="color1"/><feMerge result="effect1_noise_2372_552"><feMergeNode in="shape"/><feMergeNode in="color1"/></feMerge></filter><filter id="u" width="218.676" height="134.572" x="629.265" y="1509.74" color-interpolation-filters="sRGB" filterUnits="userSpaceOnUse"><feFlood flood-opacity="0" result="BackgroundImageFix"/><feBlend in="SourceGraphic" in2="BackgroundImageFix" result="shape"/><feTurbulence baseFrequency="2 2" numOctaves="3" result="noise" seed="1706" stitchTiles="stitch" type="fractalNoise"/><feColorMatrix in="noise" result="alphaNoise" type="luminanceToAlpha"/><feComponentTransfer in="alphaNoise" result="coloredNoise1"><feFuncA tableValues="1 1 1 1 1 1 1 1 1 1 1 1 1 1 1 1 1 1 1 1 1 1 1 1 1 1 1 1 1 1 1 1 1 1 1 1 1 1 1 1 1 1 1 1 1 1 1 1 1 1 1 0 0 0 0 0 0 0 0 0 0 0 0 0 0 0 0 0 0 0 0 0 0 0 0 0 0 0 0 0 0 0 0 0 0 0 0 0 0 0 0 0 0 0 0 0 0 0 0 0" type="discrete"/></feComponentTransfer><feComposite in="coloredNoise1" in2="shape" operator="in" result="noise1Clipped"/><feFlood flood-color="rgba(0, 0, 0, 0.05)" result="color1Flood"/><feComposite in="color1Flood" in2="noise1Clipped" operator="in" result="color1"/><feMerge result="effect1_noise_2372_552"><feMergeNode in="shape"/><feMergeNode in="color1"/></feMerge></filter><filter id="w" width="54.681" height="56.224" x="981.247" y="1619.84" color-interpolation-filters="sRGB" filterUnits="userSpaceOnUse"><feFlood flood-opacity="0" result="BackgroundImageFix"/><feBlend in="SourceGraphic" in2="BackgroundImageFix" result="shape"/><feTurbulence baseFrequency="2 2" numOctaves="3" result="noise" seed="1706" stitchTiles="stitch" type="fractalNoise"/><feColorMatrix in="noise" result="alphaNoise" type="luminanceToAlpha"/><feComponentTransfer in="alphaNoise" result="coloredNoise1"><feFuncA tableValues="1 1 1 1 1 1 1 1 1 1 1 1 1 1 1 1 1 1 1 1 1 1 1 1 1 1 1 1 1 1 1 1 1 1 1 1 1 1 1 1 1 1 1 1 1 1 1 1 1 1 1 0 0 0 0 0 0 0 0 0 0 0 0 0 0 0 0 0 0 0 0 0 0 0 0 0 0 0 0 0 0 0 0 0 0 0 0 0 0 0 0 0 0 0 0 0 0 0 0 0" type="discrete"/></feComponentTransfer><feComposite in="coloredNoise1" in2="shape" operator="in" result="noise1Clipped"/><feFlood flood-color="rgba(0, 0, 0, 0.05)" result="color1Flood"/><feComposite in="color1Flood" in2="noise1Clipped" operator="in" result="color1"/><feMerge result="effect1_noise_2372_552"><feMergeNode in="shape"/><feMergeNode in="color1"/></feMerge></filter><filter id="y" width="148.405" height="118.555" x="949.16" y="1475" color-interpolation-filters="sRGB" filterUnits="userSpaceOnUse"><feFlood flood-opacity="0" result="BackgroundImageFix"/><feBlend in="SourceGraphic" in2="BackgroundImageFix" result="shape"/><feTurbulence baseFrequency="2 2" numOctaves="3" result="noise" seed="1706" stitchTiles="stitch" type="fractalNoise"/><feColorMatrix in="noise" result="alphaNoise" type="luminanceToAlpha"/><feComponentTransfer in="alphaNoise" result="coloredNoise1"><feFuncA tableValues="1 1 1 1 1 1 1 1 1 1 1 1 1 1 1 1 1 1 1 1 1 1 1 1 1 1 1 1 1 1 1 1 1 1 1 1 1 1 1 1 1 1 1 1 1 1 1 1 1 1 1 0 0 0 0 0 0 0 0 0 0 0 0 0 0 0 0 0 0 0 0 0 0 0 0 0 0 0 0 0 0 0 0 0 0 0 0 0 0 0 0 0 0 0 0 0 0 0 0 0" type="discrete"/></feComponentTransfer><feComposite in="coloredNoise1" in2="shape" operator="in" result="noise1Clipped"/><feFlood flood-color="rgba(0, 0, 0, 0.05)" result="color1Flood"/><feComposite in="color1Flood" in2="noise1Clipped" operator="in" result="color1"/><feMerge result="effect1_noise_2372_552"><feMergeNode in="shape"/><feMergeNode in="color1"/></feMerge></filter><filter id="A" width="84.043" height="70.099" x="898.236" y="1625.96" color-interpolation-filters="sRGB" filterUnits="userSpaceOnUse"><feFlood flood-opacity="0" result="BackgroundImageFix"/><feBlend in="SourceGraphic" in2="BackgroundImageFix" result="shape"/><feTurbulence baseFrequency="2 2" numOctaves="3" result="noise" seed="1706" stitchTiles="stitch" type="fractalNoise"/><feColorMatrix in="noise" result="alphaNoise" type="luminanceToAlpha"/><feComponentTransfer in="alphaNoise" result="coloredNoise1"><feFuncA tableValues="1 1 1 1 1 1 1 1 1 1 1 1 1 1 1 1 1 1 1 1 1 1 1 1 1 1 1 1 1 1 1 1 1 1 1 1 1 1 1 1 1 1 1 1 1 1 1 1 1 1 1 0 0 0 0 0 0 0 0 0 0 0 0 0 0 0 0 0 0 0 0 0 0 0 0 0 0 0 0 0 0 0 0 0 0 0 0 0 0 0 0 0 0 0 0 0 0 0 0 0" type="discrete"/></feComponentTransfer><feComposite in="coloredNoise1" in2="shape" operator="in" result="noise1Clipped"/><feFlood flood-color="rgba(0, 0, 0, 0.05)" result="color1Flood"/><feComposite in="color1Flood" in2="noise1Clipped" operator="in" result="color1"/><feMerge result="effect1_noise_2372_552"><feMergeNode in="shape"/><feMergeNode in="color1"/></feMerge></filter><filter id="C" width="495.388" height="971.782" x="111.81" y="0" color-interpolation-filters="sRGB" filterUnits="userSpaceOnUse"><feFlood flood-opacity="0" result="BackgroundImageFix"/><feBlend in="SourceGraphic" in2="BackgroundImageFix" result="shape"/><feTurbulence baseFrequency="1 1" numOctaves="3" result="noise" seed="1706" stitchTiles="stitch" type="fractalNoise"/><feColorMatrix in="noise" result="alphaNoise" type="luminanceToAlpha"/><feComponentTransfer in="alphaNoise" result="coloredNoise1"><feFuncA tableValues="1 1 1 1 1 1 1 1 1 1 1 1 1 1 1 1 1 1 1 1 1 1 1 1 1 1 1 1 1 1 1 1 1 1 1 1 1 1 1 1 1 1 1 1 1 1 1 1 1 1 1 0 0 0 0 0 0 0 0 0 0 0 0 0 0 0 0 0 0 0 0 0 0 0 0 0 0 0 0 0 0 0 0 0 0 0 0 0 0 0 0 0 0 0 0 0 0 0 0 0" type="discrete"/></feComponentTransfer><feComposite in="coloredNoise1" in2="shape" operator="in" result="noise1Clipped"/><feFlood flood-color="rgba(0, 0, 0, 0.05)" result="color1Flood"/><feComposite in="color1Flood" in2="noise1Clipped" operator="in" result="color1"/><feMerge result="effect1_noise_2372_552"><feMergeNode in="shape"/><feMergeNode in="color1"/></feMerge></filter></defs></svg>