<svg xmlns="http://www.w3.org/2000/svg" width="2140" height="3234" fill="none"><path stroke="url(#a)" stroke-width="36.004" d="M874.751 799.942c0 36.786 21.589 113.11 40.776 162.746 73.369 189.802 183.463 269.322 378.623 294.922 114.99 15.08 287.01 10.72 309.75-63.18 60.44-196.408-336.3-207.469-441.89-200.773-309.458 19.623-220.515 285.813-67.71 381.673 95.5 59.9 171.25 86.08 282.5 97.96 220.27 23.52 346.46-70.23 283.15-159.52-78.78-111.09-264.64-152.58-400.51-142.7-133.78 9.74-267.84 114.47-225.05 267.06 49.12 175.15 239.8 268.24 408.21 278.46 106.05 6.44 370.14-29.5 357.49-186.55-11.55-143.36-280.04-157.41-378.99-144.45-165.65 21.69-376.81 129.78-339 331 15.12 80.5 132 173 132 173 144.38 83.71 335.34 134.78 500 84.5 87.98-26.86 172.18-65.38 180.5-157 15.2-167.41-197.49-206.78-320.5-215-280.46-18.74-571.71 228.21-471.3 529.76 78.06 234.42 425.94 251.57 628.24 237.01 117.24-8.44 400.32-74.47 390.56-234.27-14.23-233.08-385.71-276.9-555-245-137.13 25.84-248.23 56.77-352.5 149.5-106.4 94.63-134.14 291.49-77.5 419.5 123.93 280.1 542.32 242.29 792 217.5"/><path stroke="url(#b)" stroke-width="36" d="M818.665 546.662S875.55 712.038 875.55 821.22c0 95.06-.78 167.471-20.509 281.4-39.225 226.5-332.519 237.49-348.932 469.33s398.632 267.02 354.931 516.84c-29.607 169.24-326.576 221.04-349.13 446.66-32.318 323.29-321.494 516.52-499.526 685.29"/><path fill="#096BAE" d="M258.066 928.656c-12.22 11.035-17.069 36.618-35.973 53.678-9.455 8.534-42.503 1.959-53.387-10.784-6.511-7.624-10.465-16.665-5.204-26.431 5.439-10.098 33.565-13.995 51.29-23.877 9.498-5.296 20.515-8.351 25.119-16.29s4.605-16.151 7.232-24.928c3.954-13.209 9.794-19.32 20.188-27.647 62.924-50.412 105.4-71.035 171.955-116.698 29.752-20.413 81.067-43.901 81.067-43.901l27.965-22.401 25.65-3.335-9.836 11.705-.772 6.356-33.156 13.172s-69.724 38.686-109.548 70.539c-9.325 7.459-19.419 21.282-19.419 21.282s17.362-4.341 26.168-7.563c53.575-19.601 78.476-39.923 131.837-63.532 10.007-4.427 27.723-3.082 27.723-3.082s72.524-49.312 117.565-84.623c50.056-39.243 87.022-72.931 121.725-98.806 0 0 13.396 9.028 17 18 2.992 7.449 3.5 13.5 2.5 20.5-.384 2.686-2.206 5.242-3.5 7-1.146 1.557-3.374 2.503-5.5 3-3.993.935-7.153-1.219-10.242-3.324l-.258-.176c-2.874-1.956-9-10-9-10s-112.734 88.441-136.348 117.57l170.621-10.56s7.028.181 11.672 1.574c9.269 2.781 7.586 10.957 15.356 19.447 4.051 4.426 3.154 13.429-3.27 15.01-8.227 2.025-24.5-15-24.5-15s-106.031 4.959-178.631 23.429c-37.585 9.562-85.404 50.68-85.404 50.68l-70.186 40.922c26.014-.359 50.774-5.587 114.509-24.789 0 0-3.405 10.713-20.975 16.802-50.512 17.505-90.96 24.33-143.247 53.546-47.395 26.484-60.427 35.03-104.385 45.36-24.52 5.763-44.561 10.867-64.511 11.522s-27.671 5.618-39.89 16.653"/><path fill="url(#c)" d="m931.914 334.967-.804-22.019s10.994-12.968 16.254-45.883c5.26-32.914 9.711-84.065 9.711-84.065l-40.188 1.331s.008 64.107-2.877 128.617c-.185 4.145-3.777 15.456-4.931 23.981-.191 1.415-.114 2.107 1.219 2.551 1.207.401 2.235-.617 2.923-1.488s1.537-2.974 2.711-5.136c.634-1.167 3.644-1.482 3.195 1.031-.448 2.513-4.766 25.026-5.117 26.172-.62 2.021 5.451 1.979 6.493.441 1.764-2.605 11.411-25.533 11.411-25.533"/><g filter="url(#d)"><path fill="#000" fill-opacity=".2" d="m921.726 380.465 1.046-30.261s5.506-47.357 10.766-80.271 8.705-55.128 8.705-55.128l-31.624-2.153s3.516 73.042.631 137.552c-.186 4.145-3.439 25.81-4.593 34.335-.191 1.415-.114 2.106 1.219 2.55 1.207.402 2.235-.616 2.924-1.487.688-.872 1.536-2.975 2.711-5.137.633-1.167 4.511-.916 4.062 1.597s-3.477 21.231-3.828 22.376c-.62 2.022 2.634 1.655 3.675.118 1.764-2.605 4.306-24.091 4.306-24.091"/></g><path fill="url(#e)" d="M893.622 21.767c0-3.752-9.218-21.767-31.336-21.767s-31.324 18.015-31.324 21.767v37.529c0 4.503 5.703 8.083 8.292 12.01s2.765 9.863-.92 12.008-32.256 7.507-52.532 24.769c-24.134 20.55-23.039 49.142-23.039 75.06h3.684l39.576 9.234-4.612 141.22q.205-.004.22-.003s-.138 68.968 7.965 116.725c4.127 24.328 11.832 82.37 11.832 82.37l-2.422 17.996s-.266 5.768 2.422 13.213c2.517 6.975 6.579 10.85 12.898 11.575 4.824.553 9.732-4.021 10.435-9.511 1.659-12.963 2.721-14.095-.395-27.101a385 385 0 0 0-1.567-6.172s2.273-54.997 5.07-79.877c3.938-35.03 12.658-89.361 12.658-89.361s9.424 68.911 11.335 113.372C874.522 538.671 855.028 597 852.028 669c-.235 5.658-1.627 8.648-.5 14.5.855 4.439 4.475 11.956 7 15.5 3.635 5.1 10.75 9.609 17 10 3.423.214 7.355-.073 9-2.5 1.865-2.751 1.316-6.833 0-10.5-1.802-5.022-10.5-21-10.5-21 14.034-33.274 36.971-127.362 39.837-190.585 1.871-41.264 6.706-92.843 7.246-152.443.491-54.018-3.561-138.279-3.561-138.279l40.583-10.55h3.688c0-25.918 1.095-54.51-23.04-75.06-20.275-17.263-48.845-22.624-52.531-24.769s-3.512-8.08-.924-12.008 8.296-7.507 8.296-12.01z"/><g filter="url(#f)"><path fill="#000" fill-opacity=".2" d="m801.905 380.377-1.046-30.261s-5.506-47.357-10.766-80.271-8.705-55.127-8.705-55.127l31.624-2.154s-3.516 73.042-.63 137.552c.185 4.145 3.438 25.81 4.592 34.335.191 1.415.114 2.106-1.219 2.55-1.207.402-2.235-.616-2.924-1.487-.688-.871-1.536-2.975-2.711-5.137-.633-1.166-4.51-.915-4.062 1.597.449 2.513 3.477 21.231 3.829 22.377.619 2.021-2.635 1.654-3.676.117-1.764-2.605-4.306-24.091-4.306-24.091"/></g><path fill="url(#g)" d="m791.42 380.02.805-22.019s-10.698-58.109-15.958-91.024-9.711-84.065-9.711-84.065l40.188 1.331s-.305 109.247 2.58 173.758c.186 4.145 3.777 15.456 4.931 23.981.192 1.415.114 2.107-1.219 2.55-1.206.402-2.235-.616-2.923-1.487s-1.537-2.975-2.711-5.136c-.634-1.167-3.643-1.482-3.195 1.031.449 2.513 4.766 25.026 5.117 26.171.62 2.022-5.451 1.98-6.493.442-1.764-2.605-11.411-25.533-11.411-25.533"/><defs><linearGradient id="a" x1="857.969" x2="1757.6" y1="709.241" y2="2854.59" gradientUnits="userSpaceOnUse"><stop stop-color="#096BAE"/><stop offset="1" stop-color="#0A7FD2"/></linearGradient><linearGradient id="b" x1="825.851" x2="57.623" y1="562.766" y2="2958.77" gradientUnits="userSpaceOnUse"><stop stop-color="#096BAE"/><stop offset=".286" stop-color="#32FF92"/><stop offset=".787" stop-color="#FCFF32"/><stop offset="1" stop-color="#0A7FD2"/></linearGradient><linearGradient id="c" x1="918.579" x2="928.896" y1="371" y2="196.782" gradientUnits="userSpaceOnUse"><stop stop-color="#FCFF32"/><stop offset="1" stop-color="#32FF92"/></linearGradient><linearGradient id="e" x1="862.292" x2="862.579" y1="175.919" y2="700" gradientUnits="userSpaceOnUse"><stop stop-color="#32FF92"/><stop offset="1" stop-color="#096BAE"/></linearGradient><linearGradient id="g" x1="806.579" x2="797.957" y1="414.501" y2="183.819" gradientUnits="userSpaceOnUse"><stop stop-color="#FCFF32"/><stop offset="1" stop-color="#32FF92"/></linearGradient><filter id="d" width="104.563" height="262.08" x="872.13" y="178.202" color-interpolation-filters="sRGB" filterUnits="userSpaceOnUse"><feFlood flood-opacity="0" result="BackgroundImageFix"/><feBlend in="SourceGraphic" in2="BackgroundImageFix" result="shape"/><feGaussianBlur result="effect1_foregroundBlur_2263_1722" stdDeviation="17.225"/></filter><filter id="f" width="104.563" height="262.08" x="746.938" y="178.115" color-interpolation-filters="sRGB" filterUnits="userSpaceOnUse"><feFlood flood-opacity="0" result="BackgroundImageFix"/><feBlend in="SourceGraphic" in2="BackgroundImageFix" result="shape"/><feGaussianBlur result="effect1_foregroundBlur_2263_1722" stdDeviation="17.225"/></filter></defs></svg>