<svg width="543" height="398" viewBox="0 0 543 398" fill="none" xmlns="http://www.w3.org/2000/svg">
<g filter="url(#filter0_g_2306_861)">
<path d="M489.735 240.714L309.839 69.1384C307.067 66.4951 303.029 65.6681 299.441 67.0093L56.4975 157.835C49.589 160.417 47.7624 169.337 53.0997 174.428L230.277 343.41C234.712 347.639 241.173 348.962 246.913 346.816L486.337 257.307C493.246 254.724 495.073 245.804 489.735 240.714Z" fill="black" fill-opacity="0.25"/>
</g>
<mask id="mask0_2306_861" style="mask-type:alpha" maskUnits="userSpaceOnUse" x="48" y="95" width="444" height="202">
<path d="M477.309 180.296L491.355 182.632V196.474C491.355 196.474 491.355 199.062 490.553 200.346C489.417 202.166 485.27 203.242 485.27 203.242L252.796 293.624C252.796 293.624 242.361 297.884 235.807 296.161C230.394 294.737 224.263 288.665 224.263 288.665L50.6904 121.72C50.6904 121.72 49.4856 120.39 49.0667 119.605C48.6267 118.78 48.5314 117.271 48.5314 117.271V102.781L54.4173 95.2832L241.944 268.097L477.309 180.296Z" fill="#D9D9D9"/>
</mask>
<g mask="url(#mask0_2306_861)">
<g filter="url(#filter1_n_2306_861)">
<path d="M37.1241 84.2207V110.334L234.172 311.611L437.701 202.204L187.127 85.389L37.1241 84.2207Z" fill="url(#paint0_linear_2306_861)"/>
</g>
<g filter="url(#filter2_n_2306_861)">
<path d="M53.4204 103.279L56.4185 92.7852L51.4216 94.7839L45.6385 102.186L46.4246 121.767L59.4167 134.26L58.917 115.271L53.4204 103.279Z" fill="url(#paint1_linear_2306_861)"/>
</g>
<g filter="url(#filter3_n_2306_861)">
<path d="M236.042 299.911L236.073 267.964L487.631 179.645L499.804 186.893V201.031L236.042 299.911Z" fill="url(#paint2_linear_2306_861)"/>
</g>
<g filter="url(#filter4_n_2306_861)">
<path d="M481.447 210.497L481.447 186.603L498.933 175.928L498.933 204.803L481.447 210.497Z" fill="url(#paint3_linear_2306_861)"/>
</g>
<g filter="url(#filter5_n_2306_861)">
<path d="M237.307 281.67C231.267 280.403 224.315 272.676 224.315 272.676V290.165C224.315 290.165 231.81 300.184 236.307 301.158C243.004 302.61 252.797 295.162 252.797 295.162V278.672C252.797 278.672 243.337 282.936 237.307 281.67Z" fill="url(#paint4_linear_2306_861)"/>
</g>
</g>
<g filter="url(#filter6_n_2306_861)">
<path d="M488.257 175.897L308.36 4.32195C305.589 1.67867 301.55 0.851733 297.963 2.19289L55.0191 93.0183C48.1106 95.601 46.284 104.521 51.6213 109.611L228.799 278.594C233.233 282.823 239.695 284.146 245.435 282L484.859 192.49C491.768 189.908 493.594 180.988 488.257 175.897Z" fill="url(#paint5_linear_2306_861)"/>
</g>
<path d="M109.111 128.129L96.2574 115.716L98.4518 114.874L109.753 125.787L117.075 122.976L118.628 124.476L109.111 128.129ZM127.124 121.494C125.959 121.941 124.7 122.145 123.345 122.106C121.979 122.056 120.652 121.782 119.363 121.283C118.075 120.784 116.965 120.085 116.033 119.185C115.101 118.285 114.542 117.382 114.355 116.476C114.182 115.565 114.354 114.723 114.869 113.951C115.383 113.179 116.231 112.566 117.41 112.114C118.574 111.667 119.84 111.468 121.206 111.518C122.56 111.557 123.868 111.823 125.131 112.317C126.408 112.804 127.518 113.504 128.461 114.414C129.404 115.325 129.96 116.245 130.129 117.174C130.286 118.091 130.108 118.936 129.593 119.708C129.081 120.463 128.258 121.059 127.124 121.494ZM125.571 119.994C126.317 119.708 126.845 119.311 127.155 118.804C127.479 118.292 127.56 117.725 127.397 117.105C127.25 116.478 126.865 115.865 126.244 115.265C125.611 114.655 124.874 114.185 124.033 113.856C123.195 113.51 122.326 113.315 121.427 113.273C120.53 113.213 119.709 113.327 118.963 113.613C118.201 113.905 117.664 114.313 117.351 114.837C117.042 115.344 116.955 115.905 117.091 116.52C117.216 117.124 117.595 117.732 118.228 118.343C118.849 118.942 119.591 119.418 120.456 119.769C121.32 120.12 122.195 120.32 123.079 120.369C123.979 120.411 124.81 120.287 125.571 119.994ZM140.7 116.283C139.491 116.747 138.208 116.929 136.853 116.828C135.497 116.728 134.241 116.371 133.086 115.759L134.122 114.523C135.017 114.925 135.925 115.166 136.844 115.248C137.763 115.33 138.588 115.23 139.32 114.95C139.977 114.698 140.401 114.372 140.592 113.972C140.783 113.573 140.684 113.184 140.293 112.807C140.016 112.54 139.693 112.369 139.323 112.294C138.957 112.202 138.586 112.166 138.21 112.186C137.823 112.195 137.487 112.223 137.202 112.27L134.991 112.583C133.66 112.768 132.516 112.741 131.56 112.503C130.619 112.259 129.849 111.848 129.251 111.27C128.699 110.737 128.401 110.207 128.357 109.681C128.316 109.138 128.494 108.635 128.891 108.172C129.302 107.704 129.904 107.318 130.695 107.014C131.755 106.607 132.91 106.443 134.16 106.522C135.425 106.595 136.611 106.924 137.717 107.509L136.619 108.745C135.867 108.382 135.084 108.17 134.271 108.109C133.446 108.038 132.697 108.131 132.026 108.389C131.413 108.624 131.049 108.927 130.932 109.298C130.804 109.657 130.918 110.009 131.275 110.354C131.539 110.609 131.848 110.786 132.199 110.884C132.539 110.971 132.882 111.01 133.228 111.001C133.562 110.981 133.878 110.954 134.174 110.917L136.593 110.594C137.797 110.427 138.898 110.462 139.895 110.7C140.908 110.933 141.736 111.36 142.38 111.982C142.898 112.482 143.177 113.003 143.218 113.546C143.259 114.09 143.066 114.598 142.639 115.073C142.212 115.547 141.566 115.95 140.7 116.283ZM153.704 111.291C152.54 111.738 151.289 111.93 149.953 111.869C148.617 111.808 147.32 111.522 146.061 111.011C144.791 110.49 143.696 109.785 142.776 108.896C141.844 107.997 141.269 107.099 141.052 106.205C140.85 105.304 140.982 104.485 141.449 103.747C141.919 102.992 142.707 102.403 143.811 101.979C144.707 101.635 145.625 101.454 146.564 101.434C147.508 101.398 148.431 101.494 149.334 101.722C150.241 101.933 151.091 102.25 151.886 102.675C152.684 103.083 153.37 103.564 153.945 104.12C154.072 104.242 154.201 104.386 154.332 104.553C154.466 104.704 154.588 104.851 154.696 104.996L144.799 108.795L143.418 107.462L152.106 104.127L151.742 105.105C151.279 104.476 150.669 103.988 149.914 103.641C149.159 103.295 148.367 103.094 147.538 103.04C146.71 102.985 145.945 103.093 145.243 103.362C144.542 103.631 144.038 104.011 143.732 104.501C143.426 104.991 143.367 105.549 143.556 106.175C143.749 106.784 144.226 107.416 144.987 108.071C145.606 108.749 146.339 109.275 147.185 109.649C148.034 110.006 148.909 110.205 149.808 110.248C150.711 110.274 151.529 110.147 152.26 109.866C153.066 109.556 153.602 109.157 153.866 108.667C154.131 108.177 154.211 107.65 154.106 107.085L156.542 107.081C156.729 107.584 156.747 108.105 156.596 108.644C156.448 109.166 156.135 109.659 155.655 110.123C155.191 110.58 154.54 110.97 153.704 111.291ZM171.248 104.417C170.069 104.869 168.899 104.969 167.74 104.715C166.595 104.456 165.551 103.871 164.608 102.96L159.708 98.2285L157.514 99.0709L155.978 97.588L156.426 97.4161C156.963 97.2098 157.262 96.9243 157.323 96.5596C157.383 96.1949 157.206 95.8126 156.792 95.4127L156.033 94.6796L158.116 93.8802L160.255 95.9462L162.965 94.9062L164.5 96.389L161.791 97.4291L166.639 102.111C166.95 102.411 167.28 102.649 167.629 102.825C167.993 102.996 168.394 103.091 168.831 103.109C169.256 103.117 169.714 103.026 170.207 102.837C170.312 102.797 170.433 102.743 170.571 102.674C170.723 102.6 170.861 102.532 170.984 102.469L172.399 103.835C172.239 103.943 172.046 104.048 171.818 104.151C171.602 104.265 171.412 104.353 171.248 104.417ZM180.887 100.856C179.723 101.303 178.472 101.496 177.136 101.434C175.8 101.373 174.503 101.087 173.244 100.577C171.974 100.055 170.879 99.3504 169.958 98.4618C169.027 97.562 168.452 96.6648 168.235 95.7702C168.033 94.8699 168.165 94.0507 168.632 93.3127C169.102 92.5579 169.89 91.9685 170.994 91.5445C171.89 91.2006 172.808 91.0191 173.747 90.9999C174.691 90.9638 175.614 91.0596 176.517 91.2872C177.424 91.498 178.274 91.8157 179.069 92.2403C179.867 92.6481 180.553 93.1297 181.128 93.6851C181.255 93.8073 181.384 93.9519 181.515 94.1189C181.649 94.269 181.771 94.4164 181.879 94.5612L171.982 98.3604L170.601 97.0275L179.289 93.6924L178.925 94.6704C178.462 94.0413 177.852 93.5534 177.097 93.2069C176.342 92.8603 175.55 92.6598 174.721 92.6052C173.893 92.5507 173.128 92.658 172.426 92.9274C171.725 93.1967 171.221 93.5764 170.915 94.0665C170.608 94.5565 170.55 95.1145 170.739 95.7404C170.932 96.3495 171.409 96.9814 172.17 97.636C172.789 98.3143 173.522 98.8404 174.368 99.2141C175.217 99.5711 176.092 99.7709 176.991 99.8137C177.894 99.8396 178.712 99.7121 179.443 99.4313C180.249 99.1219 180.785 98.7223 181.049 98.2326C181.314 97.7429 181.394 97.2155 181.289 96.6505L183.725 96.6465C183.912 97.1492 183.93 97.6701 183.779 98.2093C183.631 98.7316 183.318 99.2246 182.838 99.6881C182.373 100.146 181.723 100.535 180.887 100.856ZM192.809 96.2797C192.018 96.5834 191.207 96.7472 190.377 96.7711C189.549 96.7782 188.769 96.6588 188.034 96.4129C187.288 96.1559 186.656 95.7775 186.139 95.2777C185.644 94.8001 185.336 94.3208 185.213 93.84C185.094 93.3424 185.188 92.8485 185.494 92.3584C185.815 91.8626 186.366 91.3873 187.147 90.9324L191.056 88.6634L192.402 89.963L188.911 92.0015C188.238 92.3994 187.861 92.8005 187.779 93.2046C187.711 93.603 187.879 93.9966 188.282 94.3853C188.661 94.7519 189.172 94.9829 189.813 95.0782C190.469 95.1679 191.095 95.0981 191.693 94.8689C192.454 94.5766 192.99 94.2079 193.301 93.7626C193.615 93.3005 193.716 92.8037 193.604 92.2724C193.507 91.7354 193.199 91.2169 192.682 90.7171L190.318 88.4344C189.812 87.9457 189.157 87.6459 188.354 87.5351C187.554 87.4074 186.759 87.4955 185.968 87.7992C185.281 88.0628 184.807 88.431 184.546 88.9039C184.288 89.3599 184.256 89.8533 184.451 90.3839L181.912 90.3803C181.711 89.8834 181.689 89.3793 181.849 88.8681C181.996 88.3458 182.301 87.8641 182.762 87.4231C183.223 86.9822 183.812 86.6242 184.529 86.3491C185.454 85.9938 186.406 85.8148 187.383 85.8121C188.35 85.7982 189.268 85.95 190.14 86.2676C191.014 86.5683 191.768 87.0241 192.401 87.635L198.715 93.7332L196.678 94.5154L194.918 92.8159L195.402 92.7697C195.516 93.2226 195.495 93.6654 195.338 94.0982C195.181 94.5309 194.892 94.9368 194.471 95.3158C194.05 95.6948 193.496 96.0161 192.809 96.2797ZM208.085 90.4158C206.906 90.8685 205.641 91.067 204.289 91.0113C202.953 90.9499 201.656 90.664 200.397 90.1537C199.139 89.6434 198.049 88.9439 197.129 88.0553C196.197 87.1555 195.63 86.2555 195.428 85.3551C195.226 84.4548 195.367 83.6243 195.852 82.8638C196.352 82.0975 197.192 81.488 198.371 81.0353C199.163 80.7316 200.011 80.5535 200.916 80.501C201.821 80.4484 202.719 80.4996 203.61 80.6545C204.5 80.8093 205.312 81.0798 206.046 81.4657L204.877 82.8456C204.111 82.488 203.287 82.2765 202.405 82.2112C201.513 82.1347 200.686 82.2426 199.924 82.5349C199.193 82.8157 198.672 83.2095 198.363 83.7164C198.068 84.2176 197.996 84.7729 198.148 85.3824C198.299 85.9918 198.697 86.6075 199.341 87.2296C199.962 87.8294 200.697 88.3078 201.547 88.6647C202.384 89.0105 203.238 89.2106 204.108 89.2648C204.993 89.3132 205.801 89.1971 206.532 88.9163C207.294 88.624 207.816 88.2218 208.099 87.7095C208.371 87.1861 208.395 86.6256 208.173 86.028L210.756 86.0143C211 86.5725 211.051 87.1352 210.908 87.7023C210.754 88.2583 210.442 88.7737 209.974 89.2483C209.506 89.723 208.876 90.1121 208.085 90.4158ZM216.108 87.0567L203.047 74.4438L205.13 73.6445L210.703 79.0262L210.167 79.0223C209.879 78.3412 209.902 77.7191 210.237 77.1559C210.575 76.5759 211.192 76.114 212.088 75.7702C212.953 75.4379 213.872 75.2871 214.843 75.3181C215.828 75.3433 216.78 75.5369 217.697 75.8988C218.629 76.2551 219.429 76.7553 220.096 77.3996L226.118 83.2145L224.013 84.0225L218.509 78.7074C217.991 78.2075 217.427 77.8342 216.817 77.5872C216.221 77.3346 215.609 77.1969 214.981 77.1743C214.341 77.1405 213.737 77.2325 213.17 77.4503C212.618 77.6623 212.221 77.9542 211.98 78.3261C211.728 78.6868 211.659 79.0936 211.773 79.5465C211.876 79.9883 212.181 80.4535 212.687 80.9422L218.191 86.2573L216.108 87.0567ZM235.194 80.0099C234.029 80.4569 232.779 80.6496 231.443 80.5882C230.107 80.5268 228.809 80.2409 227.55 79.7305C226.28 79.2091 225.185 78.5041 224.265 77.6155C223.333 76.7157 222.759 75.8185 222.542 74.9239C222.34 74.0236 222.472 73.2044 222.939 72.4664C223.409 71.7116 224.196 71.1222 225.301 70.6982C226.196 70.3543 227.114 70.1728 228.054 70.1536C228.997 70.1175 229.92 70.2133 230.824 70.4409C231.73 70.6517 232.581 70.9694 233.375 71.394C234.173 71.8018 234.86 72.2834 235.435 72.8388C235.561 72.961 235.69 73.1056 235.821 73.2726C235.956 73.4227 236.077 73.5701 236.185 73.7149L226.288 77.5141L224.908 76.1812L233.596 72.8461L233.232 73.8241C232.768 73.195 232.158 72.7071 231.403 72.3606C230.648 72.014 229.856 71.8135 229.028 71.7589C228.199 71.7044 227.434 71.8117 226.733 72.0811C226.031 72.3504 225.527 72.7301 225.221 73.2202C224.915 73.7102 224.856 74.2682 225.046 74.8942C225.238 75.5032 225.715 76.1351 226.477 76.7897C227.096 77.468 227.828 77.9941 228.674 78.3678C229.524 78.7248 230.398 78.9246 231.298 78.9674C232.201 78.9933 233.018 78.8658 233.749 78.5851C234.556 78.2756 235.091 77.876 235.356 77.3863C235.621 76.8966 235.7 76.3692 235.595 75.8042L238.032 75.8002C238.219 76.3029 238.236 76.8238 238.085 77.363C237.938 77.8853 237.624 78.3783 237.145 78.8418C236.68 79.2996 236.03 79.689 235.194 80.0099ZM243.524 76.5328L234.224 67.5522L236.262 66.77L237.97 68.4195L237.504 68.2722C237.259 67.6524 237.301 67.1085 237.63 66.6407C237.948 66.1617 238.524 65.7618 239.36 65.4409L240.099 65.1572L241.618 66.6234L240.565 67.0274C239.714 67.3541 239.235 67.8176 239.126 68.418C239.006 69.0074 239.32 69.663 240.068 70.385L245.606 75.7334L243.524 76.5328ZM256.217 71.9398C255.008 72.4039 253.725 72.5858 252.37 72.4853C251.014 72.3848 249.758 72.0285 248.603 71.4165L249.639 70.1806C250.534 70.5819 251.441 70.8235 252.361 70.9053C253.28 70.9871 254.105 70.8876 254.837 70.6068C255.494 70.3547 255.918 70.0289 256.109 69.6295C256.3 69.23 256.201 68.8415 255.809 68.4638C255.533 68.1972 255.21 68.0263 254.84 67.951C254.474 67.8589 254.103 67.8228 253.727 67.8428C253.34 67.8518 253.004 67.8798 252.719 67.9271L250.508 68.2401C249.177 68.4252 248.033 68.3985 247.077 68.1601C246.136 67.916 245.366 67.5052 244.768 66.9276C244.216 66.3944 243.918 65.8647 243.873 65.3384C243.833 64.7952 244.011 64.2923 244.408 63.8294C244.819 63.3609 245.421 62.9747 246.212 62.671C247.272 62.2642 248.427 62.1002 249.677 62.1792C250.942 62.2524 252.127 62.5813 253.233 63.1658L252.135 64.4022C251.384 64.0388 250.601 63.827 249.788 63.7667C248.963 63.6953 248.214 63.7885 247.542 64.0464C246.93 64.2813 246.566 64.5842 246.449 64.955C246.321 65.3147 246.435 65.6667 246.792 66.011C247.056 66.2665 247.364 66.4432 247.716 66.541C248.056 66.6278 248.399 66.6669 248.745 66.6583C249.079 66.6387 249.395 66.6108 249.691 66.5746L252.11 66.2514C253.314 66.0842 254.415 66.1197 255.412 66.3577C256.425 66.59 257.253 67.0171 257.897 67.6392C258.415 68.139 258.694 68.6605 258.735 69.2036C258.776 69.7468 258.583 70.2555 258.156 70.7298C257.729 71.2041 257.083 71.6074 256.217 71.9398ZM272.675 65.4826C271.495 65.9353 270.326 66.0349 269.166 65.7815C268.022 65.5223 266.978 64.9373 266.035 64.0264L261.135 59.2945L258.94 60.1369L257.405 58.654L257.852 58.4821C258.39 58.2758 258.689 57.9903 258.749 57.6256C258.81 57.2609 258.633 56.8786 258.219 56.4787L257.46 55.7456L259.542 54.9462L261.682 57.0123L264.391 55.9722L265.927 57.4551L263.217 58.4952L268.065 63.1771C268.376 63.477 268.706 63.7151 269.055 63.8914C269.42 64.062 269.82 64.1566 270.257 64.1753C270.682 64.1829 271.141 64.0921 271.634 63.903C271.738 63.8629 271.859 63.8086 271.997 63.7402C272.15 63.6661 272.287 63.5977 272.41 63.535L273.825 64.9012C273.666 65.0091 273.472 65.1144 273.245 65.2172C273.029 65.3311 272.839 65.4195 272.675 65.4826ZM282.493 61.8535C281.328 62.3004 280.069 62.5045 278.714 62.4656C277.348 62.4156 276.021 62.1412 274.732 61.6424C273.444 61.1435 272.334 60.4442 271.402 59.5445C270.47 58.6447 269.911 57.7418 269.724 56.8357C269.551 55.9239 269.723 55.082 270.238 54.31C270.752 53.538 271.6 52.9257 272.779 52.473C273.943 52.026 275.209 51.8275 276.575 51.8775C277.929 51.9163 279.237 52.1825 280.5 52.676C281.777 53.1638 282.887 53.8631 283.83 54.7739C284.773 55.6847 285.329 56.6045 285.498 57.5331C285.655 58.4507 285.477 59.2955 284.962 60.0675C284.45 60.8226 283.627 61.418 282.493 61.8535ZM280.94 60.3539C281.686 60.0674 282.214 59.6707 282.524 59.1638C282.848 58.6511 282.929 58.0845 282.766 57.464C282.619 56.8377 282.234 56.2247 281.613 55.6249C280.98 55.0139 280.243 54.544 279.402 54.215C278.564 53.8692 277.695 53.6749 276.796 53.6321C275.899 53.5725 275.078 53.686 274.332 53.9725C273.57 54.2648 273.033 54.6728 272.72 55.1965C272.411 55.7034 272.324 56.2645 272.46 56.8796C272.585 57.4837 272.964 58.0912 273.597 58.7021C274.218 59.3019 274.96 59.7774 275.825 60.1286C276.689 60.4798 277.564 60.6797 278.448 60.7282C279.348 60.7709 280.179 60.6462 280.94 60.3539ZM135.335 153.785L122.584 141.472L124.622 140.69L126.623 142.622L125.958 142.342C125.853 141.637 126.028 140.98 126.483 140.371C126.925 139.751 127.647 139.249 128.647 138.865C129.782 138.43 131.009 138.246 132.331 138.313C133.667 138.374 134.964 138.66 136.223 139.17C137.47 139.67 138.56 140.369 139.491 141.269C140.4 142.146 140.961 143.041 141.175 143.952C141.388 144.864 141.253 145.7 140.768 146.46C140.298 147.215 139.488 147.813 138.338 148.254C137.368 148.627 136.313 148.807 135.173 148.794C134.049 148.776 132.965 148.555 131.922 148.133L131.982 147.737L137.417 152.985L135.335 153.785ZM136.629 146.815C137.39 146.523 137.926 146.123 138.235 145.616C138.545 145.109 138.616 144.554 138.45 143.95C138.287 143.33 137.896 142.72 137.274 142.12C136.63 141.498 135.895 141.019 135.069 140.685C134.245 140.333 133.392 140.133 132.507 140.085C131.611 140.025 130.782 140.141 130.021 140.434C129.259 140.726 128.716 141.128 128.392 141.641C128.082 142.148 128.001 142.714 128.149 143.341C128.301 143.95 128.693 144.56 129.325 145.171C129.946 145.771 130.682 146.249 131.531 146.606C132.384 146.946 133.253 147.141 134.137 147.189C135.037 147.232 135.867 147.107 136.629 146.815ZM153.138 142.573C151.974 143.02 150.715 143.224 149.36 143.185C147.994 143.135 146.667 142.861 145.378 142.362C144.09 141.863 142.98 141.164 142.048 140.264C141.116 139.364 140.557 138.461 140.369 137.555C140.197 136.644 140.368 135.802 140.883 135.03C141.398 134.258 142.245 133.645 143.425 133.193C144.589 132.746 145.854 132.547 147.22 132.597C148.575 132.636 149.883 132.902 151.145 133.396C152.422 133.883 153.532 134.583 154.476 135.494C155.419 136.404 155.975 137.324 156.144 138.253C156.301 139.17 156.122 140.015 155.607 140.787C155.096 141.542 154.273 142.138 153.138 142.573ZM151.586 141.074C152.332 140.787 152.86 140.39 153.17 139.883C153.494 139.371 153.575 138.804 153.412 138.184C153.264 137.557 152.88 136.944 152.259 136.345C151.626 135.734 150.889 135.264 150.048 134.935C149.21 134.589 148.341 134.395 147.441 134.352C146.545 134.292 145.724 134.406 144.977 134.692C144.216 134.984 143.679 135.392 143.366 135.916C143.056 136.423 142.97 136.984 143.106 137.599C143.231 138.203 143.61 138.811 144.242 139.422C144.863 140.022 145.606 140.497 146.471 140.848C147.335 141.199 148.209 141.399 149.094 141.448C149.994 141.491 150.824 141.366 151.586 141.074ZM168.125 136.82C166.961 137.267 165.702 137.471 164.347 137.432C162.981 137.382 161.654 137.108 160.365 136.609C159.077 136.11 157.967 135.411 157.035 134.511C156.103 133.611 155.544 132.708 155.357 131.802C155.184 130.891 155.355 130.049 155.87 129.277C156.385 128.505 157.232 127.892 158.412 127.44C159.576 126.993 160.841 126.794 162.207 126.844C163.562 126.883 164.87 127.149 166.132 127.643C167.409 128.13 168.519 128.83 169.463 129.741C170.406 130.651 170.962 131.571 171.131 132.5C171.288 133.417 171.109 134.262 170.594 135.034C170.083 135.789 169.26 136.385 168.125 136.82ZM166.573 135.321C167.319 135.034 167.847 134.637 168.157 134.13C168.481 133.618 168.562 133.051 168.399 132.431C168.251 131.804 167.867 131.191 167.246 130.592C166.613 129.981 165.876 129.511 165.035 129.182C164.197 128.836 163.328 128.642 162.428 128.599C161.532 128.539 160.711 128.653 159.965 128.939C159.203 129.231 158.666 129.639 158.353 130.163C158.043 130.67 157.957 131.231 158.093 131.846C158.218 132.45 158.597 133.058 159.229 133.669C159.85 134.269 160.593 134.744 161.458 135.095C162.322 135.447 163.197 135.646 164.081 135.695C164.981 135.738 165.811 135.613 166.573 135.321ZM177.173 133.068L167.873 124.087L169.911 123.305L171.619 124.954L171.154 124.807C170.908 124.187 170.95 123.643 171.279 123.175C171.597 122.697 172.174 122.297 173.01 121.976L173.749 121.692L175.267 123.158L174.214 123.562C173.364 123.889 172.884 124.352 172.776 124.953C172.656 125.542 172.97 126.198 173.717 126.92L179.256 132.268L177.173 133.068ZM195.483 126.318C194.319 126.765 193.06 126.969 191.705 126.931C190.339 126.881 189.012 126.606 187.723 126.107C186.435 125.608 185.325 124.909 184.393 124.009C183.461 123.11 182.902 122.207 182.714 121.301C182.542 120.389 182.713 119.547 183.228 118.775C183.743 118.003 184.59 117.391 185.77 116.938C186.934 116.491 188.199 116.292 189.565 116.342C190.92 116.381 192.228 116.647 193.49 117.141C194.767 117.629 195.877 118.328 196.821 119.239C197.764 120.15 198.32 121.069 198.489 121.998C198.646 122.916 198.467 123.76 197.952 124.532C197.441 125.288 196.618 125.883 195.483 126.318ZM193.931 124.819C194.677 124.532 195.205 124.136 195.515 123.629C195.839 123.116 195.92 122.549 195.757 121.929C195.609 121.303 195.225 120.69 194.604 120.09C193.971 119.479 193.234 119.009 192.393 118.68C191.555 118.334 190.686 118.14 189.786 118.097C188.89 118.037 188.069 118.151 187.322 118.437C186.561 118.73 186.024 119.138 185.711 119.661C185.401 120.168 185.315 120.729 185.451 121.345C185.576 121.949 185.955 122.556 186.587 123.167C187.208 123.767 187.951 124.242 188.816 124.594C189.68 124.945 190.554 125.145 191.439 125.193C192.339 125.236 193.169 125.111 193.931 124.819ZM204.531 122.566L195.231 113.585L197.269 112.803L199.081 114.553L198.589 114.532C198.301 113.85 198.325 113.228 198.66 112.665C198.998 112.085 199.615 111.623 200.51 111.279C201.376 110.947 202.295 110.796 203.265 110.827C204.251 110.853 205.203 111.046 206.12 111.408C207.052 111.764 207.852 112.265 208.519 112.909L214.54 118.724L212.435 119.532L206.932 114.217C206.414 113.717 205.857 113.341 205.262 113.088C204.667 112.835 204.047 112.7 203.404 112.684C202.764 112.65 202.16 112.742 201.593 112.96C201.026 113.177 200.622 113.472 200.381 113.844C200.143 114.199 200.082 114.603 200.196 115.056C200.299 115.497 200.603 115.963 201.11 116.451L206.613 121.767L204.531 122.566ZM224.311 115.253C223.34 115.625 222.285 115.805 221.146 115.792C220.021 115.774 218.937 115.553 217.895 115.131L217.91 114.753L219.894 116.669L217.856 117.451L204.795 104.838L206.878 104.039L212.64 109.604L211.93 109.341C211.826 108.636 212.001 107.979 212.455 107.37C212.898 106.75 213.619 106.248 214.619 105.864C215.754 105.428 216.982 105.244 218.303 105.311C219.639 105.372 220.937 105.658 222.195 106.169C223.442 106.668 224.532 107.367 225.463 108.267C226.372 109.145 226.933 110.039 227.147 110.951C227.361 111.862 227.225 112.698 226.74 113.459C226.27 114.213 225.46 114.811 224.311 115.253ZM222.601 113.813C223.362 113.521 223.898 113.121 224.207 112.615C224.517 112.108 224.589 111.552 224.422 110.949C224.26 110.328 223.868 109.718 223.247 109.118C222.603 108.496 221.867 108.018 221.041 107.683C220.218 107.331 219.364 107.131 218.479 107.083C217.583 107.023 216.754 107.14 215.993 107.432C215.232 107.724 214.689 108.127 214.364 108.639C214.055 109.146 213.974 109.713 214.122 110.339C214.273 110.948 214.665 111.559 215.297 112.17C215.919 112.769 216.654 113.248 217.503 113.605C218.356 113.945 219.225 114.139 220.11 114.188C221.009 114.23 221.84 114.106 222.601 113.813ZM239.111 109.571C237.946 110.018 236.687 110.222 235.332 110.184C233.966 110.134 232.639 109.859 231.35 109.36C230.062 108.861 228.952 108.162 228.02 107.262C227.088 106.363 226.529 105.46 226.342 104.554C226.169 103.642 226.341 102.8 226.856 102.028C227.37 101.256 228.218 100.644 229.397 100.191C230.561 99.744 231.827 99.5455 233.193 99.5955C234.547 99.6343 235.855 99.9005 237.118 100.394C238.395 100.882 239.505 101.581 240.448 102.492C241.391 103.403 241.947 104.322 242.116 105.251C242.273 106.169 242.095 107.013 241.58 107.785C241.068 108.541 240.245 109.136 239.111 109.571ZM237.558 108.072C238.304 107.785 238.832 107.389 239.142 106.882C239.466 106.369 239.547 105.803 239.384 105.182C239.237 104.556 238.852 103.943 238.231 103.343C237.598 102.732 236.861 102.262 236.02 101.933C235.182 101.587 234.313 101.393 233.414 101.35C232.517 101.291 231.696 101.404 230.95 101.691C230.188 101.983 229.651 102.391 229.338 102.914C229.029 103.421 228.942 103.982 229.078 104.598C229.203 105.202 229.582 105.809 230.215 106.42C230.836 107.02 231.578 107.495 232.443 107.847C233.307 108.198 234.182 108.398 235.066 108.446C235.966 108.489 236.797 108.364 237.558 108.072ZM251.903 104.661C251.112 104.965 250.301 105.128 249.471 105.152C248.643 105.159 247.863 105.04 247.128 104.794C246.382 104.537 245.751 104.159 245.233 103.659C244.738 103.181 244.43 102.702 244.307 102.221C244.188 101.723 244.282 101.23 244.588 100.74C244.909 100.244 245.46 99.7684 246.241 99.3135L250.15 97.0445L251.496 98.3442L248.005 100.383C247.332 100.781 246.955 101.182 246.873 101.586C246.805 101.984 246.973 102.378 247.376 102.766C247.755 103.133 248.266 103.364 248.907 103.459C249.563 103.549 250.189 103.479 250.787 103.25C251.548 102.958 252.084 102.589 252.395 102.144C252.709 101.682 252.81 101.185 252.698 100.654C252.601 100.116 252.293 99.598 251.776 99.0982L249.412 96.8155C248.906 96.3268 248.251 96.027 247.448 95.9162C246.648 95.7886 245.853 95.8766 245.062 96.1803C244.375 96.4439 243.901 96.8121 243.64 97.285C243.382 97.7411 243.35 98.2344 243.545 98.765L241.006 98.7615C240.805 98.2645 240.784 97.7604 240.943 97.2492C241.09 96.7269 241.395 96.2452 241.856 95.8042C242.317 95.3633 242.906 95.0053 243.623 94.7302C244.548 94.3749 245.5 94.1959 246.477 94.1932C247.444 94.1793 248.362 94.3312 249.234 94.6487C250.108 94.9494 250.862 95.4052 251.495 96.0161L257.809 102.114L255.772 102.896L254.012 101.197L254.496 101.151C254.61 101.604 254.589 102.047 254.432 102.479C254.275 102.912 253.986 103.318 253.565 103.697C253.144 104.076 252.59 104.397 251.903 104.661ZM261.374 100.746L252.074 91.7653L254.112 90.9831L255.82 92.6326L255.355 92.4853C255.109 91.8655 255.151 91.3216 255.48 90.8538C255.798 90.3748 256.375 89.9749 257.211 89.654L257.95 89.3703L259.468 90.8365L258.415 91.2405C257.565 91.5672 257.085 92.0307 256.977 92.6311C256.857 93.2205 257.171 93.8761 257.918 94.5981L263.457 99.9465L261.374 100.746ZM275.232 95.7059C274.097 96.1414 272.862 96.3285 271.526 96.267C270.204 96.1999 268.914 95.9111 267.656 95.4008C266.397 94.8904 265.313 94.1965 264.405 93.319C263.473 92.4193 262.906 91.5192 262.704 90.6189C262.49 89.7074 262.618 88.8743 263.089 88.1195C263.574 87.3589 264.383 86.7609 265.518 86.3254C266.518 85.9415 267.573 85.7616 268.683 85.7857C269.781 85.7988 270.83 85.9859 271.83 86.3472L271.891 86.8593L266.129 81.2943L268.233 80.4864L281.294 93.0992L279.257 93.8814L277.273 91.9653L277.817 92.1288C278.009 92.8779 277.869 93.5683 277.396 94.1998C276.938 94.8257 276.217 95.3277 275.232 95.7059ZM273.858 94.1376C274.619 93.8453 275.155 93.4458 275.464 92.9389C275.774 92.4319 275.853 91.8738 275.702 91.2643C275.554 90.6381 275.169 90.025 274.548 89.4252C273.916 88.8143 273.173 88.3388 272.32 87.9987C271.471 87.6417 270.604 87.439 269.719 87.3905C268.834 87.3421 268.011 87.4639 267.25 87.7562C266.503 88.0427 265.974 88.4478 265.661 88.9716C265.351 89.4785 265.272 90.0367 265.423 90.6461C265.563 91.2444 265.955 91.8546 266.599 92.4766C267.22 93.0765 267.956 93.5548 268.805 93.9118C269.643 94.2576 270.504 94.4548 271.389 94.5033C272.274 94.5517 273.097 94.4298 273.858 94.1376ZM284.854 91.733L275.554 82.7524L277.636 81.953L286.936 90.9336L284.854 91.733ZM274.07 81.3195L272 79.3201L274.082 78.5207L276.153 80.5201L274.07 81.3195ZM290.503 89.5643L281.204 80.5837L283.241 79.8015L285.053 81.5509L284.562 81.5299C284.274 80.8488 284.297 80.2267 284.632 79.6635C284.97 79.0835 285.587 78.6216 286.483 78.2778C287.348 77.9454 288.267 77.7947 289.238 77.8257C290.223 77.8509 291.175 78.0444 292.092 78.4064C293.024 78.7626 293.824 79.2629 294.491 79.9071L300.513 85.722L298.408 86.53L292.904 81.215C292.386 80.7151 291.83 80.3389 291.234 80.0862C290.639 79.8336 290.019 79.6988 289.376 79.6819C288.736 79.6481 288.132 79.7401 287.565 79.9578C286.998 80.1756 286.594 80.4704 286.353 80.8423C286.116 81.1973 286.054 81.6012 286.168 82.0541C286.271 82.4958 286.576 82.9611 287.082 83.4498L292.586 88.7649L290.503 89.5643ZM313.379 85.9057C312.528 86.2324 311.633 86.4361 310.695 86.5169C309.771 86.5921 308.864 86.5522 307.974 86.3973C307.11 86.2478 306.302 85.9913 305.55 85.628L306.808 84.2137C307.454 84.5556 308.217 84.7591 309.099 84.8245C310.006 84.8952 310.908 84.7586 311.804 84.4148C312.49 84.1512 313.006 83.8134 313.352 83.4014C313.724 82.9948 313.872 82.5341 313.798 82.0193C313.735 81.5156 313.422 80.9915 312.859 80.4473L310.771 78.4312L311.462 78.585C311.677 79.3564 311.555 80.055 311.098 80.6808C310.655 81.3009 309.964 81.7915 309.023 82.1525C307.889 82.588 306.672 82.7833 305.374 82.7383C304.064 82.6823 302.805 82.4129 301.595 81.9301C300.375 81.4363 299.333 80.7728 298.47 79.9398C297.596 79.0956 297.062 78.2373 296.868 77.3649C296.674 76.4925 296.816 75.6928 297.294 74.966C297.776 74.2222 298.584 73.6326 299.718 73.1971C300.659 72.8361 301.676 72.6706 302.771 72.7004C303.87 72.7135 304.938 72.9089 305.976 73.2866L306.093 73.8235L304.023 71.8241L306.061 71.0419L314.964 79.6393C315.769 80.4168 316.241 81.2056 316.381 82.0056C316.521 82.8057 316.329 83.5469 315.805 84.2293C315.307 84.9171 314.499 85.4759 313.379 85.9057ZM307.649 80.5842C308.366 80.3091 308.87 79.9294 309.161 79.4451C309.467 78.955 309.562 78.4219 309.445 77.8458C309.317 77.2586 308.965 76.6873 308.39 76.1319C307.826 75.5876 307.137 75.1537 306.322 74.8301C305.507 74.5064 304.671 74.3231 303.812 74.28C302.969 74.2311 302.189 74.3443 301.473 74.6193C300.741 74.9001 300.215 75.2884 299.894 75.7842C299.573 76.28 299.476 76.8215 299.605 77.4087C299.736 77.9791 300.09 78.542 300.665 79.0974C301.24 79.6528 301.927 80.0951 302.727 80.4245C303.531 80.737 304.362 80.9148 305.22 80.9579C306.093 80.9953 306.903 80.8707 307.649 80.5842ZM160.842 170.681C159.678 171.128 158.418 171.332 157.064 171.293C155.698 171.243 154.37 170.969 153.082 170.47C151.793 169.971 150.683 169.272 149.752 168.372C148.82 167.472 148.26 166.569 148.073 165.663C147.901 164.752 148.072 163.91 148.587 163.138C149.102 162.366 149.949 161.753 151.128 161.301C152.293 160.854 153.558 160.655 154.924 160.705C156.279 160.744 157.587 161.01 158.849 161.504C160.126 161.991 161.236 162.691 162.179 163.602C163.123 164.512 163.679 165.432 163.847 166.361C164.005 167.278 163.826 168.123 163.311 168.895C162.8 169.65 161.977 170.246 160.842 170.681ZM159.289 169.182C160.036 168.895 160.564 168.498 160.873 167.991C161.198 167.479 161.279 166.912 161.116 166.292C160.968 165.665 160.584 165.052 159.963 164.452C159.33 163.842 158.593 163.372 157.751 163.043C156.914 162.697 156.045 162.502 155.145 162.46C154.249 162.4 153.428 162.514 152.681 162.8C151.92 163.092 151.383 163.5 151.07 164.024C150.76 164.531 150.674 165.092 150.81 165.707C150.935 166.311 151.313 166.919 151.946 167.53C152.567 168.13 153.31 168.605 154.174 168.956C155.039 169.307 155.913 169.507 156.798 169.556C157.698 169.599 158.528 169.474 159.289 169.182ZM169.89 166.929L160.59 157.948L162.628 157.166L164.336 158.815L163.87 158.668C163.625 158.048 163.667 157.504 163.996 157.036C164.314 156.558 164.89 156.158 165.726 155.837L166.465 155.553L167.984 157.019L166.931 157.423C166.08 157.75 165.601 158.213 165.492 158.814C165.372 159.403 165.686 160.059 166.434 160.781L171.972 166.129L169.89 166.929Z" fill="#FAFAFA"/>
<path d="M182.014 162.274L172.628 153.211L175.383 152.153L177.557 154.253L176.881 154.023C176.426 153.282 176.368 152.621 176.706 152.041C177.044 151.461 177.669 150.996 178.579 150.647C179.579 150.263 180.661 150.119 181.825 150.216C182.989 150.312 184.011 150.634 184.891 151.181L184.114 151.549C183.739 150.684 183.741 149.93 184.12 149.288C184.486 148.635 185.155 148.123 186.125 147.75C186.991 147.418 187.91 147.267 188.88 147.298C189.866 147.323 190.823 147.522 191.752 147.895C192.669 148.257 193.479 148.777 194.18 149.455L200.219 155.286L197.286 156.412L191.782 151.097C191.368 150.697 190.914 150.39 190.421 150.176C189.928 149.962 189.429 149.843 188.925 149.819C188.409 149.784 187.905 149.861 187.412 150.05C186.949 150.228 186.625 150.469 186.439 150.773C186.242 151.066 186.196 151.394 186.301 151.758C186.406 152.121 186.666 152.502 187.08 152.902L192.583 158.217L189.65 159.343L184.146 154.028C183.732 153.628 183.279 153.321 182.785 153.107C182.292 152.893 181.786 152.777 181.267 152.759C180.751 152.724 180.254 152.798 179.776 152.981C179.314 153.159 178.989 153.4 178.804 153.704C178.606 153.997 178.56 154.325 178.665 154.689C178.77 155.052 179.03 155.433 179.444 155.833L184.948 161.148L182.014 162.274ZM203.037 154.205L193.651 145.141L196.584 144.015L205.97 153.079L203.037 154.205ZM192.598 144.124L190.183 141.792L193.116 140.666L195.532 142.998L192.598 144.124ZM213.857 150.331C212.558 150.829 211.188 151.037 209.746 150.954C208.307 150.854 207.001 150.479 205.826 149.828L207.209 148.202C208.052 148.593 208.899 148.827 209.75 148.903C210.616 148.974 211.393 148.878 212.08 148.615C212.617 148.408 212.95 148.156 213.08 147.858C213.209 147.56 213.125 147.267 212.826 146.978C212.641 146.8 212.425 146.681 212.175 146.622C211.929 146.546 211.654 146.511 211.35 146.52C211.049 146.511 210.743 146.528 210.431 146.57L208.007 146.918C206.747 147.091 205.612 147.053 204.603 146.804C203.609 146.549 202.79 146.111 202.146 145.489C201.571 144.933 201.257 144.379 201.205 143.824C201.156 143.253 201.347 142.722 201.777 142.231C202.222 141.734 202.885 141.317 203.766 140.979C204.915 140.537 206.143 140.353 207.449 140.426C208.756 140.499 209.981 140.836 211.125 141.437L209.696 143.08C209.062 142.749 208.372 142.556 207.626 142.501C206.88 142.445 206.201 142.535 205.589 142.77C205.097 142.959 204.795 143.191 204.684 143.467C204.573 143.742 204.655 144.013 204.931 144.28C205.104 144.447 205.313 144.568 205.559 144.644C205.805 144.721 206.073 144.758 206.362 144.755C206.667 144.747 206.995 144.722 207.348 144.68L209.744 144.365C210.975 144.203 212.089 144.241 213.086 144.479C214.099 144.712 214.938 145.15 215.605 145.794C216.169 146.338 216.475 146.896 216.524 147.467C216.562 148.027 216.358 148.556 215.913 149.052C215.468 149.549 214.782 149.975 213.857 150.331ZM220.853 147.366L211.467 138.302L214.221 137.245L216.395 139.344L215.719 139.114C215.264 138.373 215.206 137.712 215.544 137.132C215.882 136.552 216.507 136.088 217.418 135.738C218.418 135.354 219.5 135.211 220.664 135.307C221.828 135.404 222.849 135.725 223.729 136.273L222.952 136.641C222.578 135.775 222.58 135.022 222.958 134.38C223.325 133.727 223.993 133.214 224.964 132.841C225.83 132.509 226.748 132.358 227.719 132.389C228.704 132.415 229.662 132.614 230.59 132.987C231.508 133.349 232.317 133.868 233.019 134.546L239.058 140.378L236.124 141.504L230.62 136.189C230.206 135.789 229.753 135.482 229.259 135.267C228.766 135.053 228.268 134.934 227.763 134.91C227.247 134.875 226.743 134.953 226.25 135.142C225.788 135.319 225.463 135.56 225.278 135.864C225.08 136.157 225.034 136.486 225.139 136.849C225.244 137.212 225.504 137.594 225.918 137.994L231.422 143.309L228.488 144.435L222.985 139.12C222.57 138.72 222.117 138.413 221.624 138.198C221.131 137.984 220.624 137.868 220.105 137.85C219.589 137.815 219.092 137.889 218.615 138.073C218.152 138.25 217.828 138.491 217.642 138.795C217.445 139.089 217.399 139.417 217.504 139.78C217.609 140.143 217.868 140.525 218.282 140.925L223.786 146.24L220.853 147.366ZM245.777 138.078C244.926 138.404 244.078 138.582 243.232 138.612C242.387 138.642 241.591 138.528 240.845 138.271C240.088 138.003 239.439 137.608 238.898 137.086C238.38 136.586 238.07 136.084 237.966 135.581C237.85 135.067 237.968 134.556 238.319 134.048C238.67 133.541 239.265 133.049 240.106 132.571L243.591 130.558L245.316 132.224L242.339 133.972C241.837 134.273 241.548 134.578 241.472 134.887C241.395 135.196 241.524 135.511 241.857 135.834C242.179 136.145 242.595 136.334 243.104 136.403C243.616 136.454 244.111 136.389 244.589 136.205C245.201 135.97 245.641 135.67 245.908 135.303C246.179 134.92 246.262 134.507 246.16 134.066C246.072 133.618 245.815 133.189 245.39 132.778L242.974 130.445C242.571 130.056 242.029 129.815 241.346 129.719C240.667 129.608 239.992 129.681 239.32 129.938C238.693 130.179 238.265 130.522 238.037 130.966C237.813 131.394 237.801 131.856 238.003 132.353L234.71 132.407C234.454 131.837 234.402 131.283 234.553 130.744C234.707 130.188 235.032 129.675 235.526 129.206C236.021 128.737 236.678 128.345 237.5 128.029C238.5 127.645 239.524 127.446 240.573 127.432C241.611 127.406 242.591 127.557 243.515 127.886C244.443 128.197 245.24 128.675 245.907 129.319L252.153 135.351L249.377 136.417L247.772 134.867L248.364 134.593C248.454 135.102 248.42 135.573 248.263 136.006C248.094 136.427 247.809 136.817 247.406 137.173C246.992 137.518 246.449 137.82 245.777 138.078ZM260.638 132.233C259.265 132.76 257.91 132.892 256.574 132.629C255.241 132.349 254.045 131.698 252.987 130.676L248.846 126.678L246.741 127.486L244.722 125.536L244.946 125.45C245.543 125.221 245.885 124.927 245.972 124.567C246.059 124.208 245.873 123.806 245.412 123.362L244.688 122.662L247.621 121.536L249.761 123.602L252.56 122.528L254.578 124.477L251.779 125.552L255.799 129.434C256.11 129.734 256.442 129.963 256.795 130.123C257.162 130.277 257.553 130.352 257.967 130.348C258.395 130.339 258.848 130.243 259.326 130.059C259.431 130.019 259.544 129.968 259.667 129.905C259.805 129.837 259.935 129.771 260.058 129.708L261.99 131.575C261.804 131.677 261.589 131.791 261.343 131.916C261.097 132.042 260.862 132.147 260.638 132.233ZM270.532 128.575C269.323 129.039 268.02 129.252 266.624 129.214C265.232 129.158 263.891 128.881 262.603 128.382C261.303 127.872 260.187 127.167 259.255 126.268C258.324 125.368 257.766 124.457 257.582 123.534C257.398 122.611 257.571 121.761 258.101 120.983C258.646 120.199 259.523 119.576 260.732 119.111C261.598 118.779 262.525 118.586 263.513 118.533C264.489 118.469 265.453 118.533 266.404 118.727C267.359 118.904 268.238 119.218 269.041 119.671L267.328 121.492C266.633 121.123 265.872 120.902 265.047 120.831C264.237 120.754 263.489 120.847 262.802 121.111C262.16 121.357 261.706 121.694 261.44 122.123C261.189 122.545 261.135 123.016 261.277 123.536C261.419 124.056 261.766 124.582 262.318 125.115C262.87 125.649 263.501 126.066 264.21 126.368C264.919 126.67 265.641 126.844 266.375 126.888C267.124 126.926 267.82 126.822 268.461 126.576C269.163 126.306 269.631 125.933 269.866 125.454C270.101 124.976 270.089 124.461 269.83 123.908L273.302 123.786C273.592 124.389 273.682 124.999 273.57 125.616C273.447 126.222 273.132 126.785 272.628 127.305C272.111 127.814 271.413 128.237 270.532 128.575ZM278.417 125.269L265.356 112.656L268.29 111.53L273.811 116.862L273.08 116.7C272.8 116.047 272.837 115.458 273.192 114.934C273.549 114.393 274.161 113.956 275.027 113.624C275.923 113.28 276.863 113.121 277.849 113.146C278.85 113.165 279.815 113.362 280.743 113.735C281.661 114.097 282.47 114.617 283.172 115.294L289.21 121.126L286.277 122.252L280.773 116.937C280.359 116.537 279.898 116.233 279.39 116.024C278.882 115.815 278.361 115.705 277.826 115.693C277.296 115.664 276.784 115.744 276.291 115.933C275.814 116.116 275.474 116.363 275.274 116.673C275.062 116.971 275.001 117.305 275.091 117.674C275.181 118.043 275.433 118.428 275.847 118.828L281.351 124.143L278.417 125.269ZM298.011 118.027C296.757 118.508 295.441 118.718 294.064 118.657C292.686 118.596 291.362 118.305 290.092 117.784C288.822 117.262 287.733 116.563 286.824 115.685C285.881 114.774 285.308 113.869 285.106 112.968C284.907 112.051 285.05 111.212 285.535 110.452C286.035 109.685 286.853 109.085 287.987 108.649C288.942 108.282 289.899 108.078 290.857 108.036C291.83 107.989 292.783 108.073 293.717 108.289C294.65 108.505 295.527 108.828 296.348 109.258C297.157 109.677 297.878 110.192 298.51 110.803C298.672 110.959 298.823 111.126 298.966 111.304C299.124 111.476 299.236 111.635 299.303 111.78L289.898 115.39L288.173 113.724L295.92 110.75L295.343 112.066C294.948 111.503 294.439 111.062 293.816 110.742C293.208 110.417 292.552 110.227 291.847 110.171C291.158 110.11 290.492 110.202 289.85 110.449C289.238 110.683 288.814 111.009 288.578 111.426C288.33 111.831 288.31 112.305 288.516 112.847C288.726 113.372 289.183 113.934 289.887 114.533C290.402 115.111 291.011 115.568 291.713 115.904C292.419 116.223 293.146 116.402 293.896 116.44C294.66 116.473 295.378 116.36 296.049 116.102C296.721 115.844 297.179 115.521 297.423 115.132C297.682 114.738 297.762 114.311 297.663 113.853L300.934 113.808C301.143 114.333 301.167 114.86 301.005 115.388C300.842 115.916 300.508 116.409 300.002 116.867C299.511 117.319 298.847 117.706 298.011 118.027ZM311.946 112.678C310.767 113.131 309.501 113.329 308.15 113.273C306.788 113.207 305.464 112.915 304.179 112.4C302.894 111.884 301.797 111.187 300.888 110.31C299.968 109.421 299.408 108.518 299.21 107.601C299.011 106.684 299.156 105.837 299.644 105.059C300.148 104.276 300.974 103.664 302.123 103.223C303.049 102.867 304.014 102.691 305.018 102.694C306.025 102.679 306.991 102.836 307.915 103.165L307.933 103.787L302.395 98.4382L305.328 97.3122L318.389 109.925L315.613 110.991L313.801 109.241L314.563 109.554C314.651 110.203 314.46 110.805 313.99 111.358C313.508 111.9 312.827 112.34 311.946 112.678ZM310.189 110.558C310.861 110.3 311.33 109.957 311.596 109.529C311.862 109.101 311.924 108.627 311.782 108.107C311.655 107.582 311.315 107.052 310.763 106.519C310.222 105.997 309.59 105.588 308.866 105.291C308.145 104.978 307.41 104.802 306.661 104.764C305.912 104.725 305.201 104.835 304.53 105.093C303.873 105.345 303.41 105.694 303.14 106.139C302.859 106.573 302.782 107.052 302.909 107.578C303.04 108.087 303.381 108.608 303.933 109.141C304.485 109.674 305.116 110.092 305.825 110.394C306.549 110.69 307.294 110.855 308.058 110.887C308.822 110.92 309.532 110.81 310.189 110.558ZM177.675 195.005L168.289 185.941L171.044 184.884L173.131 186.9L172.597 186.686C172.179 185.9 172.13 185.259 172.451 184.763C172.787 184.261 173.381 183.847 174.232 183.521L174.948 183.245L176.95 185.178L175.897 185.582C175.061 185.903 174.591 186.355 174.486 186.939C174.369 187.511 174.668 188.142 175.381 188.831L180.609 193.879L177.675 195.005ZM192.55 189.575C191.356 190.033 190.053 190.246 188.642 190.213C187.246 190.175 185.889 189.912 184.571 189.424C183.267 188.931 182.144 188.229 181.201 187.318C180.258 186.408 179.702 185.488 179.533 184.559C179.379 183.625 179.574 182.766 180.119 181.982C180.664 181.199 181.541 180.575 182.75 180.111C183.944 179.653 185.239 179.443 186.635 179.481C188.031 179.52 189.381 179.786 190.684 180.279C191.991 180.755 193.122 181.454 194.076 182.376C195.02 183.287 195.568 184.209 195.722 185.144C195.876 186.078 195.681 186.937 195.136 187.721C194.591 188.504 193.729 189.122 192.55 189.575ZM190.479 187.575C191.136 187.323 191.59 186.986 191.841 186.564C192.107 186.136 192.169 185.662 192.027 185.142C191.889 184.605 191.549 184.076 191.009 183.554C190.456 183.02 189.824 182.611 189.111 182.326C188.402 182.024 187.673 181.854 186.924 181.815C186.178 181.76 185.477 181.858 184.82 182.11C184.148 182.368 183.685 182.717 183.431 183.156C183.165 183.584 183.095 184.061 183.222 184.587C183.353 185.095 183.694 185.616 184.246 186.149C184.787 186.672 185.417 187.089 186.138 187.402C186.862 187.699 187.599 187.866 188.348 187.905C189.097 187.943 189.808 187.833 190.479 187.575ZM201.33 185.925L188.269 173.312L191.202 172.186L204.263 184.799L201.33 185.925ZM213.292 181.613C212.038 182.094 210.722 182.304 209.344 182.243C207.967 182.182 206.643 181.891 205.373 181.369C204.103 180.848 203.013 180.149 202.105 179.271C201.161 178.36 200.589 177.455 200.387 176.554C200.188 175.637 200.331 174.798 200.816 174.038C201.316 173.271 202.133 172.67 203.268 172.235C204.223 171.868 205.18 171.664 206.138 171.622C207.111 171.575 208.064 171.659 208.997 171.875C209.93 172.091 210.807 172.414 211.628 172.844C212.438 173.263 213.158 173.778 213.791 174.389C213.952 174.545 214.104 174.711 214.247 174.89C214.404 175.062 214.517 175.221 214.583 175.366L205.179 178.976L203.453 177.31L211.201 174.336L210.624 175.652C210.229 175.089 209.72 174.648 209.097 174.328C208.489 174.003 207.832 173.812 207.128 173.757C206.439 173.695 205.773 173.788 205.131 174.034C204.519 174.269 204.095 174.595 203.859 175.012C203.611 175.417 203.59 175.891 203.797 176.433C204.007 176.958 204.463 177.52 205.167 178.119C205.683 178.697 206.291 179.154 206.994 179.49C207.7 179.809 208.427 179.987 209.176 180.026C209.94 180.059 210.658 179.946 211.33 179.688C212.002 179.43 212.46 179.107 212.704 178.718C212.963 178.324 213.043 177.897 212.944 177.439L216.214 177.394C216.424 177.919 216.448 178.445 216.285 178.973C216.123 179.502 215.788 179.995 215.282 180.453C214.791 180.905 214.128 181.292 213.292 181.613ZM226.196 176.659C224.898 177.158 223.527 177.365 222.085 177.283C220.647 177.183 219.34 176.807 218.165 176.156L219.549 174.531C220.391 174.921 221.238 175.155 222.09 175.232C222.956 175.303 223.733 175.207 224.419 174.943C224.957 174.737 225.29 174.485 225.42 174.186C225.549 173.888 225.464 173.595 225.165 173.306C224.981 173.128 224.764 173.01 224.515 172.95C224.269 172.874 223.994 172.84 223.689 172.848C223.388 172.839 223.082 172.856 222.771 172.898L220.347 173.246C219.087 173.42 217.952 173.382 216.943 173.133C215.949 172.878 215.13 172.439 214.486 171.817C213.911 171.262 213.597 170.707 213.545 170.153C213.496 169.582 213.686 169.051 214.116 168.56C214.562 168.063 215.225 167.645 216.105 167.307C217.255 166.866 218.483 166.682 219.789 166.755C221.095 166.827 222.32 167.164 223.464 167.765L222.036 169.408C221.401 169.077 220.711 168.884 219.966 168.829C219.22 168.774 218.541 168.864 217.929 169.098C217.436 169.288 217.135 169.52 217.023 169.795C216.912 170.071 216.995 170.342 217.271 170.608C217.443 170.775 217.653 170.897 217.899 170.973C218.145 171.049 218.412 171.086 218.702 171.084C219.006 171.076 219.335 171.05 219.687 171.008L222.084 170.693C223.314 170.532 224.428 170.57 225.426 170.808C226.438 171.04 227.278 171.478 227.945 172.123C228.509 172.667 228.815 173.225 228.864 173.796C228.901 174.356 228.698 174.884 228.252 175.381C227.807 175.878 227.122 176.304 226.196 176.659ZM234.581 173.161L232.165 170.829L235.121 169.694L237.536 172.027L234.581 173.161Z" fill="#FCFF32"/>
<path opacity="0.6" d="M250.084 254.601C247.82 255.47 245.644 255.707 243.556 255.313C241.456 254.906 239.616 253.965 238.038 252.488L241.434 251.184C243.439 252.932 245.547 253.381 247.759 252.532C248.752 252.151 249.332 251.666 249.5 251.076C249.655 250.473 249.384 249.835 248.686 249.161C248.015 248.513 247.213 248.115 246.28 247.966C245.347 247.817 244.34 247.95 243.26 248.364L242.163 248.785L240.09 246.783L241.109 246.392C241.979 246.058 242.515 245.635 242.715 245.123C242.933 244.605 242.754 244.067 242.177 243.51C241.626 242.979 240.964 242.644 240.189 242.507C239.401 242.357 238.615 242.432 237.831 242.733C236.856 243.108 236.32 243.612 236.222 244.247C236.143 244.875 236.461 245.559 237.178 246.298L233.782 247.602C232.456 246.227 231.941 244.931 232.237 243.712C232.533 242.494 233.7 241.494 235.738 240.712C237.619 239.99 239.443 239.742 241.211 239.969C242.997 240.189 244.46 240.85 245.601 241.951C247.023 243.325 246.97 244.649 245.443 245.924L245.483 245.962C248.36 245.474 250.725 246.124 252.577 247.912C253.945 249.234 254.363 250.495 253.83 251.696C253.283 252.884 252.034 253.852 250.084 254.601Z" fill="#00401E"/>
<g opacity="0.6">
<path d="M387.751 163.74C388.763 163.96 389.779 164.141 390.798 164.285C392.463 164.568 393.981 164.709 395.519 165.041C395.723 165.1 395.937 165.128 396.143 165.123C396.349 165.118 396.541 165.079 396.703 165.01C396.865 164.942 396.993 164.845 397.075 164.728C397.158 164.611 397.192 164.477 397.177 164.338C397.153 164.168 397.05 163.997 396.882 163.85C396.714 163.702 396.49 163.585 396.24 163.515C394.747 162.856 393.195 162.272 391.6 161.77C390.917 161.563 390.219 161.39 389.514 161.253C388.802 161.097 388.082 160.988 387.363 160.925L386.169 160.888C386.74 158.606 386.472 156.171 385.385 153.772C384.299 151.372 382.423 149.073 379.905 147.054C372.352 140.661 359.784 136.69 349.137 140.942C337.004 146.029 336.758 155.114 343.14 161.659C345.648 164.245 349.193 166.384 353.276 167.772C357.359 169.16 361.774 169.728 365.897 169.396C364.356 171.773 363.189 174.283 362.411 176.894C361.718 178.999 361.474 181.208 361.687 183.463C361.798 185.387 362.487 187.345 363.713 189.227C364.94 191.108 366.68 192.875 368.834 194.427C368.971 194.519 369.131 194.594 369.303 194.649C369.475 194.704 369.655 194.736 369.834 194.745C370.013 194.753 370.186 194.737 370.342 194.698C370.498 194.659 370.635 194.597 370.744 194.517C370.968 194.382 371.091 194.185 371.087 193.967C371.083 193.748 370.953 193.524 370.723 193.338C367.485 190.421 365.798 186.996 365.988 183.723C365.92 181.695 366.082 179.701 366.476 177.739C367.03 174.806 367.868 171.932 368.985 169.133C371.262 168.788 373.424 168.268 375.439 167.581C375.564 167.541 375.671 167.483 375.754 167.411C375.837 167.339 375.894 167.253 375.921 167.159C375.948 167.066 375.944 166.966 375.911 166.866C375.878 166.766 375.816 166.668 375.728 166.578C375.557 166.4 375.3 166.26 375.01 166.187C374.72 166.115 374.419 166.114 374.167 166.185C362.438 169.736 351.983 166.437 346.686 161.022L346.94 160.924C349.024 160.864 351.002 160.542 352.773 159.974C353.548 159.756 354.266 159.48 354.928 159.147C355.558 158.796 356.126 158.4 356.627 157.966C357.813 156.898 358.56 155.618 358.812 154.222C358.819 154.044 358.736 153.859 358.574 153.695C358.412 153.531 358.182 153.398 357.918 153.316C359.111 153.367 360.289 153.365 361.453 153.308C363.535 153.255 365.559 153.044 367.482 152.675C371.365 151.857 374.898 150.59 377.942 148.924C385.253 155.341 385.01 161.99 378.512 165.505C378.329 165.643 378.239 165.829 378.258 166.03C378.276 166.231 378.403 166.434 378.615 166.602C378.827 166.771 379.11 166.894 379.414 166.949C379.717 167.005 380.022 166.989 380.272 166.905C382.368 165.922 384.023 164.601 385.12 163.035C385.974 163.302 386.829 163.532 387.748 163.738M356.221 153.637C355.692 154.439 354.907 155.134 353.91 155.681C353.37 155.889 352.83 156.096 352.457 156.503L350.257 157.711C349.05 158.436 347.708 159.06 346.254 159.575C346.11 159.575 345.974 159.599 345.858 159.643C345.742 159.688 345.649 159.752 345.586 159.831C344.275 158.178 343.45 156.422 343.163 154.673C342.876 152.924 343.134 151.219 343.919 149.666C347.4 151.214 351.199 152.323 355.083 152.924C355.766 153.026 356.431 153.068 357.118 153.135C356.896 153.147 356.695 153.2 356.537 153.29C356.378 153.379 356.269 153.501 356.221 153.641M365.722 149.994C362.266 150.459 358.613 150.527 354.909 150.196C351.465 149.916 348.013 149.232 344.718 148.176C346.408 146.194 348.845 144.582 351.84 143.466C360.012 140.032 369.67 142.814 376.141 147.481C373.027 148.687 369.575 149.545 365.894 150.027L365.722 149.994Z" fill="#00401E"/>
<path d="M381.861 171.343C381.784 171.235 381.674 171.135 381.539 171.05C381.405 170.966 381.249 170.9 381.083 170.855C380.917 170.811 380.744 170.79 380.578 170.794C380.411 170.799 380.255 170.828 380.12 170.879C379.985 170.931 379.874 171.005 379.796 171.094C379.718 171.184 379.675 171.288 379.669 171.398C379.663 171.508 379.694 171.623 379.761 171.733C379.828 171.843 379.929 171.947 380.056 172.036C380.985 173.361 381.83 174.649 382.959 175.997L386.206 179.132C387.633 180.296 389.092 181.319 390.632 182.506C390.856 182.711 391.178 182.863 391.529 182.931C391.881 182.999 392.234 182.977 392.514 182.87C392.779 182.759 392.948 182.576 392.987 182.358C393.026 182.14 392.931 181.906 392.723 181.703C391.613 180.417 390.663 179.199 389.473 177.878L386.275 174.79C384.803 173.541 383.298 172.473 381.861 171.343Z" fill="#00401E"/>
<path d="M433.982 159.208C434.218 158.754 434.366 158.301 434.422 158.184C434.649 157.503 434.648 156.772 434.421 156.037C434.193 155.302 433.743 154.579 433.099 153.913C431.88 152.595 430.032 151.542 427.92 150.961C426.621 150.635 425.287 150.446 423.973 150.401C423.395 150.368 422.825 150.376 422.272 150.426C421.703 150.471 421.156 150.559 420.639 150.689C419.761 150.84 418.976 151.121 418.337 151.514C417.699 151.908 417.222 152.404 416.938 152.969C416.742 153.654 416.743 154.379 416.939 155.11C417.09 155.656 417.127 156.191 417.052 156.716C416.611 156.66 416.17 156.619 415.732 156.595L407.448 154.963C407.151 154.908 406.853 154.927 406.616 155.018C406.38 155.109 406.222 155.264 406.177 155.451C406.189 155.573 406.214 155.696 406.251 155.819C406.012 155.806 405.784 155.838 405.594 155.911C405.403 155.984 405.258 156.096 405.174 156.233C404.933 156.986 403.793 159.433 403.498 161.026C403.331 161.606 403.414 162.234 403.738 162.844C403.963 163.105 404.3 163.323 404.695 163.468C405.373 163.737 407.063 164.04 407.523 164.227C408.802 164.737 409.876 165.478 410.593 166.342C410.918 166.671 411.086 167.043 411.072 167.4C411.058 167.757 410.862 168.079 410.514 168.316C410.03 168.598 409.408 168.768 408.721 168.806C407.423 168.878 406.087 168.838 404.743 168.687C403.781 168.527 402.815 168.424 401.856 168.378C401.206 168.358 400.612 168.503 400.194 168.784C399.105 169.574 398.331 170.542 397.924 171.625C397.518 172.708 397.488 173.879 397.837 175.059C398.216 176.365 399.153 177.637 400.533 178.718C401.913 179.799 403.674 180.641 405.599 181.14C411.197 182.894 416.952 184.284 422.773 185.287C426.827 185.936 430.889 186.026 434.695 185.552C436.214 185.299 437.422 184.647 438.075 183.729C439.14 182.112 439.775 180.344 439.957 178.492C440.051 177.639 440.071 176.776 440.019 175.901C439.989 175.525 439.76 175.143 439.372 174.822C438.983 174.502 438.459 174.263 437.891 174.147C436.466 173.947 435.064 173.567 433.766 173.028C433.359 172.867 433.018 172.634 432.79 172.36C432.563 172.086 432.461 171.787 432.499 171.505C432.586 171.22 432.773 170.963 433.048 170.755C433.323 170.546 433.678 170.391 434.086 170.301C435.169 169.988 436.371 169.827 437.63 169.833C438.133 169.805 439.784 170.03 440.49 169.987C440.949 169.976 441.37 169.881 441.717 169.715C442.158 169.436 442.428 169.055 442.489 168.625C442.553 168.026 442.56 167.419 442.511 166.806C442.716 165.439 442.177 163.983 440.983 162.68C439.603 161.476 437.723 160.55 435.65 160.052C435.31 159.852 434.586 159.535 433.982 159.208ZM431.046 160.996C432.274 161.459 433.537 161.852 434.834 162.176C436.098 162.474 437.25 163.029 438.105 163.752C438.735 164.541 438.953 165.404 438.72 166.186L438.668 167.293C437.285 167.024 435.884 166.947 434.56 167.069C433.236 167.191 432.019 167.508 430.992 167.999C429.57 168.559 428.65 169.517 428.435 170.663C428.291 171.328 428.429 172.039 428.833 172.723C429.238 173.407 429.895 174.039 430.737 174.554C432.353 175.48 434.22 176.168 436.172 176.552C436.075 176.919 435.945 177.278 435.78 177.628C435.696 178.753 435.435 179.841 434.999 180.892C434.655 181.717 434.281 182.548 433.264 182.678C429.968 183.072 426.453 182.973 422.953 182.386C417.452 181.521 411.996 180.304 406.668 178.754C405.471 178.475 404.355 177.992 403.447 177.357C402.538 176.722 401.873 175.961 401.525 175.16C401.279 174.385 401.269 173.612 401.496 172.89C401.723 172.168 402.182 171.512 402.845 170.962C405.274 171.22 407.682 171.277 410.024 171.141C411.333 171.032 412.484 170.659 413.34 170.067C413.979 169.666 414.4 169.131 414.554 168.524C414.708 167.916 414.589 167.261 414.211 166.632C413.2 165.029 411.348 163.639 409.044 162.754C408.69 162.626 407.209 162.268 406.515 162.109C406.59 161.571 406.726 161.046 406.924 160.534C407.33 159.129 407.935 157.578 408.137 157.005C408.195 156.856 408.177 156.689 408.087 156.529L415.201 158.183C416.027 158.381 416.862 158.543 417.703 158.67C417.985 158.687 418.254 158.65 418.478 158.564C418.702 158.478 418.872 158.347 418.968 158.184C420.126 156.524 418.808 154.951 419.412 153.698C419.642 153.373 419.981 153.094 420.406 152.88C420.831 152.665 421.335 152.52 421.886 152.451C422.215 152.369 422.566 152.323 422.937 152.312C423.311 152.288 423.693 152.284 424.081 152.302L425.592 152.483L427.074 152.799C428.444 153.222 429.607 153.958 430.306 154.853C430.68 155.232 430.936 155.646 431.058 156.066C431.179 156.487 431.163 156.903 431.01 157.286C430.562 157.786 430.067 158.263 429.523 158.716C429.357 158.899 429.261 159.112 429.245 159.341C429.228 159.569 429.291 159.806 429.428 160.034C429.779 160.448 430.299 160.8 430.916 161.043L431.046 160.996Z" fill="#00401E"/>
</g>
<defs>
<filter id="filter0_g_2306_861" x="0" y="16.377" width="542.835" height="381.453" filterUnits="userSpaceOnUse" color-interpolation-filters="sRGB">
<feFlood flood-opacity="0" result="BackgroundImageFix"/>
<feBlend mode="normal" in="SourceGraphic" in2="BackgroundImageFix" result="shape"/>
<feTurbulence type="fractalNoise" baseFrequency="1.0006107091903687 1.0006107091903687" numOctaves="3" seed="9564" />
<feDisplacementMap in="shape" scale="100" xChannelSelector="R" yChannelSelector="G" result="displacedImage" width="100%" height="100%" />
<feMerge result="effect1_texture_2306_861">
<feMergeNode in="displacedImage"/>
</feMerge>
</filter>
<filter id="filter1_n_2306_861" x="37.1241" y="84.2207" width="400.577" height="227.391" filterUnits="userSpaceOnUse" color-interpolation-filters="sRGB">
<feFlood flood-opacity="0" result="BackgroundImageFix"/>
<feBlend mode="normal" in="SourceGraphic" in2="BackgroundImageFix" result="shape"/>
<feTurbulence type="fractalNoise" baseFrequency="1 1" stitchTiles="stitch" numOctaves="3" result="noise" seed="1706" />
<feColorMatrix in="noise" type="luminanceToAlpha" result="alphaNoise" />
<feComponentTransfer in="alphaNoise" result="coloredNoise1">
<feFuncA type="discrete" tableValues="1 1 1 1 1 1 1 1 1 1 1 1 1 1 1 1 1 1 1 1 1 1 1 1 1 1 1 1 1 1 1 1 1 1 1 1 1 1 1 1 1 1 1 1 1 1 1 1 1 1 1 0 0 0 0 0 0 0 0 0 0 0 0 0 0 0 0 0 0 0 0 0 0 0 0 0 0 0 0 0 0 0 0 0 0 0 0 0 0 0 0 0 0 0 0 0 0 0 0 0 "/>
</feComponentTransfer>
<feComposite operator="in" in2="shape" in="coloredNoise1" result="noise1Clipped" />
<feFlood flood-color="rgba(0, 0, 0, 0.05)" result="color1Flood" />
<feComposite operator="in" in2="noise1Clipped" in="color1Flood" result="color1" />
<feMerge result="effect1_noise_2306_861">
<feMergeNode in="shape" />
<feMergeNode in="color1" />
</feMerge>
</filter>
<filter id="filter2_n_2306_861" x="45.6385" y="92.7852" width="13.7782" height="41.4746" filterUnits="userSpaceOnUse" color-interpolation-filters="sRGB">
<feFlood flood-opacity="0" result="BackgroundImageFix"/>
<feBlend mode="normal" in="SourceGraphic" in2="BackgroundImageFix" result="shape"/>
<feTurbulence type="fractalNoise" baseFrequency="1 1" stitchTiles="stitch" numOctaves="3" result="noise" seed="1706" />
<feColorMatrix in="noise" type="luminanceToAlpha" result="alphaNoise" />
<feComponentTransfer in="alphaNoise" result="coloredNoise1">
<feFuncA type="discrete" tableValues="1 1 1 1 1 1 1 1 1 1 1 1 1 1 1 1 1 1 1 1 1 1 1 1 1 1 1 1 1 1 1 1 1 1 1 1 1 1 1 1 1 1 1 1 1 1 1 1 1 1 1 0 0 0 0 0 0 0 0 0 0 0 0 0 0 0 0 0 0 0 0 0 0 0 0 0 0 0 0 0 0 0 0 0 0 0 0 0 0 0 0 0 0 0 0 0 0 0 0 0 "/>
</feComponentTransfer>
<feComposite operator="in" in2="shape" in="coloredNoise1" result="noise1Clipped" />
<feFlood flood-color="rgba(0, 0, 0, 0.05)" result="color1Flood" />
<feComposite operator="in" in2="noise1Clipped" in="color1Flood" result="color1" />
<feMerge result="effect1_noise_2306_861">
<feMergeNode in="shape" />
<feMergeNode in="color1" />
</feMerge>
</filter>
<filter id="filter3_n_2306_861" x="236.042" y="179.645" width="263.762" height="120.266" filterUnits="userSpaceOnUse" color-interpolation-filters="sRGB">
<feFlood flood-opacity="0" result="BackgroundImageFix"/>
<feBlend mode="normal" in="SourceGraphic" in2="BackgroundImageFix" result="shape"/>
<feTurbulence type="fractalNoise" baseFrequency="1 1" stitchTiles="stitch" numOctaves="3" result="noise" seed="1706" />
<feColorMatrix in="noise" type="luminanceToAlpha" result="alphaNoise" />
<feComponentTransfer in="alphaNoise" result="coloredNoise1">
<feFuncA type="discrete" tableValues="1 1 1 1 1 1 1 1 1 1 1 1 1 1 1 1 1 1 1 1 1 1 1 1 1 1 1 1 1 1 1 1 1 1 1 1 1 1 1 1 1 1 1 1 1 1 1 1 1 1 1 0 0 0 0 0 0 0 0 0 0 0 0 0 0 0 0 0 0 0 0 0 0 0 0 0 0 0 0 0 0 0 0 0 0 0 0 0 0 0 0 0 0 0 0 0 0 0 0 0 "/>
</feComponentTransfer>
<feComposite operator="in" in2="shape" in="coloredNoise1" result="noise1Clipped" />
<feFlood flood-color="rgba(0, 0, 0, 0.05)" result="color1Flood" />
<feComposite operator="in" in2="noise1Clipped" in="color1Flood" result="color1" />
<feMerge result="effect1_noise_2306_861">
<feMergeNode in="shape" />
<feMergeNode in="color1" />
</feMerge>
</filter>
<filter id="filter4_n_2306_861" x="481.447" y="175.928" width="17.4861" height="34.5684" filterUnits="userSpaceOnUse" color-interpolation-filters="sRGB">
<feFlood flood-opacity="0" result="BackgroundImageFix"/>
<feBlend mode="normal" in="SourceGraphic" in2="BackgroundImageFix" result="shape"/>
<feTurbulence type="fractalNoise" baseFrequency="1 1" stitchTiles="stitch" numOctaves="3" result="noise" seed="1706" />
<feColorMatrix in="noise" type="luminanceToAlpha" result="alphaNoise" />
<feComponentTransfer in="alphaNoise" result="coloredNoise1">
<feFuncA type="discrete" tableValues="1 1 1 1 1 1 1 1 1 1 1 1 1 1 1 1 1 1 1 1 1 1 1 1 1 1 1 1 1 1 1 1 1 1 1 1 1 1 1 1 1 1 1 1 1 1 1 1 1 1 1 0 0 0 0 0 0 0 0 0 0 0 0 0 0 0 0 0 0 0 0 0 0 0 0 0 0 0 0 0 0 0 0 0 0 0 0 0 0 0 0 0 0 0 0 0 0 0 0 0 "/>
</feComponentTransfer>
<feComposite operator="in" in2="shape" in="coloredNoise1" result="noise1Clipped" />
<feFlood flood-color="rgba(0, 0, 0, 0.05)" result="color1Flood" />
<feComposite operator="in" in2="noise1Clipped" in="color1Flood" result="color1" />
<feMerge result="effect1_noise_2306_861">
<feMergeNode in="shape" />
<feMergeNode in="color1" />
</feMerge>
</filter>
<filter id="filter5_n_2306_861" x="224.315" y="272.676" width="28.4827" height="28.6699" filterUnits="userSpaceOnUse" color-interpolation-filters="sRGB">
<feFlood flood-opacity="0" result="BackgroundImageFix"/>
<feBlend mode="normal" in="SourceGraphic" in2="BackgroundImageFix" result="shape"/>
<feTurbulence type="fractalNoise" baseFrequency="1 1" stitchTiles="stitch" numOctaves="3" result="noise" seed="1706" />
<feColorMatrix in="noise" type="luminanceToAlpha" result="alphaNoise" />
<feComponentTransfer in="alphaNoise" result="coloredNoise1">
<feFuncA type="discrete" tableValues="1 1 1 1 1 1 1 1 1 1 1 1 1 1 1 1 1 1 1 1 1 1 1 1 1 1 1 1 1 1 1 1 1 1 1 1 1 1 1 1 1 1 1 1 1 1 1 1 1 1 1 0 0 0 0 0 0 0 0 0 0 0 0 0 0 0 0 0 0 0 0 0 0 0 0 0 0 0 0 0 0 0 0 0 0 0 0 0 0 0 0 0 0 0 0 0 0 0 0 0 "/>
</feComponentTransfer>
<feComposite operator="in" in2="shape" in="coloredNoise1" result="noise1Clipped" />
<feFlood flood-color="rgba(0, 0, 0, 0.05)" result="color1Flood" />
<feComposite operator="in" in2="noise1Clipped" in="color1Flood" result="color1" />
<feMerge result="effect1_noise_2306_861">
<feMergeNode in="shape" />
<feMergeNode in="color1" />
</feMerge>
</filter>
<filter id="filter6_n_2306_861" x="48.5216" y="1.56055" width="442.835" height="281.453" filterUnits="userSpaceOnUse" color-interpolation-filters="sRGB">
<feFlood flood-opacity="0" result="BackgroundImageFix"/>
<feBlend mode="normal" in="SourceGraphic" in2="BackgroundImageFix" result="shape"/>
<feTurbulence type="fractalNoise" baseFrequency="1 1" stitchTiles="stitch" numOctaves="3" result="noise" seed="1706" />
<feColorMatrix in="noise" type="luminanceToAlpha" result="alphaNoise" />
<feComponentTransfer in="alphaNoise" result="coloredNoise1">
<feFuncA type="discrete" tableValues="1 1 1 1 1 1 1 1 1 1 1 1 1 1 1 1 1 1 1 1 1 1 1 1 1 1 1 1 1 1 1 1 1 1 1 1 1 1 1 1 1 1 1 1 1 1 1 1 1 1 1 0 0 0 0 0 0 0 0 0 0 0 0 0 0 0 0 0 0 0 0 0 0 0 0 0 0 0 0 0 0 0 0 0 0 0 0 0 0 0 0 0 0 0 0 0 0 0 0 0 "/>
</feComponentTransfer>
<feComposite operator="in" in2="shape" in="coloredNoise1" result="noise1Clipped" />
<feFlood flood-color="rgba(0, 0, 0, 0.05)" result="color1Flood" />
<feComposite operator="in" in2="noise1Clipped" in="color1Flood" result="color1" />
<feMerge result="effect1_noise_2306_861">
<feMergeNode in="shape" />
<feMergeNode in="color1" />
</feMerge>
</filter>
<linearGradient id="paint0_linear_2306_861" x1="31.932" y1="99.7815" x2="345.241" y2="394.102" gradientUnits="userSpaceOnUse">
<stop stop-color="#32FF92"/>
<stop offset="1" stop-color="#0A7FD2"/>
</linearGradient>
<linearGradient id="paint1_linear_2306_861" x1="46.0349" y1="114.797" x2="59.5349" y2="119.297" gradientUnits="userSpaceOnUse">
<stop stop-color="#00B087"/>
<stop offset="1" stop-color="#2EF498"/>
</linearGradient>
<linearGradient id="paint2_linear_2306_861" x1="229.312" y1="299.659" x2="644.058" y2="144.254" gradientUnits="userSpaceOnUse">
<stop stop-color="#32FF92"/>
<stop offset="1" stop-color="#0A7FD2"/>
</linearGradient>
<linearGradient id="paint3_linear_2306_861" x1="484.09" y1="197.015" x2="492.378" y2="196.906" gradientUnits="userSpaceOnUse">
<stop stop-color="#19AFBA"/>
<stop offset="1" stop-color="#00B087"/>
</linearGradient>
<linearGradient id="paint4_linear_2306_861" x1="224.035" y1="284.797" x2="253.535" y2="284.797" gradientUnits="userSpaceOnUse">
<stop stop-color="#19AFBA"/>
<stop offset="0.461043" stop-color="#00B087"/>
<stop offset="1" stop-color="#30F896"/>
</linearGradient>
<linearGradient id="paint5_linear_2306_861" x1="43.6476" y1="100.743" x2="500.033" y2="185.172" gradientUnits="userSpaceOnUse">
<stop stop-color="#0A7FD2"/>
<stop offset="1" stop-color="#32FF92"/>
</linearGradient>
</defs>
</svg>
