<svg width="543" height="398" viewBox="0 0 543 398" fill="none" xmlns="http://www.w3.org/2000/svg">
<g filter="url(#filter0_g_2306_842)">
<path d="M489.735 240.716L309.839 69.1403C307.067 66.497 303.029 65.6701 299.441 67.0112L56.4975 157.837C49.589 160.419 47.7624 169.339 53.0997 174.43L230.277 343.412C234.712 347.641 241.173 348.964 246.913 346.818L486.337 257.309C493.246 254.726 495.073 245.806 489.735 240.716Z" fill="black" fill-opacity="0.25"/>
</g>
<mask id="mask0_2306_842" style="mask-type:alpha" maskUnits="userSpaceOnUse" x="48" y="95" width="444" height="202">
<path d="M477.309 180.298L491.355 182.634V196.476C491.355 196.476 491.355 199.064 490.553 200.348C489.417 202.167 485.27 203.244 485.27 203.244L252.796 293.626C252.796 293.626 242.361 297.886 235.806 296.163C230.393 294.739 224.263 288.667 224.263 288.667L50.6903 121.722C50.6903 121.722 49.4855 120.392 49.0666 119.607C48.6266 118.782 48.5312 117.273 48.5312 117.273V102.783L54.4172 95.2852L241.944 268.099L477.309 180.298Z" fill="#D9D9D9"/>
</mask>
<g mask="url(#mask0_2306_842)">
<g filter="url(#filter1_n_2306_842)">
<path d="M37.1241 84.2207V110.334L234.172 311.611L437.701 202.204L187.127 85.389L37.1241 84.2207Z" fill="url(#paint0_linear_2306_842)"/>
</g>
<g filter="url(#filter2_n_2306_842)">
<path d="M53.4204 103.281L56.4185 92.7871L51.4216 94.7859L45.6385 102.188L46.4246 121.769L59.4167 134.262L58.917 115.273L53.4204 103.281Z" fill="url(#paint1_linear_2306_842)"/>
</g>
<g filter="url(#filter3_n_2306_842)">
<path d="M236.892 302.455L236.073 267.964L487.632 179.645L499.804 186.893V201.031L236.892 302.455Z" fill="url(#paint2_linear_2306_842)"/>
</g>
<g filter="url(#filter4_n_2306_842)">
<path d="M481.447 210.497L481.447 186.603L498.933 175.928L498.933 204.803L481.447 210.497Z" fill="url(#paint3_linear_2306_842)"/>
</g>
<g filter="url(#filter5_n_2306_842)">
<path d="M237.307 281.67C231.267 280.403 224.315 272.676 224.315 272.676V290.165C224.315 290.165 231.81 300.184 236.307 301.158C243.004 302.61 252.797 295.162 252.797 295.162V278.672C252.797 278.672 243.337 282.936 237.307 281.67Z" fill="url(#paint4_linear_2306_842)"/>
</g>
</g>
<g filter="url(#filter6_n_2306_842)">
<path d="M488.257 175.897L308.36 4.32195C305.589 1.67867 301.55 0.851733 297.963 2.19289L55.0191 93.0183C48.1106 95.601 46.284 104.521 51.6213 109.611L228.799 278.594C233.233 282.823 239.695 284.146 245.435 282L484.859 192.49C491.768 189.908 493.594 180.988 488.257 175.897Z" fill="url(#paint5_linear_2306_842)"/>
</g>
<path d="M109.111 128.131L96.2574 115.718L98.0935 115.013L118.064 121.365L117.305 121.749L106.849 111.652L109.066 110.801L121.92 123.214L120.084 123.919L100.089 117.484L100.781 117.125L111.306 127.289L109.111 128.131ZM131.493 119.819C130.329 120.266 129.078 120.459 127.742 120.397C126.406 120.336 125.108 120.05 123.85 119.539C122.58 119.018 121.485 118.313 120.564 117.424C119.633 116.525 119.058 115.627 118.841 114.733C118.639 113.832 118.771 113.013 119.238 112.275C119.708 111.521 120.495 110.931 121.6 110.507C122.496 110.163 123.413 109.982 124.353 109.962C125.296 109.926 126.22 110.022 127.123 110.25C128.03 110.461 128.88 110.778 129.675 111.203C130.472 111.611 131.159 112.092 131.734 112.648C131.861 112.77 131.989 112.914 132.121 113.081C132.255 113.232 132.377 113.379 132.485 113.524L122.587 117.323L121.207 115.99L129.895 112.655L129.531 113.633C129.067 113.004 128.458 112.516 127.703 112.169C126.947 111.823 126.156 111.622 125.327 111.568C124.499 111.513 123.734 111.621 123.032 111.89C122.33 112.159 121.827 112.539 121.52 113.029C121.214 113.519 121.156 114.077 121.345 114.703C121.538 115.312 122.015 115.944 122.776 116.599C123.395 117.277 124.127 117.803 124.973 118.177C125.823 118.534 126.697 118.734 127.597 118.776C128.5 118.802 129.317 118.675 130.049 118.394C130.855 118.085 131.39 117.685 131.655 117.195C131.92 116.705 132 116.178 131.894 115.613L134.331 115.609C134.518 116.112 134.536 116.633 134.385 117.172C134.237 117.694 133.924 118.187 133.444 118.651C132.979 119.109 132.329 119.498 131.493 119.819ZM145.583 114.41C144.419 114.857 143.169 115.05 141.833 114.988C140.496 114.927 139.199 114.641 137.94 114.131C136.67 113.609 135.575 112.904 134.655 112.016C133.723 111.116 133.149 110.219 132.932 109.324C132.729 108.424 132.862 107.604 133.328 106.867C133.798 106.112 134.586 105.522 135.691 105.098C136.586 104.754 137.504 104.573 138.444 104.554C139.387 104.518 140.31 104.613 141.213 104.841C142.12 105.052 142.971 105.369 143.765 105.794C144.563 106.202 145.249 106.684 145.824 107.239C145.951 107.361 146.08 107.506 146.211 107.673C146.346 107.823 146.467 107.97 146.575 108.115L136.678 111.914L135.298 110.581L143.986 107.246L143.622 108.224C143.158 107.595 142.548 107.107 141.793 106.761C141.038 106.414 140.246 106.214 139.418 106.159C138.589 106.104 137.824 106.212 137.123 106.481C136.421 106.75 135.917 107.13 135.611 107.62C135.305 108.11 135.246 108.668 135.436 109.294C135.628 109.903 136.105 110.535 136.867 111.19C137.485 111.868 138.218 112.394 139.064 112.768C139.913 113.125 140.788 113.325 141.688 113.367C142.591 113.393 143.408 113.266 144.139 112.985C144.945 112.676 145.481 112.276 145.746 111.786C146.01 111.297 146.09 110.769 145.985 110.204L148.422 110.2C148.608 110.703 148.626 111.224 148.475 111.763C148.328 112.285 148.014 112.778 147.535 113.242C147.07 113.7 146.419 114.089 145.583 114.41ZM159.607 109.027C158.472 109.462 157.237 109.649 155.901 109.588C154.579 109.521 153.289 109.232 152.031 108.722C150.772 108.211 149.689 107.518 148.78 106.64C147.848 105.74 147.281 104.84 147.079 103.94C146.865 103.028 146.994 102.195 147.464 101.44C147.949 100.68 148.758 100.082 149.893 99.6464C150.893 99.2625 151.948 99.0826 153.058 99.1067C154.156 99.1197 155.206 99.3069 156.206 99.6682L156.266 100.18L150.504 94.6153L152.609 93.8073L165.67 106.42L163.632 107.202L161.648 105.286L162.193 105.45C162.384 106.199 162.244 106.889 161.771 107.521C161.314 108.147 160.592 108.649 159.607 109.027ZM158.233 107.459C158.994 107.166 159.53 106.767 159.839 106.26C160.149 105.753 160.228 105.195 160.077 104.585C159.929 103.959 159.545 103.346 158.924 102.746C158.291 102.135 157.548 101.66 156.695 101.32C155.846 100.963 154.979 100.76 154.094 100.712C153.209 100.663 152.386 100.785 151.625 101.077C150.879 101.364 150.349 101.769 150.036 102.293C149.726 102.799 149.647 103.358 149.798 103.967C149.938 104.565 150.33 105.176 150.974 105.798C151.595 106.397 152.331 106.876 153.18 107.233C154.018 107.579 154.879 107.776 155.764 107.824C156.649 107.873 157.472 107.751 158.233 107.459ZM173.435 103.439L160.374 90.8264L162.457 90.027L175.518 102.64L173.435 103.439ZM184.845 99.3388C183.681 99.7858 182.43 99.9785 181.094 99.9171C179.758 99.8557 178.461 99.5698 177.202 99.0595C175.932 98.538 174.837 97.833 173.916 96.9444C172.985 96.0446 172.41 95.1475 172.193 94.2528C171.991 93.3525 172.123 92.5333 172.59 91.7954C173.06 91.0405 173.848 90.4511 174.952 90.0271C175.848 89.6832 176.766 89.5017 177.705 89.4825C178.649 89.4464 179.572 89.5422 180.475 89.7698C181.382 89.9806 182.232 90.2983 183.027 90.723C183.825 91.1308 184.511 91.6124 185.086 92.1678C185.213 92.2899 185.342 92.4345 185.473 92.6015C185.607 92.7516 185.729 92.8991 185.837 93.0438L175.94 96.8431L174.559 95.5101L183.247 92.175L182.883 93.1531C182.42 92.5239 181.81 92.036 181.055 91.6895C180.3 91.3429 179.508 91.1424 178.679 91.0878C177.851 91.0333 177.086 91.1407 176.384 91.41C175.683 91.6793 175.179 92.059 174.873 92.5491C174.567 93.0392 174.508 93.5972 174.697 94.2231C174.89 94.8321 175.367 95.464 176.128 96.1187C176.747 96.7969 177.48 97.323 178.326 97.6968C179.175 98.0537 180.05 98.2535 180.949 98.2963C181.852 98.3222 182.67 98.1948 183.401 97.914C184.207 97.6045 184.743 97.2049 185.007 96.7152C185.272 96.2255 185.352 95.6982 185.247 95.1332L187.683 95.1292C187.87 95.6318 187.888 96.1528 187.737 96.6919C187.589 97.2143 187.276 97.7072 186.796 98.1707C186.331 98.6285 185.681 99.0179 184.845 99.3388ZM196.767 94.7623C195.976 95.066 195.165 95.2298 194.335 95.2537C193.507 95.2608 192.727 95.1414 191.992 94.8955C191.246 94.6386 190.614 94.2602 190.097 93.7603C189.602 93.2827 189.294 92.8034 189.171 92.3226C189.052 91.825 189.146 91.3311 189.452 90.8411C189.773 90.3453 190.324 89.8699 191.105 89.415L195.014 87.1461L196.36 88.4457L192.869 90.4841C192.196 90.8821 191.819 91.2831 191.737 91.6872C191.669 92.0856 191.837 92.4792 192.24 92.868C192.619 93.2345 193.13 93.4655 193.771 93.5609C194.427 93.6505 195.053 93.5807 195.651 93.3515C196.412 93.0593 196.948 92.6905 197.259 92.2452C197.573 91.7831 197.674 91.2864 197.562 90.755C197.465 90.218 197.157 89.6995 196.64 89.1997L194.276 86.917C193.77 86.4283 193.115 86.1285 192.312 86.0177C191.512 85.8901 190.717 85.9781 189.926 86.2818C189.239 86.5454 188.765 86.9136 188.504 87.3865C188.246 87.8426 188.214 88.3359 188.409 88.8665L185.87 88.863C185.669 88.366 185.647 87.8619 185.807 87.3507C185.954 86.8284 186.259 86.3467 186.72 85.9058C187.181 85.4648 187.77 85.1068 188.487 84.8317C189.412 84.4764 190.364 84.2974 191.341 84.2947C192.308 84.2808 193.226 84.4327 194.098 84.7502C194.972 85.0509 195.726 85.5067 196.359 86.1176L202.673 92.2158L200.636 92.998L198.876 91.2985L199.36 91.2523C199.474 91.7052 199.453 92.148 199.296 92.5808C199.139 93.0136 198.85 93.4194 198.429 93.7984C198.008 94.1774 197.454 94.4987 196.767 94.7623ZM211.931 88.9414C210.797 89.3769 209.561 89.564 208.225 89.5026C206.904 89.4354 205.614 89.1466 204.355 88.6363C203.097 88.126 202.013 87.4321 201.104 86.5545C200.173 85.6548 199.606 84.7548 199.403 83.8544C199.19 82.943 199.318 82.1098 199.788 81.355C200.273 80.5945 201.083 79.9965 202.217 79.5609C203.218 79.177 204.273 78.9971 205.382 79.0213C206.481 79.0343 207.53 79.2214 208.53 79.5827L208.591 80.0949L202.828 74.5299L204.933 73.7219L217.994 86.3347L215.956 87.1169L213.972 85.2008L214.517 85.3643C214.709 86.1134 214.568 86.8038 214.096 87.4354C213.638 88.0612 212.916 88.5632 211.931 88.9414ZM210.558 87.3731C211.319 87.0809 211.854 86.6813 212.164 86.1744C212.473 85.6675 212.553 85.1093 212.401 84.4999C212.254 83.8736 211.869 83.2606 211.248 82.6607C210.615 82.0498 209.873 81.5743 209.02 81.2342C208.17 80.8773 207.303 80.6745 206.418 80.6261C205.534 80.5776 204.711 80.6995 203.949 80.9917C203.203 81.2782 202.673 81.6834 202.36 82.2071C202.051 82.714 201.972 83.2722 202.123 83.8816C202.263 84.48 202.655 85.0901 203.299 85.7122C203.92 86.312 204.655 86.7904 205.505 87.1473C206.342 87.4932 207.204 87.6903 208.088 87.7388C208.973 87.7873 209.796 87.6654 210.558 87.3731ZM227.313 83.0367C226.149 83.4837 224.899 83.6765 223.563 83.615C222.226 83.5536 220.929 83.2677 219.67 82.7574C218.4 82.236 217.305 81.5309 216.385 80.6423C215.453 79.7426 214.879 78.8454 214.662 77.9508C214.459 77.0504 214.592 76.2313 215.058 75.4933C215.528 74.7385 216.316 74.1491 217.421 73.725C218.316 73.3812 219.234 73.1997 220.174 73.1804C221.117 73.1444 222.04 73.2401 222.943 73.4678C223.85 73.6785 224.701 73.9962 225.495 74.4209C226.293 74.8287 226.979 75.3103 227.554 75.8657C227.681 75.9879 227.81 76.1325 227.941 76.2994C228.076 76.4496 228.197 76.597 228.305 76.7418L218.408 80.541L217.028 79.2081L225.716 75.873L225.352 76.851C224.888 76.2218 224.278 75.734 223.523 75.3874C222.768 75.0409 221.976 74.8403 221.148 74.7858C220.319 74.7312 219.554 74.8386 218.853 75.1079C218.151 75.3773 217.647 75.757 217.341 76.247C217.035 76.7371 216.976 77.2951 217.166 77.921C217.358 78.5301 217.835 79.162 218.596 79.8166C219.215 80.4949 219.948 81.0209 220.794 81.3947C221.643 81.7516 222.518 81.9515 223.418 81.9942C224.321 82.0201 225.138 81.8927 225.869 81.6119C226.675 81.3025 227.211 80.9029 227.476 80.4132C227.74 79.9235 227.82 79.3961 227.715 78.8311L230.152 78.8271C230.338 79.3298 230.356 79.8507 230.205 80.3899C230.058 80.9122 229.744 81.4051 229.265 81.8687C228.8 82.3265 228.149 82.7158 227.313 83.0367ZM235.644 79.5597L226.344 70.5791L228.382 69.7969L230.09 71.4464L229.624 71.2991C229.379 70.6792 229.421 70.1354 229.75 69.6675C230.067 69.1886 230.644 68.7886 231.48 68.4677L232.219 68.1841L233.737 69.6503L232.685 70.0543C231.834 70.3809 231.354 70.8444 231.246 71.4449C231.126 72.0342 231.44 72.6899 232.188 73.4119L237.726 78.7603L235.644 79.5597ZM248.337 74.9666C247.128 75.4308 245.845 75.6126 244.489 75.5121C243.134 75.4117 241.878 75.0554 240.723 74.4433L241.759 73.2074C242.654 73.6088 243.561 73.8504 244.481 73.9322C245.4 74.014 246.225 73.9145 246.957 73.6337C247.613 73.3816 248.037 73.0558 248.229 72.6563C248.42 72.2569 248.32 71.8683 247.929 71.4907C247.653 71.2241 247.33 71.0531 246.96 70.9779C246.594 70.8857 246.222 70.8497 245.847 70.8697C245.46 70.8786 245.124 70.9067 244.839 70.954L242.628 71.267C241.297 71.452 240.153 71.4254 239.197 71.187C238.256 70.9429 237.486 70.5321 236.888 69.9545C236.336 69.4213 236.038 68.8915 235.993 68.3652C235.952 67.8221 236.13 67.3191 236.527 66.8563C236.939 66.3877 237.541 66.0016 238.332 65.6979C239.392 65.291 240.547 65.1271 241.797 65.2061C243.062 65.2793 244.247 65.6082 245.353 66.1926L244.255 67.4291C243.504 67.0657 242.721 66.8538 241.907 66.7936C241.082 66.7222 240.334 66.8154 239.662 67.0733C239.05 67.3082 238.686 67.6111 238.569 67.9819C238.441 68.3415 238.555 68.6936 238.912 69.0379C239.176 69.2934 239.484 69.47 239.836 69.5679C240.176 69.6546 240.519 69.6937 240.865 69.6852C241.199 69.6655 241.515 69.6376 241.811 69.6015L244.23 69.2783C245.434 69.1111 246.535 69.1465 247.532 69.3845C248.544 69.6168 249.373 70.044 250.017 70.666C250.535 71.1659 250.814 71.6874 250.855 72.2305C250.896 72.7736 250.703 73.2824 250.276 73.7567C249.849 74.2309 249.203 74.6343 248.337 74.9666ZM255.581 71.9066L242.52 59.2937L244.602 58.4943L250.175 63.876L249.639 63.8722C249.351 63.1911 249.374 62.569 249.709 62.0058C250.047 61.4258 250.664 60.9639 251.56 60.6201C252.426 60.2877 253.344 60.137 254.315 60.168C255.301 60.1932 256.252 60.3868 257.169 60.7487C258.102 61.105 258.901 61.6052 259.568 62.2494L265.59 68.0644L263.485 68.8723L257.981 63.5573C257.464 63.0574 256.9 62.684 256.289 62.4371C255.694 62.1845 255.082 62.0468 254.453 62.0242C253.813 61.9904 253.21 62.0824 252.643 62.3002C252.09 62.5122 251.694 62.8041 251.453 63.176C251.201 63.5367 251.132 63.9435 251.246 64.3964C251.349 64.8381 251.653 65.3034 252.159 65.7921L257.663 71.1072L255.581 71.9066ZM268.906 66.7915L259.606 57.8109L261.689 57.0115L270.988 65.9921L268.906 66.7915ZM258.122 56.378L256.052 54.3786L258.134 53.5792L260.205 55.5786L258.122 56.378ZM278.006 67.9552L265.256 55.6422L267.293 54.86L269.295 56.7928L268.629 56.5127C268.525 55.8076 268.7 55.1506 269.154 54.5416C269.597 53.9215 270.318 53.4194 271.319 53.0355C272.453 52.6 273.681 52.4158 275.002 52.483C276.338 52.5444 277.636 52.8303 278.895 53.3406C280.142 53.8399 281.231 54.5393 282.163 55.4391C283.071 56.3166 283.633 57.2111 283.846 58.1225C284.06 59.034 283.924 59.87 283.439 60.6305C282.969 61.3853 282.159 61.9834 281.01 62.4246C280.04 62.7971 278.985 62.977 277.845 62.9643C276.72 62.9459 275.636 62.7254 274.594 62.3029L274.654 61.9074L280.089 67.1558L278.006 67.9552ZM279.3 60.9852C280.062 60.693 280.597 60.2934 280.907 59.7865C281.216 59.2796 281.288 58.7243 281.122 58.1206C280.959 57.5 280.567 56.8899 279.946 56.29C279.302 55.668 278.567 55.1896 277.74 54.8549C276.917 54.5033 276.063 54.3033 275.179 54.2548C274.282 54.1952 273.454 54.3116 272.692 54.6038C271.931 54.8961 271.388 55.2985 271.063 55.8112C270.754 56.3181 270.673 56.8847 270.821 57.5109C270.972 58.1204 271.364 58.7305 271.997 59.3415C272.618 59.9413 273.353 60.4197 274.203 60.7766C275.055 61.1167 275.924 61.311 276.809 61.3595C277.709 61.4022 278.539 61.2775 279.3 60.9852ZM131.884 150.455L118.823 137.842L120.905 137.042L126.478 142.424L125.942 142.42C125.654 141.739 125.678 141.117 126.012 140.554C126.351 139.974 126.968 139.512 127.863 139.168C128.729 138.836 129.647 138.685 130.618 138.716C131.604 138.741 132.555 138.935 133.473 139.297C134.405 139.653 135.205 140.153 135.872 140.797L141.893 146.612L139.788 147.42L134.284 142.105C133.767 141.605 133.203 141.232 132.592 140.985C131.997 140.732 131.385 140.595 130.757 140.572C130.117 140.538 129.513 140.63 128.946 140.848C128.393 141.06 127.997 141.352 127.756 141.724C127.504 142.085 127.435 142.491 127.549 142.944C127.652 143.386 127.956 143.851 128.462 144.34L133.966 149.655L131.884 150.455ZM145.209 145.339L135.909 136.359L137.992 135.559L147.291 144.54L145.209 145.339ZM134.426 134.926L132.355 132.927L134.438 132.127L136.508 134.127L134.426 134.926ZM150.859 143.171L141.559 134.19L143.597 133.408L145.305 135.057L144.839 134.91C144.594 134.29 144.636 133.746 144.965 133.279C145.282 132.8 145.859 132.4 146.695 132.079L147.434 131.795L148.953 133.261L147.9 133.665C147.049 133.992 146.57 134.456 146.461 135.056C146.341 135.645 146.655 136.301 147.403 137.023L152.941 142.371L150.859 143.171ZM164.783 138.105C163.619 138.552 162.369 138.745 161.033 138.683C159.696 138.622 158.399 138.336 157.14 137.826C155.87 137.304 154.775 136.599 153.855 135.711C152.923 134.811 152.349 133.914 152.132 133.019C151.929 132.119 152.062 131.299 152.528 130.562C152.998 129.807 153.786 129.217 154.891 128.793C155.786 128.449 156.704 128.268 157.644 128.249C158.587 128.213 159.51 128.308 160.413 128.536C161.32 128.747 162.171 129.064 162.965 129.489C163.763 129.897 164.449 130.379 165.024 130.934C165.151 131.056 165.28 131.201 165.411 131.368C165.546 131.518 165.667 131.665 165.775 131.81L155.878 135.609L154.497 134.276L163.186 130.941L162.822 131.919C162.358 131.29 161.748 130.802 160.993 130.456C160.238 130.109 159.446 129.909 158.618 129.854C157.789 129.799 157.024 129.907 156.323 130.176C155.621 130.445 155.117 130.825 154.811 131.315C154.505 131.805 154.446 132.363 154.635 132.989C154.828 133.598 155.305 134.23 156.066 134.885C156.685 135.563 157.418 136.089 158.264 136.463C159.113 136.82 159.988 137.02 160.887 137.062C161.791 137.088 162.608 136.961 163.339 136.68C164.145 136.371 164.681 135.971 164.946 135.481C165.21 134.992 165.29 134.464 165.185 133.899L167.622 133.895C167.808 134.398 167.826 134.919 167.675 135.458C167.528 135.98 167.214 136.473 166.734 136.937C166.27 137.395 165.619 137.784 164.783 138.105ZM177.642 133.169C176.433 133.633 175.151 133.815 173.795 133.714C172.439 133.614 171.184 133.258 170.028 132.646L171.064 131.41C171.96 131.811 172.867 132.053 173.786 132.134C174.705 132.216 175.531 132.117 176.262 131.836C176.919 131.584 177.343 131.258 177.534 130.859C177.726 130.459 177.626 130.071 177.235 129.693C176.959 129.426 176.636 129.255 176.266 129.18C175.899 129.088 175.528 129.052 175.152 129.072C174.765 129.081 174.429 129.109 174.144 129.156L171.934 129.469C170.602 129.654 169.459 129.628 168.502 129.389C167.561 129.145 166.792 128.734 166.193 128.157C165.641 127.624 165.343 127.094 165.299 126.567C165.258 126.024 165.436 125.521 165.833 125.059C166.245 124.59 166.846 124.204 167.637 123.9C168.697 123.493 169.852 123.329 171.102 123.408C172.367 123.482 173.553 123.81 174.659 124.395L173.561 125.631C172.809 125.268 172.026 125.056 171.213 124.996C170.388 124.924 169.64 125.018 168.968 125.276C168.356 125.51 167.991 125.813 167.875 126.184C167.746 126.544 167.861 126.896 168.217 127.24C168.482 127.496 168.79 127.672 169.142 127.77C169.482 127.857 169.825 127.896 170.17 127.887C170.505 127.868 170.82 127.84 171.116 127.804L173.536 127.481C174.739 127.313 175.84 127.349 176.838 127.587C177.85 127.819 178.678 128.246 179.322 128.868C179.84 129.368 180.119 129.89 180.16 130.433C180.201 130.976 180.008 131.485 179.581 131.959C179.155 132.433 178.508 132.837 177.642 133.169ZM195.547 126.296C194.577 126.668 193.522 126.848 192.382 126.836C191.257 126.817 190.174 126.597 189.131 126.174L189.146 125.796L191.13 127.712L189.093 128.494L176.032 115.881L178.114 115.082L183.877 120.647L183.166 120.384C183.062 119.679 183.237 119.022 183.691 118.413C184.134 117.793 184.855 117.291 185.856 116.907C186.99 116.471 188.218 116.287 189.539 116.354C190.876 116.416 192.173 116.702 193.432 117.212C194.679 117.711 195.768 118.411 196.7 119.31C197.609 120.188 198.17 121.082 198.383 121.994C198.597 122.905 198.461 123.741 197.976 124.502C197.506 125.257 196.697 125.855 195.547 126.296ZM193.838 124.857C194.599 124.564 195.134 124.165 195.444 123.658C195.753 123.151 195.825 122.596 195.659 121.992C195.496 121.371 195.104 120.761 194.483 120.161C193.839 119.539 193.104 119.061 192.277 118.726C191.454 118.375 190.6 118.175 189.716 118.126C188.819 118.067 187.991 118.183 187.229 118.475C186.468 118.767 185.925 119.17 185.601 119.682C185.291 120.189 185.21 120.756 185.358 121.382C185.509 121.992 185.901 122.602 186.534 123.213C187.155 123.813 187.89 124.291 188.74 124.648C189.593 124.988 190.461 125.182 191.346 125.231C192.246 125.274 193.076 125.149 193.838 124.857ZM208.892 121.173C208.026 121.506 207.087 121.657 206.075 121.626C205.077 121.59 204.109 121.38 203.168 120.995C202.232 120.594 201.401 120.044 200.676 119.344L194.862 113.729L196.944 112.93L202.586 118.378C203.046 118.822 203.568 119.165 204.152 119.407C204.751 119.643 205.365 119.772 205.993 119.795C206.636 119.812 207.242 119.711 207.809 119.493C208.376 119.276 208.779 118.989 209.016 118.634C209.268 118.273 209.33 117.87 209.201 117.422C209.086 116.97 208.776 116.499 208.27 116.01L202.766 110.695L204.871 109.887L214.171 118.868L212.133 119.65L210.321 117.9L210.813 117.921C211.116 118.597 211.09 119.227 210.737 119.813C210.388 120.382 209.772 120.835 208.892 121.173ZM222.74 115.718C221.561 116.17 220.391 116.27 219.232 116.017C218.087 115.757 217.043 115.172 216.1 114.262L211.2 109.53L209.006 110.372L207.47 108.889L207.918 108.717C208.456 108.511 208.754 108.225 208.815 107.861C208.875 107.496 208.698 107.114 208.284 106.714L207.525 105.981L209.608 105.181L211.747 107.247L214.457 106.207L215.992 107.69L213.283 108.73L218.131 113.412C218.442 113.712 218.772 113.95 219.121 114.127C219.485 114.297 219.886 114.392 220.323 114.41C220.748 114.418 221.207 114.327 221.699 114.138C221.804 114.098 221.925 114.044 222.063 113.975C222.215 113.901 222.353 113.833 222.476 113.77L223.891 115.136C223.731 115.244 223.538 115.35 223.31 115.452C223.094 115.566 222.904 115.655 222.74 115.718Z" fill="#FAFAFA"/>
<path d="M230.907 112.443L217.846 99.8302L220.779 98.7042L233.84 111.317L230.907 112.443ZM240.786 108.93C239.936 109.257 239.087 109.435 238.242 109.465C237.396 109.494 236.601 109.38 235.855 109.124C235.097 108.855 234.448 108.46 233.908 107.938C233.39 107.438 233.079 106.937 232.975 106.433C232.86 105.919 232.977 105.408 233.328 104.901C233.679 104.394 234.275 103.901 235.115 103.423L238.601 101.41L240.326 103.076L237.349 104.825C236.847 105.126 236.558 105.431 236.481 105.74C236.405 106.048 236.533 106.364 236.867 106.686C237.189 106.997 237.604 107.187 238.113 107.255C238.626 107.307 239.121 107.241 239.598 107.058C240.211 106.823 240.65 106.522 240.917 106.156C241.188 105.772 241.272 105.36 241.169 104.918C241.081 104.47 240.825 104.041 240.399 103.63L237.984 101.298C237.581 100.909 237.038 100.667 236.356 100.572C235.677 100.46 235.001 100.533 234.329 100.791C233.703 101.032 233.275 101.374 233.047 101.819C232.822 102.247 232.811 102.709 233.012 103.206L229.719 103.259C229.464 102.69 229.411 102.136 229.562 101.596C229.717 101.04 230.041 100.528 230.536 100.059C231.03 99.5892 231.688 99.197 232.509 98.8818C233.509 98.4979 234.534 98.2987 235.583 98.2841C236.62 98.2584 237.601 98.4098 238.525 98.738C239.452 99.0495 240.25 99.5273 240.917 100.172L247.163 106.203L244.386 107.269L242.781 105.719L243.374 105.445C243.463 105.955 243.429 106.425 243.272 106.858C243.104 107.28 242.818 107.669 242.416 108.025C242.001 108.371 241.458 108.672 240.786 108.93ZM256.284 102.981C255.074 103.445 253.772 103.658 252.376 103.62C250.983 103.564 249.643 103.287 248.354 102.788C247.054 102.278 245.939 101.574 245.007 100.674C244.075 99.7742 243.517 98.8629 243.334 97.9399C243.15 97.017 243.323 96.1667 243.853 95.389C244.397 94.6055 245.274 93.9817 246.484 93.5175C247.349 93.1852 248.276 92.9924 249.264 92.9391C250.241 92.8747 251.205 92.9393 252.156 93.1329C253.111 93.3097 253.99 93.6243 254.792 94.0769L253.08 95.8985C252.384 95.5291 251.624 95.3086 250.799 95.2372C249.989 95.1601 249.241 95.2533 248.554 95.5169C247.912 95.7633 247.458 96.1006 247.192 96.5287C246.941 96.951 246.886 97.4222 247.028 97.942C247.17 98.4619 247.517 98.9884 248.07 99.5216C248.622 100.055 249.252 100.472 249.962 100.774C250.671 101.077 251.392 101.25 252.127 101.294C252.876 101.332 253.571 101.228 254.213 100.982C254.915 100.713 255.383 100.339 255.618 99.8606C255.853 99.3823 255.841 98.8669 255.582 98.3144L259.054 98.1924C259.344 98.795 259.433 99.405 259.322 100.022C259.198 100.628 258.884 101.191 258.379 101.711C257.863 102.22 257.164 102.643 256.284 102.981ZM264.169 99.675L251.108 87.0621L254.041 85.9361L262.599 94.2003L261.221 94.3801L262.329 87.7143L265.979 86.3132L265.257 91.6899L275.455 95.3428L272.096 96.6321L263.245 93.4636L264.715 92.5265L264.079 96.8686L263.617 95.1833L267.102 98.5489L264.169 99.675ZM285.646 91.7101C284.795 92.0367 283.947 92.2149 283.102 92.2445C282.256 92.2741 281.46 92.1605 280.714 91.9035C279.957 91.6354 279.308 91.2403 278.767 90.7183C278.25 90.2184 277.939 89.7168 277.835 89.2134C277.719 88.6989 277.837 88.1881 278.188 87.6808C278.539 87.1735 279.134 86.681 279.975 86.2032L283.46 84.19L285.186 85.8561L282.208 87.6045C281.707 87.9057 281.417 88.2107 281.341 88.5195C281.264 88.8284 281.393 89.1438 281.726 89.466C282.048 89.777 282.464 89.9667 282.973 90.0352C283.485 90.0869 283.981 90.021 284.458 89.8376C285.07 89.6027 285.51 89.302 285.777 88.9355C286.048 88.5522 286.132 88.1397 286.029 87.6979C285.941 87.2504 285.684 86.8212 285.259 86.4102L282.843 84.0776C282.441 83.6888 281.898 83.4469 281.216 83.3519C280.536 83.24 279.861 83.313 279.189 83.5709C278.562 83.8116 278.135 84.1542 277.907 84.5988C277.682 85.0265 277.671 85.4889 277.872 85.9858L274.579 86.0391C274.323 85.4698 274.271 84.9156 274.422 84.3764C274.576 83.8204 274.901 83.3077 275.395 82.8385C275.89 82.3692 276.548 81.977 277.369 81.6618C278.369 81.2779 279.394 81.0786 280.442 81.0641C281.48 81.0384 282.461 81.1897 283.385 81.518C284.312 81.8295 285.109 82.3073 285.777 82.9516L292.022 88.9831L289.246 90.0489L287.641 88.4994L288.234 88.2254C288.323 88.7345 288.289 89.2054 288.132 89.6382C287.964 90.0599 287.678 90.4489 287.275 90.8053C286.861 91.1506 286.318 91.4522 285.646 91.7101ZM160.313 170.746C158.94 171.274 157.585 171.406 156.248 171.142C154.915 170.862 153.72 170.212 152.662 169.19L148.521 165.191L146.416 165.999L144.397 164.049L144.621 163.963C145.218 163.734 145.56 163.44 145.647 163.081C145.734 162.721 145.547 162.319 145.087 161.875L144.363 161.175L147.296 160.049L149.435 162.115L152.234 161.041L154.253 162.99L151.454 164.065L155.474 167.947C155.785 168.247 156.116 168.477 156.469 168.636C156.837 168.79 157.228 168.865 157.642 168.861C158.07 168.852 158.523 168.756 159.001 168.572C159.105 168.532 159.219 168.481 159.342 168.418C159.48 168.35 159.61 168.284 159.733 168.222L161.665 170.088C161.479 170.19 161.263 170.304 161.018 170.429C160.772 170.555 160.537 170.66 160.313 170.746ZM164.242 169.098L154.856 160.035L157.611 158.977L159.698 160.993L159.164 160.779C158.746 159.993 158.697 159.352 159.018 158.856C159.354 158.354 159.948 157.94 160.799 157.614L161.515 157.339L163.517 159.271L162.464 159.675C161.628 159.996 161.158 160.449 161.053 161.032C160.936 161.605 161.235 162.235 161.948 162.924L167.176 167.972L164.242 169.098ZM177.504 164.287C176.564 164.648 175.582 164.808 174.558 164.766C173.549 164.719 172.571 164.489 171.623 164.077C170.689 163.659 169.837 163.078 169.067 162.334L163.321 156.785L166.254 155.659L171.81 161.024C172.201 161.402 172.643 161.698 173.136 161.912C173.633 162.11 174.154 162.22 174.7 162.243C175.249 162.25 175.762 162.162 176.24 161.978C176.718 161.795 177.063 161.554 177.275 161.255C177.476 160.945 177.531 160.606 177.441 160.237C177.351 159.868 177.099 159.483 176.685 159.083L171.181 153.768L174.114 152.642L183.5 161.706L180.723 162.772L178.877 160.989L179.451 161.211C179.743 161.875 179.704 162.472 179.335 163.002C178.98 163.526 178.37 163.955 177.504 164.287ZM191.405 158.951C190.106 159.45 188.736 159.657 187.294 159.574C185.855 159.475 184.549 159.099 183.374 158.448L184.757 156.823C185.6 157.213 186.447 157.447 187.298 157.524C188.165 157.595 188.941 157.499 189.628 157.235C190.165 157.029 190.499 156.776 190.628 156.478C190.758 156.18 190.673 155.887 190.374 155.598C190.19 155.42 189.973 155.302 189.724 155.242C189.478 155.166 189.203 155.132 188.898 155.14C188.597 155.131 188.291 155.148 187.98 155.19L185.555 155.538C184.295 155.712 183.161 155.674 182.152 155.425C181.158 155.17 180.339 154.731 179.694 154.109C179.119 153.554 178.805 152.999 178.753 152.445C178.704 151.874 178.895 151.343 179.325 150.851C179.77 150.355 180.433 149.937 181.314 149.599C182.463 149.158 183.691 148.974 184.998 149.046C186.304 149.119 187.529 149.456 188.673 150.057L187.245 151.7C186.61 151.369 185.92 151.176 185.174 151.121C184.429 151.066 183.75 151.155 183.138 151.39C182.645 151.58 182.343 151.812 182.232 152.087C182.121 152.363 182.203 152.634 182.479 152.9C182.652 153.067 182.861 153.189 183.107 153.265C183.353 153.341 183.621 153.378 183.91 153.376C184.215 153.367 184.543 153.342 184.896 153.3L187.293 152.985C188.523 152.824 189.637 152.862 190.634 153.1C191.647 153.332 192.487 153.77 193.154 154.415C193.717 154.959 194.024 155.517 194.073 156.088C194.11 156.648 193.906 157.176 193.461 157.673C193.016 158.17 192.331 158.596 191.405 158.951ZM204.058 153.954C202.684 154.482 201.329 154.614 199.993 154.351C198.66 154.071 197.464 153.42 196.406 152.398L192.265 148.399L190.16 149.207L188.142 147.257L188.366 147.172C188.963 146.942 189.305 146.648 189.392 146.289C189.478 145.929 189.292 145.528 188.832 145.083L188.107 144.383L191.04 143.257L193.18 145.323L195.979 144.249L197.998 146.198L195.199 147.273L199.219 151.155C199.529 151.455 199.861 151.685 200.214 151.844C200.582 151.998 200.972 152.073 201.386 152.069C201.815 152.06 202.268 151.964 202.745 151.78C202.85 151.74 202.964 151.689 203.086 151.626C203.224 151.558 203.354 151.492 203.477 151.43L205.41 153.296C205.224 153.398 205.008 153.512 204.762 153.637C204.516 153.763 204.282 153.868 204.058 153.954ZM213.862 150.331C212.608 150.812 211.292 151.022 209.914 150.961C208.537 150.9 207.213 150.609 205.943 150.087C204.673 149.566 203.583 148.866 202.675 147.989C201.731 147.078 201.159 146.173 200.956 145.272C200.758 144.355 200.901 143.516 201.386 142.756C201.886 141.989 202.703 141.388 203.838 140.953C204.793 140.586 205.75 140.382 206.708 140.34C207.681 140.293 208.634 140.377 209.567 140.593C210.5 140.809 211.377 141.132 212.198 141.562C213.007 141.981 213.728 142.496 214.361 143.107C214.522 143.263 214.674 143.429 214.817 143.607C214.974 143.78 215.086 143.939 215.153 144.084L205.749 147.694L204.023 146.028L211.771 143.054L211.193 144.37C210.799 143.807 210.29 143.366 209.667 143.046C209.059 142.721 208.402 142.53 207.698 142.475C207.009 142.413 206.343 142.506 205.701 142.752C205.089 142.987 204.665 143.313 204.429 143.73C204.181 144.135 204.16 144.609 204.367 145.151C204.576 145.676 205.033 146.238 205.737 146.837C206.253 147.415 206.861 147.872 207.564 148.208C208.27 148.527 208.997 148.705 209.746 148.744C210.51 148.777 211.228 148.664 211.9 148.406C212.572 148.148 213.03 147.825 213.274 147.436C213.533 147.042 213.613 146.615 213.514 146.157L216.784 146.112C216.994 146.637 217.018 147.163 216.855 147.691C216.693 148.22 216.358 148.713 215.852 149.171C215.361 149.623 214.698 150.01 213.862 150.331ZM227.796 144.982C226.617 145.434 225.352 145.633 224.001 145.577C222.638 145.51 221.314 145.219 220.029 144.703C218.744 144.188 217.647 143.491 216.739 142.614C215.818 141.725 215.259 140.822 215.06 139.905C214.861 138.988 215.006 138.14 215.495 137.363C215.998 136.58 216.825 135.968 217.974 135.527C218.9 135.171 219.864 134.995 220.868 134.998C221.876 134.983 222.842 135.14 223.766 135.469L223.784 136.09L218.246 130.742L221.179 129.616L234.24 142.229L231.463 143.295L229.652 141.545L230.414 141.858C230.502 142.507 230.311 143.108 229.84 143.662C229.359 144.204 228.677 144.644 227.796 144.982ZM226.04 142.862C226.711 142.604 227.18 142.261 227.446 141.833C227.712 141.405 227.774 140.931 227.632 140.411C227.505 139.886 227.166 139.356 226.614 138.823C226.073 138.301 225.441 137.892 224.716 137.595C223.996 137.282 223.261 137.106 222.512 137.068C221.763 137.029 221.052 137.139 220.38 137.397C219.723 137.649 219.26 137.998 218.991 138.443C218.71 138.876 218.633 139.356 218.76 139.882C218.891 140.39 219.232 140.911 219.784 141.445C220.336 141.978 220.967 142.395 221.676 142.698C222.4 142.994 223.144 143.158 223.908 143.191C224.672 143.224 225.383 143.114 226.04 142.862ZM246.463 137.816C245.164 138.315 243.794 138.523 242.352 138.44C240.913 138.34 239.607 137.965 238.432 137.313L239.815 135.688C240.658 136.079 241.505 136.312 242.356 136.389C243.223 136.46 243.999 136.364 244.686 136.1C245.223 135.894 245.557 135.642 245.686 135.344C245.815 135.046 245.731 134.752 245.432 134.463C245.248 134.286 245.031 134.167 244.781 134.108C244.536 134.031 244.26 133.997 243.956 134.005C243.655 133.997 243.349 134.013 243.037 134.055L240.613 134.404C239.353 134.577 238.219 134.539 237.21 134.29C236.215 134.035 235.396 133.597 234.752 132.974C234.177 132.419 233.863 131.864 233.811 131.31C233.762 130.739 233.953 130.208 234.383 129.717C234.828 129.22 235.491 128.802 236.372 128.464C237.521 128.023 238.749 127.839 240.055 127.912C241.362 127.985 242.587 128.322 243.731 128.923L242.302 130.565C241.668 130.234 240.978 130.041 240.232 129.986C239.486 129.931 238.807 130.021 238.195 130.256C237.703 130.445 237.401 130.677 237.29 130.953C237.179 131.228 237.261 131.499 237.537 131.766C237.71 131.932 237.919 132.054 238.165 132.13C238.411 132.206 238.679 132.243 238.968 132.241C239.273 132.233 239.601 132.208 239.954 132.165L242.351 131.851C243.581 131.689 244.695 131.727 245.692 131.965C246.705 132.197 247.544 132.636 248.212 133.28C248.775 133.824 249.081 134.382 249.13 134.953C249.168 135.513 248.964 136.041 248.519 136.538C248.074 137.035 247.388 137.461 246.463 137.816ZM259.443 132.834C258.189 133.315 256.873 133.525 255.496 133.464C254.118 133.403 252.794 133.112 251.524 132.59C250.254 132.069 249.165 131.369 248.256 130.492C247.313 129.581 246.74 128.676 246.538 127.775C246.339 126.858 246.482 126.019 246.967 125.259C247.467 124.492 248.284 123.891 249.419 123.456C250.374 123.089 251.331 122.885 252.289 122.843C253.262 122.796 254.215 122.88 255.149 123.096C256.082 123.312 256.959 123.635 257.78 124.065C258.589 124.484 259.31 124.999 259.942 125.61C260.103 125.766 260.255 125.932 260.398 126.11C260.556 126.283 260.668 126.442 260.735 126.587L251.33 130.197L249.605 128.531L257.352 125.557L256.775 126.873C256.38 126.31 255.871 125.869 255.248 125.549C254.64 125.224 253.984 125.033 253.279 124.978C252.59 124.916 251.924 125.009 251.282 125.255C250.67 125.49 250.246 125.816 250.01 126.233C249.762 126.638 249.742 127.112 249.948 127.654C250.158 128.178 250.615 128.74 251.319 129.34C251.834 129.918 252.443 130.375 253.145 130.711C253.851 131.03 254.578 131.208 255.328 131.247C256.092 131.28 256.809 131.167 257.481 130.909C258.153 130.651 258.611 130.328 258.855 129.939C259.114 129.545 259.194 129.118 259.095 128.66L262.366 128.615C262.575 129.14 262.599 129.666 262.437 130.194C262.274 130.722 261.94 131.216 261.434 131.674C260.943 132.126 260.279 132.513 259.443 132.834ZM271.364 128.258C270.513 128.585 269.664 128.763 268.819 128.792C267.973 128.822 267.178 128.708 266.432 128.451C265.674 128.183 265.025 127.788 264.485 127.266C263.967 126.766 263.656 126.265 263.552 125.761C263.437 125.247 263.554 124.736 263.905 124.229C264.256 123.721 264.852 123.229 265.692 122.751L269.178 120.738L270.903 122.404L267.926 124.152C267.424 124.453 267.135 124.758 267.058 125.067C266.982 125.376 267.11 125.692 267.444 126.014C267.766 126.325 268.181 126.514 268.69 126.583C269.203 126.635 269.698 126.569 270.176 126.385C270.788 126.15 271.227 125.85 271.495 125.483C271.765 125.1 271.849 124.687 271.746 124.246C271.658 123.798 271.402 123.369 270.976 122.958L268.561 120.625C268.158 120.237 267.615 119.995 266.933 119.9C266.254 119.788 265.578 119.861 264.907 120.119C264.28 120.359 263.852 120.702 263.624 121.147C263.399 121.574 263.388 122.037 263.59 122.534L260.296 122.587C260.041 122.018 259.988 121.463 260.139 120.924C260.294 120.368 260.618 119.855 261.113 119.386C261.607 118.917 262.265 118.525 263.086 118.21C264.086 117.826 265.111 117.626 266.16 117.612C267.197 117.586 268.178 117.737 269.102 118.066C270.03 118.377 270.827 118.855 271.494 119.499L277.74 125.531L274.963 126.597L273.359 125.047L273.951 124.773C274.04 125.282 274.006 125.753 273.849 126.186C273.681 126.608 273.395 126.997 272.993 127.353C272.578 127.698 272.035 128 271.364 128.258ZM280.787 124.361L271.401 115.297L274.155 114.24L276.243 116.256L275.708 116.042C275.29 115.256 275.242 114.615 275.563 114.119C275.899 113.617 276.492 113.203 277.343 112.876L278.06 112.601L280.061 114.534L279.009 114.938C278.173 115.259 277.702 115.711 277.597 116.295C277.481 116.867 277.779 117.498 278.492 118.187L283.72 123.235L280.787 124.361ZM295.572 118.965C294.363 119.429 293.06 119.642 291.664 119.604C290.272 119.548 288.931 119.271 287.643 118.772C286.343 118.262 285.227 117.557 284.295 116.658C283.363 115.758 282.806 114.847 282.622 113.924C282.438 113.001 282.611 112.151 283.141 111.373C283.686 110.589 284.563 109.966 285.772 109.501C286.638 109.169 287.565 108.976 288.552 108.923C289.529 108.859 290.493 108.923 291.444 109.117C292.399 109.294 293.278 109.608 294.081 110.061L292.368 111.882C291.673 111.513 290.912 111.292 290.087 111.221C289.277 111.144 288.529 111.237 287.842 111.501C287.2 111.747 286.746 112.084 286.48 112.513C286.229 112.935 286.175 113.406 286.317 113.926C286.459 114.446 286.806 114.972 287.358 115.505C287.91 116.039 288.541 116.456 289.25 116.758C289.959 117.06 290.681 117.234 291.415 117.278C292.164 117.316 292.86 117.212 293.501 116.966C294.203 116.696 294.671 116.323 294.906 115.844C295.141 115.366 295.129 114.851 294.87 114.298L298.342 114.176C298.632 114.779 298.722 115.389 298.61 116.006C298.486 116.612 298.172 117.175 297.668 117.695C297.151 118.204 296.453 118.627 295.572 118.965ZM303.457 115.659L290.396 103.046L293.33 101.92L298.851 107.252L298.12 107.09C297.84 106.437 297.877 105.848 298.232 105.324C298.589 104.783 299.201 104.346 300.067 104.014C300.963 103.67 301.903 103.511 302.889 103.536C303.89 103.556 304.855 103.752 305.783 104.125C306.701 104.487 307.51 105.007 308.212 105.684L314.25 111.516L311.317 112.642L305.813 107.327C305.399 106.927 304.938 106.623 304.43 106.414C303.922 106.205 303.401 106.095 302.866 106.083C302.336 106.054 301.824 106.134 301.331 106.323C300.854 106.506 300.514 106.753 300.314 107.063C300.102 107.361 300.041 107.695 300.131 108.064C300.221 108.433 300.473 108.818 300.887 109.218L306.391 114.533L303.457 115.659ZM181.126 198.34L168.289 185.943L171.044 184.886L172.907 186.685L172.172 186.339C172.084 185.69 172.26 185.094 172.701 184.552C173.13 184 173.815 183.543 174.755 183.182C175.905 182.741 177.161 182.553 178.523 182.62C179.886 182.687 181.204 182.973 182.478 183.477C183.766 183.976 184.871 184.67 185.791 185.559C186.699 186.436 187.259 187.339 187.469 188.267C187.679 189.196 187.54 190.048 187.052 190.826C186.552 191.592 185.712 192.202 184.533 192.654C183.652 192.992 182.706 193.177 181.695 193.208C180.688 193.222 179.714 193.068 178.775 192.745L178.797 192.132L184.059 197.213L181.126 198.34ZM182.127 190.784C182.798 190.526 183.275 190.18 183.556 189.746C183.837 189.312 183.906 188.836 183.764 188.316C183.637 187.79 183.297 187.261 182.745 186.728C182.193 186.194 181.561 185.785 180.848 185.5C180.139 185.198 179.402 185.03 178.638 184.998C177.863 184.954 177.139 185.061 176.467 185.319C175.825 185.565 175.364 185.905 175.083 186.339C174.817 186.767 174.753 187.25 174.892 187.786C175.034 188.306 175.375 188.827 175.916 189.349C176.468 189.882 177.098 190.3 177.808 190.602C178.532 190.899 179.269 191.066 180.018 191.104C180.782 191.137 181.485 191.03 182.127 190.784ZM193.056 189.103L183.67 180.039L186.424 178.982L188.512 180.998L187.977 180.784C187.559 179.998 187.511 179.356 187.832 178.861C188.168 178.359 188.762 177.945 189.612 177.618L190.329 177.343L192.33 179.276L191.278 179.68C190.442 180.001 189.971 180.453 189.867 181.037C189.75 181.609 190.048 182.24 190.762 182.929L195.989 187.977L193.056 189.103ZM207.93 183.673C206.736 184.131 205.434 184.344 204.023 184.311C202.627 184.273 201.27 184.01 199.951 183.522C198.648 183.029 197.525 182.327 196.581 181.416C195.638 180.506 195.082 179.586 194.913 178.657C194.759 177.723 194.955 176.864 195.5 176.08C196.044 175.297 196.921 174.673 198.13 174.209C199.325 173.75 200.62 173.541 202.016 173.579C203.412 173.618 204.761 173.883 206.065 174.377C207.372 174.853 208.502 175.552 209.457 176.474C210.4 177.385 210.949 178.307 211.103 179.242C211.257 180.176 211.061 181.035 210.517 181.818C209.972 182.602 209.11 183.22 207.93 183.673ZM205.86 181.673C206.517 181.421 206.971 181.084 207.222 180.662C207.488 180.233 207.55 179.76 207.408 179.24C207.269 178.703 206.93 178.174 206.389 177.651C205.837 177.118 205.205 176.709 204.492 176.424C203.783 176.122 203.054 175.951 202.305 175.913C201.559 175.858 200.858 175.956 200.201 176.208C199.529 176.466 199.066 176.815 198.811 177.254C198.545 177.682 198.476 178.159 198.603 178.684C198.733 179.193 199.075 179.714 199.627 180.247C200.167 180.769 200.798 181.187 201.519 181.5C202.243 181.797 202.98 181.964 203.729 182.002C204.478 182.041 205.188 181.931 205.86 181.673ZM222.784 177.971C221.575 178.435 220.273 178.648 218.877 178.609C217.484 178.554 216.144 178.277 214.855 177.778C213.555 177.268 212.439 176.563 211.508 175.663C210.576 174.764 210.018 173.852 209.834 172.93C209.65 172.007 209.823 171.156 210.353 170.379C210.898 169.595 211.775 168.971 212.984 168.507C213.85 168.175 214.777 167.982 215.765 167.929C216.741 167.864 217.705 167.929 218.657 168.123C219.612 168.299 220.49 168.614 221.293 169.067L219.58 170.888C218.885 170.519 218.125 170.298 217.3 170.227C216.49 170.15 215.741 170.243 215.055 170.506C214.413 170.753 213.959 171.09 213.693 171.518C213.442 171.941 213.387 172.412 213.529 172.932C213.671 173.451 214.018 173.978 214.57 174.511C215.122 175.044 215.753 175.462 216.462 175.764C217.171 176.066 217.893 176.239 218.627 176.283C219.376 176.322 220.072 176.218 220.714 175.972C221.415 175.702 221.884 175.328 222.119 174.85C222.354 174.372 222.341 173.857 222.082 173.304L225.555 173.182C225.845 173.785 225.934 174.395 225.822 175.012C225.699 175.618 225.385 176.181 224.88 176.701C224.364 177.209 223.665 177.633 222.784 177.971ZM236.654 172.647C235.4 173.128 234.084 173.338 232.707 173.277C231.329 173.216 230.005 172.925 228.735 172.403C227.465 171.882 226.376 171.183 225.467 170.305C224.524 169.394 223.951 168.489 223.749 167.588C223.55 166.671 223.693 165.832 224.178 165.072C224.678 164.305 225.495 163.704 226.63 163.269C227.585 162.902 228.542 162.698 229.5 162.656C230.473 162.609 231.426 162.693 232.36 162.909C233.293 163.125 234.17 163.448 234.99 163.878C235.8 164.297 236.521 164.812 237.153 165.423C237.314 165.579 237.466 165.745 237.609 165.924C237.767 166.096 237.879 166.255 237.946 166.4L228.541 170.01L226.816 168.344L234.563 165.37L233.986 166.686C233.591 166.123 233.082 165.682 232.459 165.362C231.851 165.037 231.195 164.846 230.49 164.791C229.801 164.729 229.135 164.822 228.493 165.068C227.881 165.303 227.457 165.629 227.221 166.046C226.973 166.451 226.953 166.925 227.159 167.467C227.369 167.992 227.826 168.554 228.529 169.153C229.045 169.731 229.654 170.188 230.356 170.524C231.062 170.843 231.789 171.021 232.538 171.06C233.303 171.093 234.02 170.98 234.692 170.722C235.364 170.464 235.822 170.141 236.066 169.752C236.325 169.358 236.405 168.931 236.306 168.473L239.577 168.428C239.786 168.953 239.81 169.479 239.648 170.007C239.485 170.536 239.151 171.029 238.645 171.487C238.154 171.939 237.49 172.326 236.654 172.647ZM249.559 167.693C248.26 168.192 246.89 168.399 245.448 168.317C244.009 168.217 242.702 167.841 241.528 167.19L242.911 165.565C243.754 165.955 244.601 166.189 245.452 166.266C246.318 166.337 247.095 166.241 247.782 165.977C248.319 165.771 248.652 165.519 248.782 165.22C248.911 164.922 248.827 164.629 248.528 164.34C248.343 164.162 248.127 164.044 247.877 163.984C247.631 163.908 247.356 163.874 247.052 163.882C246.751 163.873 246.445 163.89 246.133 163.932L243.709 164.28C242.449 164.454 241.314 164.416 240.305 164.167C239.311 163.912 238.492 163.473 237.848 162.851C237.273 162.296 236.959 161.741 236.907 161.187C236.858 160.616 237.049 160.085 237.479 159.594C237.924 159.097 238.587 158.679 239.468 158.341C240.617 157.9 241.845 157.716 243.151 157.789C244.458 157.861 245.683 158.198 246.827 158.799L245.398 160.442C244.764 160.111 244.074 159.918 243.328 159.863C242.582 159.808 241.903 159.898 241.291 160.132C240.799 160.322 240.497 160.554 240.386 160.829C240.275 161.105 240.357 161.376 240.633 161.642C240.806 161.809 241.015 161.931 241.261 162.007C241.507 162.083 241.775 162.12 242.064 162.118C242.369 162.11 242.697 162.084 243.05 162.042L245.446 161.727C246.677 161.566 247.791 161.604 248.788 161.842C249.801 162.074 250.64 162.512 251.307 163.157C251.871 163.701 252.177 164.259 252.226 164.83C252.264 165.39 252.06 165.918 251.615 166.415C251.17 166.912 250.484 167.338 249.559 167.693ZM261.397 163.149C260.098 163.647 258.728 163.855 257.286 163.772C255.847 163.673 254.541 163.297 253.366 162.646L254.749 161.02C255.592 161.411 256.439 161.645 257.29 161.722C258.157 161.793 258.933 161.696 259.62 161.433C260.157 161.226 260.491 160.974 260.62 160.676C260.75 160.378 260.665 160.085 260.366 159.796C260.182 159.618 259.965 159.5 259.716 159.44C259.47 159.364 259.194 159.33 258.89 159.338C258.589 159.329 258.283 159.346 257.971 159.388L255.547 159.736C254.287 159.909 253.153 159.871 252.144 159.622C251.149 159.368 250.33 158.929 249.686 158.307C249.111 157.752 248.797 157.197 248.745 156.643C248.696 156.072 248.887 155.54 249.317 155.049C249.762 154.552 250.425 154.135 251.306 153.797C252.455 153.356 253.683 153.171 254.989 153.244C256.296 153.317 257.521 153.654 258.665 154.255L257.236 155.898C256.602 155.567 255.912 155.374 255.166 155.319C254.42 155.263 253.742 155.353 253.129 155.588C252.637 155.777 252.335 156.01 252.224 156.285C252.113 156.561 252.195 156.832 252.471 157.098C252.644 157.265 252.853 157.386 253.099 157.463C253.345 157.539 253.613 157.576 253.902 157.573C254.207 157.565 254.535 157.54 254.888 157.498L257.285 157.183C258.515 157.021 259.629 157.06 260.626 157.298C261.639 157.53 262.478 157.968 263.146 158.612C263.709 159.157 264.016 159.714 264.064 160.285C264.102 160.845 263.898 161.374 263.453 161.871C263.008 162.368 262.322 162.794 261.397 163.149ZM269.781 159.651L267.366 157.318L270.321 156.184L272.737 158.516L269.781 159.651Z" fill="#FCFF32"/>
<path opacity="0.6" d="M243.016 256.908C242.232 256.105 241.713 255.262 241.458 254.382C241.19 253.489 241.105 252.725 241.202 252.09C241.317 251.448 241.533 250.741 241.851 249.967C241.955 249.691 242.136 249.278 242.392 248.726C242.666 248.168 242.857 247.742 242.966 247.447C243.074 247.152 243.17 246.798 243.254 246.385C243.342 245.953 243.317 245.565 243.178 245.219C243.026 244.861 242.782 244.52 242.447 244.196C241.789 243.561 241.048 243.139 240.224 242.93C239.399 242.722 238.595 242.768 237.811 243.069C236.906 243.416 236.433 243.924 236.394 244.591C236.372 245.251 236.802 246.019 237.683 246.894L234.339 248.177C232.729 246.622 232.006 245.207 232.169 243.931C232.336 242.635 233.465 241.586 235.555 240.784C237.436 240.062 239.339 239.902 241.264 240.304C243.207 240.699 244.802 241.499 246.05 242.704C246.667 243.3 247.109 243.891 247.375 244.477C247.645 245.044 247.736 245.625 247.647 246.22C247.558 246.816 247.434 247.307 247.275 247.694C247.115 248.081 246.86 248.587 246.508 249.211C245.524 250.893 245.141 252.145 245.359 252.966L253.614 249.797L255.869 251.975L243.016 256.908Z" fill="#3E4000"/>
<g opacity="0.6">
<path fill-rule="evenodd" clip-rule="evenodd" d="M332.009 186.553C339.131 187.369 339.862 183.772 333.497 182.292L332.861 182.163C331.58 181.925 330.293 181.735 329.006 181.592C327.668 181.452 326.355 181.395 325.041 181.339C321.929 181.264 318.867 181.392 315.9 181.719C315.349 181.726 314.865 181.88 314.555 182.149C314.244 182.417 314.132 182.777 314.242 183.149C314.353 183.522 314.678 183.876 315.146 184.134C315.614 184.393 316.186 184.534 316.736 184.527C319.671 184.755 322.569 185.371 325.587 185.8C327.577 186.126 329.569 186.373 331.564 186.541L332.009 186.553Z" fill="#3E4000"/>
<path fill-rule="evenodd" clip-rule="evenodd" d="M394.376 188.067C393.906 187.814 393.335 187.679 392.789 187.692C392.243 187.704 391.766 187.863 391.464 188.134C391.162 188.405 391.059 188.765 391.178 189.136C391.296 189.506 391.627 189.857 392.097 190.11C393.355 190.989 394.118 192.105 394.218 193.213C394.318 194.321 393.747 195.33 392.63 196.019C391.855 196.339 390.938 196.514 389.959 196.53C388.964 196.605 387.921 196.546 386.889 196.354C386.174 196.196 385.464 196.017 384.763 195.816C384.314 195.657 383.894 195.456 383.518 195.22C382.677 194.654 382.117 193.942 381.939 193.211C382.011 192.856 381.993 192.536 382.021 192.198C381.995 191.667 382.127 191.156 382.409 190.695C382.898 189.834 383.788 189.134 384.969 188.681C386.149 188.227 387.57 188.041 389.057 188.143C389.525 188.209 389.983 188.159 390.339 188.002C390.694 187.845 390.922 187.592 390.978 187.295C391.033 186.998 390.911 186.677 390.637 186.396C390.363 186.116 389.955 185.895 389.496 185.779C387.521 185.361 385.506 185.282 383.656 185.549C381.806 185.817 380.186 186.421 378.959 187.302C378.411 186.786 377.771 186.311 377.056 185.889C376.7 185.701 376.287 185.577 375.867 185.533C375.448 185.488 375.039 185.525 374.693 185.639C374.347 185.752 374.077 185.938 373.918 186.172C373.758 186.407 373.715 186.68 373.795 186.958C373.854 187.145 373.967 187.329 374.129 187.499C374.291 187.669 374.498 187.821 374.737 187.947C375.569 188.417 376.199 189.025 376.536 189.685C375.764 190.806 375.501 192.1 375.774 193.433C375.608 193.516 375.428 193.585 375.235 193.64C374.481 193.964 373.576 194.134 372.608 194.135C371.589 194.316 370.483 194.343 369.363 194.213C368.656 194.069 367.959 193.883 367.281 193.658C366.809 193.522 366.369 193.324 365.991 193.079C365.117 192.43 364.532 191.647 364.323 190.845C364.114 190.044 364.29 189.264 364.828 188.621C365.304 187.754 366.19 187.048 367.373 186.594C368.557 186.14 369.984 185.957 371.475 186.07C371.956 186.142 372.427 186.093 372.793 185.932C373.159 185.772 373.392 185.512 373.443 185.205C373.495 184.899 373.362 184.57 373.071 184.285C372.781 184 372.355 183.781 371.88 183.672C370.225 183.303 368.531 183.185 366.934 183.328C365.338 183.47 363.883 183.869 362.686 184.493C361.88 183.498 360.713 182.622 359.31 181.959C358.84 181.725 358.283 181.605 357.754 181.625C357.226 181.645 356.767 181.803 356.473 182.066C356.179 182.33 356.073 182.678 356.177 183.039C356.281 183.399 356.587 183.744 357.031 184.001C357.694 184.433 358.226 184.942 358.588 185.49C358.949 186.039 359.131 186.613 359.119 187.17C358.607 187.852 358.262 188.598 358.093 189.385C357.935 189.582 357.745 189.764 357.527 189.929C356.75 190.226 355.854 190.395 354.9 190.424C353.906 190.499 352.863 190.439 351.83 190.248C351.111 190.106 350.399 189.926 349.704 189.71C349.226 189.561 348.788 189.346 348.424 189.08C347.499 188.436 346.887 187.637 346.692 186.818C346.497 186 346.731 185.213 347.354 184.591C347.843 183.731 348.732 183.031 349.913 182.577C351.094 182.124 352.515 181.937 354.001 182.04C354.423 182.055 354.813 181.974 355.109 181.81C355.405 181.647 355.588 181.41 355.629 181.139C355.67 180.868 355.565 180.579 355.333 180.319C355.101 180.06 354.754 179.845 354.351 179.71C351.958 179.314 349.564 179.346 347.427 179.804C345.29 180.262 343.492 181.128 342.229 182.309C340.822 183.479 340.198 185.028 340.471 186.673C340.574 188.516 341.713 190.391 343.669 191.937C344.553 192.579 345.574 193.135 346.689 193.581C348.098 194.076 349.55 194.469 351.046 194.757C353.213 195.093 355.388 195.089 357.378 194.75C358.225 194.643 359.021 194.462 359.766 194.207C360.239 194.786 360.808 195.336 361.462 195.845C362.345 196.48 363.373 197.02 364.491 197.437C365.898 197.975 367.36 198.379 368.878 198.649C372.456 199.184 375.967 198.834 378.721 197.668C378.837 197.747 378.931 197.838 378.998 197.936C379.88 198.587 380.923 199.14 382.063 199.561C383.451 200.084 384.919 200.483 386.415 200.74C388.568 201.085 390.728 201.092 392.706 200.753C394.708 200.47 396.448 199.802 397.732 198.824C398.649 198.086 399.297 197.204 399.637 196.232C399.977 195.259 400.003 194.214 399.713 193.16C399.376 192.167 398.723 191.196 397.801 190.316C396.878 189.435 395.708 188.667 394.373 188.064" fill="#3E4000"/>
<path fill-rule="evenodd" clip-rule="evenodd" d="M350.04 152.513C350.746 152.366 351.472 152.259 352.217 152.191C356.285 151.937 355.466 148.842 352.113 148.634C350.48 148.569 348.885 148.663 347.378 148.911C344.108 149.539 341.146 150.581 338.636 151.986C336.261 153.072 333.653 153.948 330.863 154.596L318.995 155.556C316.179 155.709 313.459 156.052 310.836 156.586C310.657 156.672 310.514 156.785 310.416 156.918C310.319 157.051 310.268 157.202 310.267 157.36C310.266 157.518 310.316 157.681 310.412 157.837C310.509 157.994 310.651 158.142 310.829 158.27C311.117 158.508 311.506 158.686 311.927 158.771C312.349 158.857 312.776 158.846 313.135 158.74C313.135 158.74 313.881 158.733 314.583 158.744C318.475 158.745 327.192 159.228 332.747 159.198C335.109 159.267 337.375 159 339.407 158.416L343.682 155.701C345.495 154.405 347.639 153.33 350.045 152.511" fill="#3E4000"/>
<path fill-rule="evenodd" clip-rule="evenodd" d="M400.356 121.616C399.826 121.418 399.235 121.356 398.713 121.442C398.191 121.529 397.78 121.757 397.571 122.078L393.037 128.489C392.243 129.651 391.274 130.742 390.142 131.749C389.454 132.317 388.603 132.786 387.624 133.136C386.101 133.694 384.508 134.18 382.856 134.592C381.358 134.927 379.811 135.193 378.226 135.389C375.855 135.645 373.435 135.733 371.134 136.056C369.341 136.288 367.665 136.712 366.162 137.311C364.985 137.819 363.987 138.451 363.168 139.208C361.987 140.207 361.045 141.34 360.372 142.569C359.768 143.502 356.811 154.575 356.619 155.723C356.144 157.606 356.065 159.568 356.385 161.558C356.699 163.025 357.523 164.484 358.789 165.819C359.477 166.619 360.407 167.336 361.508 167.916C362.609 168.496 363.852 168.924 365.143 169.167C366.843 169.383 368.526 169.347 370.067 169.063C371.609 168.778 372.969 168.252 374.048 167.523C376.006 166.286 377.398 164.696 378.093 162.888C378.802 161.096 379.275 159.249 379.51 157.347C382.536 157.185 385.416 156.694 388.041 155.893C389.313 155.545 390.481 155.097 391.545 154.548C392.571 153.98 393.463 153.326 394.221 152.587C395.893 150.86 396.959 148.863 397.358 146.712C397.439 146.569 397.472 146.411 397.453 146.247C397.434 146.083 397.365 145.918 397.249 145.761C397.134 145.604 396.974 145.459 396.781 145.334C396.588 145.21 396.365 145.109 396.126 145.037C395.891 144.962 395.644 144.915 395.399 144.901C395.154 144.886 394.916 144.904 394.699 144.953C394.481 145.002 394.288 145.081 394.131 145.185C393.974 145.29 393.855 145.418 393.783 145.563C392.396 147.01 390.674 148.284 388.665 149.349L385.276 151.35C384.378 151.695 383.812 152.239 382.953 152.616C381.632 153.237 380.221 153.779 378.731 154.236C378.652 154.099 378.52 153.971 378.35 153.869C378.109 153.817 377.864 153.797 377.628 153.809C377.393 153.821 377.172 153.865 376.979 153.939C376.787 154.013 376.626 154.116 376.506 154.24C376.387 154.364 376.311 154.507 376.284 154.662C375.784 157.049 374.998 159.359 373.926 161.592C373.249 162.891 372.086 164.01 370.528 164.858C369.472 165.464 368.066 165.773 366.541 165.734C365.941 165.724 365.327 165.585 364.789 165.337C364.252 165.09 363.818 164.747 363.554 164.359C362.95 163.522 362.593 162.641 362.506 161.772C362.42 160.174 362.612 158.621 363.081 157.114C363.59 154.635 364.116 152.052 364.754 149.523C365.176 147.95 365.804 146.428 366.632 144.972C367.051 144.204 367.572 143.475 368.196 142.784C369.366 141.528 371.237 140.662 373.494 140.33C375.647 139.924 377.918 139.753 380.174 139.447C382.094 139.13 383.943 138.716 385.723 138.204C387.409 137.65 389.026 137.03 390.574 136.342C391.977 135.757 393.193 135.01 394.168 134.122C395.377 132.882 396.395 131.554 397.212 130.151L401.206 123.527C401.45 123.241 401.497 122.881 401.339 122.525C401.18 122.168 400.83 121.844 400.356 121.616Z" fill="#3E4000"/>
<path fill-rule="evenodd" clip-rule="evenodd" d="M411.378 164.674C410.497 164.195 409.577 163.753 408.625 163.349C405.677 162.217 402.607 161.282 399.47 160.563L390.442 158.33C389.983 158.219 389.509 158.22 389.112 158.333C388.715 158.445 388.423 158.661 388.295 158.939C388.166 159.216 388.21 159.535 388.417 159.832C388.625 160.129 388.981 160.384 389.416 160.546L397.878 163.929C400.485 164.871 403.003 165.929 405.431 167.102C406.847 167.735 408.145 168.498 409.278 169.361C410.025 169.891 410.619 170.501 411.022 171.151C411.424 171.801 411.625 172.476 411.612 173.131C411.537 173.907 411.144 174.619 410.488 175.197C410.293 175.096 410.091 175.002 409.883 174.916C407.848 174.236 405.768 173.645 403.659 173.148L391.55 170.184C391.285 170.095 391.006 170.04 390.728 170.02C390.45 170 390.178 170.017 389.929 170.069C389.426 170.175 389.045 170.418 388.868 170.746C388.692 171.074 388.735 171.459 388.988 171.818C389.241 172.176 389.684 172.478 390.219 172.656L401.859 177.108C403.635 177.672 405.386 178.292 407.112 178.969C408.011 179.312 408.853 179.72 409.637 180.194C410.282 180.481 410.804 180.886 411.122 181.346C411.44 181.806 411.536 182.297 411.396 182.742C411.161 183.383 410.646 183.935 409.908 184.336L409.597 184.035C408.335 183.459 407.004 182.967 405.63 182.568C403.548 182.013 401.546 181.474 399.444 181.02C397.342 180.566 395.364 180.111 393.294 179.742C392.817 179.613 392.314 179.606 391.895 179.723C391.476 179.84 391.175 180.072 391.055 180.368C390.947 180.674 391.033 181.018 391.295 181.327C391.556 181.636 391.973 181.886 392.457 182.025C394.007 182.551 395.431 183.079 396.925 183.673C398.419 184.267 401.203 185.44 403.327 186.4L406.934 188.186L407.136 189.23C407.207 189.707 407.129 190.171 406.908 190.594C406.687 191.016 406.327 191.387 405.85 191.685C404.987 192.316 403.735 192.664 402.339 192.659C402.065 192.644 401.798 192.666 401.555 192.723C401.312 192.779 401.098 192.869 400.923 192.988C400.749 193.107 400.619 193.252 400.54 193.416C400.461 193.579 400.435 193.757 400.464 193.939C400.523 194.314 400.802 194.684 401.239 194.971C401.677 195.257 402.238 195.437 402.802 195.47C405.21 195.847 407.584 195.635 409.466 194.874C411.223 194.247 412.575 193.261 413.361 192.032C414.147 190.803 414.334 189.383 413.899 187.941C413.692 187.56 413.436 187.191 413.13 186.835C414.757 186.322 416.076 185.51 416.96 184.478C417.711 183.42 417.899 182.171 417.497 180.903C417.095 179.636 416.123 178.412 414.714 177.4C416.135 176.531 417.111 175.383 417.545 174.072C417.849 172.986 417.804 171.83 417.413 170.673C417.023 169.516 416.294 168.381 415.271 167.336C414.119 166.364 412.813 165.469 411.383 164.672" fill="#3E4000"/>
<path fill-rule="evenodd" clip-rule="evenodd" d="M431.51 151.213C431.294 151.075 431.046 150.962 430.78 150.881C430.514 150.8 430.235 150.752 429.961 150.741C429.686 150.729 429.42 150.753 429.179 150.813C428.938 150.872 428.726 150.965 428.555 151.087C426.057 152.373 423.476 153.457 421.173 154.808C419.599 155.719 418.174 156.734 416.915 157.843C415.513 159.161 414.384 160.613 413.551 162.171C411.044 164.721 415.529 166.082 418.226 164.019L421.746 161.781L424.301 160.005L426.639 158.081C428.452 156.497 430.146 154.866 431.855 153.183C432.027 153.062 432.155 152.915 432.231 152.751C432.307 152.586 432.329 152.407 432.297 152.224C432.265 152.041 432.179 151.858 432.044 151.684C431.909 151.511 431.728 151.351 431.51 151.213Z" fill="#3E4000"/>
</g>
<defs>
<filter id="filter0_g_2306_842" x="0" y="16.3789" width="542.835" height="381.453" filterUnits="userSpaceOnUse" color-interpolation-filters="sRGB">
<feFlood flood-opacity="0" result="BackgroundImageFix"/>
<feBlend mode="normal" in="SourceGraphic" in2="BackgroundImageFix" result="shape"/>
<feTurbulence type="fractalNoise" baseFrequency="1.0006107091903687 1.0006107091903687" numOctaves="3" seed="9564" />
<feDisplacementMap in="shape" scale="100" xChannelSelector="R" yChannelSelector="G" result="displacedImage" width="100%" height="100%" />
<feMerge result="effect1_texture_2306_842">
<feMergeNode in="displacedImage"/>
</feMerge>
</filter>
<filter id="filter1_n_2306_842" x="37.1241" y="84.2207" width="400.577" height="227.391" filterUnits="userSpaceOnUse" color-interpolation-filters="sRGB">
<feFlood flood-opacity="0" result="BackgroundImageFix"/>
<feBlend mode="normal" in="SourceGraphic" in2="BackgroundImageFix" result="shape"/>
<feTurbulence type="fractalNoise" baseFrequency="1 1" stitchTiles="stitch" numOctaves="3" result="noise" seed="1706" />
<feColorMatrix in="noise" type="luminanceToAlpha" result="alphaNoise" />
<feComponentTransfer in="alphaNoise" result="coloredNoise1">
<feFuncA type="discrete" tableValues="1 1 1 1 1 1 1 1 1 1 1 1 1 1 1 1 1 1 1 1 1 1 1 1 1 1 1 1 1 1 1 1 1 1 1 1 1 1 1 1 1 1 1 1 1 1 1 1 1 1 1 0 0 0 0 0 0 0 0 0 0 0 0 0 0 0 0 0 0 0 0 0 0 0 0 0 0 0 0 0 0 0 0 0 0 0 0 0 0 0 0 0 0 0 0 0 0 0 0 0 "/>
</feComponentTransfer>
<feComposite operator="in" in2="shape" in="coloredNoise1" result="noise1Clipped" />
<feFlood flood-color="rgba(0, 0, 0, 0.05)" result="color1Flood" />
<feComposite operator="in" in2="noise1Clipped" in="color1Flood" result="color1" />
<feMerge result="effect1_noise_2306_842">
<feMergeNode in="shape" />
<feMergeNode in="color1" />
</feMerge>
</filter>
<filter id="filter2_n_2306_842" x="45.6385" y="92.7871" width="13.7782" height="41.4746" filterUnits="userSpaceOnUse" color-interpolation-filters="sRGB">
<feFlood flood-opacity="0" result="BackgroundImageFix"/>
<feBlend mode="normal" in="SourceGraphic" in2="BackgroundImageFix" result="shape"/>
<feTurbulence type="fractalNoise" baseFrequency="1 1" stitchTiles="stitch" numOctaves="3" result="noise" seed="1706" />
<feColorMatrix in="noise" type="luminanceToAlpha" result="alphaNoise" />
<feComponentTransfer in="alphaNoise" result="coloredNoise1">
<feFuncA type="discrete" tableValues="1 1 1 1 1 1 1 1 1 1 1 1 1 1 1 1 1 1 1 1 1 1 1 1 1 1 1 1 1 1 1 1 1 1 1 1 1 1 1 1 1 1 1 1 1 1 1 1 1 1 1 0 0 0 0 0 0 0 0 0 0 0 0 0 0 0 0 0 0 0 0 0 0 0 0 0 0 0 0 0 0 0 0 0 0 0 0 0 0 0 0 0 0 0 0 0 0 0 0 0 "/>
</feComponentTransfer>
<feComposite operator="in" in2="shape" in="coloredNoise1" result="noise1Clipped" />
<feFlood flood-color="rgba(0, 0, 0, 0.05)" result="color1Flood" />
<feComposite operator="in" in2="noise1Clipped" in="color1Flood" result="color1" />
<feMerge result="effect1_noise_2306_842">
<feMergeNode in="shape" />
<feMergeNode in="color1" />
</feMerge>
</filter>
<filter id="filter3_n_2306_842" x="236.073" y="179.645" width="263.731" height="122.811" filterUnits="userSpaceOnUse" color-interpolation-filters="sRGB">
<feFlood flood-opacity="0" result="BackgroundImageFix"/>
<feBlend mode="normal" in="SourceGraphic" in2="BackgroundImageFix" result="shape"/>
<feTurbulence type="fractalNoise" baseFrequency="1 1" stitchTiles="stitch" numOctaves="3" result="noise" seed="1706" />
<feColorMatrix in="noise" type="luminanceToAlpha" result="alphaNoise" />
<feComponentTransfer in="alphaNoise" result="coloredNoise1">
<feFuncA type="discrete" tableValues="1 1 1 1 1 1 1 1 1 1 1 1 1 1 1 1 1 1 1 1 1 1 1 1 1 1 1 1 1 1 1 1 1 1 1 1 1 1 1 1 1 1 1 1 1 1 1 1 1 1 1 0 0 0 0 0 0 0 0 0 0 0 0 0 0 0 0 0 0 0 0 0 0 0 0 0 0 0 0 0 0 0 0 0 0 0 0 0 0 0 0 0 0 0 0 0 0 0 0 0 "/>
</feComponentTransfer>
<feComposite operator="in" in2="shape" in="coloredNoise1" result="noise1Clipped" />
<feFlood flood-color="rgba(0, 0, 0, 0.05)" result="color1Flood" />
<feComposite operator="in" in2="noise1Clipped" in="color1Flood" result="color1" />
<feMerge result="effect1_noise_2306_842">
<feMergeNode in="shape" />
<feMergeNode in="color1" />
</feMerge>
</filter>
<filter id="filter4_n_2306_842" x="481.447" y="175.928" width="17.4861" height="34.5684" filterUnits="userSpaceOnUse" color-interpolation-filters="sRGB">
<feFlood flood-opacity="0" result="BackgroundImageFix"/>
<feBlend mode="normal" in="SourceGraphic" in2="BackgroundImageFix" result="shape"/>
<feTurbulence type="fractalNoise" baseFrequency="1 1" stitchTiles="stitch" numOctaves="3" result="noise" seed="1706" />
<feColorMatrix in="noise" type="luminanceToAlpha" result="alphaNoise" />
<feComponentTransfer in="alphaNoise" result="coloredNoise1">
<feFuncA type="discrete" tableValues="1 1 1 1 1 1 1 1 1 1 1 1 1 1 1 1 1 1 1 1 1 1 1 1 1 1 1 1 1 1 1 1 1 1 1 1 1 1 1 1 1 1 1 1 1 1 1 1 1 1 1 0 0 0 0 0 0 0 0 0 0 0 0 0 0 0 0 0 0 0 0 0 0 0 0 0 0 0 0 0 0 0 0 0 0 0 0 0 0 0 0 0 0 0 0 0 0 0 0 0 "/>
</feComponentTransfer>
<feComposite operator="in" in2="shape" in="coloredNoise1" result="noise1Clipped" />
<feFlood flood-color="rgba(0, 0, 0, 0.05)" result="color1Flood" />
<feComposite operator="in" in2="noise1Clipped" in="color1Flood" result="color1" />
<feMerge result="effect1_noise_2306_842">
<feMergeNode in="shape" />
<feMergeNode in="color1" />
</feMerge>
</filter>
<filter id="filter5_n_2306_842" x="224.315" y="272.676" width="28.4827" height="28.6699" filterUnits="userSpaceOnUse" color-interpolation-filters="sRGB">
<feFlood flood-opacity="0" result="BackgroundImageFix"/>
<feBlend mode="normal" in="SourceGraphic" in2="BackgroundImageFix" result="shape"/>
<feTurbulence type="fractalNoise" baseFrequency="1 1" stitchTiles="stitch" numOctaves="3" result="noise" seed="1706" />
<feColorMatrix in="noise" type="luminanceToAlpha" result="alphaNoise" />
<feComponentTransfer in="alphaNoise" result="coloredNoise1">
<feFuncA type="discrete" tableValues="1 1 1 1 1 1 1 1 1 1 1 1 1 1 1 1 1 1 1 1 1 1 1 1 1 1 1 1 1 1 1 1 1 1 1 1 1 1 1 1 1 1 1 1 1 1 1 1 1 1 1 0 0 0 0 0 0 0 0 0 0 0 0 0 0 0 0 0 0 0 0 0 0 0 0 0 0 0 0 0 0 0 0 0 0 0 0 0 0 0 0 0 0 0 0 0 0 0 0 0 "/>
</feComponentTransfer>
<feComposite operator="in" in2="shape" in="coloredNoise1" result="noise1Clipped" />
<feFlood flood-color="rgba(0, 0, 0, 0.05)" result="color1Flood" />
<feComposite operator="in" in2="noise1Clipped" in="color1Flood" result="color1" />
<feMerge result="effect1_noise_2306_842">
<feMergeNode in="shape" />
<feMergeNode in="color1" />
</feMerge>
</filter>
<filter id="filter6_n_2306_842" x="48.5216" y="1.56055" width="442.835" height="281.453" filterUnits="userSpaceOnUse" color-interpolation-filters="sRGB">
<feFlood flood-opacity="0" result="BackgroundImageFix"/>
<feBlend mode="normal" in="SourceGraphic" in2="BackgroundImageFix" result="shape"/>
<feTurbulence type="fractalNoise" baseFrequency="1 1" stitchTiles="stitch" numOctaves="3" result="noise" seed="1706" />
<feColorMatrix in="noise" type="luminanceToAlpha" result="alphaNoise" />
<feComponentTransfer in="alphaNoise" result="coloredNoise1">
<feFuncA type="discrete" tableValues="1 1 1 1 1 1 1 1 1 1 1 1 1 1 1 1 1 1 1 1 1 1 1 1 1 1 1 1 1 1 1 1 1 1 1 1 1 1 1 1 1 1 1 1 1 1 1 1 1 1 1 0 0 0 0 0 0 0 0 0 0 0 0 0 0 0 0 0 0 0 0 0 0 0 0 0 0 0 0 0 0 0 0 0 0 0 0 0 0 0 0 0 0 0 0 0 0 0 0 0 "/>
</feComponentTransfer>
<feComposite operator="in" in2="shape" in="coloredNoise1" result="noise1Clipped" />
<feFlood flood-color="rgba(0, 0, 0, 0.05)" result="color1Flood" />
<feComposite operator="in" in2="noise1Clipped" in="color1Flood" result="color1" />
<feMerge result="effect1_noise_2306_842">
<feMergeNode in="shape" />
<feMergeNode in="color1" />
</feMerge>
</filter>
<linearGradient id="paint0_linear_2306_842" x1="31.932" y1="99.7815" x2="345.241" y2="394.102" gradientUnits="userSpaceOnUse">
<stop stop-color="#FCFF32"/>
<stop offset="1" stop-color="#0A7FD2"/>
</linearGradient>
<linearGradient id="paint1_linear_2306_842" x1="44.2213" y1="98.5176" x2="58.8642" y2="98.169" gradientUnits="userSpaceOnUse">
<stop offset="0.263652" stop-color="#8BAE52"/>
<stop offset="1" stop-color="#EDF83C"/>
</linearGradient>
<linearGradient id="paint2_linear_2306_842" x1="229.312" y1="299.659" x2="644.058" y2="144.254" gradientUnits="userSpaceOnUse">
<stop stop-color="#FCFF32"/>
<stop offset="1" stop-color="#0A7FD2"/>
</linearGradient>
<linearGradient id="paint3_linear_2306_842" x1="483.292" y1="197.614" x2="493.223" y2="195.687" gradientUnits="userSpaceOnUse">
<stop stop-color="#69B193"/>
<stop offset="1" stop-color="#8BAE52"/>
</linearGradient>
<linearGradient id="paint4_linear_2306_842" x1="223.315" y1="278.672" x2="251.925" y2="276.398" gradientUnits="userSpaceOnUse">
<stop stop-color="#68B094"/>
<stop offset="0.501377" stop-color="#8BAE52"/>
<stop offset="1" stop-color="#EDF83C"/>
</linearGradient>
<linearGradient id="paint5_linear_2306_842" x1="43.9247" y1="99.2814" x2="499.76" y2="186.634" gradientUnits="userSpaceOnUse">
<stop stop-color="#0A7FD2"/>
<stop offset="1" stop-color="#FCFF32"/>
</linearGradient>
</defs>
</svg>
