<svg width="947" height="556" viewBox="0 0 947 556" fill="none" xmlns="http://www.w3.org/2000/svg">
<path d="M892.934 37.9551C892.934 37.9551 847.733 59.2099 825.438 69.5007C796.392 82.9074 782.757 88.3777 755.957 110.289C744.46 119.688 728.826 143.998 744.707 160.515C752.9 169.035 774.361 179.543 803.601 181.752C833.523 184.012 864.303 180.05 892.934 170.965C907.823 166.24 939.585 154.784 939.585 137.93C939.585 126.132 913.678 113.687 892.934 107.255C870.104 100.176 848.929 93.7866 807.571 95.1195C773.492 96.2178 747.685 97.4791 704.011 114.334C671.366 126.932 645.449 155.796 638.17 181.752C621.531 241.084 678.79 267.632 730.811 271.417C762.551 273.727 780.536 269.074 811.211 257.934C840.542 247.281 860.054 238.587 883.339 216.472C902.86 197.932 887.035 171.574 857.201 164.56C839.996 160.515 810.076 154.939 776.801 158.492C733.544 163.112 703.68 172.65 666.955 196.584C610.091 233.64 575.637 324.003 679.858 324.003C721.631 324.003 752.979 311.868 787.058 288.609C807.893 274.388 821.117 254.348 813.196 228.607C804.353 199.872 776.508 189.91 747.685 196.584C718.569 203.325 684.842 229.92 656.036 264.001C629.665 295.201 620.893 318.136 606.738 356.701C598.227 379.888 594.924 393.496 591.849 418.051C594.95 469.787 591.849 554.864 591.849 554.864" stroke="url(#paint0_linear_1087_8427)" stroke-width="14"/>
<path d="M1.30078 6.87695C1.30078 6.87695 184.161 41.4997 298.695 79.8223C377.218 106.096 467.031 161.172 514.569 223.974C557.88 281.193 578.502 339.733 588.132 393.75" stroke="url(#paint1_linear_1087_8427)" stroke-width="14"/>
<path d="M464.58 387.595C462.135 384.79 461.743 378.925 457.96 374.588C456.068 372.418 448.461 372.992 445.667 375.551C443.995 377.083 442.859 379.001 443.775 381.332C444.722 383.743 450.937 385.382 454.651 388.079C456.642 389.524 459.035 390.508 459.853 392.412C460.671 394.317 460.447 396.157 460.798 398.195C461.326 401.263 462.471 402.791 464.58 404.94C477.347 417.948 486.331 423.726 500.043 435.769C506.173 441.153 517.066 447.813 517.066 447.813L522.74 453.594L528.414 455.039L526.523 452.148V450.703L519.43 446.849C519.43 446.849 504.815 436.283 496.734 428.061C494.841 426.136 492.95 422.764 492.95 422.764C492.95 422.764 496.734 424.209 498.625 425.171C510.131 431.021 515.173 436.253 526.523 442.995C528.651 444.26 532.67 444.44 532.67 444.44C532.67 444.44 547.624 457.464 556.784 466.602C566.963 476.758 574.752 487.317 581.845 494.06C582.861 495.025 590.06 504.787 592.425 504.787H599.017C599.017 504.787 599.961 499.514 599.813 497.914C599.674 496.404 595.024 496.284 593.39 495.451C591.497 494.485 592.425 493.075 590.978 492.133C589.649 491.267 586.1 490.689 586.1 490.689C575.224 475.274 565.55 469.369 561.04 459.376C561.04 459.376 571.915 465.157 579.481 469.011C582.402 470.499 584.918 474.257 584.918 474.257H589.524L584.918 463.083C580.189 460.192 579.883 460.606 579.804 462.541V464.67C579.804 464.67 562.459 456.528 552.529 449.258C544.671 443.504 534.088 432.397 534.088 432.397L519.43 421.317C525.267 422.106 530.69 423.951 544.491 429.988C544.491 429.988 544.018 427.495 540.235 425.653C529.36 420.355 520.455 417.725 509.5 409.755C499.571 402.531 496.875 400.261 487.277 396.75C481.923 394.791 477.558 393.102 473.091 392.412C468.625 391.723 467.026 390.4 464.58 387.595Z" fill="#0DD466"/>
<path d="M594.344 345.906C599.48 345.906 601.621 350.09 601.621 350.961V359.676C601.621 360.722 600.295 361.553 599.694 362.465C599.093 363.377 599.053 364.756 599.909 365.254C600.765 365.752 607.399 366.997 612.108 371.006C617.712 375.778 617.458 382.417 617.458 388.436H616.601L607.177 390.886C607.177 390.886 608.118 410.453 608.004 422.997C607.879 436.838 606.756 448.815 606.322 458.398C605.656 473.08 601.842 496.821 598.583 504.548C598.384 505.019 596.085 504.675 595.711 504.548C594.603 504.171 594.093 503.598 593.344 502.685C592.918 502.166 592.729 501.829 592.421 501.229C591.66 499.748 591.076 498.432 591.357 497.089C591.666 495.609 594.664 495.663 595.159 497.089C595.494 498.051 594.655 501.019 594.655 501.019C594.655 501.019 597.185 470.997 596.568 456.635C596.124 446.31 593.935 430.307 593.935 430.307C593.935 430.307 591.91 442.924 590.996 451.059C589.942 460.435 589.978 474.755 589.093 475.146C587.621 475.798 586.364 475.841 584.956 475.146C583.714 474.534 583.138 473.633 582.108 471.97C580.472 469.33 579.662 467.89 579.082 464.911C578.836 463.649 579.584 462.283 580.688 462.053C582.134 461.751 583.312 462.309 584.377 463.663C585.512 465.108 585.779 466.431 585.779 466.431C585.779 466.431 583.066 456.13 582.108 450.48C580.226 439.39 580.258 423.374 580.258 423.374C580.256 423.374 580.239 423.374 580.207 423.375L581.278 390.58L572.088 388.436H571.232C571.232 382.417 570.978 375.778 576.583 371.006C581.291 366.997 587.925 365.752 588.782 365.254C589.637 364.755 589.596 363.377 588.995 362.465C588.394 361.553 587.07 360.722 587.07 359.676V350.961C587.07 350.09 589.208 345.906 594.344 345.906Z" fill="#024D81"/>
<path d="M615.017 409.483C615.322 407.139 616.603 388.438 616.603 388.438H606.93C606.93 388.438 608.596 406.267 608.743 408.435C608.89 410.602 607.899 415.183 607.899 415.183V419.682C607.899 419.682 614.604 412.66 615.017 409.483Z" fill="url(#paint2_linear_1087_8427)"/>
<g filter="url(#filter0_f_1087_8427)">
<path d="M580.004 431.523V427.258C580.004 427.258 578.725 416.261 577.504 408.617C576.282 400.974 575.336 393.617 575.336 393.617L582.68 393.117C582.68 393.117 582.01 412.277 582.68 427.258C582.723 428.221 583.235 430.489 583.503 432.469C583.548 432.797 583.53 432.958 583.22 433.061C582.94 433.154 582.701 432.918 582.541 432.716C582.381 432.513 582.184 432.025 581.912 431.523C581.765 431.252 580.864 431.31 580.968 431.894C581.073 432.477 581.776 436.824 581.857 437.09C582.001 437.559 581.246 437.474 581.004 437.117C580.594 436.512 580.004 431.523 580.004 431.523Z" fill="black" fill-opacity="0.4"/>
</g>
<path d="M577.479 431.682L577.666 426.569C577.666 426.569 575.516 415.595 574.294 407.951C573.073 400.308 572.039 388.43 572.039 388.43L581.372 388.739C581.372 388.739 580.967 411.588 581.637 426.569C581.68 427.531 582.514 430.158 582.782 432.138C582.826 432.466 582.808 432.627 582.499 432.73C582.218 432.823 581.98 432.587 581.82 432.385C581.66 432.182 581.463 431.694 581.19 431.192C581.043 430.921 580.344 430.848 580.448 431.431C580.553 432.015 581.555 437.243 581.637 437.509C581.781 437.978 580.371 437.968 580.129 437.611C579.719 437.006 577.479 431.682 577.479 431.682Z" fill="url(#paint3_linear_1087_8427)"/>
<defs>
<filter id="filter0_f_1087_8427" x="567.336" y="385.117" width="24.1854" height="60.2969" filterUnits="userSpaceOnUse" color-interpolation-filters="sRGB">
<feFlood flood-opacity="0" result="BackgroundImageFix"/>
<feBlend mode="normal" in="SourceGraphic" in2="BackgroundImageFix" result="shape"/>
<feGaussianBlur stdDeviation="4" result="effect1_foregroundBlur_1087_8427"/>
</filter>
<linearGradient id="paint0_linear_1087_8427" x1="901.666" y1="37.9572" x2="593.771" y2="535.1" gradientUnits="userSpaceOnUse">
<stop stop-color="#AEFE57"/>
<stop offset="1" stop-color="#09D367"/>
</linearGradient>
<linearGradient id="paint1_linear_1087_8427" x1="588.134" y1="417.302" x2="221.26" y2="97.4993" gradientUnits="userSpaceOnUse">
<stop stop-color="#FCFF32"/>
<stop offset="1" stop-color="#32FF92"/>
</linearGradient>
<linearGradient id="paint2_linear_1087_8427" x1="612.766" y1="388.872" x2="612.901" y2="425.625" gradientUnits="userSpaceOnUse">
<stop stop-color="#024D81"/>
<stop offset="1" stop-color="#32FF92"/>
</linearGradient>
<linearGradient id="paint3_linear_1087_8427" x1="578.504" y1="391.617" x2="581.504" y2="444.117" gradientUnits="userSpaceOnUse">
<stop stop-color="#024D81"/>
<stop offset="1" stop-color="#32FF92"/>
</linearGradient>
</defs>
</svg>
