<svg width="687" height="499" viewBox="0 0 687 499" fill="none" xmlns="http://www.w3.org/2000/svg">
<g filter="url(#filter0_f_2234_1035)">
<path d="M74.6255 382.499L25.6165 333.739L346.727 105.466L667.274 172.007L678.874 165.173L605.384 485.517L594.355 490.604L74.6255 382.499Z" fill="url(#paint0_linear_2234_1035)" fill-opacity="0.6"/>
</g>
<mask id="mask0_2234_1035" style="mask-type:alpha" maskUnits="userSpaceOnUse" x="0" y="55" width="347" height="332">
<path d="M214.558 264.716L0.0117188 298.743L25.6233 333.746L282.373 386.301C309.532 274.307 319.809 216.518 346.969 104.524L338.049 55.0967L214.558 264.716Z" fill="#D9D9D9"/>
</mask>
<g mask="url(#mask0_2234_1035)">
<g filter="url(#filter1_n_2234_1035)">
<path d="M24.097 342.285L286.054 401.275L320.406 255.031L16.9149 197.744L-6.43274 297.733L24.097 342.285Z" fill="url(#paint1_linear_2234_1035)"/>
</g>
<g filter="url(#filter2_n_2234_1035)">
<path d="M283.583 389.209L269.483 353.714L238.939 126.747L339.298 53.2207L348.815 105.771L283.583 389.209Z" fill="url(#paint2_linear_2234_1035)"/>
</g>
</g>
<g filter="url(#filter3_n_2234_1035)">
<path d="M338.152 55.1064L68.6007 0L0 298.755L269.574 353.849L338.152 55.1064Z" fill="url(#paint3_linear_2234_1035)"/>
</g>
<path d="M213.72 272.054C212.568 270.585 212.745 269.726 208.837 268.957C207.343 268.873 205.857 269.236 204.57 270.001C203.283 270.766 202.254 271.896 201.613 273.249C201.068 274.254 200.84 275.399 200.958 276.536C201.077 277.672 201.536 278.746 202.276 279.617C203.366 280.569 204.708 281.188 206.14 281.397C207.573 281.607 209.035 281.399 210.352 280.798C211.713 280.356 212.884 279.468 213.678 278.278C214.471 277.087 214.84 275.664 214.724 274.238C214.573 273.439 214.229 272.689 213.72 272.054ZM208.879 277.435C208.25 277.729 207.55 277.838 206.861 277.748C206.173 277.659 205.524 277.376 204.991 276.931C204.214 276.174 204.608 274.987 205.188 273.987C205.767 272.987 207.088 271.469 208.349 271.505C208.93 271.554 209.491 271.74 209.986 272.05C210.48 272.36 210.893 272.783 211.19 273.285C211.484 273.67 211.649 274.134 211.662 274.614C211.875 276.113 210.458 277.014 209.022 277.464L208.879 277.435ZM188.673 286.432C187.521 284.963 187.699 284.104 183.755 283.328C182.265 283.252 180.787 283.62 179.507 284.385C178.227 285.151 177.203 286.279 176.566 287.627C175.986 288.644 175.736 289.816 175.85 290.982C175.963 292.147 176.435 293.248 177.201 294.134C178.291 295.087 179.632 295.705 181.065 295.915C182.497 296.124 183.96 295.916 185.277 295.316C186.637 294.874 187.809 293.986 188.602 292.795C189.396 291.605 189.764 290.182 189.649 288.756C189.53 287.909 189.193 287.111 188.673 286.432ZM183.833 291.806C183.204 292.1 182.505 292.209 181.816 292.119C181.127 292.03 180.479 291.747 179.945 291.302C179.169 290.545 179.563 289.357 180.142 288.358C180.722 287.358 182.007 285.832 183.304 285.876C183.878 285.929 184.432 286.117 184.919 286.426C185.407 286.734 185.814 287.153 186.109 287.649C186.411 288.031 186.589 288.498 186.617 288.985C186.83 290.484 185.52 291.408 183.977 291.835L183.833 291.806ZM232.704 275.486C231.495 273.931 231.657 273.144 227.793 272.346C226.298 272.271 224.815 272.644 223.533 273.416C222.252 274.189 221.229 275.325 220.596 276.681C220.02 277.694 219.771 278.861 219.886 280.021C220.001 281.181 220.473 282.276 221.238 283.156C222.314 284.134 223.657 284.769 225.095 284.98C226.534 285.19 228.003 284.967 229.314 284.338C230.675 283.896 231.847 283.009 232.641 281.818C233.435 280.628 233.805 279.205 233.689 277.779C233.572 276.941 233.229 276.149 232.704 275.486ZM227.866 280.868C227.238 281.161 226.539 281.27 225.851 281.181C225.163 281.092 224.514 280.809 223.981 280.365C223.205 279.607 223.607 278.385 224.186 277.385C224.765 276.385 226.05 274.859 227.34 274.939C228.187 274.973 228.997 275.302 229.629 275.868C230.261 276.434 230.676 277.203 230.803 278.041C230.866 279.547 229.456 280.412 228.013 280.898L227.866 280.868ZM207.661 289.865C206.509 288.396 206.686 287.537 202.749 286.725C201.249 286.619 199.753 286.978 198.464 287.754C197.176 288.529 196.158 289.684 195.55 291.059C194.968 292.07 194.718 293.238 194.833 294.398C194.948 295.559 195.423 296.654 196.192 297.531C197.272 298.505 198.619 299.134 200.059 299.338C201.499 299.542 202.967 299.312 204.275 298.677C205.636 298.235 206.809 297.347 207.603 296.157C208.397 294.967 208.766 293.544 208.651 292.118C208.525 291.292 208.183 290.517 207.661 289.865ZM202.82 295.242C202.191 295.536 201.491 295.645 200.803 295.556C200.114 295.467 199.465 295.183 198.932 294.738C198.12 293.974 198.557 292.758 199.136 291.759C199.716 290.759 201.001 289.233 202.29 289.313C202.862 289.361 203.415 289.543 203.904 289.845C204.393 290.147 204.804 290.559 205.103 291.05C205.405 291.432 205.583 291.899 205.611 292.386C205.781 293.913 204.37 294.965 202.963 295.272L202.82 295.242ZM248.837 279.188C247.693 277.684 247.827 276.853 243.926 276.048C242.426 275.942 240.929 276.301 239.641 277.077C238.352 277.853 237.335 279.007 236.726 280.383C236.144 281.394 235.893 282.562 236.008 283.723C236.123 284.884 236.598 285.98 237.368 286.858C238.444 287.836 239.787 288.471 241.225 288.681C242.664 288.892 244.133 288.668 245.444 288.039C246.805 287.598 247.977 286.71 248.771 285.52C249.565 284.33 249.934 282.906 249.819 281.48C249.702 280.642 249.363 279.851 248.837 279.188ZM243.996 284.569C243.367 284.863 242.667 284.972 241.979 284.883C241.29 284.794 240.641 284.51 240.108 284.065C239.296 283.301 239.733 282.085 240.312 281.086C240.892 280.086 242.177 278.56 243.466 278.64C244.284 278.704 245.057 279.043 245.659 279.6C246.262 280.158 246.659 280.902 246.787 281.713C246.885 283.225 245.582 284.113 244.154 284.527L243.996 284.569ZM221.226 290.985C219.737 290.908 218.257 291.276 216.977 292.041C215.696 292.807 214.672 293.935 214.034 295.284C213.454 296.301 213.204 297.473 213.318 298.639C213.431 299.804 213.903 300.905 214.669 301.791C215.763 302.736 217.104 303.349 218.535 303.558C219.965 303.767 221.426 303.564 222.745 302.973C224.106 302.531 225.278 301.644 226.072 300.453C226.866 299.263 227.236 297.84 227.121 296.414C226.83 295.005 226.105 293.724 225.048 292.749C223.991 291.775 222.654 291.156 221.227 290.982M221.448 299.496C220.818 299.79 220.119 299.898 219.43 299.808C218.742 299.718 218.093 299.434 217.56 298.989C216.784 298.232 217.178 297.045 217.765 296.009C218.351 294.974 219.657 293.527 220.918 293.563C221.491 293.611 222.044 293.794 222.533 294.095C223.021 294.397 223.432 294.81 223.731 295.3C224.024 295.688 224.2 296.152 224.239 296.636C224.324 298.034 222.936 298.793 221.471 299.386L221.448 299.496ZM234.511 248.485C233.547 251.115 233.271 253.947 233.708 256.714C234.096 258.105 234.979 259.306 236.19 260.091C237.402 260.876 238.859 261.192 240.287 260.978C241.235 260.945 242.16 260.675 242.977 260.192C243.794 259.708 244.476 259.027 244.961 258.212C245.958 256.323 246.609 254.271 246.883 252.154L247.96 246.936C248.177 246.155 248.221 245.335 248.09 244.535C247.959 243.735 247.655 242.973 247.2 242.302C245.559 240.614 243.34 239.61 240.989 239.491C240.837 239.454 240.679 239.449 240.524 239.475C240.37 239.501 240.222 239.557 240.09 239.641C239.958 239.725 239.844 239.835 239.755 239.964C239.666 240.093 239.604 240.239 239.572 240.392C239.53 240.153 239.404 239.937 239.217 239.783C239.031 239.628 238.795 239.545 238.553 239.548C238.305 239.565 238.066 239.643 237.856 239.776C237.646 239.908 237.473 240.091 237.351 240.307C236.875 241.514 236.529 242.768 236.318 244.049L235.367 246.128C235.018 246.89 234.731 247.676 234.507 248.488M237.78 247.633C237.78 247.633 239.726 241.095 239.777 240.845C239.824 241.074 239.937 241.285 240.101 241.451C240.265 241.618 240.475 241.733 240.703 241.782C243.92 242.446 245.155 243.335 245.254 244.661C244.9 246.962 244.273 249.213 243.386 251.365C243.109 252.755 242.671 254.095 242.071 255.384C241.644 256.191 241.144 256.984 240.205 257.014C239.824 257.1 239.427 257.1 239.046 257.013C238.664 256.927 238.306 256.756 237.999 256.514C237.691 256.272 237.442 255.964 237.268 255.613C237.095 255.263 237.002 254.877 236.996 254.486C236.88 252.174 237.147 249.86 237.78 247.633Z" fill="#1B8EA5"/>
<path d="M208.945 242.058C208.872 242.416 209.048 242.825 210.414 243.257C212.418 243.67 213.144 244.491 215.87 245.203L224.849 247.056C227.318 247.565 228.865 247.661 231.404 247.998C232.585 248.242 233.988 246.144 232.494 245.425C229.797 244.756 228.032 243.907 225.276 243.339L218.126 241.863C215.915 241.401 213.677 241.076 211.425 240.891C209.903 240.689 209.02 241.514 208.945 242.058Z" fill="#1B8EA5"/>
<path d="M260.259 254.546C259.322 252.983 257.919 251.754 256.246 251.032C254.68 250.254 253.001 249.731 251.271 249.483C248.657 249.316 248.975 251.21 250.299 251.483C251.504 251.717 252.677 252.059 253.818 252.508C255.577 253.004 257.086 254.141 258.048 255.694C258.534 257.537 258.632 259.464 258.336 261.35C258.119 264.212 257.66 267.882 257.019 271.891C251.759 270.805 241.291 268.197 229.497 265.54L205.241 260.535C192.412 257.999 181.197 256.133 177.664 255.553C178.756 250.152 180.419 244.882 182.624 239.832C183.109 239.259 183.737 238.824 184.443 238.57C185.15 238.316 185.911 238.253 186.65 238.387C188.211 238.33 189.772 238.502 191.283 238.895C191.493 238.902 191.699 238.842 191.872 238.724C192.045 238.606 192.176 238.436 192.246 238.238C192.316 238.041 192.321 237.826 192.261 237.625C192.2 237.424 192.078 237.248 191.91 237.122C189.794 236.18 187.499 235.706 185.183 235.734C184.261 235.764 183.358 236.005 182.545 236.438C181.731 236.872 181.027 237.486 180.488 238.235C178.413 241.239 173.232 259.116 170.232 275.279C168.068 287.032 167.302 297.798 169.228 301.479C170.652 304.161 175.325 306.468 181.448 308.254C191.006 310.898 204.107 312.482 210.76 313.855C219.061 315.847 227.483 317.298 235.972 318.199C239.792 318.649 243.663 318.332 247.358 317.265C248.498 316.642 249.379 315.633 249.844 314.42C252.634 307.336 254.748 300.005 256.153 292.523C259.46 276.498 261.968 257.656 260.259 254.546ZM247.952 309.668C247.427 311.197 246.713 312.654 245.826 314.005C241.477 314.85 237.008 314.863 232.655 314.045C224.141 312.997 214.978 310.77 211.546 310.062C204.961 308.703 191.961 307.177 182.456 304.619C177.577 303.314 173.604 301.972 172.47 299.872C170.62 296.543 171.568 286.706 173.438 276.015C174.45 269.844 175.786 263.37 177.153 257.649C180.732 258.387 191.528 261.212 204.496 264.149L228.751 269.154C240.709 271.398 251.364 273.261 256.615 274.195C255.876 277.774 255.221 281.854 254.23 285.75C252.635 293.845 250.538 301.834 247.952 309.668Z" fill="#1B8EA5"/>
<path d="M194.168 240.052C193.305 242.861 192.988 245.81 193.234 248.738C193.621 250.13 194.505 251.332 195.717 252.117C196.929 252.903 198.387 253.218 199.816 253.003C200.77 252.981 201.704 252.716 202.528 252.233C203.352 251.75 204.04 251.066 204.526 250.244C205.553 248.344 206.206 246.263 206.463 244.115L207.539 238.897C207.751 238.115 207.793 237.297 207.662 236.498C207.531 235.698 207.23 234.936 206.779 234.263C205.148 232.561 202.931 231.543 200.576 231.416C200.263 231.351 199.937 231.414 199.67 231.59C199.403 231.765 199.216 232.04 199.152 232.353C199.109 232.114 198.984 231.898 198.797 231.744C198.61 231.589 198.375 231.506 198.132 231.509C197.885 231.526 197.645 231.604 197.436 231.737C197.226 231.869 197.052 232.052 196.931 232.268C196.42 233.388 196.017 234.554 195.727 235.751L194.942 237.566L194.75 238.497L194.168 240.052ZM197.317 239.619C197.317 239.619 199.255 233.117 199.314 232.831C199.35 233.068 199.456 233.288 199.621 233.462C199.785 233.636 199.999 233.755 200.233 233.804C203.454 234.468 204.688 235.357 204.787 236.684C204.422 238.984 203.782 241.232 202.883 243.38C202.597 244.768 202.159 246.108 201.569 247.399C201.184 248.178 200.685 248.97 199.746 249C199.364 249.086 198.968 249.086 198.586 249C198.205 248.913 197.847 248.743 197.539 248.501C197.232 248.259 196.982 247.951 196.809 247.6C196.635 247.249 196.542 246.864 196.537 246.473C196.414 244.161 196.678 241.845 197.317 239.619Z" fill="#1B8EA5"/>
<path d="M90.5083 60.1718L95.445 38.7888L110.006 41.8838L109.46 44.2464L97.6015 41.7257L96.0618 48.3948L105.939 50.4943L105.414 52.7672L95.5371 50.6677L93.2103 60.7462L90.5083 60.1718ZM108.105 63.9122L111.675 48.4505L114.107 48.9674L110.537 64.4291L108.105 63.9122ZM112.351 45.5197L113.042 42.5291L115.474 43.046L114.783 46.0366L112.351 45.5197ZM114.542 65.2804L119.479 43.8973L121.911 44.4142L116.974 65.7973L114.542 65.2804ZM121.065 66.6668L126.002 45.2838L128.433 45.8007L123.497 67.1837L121.065 66.6668ZM85.6677 96.9638L83.8032 80.3471L86.4152 80.9023L87.3629 91.3944L87.6311 94.8712L87.6911 94.884C88.366 93.6888 88.9571 92.6745 89.4645 91.8411L95.0016 82.7274L97.5234 83.2634L88.3697 97.5381L85.6677 96.9638ZM107.978 101.863C106.437 101.535 105.724 100.578 105.838 98.9922L105.808 98.9858C104.15 100.348 102.24 100.8 100.078 100.341C98.5369 100.013 97.3612 99.3761 96.5507 98.4299C95.7403 97.4838 95.4962 96.3129 95.8184 94.9173C95.9841 94.1995 96.2369 93.6048 96.5767 93.1333C96.9412 92.646 97.3404 92.2812 97.7743 92.0387C98.2128 91.7764 98.7699 91.5915 99.4456 91.4841C100.146 91.3611 100.8 91.3014 101.408 91.3052C102.021 91.289 102.794 91.3068 103.726 91.3587C104.325 91.4023 104.749 91.4297 104.999 91.4409C105.273 91.4364 105.621 91.4269 106.045 91.4123C106.473 91.3777 106.783 91.3077 106.975 91.2022C107.168 91.0966 107.361 90.9391 107.557 90.7297C107.752 90.5202 107.887 90.2559 107.96 89.9369C108.163 89.0597 108.007 88.3258 107.492 87.7354C107.002 87.1293 106.207 86.7092 105.106 86.4752C102.604 85.9434 101.051 86.8055 100.446 89.0613L98.1042 88.5636C98.5078 86.997 99.3405 85.8459 100.602 85.1101C101.884 84.3785 103.516 84.2234 105.497 84.6445C109.32 85.4571 110.854 87.4983 110.099 90.768L108.4 98.125C108.244 98.8029 108.244 99.3048 108.399 99.6307C108.575 99.9609 108.999 100.124 109.672 100.121L109.762 100.14L109.355 101.904C108.918 101.979 108.459 101.965 107.978 101.863ZM101.047 98.6012C102.548 98.9203 103.808 98.7384 104.826 98.0555C105.849 97.3527 106.48 96.4829 106.72 95.4461L107.327 92.8143C106.481 93.1155 105.213 93.2433 103.522 93.1978C102.894 93.1898 102.401 93.1895 102.042 93.1969C101.688 93.1844 101.27 93.2211 100.789 93.3069C100.311 93.3728 99.9397 93.4821 99.6735 93.6346C99.4073 93.7872 99.1551 94.016 98.9167 94.3209C98.6829 94.6058 98.5154 94.9676 98.4141 95.4063C98.0275 97.081 98.905 98.146 101.047 98.6012ZM118.267 104.332C116.005 103.851 114.363 102.687 113.341 100.838C112.339 98.9937 112.105 96.9151 112.639 94.6023C113.173 92.2895 114.3 90.5002 116.02 89.2344C117.76 87.9728 119.761 87.5824 122.023 88.0631C123.844 88.4503 125.223 89.2557 126.158 90.4794C127.098 91.6831 127.517 93.1422 127.415 94.8566L124.953 94.3333C125.017 93.2383 124.758 92.3152 124.175 91.5639C123.593 90.8126 122.721 90.3136 121.56 90.0669C119.959 89.7265 118.585 90.0409 117.437 91.0101C116.31 91.9836 115.541 93.3575 115.131 95.132C114.722 96.9064 114.814 98.4633 115.407 99.8026C116.026 101.126 117.135 101.958 118.736 102.299C119.977 102.562 121.044 102.444 121.937 101.943C122.834 101.423 123.473 100.565 123.853 99.3703L126.255 99.8809C125.667 101.701 124.673 103.006 123.273 103.796C121.877 104.566 120.208 104.745 118.267 104.332ZM140.345 108.743C138.804 108.415 138.091 107.458 138.205 105.872L138.175 105.866C136.516 107.228 134.606 107.68 132.445 107.22C130.904 106.893 129.728 106.256 128.917 105.31C128.107 104.364 127.863 103.193 128.185 101.797C128.351 101.079 128.604 100.485 128.943 100.013C129.308 99.5257 129.707 99.1609 130.141 98.9185C130.579 98.6561 131.137 98.4713 131.812 98.3639C132.513 98.2408 133.167 98.1812 133.775 98.1849C134.387 98.1687 135.16 98.1866 136.093 98.2385C136.692 98.2821 137.116 98.3095 137.365 98.3207C137.639 98.3162 137.988 98.3066 138.411 98.292C138.839 98.2575 139.15 98.1874 139.342 98.0819C139.534 97.9764 139.728 97.8189 139.923 97.6094C140.119 97.3999 140.253 97.1357 140.327 96.8167C140.529 95.9394 140.373 95.2056 139.859 94.6151C139.369 94.009 138.573 93.5889 137.473 93.355C134.971 92.8232 133.417 93.6852 132.813 95.9411L130.471 95.4433C130.874 93.8768 131.707 92.7256 132.969 91.9898C134.251 91.2583 135.882 91.1031 137.864 91.5243C141.687 92.3369 143.221 94.378 142.466 97.6478L140.767 105.005C140.611 105.683 140.61 106.185 140.766 106.51C140.942 106.841 141.366 107.004 142.039 107.001L142.129 107.02L141.721 108.784C141.284 108.859 140.825 108.845 140.345 108.743ZM133.413 105.481C134.914 105.8 136.174 105.618 137.193 104.935C138.216 104.232 138.847 103.363 139.086 102.326L139.694 99.6941C138.848 99.9952 137.579 100.123 135.889 100.078C135.261 100.07 134.768 100.069 134.409 100.077C134.055 100.064 133.637 100.101 133.155 100.187C132.678 100.253 132.306 100.362 132.04 100.514C131.774 100.667 131.522 100.896 131.283 101.201C131.05 101.486 130.882 101.847 130.781 102.286C130.394 103.961 131.272 105.026 133.413 105.481ZM150.097 94.4383L149.627 96.4719L149.687 96.4846C151.256 95.1449 153.082 94.6962 155.163 95.1387C156.805 95.4875 157.987 96.1885 158.709 97.2415C159.432 98.2945 159.609 99.6185 159.241 101.214L156.735 112.07L154.303 111.553L156.761 100.906C156.991 99.9091 156.858 99.0756 156.362 98.4054C155.87 97.7152 155.074 97.2532 153.973 97.0192C152.732 96.7554 151.62 96.9372 150.635 97.5645C149.65 98.1919 149.013 99.1336 148.723 100.39L146.527 109.9L144.095 109.383L147.665 93.9214L150.097 94.4383ZM167.096 114.711C164.834 114.23 163.192 113.066 162.17 111.217C161.168 109.372 160.934 107.294 161.468 104.981C162.002 102.668 163.129 100.879 164.849 99.6132C166.589 98.3516 168.59 97.9612 170.852 98.4419C172.673 98.8291 174.051 99.6345 174.987 100.858C175.926 102.062 176.346 103.521 176.244 105.235L173.782 104.712C173.846 103.617 173.586 102.694 173.004 101.943C172.421 101.191 171.55 100.692 170.389 100.446C168.788 100.105 167.413 100.42 166.266 101.389C165.138 102.362 164.369 103.736 163.96 105.511C163.55 107.285 163.642 108.842 164.236 110.181C164.854 111.505 165.964 112.337 167.565 112.677C168.806 112.941 169.873 112.823 170.765 112.322C171.662 111.802 172.301 110.944 172.682 109.749L175.084 110.26C174.496 112.08 173.501 113.385 172.101 114.175C170.706 114.945 169.037 115.124 167.096 114.711ZM176.726 116.319L180.296 100.857L182.727 101.374L179.158 116.836L176.726 116.319ZM180.972 97.9264L181.663 94.9357L184.094 95.4526L183.404 98.4433L180.972 97.9264ZM189.611 119.497C187.309 119.008 185.655 117.851 184.649 116.026C183.667 114.186 183.445 112.1 183.984 109.767C184.513 107.474 185.638 105.695 187.358 104.429C189.102 103.147 191.055 102.736 193.217 103.196C195.499 103.681 197.076 104.853 197.949 106.712C198.826 108.55 198.961 110.786 198.353 113.417L186.344 110.865C186.067 112.521 186.239 113.959 186.86 115.179C187.506 116.383 188.579 117.144 190.081 117.463C192.402 117.957 194.077 117.204 195.106 115.206L197.477 115.71C196.735 117.288 195.678 118.412 194.305 119.083C192.937 119.733 191.372 119.871 189.611 119.497ZM195.714 107.115C195.136 106.072 194.156 105.403 192.775 105.11C191.394 104.816 190.187 105.041 189.155 105.784C188.143 106.531 187.366 107.62 186.825 109.053L196.162 111.038C196.441 109.466 196.292 108.158 195.714 107.115ZM205.462 122.897C203.341 122.447 201.797 121.627 200.833 120.439C199.893 119.235 199.566 117.743 199.85 115.963L202.342 116.493C202.093 118.845 203.31 120.307 205.992 120.877C207.213 121.136 208.166 121.098 208.852 120.763C209.563 120.412 210.006 119.858 210.181 119.1C210.37 118.283 210.216 117.633 209.718 117.151C209.22 116.669 208.238 116.104 206.77 115.458C206.162 115.182 205.677 114.964 205.315 114.803C204.978 114.627 204.567 114.404 204.084 114.134C203.605 113.843 203.238 113.567 202.984 113.304C202.755 113.025 202.524 112.704 202.293 112.341C202.062 111.978 201.927 111.563 201.888 111.094C201.869 110.63 201.922 110.129 202.046 109.59C202.35 108.275 203.07 107.34 204.205 106.786C205.361 106.237 206.829 106.152 208.611 106.531C212.294 107.313 213.952 109.36 213.587 112.671L211.095 112.141C211.21 111.099 211.03 110.287 210.555 109.705C210.085 109.103 209.27 108.679 208.109 108.432C207.048 108.206 206.209 108.248 205.592 108.556C205 108.848 204.627 109.323 204.476 109.981C204.301 110.739 204.477 111.341 205.003 111.788C205.535 112.214 206.554 112.755 208.062 113.41C208.976 113.814 209.683 114.163 210.182 114.457C210.706 114.736 211.226 115.118 211.744 115.605C212.266 116.071 212.601 116.624 212.747 117.261C212.894 117.899 212.869 118.647 212.671 119.504C212.321 121.019 211.491 122.066 210.182 122.646C208.877 123.205 207.303 123.289 205.462 122.897ZM76.8942 132.92L75.5401 116.412L78.152 116.967L78.6815 127.088L78.7558 130.586L78.8158 130.599C79.4291 129.307 79.9401 128.275 80.349 127.505L85.1773 118.46L87.7292 119.002L88.0347 129.138L88.0327 132.558L88.0927 132.571C88.726 131.283 89.2717 130.238 89.7298 129.436L94.8144 120.508L97.3363 121.045L88.6929 135.428L86.2011 134.898L85.7803 124.988L85.7754 121.599L85.7153 121.586C85.1359 122.823 84.6272 123.844 84.1891 124.65L79.416 133.456L76.8942 132.92ZM96.1497 137.013L99.7193 121.551L102.151 122.068L98.5815 137.53L96.1497 137.013ZM100.396 118.62L101.086 115.63L103.518 116.146L102.828 119.137L100.396 118.62ZM104.62 124.663L105.076 122.69L107.327 123.168L108.453 118.293L110.884 118.81L109.759 123.685L112.761 124.323L112.306 126.297L109.303 125.659L106.983 135.707C106.762 136.664 107.172 137.254 108.213 137.475C108.653 137.568 109.1 137.59 109.552 137.54L109.643 137.559L109.159 139.652C108.466 139.652 107.8 139.583 107.159 139.447C104.878 138.962 103.967 137.723 104.427 135.729L106.871 125.142L104.62 124.663ZM119.672 119.58L117.835 127.535L117.895 127.548C119.464 126.208 121.29 125.759 123.371 126.202C125.012 126.551 126.194 127.252 126.917 128.305C127.64 129.358 127.817 130.682 127.449 132.277L124.943 143.133L122.511 142.616L124.969 131.969C125.199 130.972 125.066 130.139 124.57 129.469C124.078 128.778 123.282 128.316 122.181 128.082C120.94 127.819 119.827 128 118.843 128.628C117.858 129.255 117.221 130.197 116.931 131.453L114.735 140.963L112.303 140.446L117.24 119.063L119.672 119.58ZM128.765 143.945L132.335 128.484L134.766 129.001L131.197 144.462L128.765 143.945ZM133.011 125.553L133.702 122.562L136.134 123.079L135.443 126.07L133.011 125.553ZM141.113 130.35L140.644 132.383L140.704 132.396C142.273 131.056 144.098 130.608 146.18 131.05C147.821 131.399 149.003 132.1 149.726 133.153C150.449 134.206 150.626 135.53 150.258 137.125L147.751 147.981L145.32 147.464L147.778 136.817C148.008 135.82 147.875 134.987 147.378 134.317C146.887 133.627 146.091 133.165 144.99 132.931C143.749 132.667 142.636 132.849 141.651 133.476C140.667 134.103 140.029 135.045 139.739 136.301L137.544 145.811L135.112 145.294L138.682 129.833L141.113 130.35Z" fill="#FAFAFA"/>
<path d="M70.5089 169.854C68.5675 169.441 67.1643 168.38 66.2994 166.669C65.4392 164.938 65.2944 162.837 65.8652 160.365C66.4175 157.972 67.4768 156.158 69.0429 154.922C70.6337 153.671 72.3897 153.249 74.3112 153.657C76.2326 154.066 77.5088 155.132 78.1397 156.856L78.2297 156.875L80.0525 148.98L84.1356 149.847L79.1989 171.23L75.266 170.394L75.7286 168.391L75.6685 168.378C74.2903 169.8 72.5705 170.292 70.5089 169.854ZM72.1967 166.636C73.3976 166.891 74.4026 166.676 75.2118 165.991C76.041 165.309 76.6213 164.251 76.9527 162.815C77.7076 159.546 76.8942 157.658 74.5124 157.151C73.4116 156.917 72.4697 157.177 71.6867 157.931C70.9038 158.685 70.3443 159.79 70.0083 161.245C69.663 162.741 69.6763 163.956 70.048 164.893C70.4397 165.834 71.1559 166.415 72.1967 166.636ZM92.1507 173.983C92.0104 173.682 91.9815 173.079 92.0639 172.177L92.0039 172.164C91.4116 172.728 90.7338 173.118 89.9705 173.332C89.2071 173.546 88.215 173.523 86.9941 173.264C85.3729 172.919 84.1663 172.234 83.3743 171.208C82.5822 170.182 82.3589 168.922 82.7041 167.426C83.0631 165.871 83.8659 164.85 85.1124 164.362C86.3635 163.854 88.002 163.669 90.0279 163.806C91.515 163.913 92.5418 163.922 93.1082 163.834C93.6792 163.725 94.0269 163.401 94.1511 162.863C94.28 162.305 94.1611 161.819 93.7944 161.407C93.4324 160.974 92.831 160.669 91.9904 160.49C90.129 160.094 88.9726 160.601 88.5211 162.011L84.8884 161.239C85.2844 159.797 86.1533 158.716 87.4951 157.997C88.8369 157.278 90.5686 157.144 92.6901 157.595C97.0134 158.514 98.74 160.858 97.87 164.626L96.068 172.432C95.801 173.588 95.8177 174.334 96.1182 174.67L96.0836 174.819L92.1507 173.983ZM88.6407 170.633C89.7616 170.872 90.709 170.77 91.4829 170.328C92.2769 169.89 92.766 169.272 92.9501 168.475L93.4817 166.172C92.9816 166.337 91.9618 166.434 90.4225 166.463C89.2018 166.475 88.3121 166.6 87.7535 166.837C87.1995 167.054 86.8442 167.501 86.6877 168.179C86.3885 169.475 87.0395 170.293 88.6407 170.633ZM97.7631 180.447L98.5019 177.247L99.943 177.554C101.464 177.877 102.386 177.341 102.708 175.945C102.865 175.267 102.794 173.799 102.497 171.539L100.874 159.743L105.167 160.655L105.854 168.049L106.071 171.609L106.131 171.622C106.711 170.385 107.269 169.332 107.805 168.463L111.562 162.015L115.675 162.889L106.669 177.477C105.664 179.104 104.705 180.166 103.792 180.662C102.895 181.183 101.686 181.281 100.165 180.958L97.7631 180.447ZM120.111 180.397C117.909 179.929 116.299 179.085 115.279 177.864C114.263 176.623 113.889 175.153 114.155 173.453L117.938 174.257C117.807 176.007 118.732 177.092 120.714 177.513C121.614 177.705 122.342 177.692 122.896 177.475C123.47 177.263 123.819 176.887 123.943 176.349C123.989 176.149 123.991 175.961 123.947 175.785C123.924 175.613 123.836 175.448 123.684 175.29C123.556 175.116 123.431 174.975 123.309 174.865C123.208 174.76 123.006 174.633 122.704 174.485C122.402 174.338 122.166 174.225 121.995 174.146C121.844 174.072 121.565 173.961 121.159 173.812C120.777 173.647 120.511 173.528 120.36 173.454C119.556 173.116 118.902 172.809 118.399 172.535C117.92 172.245 117.427 171.879 116.92 171.436C116.418 170.974 116.081 170.432 115.91 169.81C115.763 169.172 115.782 168.454 115.966 167.657C116.334 166.062 117.195 164.969 118.549 164.378C119.924 163.792 121.531 163.694 123.373 164.086C125.354 164.507 126.8 165.295 127.709 166.451C128.642 167.59 129.008 168.965 128.804 170.574L125.111 169.789C125.296 168.26 124.478 167.301 122.657 166.914C121.836 166.74 121.151 166.751 120.602 166.948C120.072 167.149 119.746 167.519 119.621 168.057C119.58 168.237 119.571 168.413 119.594 168.585C119.642 168.741 119.732 168.897 119.865 169.05C120.022 169.188 120.171 169.314 120.313 169.428C120.459 169.522 120.673 169.64 120.955 169.784C121.241 169.908 121.488 170.023 121.694 170.129C121.905 170.216 122.192 170.34 122.553 170.5C122.92 170.641 123.209 170.755 123.42 170.841C124.028 171.117 124.518 171.357 124.891 171.562C125.288 171.751 125.727 172.032 126.208 172.406C126.693 172.761 127.049 173.129 127.275 173.512C127.527 173.879 127.7 174.355 127.796 174.94C127.916 175.51 127.896 176.143 127.735 176.841C127.385 178.356 126.506 179.435 125.098 180.077C123.715 180.703 122.052 180.81 120.111 180.397ZM127.785 186.766L128.124 185.301C129.735 184.869 130.725 183.856 131.093 182.261L128.902 181.795L129.903 177.459L134.286 178.39L133.34 182.488C133.009 183.923 132.319 185 131.271 185.719C130.239 186.461 129.077 186.81 127.785 186.766ZM149.458 170.07L148.975 172.163L149.065 172.182C150.513 170.733 152.227 170.219 154.209 170.64C155.79 170.976 156.946 171.787 157.679 173.072C158.415 174.337 158.588 175.817 158.197 177.512L155.884 187.53L151.801 186.662L153.976 177.242C154.169 176.405 154.085 175.676 153.725 175.055C153.384 174.439 152.793 174.042 151.953 173.863C151.052 173.671 150.226 173.841 149.473 174.371C148.741 174.906 148.255 175.691 148.016 176.728L146.007 185.431L141.924 184.563L145.466 169.221L149.458 170.07ZM172.519 189.121C170.663 190.337 168.555 190.694 166.193 190.192C163.831 189.69 162.077 188.512 160.93 186.658C159.788 184.784 159.484 182.69 160.018 180.377C160.552 178.065 161.747 176.3 163.602 175.084C165.462 173.848 167.573 173.481 169.935 173.983C172.297 174.485 174.049 175.673 175.191 177.547C176.338 179.402 176.644 181.485 176.11 183.798C175.576 186.111 174.379 187.885 172.519 189.121ZM166.911 187.082C168.132 187.341 169.186 187.095 170.074 186.342C170.986 185.574 171.617 184.432 171.967 182.917C172.317 181.402 172.247 180.111 171.759 179.045C171.29 177.983 170.445 177.323 169.224 177.063C167.983 176.8 166.916 177.054 166.024 177.826C165.137 178.579 164.516 179.723 164.161 181.258C163.811 182.773 163.871 184.062 164.34 185.124C164.813 186.165 165.67 186.818 166.911 187.082ZM178.568 179.081L179.189 176.389L181.321 176.842L182.425 172.057L186.418 172.906L185.314 177.691L187.956 178.253L187.334 180.944L184.692 180.383L182.814 188.517C182.579 189.534 182.972 190.151 183.993 190.368L185.201 190.593L184.511 193.584C183.881 193.492 183.026 193.331 181.945 193.101C180.764 192.85 179.838 192.36 179.166 191.632C178.499 190.884 178.317 189.852 178.621 188.536L180.699 179.534L178.568 179.081ZM56.525 204.232L60.067 188.89L63.9999 189.726L63.5235 191.789L63.6136 191.808C64.9763 190.362 66.6585 189.852 68.66 190.277C69.6207 190.481 70.4138 190.911 71.0393 191.567C71.6894 192.207 72.1102 192.977 72.3017 193.875L72.3618 193.888C73.8969 192.331 75.6452 191.762 77.6066 192.179C79.2078 192.519 80.336 193.271 80.9911 194.435C81.6708 195.584 81.8151 197.006 81.4238 198.7L79.0418 209.018L74.9587 208.15L77.182 198.52C77.587 196.766 76.999 195.72 75.4178 195.384C74.5571 195.201 73.8053 195.366 73.1622 195.877C72.5438 196.373 72.1172 197.13 71.8824 198.147L69.8249 207.059L65.7419 206.191L67.9651 196.561C68.3702 194.807 67.7821 193.761 66.2009 193.425C65.3803 193.251 64.6385 193.417 63.9754 193.925C63.3369 194.416 62.9003 195.171 62.6656 196.188L60.608 205.1L56.525 204.232ZM95.6814 210.61C93.8259 211.826 91.7172 212.183 89.3555 211.681C86.9937 211.179 85.2395 210.001 84.0928 208.146C82.9507 206.272 82.6467 204.179 83.1806 201.866C83.7145 199.553 84.9093 197.789 86.7648 196.573C88.625 195.337 90.7359 194.969 93.0977 195.472C95.4595 195.974 97.2114 197.162 98.3535 199.036C99.5001 200.89 99.8065 202.974 99.2726 205.286C98.7386 207.599 97.5416 209.374 95.6814 210.61ZM90.0735 208.571C91.2945 208.83 92.3487 208.584 93.2364 207.831C94.1486 207.063 94.7797 205.921 95.1295 204.406C95.4793 202.89 95.4098 201.6 94.9211 200.534C94.4523 199.472 93.6074 198.811 92.3865 198.552C91.1456 198.288 90.079 198.542 89.1868 199.315C88.2991 200.067 87.6781 201.211 87.3237 202.747C86.9739 204.262 87.0333 205.55 87.5021 206.612C87.9755 207.654 88.8326 208.307 90.0735 208.571ZM107.538 198.98L107.055 201.074L107.145 201.093C108.593 199.644 110.307 199.129 112.289 199.551C113.87 199.887 115.026 200.697 115.759 201.982C116.495 203.248 116.668 204.727 116.277 206.422L113.964 216.441L109.881 215.573L112.056 206.152C112.249 205.315 112.165 204.586 111.805 203.966C111.464 203.349 110.873 202.952 110.033 202.773C109.132 202.582 108.306 202.751 107.553 203.282C106.821 203.816 106.335 204.602 106.096 205.639L104.087 214.341L100.003 213.473L103.545 198.131L107.538 198.98ZM118.808 204.199L119.429 201.508L121.561 201.961L122.665 197.176L126.658 198.024L125.554 202.809L128.196 203.371L127.574 206.063L124.932 205.501L123.054 213.636C122.82 214.652 123.213 215.269 124.233 215.486L125.441 215.712L124.751 218.702C124.121 218.61 123.266 218.449 122.185 218.22C121.004 217.969 120.078 217.479 119.406 216.751C118.739 216.002 118.557 214.97 118.861 213.654L120.939 204.652L118.808 204.199ZM136.376 198.772L134.519 206.817L134.609 206.836C135.383 206.122 136.154 205.648 136.922 205.414C137.714 205.164 138.621 205.148 139.642 205.365C141.223 205.701 142.38 206.511 143.112 207.797C143.849 209.062 144.021 210.542 143.63 212.236L141.317 222.255L137.234 221.387L139.409 211.967C139.602 211.129 139.519 210.4 139.158 209.78C138.817 209.164 138.227 208.766 137.386 208.587C136.485 208.396 135.659 208.565 134.906 209.096C134.174 209.63 133.688 210.416 133.449 211.453L131.44 220.155L127.357 219.288L132.293 197.904L136.376 198.772ZM150.575 224.693C148.374 224.225 146.763 223.381 145.743 222.16C144.727 220.92 144.353 219.449 144.62 217.749L148.402 218.553C148.271 220.303 149.197 221.388 151.178 221.81C152.079 222.001 152.806 221.988 153.36 221.771C153.934 221.559 154.283 221.183 154.408 220.645C154.454 220.446 154.455 220.258 154.412 220.081C154.388 219.909 154.301 219.744 154.148 219.586C154.02 219.412 153.895 219.271 153.774 219.161C153.672 219.056 153.47 218.929 153.168 218.782C152.867 218.634 152.63 218.521 152.459 218.443C152.308 218.369 152.03 218.257 151.623 218.108C151.241 217.943 150.975 217.824 150.824 217.75C150.02 217.412 149.367 217.105 148.863 216.831C148.384 216.541 147.891 216.175 147.384 215.732C146.882 215.27 146.545 214.728 146.374 214.106C146.227 213.468 146.246 212.75 146.43 211.953C146.798 210.358 147.66 209.265 149.014 208.675C150.388 208.088 151.996 207.991 153.837 208.382C155.819 208.803 157.264 209.592 158.173 210.747C159.107 211.887 159.472 213.261 159.268 214.87L155.576 214.085C155.761 212.556 154.943 211.598 153.121 211.21C152.301 211.036 151.616 211.047 151.066 211.244C150.537 211.445 150.21 211.815 150.086 212.354C150.044 212.533 150.035 212.709 150.058 212.881C150.106 213.038 150.196 213.193 150.329 213.346C150.486 213.484 150.635 213.61 150.777 213.724C150.923 213.818 151.137 213.937 151.419 214.08C151.706 214.204 151.952 214.319 152.158 214.426C152.369 214.512 152.656 214.636 153.018 214.796C153.384 214.937 153.673 215.051 153.884 215.137C154.492 215.413 154.983 215.653 155.355 215.858C155.753 216.047 156.191 216.329 156.672 216.703C157.157 217.057 157.513 217.425 157.74 217.808C157.991 218.175 158.164 218.651 158.26 219.236C158.381 219.806 158.36 220.439 158.199 221.137C157.85 222.653 156.971 223.731 155.563 224.373C154.179 224.999 152.517 225.106 150.575 224.693ZM159.366 226.091L160.367 221.755L164.75 222.687L163.749 227.023L159.366 226.091Z" fill="#32EEFF"/>
<defs>
<filter id="filter0_f_2234_1035" x="17.6165" y="97.4658" width="669.258" height="401.138" filterUnits="userSpaceOnUse" color-interpolation-filters="sRGB">
<feFlood flood-opacity="0" result="BackgroundImageFix"/>
<feBlend mode="normal" in="SourceGraphic" in2="BackgroundImageFix" result="shape"/>
<feGaussianBlur stdDeviation="4" result="effect1_foregroundBlur_2234_1035"/>
</filter>
<filter id="filter1_n_2234_1035" x="-6.43274" y="197.744" width="326.839" height="203.531" filterUnits="userSpaceOnUse" color-interpolation-filters="sRGB">
<feFlood flood-opacity="0" result="BackgroundImageFix"/>
<feBlend mode="normal" in="SourceGraphic" in2="BackgroundImageFix" result="shape"/>
<feTurbulence type="fractalNoise" baseFrequency="1 1" stitchTiles="stitch" numOctaves="3" result="noise" seed="1706" />
<feColorMatrix in="noise" type="luminanceToAlpha" result="alphaNoise" />
<feComponentTransfer in="alphaNoise" result="coloredNoise1">
<feFuncA type="discrete" tableValues="1 1 1 1 1 1 1 1 1 1 1 1 1 1 1 1 1 1 1 1 1 1 1 1 1 1 1 1 1 1 1 1 1 1 1 1 1 1 1 1 1 1 1 1 1 1 1 1 1 1 1 0 0 0 0 0 0 0 0 0 0 0 0 0 0 0 0 0 0 0 0 0 0 0 0 0 0 0 0 0 0 0 0 0 0 0 0 0 0 0 0 0 0 0 0 0 0 0 0 0 "/>
</feComponentTransfer>
<feComposite operator="in" in2="shape" in="coloredNoise1" result="noise1Clipped" />
<feFlood flood-color="rgba(0, 0, 0, 0.05)" result="color1Flood" />
<feComposite operator="in" in2="noise1Clipped" in="color1Flood" result="color1" />
<feMerge result="effect1_noise_2234_1035">
<feMergeNode in="shape" />
<feMergeNode in="color1" />
</feMerge>
</filter>
<filter id="filter2_n_2234_1035" x="238.939" y="53.2207" width="109.876" height="335.988" filterUnits="userSpaceOnUse" color-interpolation-filters="sRGB">
<feFlood flood-opacity="0" result="BackgroundImageFix"/>
<feBlend mode="normal" in="SourceGraphic" in2="BackgroundImageFix" result="shape"/>
<feTurbulence type="fractalNoise" baseFrequency="1 1" stitchTiles="stitch" numOctaves="3" result="noise" seed="1706" />
<feColorMatrix in="noise" type="luminanceToAlpha" result="alphaNoise" />
<feComponentTransfer in="alphaNoise" result="coloredNoise1">
<feFuncA type="discrete" tableValues="1 1 1 1 1 1 1 1 1 1 1 1 1 1 1 1 1 1 1 1 1 1 1 1 1 1 1 1 1 1 1 1 1 1 1 1 1 1 1 1 1 1 1 1 1 1 1 1 1 1 1 0 0 0 0 0 0 0 0 0 0 0 0 0 0 0 0 0 0 0 0 0 0 0 0 0 0 0 0 0 0 0 0 0 0 0 0 0 0 0 0 0 0 0 0 0 0 0 0 0 "/>
</feComponentTransfer>
<feComposite operator="in" in2="shape" in="coloredNoise1" result="noise1Clipped" />
<feFlood flood-color="rgba(0, 0, 0, 0.05)" result="color1Flood" />
<feComposite operator="in" in2="noise1Clipped" in="color1Flood" result="color1" />
<feMerge result="effect1_noise_2234_1035">
<feMergeNode in="shape" />
<feMergeNode in="color1" />
</feMerge>
</filter>
<filter id="filter3_n_2234_1035" x="0" y="0" width="338.152" height="353.849" filterUnits="userSpaceOnUse" color-interpolation-filters="sRGB">
<feFlood flood-opacity="0" result="BackgroundImageFix"/>
<feBlend mode="normal" in="SourceGraphic" in2="BackgroundImageFix" result="shape"/>
<feTurbulence type="fractalNoise" baseFrequency="1 1" stitchTiles="stitch" numOctaves="3" result="noise" seed="1706" />
<feColorMatrix in="noise" type="luminanceToAlpha" result="alphaNoise" />
<feComponentTransfer in="alphaNoise" result="coloredNoise1">
<feFuncA type="discrete" tableValues="1 1 1 1 1 1 1 1 1 1 1 1 1 1 1 1 1 1 1 1 1 1 1 1 1 1 1 1 1 1 1 1 1 1 1 1 1 1 1 1 1 1 1 1 1 1 1 1 1 1 1 0 0 0 0 0 0 0 0 0 0 0 0 0 0 0 0 0 0 0 0 0 0 0 0 0 0 0 0 0 0 0 0 0 0 0 0 0 0 0 0 0 0 0 0 0 0 0 0 0 "/>
</feComponentTransfer>
<feComposite operator="in" in2="shape" in="coloredNoise1" result="noise1Clipped" />
<feFlood flood-color="rgba(0, 0, 0, 0.05)" result="color1Flood" />
<feComposite operator="in" in2="noise1Clipped" in="color1Flood" result="color1" />
<feMerge result="effect1_noise_2234_1035">
<feMergeNode in="shape" />
<feMergeNode in="color1" />
</feMerge>
</filter>
<linearGradient id="paint0_linear_2234_1035" x1="654.807" y1="298.035" x2="256.637" y2="217.145" gradientUnits="userSpaceOnUse">
<stop stop-color="#001524"/>
<stop offset="1" stop-color="#023F6E"/>
</linearGradient>
<linearGradient id="paint1_linear_2234_1035" x1="4.7538" y1="297.389" x2="287.534" y2="299.662" gradientUnits="userSpaceOnUse">
<stop stop-color="#0362A6"/>
<stop offset="1" stop-color="#32EEFF"/>
</linearGradient>
<linearGradient id="paint2_linear_2234_1035" x1="146.773" y1="313.689" x2="375.909" y2="124.511" gradientUnits="userSpaceOnUse">
<stop stop-color="#32EEFF"/>
<stop offset="1" stop-color="#0362A6"/>
</linearGradient>
<linearGradient id="paint3_linear_2234_1035" x1="0.131348" y1="191.819" x2="342.847" y2="191.819" gradientUnits="userSpaceOnUse">
<stop stop-color="#0A7FD2"/>
<stop offset="1" stop-color="#32EEFF"/>
</linearGradient>
</defs>
</svg>
