<svg width="846" height="529" viewBox="0 0 846 529" fill="none" xmlns="http://www.w3.org/2000/svg">
<g filter="url(#filter0_f_2307_1251)">
<path d="M74.6255 382.499L25.6165 333.739L346.727 105.466L826.385 201.553L837.984 194.718L765.026 515.333L753.998 520.42L74.6255 382.499Z" fill="#001524" fill-opacity="0.3"/>
</g>
<mask id="mask0_2307_1251" style="mask-type:alpha" maskUnits="userSpaceOnUse" x="0" y="55" width="347" height="332">
<path d="M214.558 264.716L0.0117188 298.743L25.6233 333.746L282.373 386.301C309.532 274.307 319.809 216.518 346.969 104.524L338.049 55.0967L214.558 264.716Z" fill="#D9D9D9"/>
</mask>
<g mask="url(#mask0_2307_1251)">
<g filter="url(#filter1_n_2307_1251)">
<path d="M24.097 342.286L286.054 401.276L320.406 255.032L16.9149 197.745L-6.43274 297.734L24.097 342.286Z" fill="url(#paint0_linear_2307_1251)"/>
</g>
<g filter="url(#filter2_n_2307_1251)">
<path d="M283.583 389.209L269.483 353.714L238.939 126.747L339.298 53.2207L348.815 105.771L283.583 389.209Z" fill="url(#paint1_linear_2307_1251)"/>
</g>
</g>
<g filter="url(#filter3_n_2307_1251)">
<path d="M338.152 55.1064L68.6007 0L0 298.755L269.574 353.849L338.152 55.1064Z" fill="url(#paint2_linear_2307_1251)"/>
</g>
<path fill-rule="evenodd" clip-rule="evenodd" d="M208.332 305.51C207.605 305.2 206.856 304.955 206.084 304.775C207.157 303.717 207.861 302.34 208.091 300.851C208.32 299.361 208.064 297.837 207.359 296.504C207.045 295.731 206.581 295.027 205.995 294.434C205.408 293.841 204.709 293.37 203.94 293.048C203.17 292.725 202.344 292.558 201.51 292.557C200.675 292.555 199.849 292.718 199.077 293.037C196.456 294.275 193.593 294.915 190.692 294.915C187.795 294.904 184.911 294.506 182.119 293.733C180.704 292.693 179.431 291.681 178.584 290.906L178.801 290.515C178.888 290.066 179.027 289.629 179.216 289.213C180.202 287.141 180.918 284.952 181.347 282.698C181.399 281.976 181.299 281.25 181.054 280.569C180.809 279.888 180.424 279.266 179.923 278.742C179.455 277.905 178.73 277.241 177.855 276.848C176.98 276.455 176.002 276.354 175.066 276.56C173.472 277.132 172.053 278.108 170.947 279.384C170.327 280.282 169.484 281.01 168.502 281.492C167.591 281.661 166.658 281.663 165.747 281.496C163.585 281.167 161.263 280.39 159.319 280.028C158.847 279.127 158.506 278.164 158.305 277.167C159.341 276.312 161.818 275.437 162.639 274.876L163.276 274.464C163.403 274.296 163.505 274.112 163.58 273.917C164.335 272.553 163.827 271.812 163.185 271.405C161.84 270.635 160.402 270.044 158.905 269.645C155.537 268.544 151.748 267.925 148.775 266.941C148.465 266.843 148.129 266.866 147.834 267.005C147.54 267.143 147.308 267.388 147.186 267.689C147.076 268 147.093 268.342 147.234 268.64C147.375 268.938 147.628 269.168 147.938 269.281C150.932 270.328 154.583 271.279 157.821 272.614L158.758 273.134C157.466 273.899 155.992 274.716 155.292 275.242C154.91 275.495 154.594 275.837 154.372 276.238C154.149 276.639 154.027 277.088 154.014 277.547C154.168 279.159 154.586 280.734 155.259 282.21C155.91 283.643 156.741 284.992 157.72 286.23C157.72 286.23 158.618 286.728 159.192 287.352L158.975 287.742C157.902 288.113 156.668 288.496 155.692 288.874C154.753 289.222 153.912 289.782 153.242 290.53C153.069 290.842 151.152 296.511 149.889 299.988C148.032 297.46 145.885 295.157 143.493 293.128C142.164 292.392 141.2 291.551 140.249 290.973C137.692 289.733 135.209 288.356 132.799 286.843C132.479 286.649 132.098 286.579 131.73 286.648C131.361 286.718 131.032 286.921 130.804 287.218C130.601 287.529 130.523 287.905 130.585 288.271C130.648 288.637 130.846 288.966 131.14 289.192C134.41 291.566 136.315 292.367 138.469 293.816C139.447 294.44 140.369 295.139 141.235 295.911C143.733 298.54 145.998 301.381 148.004 304.403C148.349 304.779 148.771 305.076 149.242 305.275C149.712 305.474 150.219 305.57 150.73 305.556C151.044 305.529 151.348 305.434 151.621 305.276C151.894 305.118 152.128 304.902 152.308 304.644C152.607 304.197 152.867 303.728 153.088 303.237C153.584 302.343 154.066 300.828 154.65 299.313C161.072 303.179 169.434 308.427 176.436 312.36C180.06 314.547 183.924 316.311 187.953 317.62C192.372 318.646 196.938 318.88 201.439 318.313C203.167 318.14 204.841 317.617 206.359 316.775C207.878 315.934 209.209 314.792 210.271 313.418C211.197 312.225 211.613 310.713 211.427 309.213C211.287 308.376 210.927 307.592 210.383 306.94C209.84 306.289 209.13 305.798 208.332 305.51ZM192.521 298.886C195.345 298.886 198.147 298.381 200.793 297.394C201.889 296.985 202.675 297.778 203.137 298.694C203.452 299.287 203.63 299.944 203.656 300.615C203.461 300.967 203.653 301.533 203.301 301.798C202.333 302.614 201.166 303.162 199.917 303.389C199.745 303.415 199.57 303.421 199.396 303.407L197.938 303.007C194.984 301.84 192.142 300.407 189.455 298.714C190.475 298.84 191.498 298.896 192.527 298.884M200.729 313.625C196.797 314.213 192.797 314.115 188.899 313.343C185.189 312.288 181.606 310.818 178.225 308.959C170.971 305.295 162.309 300.136 155.645 296.698C156.19 295.162 156.666 293.842 156.865 293.391C157.065 292.94 158.088 292.843 158.899 292.578C160.255 292.209 161.522 291.638 162.703 290.866C163.24 290.51 163.683 290.029 163.996 289.466C164.308 288.902 164.48 288.272 164.498 287.627C164.509 286.999 164.31 286.386 163.933 285.884C163.318 285.096 162.627 284.371 161.869 283.719C162.953 284.098 164.059 284.405 165.189 284.64C166.455 284.908 167.763 284.943 169.051 284.748C170.033 284.516 170.931 284.028 171.67 283.34C172.795 282.22 173.996 281.187 175.273 280.24C175.867 279.905 176.462 280.031 177.065 280.876C177.669 281.722 177.15 283.017 176.681 284.233C175.858 285.915 175.139 287.641 174.525 289.411C174.291 290.17 174.263 290.977 174.444 291.749C174.625 292.522 175.009 293.233 175.556 293.808C178.602 296.615 181.886 299.156 185.374 301.395C188.811 303.791 192.483 305.826 196.336 307.472C199.036 308.406 201.978 308.607 204.725 309.364C205.295 309.509 205.852 309.699 206.396 309.933L206.592 310.041L206.245 310.666C204.863 312.331 202.88 313.392 200.725 313.622M183.967 261.506C183.747 261.807 183.565 262.135 183.426 262.482L182.107 264.862C181.924 264.936 181.759 265.048 181.623 265.191C181.487 265.334 181.383 265.505 181.318 265.691C181.253 265.878 181.229 266.076 181.247 266.273C181.265 266.47 181.326 266.66 181.424 266.832C181.54 266.978 181.684 267.099 181.849 267.188C182.013 267.277 182.194 267.332 182.38 267.349C182.566 267.367 182.754 267.346 182.931 267.289C183.109 267.232 183.274 267.139 183.415 267.016C184.312 266.716 185.183 266.346 186.021 265.908C186.448 265.63 186.835 265.3 187.183 264.917C187.47 264.721 187.733 264.491 187.966 264.233C188.071 264.088 188.158 263.93 188.226 263.764C189.502 264.778 190.94 265.575 192.476 266.12C193.927 266.801 195.566 266.965 197.123 266.585C198.679 266.204 200.058 265.302 201.031 264.029C201.612 263.262 202.001 262.367 202.163 261.418C202.325 260.47 202.256 259.496 201.962 258.58C200.825 256.098 199.195 253.873 197.17 252.042C196.483 251.34 195.892 250.551 195.412 249.694C195.252 249.462 195.148 249.196 195.108 248.917C195.068 248.637 195.093 248.353 195.181 248.085C196.027 246.005 197.905 246.025 199.709 246.826C201.903 247.983 203.746 249.708 205.045 251.821C205.201 252.104 205.462 252.315 205.771 252.411C206.08 252.506 206.414 252.477 206.702 252.332C206.875 252.288 207.035 252.206 207.17 252.09C207.306 251.975 207.413 251.83 207.484 251.667C207.554 251.504 207.587 251.327 207.578 251.15C207.569 250.972 207.52 250.799 207.434 250.643C206.839 249.384 206.051 248.225 205.099 247.209C205.28 247.148 205.456 247.075 205.628 246.992C205.956 246.799 206.265 246.579 206.556 246.331C206.729 246.019 206.902 245.706 207.29 245.467C207.681 245.223 208.157 243.904 208.611 243.084C208.873 242.922 209.075 242.68 209.188 242.393C209.3 242.107 209.318 241.792 209.238 241.496C209.157 241.199 208.983 240.936 208.742 240.745C208.5 240.555 208.203 240.448 207.896 240.44C207.691 240.436 207.488 240.476 207.299 240.558C207.111 240.64 206.943 240.761 206.806 240.914C205.909 241.214 205.038 241.584 204.2 242.022C203.849 242.214 203.519 242.442 203.215 242.702C202.681 243.153 202.261 243.723 201.987 244.365C201.114 243.729 200.178 243.21 199.178 242.808C198.428 242.513 197.627 242.37 196.822 242.387C196.016 242.404 195.222 242.581 194.485 242.909C193.749 243.236 193.085 243.706 192.532 244.292C191.979 244.878 191.548 245.569 191.265 246.323C190.8 247.153 190.542 248.083 190.512 249.034C190.481 249.985 190.68 250.929 191.09 251.788C192.412 254.028 194.008 256.095 195.841 257.94C196.871 259.123 197.961 260.187 197.043 261.568C196.126 262.944 194.059 262.713 192.196 261.936C189.981 260.907 188.089 259.294 186.725 257.268C186.368 256.652 186.138 255.97 186.048 255.264C185.989 254.466 185.991 253.665 186.054 252.867C186.079 252.518 185.975 252.172 185.761 251.895C185.548 251.617 185.24 251.428 184.896 251.362C184.522 251.334 184.152 251.454 183.865 251.697C183.579 251.94 183.4 252.285 183.366 252.659C183.167 253.846 183.118 255.041 183.217 256.243C183.301 257.143 183.564 258.014 183.984 258.813C184.315 259.524 184.733 260.182 185.239 260.786C184.779 260.956 184.35 261.202 183.969 261.512" fill="#6F8E49"/>
<path fill-rule="evenodd" clip-rule="evenodd" d="M202.652 229.182C198.321 227.649 193.668 227.257 189.141 228.044C184.614 228.831 180.366 230.77 176.807 233.675C172.957 236.586 170.107 240.622 168.652 245.224C167.197 249.826 167.209 254.767 168.687 259.362C169.211 261.106 169.85 262.806 170.605 264.46C171.392 266.141 172.384 267.717 173.561 269.152C174.963 270.787 176.608 272.195 178.433 273.334C181.09 274.945 183.902 276.284 186.829 277.324C187.132 277.429 187.464 277.414 187.756 277.281C188.049 277.149 188.279 276.909 188.399 276.611C188.463 276.461 188.496 276.299 188.495 276.135C188.495 275.972 188.461 275.81 188.396 275.66C188.332 275.51 188.237 275.374 188.118 275.262C187.999 275.15 187.859 275.062 187.705 275.006C185.048 273.867 182.513 272.461 180.138 270.812C178.672 269.724 177.357 268.445 176.229 267.01C175.302 265.673 174.545 264.226 173.975 262.702C173.388 261.19 172.92 259.634 172.575 258.05C171.525 254.223 171.66 250.167 172.964 246.419C174.268 242.671 176.678 239.406 179.876 237.057C183.062 234.611 186.783 232.957 190.733 232.229C194.683 231.502 198.749 231.723 202.597 232.875C207.398 234.467 211.62 237.447 214.729 241.438C217.828 244.545 219.724 248.65 220.088 253.024C220.493 254.321 222.354 254.28 222.995 252.848C222.126 236.458 205.818 230.278 202.646 229.184M209.744 272.33C208.595 273.021 207.45 273.612 206.269 274.178C205.085 274.747 203.866 275.195 202.634 275.585C199.702 276.577 196.582 276.886 193.512 276.489C193.336 276.438 193.15 276.424 192.968 276.447C192.785 276.471 192.61 276.532 192.452 276.627C192.294 276.721 192.157 276.847 192.05 276.997C191.943 277.147 191.868 277.317 191.83 277.497C191.783 277.678 191.773 277.866 191.8 278.051C191.827 278.236 191.892 278.413 191.99 278.572C192.088 278.732 192.217 278.869 192.369 278.977C192.522 279.085 192.695 279.161 192.877 279.201C197.918 280.862 203.395 280.611 208.262 278.495C209.708 277.853 211.049 277.032 212.284 276.031C214.198 274.513 215.863 272.699 217.201 270.652L215.268 268.151C213.587 269.752 211.749 271.147 209.744 272.33Z" fill="#6F8E49"/>
<path fill-rule="evenodd" clip-rule="evenodd" d="M254.082 274.666C253.987 274.506 253.861 274.366 253.712 274.255C253.562 274.145 253.391 274.066 253.21 274.022C253.029 273.979 252.841 273.973 252.658 274.004C252.474 274.035 252.299 274.103 252.142 274.203C251.083 274.837 249.905 275.244 248.68 275.4C247.471 275.562 246.24 275.453 245.077 275.083C244.537 274.858 244.031 274.578 243.557 274.24C241.29 272.275 238.853 270.514 236.275 268.978C233.193 267.729 226.592 268.049 222.004 266.476C220.889 266.308 219.879 265.724 219.176 264.842C218.473 263.96 218.13 262.845 218.216 261.72C218.244 260.102 219.741 260.166 221.344 260.038C225.267 259.761 230.279 260.2 233.373 258.294C234.318 257.767 235.125 257.024 235.729 256.127C236.333 255.229 236.717 254.201 236.849 253.128C237.781 247.577 235.65 244.715 232.466 243.558C230.98 242.945 229.376 242.674 227.771 242.765C226.167 242.856 224.603 243.307 223.196 244.084C222.97 244.146 222.764 244.268 222.599 244.436C222.434 244.603 222.316 244.811 222.257 245.039C222.198 245.267 222.2 245.506 222.263 245.732C222.326 245.959 222.447 246.165 222.615 246.33C222.817 246.528 223.077 246.657 223.356 246.698C223.636 246.74 223.922 246.691 224.173 246.56C225.842 245.76 227.751 245.587 229.542 246.069C232.206 246.422 233.874 248.47 233.05 252.252C232.423 254.857 230.081 254.937 227.675 255.233C222.937 255.875 222.467 254.695 217.745 255.852C216.465 256.107 215.325 256.829 214.546 257.876C213.768 258.924 213.405 260.223 213.529 261.523C213.584 268.335 220.139 271.407 226.989 271.838C229.626 271.808 232.26 272.053 234.847 272.568C237.341 273.92 239.713 275.49 241.933 277.262C242.692 277.7 243.498 278.027 244.351 278.245C245.969 278.698 247.675 278.77 249.33 278.457C250.934 278.208 252.464 277.614 253.815 276.714C253.976 276.604 254.112 276.461 254.214 276.295C254.316 276.129 254.382 275.943 254.407 275.75C254.432 275.556 254.416 275.36 254.36 275.173C254.304 274.986 254.209 274.813 254.082 274.666Z" fill="#6F8E49"/>
<path fill-rule="evenodd" clip-rule="evenodd" d="M261.743 264.738L254.807 254.06C252.951 250.784 251.682 246.817 249.975 243.272C248.784 240.583 247.083 238.151 244.968 236.109C242.994 234.456 240.637 233.323 238.113 232.815C235.589 232.308 232.977 232.44 230.518 233.201C227.303 234.059 224.196 235.281 221.258 236.842C218.784 238.173 220.194 240.328 222.421 239.627C225.335 238.62 228.298 237.781 231.309 237.108C233.138 236.631 235.056 236.608 236.896 237.04C238.737 237.473 240.443 238.348 241.868 239.59C243.972 241.743 245.669 244.259 246.879 247.015C248.302 250.122 249.894 253.149 251.648 256.083L259.456 266.376C259.67 266.675 259.993 266.88 260.355 266.948C260.717 267.015 261.091 266.94 261.4 266.738C261.702 266.512 261.907 266.179 261.97 265.807C262.034 265.434 261.953 265.052 261.743 264.738Z" fill="#6F8E49"/>
<path d="M94.3986 62.8111L93.7811 40.2474L96.6032 40.8473L96.7852 55.4748L96.7604 59.2658L96.8204 59.2786C97.5105 57.8357 98.0938 56.6733 98.5703 55.7915L105.64 42.7681L108.552 43.3871L109.108 58.0314L109.13 61.895L109.19 61.9077C109.884 60.4449 110.443 59.2982 110.866 58.4677L117.649 45.3207L120.381 45.9014L109.47 66.0145L106.888 65.4657L106.435 49.5569L106.407 46.1312L106.347 46.1185C105.738 47.3905 105.217 48.4196 104.784 49.206L97.1006 63.3854L94.3986 62.8111ZM129.134 68.1863C127.414 69.4521 125.423 69.8447 123.161 69.364C120.899 68.8832 119.258 67.7185 118.236 65.8698C117.234 64.0254 117 61.9468 117.534 59.6341C118.068 57.3213 119.195 55.532 120.915 54.2662C122.655 53.0046 124.655 52.6141 126.917 53.0949C129.179 53.5756 130.811 54.7382 131.813 56.5826C132.815 58.427 133.049 60.5056 132.515 62.8184C131.981 65.1312 130.854 66.9205 129.134 68.1863ZM120.301 64.8344C120.92 66.158 122.029 66.99 123.631 67.3303C125.232 67.6707 126.594 67.3641 127.717 66.4106C128.845 65.4371 129.613 64.0632 130.023 62.2887C130.437 60.4944 130.335 58.9353 129.717 57.6117C129.123 56.2724 128.036 55.4347 126.455 55.0986C124.853 54.7583 123.479 55.0727 122.331 56.0419C121.204 57.0153 120.435 58.3893 120.025 60.1637C119.616 61.9382 119.708 63.495 120.301 64.8344ZM139.76 56.2327L139.167 58.8046L139.227 58.8174C139.916 58.1063 140.718 57.5866 141.634 57.2584C142.554 56.9102 143.505 56.8403 144.485 57.0487C144.846 57.1253 145.162 57.2553 145.435 57.4388L144.896 59.7715L144.806 59.7523C144.529 59.5888 144.18 59.4624 143.76 59.3731C142.519 59.1093 141.357 59.3224 140.274 60.0125C139.195 60.6826 138.495 61.7155 138.172 63.1111L136.191 71.6943L133.759 71.1774L137.329 55.7158L139.76 56.2327ZM154.858 75.6621L151.29 66.1504L148.511 67.8187L147.082 74.0093L144.65 73.4924L149.587 52.1093L152.019 52.6262L149.126 65.157L157.467 59.9963L160.559 60.6536L153.331 64.9526L157.71 76.2683L154.858 75.6621ZM177.473 80.626C175.932 80.2984 175.219 79.3415 175.333 77.7553L175.303 77.7489C173.645 79.1115 171.735 79.5631 169.573 79.1036C168.032 78.776 166.856 78.1392 166.046 77.193C165.235 76.2469 164.991 75.076 165.313 73.6803C165.479 72.9626 165.732 72.3679 166.072 71.8963C166.436 71.4091 166.835 71.0442 167.269 70.8018C167.708 70.5395 168.265 70.3546 168.941 70.2472C169.641 70.1242 170.295 70.0645 170.903 70.0683C171.516 70.0521 172.289 70.0699 173.221 70.1218C173.82 70.1654 174.244 70.1928 174.494 70.204C174.768 70.1995 175.116 70.1899 175.54 70.1753C175.968 70.1408 176.278 70.0708 176.47 69.9652C176.662 69.8597 176.856 69.7022 177.052 69.4927C177.247 69.2833 177.382 69.019 177.455 68.7C177.658 67.8228 177.502 67.0889 176.987 66.4985C176.497 65.8923 175.702 65.4723 174.601 65.2383C172.099 64.7065 170.546 65.5686 169.941 67.8244L167.599 67.3267C168.003 65.7601 168.835 64.6089 170.097 63.8732C171.379 63.1416 173.011 62.9865 174.992 63.4076C178.815 64.2202 180.349 66.2614 179.594 69.5311L177.895 76.8881C177.739 77.566 177.739 78.0679 177.894 78.3938C178.07 78.724 178.494 78.8874 179.167 78.8839L179.257 78.9031L178.85 80.6676C178.413 80.742 177.954 80.7281 177.473 80.626ZM170.542 77.3643C172.043 77.6834 173.302 77.5015 174.321 76.8186C175.344 76.1157 175.975 75.2459 176.215 74.2092L176.822 71.5774C175.976 71.8786 174.708 72.0064 173.017 71.9609C172.389 71.9529 171.896 71.9526 171.537 71.96C171.183 71.9475 170.765 71.9841 170.284 72.07C169.806 72.1359 169.435 72.2451 169.169 72.3977C168.902 72.5503 168.65 72.779 168.412 73.0839C168.178 73.3689 168.01 73.7307 167.909 74.1693C167.522 75.8441 168.4 76.9091 170.542 77.3643ZM183.054 67.5056L183.509 65.5318L185.761 66.0104L186.886 61.1356L189.318 61.6525L188.193 66.5273L191.195 67.1654L190.739 69.1393L187.737 68.5011L185.417 78.5497C185.196 79.5067 185.606 80.0958 186.647 80.317C187.087 80.4106 187.534 80.4323 187.986 80.3821L188.076 80.4012L187.593 82.4947C186.9 82.4938 186.234 82.4253 185.593 82.2892C183.312 81.8042 182.401 80.5648 182.861 78.5711L185.305 67.9842L183.054 67.5056ZM208.271 87.1722C206.73 86.8447 206.016 85.8878 206.131 84.3015L206.101 84.2951C204.442 85.6577 202.532 86.1093 200.371 85.6498C198.829 85.3223 197.654 84.6854 196.843 83.7392C196.033 82.7931 195.789 81.6222 196.111 80.2266C196.277 79.5088 196.529 78.9141 196.869 78.4426C197.234 77.9553 197.633 77.5905 198.067 77.348C198.505 77.0857 199.062 76.9008 199.738 76.7934C200.438 76.6704 201.093 76.6107 201.701 76.6145C202.313 76.5983 203.086 76.6161 204.019 76.668C204.618 76.7116 205.042 76.739 205.291 76.7502C205.565 76.7457 205.914 76.7362 206.337 76.7216C206.765 76.687 207.075 76.617 207.268 76.5115C207.46 76.4059 207.654 76.2484 207.849 76.039C208.045 75.8295 208.179 75.5652 208.253 75.2462C208.455 74.369 208.299 73.6351 207.785 73.0447C207.295 72.4386 206.499 72.0185 205.398 71.7845C202.897 71.2527 201.343 72.1148 200.738 74.3706L198.397 73.8729C198.8 72.3063 199.633 71.1552 200.895 70.4194C202.176 69.6878 203.808 69.5327 205.79 69.9538C209.612 70.7664 211.146 72.8076 210.391 76.0773L208.693 83.4343C208.536 84.1122 208.536 84.6141 208.692 84.94C208.868 85.2702 209.292 85.4336 209.964 85.4302L210.055 85.4493L209.647 87.2138C209.21 87.2882 208.751 87.2743 208.271 87.1722ZM201.339 83.9105C202.84 84.2296 204.1 84.0477 205.119 83.3648C206.142 82.662 206.773 81.7922 207.012 80.7554L207.62 78.1236C206.773 78.4248 205.505 78.5526 203.815 78.5071C203.187 78.4991 202.693 78.4988 202.335 78.5062C201.981 78.4937 201.563 78.5304 201.081 78.6162C200.604 78.6821 200.232 78.7914 199.966 78.9439C199.7 79.0965 199.448 79.3253 199.209 79.6302C198.975 79.9151 198.808 80.2769 198.707 80.7156C198.32 82.3903 199.197 83.4553 201.339 83.9105ZM87.533 99.6432C85.4114 99.1922 83.8684 98.3727 82.9038 97.1846C81.9639 95.9809 81.6364 94.489 81.9214 92.709L84.4133 93.2386C84.1641 95.591 85.3806 97.0522 88.0625 97.6223C89.2835 97.8818 90.2371 97.844 90.9234 97.5088C91.6343 97.1579 92.0772 96.6037 92.2521 95.846C92.4408 95.0286 92.2864 94.3788 91.7888 93.8965C91.2912 93.4142 90.3087 92.8498 88.8412 92.2032C88.2329 91.9275 87.7479 91.7094 87.386 91.5488C87.0488 91.3726 86.6384 91.1494 86.1548 90.8793C85.6758 90.5892 85.3092 90.3126 85.0551 90.0494C84.8255 89.7705 84.5951 89.4496 84.3639 89.0868C84.1327 88.7239 83.9977 88.3082 83.9589 87.8398C83.9401 87.3757 83.9928 86.8745 84.1171 86.3361C84.4209 85.0203 85.1406 84.0856 86.2762 83.5322C87.4319 82.983 88.9003 82.8977 90.6817 83.2764C94.3644 84.0592 96.0231 86.1059 95.6577 89.4166L93.1658 88.887C93.2805 87.8446 93.1005 87.0325 92.626 86.4506C92.156 85.8487 91.3406 85.4244 90.1797 85.1776C89.1189 84.9521 88.28 84.9934 87.663 85.3015C87.0705 85.5939 86.6984 86.0691 86.5465 86.727C86.3716 87.4847 86.5475 88.0868 87.0743 88.5334C87.6057 88.9601 88.6252 89.501 90.1327 90.1561C91.0474 90.5597 91.7542 90.9086 92.2532 91.2029C92.7768 91.4815 93.2974 91.8641 93.815 92.3506C94.3372 92.8172 94.6716 93.3693 94.8184 94.0071C94.9651 94.6448 94.9395 95.3924 94.7416 96.2497C94.3917 97.7649 93.562 98.8122 92.2525 99.3914C90.9475 99.9506 89.3744 100.035 87.533 99.6432ZM103.521 103.01C101.259 102.529 99.6174 101.365 98.5954 99.516C97.5934 97.6716 97.3594 95.593 97.8934 93.2802C98.4273 90.9675 99.5543 89.1782 101.274 87.9123C103.014 86.6508 105.015 86.2603 107.277 86.7411C109.098 87.1282 110.477 87.9336 111.412 89.1573C112.352 90.3611 112.771 91.8201 112.669 93.5345L110.207 93.0112C110.271 91.9163 110.012 90.9931 109.429 90.2418C108.847 89.4906 107.975 88.9915 106.814 88.7448C105.213 88.4045 103.839 88.7189 102.691 89.6881C101.564 90.6615 100.795 92.0355 100.385 93.8099C99.9756 95.5844 100.068 97.1412 100.661 98.4805C101.28 99.8042 102.389 100.636 103.99 100.977C105.231 101.24 106.298 101.122 107.191 100.621C108.088 100.101 108.727 99.2432 109.107 98.0483L111.509 98.5588C110.921 100.379 109.927 101.684 108.527 102.474C107.131 103.244 105.462 103.423 103.521 103.01ZM120.52 83.7517L118.683 91.7068L118.743 91.7196C120.312 90.3799 122.138 89.9312 124.219 90.3736C125.861 90.7225 127.043 91.4234 127.765 92.4764C128.488 93.5295 128.665 94.8535 128.297 96.4485L125.791 107.305L123.359 106.788L125.817 96.1409C126.047 95.144 125.914 94.3105 125.418 93.6403C124.926 92.9502 124.13 92.4881 123.029 92.2541C121.788 91.9904 120.676 92.1721 119.691 92.7995C118.706 93.4268 118.069 94.3685 117.779 95.6246L115.583 105.135L113.151 104.618L118.088 83.2348L120.52 83.7517ZM142.124 108.768C140.404 110.034 138.413 110.427 136.151 109.946C133.89 109.465 132.248 108.301 131.226 106.452C130.224 104.607 129.99 102.529 130.524 100.216C131.058 97.9033 132.185 96.114 133.905 94.8482C135.645 93.5866 137.646 93.1962 139.907 93.6769C142.169 94.1576 143.801 95.3202 144.803 97.1646C145.805 99.0091 146.039 101.088 145.505 103.4C144.971 105.713 143.844 107.502 142.124 108.768ZM133.292 105.416C133.91 106.74 135.02 107.572 136.621 107.912C138.222 108.253 139.584 107.946 140.707 106.993C141.835 106.019 142.604 104.645 143.013 102.871C143.427 101.076 143.325 99.5174 142.707 98.1937C142.113 96.8544 141.026 96.0167 139.445 95.6806C137.844 95.3403 136.469 95.6547 135.322 96.6239C134.194 97.5973 133.425 98.9713 133.016 100.746C132.606 102.52 132.698 104.077 133.292 105.416ZM159.26 112.411C157.54 113.677 155.549 114.069 153.288 113.588C151.026 113.108 149.384 111.943 148.362 110.094C147.36 108.25 147.126 106.171 147.66 103.858C148.194 101.546 149.321 99.7564 151.041 98.4906C152.781 97.229 154.782 96.8386 157.044 97.3193C159.305 97.8 160.937 98.9626 161.939 100.807C162.941 102.651 163.175 104.73 162.641 107.043C162.107 109.356 160.98 111.145 159.26 112.411ZM150.428 109.059C151.046 110.382 152.156 111.214 153.757 111.555C155.358 111.895 156.72 111.589 157.843 110.635C158.971 109.662 159.74 108.288 160.149 106.513C160.564 104.719 160.462 103.16 159.843 101.836C159.25 100.497 158.162 99.6591 156.581 99.323C154.98 98.9827 153.605 99.2971 152.458 100.266C151.33 101.24 150.562 102.614 150.152 104.388C149.742 106.163 149.834 107.719 150.428 109.059ZM163.976 115.421L168.912 94.0379L171.344 94.5548L166.407 115.938L163.976 115.421ZM177.911 104.233L178.367 102.26L180.618 102.738L181.744 97.8634L184.176 98.3803L183.05 103.255L186.052 103.893L185.597 105.867L182.594 105.229L180.275 115.277C180.054 116.234 180.464 116.824 181.504 117.045C181.945 117.138 182.391 117.16 182.844 117.11L182.934 117.129L182.45 119.222C181.758 119.222 181.091 119.153 180.451 119.017C178.169 118.532 177.258 117.293 177.718 115.299L180.163 104.712L177.911 104.233ZM192.963 99.15L191.126 107.105L191.186 107.118C192.755 105.778 194.581 105.329 196.662 105.772C198.304 106.121 199.486 106.822 200.208 107.875C200.931 108.928 201.108 110.252 200.74 111.847L198.234 122.703L195.802 122.186L198.26 111.539C198.49 110.542 198.357 109.709 197.861 109.039C197.369 108.348 196.573 107.886 195.472 107.652C194.231 107.389 193.119 107.57 192.134 108.198C191.149 108.825 190.512 109.767 190.222 111.023L188.026 120.533L185.594 120.016L190.531 98.6331L192.963 99.15ZM214.211 126.256C212.67 125.928 211.956 124.971 212.07 123.385L212.04 123.379C210.382 124.741 208.472 125.193 206.31 124.733C204.769 124.406 203.593 123.769 202.783 122.823C201.973 121.876 201.728 120.706 202.051 119.31C202.216 118.592 202.469 117.998 202.809 117.526C203.173 117.039 203.573 116.674 204.007 116.431C204.445 116.169 205.002 115.984 205.678 115.877C206.378 115.754 207.032 115.694 207.64 115.698C208.253 115.682 209.026 115.7 209.959 115.751C210.558 115.795 210.982 115.822 211.231 115.834C211.505 115.829 211.854 115.82 212.277 115.805C212.705 115.77 213.015 115.7 213.207 115.595C213.4 115.489 213.594 115.332 213.789 115.122C213.984 114.913 214.119 114.649 214.192 114.33C214.395 113.452 214.239 112.719 213.724 112.128C213.234 111.522 212.439 111.102 211.338 110.868C208.836 110.336 207.283 111.198 206.678 113.454L204.336 112.956C204.74 111.39 205.573 110.239 206.835 109.503C208.116 108.771 209.748 108.616 211.729 109.037C215.552 109.85 217.086 111.891 216.331 115.161L214.633 122.518C214.476 123.196 214.476 123.697 214.632 124.023C214.807 124.354 215.232 124.517 215.904 124.514L215.994 124.533L215.587 126.297C215.15 126.372 214.691 126.358 214.211 126.256ZM207.279 122.994C208.78 123.313 210.04 123.131 211.058 122.448C212.081 121.745 212.713 120.876 212.952 119.839L213.56 117.207C212.713 117.508 211.445 117.636 209.755 117.59C209.127 117.582 208.633 117.582 208.275 117.59C207.92 117.577 207.503 117.614 207.021 117.7C206.544 117.765 206.172 117.875 205.906 118.027C205.64 118.18 205.387 118.409 205.149 118.714C204.915 118.999 204.748 119.36 204.646 119.799C204.26 121.474 205.137 122.539 207.279 122.994ZM219.791 113.135L220.247 111.161L222.498 111.64L223.624 106.765L226.056 107.282L224.93 112.157L227.932 112.795L227.477 114.769L224.474 114.131L222.155 124.179C221.934 125.136 222.344 125.725 223.384 125.947C223.825 126.04 224.271 126.062 224.724 126.012L224.814 126.031L224.33 128.124C223.638 128.123 222.971 128.055 222.331 127.919C220.049 127.434 219.138 126.194 219.598 124.201L222.043 113.614L219.791 113.135ZM65.9066 175.582C64.9859 175.387 64.2807 175.122 63.7909 174.788L64.2881 172.634L64.4082 172.66C64.7578 172.964 65.2829 173.191 65.9834 173.34C66.5238 173.455 67.0064 173.411 67.4311 173.208C67.8512 173.026 68.2842 172.605 68.7301 171.947L69.6827 170.549L67.0842 154.247L69.7262 154.809L71.1657 165.217L71.5191 168.461L71.5792 168.474C72.2064 167.394 72.7791 166.46 73.2973 165.67L79.0631 156.794L81.6451 157.342L71.1505 172.65C70.2003 174.037 69.3451 174.922 68.5849 175.305C67.8201 175.707 66.9274 175.799 65.9066 175.582ZM92.6126 173.886C90.8926 175.152 88.9017 175.544 86.64 175.064C84.3783 174.583 82.7365 173.418 81.7145 171.57C80.7125 169.725 80.4785 167.647 81.0124 165.334C81.5464 163.021 82.6734 161.232 84.3934 159.966C86.1335 158.704 88.1343 158.314 90.396 158.795C92.6577 159.275 94.2895 160.438 95.2915 162.282C96.2935 164.127 96.5275 166.205 95.9936 168.518C95.4596 170.831 94.3327 172.62 92.6126 173.886ZM83.7803 170.534C84.3986 171.858 85.5083 172.69 87.1095 173.03C88.7107 173.37 90.0728 173.064 91.1958 172.11C92.3234 171.137 93.0921 169.763 93.5017 167.988C93.916 166.194 93.814 164.635 93.1957 163.311C92.602 161.972 91.5146 161.134 89.9334 160.798C88.3322 160.458 86.9578 160.772 85.8102 161.742C84.6826 162.715 83.914 164.089 83.5043 165.863C83.0946 167.638 83.1866 169.195 83.7803 170.534ZM109.547 179.493L107.115 178.977L107.605 176.853L107.545 176.84C105.943 178.236 104.19 178.731 102.289 178.327C100.688 177.987 99.5203 177.268 98.7868 176.171C98.0578 175.054 97.8774 173.698 98.2457 172.103L100.717 161.396L103.149 161.913L100.691 172.56C100.461 173.557 100.582 174.398 101.053 175.084C101.545 175.774 102.341 176.236 103.442 176.47C104.663 176.73 105.738 176.53 106.667 175.869C107.597 175.209 108.204 174.261 108.489 173.025L110.685 163.515L113.117 164.032L109.547 179.493ZM119.437 165.375L118.844 167.947L118.904 167.96C119.593 167.249 120.395 166.729 121.311 166.401C122.231 166.053 123.182 165.983 124.162 166.191C124.523 166.268 124.839 166.398 125.112 166.581L124.573 168.914L124.483 168.895C124.206 168.732 123.857 168.605 123.437 168.516C122.196 168.252 121.034 168.465 119.95 169.155C118.872 169.825 118.172 170.858 117.849 172.254L115.868 180.837L113.436 180.32L117.006 164.858L119.437 165.375ZM136.245 185.608C133.943 185.118 132.289 183.961 131.282 182.137C130.3 180.297 130.079 178.21 130.617 175.878C131.147 173.585 132.271 171.805 133.991 170.54C135.736 169.258 137.689 168.847 139.851 169.307C142.133 169.792 143.71 170.963 144.582 172.822C145.46 174.661 145.595 176.896 144.987 179.528L132.978 176.976C132.701 178.632 132.873 180.07 133.494 181.289C134.14 182.493 135.213 183.255 136.714 183.574C139.036 184.067 140.711 183.315 141.739 181.316L144.111 181.82C143.369 183.399 142.311 184.523 140.939 185.193C139.571 185.844 138.006 185.982 136.245 185.608ZM142.348 173.226C141.769 172.182 140.79 171.514 139.409 171.221C138.028 170.927 136.821 171.152 135.789 171.894C134.777 172.641 134 173.731 133.459 175.164L142.796 177.149C143.075 175.576 142.926 174.269 142.348 173.226ZM148.145 173.548L148.601 171.574L150.732 172.027L151.264 169.725C151.559 168.449 152.121 167.606 152.95 167.197C153.784 166.767 154.871 166.695 156.212 166.98C156.553 167.052 156.938 167.155 157.37 167.289L156.893 169.352C156.658 169.281 156.41 169.218 156.149 169.163C155.369 168.997 154.791 169 154.415 169.171C154.06 169.346 153.811 169.743 153.668 170.361L153.164 172.544L158.118 173.597L158.691 171.115C158.985 169.839 159.547 168.996 160.377 168.587C161.211 168.158 162.298 168.085 163.639 168.371C164.02 168.451 164.425 168.559 164.857 168.692L164.38 170.756C164.104 170.676 163.847 170.611 163.606 170.56C162.826 170.394 162.248 170.396 161.872 170.568C161.497 170.739 161.238 171.133 161.095 171.751L160.55 174.114L163.432 174.727L162.976 176.701L160.094 176.088L156.98 189.576L154.548 189.059L157.662 175.571L152.708 174.518L149.595 188.006L147.163 187.489L150.277 174.001L148.145 173.548ZM174.907 191.378C173.187 192.644 171.196 193.037 168.934 192.556C166.672 192.075 165.031 190.91 164.009 189.062C163.007 187.217 162.773 185.139 163.306 182.826C163.84 180.513 164.967 178.724 166.687 177.458C168.428 176.196 170.428 175.806 172.69 176.287C174.952 176.767 176.584 177.93 177.586 179.774C178.588 181.619 178.822 183.697 178.288 186.01C177.754 188.323 176.627 190.112 174.907 191.378ZM166.074 188.026C166.693 189.35 167.802 190.182 169.404 190.522C171.005 190.863 172.367 190.556 173.49 189.602C174.617 188.629 175.386 187.255 175.796 185.481C176.21 183.686 176.108 182.127 175.49 180.804C174.896 179.464 173.809 178.627 172.227 178.29C170.626 177.95 169.252 178.265 168.104 179.234C166.977 180.207 166.208 181.581 165.798 183.356C165.389 185.13 165.481 186.687 166.074 188.026ZM185.533 179.425L184.94 181.996L185 182.009C185.689 181.298 186.491 180.778 187.407 180.45C188.327 180.102 189.278 180.032 190.258 180.241C190.619 180.317 190.935 180.447 191.208 180.631L190.669 182.963L190.579 182.944C190.302 182.781 189.953 182.654 189.533 182.565C188.292 182.301 187.13 182.514 186.047 183.204C184.968 183.874 184.268 184.907 183.945 186.303L181.964 194.886L179.532 194.369L183.102 178.908L185.533 179.425ZM192.546 182.986L193.002 181.012L195.254 181.491L196.379 176.616L198.811 177.133L197.686 182.008L200.688 182.646L200.232 184.62L197.23 183.981L194.91 194.03C194.689 194.987 195.099 195.576 196.14 195.797C196.58 195.891 197.027 195.913 197.479 195.862L197.569 195.881L197.086 197.975C196.393 197.974 195.727 197.906 195.086 197.769C192.804 197.284 191.894 196.045 192.354 194.051L194.798 183.464L192.546 182.986ZM217.764 202.653C216.223 202.325 215.509 201.368 215.623 199.782L215.593 199.775C213.935 201.138 212.025 201.59 209.863 201.13C208.322 200.803 207.146 200.166 206.336 199.22C205.526 198.273 205.282 197.102 205.604 195.707C205.769 194.989 206.022 194.394 206.362 193.923C206.727 193.436 207.126 193.071 207.56 192.828C207.998 192.566 208.555 192.381 209.231 192.274C209.931 192.151 210.585 192.091 211.193 192.095C211.806 192.079 212.579 192.096 213.512 192.148C214.111 192.192 214.535 192.219 214.784 192.231C215.058 192.226 215.407 192.216 215.83 192.202C216.258 192.167 216.568 192.097 216.76 191.992C216.953 191.886 217.147 191.729 217.342 191.519C217.537 191.31 217.672 191.046 217.745 190.727C217.948 189.849 217.792 189.115 217.277 188.525C216.787 187.919 215.992 187.499 214.891 187.265C212.389 186.733 210.836 187.595 210.231 189.851L207.889 189.353C208.293 187.787 209.126 186.635 210.388 185.9C211.669 185.168 213.301 185.013 215.282 185.434C219.105 186.247 220.639 188.288 219.884 191.558L218.186 198.915C218.029 199.592 218.029 200.094 218.185 200.42C218.36 200.75 218.785 200.914 219.457 200.91L219.547 200.93L219.14 202.694C218.703 202.768 218.244 202.755 217.764 202.653ZM210.832 199.391C212.333 199.71 213.593 199.528 214.611 198.845C215.635 198.142 216.266 197.272 216.505 196.236L217.113 193.604C216.266 193.905 214.998 194.033 213.308 193.987C212.68 193.979 212.186 193.979 211.828 193.986C211.474 193.974 211.056 194.011 210.574 194.096C210.097 194.162 209.725 194.272 209.459 194.424C209.193 194.577 208.94 194.806 208.702 195.11C208.468 195.395 208.301 195.757 208.199 196.196C207.813 197.871 208.69 198.936 210.832 199.391ZM227.515 188.348L227.046 190.382L227.106 190.394C228.675 189.055 230.5 188.606 232.582 189.049C234.223 189.397 235.405 190.098 236.128 191.151C236.851 192.204 237.028 193.528 236.66 195.123L234.153 205.979L231.722 205.462L234.18 194.816C234.41 193.819 234.277 192.985 233.781 192.315C233.289 191.625 232.493 191.163 231.392 190.929C230.151 190.665 229.038 190.847 228.053 191.474C227.069 192.102 226.431 193.043 226.141 194.299L223.946 203.81L221.514 203.293L225.084 187.831L227.515 188.348ZM243.877 208.517C241.755 208.066 240.242 206.981 239.337 205.262C238.457 203.527 238.304 201.413 238.88 198.921C239.46 196.409 240.558 194.561 242.175 193.378C243.792 192.195 245.591 191.814 247.573 192.235C249.674 192.682 251.1 193.874 251.85 195.811L251.91 195.824L253.781 187.719L256.212 188.236L251.276 209.619L248.844 209.102L249.279 207.218L249.219 207.205C247.639 208.501 245.858 208.938 243.877 208.517ZM244.436 206.502C246.098 206.855 247.455 206.569 248.509 205.642C249.583 204.72 250.334 203.332 250.762 201.478C251.185 199.644 251.085 198.075 250.462 196.771C249.86 195.471 248.778 194.656 247.216 194.324C245.795 194.022 244.563 194.356 243.52 195.327C242.502 196.282 241.783 197.666 241.365 199.48C240.946 201.295 240.988 202.841 241.491 204.119C242.013 205.402 242.995 206.196 244.436 206.502ZM58.9058 192.401L59.3615 190.427L61.6132 190.905L62.7386 186.031L65.1704 186.547L64.045 191.422L67.0472 192.06L66.5915 194.034L63.5893 193.396L61.2694 203.445C61.0484 204.402 61.4584 204.991 62.4991 205.212C62.9395 205.306 63.3859 205.327 63.8384 205.277L63.9285 205.296L63.4452 207.39C62.7525 207.389 62.0859 207.32 61.4454 207.184C59.1637 206.699 58.253 205.46 58.7133 203.466L61.1575 192.879L58.9058 192.401ZM78.7437 210.924C77.2025 210.596 76.4891 209.639 76.6033 208.053L76.5733 208.047C74.9149 209.409 73.0049 209.861 70.8433 209.401C69.3022 209.074 68.1264 208.437 67.316 207.491C66.5055 206.545 66.2614 205.374 66.5836 203.978C66.7493 203.26 67.0021 202.666 67.342 202.194C67.7064 201.707 68.1056 201.342 68.5395 201.1C68.978 200.837 69.5352 200.652 70.2108 200.545C70.9112 200.422 71.5653 200.362 72.1734 200.366C72.786 200.35 73.5588 200.368 74.4917 200.42C75.0906 200.463 75.5147 200.491 75.7641 200.502C76.0381 200.497 76.3867 200.488 76.81 200.473C77.2379 200.439 77.5481 200.368 77.7404 200.263C77.9328 200.157 78.1266 200 78.3219 199.79C78.5173 199.581 78.6518 199.317 78.7254 198.998C78.9279 198.12 78.7719 197.387 78.2573 196.796C77.7673 196.19 76.9719 195.77 75.8711 195.536C73.3693 195.004 71.8159 195.866 71.2111 198.122L68.8694 197.624C69.2731 196.058 70.1057 194.907 71.3675 194.171C72.6492 193.439 74.2808 193.284 76.2623 193.705C80.0851 194.518 81.6191 196.559 80.8642 199.829L79.1657 207.186C79.0092 207.864 79.0088 208.366 79.1646 208.692C79.3403 209.022 79.7645 209.185 80.4372 209.182L80.5273 209.201L80.1199 210.965C79.6828 211.04 79.224 211.026 78.7437 210.924ZM71.8118 207.662C73.3129 207.981 74.5727 207.799 75.5913 207.116C76.6144 206.413 77.2457 205.544 77.485 204.507L78.0926 201.875C77.2462 202.176 75.9779 202.304 74.2876 202.259C73.6595 202.251 73.1662 202.25 72.8075 202.258C72.4534 202.245 72.0355 202.282 71.5538 202.368C71.0766 202.434 70.705 202.543 70.4388 202.695C70.1726 202.848 69.9203 203.077 69.6819 203.382C69.4482 203.667 69.2806 204.028 69.1794 204.467C68.7927 206.142 69.6702 207.207 71.8118 207.662ZM82.584 211.583L87.5207 190.2L89.9525 190.717L85.0158 212.1L82.584 211.583ZM95.5551 214.779C93.2533 214.29 91.5992 213.133 90.5926 211.309C89.6106 209.469 89.3889 207.382 89.9275 205.05C90.4568 202.757 91.5815 200.977 93.3015 199.712C95.0462 198.43 96.9993 198.019 99.161 198.478C101.443 198.963 103.02 200.135 103.893 201.994C104.77 203.833 104.905 206.068 104.297 208.7L92.2881 206.147C92.0108 207.804 92.1827 209.242 92.804 210.461C93.4499 211.665 94.5234 212.427 96.0246 212.746C98.3463 213.239 100.021 212.487 101.05 210.488L103.421 210.992C102.679 212.571 101.622 213.695 100.249 214.365C98.881 215.016 97.3164 215.154 95.5551 214.779ZM101.658 202.398C101.08 201.354 100.1 200.686 98.7191 200.392C97.338 200.099 96.1314 200.324 95.099 201.066C94.0867 201.813 93.3101 202.903 92.7694 204.336L102.106 206.321C102.385 204.748 102.236 203.441 101.658 202.398ZM111.627 201.536L111.157 203.57L111.217 203.582C112.786 202.243 114.612 201.794 116.693 202.236C118.334 202.585 119.516 203.286 120.239 204.339C120.962 205.392 121.139 206.716 120.771 208.311L118.265 219.167L115.833 218.65L118.291 208.004C118.521 207.007 118.388 206.173 117.892 205.503C117.4 204.813 116.604 204.351 115.503 204.117C114.262 203.853 113.149 204.035 112.165 204.662C111.18 205.29 110.543 206.231 110.253 207.487L108.057 216.998L105.625 216.481L109.195 201.019L111.627 201.536ZM123.917 206.219L124.373 204.245L126.624 204.724L127.75 199.849L130.182 200.366L129.056 205.241L132.058 205.879L131.603 207.853L128.601 207.215L126.281 217.263C126.06 218.22 126.47 218.809 127.51 219.03C127.951 219.124 128.397 219.146 128.85 219.096L128.94 219.115L128.456 221.208C127.764 221.207 127.097 221.139 126.457 221.003C124.175 220.518 123.264 219.278 123.725 217.285L126.169 206.698L123.917 206.219ZM131.563 221.994L132.247 219.033L135.159 219.652L134.476 222.613L131.563 221.994Z" fill="#FAFAFA"/>
<path d="M82.796 135.987C82.6557 135.685 82.6267 135.083 82.7092 134.18L82.6491 134.167C82.0569 134.731 81.3791 135.121 80.6157 135.335C79.8524 135.549 78.8603 135.526 77.6393 135.267C76.0181 134.922 74.8115 134.237 74.0195 133.211C73.2275 132.185 73.0041 130.925 73.3493 129.429C73.7084 127.874 74.5111 126.853 75.7577 126.365C77.0088 125.857 78.6473 125.672 80.6732 125.809C82.1603 125.916 83.187 125.925 83.7535 125.837C84.3245 125.728 84.6721 125.404 84.7964 124.866C84.9253 124.308 84.8064 123.822 84.4397 123.41C84.0776 122.977 83.4763 122.672 82.6357 122.493C80.7743 122.097 79.6178 122.605 79.1663 124.015L75.5336 123.242C75.9297 121.8 76.7986 120.719 78.1404 120C79.4821 119.281 81.2138 119.148 83.3354 119.598C87.6586 120.517 89.3853 122.861 88.5153 126.629L86.7132 134.435C86.4463 135.591 86.463 136.337 86.7634 136.673L86.7289 136.822L82.796 135.987ZM79.286 132.636C80.4068 132.875 81.3542 132.773 82.1282 132.331C82.9222 131.893 83.4112 131.275 83.5953 130.478L84.127 128.175C83.6268 128.341 82.6071 128.438 81.0677 128.466C79.847 128.478 78.9574 128.603 78.3988 128.84C77.8448 129.057 77.4895 129.504 77.333 130.182C77.0338 131.478 77.6848 132.296 79.286 132.636ZM88.2248 142.411L92.9267 122.045L96.8596 122.881L96.4177 124.795L96.5078 124.814C98.0077 123.502 99.6983 123.045 101.58 123.445C103.601 123.875 105.05 124.967 105.925 126.722C106.801 128.477 106.961 130.56 106.404 132.973C105.833 135.445 104.767 137.289 103.205 138.505C101.648 139.701 99.869 140.086 97.8675 139.661C95.866 139.235 94.5529 138.193 93.9282 136.533L93.8682 136.52L92.3078 143.279L88.2248 142.411ZM97.7771 136.096C98.8179 136.317 99.7328 136.083 100.522 135.393C101.331 134.708 101.901 133.647 102.233 132.212C102.587 130.677 102.576 129.409 102.198 128.408C101.82 127.407 101.03 126.779 99.8295 126.524C98.6086 126.265 97.602 126.532 96.8099 127.326C96.0223 128.099 95.4582 129.224 95.1176 130.699C94.7908 132.115 94.851 133.309 95.2981 134.283C95.7499 135.237 96.5762 135.841 97.7771 136.096ZM105.977 146.185L110.679 125.818L114.611 126.654L114.17 128.568L114.26 128.587C115.76 127.275 117.45 126.818 119.332 127.218C121.353 127.648 122.802 128.74 123.677 130.495C124.553 132.25 124.712 134.334 124.155 136.746C123.585 139.218 122.519 141.062 120.957 142.278C119.4 143.474 117.621 143.859 115.619 143.434C113.618 143.009 112.305 141.966 111.68 140.306L111.62 140.294L110.06 147.052L105.977 146.185ZM115.529 139.869C116.57 140.091 117.485 139.856 118.274 139.167C119.083 138.481 119.653 137.421 119.985 135.985C120.339 134.45 120.327 133.182 119.95 132.181C119.572 131.181 118.782 130.553 117.581 130.297C116.36 130.038 115.354 130.305 114.562 131.099C113.774 131.873 113.21 132.997 112.869 134.473C112.543 135.888 112.603 137.083 113.05 138.056C113.502 139.01 114.328 139.614 115.529 139.869ZM132.363 130.428L131.797 132.88L131.887 132.899C132.575 132.104 133.257 131.559 133.934 131.263C134.616 130.948 135.397 130.884 136.278 131.071C136.698 131.161 137.009 131.269 137.211 131.395L136.389 134.954L136.299 134.935C134.95 134.502 133.77 134.565 132.759 135.124C131.749 135.683 131.061 136.75 130.698 138.325L128.972 145.801L124.888 144.934L128.43 129.592L132.363 130.428ZM142.706 149.191C140.225 148.664 138.448 147.492 137.377 145.674C136.31 143.837 136.051 141.732 136.598 139.359C137.128 137.067 138.28 135.304 140.056 134.071C141.836 132.817 143.837 132.427 146.058 132.899C148.48 133.414 150.158 134.649 151.092 136.605C152.027 138.56 152.169 140.944 151.52 143.755L140.352 141.381C140.231 142.631 140.423 143.665 140.927 144.484C141.436 145.282 142.26 145.802 143.401 146.045C144.902 146.364 146.038 145.947 146.809 144.793L150.831 145.648C150.2 147.019 149.163 148.054 147.721 148.751C146.279 149.449 144.608 149.596 142.706 149.191ZM145.393 136.052C143.412 135.631 141.968 136.474 141.061 138.583L147.906 140.037C148.072 139.048 147.923 138.19 147.461 137.464C147.003 136.719 146.314 136.248 145.393 136.052ZM159.547 152.771C157.165 152.265 155.431 151.091 154.345 149.249C153.258 147.408 152.984 145.321 153.522 142.988C154.061 140.655 155.208 138.87 156.964 137.633C158.739 136.4 160.778 136.028 163.079 136.517C165.021 136.93 166.485 137.774 167.471 139.051C168.457 140.327 168.892 141.852 168.776 143.626L164.784 142.778C164.805 142.05 164.615 141.414 164.216 140.869C163.817 140.324 163.247 139.973 162.507 139.815C161.306 139.56 160.286 139.793 159.448 140.514C158.61 141.235 158.015 142.354 157.666 143.869C157.32 145.364 157.357 146.616 157.775 147.625C158.197 148.615 159.009 149.237 160.21 149.492C161.991 149.871 163.222 149.223 163.903 147.548L167.836 148.384C167.304 150.049 166.289 151.307 164.791 152.16C163.297 152.993 161.549 153.197 159.547 152.771ZM168.967 154.303L172.509 138.961L176.592 139.829L173.05 155.171L168.967 154.303ZM173.062 136.568L173.904 132.92L177.987 133.788L177.145 137.436L173.062 136.568ZM185.979 157.919C185.839 157.617 185.81 157.015 185.892 156.112L185.832 156.099C185.24 156.664 184.562 157.053 183.799 157.267C183.035 157.481 182.043 157.459 180.822 157.199C179.201 156.855 177.995 156.169 177.203 155.143C176.411 154.118 176.187 152.857 176.532 151.362C176.891 149.806 177.694 148.785 178.941 148.297C180.192 147.789 181.83 147.604 183.856 147.742C185.343 147.849 186.37 147.858 186.936 147.769C187.508 147.66 187.855 147.337 187.979 146.798C188.108 146.24 187.989 145.755 187.623 145.342C187.261 144.91 186.659 144.604 185.819 144.425C183.957 144.03 182.801 144.537 182.349 145.947L178.717 145.175C179.113 143.732 179.982 142.651 181.323 141.932C182.665 141.214 184.397 141.08 186.518 141.531C190.842 142.45 192.568 144.793 191.698 148.561L189.896 156.367C189.629 157.523 189.646 158.269 189.946 158.605L189.912 158.755L185.979 157.919ZM182.469 154.569C183.59 154.807 184.537 154.705 185.311 154.263C186.105 153.825 186.594 153.207 186.778 152.41L187.31 150.107C186.81 150.273 185.79 150.37 184.251 150.398C183.03 150.411 182.14 150.535 181.582 150.772C181.028 150.989 180.673 151.436 180.516 152.114C180.217 153.41 180.868 154.228 182.469 154.569ZM194.294 146.415L194.916 143.723L197.047 144.177L198.152 139.392L202.145 140.24L201.04 145.025L203.682 145.587L203.061 148.278L200.419 147.717L198.541 155.851C198.306 156.868 198.699 157.485 199.72 157.702L200.928 157.927L200.237 160.918C199.608 160.826 198.752 160.665 197.672 160.435C196.491 160.184 195.565 159.695 194.893 158.966C194.226 158.218 194.044 157.186 194.348 155.87L196.426 146.868L194.294 146.415ZM209.829 163.459C207.347 162.931 205.57 161.759 204.499 159.941C203.432 158.104 203.173 155.999 203.721 153.627C204.25 151.334 205.402 149.571 207.178 148.338C208.958 147.085 210.959 146.694 213.181 147.167C215.602 147.681 217.28 148.916 218.215 150.872C219.149 152.828 219.292 155.211 218.643 158.022L207.474 155.648C207.354 156.898 207.545 157.933 208.049 158.751C208.558 159.549 209.383 160.07 210.524 160.312C212.025 160.631 213.16 160.214 213.931 159.06L217.954 159.915C217.322 161.287 216.285 162.321 214.843 163.019C213.402 163.716 211.73 163.863 209.829 163.459ZM212.516 150.319C210.534 149.898 209.09 150.742 208.183 152.85L215.029 154.305C215.194 153.315 215.046 152.457 214.583 151.732C214.125 150.986 213.436 150.515 212.516 150.319ZM225.769 166.847C223.567 166.379 221.956 165.535 220.936 164.314C219.921 163.073 219.547 161.603 219.813 159.902L223.596 160.706C223.465 162.456 224.39 163.542 226.372 163.963C227.272 164.155 228 164.142 228.554 163.925C229.128 163.712 229.477 163.337 229.601 162.799C229.647 162.599 229.648 162.411 229.605 162.235C229.582 162.062 229.494 161.897 229.342 161.739C229.214 161.566 229.089 161.424 228.967 161.315C228.866 161.209 228.664 161.083 228.362 160.935C228.06 160.787 227.824 160.674 227.653 160.596C227.502 160.522 227.223 160.411 226.817 160.262C226.435 160.097 226.168 159.977 226.018 159.903C225.214 159.565 224.56 159.259 224.056 158.985C223.578 158.695 223.085 158.328 222.578 157.886C222.076 157.424 221.739 156.881 221.568 156.259C221.421 155.622 221.44 154.904 221.624 154.107C221.992 152.511 222.853 151.419 224.207 150.828C225.582 150.242 227.189 150.144 229.031 150.536C231.012 150.957 232.457 151.745 233.367 152.9C234.3 154.04 234.665 155.414 234.462 157.024L230.769 156.239C230.954 154.709 230.136 153.751 228.315 153.364C227.494 153.189 226.809 153.201 226.26 153.398C225.73 153.599 225.403 153.969 225.279 154.507C225.238 154.686 225.229 154.862 225.252 155.035C225.3 155.191 225.39 155.346 225.522 155.5C225.68 155.638 225.829 155.764 225.971 155.878C226.117 155.971 226.331 156.09 226.613 156.234C226.899 156.357 227.146 156.472 227.352 156.579C227.563 156.666 227.849 156.789 228.211 156.95C228.578 157.091 228.866 157.204 229.077 157.291C229.686 157.567 230.176 157.807 230.549 158.012C230.946 158.201 231.385 158.482 231.866 158.856C232.351 159.21 232.707 159.579 232.933 159.962C233.184 160.329 233.358 160.805 233.454 161.39C233.574 161.959 233.554 162.593 233.393 163.291C233.043 164.806 232.164 165.885 230.756 166.527C229.373 167.153 227.71 167.26 225.769 166.847Z" fill="#FCFF32"/>
<defs>
<filter id="filter0_f_2307_1251" x="17.6165" y="97.4658" width="828.368" height="430.954" filterUnits="userSpaceOnUse" color-interpolation-filters="sRGB">
<feFlood flood-opacity="0" result="BackgroundImageFix"/>
<feBlend mode="normal" in="SourceGraphic" in2="BackgroundImageFix" result="shape"/>
<feGaussianBlur stdDeviation="4" result="effect1_foregroundBlur_2307_1251"/>
</filter>
<filter id="filter1_n_2307_1251" x="-6.43274" y="197.745" width="326.839" height="203.531" filterUnits="userSpaceOnUse" color-interpolation-filters="sRGB">
<feFlood flood-opacity="0" result="BackgroundImageFix"/>
<feBlend mode="normal" in="SourceGraphic" in2="BackgroundImageFix" result="shape"/>
<feTurbulence type="fractalNoise" baseFrequency="1 1" stitchTiles="stitch" numOctaves="3" result="noise" seed="1706" />
<feColorMatrix in="noise" type="luminanceToAlpha" result="alphaNoise" />
<feComponentTransfer in="alphaNoise" result="coloredNoise1">
<feFuncA type="discrete" tableValues="1 1 1 1 1 1 1 1 1 1 1 1 1 1 1 1 1 1 1 1 1 1 1 1 1 1 1 1 1 1 1 1 1 1 1 1 1 1 1 1 1 1 1 1 1 1 1 1 1 1 1 0 0 0 0 0 0 0 0 0 0 0 0 0 0 0 0 0 0 0 0 0 0 0 0 0 0 0 0 0 0 0 0 0 0 0 0 0 0 0 0 0 0 0 0 0 0 0 0 0 "/>
</feComponentTransfer>
<feComposite operator="in" in2="shape" in="coloredNoise1" result="noise1Clipped" />
<feFlood flood-color="rgba(0, 0, 0, 0.05)" result="color1Flood" />
<feComposite operator="in" in2="noise1Clipped" in="color1Flood" result="color1" />
<feMerge result="effect1_noise_2307_1251">
<feMergeNode in="shape" />
<feMergeNode in="color1" />
</feMerge>
</filter>
<filter id="filter2_n_2307_1251" x="238.939" y="53.2207" width="109.876" height="335.988" filterUnits="userSpaceOnUse" color-interpolation-filters="sRGB">
<feFlood flood-opacity="0" result="BackgroundImageFix"/>
<feBlend mode="normal" in="SourceGraphic" in2="BackgroundImageFix" result="shape"/>
<feTurbulence type="fractalNoise" baseFrequency="1 1" stitchTiles="stitch" numOctaves="3" result="noise" seed="1706" />
<feColorMatrix in="noise" type="luminanceToAlpha" result="alphaNoise" />
<feComponentTransfer in="alphaNoise" result="coloredNoise1">
<feFuncA type="discrete" tableValues="1 1 1 1 1 1 1 1 1 1 1 1 1 1 1 1 1 1 1 1 1 1 1 1 1 1 1 1 1 1 1 1 1 1 1 1 1 1 1 1 1 1 1 1 1 1 1 1 1 1 1 0 0 0 0 0 0 0 0 0 0 0 0 0 0 0 0 0 0 0 0 0 0 0 0 0 0 0 0 0 0 0 0 0 0 0 0 0 0 0 0 0 0 0 0 0 0 0 0 0 "/>
</feComponentTransfer>
<feComposite operator="in" in2="shape" in="coloredNoise1" result="noise1Clipped" />
<feFlood flood-color="rgba(0, 0, 0, 0.05)" result="color1Flood" />
<feComposite operator="in" in2="noise1Clipped" in="color1Flood" result="color1" />
<feMerge result="effect1_noise_2307_1251">
<feMergeNode in="shape" />
<feMergeNode in="color1" />
</feMerge>
</filter>
<filter id="filter3_n_2307_1251" x="0" y="0" width="338.152" height="353.849" filterUnits="userSpaceOnUse" color-interpolation-filters="sRGB">
<feFlood flood-opacity="0" result="BackgroundImageFix"/>
<feBlend mode="normal" in="SourceGraphic" in2="BackgroundImageFix" result="shape"/>
<feTurbulence type="fractalNoise" baseFrequency="1 1" stitchTiles="stitch" numOctaves="3" result="noise" seed="1706" />
<feColorMatrix in="noise" type="luminanceToAlpha" result="alphaNoise" />
<feComponentTransfer in="alphaNoise" result="coloredNoise1">
<feFuncA type="discrete" tableValues="1 1 1 1 1 1 1 1 1 1 1 1 1 1 1 1 1 1 1 1 1 1 1 1 1 1 1 1 1 1 1 1 1 1 1 1 1 1 1 1 1 1 1 1 1 1 1 1 1 1 1 0 0 0 0 0 0 0 0 0 0 0 0 0 0 0 0 0 0 0 0 0 0 0 0 0 0 0 0 0 0 0 0 0 0 0 0 0 0 0 0 0 0 0 0 0 0 0 0 0 "/>
</feComponentTransfer>
<feComposite operator="in" in2="shape" in="coloredNoise1" result="noise1Clipped" />
<feFlood flood-color="rgba(0, 0, 0, 0.05)" result="color1Flood" />
<feComposite operator="in" in2="noise1Clipped" in="color1Flood" result="color1" />
<feMerge result="effect1_noise_2307_1251">
<feMergeNode in="shape" />
<feMergeNode in="color1" />
</feMerge>
</filter>
<linearGradient id="paint0_linear_2307_1251" x1="-10.8733" y1="343.723" x2="329.081" y2="349.079" gradientUnits="userSpaceOnUse">
<stop stop-color="#0362A6"/>
<stop offset="1" stop-color="#FCFF32"/>
</linearGradient>
<linearGradient id="paint1_linear_2307_1251" x1="202.159" y1="315.501" x2="410.447" y2="191.091" gradientUnits="userSpaceOnUse">
<stop stop-color="#FCFF32"/>
<stop offset="1" stop-color="#0362A6"/>
</linearGradient>
<linearGradient id="paint2_linear_2307_1251" x1="8.31646e-09" y1="191.855" x2="343.031" y2="191.855" gradientUnits="userSpaceOnUse">
<stop stop-color="#0A7FD2"/>
<stop offset="1" stop-color="#FCFF32"/>
</linearGradient>
</defs>
</svg>
