<svg width="687" height="499" viewBox="0 0 687 499" fill="none" xmlns="http://www.w3.org/2000/svg">
<g filter="url(#filter0_f_2307_1271)">
<path d="M74.6255 382.499L25.6165 333.739L346.727 105.466L667.274 172.007L678.874 165.173L605.384 485.517L594.355 490.604L74.6255 382.499Z" fill="url(#paint0_linear_2307_1271)" fill-opacity="0.6"/>
</g>
<mask id="mask0_2307_1271" style="mask-type:alpha" maskUnits="userSpaceOnUse" x="0" y="55" width="347" height="332">
<path d="M214.558 264.716L0.0117188 298.743L25.6233 333.746L282.373 386.301C309.532 274.307 319.809 216.518 346.969 104.524L338.049 55.0967L214.558 264.716Z" fill="#D9D9D9"/>
</mask>
<g mask="url(#mask0_2307_1271)">
<g filter="url(#filter1_n_2307_1271)">
<path d="M24.097 342.285L286.054 401.275L320.406 255.031L16.9149 197.744L-6.43274 297.733L24.097 342.285Z" fill="url(#paint1_linear_2307_1271)"/>
</g>
<g filter="url(#filter2_n_2307_1271)">
<path d="M283.583 389.209L269.483 353.714L238.939 126.747L339.298 53.2207L348.815 105.771L283.583 389.209Z" fill="url(#paint2_linear_2307_1271)"/>
</g>
</g>
<g filter="url(#filter3_n_2307_1271)">
<path d="M338.152 55.1064L68.6007 0L0 298.755L269.574 353.849L338.152 55.1064Z" fill="url(#paint3_linear_2307_1271)"/>
</g>
<path fill-rule="evenodd" clip-rule="evenodd" d="M192.119 287.871C192.334 287.648 192.461 287.357 192.478 287.051C192.494 286.746 192.397 286.447 192.207 286.209C192.016 285.972 191.744 285.814 191.441 285.763C191.138 285.712 190.825 285.772 190.56 285.933C189.315 287.024 187.849 287.836 186.265 288.311C184.681 288.787 183.017 288.914 181.389 288.685C179.895 288.346 178.498 287.688 177.296 286.755C176.093 285.823 175.112 284.639 174.422 283.286C173.862 281.61 173.703 279.821 173.96 278.06C174.216 276.3 174.88 274.616 175.899 273.142C176.81 271.619 178.176 270.411 179.803 269.689C181.43 268.966 183.236 268.765 184.967 269.114C186.534 269.399 188.026 269.971 189.378 270.796C190.671 271.619 191.758 272.72 192.567 274.02C192.654 274.229 192.802 274.407 192.992 274.53C193.183 274.654 193.407 274.718 193.636 274.714C193.865 274.71 194.089 274.639 194.279 274.509C194.469 274.379 194.617 274.196 194.703 273.985C194.761 273.844 194.791 273.695 194.79 273.544C194.79 273.393 194.76 273.245 194.701 273.107C193.823 271.385 192.551 269.894 190.987 268.751C189.416 267.561 187.637 266.665 185.736 266.107C183.295 265.399 180.674 265.505 178.273 266.409C175.872 267.313 173.822 268.966 172.433 271.116C170.992 273.14 170.068 275.477 169.744 277.922C169.42 280.366 169.705 282.842 170.574 285.133C170.944 285.708 171.39 286.22 171.91 286.671C170.628 287.169 169.4 287.801 168.249 288.557C167.388 289.176 166.608 289.885 165.909 290.685C165.21 291.462 164.583 292.299 164.034 293.186C162.793 295.219 161.791 297.385 161.049 299.64C160.969 299.828 160.936 300.033 160.952 300.235C160.969 300.438 161.035 300.633 161.144 300.803C161.254 300.973 161.404 301.114 161.581 301.214C161.758 301.313 161.958 301.368 162.163 301.373C162.426 301.376 162.685 301.295 162.901 301.142C163.116 300.989 163.278 300.772 163.362 300.523C164.459 298.693 165.699 296.958 167.081 295.319L168.836 293.341C169.412 292.719 170.026 292.104 170.64 291.49C171.683 290.495 172.779 289.552 173.928 288.663C175.946 290.366 178.438 291.428 181.087 291.713C183.083 291.88 185.099 291.624 187 290.962C188.902 290.3 190.647 289.246 192.119 287.871ZM251.335 311.738C251.228 310.712 251.027 309.699 250.736 308.711C250.456 307.708 250.059 306.742 249.551 305.834C248.84 304.684 248.005 303.615 247.062 302.645C247.688 302.375 248.267 302.028 248.797 301.603C250.565 299.891 251.893 297.784 252.669 295.465C253.444 293.146 253.643 290.684 253.248 288.29C252.935 285.777 251.803 283.448 250.024 281.655C248.245 279.863 245.916 278.705 243.39 278.358C241.471 278.081 239.513 278.142 237.605 278.539C235.684 278.941 233.876 279.777 232.321 280.981C232.204 281.064 232.104 281.169 232.027 281.29C231.95 281.411 231.897 281.546 231.872 281.686C231.847 281.826 231.85 281.969 231.881 282.108C231.911 282.246 231.969 282.376 232.051 282.491C232.133 282.607 232.237 282.704 232.358 282.779C232.478 282.853 232.613 282.903 232.754 282.926C232.895 282.949 233.039 282.944 233.179 282.911C233.319 282.878 233.451 282.819 233.568 282.735C234.87 281.882 236.342 281.324 237.878 281.105C239.465 280.917 241.068 281.019 242.608 281.405C244.332 281.789 245.881 282.703 247.039 284.018C248.196 285.333 248.903 286.981 249.059 288.732C249.354 290.469 249.24 292.256 248.725 293.955C248.21 295.653 247.308 297.217 246.09 298.524C244.853 299.411 243.442 300.028 241.954 300.333C240.465 300.639 238.933 300.625 237.46 300.294C235.9 299.883 234.452 299.142 233.215 298.122C231.978 297.102 230.98 295.826 230.29 294.381C230.119 294.132 229.862 293.953 229.566 293.879C229.271 293.804 228.956 293.839 228.681 293.976C228.406 294.113 228.188 294.343 228.068 294.625C227.948 294.906 227.933 295.219 228.027 295.507C228.761 297.389 229.899 299.085 231.363 300.478C232.828 301.871 234.583 302.927 236.51 303.575C238.983 304.341 241.638 304.374 244.154 303.672C244.801 304.938 245.379 306.237 245.89 307.568C246.176 308.373 246.462 309.178 246.711 309.976L247.431 312.48C247.962 314.497 248.327 316.545 248.526 318.625C248.516 318.789 248.54 318.953 248.595 319.106C248.651 319.26 248.738 319.401 248.85 319.519C248.962 319.638 249.097 319.733 249.248 319.798C249.398 319.864 249.561 319.898 249.726 319.899C250.042 319.9 250.349 319.784 250.587 319.574C250.824 319.363 250.976 319.074 251.012 318.762C251.391 316.436 251.5 314.08 251.335 311.738Z" fill="#1887A3"/>
<path fill-rule="evenodd" clip-rule="evenodd" d="M226.246 298.455C225.906 297.26 225.433 296.108 224.836 295.021C223.903 293.333 222.756 291.772 221.423 290.377C223.494 289.112 225.258 287.404 226.583 285.381C227.908 283.357 228.761 281.07 229.078 278.689C229.945 274.843 229.243 270.836 227.127 267.55C225.01 264.264 221.652 261.967 217.791 261.165C213.68 260.132 209.298 260.757 205.598 262.906C201.898 265.054 199.179 268.552 198.031 272.639C197.307 275.33 197.418 278.163 198.347 280.765C199.277 283.367 200.983 285.616 203.24 287.217C200.84 287.95 198.524 288.895 196.293 290.051C194.282 291.122 192.442 292.488 190.838 294.103C189.382 295.452 188.21 297.073 187.389 298.87C186.569 300.667 186.118 302.603 186.062 304.564C186.034 304.891 186.137 305.213 186.349 305.46C186.561 305.708 186.865 305.859 187.194 305.882C187.522 305.906 187.848 305.798 188.101 305.583C188.353 305.369 188.511 305.065 188.539 304.738C189.257 301.665 191.061 298.933 193.621 297.041C195.09 295.786 196.739 294.609 198.378 293.472C200.812 291.799 203.323 290.24 205.903 288.802C207.288 289.491 208.748 290.025 210.256 290.393C210.397 290.434 210.544 290.446 210.691 290.43C210.837 290.414 210.979 290.369 211.109 290.298C211.238 290.227 211.353 290.132 211.446 290.018C211.539 289.904 211.609 289.772 211.651 289.632C211.727 289.353 211.69 289.058 211.55 288.808C211.409 288.559 211.175 288.375 210.898 288.296C202.896 285.812 200.197 279.952 201.335 274.513C202.311 275.331 203.433 275.958 204.647 276.353C205.21 276.569 205.804 276.696 206.41 276.728C207.04 276.77 207.664 276.733 208.284 276.617C209.844 276.425 211.335 275.838 212.611 274.911C212.611 274.911 212.68 274.612 212.894 274.54L214.146 275.59C215.278 276.455 216.503 277.172 217.819 277.742C220.303 278.705 222.935 279.264 225.614 279.399C225.288 282.218 223.895 284.826 221.718 286.692C219.541 288.558 216.744 289.543 213.893 289.446C213.563 289.416 213.231 289.515 212.969 289.723C212.708 289.931 212.538 290.232 212.495 290.56C212.477 290.721 212.492 290.884 212.538 291.039C212.585 291.193 212.662 291.337 212.765 291.461C212.868 291.585 212.995 291.687 213.139 291.761C213.283 291.835 213.441 291.88 213.604 291.893C215.427 292.123 217.284 291.969 219.057 291.445C220.002 293.085 220.8 294.796 221.451 296.578C221.816 297.553 222.18 298.531 222.498 299.539C222.816 300.547 223.088 301.585 223.351 302.659C223.971 305.173 224.348 307.746 224.488 310.346C224.489 310.59 224.562 310.827 224.697 311.028C224.833 311.23 225.025 311.387 225.25 311.481C225.475 311.575 225.724 311.601 225.966 311.557C226.209 311.513 226.434 311.401 226.615 311.233C226.733 311.12 226.827 310.985 226.893 310.836C226.958 310.687 226.993 310.527 226.997 310.366C227.274 307.672 227.253 304.961 226.936 302.281C226.826 300.985 226.595 299.704 226.246 298.455ZM209.454 272.912L207.654 272.529L205.794 272.408C204.492 272.484 203.193 272.43 201.898 272.246C203.159 269.603 205.353 267.501 208.059 266.346C208.629 268.611 209.633 270.74 211.017 272.617C211.075 272.646 211.139 272.66 211.204 272.657C210.631 272.822 210.048 272.907 209.454 272.912ZM219.375 274.237C218.374 273.664 217.419 273.015 216.519 272.297C214.068 270.435 212.053 268.07 210.608 265.359C212.703 264.915 214.861 264.907 216.946 265.335C219.575 265.802 221.919 267.224 223.527 269.324C225.134 271.425 225.889 274.055 225.646 276.706C223.453 276.15 221.345 275.32 219.371 274.236" fill="#1887A3"/>
<path fill-rule="evenodd" clip-rule="evenodd" d="M211.064 295.228C211.13 294.941 211.079 294.641 210.922 294.394C210.765 294.148 210.515 293.975 210.226 293.914C209.938 293.852 209.635 293.908 209.384 294.067C209.133 294.227 208.955 294.478 208.889 294.766C208.241 296.039 207.544 297.183 207.009 298.48C206.821 299.04 206.689 299.615 206.612 300.198C206.445 300.751 206.316 301.311 206.224 301.879C205.913 303.224 206.154 304.568 206.106 305.968C206.069 306.127 206.066 306.29 206.096 306.449C206.126 306.607 206.188 306.758 206.279 306.89C206.37 307.023 206.488 307.136 206.625 307.221C206.762 307.306 206.916 307.362 207.077 307.386C207.238 307.42 207.404 307.421 207.567 307.391C207.729 307.36 207.884 307.297 208.023 307.206C208.161 307.114 208.28 306.997 208.373 306.86C208.465 306.723 208.529 306.569 208.561 306.408C208.863 305.101 209.635 303.972 210.061 302.808C210.228 302.27 210.354 301.721 210.44 301.165C210.627 300.619 210.756 300.059 210.828 299.484C211.078 297.892 210.979 296.617 211.064 295.228Z" fill="#1887A3"/>
<path fill-rule="evenodd" clip-rule="evenodd" d="M227.466 246.502L223.558 242.811C223.558 242.811 222.615 241.788 222.216 241.468C221.854 241.178 221.407 241.01 220.939 240.988C220.472 240.966 220.006 241.091 219.609 241.345C217.831 242.574 216.007 243.675 214.209 244.817C211.451 246.542 208.747 248.201 205.919 249.716C202.762 251.35 199.523 252.819 196.215 254.115C195.942 254.212 195.717 254.413 195.591 254.673C195.465 254.933 195.447 255.23 195.541 255.5C195.635 255.769 195.834 255.989 196.094 256.11C196.353 256.231 196.653 256.244 196.926 256.147C201.348 254.861 205.668 253.238 209.847 251.291C213.497 249.637 217.05 247.778 220.491 245.721L224.494 249.511L240.73 266.045C240.965 266.273 241.282 266.399 241.614 266.396C241.945 266.393 242.264 266.262 242.503 266.03C242.624 265.918 242.722 265.783 242.791 265.633C242.859 265.483 242.897 265.322 242.901 265.159C242.906 264.995 242.878 264.833 242.818 264.682C242.758 264.531 242.668 264.393 242.554 264.278C238.369 259.744 234.68 254.767 230.667 249.996C229.599 248.833 228.508 247.782 227.466 246.502Z" fill="#1887A3"/>
<path fill-rule="evenodd" clip-rule="evenodd" d="M196.106 243.869C199.035 242.767 201.999 241.516 204.817 240.195C209.196 238.266 213.601 236.224 217.772 234.172L223.542 231.484L224.049 231.161C224.049 231.161 224.924 231.973 225.068 232.2C226.096 233.712 227.049 235.207 227.955 236.732C228.443 237.345 228.96 238.004 229.494 238.587C231.61 240.895 233.864 243.075 236.243 245.116C239.683 248.276 243.293 251.195 246.721 254.235C246.838 254.345 246.975 254.431 247.126 254.488C247.277 254.544 247.438 254.57 247.6 254.565C247.762 254.559 247.922 254.522 248.071 254.455C248.219 254.388 248.353 254.293 248.466 254.175C248.688 253.928 248.808 253.609 248.804 253.281C248.799 252.952 248.67 252.64 248.441 252.407C245.244 249.219 241.841 246.067 238.603 242.714C236.504 240.559 234.537 238.288 232.702 235.899L228.583 229.734C228.109 228.92 227.58 228.14 226.999 227.399C226.618 226.979 226.137 226.662 225.599 226.475C225.131 226.332 224.63 226.321 224.151 226.441C223.373 226.767 222.616 227.143 221.886 227.566L216.033 230.632C211.839 232.954 207.78 235.539 203.65 237.6C200.86 239.123 198.138 240.347 195.274 241.85C195.119 241.891 194.974 241.964 194.849 242.065C194.724 242.166 194.622 242.292 194.55 242.434C194.478 242.577 194.437 242.733 194.43 242.891C194.424 243.05 194.451 243.207 194.511 243.353C194.572 243.499 194.663 243.63 194.779 243.737C194.895 243.844 195.033 243.925 195.185 243.974C195.336 244.022 195.496 244.038 195.655 244.02C195.814 244.002 195.968 243.95 196.106 243.869Z" fill="#1887A3"/>
<path d="M90.6119 62.6259L95.5486 41.2429L104.645 43.1764C106.907 43.6572 108.486 44.6411 109.381 46.1282C110.081 47.2809 110.26 48.595 109.92 50.0704C109.395 52.3433 107.899 53.594 105.432 53.8225L105.411 53.9122C106.623 54.4835 107.525 55.3029 108.119 56.3702C108.717 57.4177 108.857 58.6292 108.54 60.0049C108.162 61.6398 107.326 62.8949 106.033 63.7703C104.459 64.858 102.511 65.1551 100.189 64.6616L90.6119 62.6259ZM93.8732 60.7778L100.628 62.2137C102.109 62.5285 103.313 62.4079 104.239 61.8518C105.036 61.31 105.548 60.5507 105.773 59.5737C106.072 58.2778 105.89 57.2037 105.226 56.3514C104.562 55.4991 103.549 54.9283 102.188 54.639L95.6131 53.2414L93.8732 60.7778ZM96.1378 50.9685L102.202 52.2576C103.503 52.5341 104.595 52.4421 105.479 51.9814C106.362 51.5207 106.93 50.7421 107.183 49.6456C107.423 48.6088 107.269 47.729 106.722 47.0062C106.199 46.2677 105.338 45.7708 104.137 45.5155L97.7121 44.1499L96.1378 50.9685ZM116.711 68.6128C114.41 68.1235 112.756 66.9667 111.749 65.1422C110.767 63.302 110.545 61.2156 111.084 58.8829C111.613 56.5901 112.738 54.8107 114.458 53.5449C116.203 52.2634 118.156 51.8523 120.317 52.3118C122.599 52.7968 124.176 53.9687 125.049 55.8274C125.926 57.6663 126.061 59.9016 125.453 62.5333L113.444 59.9808C113.167 61.6369 113.339 63.0748 113.96 64.2945C114.606 65.4985 115.68 66.2601 117.181 66.5791C119.503 67.0726 121.178 66.3201 122.206 64.3216L124.578 64.8258C123.835 66.404 122.778 67.5283 121.405 68.1987C120.037 68.8491 118.473 68.9872 116.711 68.6128ZM122.814 56.2309C122.236 55.1877 121.256 54.5194 119.875 54.2258C118.494 53.9323 117.288 54.1568 116.255 54.8995C115.243 55.6465 114.466 56.7364 113.926 58.1692L123.263 60.1539C123.542 58.5817 123.392 57.2741 122.814 56.2309ZM131.015 76.4219L135.731 55.9958L138.162 56.5127L137.658 58.6959L137.718 58.7087C139.371 57.282 141.227 56.7878 143.289 57.2259C145.29 57.6514 146.734 58.7216 147.619 60.4365C148.508 62.1315 148.661 64.2451 148.076 66.7772C147.501 69.2694 146.442 71.1255 144.901 72.3457C143.364 73.5458 141.544 73.9226 139.443 73.4759C137.361 73.0334 135.905 71.9291 135.074 70.1628L135.014 70.1501L133.447 76.9388L131.015 76.4219ZM139.732 71.404C141.173 71.7103 142.403 71.386 143.421 70.4312C144.44 69.4763 145.158 68.0917 145.577 66.2774C145.996 64.4631 145.954 62.9169 145.451 61.6387C144.953 60.3406 143.993 59.5405 142.572 59.2384C140.951 58.8938 139.587 59.2104 138.479 60.1881C137.376 61.1459 136.62 62.512 136.21 64.2864C135.791 66.1007 135.853 67.6512 136.396 68.9379C136.939 70.2246 138.051 71.0466 139.732 71.404ZM161.481 77.8465C159.94 77.5189 159.226 76.562 159.341 74.9758L159.311 74.9694C157.652 76.332 155.742 76.7836 153.581 76.3241C152.04 75.9965 150.864 75.3596 150.053 74.4135C149.243 73.4673 148.999 72.2964 149.321 70.9008C149.487 70.1831 149.739 69.5884 150.079 69.1168C150.444 68.6296 150.843 68.2647 151.277 68.0223C151.715 67.7599 152.272 67.5751 152.948 67.4677C153.648 67.3446 154.303 67.285 154.911 67.2887C155.523 67.2725 156.296 67.2904 157.229 67.3423C157.828 67.3859 158.252 67.4133 158.501 67.4245C158.775 67.42 159.124 67.4104 159.547 67.3958C159.975 67.3613 160.285 67.2912 160.478 67.1857C160.67 67.0802 160.864 66.9227 161.059 66.7132C161.255 66.5037 161.389 66.2395 161.463 65.9205C161.665 65.0432 161.509 64.3094 160.995 63.7189C160.505 63.1128 159.709 62.6928 158.608 62.4588C156.107 61.927 154.553 62.789 153.948 65.0449L151.607 64.5471C152.01 62.9806 152.843 61.8294 154.105 61.0936C155.387 60.3621 157.018 60.2069 159 60.6281C162.822 61.4407 164.356 63.4818 163.602 66.7516L161.903 74.1086C161.747 74.7865 161.746 75.2884 161.902 75.6143C162.078 75.9445 162.502 76.1078 163.175 76.1044L163.265 76.1236L162.857 77.888C162.42 77.9624 161.961 77.9486 161.481 77.8465ZM154.549 74.5848C156.05 74.9038 157.31 74.7219 158.329 74.039C159.352 73.3362 159.983 72.4664 160.222 71.4297L160.83 68.7979C159.984 69.099 158.715 69.2269 157.025 69.1813C156.397 69.1733 155.904 69.173 155.545 69.1805C155.191 69.168 154.773 69.2046 154.291 69.2905C153.814 69.3564 153.442 69.4656 153.176 69.6182C152.91 69.7708 152.658 69.9995 152.419 70.3044C152.185 70.5894 152.018 70.9512 151.917 71.3898C151.53 73.0646 152.408 74.1295 154.549 74.5848ZM171.233 63.5421L170.639 66.114L170.699 66.1268C171.388 65.4157 172.19 64.896 173.106 64.5677C174.026 64.2195 174.977 64.1497 175.958 64.3581C176.318 64.4347 176.634 64.5647 176.907 64.7481L176.368 67.0808L176.278 67.0617C176.001 66.8982 175.652 66.7718 175.232 66.6824C173.991 66.4187 172.829 66.6318 171.746 67.3219C170.667 67.992 169.967 69.0249 169.645 70.4205L167.663 79.0037L165.231 78.4868L168.801 63.0252L171.233 63.5421ZM178.246 67.1034L178.701 65.1296L180.953 65.6082L182.079 60.7335L184.51 61.2504L183.385 66.1251L186.387 66.7632L185.931 68.7371L182.929 68.0989L180.609 78.1475C180.388 79.1045 180.798 79.6936 181.839 79.9148C182.279 80.0084 182.726 80.0301 183.178 79.9799L183.268 79.999L182.785 82.0925C182.092 82.0916 181.426 82.0232 180.785 81.887C178.504 81.402 177.593 80.1626 178.053 78.1689L180.497 67.582L178.246 67.1034ZM203.819 84.681C202.099 85.9468 200.108 86.3394 197.847 85.8586C195.585 85.3779 193.943 84.2132 192.921 82.3645C191.919 80.5201 191.685 78.4415 192.219 76.1287C192.753 73.816 193.88 72.0267 195.6 70.7608C197.34 69.4992 199.341 69.1088 201.603 69.5896C203.864 70.0703 205.496 71.2329 206.498 73.0773C207.5 74.9217 207.734 77.0003 207.2 79.3131C206.666 81.6258 205.539 83.4151 203.819 84.681ZM194.987 81.329C195.605 82.6527 196.715 83.4847 198.316 83.825C199.917 84.1654 201.28 83.8588 202.403 82.9053C203.53 81.9318 204.299 80.5579 204.708 78.7834C205.123 76.989 205.021 75.43 204.402 74.1064C203.809 72.7671 202.721 71.9294 201.14 71.5933C199.539 71.2529 198.165 71.5674 197.017 72.5366C195.889 73.51 195.121 74.884 194.711 76.6584C194.301 78.4328 194.393 79.9897 194.987 81.329ZM210.275 73.9114L210.73 71.9375L212.862 72.3906L213.435 69.9084C213.73 68.6324 214.292 67.7897 215.121 67.3804C215.955 66.9511 217.043 66.8789 218.384 67.164C218.764 67.2448 219.169 67.352 219.601 67.4854L219.124 69.549C218.849 69.4695 218.591 69.4042 218.351 69.3531C217.57 69.1872 216.992 69.1899 216.616 69.361C216.241 69.5322 215.982 69.9269 215.839 70.5449L215.294 72.9075L218.176 73.5201L217.72 75.494L214.838 74.8813L211.724 88.3691L209.292 87.8522L212.406 74.3644L210.275 73.9114ZM235.111 93.497C233.57 93.1694 232.856 92.2125 232.97 90.6263L232.94 90.6199C231.282 91.9825 229.372 92.434 227.21 91.9746C225.669 91.647 224.494 91.0101 223.683 90.064C222.873 89.1178 222.629 87.9469 222.951 86.5513C223.116 85.8336 223.369 85.2389 223.709 84.7673C224.074 84.28 224.473 83.9152 224.907 83.6728C225.345 83.4104 225.902 83.2256 226.578 83.1182C227.278 82.9951 227.932 82.9355 228.541 82.9392C229.153 82.923 229.926 82.9409 230.859 82.9928C231.458 83.0364 231.882 83.0638 232.131 83.075C232.405 83.0705 232.754 83.0609 233.177 83.0463C233.605 83.0118 233.915 82.9417 234.108 82.8362C234.3 82.7307 234.494 82.5732 234.689 82.3637C234.884 82.1542 235.019 81.89 235.093 81.571C235.295 80.6937 235.139 79.9599 234.624 79.3694C234.134 78.7633 233.339 78.3432 232.238 78.1093C229.736 77.5775 228.183 78.4395 227.578 80.6954L225.237 80.1976C225.64 78.6311 226.473 77.4799 227.735 76.7441C229.016 76.0126 230.648 75.8574 232.629 76.2786C236.452 77.0912 237.986 79.1323 237.231 82.4021L235.533 89.7591C235.376 90.4369 235.376 90.9389 235.532 91.2648C235.707 91.595 236.132 91.7583 236.804 91.7549L236.894 91.774L236.487 93.5385C236.05 93.6129 235.591 93.5991 235.111 93.497ZM228.179 90.2353C229.68 90.5543 230.94 90.3724 231.958 89.6895C232.982 88.9867 233.613 88.1169 233.852 87.0802L234.46 84.4484C233.613 84.7495 232.345 84.8774 230.655 84.8318C230.027 84.8238 229.533 84.8235 229.175 84.831C228.821 84.8184 228.403 84.8551 227.921 84.941C227.444 85.0069 227.072 85.1161 226.806 85.2687C226.54 85.4213 226.287 85.65 226.049 85.9549C225.815 86.2399 225.648 86.6017 225.547 87.0403C225.16 88.7151 226.037 89.78 228.179 90.2353ZM84.0516 84.9027L84.5073 82.9289L86.759 83.4075L87.8844 78.5327L90.3162 79.0496L89.1908 83.9244L92.193 84.5625L91.7373 86.5363L88.7351 85.8982L86.4152 95.9467C86.1943 96.9037 86.6042 97.4928 87.645 97.7141C88.0853 97.8077 88.5317 97.8294 88.9843 97.7791L89.0743 97.7983L88.591 99.8917C87.8983 99.8909 87.2317 99.8224 86.5912 99.6863C84.3095 99.2013 83.3988 97.9619 83.8591 95.9681L86.3033 85.3813L84.0516 84.9027ZM98.1267 102.483C95.8249 101.994 94.1708 100.837 93.1642 99.0127C92.1822 97.1725 91.9605 95.0861 92.4991 92.7534C93.0284 90.4606 94.1531 88.6813 95.8732 87.4154C97.6178 86.1339 99.571 85.7229 101.733 86.1823C104.014 86.6673 105.591 87.8392 106.464 89.698C107.341 91.5368 107.476 93.7721 106.869 96.4039L94.8597 93.8513C94.5824 95.5075 94.7543 96.9454 95.3756 98.1651C96.0215 99.3691 97.095 100.131 98.5962 100.45C100.918 100.943 102.593 100.191 103.621 98.1922L105.993 98.6963C105.251 100.275 104.193 101.399 102.821 102.069C101.453 102.72 99.888 102.858 98.1267 102.483ZM104.229 90.1014C103.651 89.0582 102.672 88.3899 101.291 88.0963C99.9096 87.8028 98.703 88.0274 97.6706 88.7701C96.6583 89.517 95.8817 90.6069 95.341 92.0398L104.678 94.0244C104.957 92.4522 104.807 91.1446 104.229 90.1014ZM120.351 106.925C118.81 106.597 118.097 105.64 118.211 104.054L118.181 104.048C116.523 105.41 114.613 105.862 112.451 105.403C110.91 105.075 109.734 104.438 108.924 103.492C108.113 102.546 107.869 101.375 108.191 99.9793C108.357 99.2615 108.61 98.6669 108.95 98.1953C109.314 97.708 109.713 97.3432 110.147 97.1007C110.586 96.8384 111.143 96.6535 111.819 96.5462C112.519 96.4231 113.173 96.3635 113.781 96.3672C114.394 96.351 115.167 96.3689 116.099 96.4207C116.698 96.4644 117.122 96.4918 117.372 96.5029C117.646 96.4984 117.994 96.4889 118.418 96.4743C118.846 96.4397 119.156 96.3697 119.348 96.2642C119.54 96.1586 119.734 96.0011 119.93 95.7917C120.125 95.5822 120.259 95.318 120.333 94.999C120.536 94.1217 120.38 93.3879 119.865 92.7974C119.375 92.1913 118.58 91.7712 117.479 91.5372C114.977 91.0054 113.424 91.8675 112.819 94.1234L110.477 93.6256C110.881 92.059 111.713 90.9079 112.975 90.1721C114.257 89.4406 115.888 89.2854 117.87 89.7066C121.693 90.5191 123.227 92.5603 122.472 95.8301L120.773 103.187C120.617 103.865 120.617 104.367 120.772 104.693C120.948 105.023 121.372 105.186 122.045 105.183L122.135 105.202L121.728 106.966C121.29 107.041 120.832 107.027 120.351 106.925ZM113.419 103.663C114.921 103.982 116.18 103.8 117.199 103.117C118.222 102.415 118.853 101.545 119.093 100.508L119.7 97.8764C118.854 98.1775 117.586 98.3053 115.895 98.2598C115.267 98.2518 114.774 98.2515 114.415 98.2589C114.061 98.2464 113.643 98.2831 113.161 98.3689C112.684 98.4348 112.313 98.5441 112.046 98.6967C111.78 98.8492 111.528 99.078 111.29 99.3829C111.056 99.6678 110.888 100.03 110.787 100.468C110.4 102.143 111.278 103.208 113.419 103.663ZM124.102 107.565L127.671 92.1036L130.103 92.6205L129.592 94.8336L129.652 94.8464C130.332 94.1751 131.125 93.6953 132.032 93.407C132.943 93.0986 133.869 93.0444 134.809 93.2444C136.831 93.6741 137.97 94.8784 138.227 96.8573L138.287 96.87C138.965 96.1148 139.79 95.5894 140.761 95.2939C141.737 94.9784 142.705 94.9227 143.666 95.1269C145.087 95.429 146.127 96.1101 146.785 97.1703C147.447 98.2105 147.597 99.5182 147.233 101.093L144.727 111.949L142.295 111.432L144.774 100.696C144.99 99.7589 144.88 98.9617 144.444 98.3042C144.033 97.6311 143.427 97.2095 142.626 97.0393C141.605 96.8223 140.623 97.0318 139.678 97.6676C138.733 98.3035 138.125 99.2095 137.853 100.386L135.63 110.016L133.198 109.499L135.677 98.7624C135.893 97.8253 135.814 97.0345 135.437 96.3898C135.086 95.7294 134.51 95.3142 133.709 95.144C132.709 94.9313 131.694 95.1443 130.664 95.7831C129.66 96.4062 129.024 97.2959 128.757 98.4523L126.533 108.082L124.102 107.565ZM157.31 114.624L155.956 98.1157L158.568 98.6709L159.098 108.792L159.172 112.29L159.232 112.303C159.845 111.011 160.356 109.98 160.765 109.209L165.593 100.164L168.145 100.707L168.451 110.843L168.449 114.262L168.509 114.275C169.142 112.987 169.688 111.942 170.146 111.14L175.23 102.213L177.752 102.749L169.109 117.132L166.617 116.602L166.196 106.693L166.191 103.303L166.131 103.29C165.552 104.527 165.043 105.548 164.605 106.354L159.832 115.16L157.31 114.624ZM183.934 97.8506L182.098 105.806L182.158 105.818C183.727 104.479 185.552 104.03 187.634 104.473C189.275 104.821 190.457 105.522 191.18 106.575C191.902 107.628 192.08 108.952 191.711 110.547L189.205 121.403L186.773 120.887L189.231 110.24C189.461 109.243 189.328 108.409 188.832 107.739C188.341 107.049 187.544 106.587 186.444 106.353C185.203 106.089 184.09 106.271 183.105 106.898C182.12 107.526 181.483 108.467 181.193 109.723L178.998 119.234L176.566 118.717L181.502 97.3337L183.934 97.8506ZM199.566 124.045C197.264 123.556 195.61 122.399 194.603 120.574C193.621 118.734 193.4 116.648 193.938 114.315C194.468 112.022 195.592 110.243 197.312 108.977C199.057 107.695 201.01 107.284 203.172 107.744C205.453 108.229 207.031 109.401 207.903 111.26C208.781 113.098 208.915 115.334 208.308 117.965L196.299 115.413C196.022 117.069 196.194 118.507 196.815 119.727C197.461 120.931 198.534 121.692 200.035 122.011C202.357 122.505 204.032 121.752 205.06 119.754L207.432 120.258C206.69 121.836 205.632 122.96 204.26 123.631C202.892 124.281 201.327 124.419 199.566 124.045ZM205.668 111.663C205.09 110.62 204.111 109.951 202.73 109.658C201.349 109.364 200.142 109.589 199.11 110.332C198.097 111.079 197.321 112.168 196.78 113.601L206.117 115.586C206.396 114.014 206.247 112.706 205.668 111.663ZM215.637 110.801L215.044 113.373L215.104 113.386C215.793 112.675 216.595 112.155 217.511 111.827C218.431 111.479 219.382 111.409 220.362 111.617C220.723 111.694 221.039 111.824 221.312 112.008L220.773 114.34L220.683 114.321C220.406 114.158 220.057 114.031 219.637 113.942C218.396 113.678 217.234 113.891 216.151 114.581C215.072 115.251 214.372 116.284 214.049 117.68L212.068 126.263L209.636 125.746L213.206 110.285L215.637 110.801ZM226.479 129.765C224.178 129.276 222.523 128.119 221.517 126.295C220.535 124.455 220.313 122.368 220.852 120.036C221.381 117.743 222.506 115.963 224.226 114.698C225.97 113.416 227.924 113.005 230.085 113.465C232.367 113.949 233.944 115.121 234.817 116.98C235.694 118.819 235.829 121.054 235.221 123.686L223.212 121.133C222.935 122.79 223.107 124.228 223.728 125.447C224.374 126.651 225.448 127.413 226.949 127.732C229.27 128.225 230.945 127.473 231.974 125.474L234.346 125.978C233.603 127.557 232.546 128.681 231.173 129.351C229.805 130.002 228.241 130.14 226.479 129.765ZM232.582 117.384C232.004 116.34 231.024 115.672 229.643 115.379C228.262 115.085 227.056 115.31 226.023 116.052C225.011 116.799 224.234 117.889 223.694 119.322L233.03 121.307C233.309 119.734 233.16 118.427 232.582 117.384ZM242.73 138.145C241.809 137.95 241.104 137.685 240.614 137.351L241.111 135.197L241.231 135.223C241.581 135.527 242.106 135.754 242.806 135.903C243.347 136.018 243.829 135.974 244.254 135.771C244.674 135.589 245.107 135.168 245.553 134.51L246.506 133.112L243.907 116.81L246.549 117.372L247.989 127.78L248.342 131.024L248.402 131.037C249.029 129.957 249.602 129.023 250.12 128.233L255.886 119.357L258.468 119.905L247.974 135.213C247.023 136.6 246.168 137.485 245.408 137.868C244.643 138.27 243.75 138.362 242.73 138.145ZM269.436 136.449C267.716 137.715 265.725 138.107 263.463 137.627C261.201 137.146 259.559 135.981 258.537 134.133C257.535 132.288 257.301 130.209 257.835 127.897C258.369 125.584 259.496 123.795 261.216 122.529C262.956 121.267 264.957 120.877 267.219 121.358C269.481 121.838 271.113 123.001 272.115 124.845C273.116 126.69 273.351 128.768 272.817 131.081C272.283 133.394 271.156 135.183 269.436 136.449ZM260.603 133.097C261.222 134.421 262.331 135.253 263.933 135.593C265.534 135.933 266.896 135.627 268.019 134.673C269.146 133.7 269.915 132.326 270.325 130.551C270.739 128.757 270.637 127.198 270.019 125.874C269.425 124.535 268.338 123.697 266.756 123.361C265.155 123.021 263.781 123.335 262.633 124.305C261.506 125.278 260.737 126.652 260.327 128.426C259.918 130.201 260.01 131.758 260.603 133.097ZM286.37 142.056L283.938 141.54L284.428 139.416L284.368 139.403C282.765 140.799 281.013 141.294 279.112 140.89C277.511 140.55 276.343 139.831 275.61 138.734C274.881 137.617 274.7 136.261 275.069 134.666L277.54 123.959L279.972 124.476L277.514 135.123C277.284 136.12 277.405 136.961 277.876 137.647C278.368 138.337 279.164 138.799 280.265 139.033C281.486 139.293 282.561 139.092 283.49 138.432C284.42 137.772 285.027 136.824 285.312 135.588L287.508 126.078L289.94 126.595L286.37 142.056ZM75.7284 120.954L76.1841 118.981L78.3157 119.434L78.8888 116.951C79.1834 115.675 79.7454 114.833 80.5748 114.423C81.4088 113.994 82.4963 113.922 83.8373 114.207C84.2176 114.288 84.6233 114.395 85.0544 114.528L84.578 116.592C84.3024 116.512 84.0445 116.447 83.8043 116.396C83.0237 116.23 82.4457 116.233 82.0702 116.404C81.6947 116.575 81.4357 116.97 81.293 117.588L80.7475 119.951L83.6297 120.563L83.174 122.537L80.2918 121.924L77.1779 135.412L74.7461 134.895L77.86 121.407L75.7284 120.954ZM89.1291 138.392C86.8274 137.902 85.1733 136.746 84.1667 134.921C83.1847 133.081 82.963 130.994 83.5016 128.662C84.0309 126.369 85.1556 124.59 86.8756 123.324C88.6203 122.042 90.5734 121.631 92.735 122.091C95.0167 122.576 96.5939 123.748 97.4666 125.606C98.3439 127.445 98.4788 129.68 97.8712 132.312L85.8622 129.76C85.5849 131.416 85.7568 132.854 86.3781 134.073C87.024 135.277 88.0975 136.039 89.5986 136.358C91.9204 136.852 93.5954 136.099 94.6237 134.101L96.9955 134.605C96.2532 136.183 95.1957 137.307 93.8231 137.978C92.4551 138.628 90.8905 138.766 89.1291 138.392ZM95.2318 126.01C94.6537 124.967 93.6742 124.298 92.2932 124.005C90.9121 123.711 89.7054 123.936 88.6731 124.678C87.6608 125.425 86.8842 126.515 86.3434 127.948L95.6804 129.933C95.9594 128.361 95.8098 127.053 95.2318 126.01ZM105.738 141.922C103.436 141.433 101.782 140.276 100.775 138.451C99.7932 136.611 99.5715 134.525 100.11 132.192C100.639 129.899 101.764 128.12 103.484 126.854C105.229 125.572 107.182 125.161 109.343 125.621C111.625 126.106 113.202 127.278 114.075 129.137C114.952 130.975 115.087 133.211 114.48 135.842L102.471 133.29C102.193 134.946 102.365 136.384 102.987 137.604C103.632 138.808 104.706 139.569 106.207 139.888C108.529 140.382 110.204 139.629 111.232 137.631L113.604 138.135C112.862 139.713 111.804 140.837 110.432 141.508C109.064 142.158 107.499 142.296 105.738 141.922ZM111.84 129.54C111.262 128.497 110.283 127.828 108.902 127.535C107.521 127.241 106.314 127.466 105.282 128.209C104.269 128.956 103.493 130.046 102.952 131.478L112.289 133.463C112.568 131.891 112.418 130.583 111.84 129.54ZM115.898 143.642L120.835 122.259L123.266 122.776L118.33 144.159L115.898 143.642Z" fill="#FAFAFA"/>
<path d="M134.855 131.577L134.288 134.029L134.379 134.048C135.066 133.253 135.748 132.708 136.425 132.413C137.107 132.097 137.888 132.033 138.769 132.221C139.189 132.31 139.5 132.418 139.702 132.544L138.88 136.103L138.79 136.084C137.442 135.651 136.262 135.714 135.251 136.273C134.24 136.832 133.553 137.899 133.189 139.474L131.463 146.951L127.38 146.083L130.922 130.741L134.855 131.577ZM145.198 150.341C142.716 149.813 140.939 148.641 139.868 146.824C138.801 144.986 138.542 142.881 139.09 140.509C139.619 138.216 140.771 136.453 142.547 135.22C144.327 133.967 146.328 133.576 148.55 134.049C150.971 134.563 152.649 135.798 153.584 137.754C154.518 139.71 154.661 142.093 154.012 144.904L142.843 142.53C142.723 143.78 142.914 144.815 143.418 145.633C143.927 146.431 144.752 146.952 145.893 147.194C147.394 147.513 148.529 147.096 149.3 145.942L153.323 146.797C152.691 148.169 151.654 149.203 150.213 149.901C148.771 150.598 147.099 150.745 145.198 150.341ZM147.885 137.201C145.903 136.78 144.459 137.624 143.552 139.732L150.398 141.187C150.563 140.197 150.415 139.339 149.952 138.614C149.495 137.868 148.805 137.397 147.885 137.201ZM161.138 153.729C158.936 153.261 157.325 152.417 156.305 151.196C155.29 149.955 154.916 148.485 155.182 146.784L158.965 147.588C158.834 149.338 159.759 150.424 161.741 150.845C162.641 151.037 163.369 151.024 163.923 150.807C164.497 150.594 164.846 150.219 164.97 149.681C165.016 149.481 165.018 149.293 164.974 149.117C164.951 148.944 164.863 148.779 164.711 148.621C164.583 148.448 164.458 148.306 164.336 148.197C164.235 148.092 164.033 147.965 163.731 147.817C163.429 147.669 163.193 147.556 163.022 147.478C162.871 147.404 162.592 147.293 162.186 147.144C161.804 146.979 161.538 146.859 161.387 146.785C160.583 146.447 159.929 146.141 159.426 145.867C158.947 145.577 158.454 145.21 157.947 144.768C157.445 144.306 157.108 143.763 156.937 143.141C156.79 142.504 156.809 141.786 156.993 140.989C157.361 139.394 158.222 138.301 159.576 137.71C160.951 137.124 162.558 137.026 164.4 137.418C166.381 137.839 167.826 138.627 168.736 139.782C169.669 140.922 170.034 142.297 169.831 143.906L166.138 143.121C166.323 141.591 165.505 140.633 163.684 140.246C162.863 140.072 162.178 140.083 161.629 140.28C161.099 140.481 160.773 140.851 160.648 141.389C160.607 141.568 160.598 141.744 160.621 141.917C160.669 142.073 160.759 142.228 160.891 142.382C161.049 142.52 161.198 142.646 161.34 142.76C161.486 142.853 161.7 142.972 161.982 143.116C162.268 143.239 162.515 143.354 162.721 143.461C162.932 143.548 163.218 143.671 163.58 143.832C163.947 143.973 164.235 144.086 164.446 144.173C165.055 144.449 165.545 144.689 165.918 144.894C166.315 145.083 166.754 145.364 167.235 145.738C167.72 146.092 168.076 146.461 168.302 146.844C168.553 147.211 168.727 147.687 168.823 148.272C168.943 148.841 168.923 149.475 168.762 150.173C168.412 151.688 167.533 152.767 166.125 153.409C164.742 154.035 163.079 154.142 161.138 153.729ZM169.009 160.202L173.711 139.836L177.644 140.672L177.202 142.586L177.292 142.605C178.792 141.292 180.482 140.836 182.364 141.236C184.385 141.666 185.834 142.758 186.709 144.513C187.585 146.268 187.744 148.351 187.188 150.764C186.617 153.236 185.551 155.08 183.989 156.296C182.432 157.492 180.653 157.877 178.651 157.452C176.65 157.026 175.337 155.984 174.712 154.324L174.652 154.311L173.092 161.07L169.009 160.202ZM178.561 153.887C179.602 154.108 180.517 153.874 181.306 153.184C182.115 152.499 182.685 151.438 183.017 150.003C183.371 148.467 183.36 147.2 182.982 146.199C182.604 145.198 181.814 144.57 180.613 144.315C179.392 144.056 178.386 144.323 177.594 145.116C176.806 145.89 176.242 147.015 175.902 148.49C175.575 149.906 175.635 151.1 176.082 152.074C176.534 153.027 177.36 153.632 178.561 153.887ZM195.052 160.938C192.57 160.41 190.794 159.238 189.723 157.42C188.656 155.583 188.397 153.478 188.944 151.106C189.474 148.813 190.626 147.05 192.402 145.817C194.182 144.564 196.183 144.173 198.404 144.645C200.826 145.16 202.504 146.395 203.438 148.351C204.373 150.307 204.515 152.69 203.866 155.501L192.698 153.127C192.577 154.377 192.769 155.412 193.273 156.23C193.782 157.028 194.606 157.549 195.747 157.791C197.248 158.11 198.384 157.693 199.154 156.539L203.177 157.394C202.546 158.766 201.509 159.8 200.067 160.498C198.625 161.195 196.954 161.342 195.052 160.938ZM197.739 147.798C195.758 147.377 194.314 148.221 193.407 150.329L200.252 151.784C200.418 150.794 200.269 149.936 199.807 149.211C199.349 148.465 198.66 147.994 197.739 147.798ZM211.893 164.517C209.511 164.011 207.777 162.837 206.691 160.996C205.604 159.154 205.33 157.067 205.868 154.734C206.407 152.402 207.554 150.617 209.309 149.379C211.085 148.146 213.124 147.774 215.425 148.263C217.367 148.676 218.831 149.521 219.817 150.797C220.803 152.073 221.238 153.599 221.122 155.373L217.129 154.524C217.15 153.796 216.961 153.16 216.562 152.615C216.163 152.07 215.593 151.719 214.853 151.562C213.652 151.306 212.632 151.539 211.794 152.26C210.955 152.982 210.361 154.1 210.012 155.615C209.666 157.11 209.703 158.363 210.121 159.372C210.543 160.361 211.355 160.983 212.556 161.238C214.337 161.617 215.568 160.969 216.249 159.294L220.182 160.13C219.65 161.795 218.635 163.054 217.137 163.906C215.642 164.739 213.895 164.943 211.893 164.517ZM223.333 153.207L223.955 150.516L226.086 150.969L227.191 146.184L231.184 147.032L230.079 151.817L232.721 152.379L232.1 155.071L229.458 154.509L227.58 162.644C227.345 163.66 227.738 164.277 228.759 164.494L229.967 164.72L229.276 167.71C228.646 167.618 227.791 167.457 226.71 167.228C225.53 166.977 224.603 166.487 223.932 165.758C223.264 165.01 223.083 163.978 223.387 162.662L225.465 153.66L223.333 153.207ZM238.867 170.251C236.386 169.723 234.609 168.551 233.538 166.734C232.471 164.896 232.212 162.791 232.759 160.419C233.289 158.126 234.441 156.363 236.217 155.13C237.997 153.877 239.998 153.486 242.219 153.959C244.641 154.473 246.319 155.709 247.253 157.664C248.188 159.62 248.33 162.003 247.681 164.814L236.513 162.44C236.392 163.691 236.584 164.725 237.088 165.543C237.597 166.341 238.421 166.862 239.562 167.104C241.063 167.423 242.199 167.006 242.969 165.852L246.992 166.707C246.361 168.079 245.324 169.113 243.882 169.811C242.44 170.508 240.769 170.655 238.867 170.251ZM241.554 157.112C239.573 156.69 238.129 157.534 237.222 159.642L244.067 161.097C244.233 160.107 244.084 159.249 243.622 158.524C243.164 157.778 242.475 157.307 241.554 157.112ZM254.327 173.537C252.386 173.124 250.983 172.063 250.118 170.352C249.257 168.621 249.113 166.52 249.683 164.048C250.236 161.655 251.295 159.841 252.861 158.605C254.452 157.354 256.208 156.932 258.129 157.34C260.051 157.749 261.327 158.815 261.958 160.539L262.048 160.558L263.871 152.663L267.954 153.53L263.017 174.913L259.084 174.078L259.547 172.074L259.487 172.061C258.109 173.483 256.389 173.975 254.327 173.537ZM256.015 170.319C257.216 170.574 258.221 170.359 259.03 169.674C259.859 168.992 260.44 167.934 260.771 166.498C261.526 163.229 260.712 161.341 258.331 160.834C257.23 160.6 256.288 160.86 255.505 161.614C254.722 162.368 254.163 163.473 253.827 164.928C253.481 166.424 253.495 167.639 253.866 168.576C254.258 169.517 254.974 170.098 256.015 170.319ZM264.916 180.525L265.254 179.06C266.865 178.628 267.855 177.615 268.223 176.02L266.032 175.554L267.033 171.218L271.416 172.149L270.47 176.247C270.139 177.682 269.449 178.759 268.401 179.478C267.369 180.22 266.207 180.57 264.916 180.525ZM70.5286 177.31C68.4471 176.868 66.8725 176.094 65.8049 174.988C64.7573 173.887 64.2983 172.556 64.428 170.993L68.481 171.855C68.6189 173.077 69.5185 173.864 71.1797 174.217C73.4614 174.702 74.8485 173.878 75.341 171.744L75.7277 170.07L75.6376 170.051C74.3007 171.021 72.8216 171.334 71.2004 170.99C69.379 170.603 67.942 169.597 66.8894 167.971C65.8568 166.351 65.596 164.434 66.1069 162.221C66.6316 159.948 67.671 158.265 69.2249 157.173C70.7834 156.061 72.5434 155.714 74.5049 156.131C76.3663 156.526 77.6308 157.506 78.2985 159.071L78.3586 159.083L78.7314 157.468L82.6644 158.304L79.3917 172.48C78.9314 174.474 77.9619 175.899 76.4832 176.756C74.9753 177.649 72.9904 177.833 70.5286 177.31ZM72.6435 167.877C73.8644 168.136 74.8648 167.941 75.6448 167.291C76.4247 166.641 76.9551 165.708 77.2359 164.492C77.5121 163.296 77.4197 162.241 76.9587 161.327C76.5224 160.398 75.7138 159.807 74.5329 159.556C73.4921 159.335 72.564 159.535 71.7486 160.157C70.9533 160.783 70.4083 161.733 70.1137 163.009C69.8145 164.305 69.89 165.388 70.3401 166.258C70.8149 167.112 71.5827 167.651 72.6435 167.877ZM96.0121 177.236L92.0791 176.4L92.4934 174.606L92.4033 174.587C91.668 175.225 90.9187 175.652 90.1553 175.866C89.412 176.084 88.5199 176.083 87.4791 175.862C85.7979 175.504 84.602 174.727 83.8914 173.531C83.1809 172.334 83.0212 170.888 83.4125 169.193L85.7738 158.965L89.8268 159.827L87.6243 169.367C87.1962 171.221 87.8328 172.329 89.5341 172.691C90.4748 172.891 91.299 172.731 92.0067 172.212C92.7144 171.693 93.1879 170.915 93.4273 169.879L95.471 161.026L99.554 161.894L96.0121 177.236ZM99.2535 177.925L102.796 162.583L106.879 163.451L103.337 178.793L99.2535 177.925ZM103.348 160.191L104.19 156.542L108.273 157.41L107.431 161.059L103.348 160.191ZM112.229 181.154C110.287 180.741 108.884 179.68 108.019 177.969C107.159 176.238 107.014 174.137 107.585 171.664C108.137 169.272 109.197 167.458 110.763 166.222C112.353 164.97 114.11 164.549 116.031 164.957C117.952 165.366 119.229 166.432 119.859 168.156L119.95 168.175L121.772 160.279L125.855 161.147L120.919 182.53L116.986 181.694L117.448 179.691L117.388 179.678C116.01 181.1 114.29 181.592 112.229 181.154ZM113.916 177.936C115.117 178.191 116.122 177.976 116.932 177.291C117.761 176.609 118.341 175.551 118.672 174.115C119.427 170.846 118.614 168.958 116.232 168.451C115.131 168.217 114.189 168.477 113.406 169.231C112.624 169.985 112.064 171.09 111.728 172.545C111.383 174.04 111.396 175.256 111.768 176.193C112.159 177.134 112.876 177.715 113.916 177.936ZM131.305 185.209C128.823 184.681 127.047 183.509 125.975 181.691C124.909 179.854 124.649 177.749 125.197 175.377C125.726 173.084 126.879 171.321 128.654 170.088C130.434 168.835 132.435 168.444 134.657 168.916C137.079 169.431 138.757 170.666 139.691 172.622C140.626 174.577 140.768 176.961 140.119 179.772L128.951 177.398C128.83 178.648 129.022 179.683 129.526 180.501C130.034 181.299 130.859 181.82 132 182.062C133.501 182.381 134.637 181.964 135.407 180.81L139.43 181.665C138.799 183.037 137.762 184.071 136.32 184.769C134.878 185.466 133.206 185.613 131.305 185.209ZM133.992 172.069C132.011 171.648 130.567 172.492 129.66 174.6L136.505 176.055C136.671 175.065 136.522 174.207 136.06 173.481C135.602 172.736 134.913 172.265 133.992 172.069ZM146.765 188.495C144.823 188.082 143.42 187.02 142.555 185.31C141.695 183.579 141.55 181.478 142.121 179.005C142.674 176.613 143.733 174.799 145.299 173.563C146.89 172.311 148.646 171.89 150.567 172.298C152.489 172.707 153.765 173.773 154.396 175.496L154.486 175.516L156.309 167.62L160.392 168.488L155.455 189.871L151.522 189.035L151.985 187.032L151.925 187.019C150.546 188.441 148.826 188.933 146.765 188.495ZM148.453 185.277C149.654 185.532 150.659 185.317 151.468 184.631C152.297 183.95 152.877 182.892 153.209 181.456C153.964 178.186 153.15 176.298 150.768 175.792C149.668 175.558 148.726 175.818 147.943 176.572C147.16 177.326 146.6 178.431 146.264 179.886C145.919 181.381 145.932 182.597 146.304 183.534C146.696 184.475 147.412 185.056 148.453 185.277ZM157.353 195.483L157.692 194.017C159.303 193.586 160.293 192.573 160.661 190.978L158.469 190.512L159.47 186.176L163.854 187.107L162.908 191.204C162.576 192.64 161.887 193.717 160.839 194.435C159.807 195.178 158.645 195.527 157.353 195.483ZM181.189 195.341C181.048 195.039 181.019 194.437 181.102 193.534L181.042 193.522C180.449 194.086 179.772 194.475 179.008 194.689C178.245 194.904 177.253 194.881 176.032 194.622C174.411 194.277 173.204 193.592 172.412 192.566C171.62 191.54 171.397 190.279 171.742 188.784C172.101 187.229 172.904 186.207 174.15 185.719C175.401 185.211 177.04 185.026 179.066 185.164C180.553 185.271 181.58 185.28 182.146 185.191C182.717 185.083 183.065 184.759 183.189 184.221C183.318 183.662 183.199 183.177 182.832 182.764C182.47 182.332 181.869 182.026 181.028 181.848C179.167 181.452 178.01 181.959 177.559 183.369L173.926 182.597C174.322 181.154 175.191 180.074 176.533 179.355C177.875 178.636 179.606 178.502 181.728 178.953C186.051 179.872 187.778 182.216 186.908 185.984L185.106 193.789C184.839 194.946 184.856 195.692 185.156 196.028L185.121 196.177L181.189 195.341ZM177.679 191.991C178.799 192.229 179.747 192.127 180.521 191.685C181.315 191.247 181.804 190.63 181.988 189.832L182.52 187.53C182.019 187.695 181 187.792 179.46 187.82C178.24 187.833 177.35 187.958 176.791 188.194C176.237 188.411 175.882 188.859 175.726 189.537C175.426 190.833 176.077 191.651 177.679 191.991ZM195.312 182.248L194.829 184.342L194.919 184.361C196.366 182.912 198.081 182.398 200.062 182.819C201.643 183.155 202.8 183.965 203.532 185.251C204.269 186.516 204.442 187.996 204.051 189.69L201.738 199.709L197.655 198.841L199.829 189.421C200.023 188.583 199.939 187.854 199.578 187.234C199.238 186.618 198.647 186.22 197.807 186.041C196.906 185.85 196.079 186.019 195.327 186.55C194.595 187.084 194.109 187.87 193.869 188.907L191.86 197.609L187.777 196.742L191.319 181.4L195.312 182.248ZM210.516 202.045C208.574 201.633 207.171 200.571 206.306 198.86C205.446 197.13 205.301 195.028 205.872 192.556C206.424 190.163 207.483 188.349 209.049 187.113C210.64 185.862 212.396 185.44 214.318 185.849C216.239 186.257 217.515 187.323 218.146 189.047L218.236 189.066L220.059 181.171L224.142 182.039L219.205 203.422L215.273 202.586L215.735 200.582L215.675 200.569C214.297 201.992 212.577 202.484 210.516 202.045ZM212.203 198.827C213.404 199.083 214.409 198.868 215.218 198.182C216.048 197.501 216.628 196.442 216.959 195.007C217.714 191.737 216.901 189.849 214.519 189.343C213.418 189.109 212.476 189.369 211.693 190.123C210.91 190.876 210.351 191.981 210.015 193.437C209.67 194.932 209.683 196.148 210.055 197.084C210.446 198.025 211.163 198.606 212.203 198.827ZM56.6286 206.686L60.1706 191.344L64.2537 192.212L60.7117 207.554L56.6286 206.686ZM60.723 188.951L61.5653 185.303L65.6484 186.171L64.806 189.819L60.723 188.951ZM71.478 193.747L70.9947 195.841L71.0848 195.86C72.5322 194.411 74.2467 193.897 76.2281 194.318C77.8093 194.654 78.966 195.465 79.6982 196.75C80.4349 198.015 80.6077 199.495 80.2165 201.189L77.9035 211.208L73.8204 210.34L75.9953 200.92C76.1886 200.082 76.105 199.353 75.7443 198.733C75.4036 198.117 74.813 197.719 73.9724 197.54C73.0717 197.349 72.2452 197.518 71.4928 198.049C70.7605 198.583 70.2747 199.369 70.0353 200.406L68.0261 209.109L63.9431 208.241L67.4851 192.899L71.478 193.747ZM87.1617 213.647C84.9601 213.179 83.3493 212.334 82.3293 211.113C81.3139 209.873 80.9395 208.402 81.2061 206.702L84.9889 207.506C84.8578 209.256 85.783 210.342 87.7645 210.763C88.6652 210.954 89.3925 210.941 89.9465 210.725C90.5205 210.512 90.8697 210.136 90.994 209.598C91.04 209.399 91.0414 209.211 90.9981 209.034C90.9749 208.862 90.8871 208.697 90.7345 208.539C90.6066 208.365 90.4818 208.224 90.3602 208.114C90.2585 208.009 90.0567 207.883 89.7549 207.735C89.4531 207.587 89.2167 207.474 89.0458 207.396C88.8949 207.322 88.6161 207.21 88.2096 207.061C87.8278 206.896 87.5614 206.777 87.4104 206.703C86.6066 206.365 85.9529 206.059 85.4494 205.784C84.9704 205.494 84.4775 205.128 83.9708 204.686C83.4686 204.223 83.1318 203.681 82.9605 203.059C82.8137 202.421 82.8324 201.704 83.0166 200.906C83.3848 199.311 84.246 198.218 85.6002 197.628C86.9744 197.041 88.5822 196.944 90.4236 197.335C92.405 197.756 93.8503 198.545 94.7594 199.7C95.6931 200.84 96.0582 202.214 95.8547 203.823L92.162 203.038C92.3471 201.509 91.5289 200.551 89.7076 200.164C88.887 199.989 88.202 200 87.6526 200.197C87.1232 200.399 86.7964 200.768 86.6721 201.307C86.6306 201.486 86.6215 201.662 86.6448 201.834C86.6926 201.991 86.7828 202.146 86.9153 202.3C87.0724 202.438 87.2218 202.563 87.3635 202.677C87.5098 202.771 87.7239 202.89 88.0057 203.033C88.2921 203.157 88.5385 203.272 88.7449 203.379C88.9558 203.465 89.2422 203.589 89.6041 203.75C89.9706 203.89 90.2593 204.004 90.4702 204.09C91.0785 204.366 91.569 204.606 91.9416 204.811C92.3389 205 92.7779 205.282 93.2584 205.656C93.7436 206.01 94.0995 206.378 94.3261 206.761C94.5772 207.128 94.7508 207.604 94.8467 208.19C94.9672 208.759 94.9469 209.393 94.7858 210.09C94.4359 211.606 93.557 212.684 92.149 213.326C90.7656 213.952 89.1032 214.059 87.1617 213.647ZM95.0325 220.12L99.7344 199.753L103.667 200.589L103.225 202.503L103.316 202.523C104.815 201.21 106.506 200.754 108.387 201.154C110.409 201.583 111.858 202.675 112.733 204.43C113.609 206.185 113.768 208.269 113.211 210.681C112.641 213.153 111.574 214.998 110.013 216.213C108.456 217.409 106.677 217.795 104.675 217.369C102.674 216.944 101.361 215.901 100.736 214.242L100.676 214.229L99.1156 220.988L95.0325 220.12ZM104.585 213.805C105.626 214.026 106.541 213.792 107.33 213.102C108.139 212.416 108.709 211.356 109.041 209.92C109.395 208.385 109.383 207.117 109.005 206.116C108.628 205.116 107.838 204.488 106.637 204.233C105.416 203.973 104.41 204.24 103.618 205.034C102.83 205.808 102.266 206.932 101.925 208.408C101.599 209.823 101.659 211.018 102.106 211.991C102.558 212.945 103.384 213.549 104.585 213.805ZM113.944 218.869L117.486 203.527L121.569 204.395L118.027 219.737L113.944 218.869ZM118.039 201.134L118.881 197.486L122.964 198.354L122.122 202.002L118.039 201.134ZM128.734 205.917L128.168 208.37L128.258 208.389C128.945 207.594 129.627 207.049 130.304 206.753C130.986 206.438 131.767 206.374 132.648 206.561C133.068 206.651 133.379 206.759 133.581 206.885L132.759 210.444L132.669 210.425C131.321 209.992 130.141 210.055 129.13 210.614C128.119 211.173 127.432 212.24 127.068 213.815L125.342 221.291L121.259 220.423L124.801 205.082L128.734 205.917ZM139.077 224.681C136.595 224.154 134.818 222.981 133.747 221.164C132.68 219.327 132.421 217.222 132.969 214.849C133.498 212.557 134.65 210.794 136.426 209.56C138.206 208.307 140.207 207.917 142.429 208.389C144.85 208.904 146.528 210.139 147.463 212.095C148.397 214.05 148.54 216.434 147.891 219.245L136.722 216.871C136.602 218.121 136.793 219.155 137.297 219.974C137.806 220.772 138.631 221.292 139.772 221.535C141.273 221.854 142.408 221.436 143.179 220.283L147.202 221.138C146.57 222.509 145.533 223.544 144.092 224.241C142.65 224.939 140.978 225.086 139.077 224.681ZM141.764 211.542C139.782 211.121 138.338 211.964 137.432 214.072L144.277 215.527C144.442 214.538 144.294 213.68 143.831 212.954C143.374 212.209 142.684 211.738 141.764 211.542ZM154.537 227.968C152.595 227.555 151.192 226.493 150.327 224.782C149.467 223.052 149.322 220.95 149.893 218.478C150.445 216.086 151.504 214.271 153.071 213.036C154.661 211.784 156.417 211.363 158.339 211.771C160.26 212.179 161.536 213.245 162.167 214.969L162.257 214.988L164.08 207.093L168.163 207.961L163.227 229.344L159.294 228.508L159.756 226.504L159.696 226.492C158.318 227.914 156.598 228.406 154.537 227.968ZM156.224 224.75C157.425 225.005 158.43 224.79 159.239 224.104C160.069 223.423 160.649 222.364 160.98 220.929C161.735 217.659 160.922 215.771 158.54 215.265C157.439 215.031 156.497 215.291 155.714 216.045C154.931 216.799 154.372 217.903 154.036 219.359C153.691 220.854 153.704 222.07 154.076 223.007C154.467 223.947 155.184 224.528 156.224 224.75ZM166.241 229.985L167.242 225.648L171.625 226.58L170.624 230.916L166.241 229.985Z" fill="#32EEFF"/>
<defs>
<filter id="filter0_f_2307_1271" x="17.6165" y="97.4658" width="669.257" height="401.138" filterUnits="userSpaceOnUse" color-interpolation-filters="sRGB">
<feFlood flood-opacity="0" result="BackgroundImageFix"/>
<feBlend mode="normal" in="SourceGraphic" in2="BackgroundImageFix" result="shape"/>
<feGaussianBlur stdDeviation="4" result="effect1_foregroundBlur_2307_1271"/>
</filter>
<filter id="filter1_n_2307_1271" x="-6.43274" y="197.744" width="326.839" height="203.531" filterUnits="userSpaceOnUse" color-interpolation-filters="sRGB">
<feFlood flood-opacity="0" result="BackgroundImageFix"/>
<feBlend mode="normal" in="SourceGraphic" in2="BackgroundImageFix" result="shape"/>
<feTurbulence type="fractalNoise" baseFrequency="1 1" stitchTiles="stitch" numOctaves="3" result="noise" seed="1706" />
<feColorMatrix in="noise" type="luminanceToAlpha" result="alphaNoise" />
<feComponentTransfer in="alphaNoise" result="coloredNoise1">
<feFuncA type="discrete" tableValues="1 1 1 1 1 1 1 1 1 1 1 1 1 1 1 1 1 1 1 1 1 1 1 1 1 1 1 1 1 1 1 1 1 1 1 1 1 1 1 1 1 1 1 1 1 1 1 1 1 1 1 0 0 0 0 0 0 0 0 0 0 0 0 0 0 0 0 0 0 0 0 0 0 0 0 0 0 0 0 0 0 0 0 0 0 0 0 0 0 0 0 0 0 0 0 0 0 0 0 0 "/>
</feComponentTransfer>
<feComposite operator="in" in2="shape" in="coloredNoise1" result="noise1Clipped" />
<feFlood flood-color="rgba(0, 0, 0, 0.05)" result="color1Flood" />
<feComposite operator="in" in2="noise1Clipped" in="color1Flood" result="color1" />
<feMerge result="effect1_noise_2307_1271">
<feMergeNode in="shape" />
<feMergeNode in="color1" />
</feMerge>
</filter>
<filter id="filter2_n_2307_1271" x="238.939" y="53.2207" width="109.876" height="335.988" filterUnits="userSpaceOnUse" color-interpolation-filters="sRGB">
<feFlood flood-opacity="0" result="BackgroundImageFix"/>
<feBlend mode="normal" in="SourceGraphic" in2="BackgroundImageFix" result="shape"/>
<feTurbulence type="fractalNoise" baseFrequency="1 1" stitchTiles="stitch" numOctaves="3" result="noise" seed="1706" />
<feColorMatrix in="noise" type="luminanceToAlpha" result="alphaNoise" />
<feComponentTransfer in="alphaNoise" result="coloredNoise1">
<feFuncA type="discrete" tableValues="1 1 1 1 1 1 1 1 1 1 1 1 1 1 1 1 1 1 1 1 1 1 1 1 1 1 1 1 1 1 1 1 1 1 1 1 1 1 1 1 1 1 1 1 1 1 1 1 1 1 1 0 0 0 0 0 0 0 0 0 0 0 0 0 0 0 0 0 0 0 0 0 0 0 0 0 0 0 0 0 0 0 0 0 0 0 0 0 0 0 0 0 0 0 0 0 0 0 0 0 "/>
</feComponentTransfer>
<feComposite operator="in" in2="shape" in="coloredNoise1" result="noise1Clipped" />
<feFlood flood-color="rgba(0, 0, 0, 0.05)" result="color1Flood" />
<feComposite operator="in" in2="noise1Clipped" in="color1Flood" result="color1" />
<feMerge result="effect1_noise_2307_1271">
<feMergeNode in="shape" />
<feMergeNode in="color1" />
</feMerge>
</filter>
<filter id="filter3_n_2307_1271" x="0" y="0" width="338.152" height="353.849" filterUnits="userSpaceOnUse" color-interpolation-filters="sRGB">
<feFlood flood-opacity="0" result="BackgroundImageFix"/>
<feBlend mode="normal" in="SourceGraphic" in2="BackgroundImageFix" result="shape"/>
<feTurbulence type="fractalNoise" baseFrequency="1 1" stitchTiles="stitch" numOctaves="3" result="noise" seed="1706" />
<feColorMatrix in="noise" type="luminanceToAlpha" result="alphaNoise" />
<feComponentTransfer in="alphaNoise" result="coloredNoise1">
<feFuncA type="discrete" tableValues="1 1 1 1 1 1 1 1 1 1 1 1 1 1 1 1 1 1 1 1 1 1 1 1 1 1 1 1 1 1 1 1 1 1 1 1 1 1 1 1 1 1 1 1 1 1 1 1 1 1 1 0 0 0 0 0 0 0 0 0 0 0 0 0 0 0 0 0 0 0 0 0 0 0 0 0 0 0 0 0 0 0 0 0 0 0 0 0 0 0 0 0 0 0 0 0 0 0 0 0 "/>
</feComponentTransfer>
<feComposite operator="in" in2="shape" in="coloredNoise1" result="noise1Clipped" />
<feFlood flood-color="rgba(0, 0, 0, 0.05)" result="color1Flood" />
<feComposite operator="in" in2="noise1Clipped" in="color1Flood" result="color1" />
<feMerge result="effect1_noise_2307_1271">
<feMergeNode in="shape" />
<feMergeNode in="color1" />
</feMerge>
</filter>
<linearGradient id="paint0_linear_2307_1271" x1="654.807" y1="298.035" x2="256.637" y2="217.145" gradientUnits="userSpaceOnUse">
<stop stop-color="#001524"/>
<stop offset="1" stop-color="#023F6E"/>
</linearGradient>
<linearGradient id="paint1_linear_2307_1271" x1="4.7538" y1="297.389" x2="287.534" y2="299.662" gradientUnits="userSpaceOnUse">
<stop stop-color="#0362A6"/>
<stop offset="1" stop-color="#32EEFF"/>
</linearGradient>
<linearGradient id="paint2_linear_2307_1271" x1="146.773" y1="313.689" x2="375.909" y2="124.511" gradientUnits="userSpaceOnUse">
<stop stop-color="#32EEFF"/>
<stop offset="1" stop-color="#0362A6"/>
</linearGradient>
<linearGradient id="paint3_linear_2307_1271" x1="0.131348" y1="191.819" x2="342.847" y2="191.819" gradientUnits="userSpaceOnUse">
<stop stop-color="#0A7FD2"/>
<stop offset="1" stop-color="#32EEFF"/>
</linearGradient>
</defs>
</svg>
