<svg width="487" height="454" viewBox="0 0 487 454" fill="none" xmlns="http://www.w3.org/2000/svg">
<g filter="url(#filter0_f_2234_940)">
<path d="M74.6255 382.499L25.6165 333.739L346.727 105.466L466.809 129.697L478.409 122.862L405.958 440.224L394.93 445.312L74.6255 382.499Z" fill="#001524" fill-opacity="0.3"/>
</g>
<mask id="mask0_2234_940" style="mask-type:alpha" maskUnits="userSpaceOnUse" x="0" y="55" width="347" height="332">
<path d="M214.558 264.716L0.0117188 298.743L25.6233 333.746L282.373 386.301C309.532 274.307 319.809 216.518 346.969 104.524L338.049 55.0967L214.558 264.716Z" fill="#D9D9D9"/>
</mask>
<g mask="url(#mask0_2234_940)">
<g filter="url(#filter1_n_2234_940)">
<path d="M24.0971 342.285L286.054 401.275L320.406 255.031L16.9149 197.744L-6.43271 297.733L24.0971 342.285Z" fill="url(#paint0_linear_2234_940)"/>
</g>
<g filter="url(#filter2_n_2234_940)">
<path d="M283.583 389.209L269.483 353.714L238.939 126.747L339.298 53.2207L348.815 105.771L283.583 389.209Z" fill="url(#paint1_linear_2234_940)"/>
</g>
</g>
<g filter="url(#filter3_n_2234_940)">
<path d="M338.152 55.1064L68.6007 0L0 298.755L269.574 353.849L338.152 55.1064Z" fill="url(#paint2_linear_2234_940)"/>
</g>
<path fill-rule="evenodd" clip-rule="evenodd" d="M249.432 318.217C249.835 316.407 249.82 314.528 249.389 312.724C248.957 310.921 248.12 309.239 246.941 307.807C246.113 307.057 245.167 306.449 244.142 306.005C250.815 302.677 252.256 291.771 244.932 288.636C244.63 288.532 244.3 288.545 244.008 288.672C243.715 288.799 243.481 289.032 243.351 289.323C243.221 289.615 243.205 289.944 243.307 290.247C243.408 290.55 243.619 290.803 243.899 290.958C249.577 293.604 246.344 306.346 235.767 301.806C229.188 298.86 232.901 286.854 242.016 289.418C242.281 289.452 242.549 289.391 242.774 289.247C242.998 289.102 243.165 288.883 243.244 288.628C243.322 288.373 243.309 288.098 243.204 287.852C243.1 287.606 242.913 287.405 242.675 287.284C240.541 286.47 238.196 286.391 236.013 287.061C233.83 287.731 231.933 289.111 230.623 290.983C229.314 292.854 228.667 295.109 228.786 297.39C228.905 299.671 229.782 301.846 231.278 303.572C229.544 303.792 227.889 304.433 226.458 305.438C225.028 306.443 223.864 307.782 223.068 309.338C222.361 306.726 220.713 304.468 218.441 302.998C214.687 300.595 214.955 301.839 217.178 300.618C225.814 296.053 227.663 281.317 218.21 277.304C217.91 277.211 217.587 277.23 217.301 277.359C217.015 277.488 216.786 277.718 216.659 278.005C216.531 278.292 216.513 278.615 216.609 278.914C216.704 279.213 216.906 279.467 217.177 279.626C226.331 284.026 220.242 303.477 205.162 296.384C195.237 292.123 200.606 273.457 214.382 277.453C214.589 277.514 214.81 277.514 215.017 277.452C215.224 277.389 215.408 277.267 215.546 277.101C215.684 276.935 215.771 276.732 215.795 276.518C215.819 276.303 215.779 276.086 215.681 275.894C215.614 275.766 215.523 275.652 215.411 275.56C215.3 275.467 215.172 275.398 215.034 275.355C212.031 274.248 208.738 274.211 205.712 275.251C202.685 276.291 200.11 278.344 198.422 281.063C196.734 283.782 196.036 287.001 196.447 290.175C196.858 293.348 198.351 296.283 200.676 298.483C198.394 298.942 196.196 299.749 194.16 300.877C189.967 303.185 192.143 304.001 191.01 299.899C190.461 297.746 189.108 295.884 187.23 294.697C185.724 293.868 185.931 294.134 186.182 293.998C188.516 292.674 190.267 290.522 191.092 287.969C191.916 285.416 191.754 282.647 190.636 280.207C189.454 278.139 186.059 275.253 185.106 277.364C184.986 277.669 184.984 278.009 185.101 278.316C185.218 278.622 185.445 278.874 185.738 279.022C189.984 281.193 188.49 288.516 184.367 290.502C183.248 290.89 182.062 291.038 180.883 290.939C179.703 290.84 178.558 290.495 177.52 289.927C170.938 286.981 174.618 274.968 183.769 277.539C184.034 277.573 184.302 277.513 184.527 277.368C184.752 277.224 184.918 277.005 184.997 276.75C185.076 276.494 185.062 276.22 184.958 275.974C184.854 275.728 184.666 275.527 184.428 275.405C182.294 274.591 179.95 274.512 177.766 275.182C175.583 275.852 173.686 277.233 172.377 279.104C171.067 280.975 170.421 283.23 170.539 285.511C170.658 287.792 171.535 289.968 173.031 291.693C170.686 292.035 168.488 293.049 166.704 294.606C165.741 295.464 164.963 296.509 164.417 297.678C163.871 298.847 163.568 300.114 163.528 301.403C163.522 301.668 163.61 301.927 163.776 302.135C163.941 302.342 164.174 302.484 164.434 302.537C164.694 302.59 164.965 302.551 165.198 302.425C165.432 302.299 165.614 302.095 165.712 301.849C166.824 299.844 168.449 298.172 170.42 297.001C171.94 295.711 173.657 294.678 175.511 293.944C177.552 294.856 179.786 295.248 182.015 295.084C183.971 296.464 185.529 298.337 186.529 300.51C187.481 302.26 188.193 304.132 188.632 306.075C187.425 307.879 186.705 309.964 186.54 312.127C186.534 312.393 186.622 312.651 186.787 312.859C186.953 313.066 187.186 313.209 187.446 313.262C187.706 313.315 187.976 313.275 188.21 313.149C188.443 313.023 188.625 312.819 188.724 312.573C189.399 310.506 190.638 308.674 192.297 307.27C194.79 305.104 197.523 303.226 200.436 301.672L203.117 300.578C203.288 300.562 203.452 300.506 203.598 300.414C206.244 301.654 209.147 302.246 212.066 302.142C215.715 304.807 218.416 308.569 219.776 312.878C220.526 314.907 221.058 317.015 221.363 319.158C221.405 319.461 221.554 319.739 221.783 319.941C222.012 320.143 222.306 320.257 222.612 320.26C222.918 320.264 223.214 320.157 223.448 319.961C223.682 319.764 223.837 319.49 223.886 319.188C224.01 317.564 224.006 315.933 223.874 314.31C224.478 313.725 223.841 313.371 226.107 311.043C226.43 310.736 228.79 309.021 229.096 308.785C230.598 307.472 232.323 306.437 234.188 305.728C236.197 306.611 238.394 306.996 240.584 306.846C242.438 308.291 243.875 310.203 244.739 312.385C245.738 314.275 246.454 316.305 246.862 318.402C246.902 318.73 247.067 319.03 247.323 319.24C247.578 319.45 247.905 319.554 248.235 319.531C248.564 319.507 248.873 319.358 249.095 319.113C249.318 318.869 249.439 318.548 249.432 318.217ZM190.163 232.69C190.695 230.083 191.762 230.152 190.892 229.116C190.021 228.081 189.597 228.33 188.331 230.534C187.517 232.15 186.848 234.882 186.422 235.873C181.859 246.684 179.149 258.185 178.405 269.895C178.38 270.236 178.486 270.572 178.701 270.837C178.916 271.102 179.224 271.274 179.562 271.319C179.9 271.364 180.243 271.279 180.52 271.08C180.797 270.881 180.987 270.583 181.052 270.249C182.619 259.438 189.806 234.258 190.163 232.69Z" fill="#199171"/>
<path fill-rule="evenodd" clip-rule="evenodd" d="M245.166 253.366C227.303 248.568 209.163 244.869 190.848 242.288C188.788 242.166 188.394 244.096 190.375 244.608C196.663 245.891 203.28 248.136 215.706 250.707C228.132 253.278 236.059 254.223 244.894 255.801C245.164 255.752 245.412 255.617 245.6 255.416C245.788 255.215 245.906 254.959 245.937 254.685C245.968 254.412 245.909 254.135 245.771 253.898C245.632 253.66 245.42 253.473 245.166 253.366Z" fill="#199171"/>
<path fill-rule="evenodd" clip-rule="evenodd" d="M196.599 230.468C207.034 232.596 217.915 234.181 228.226 236.918C235.751 238.9 248.262 240.706 251.942 245.104C252.727 246.01 251.584 253.259 251.394 255.637C250.952 264.805 249.486 273.897 247.023 282.738C246.978 282.875 246.96 283.02 246.971 283.164C246.982 283.308 247.021 283.449 247.086 283.578C247.151 283.707 247.241 283.822 247.351 283.916C247.46 284.01 247.587 284.082 247.724 284.127C247.862 284.172 248.006 284.19 248.15 284.179C248.295 284.168 248.435 284.129 248.564 284.064C248.693 283.999 248.808 283.909 248.902 283.799C248.996 283.69 249.068 283.563 249.113 283.425C252.073 274.525 254.07 265.34 255.076 256.015C255.562 252.172 257.441 245.334 255.168 242.413C249.985 236.443 237.236 235.257 229.048 233.251C218.385 230.779 207.452 229.631 196.926 227.969C196.625 227.981 196.338 228.1 196.116 228.304C195.893 228.508 195.75 228.784 195.712 229.083C195.673 229.382 195.741 229.685 195.904 229.938C196.067 230.192 196.311 230.379 196.599 230.468Z" fill="#199171"/>
<path d="M95.22 39.7631L104.317 41.6967C106.568 42.1753 108.135 43.1671 109.053 44.6485C109.362 45.2164 109.598 45.8312 109.7 46.4804C109.803 47.1296 109.764 47.843 109.591 48.5906C109.315 49.7869 108.757 50.7036 107.991 51.2937C107.225 51.8839 106.26 52.2435 105.103 52.3427L105.082 52.4324C105.648 52.7096 106.14 53.0338 106.612 53.4478C107.083 53.8617 107.45 54.3163 107.744 54.8179C108.038 55.3196 108.221 55.8918 108.33 56.5111C108.402 57.1539 108.377 57.8074 108.211 58.5252C108.018 59.3626 107.688 60.1082 107.259 60.7386C106.83 61.3691 106.302 61.8842 105.704 62.2905C104.952 62.8208 104.061 63.1334 103.077 63.3009C102.094 63.4683 101.001 63.4244 99.8605 63.1819L90.2833 61.1462L95.22 39.7631ZM100.3 60.7339C101.771 61.0466 102.964 60.9239 103.911 60.372C104.28 60.1368 104.573 59.8226 104.85 59.4422C105.127 59.0618 105.32 58.6323 105.444 58.094C105.748 56.7781 105.533 55.6656 104.844 54.829C104.155 53.9923 103.15 53.4336 101.859 53.1592L95.2845 51.7617L93.5446 59.2981L100.3 60.7339ZM101.874 50.7779C103.195 51.0586 104.285 50.9766 105.143 50.5316C106.002 50.0866 106.592 49.3023 106.855 48.1658C107.089 47.149 106.916 46.265 106.393 45.5264C105.871 44.7879 105.009 44.291 103.808 44.0358L97.3835 42.6702L95.8093 49.4888L101.874 50.7779ZM119.722 67.4036L120.212 65.2802L120.152 65.2674C119.402 65.9238 118.634 66.3879 117.809 66.6833C116.985 66.9788 116.036 66.9967 114.895 66.7542C113.274 66.4096 112.117 65.693 111.393 64.5979C110.64 63.4965 110.479 62.1447 110.852 60.5298L113.324 49.8233L115.756 50.3402L113.298 60.9869C113.063 62.0037 113.177 62.875 113.653 63.5409C114.129 64.2069 114.938 64.6611 116.049 64.8972C116.649 65.0248 117.24 65.0564 117.806 64.9256C118.334 64.8184 118.824 64.6086 119.274 64.2964C119.724 63.9842 120.098 63.5931 120.402 63.093C120.7 62.6229 120.951 62.0802 121.096 61.4522L123.291 51.9419L125.723 52.4588L122.154 67.9205L119.722 67.4036ZM129.612 53.2854L132.044 53.8023L128.474 69.264L126.043 68.7471L129.612 53.2854ZM130.979 47.364L133.411 47.8809L132.721 50.8715L130.289 50.3546L130.979 47.364ZM137.416 48.7322L139.848 49.2491L134.911 70.6322L132.48 70.1153L137.416 48.7322ZM144.813 73.2075C143.732 72.9778 142.813 72.5941 142.062 72.0266C141.304 71.4891 140.708 70.7976 140.273 69.9522C139.839 69.1069 139.582 68.1738 139.516 67.0931C139.421 66.0061 139.526 64.8677 139.816 63.6116C140.106 62.3555 140.525 61.2211 141.12 60.2808C141.715 59.3406 142.389 58.6053 143.148 58.0451C143.908 57.4849 144.752 57.0997 145.676 56.9195C146.599 56.7393 147.548 56.7214 148.509 56.9256C149.59 57.1554 150.495 57.5988 151.226 58.256C151.926 58.9068 152.441 59.6752 152.786 60.5015L152.846 60.5142L154.717 52.4096L157.149 52.9265L152.212 74.3096L149.78 73.7927L150.215 71.9086L150.155 71.8958C149.375 72.5458 148.584 72.9736 147.743 73.2028C146.866 73.4556 145.894 73.4372 144.813 73.2075ZM145.373 71.193C146.213 71.3717 146.998 71.3817 147.698 71.2166C148.367 71.0452 148.981 70.7051 149.526 70.2561C150.041 69.8007 150.486 69.2365 150.839 68.5272C151.184 67.8477 151.491 67.0657 151.698 66.1686C151.905 65.2714 151.971 64.4384 151.934 63.646C151.896 62.8537 151.748 62.1319 151.452 61.5043C151.156 60.8766 150.712 60.3431 150.181 59.9164C149.619 59.4833 148.933 59.1806 148.153 59.0147C147.402 58.8552 146.7 58.8942 146.091 59.0784C145.481 59.2626 144.898 59.6091 144.413 60.0708C143.928 60.5326 143.476 61.1267 143.124 61.8361C142.771 62.5455 142.494 63.3338 142.301 64.1712C142.094 65.0684 141.998 65.895 142.012 66.651C142.019 67.437 142.175 68.1288 142.411 68.7437C142.647 69.3586 143.023 69.9093 143.525 70.3296C143.996 70.7435 144.622 71.0335 145.373 71.193ZM173.641 79.0213C172.08 78.6895 171.382 77.7567 171.501 76.1506L171.471 76.1442C171.161 76.3922 170.792 76.6274 170.423 76.8627C170.024 77.0916 169.608 77.2542 169.133 77.4041C168.657 77.5541 168.128 77.6613 167.56 77.6661C166.985 77.7007 166.401 77.6393 165.741 77.4989C164.99 77.3394 164.313 77.1328 163.724 76.8193C163.105 76.4995 162.627 76.1155 162.23 75.6545C161.832 75.1935 161.575 74.6683 161.429 74.0726C161.283 73.4768 161.308 72.8233 161.481 72.0756C161.688 71.1784 162.011 70.4627 162.509 69.9411C162.971 69.4431 163.561 69.0667 164.245 68.8354C164.928 68.6042 165.681 68.4818 166.563 68.4811C167.445 68.4803 168.387 68.4923 169.389 68.5171C169.943 68.5721 170.444 68.5845 170.945 68.5969C171.416 68.6029 171.834 68.5662 172.199 68.4869C172.564 68.4076 172.882 68.2556 173.118 68.0547C173.353 67.8537 173.526 67.514 173.623 67.0953C173.823 66.228 173.675 65.5063 173.185 64.9001C172.695 64.294 171.879 63.8697 170.768 63.6336C169.508 63.3655 168.478 63.4604 167.723 63.8647C166.938 64.2626 166.408 65.0597 166.108 66.2197L163.767 65.7219C163.932 65.0042 164.241 64.3482 164.663 63.7477C165.056 63.1408 165.57 62.6855 166.191 62.3155C166.805 61.9754 167.518 61.7505 168.361 61.6473C169.204 61.544 170.139 61.5859 171.16 61.8029C171.97 61.9752 172.7 62.2244 173.379 62.557C174.028 62.8833 174.567 63.28 174.994 63.7474C175.415 64.2447 175.688 64.836 175.843 65.5279C175.998 66.2197 175.969 67.0292 175.762 67.9264L174.063 75.2834C173.911 75.9413 173.891 76.439 174.032 76.7827C174.173 77.1264 174.603 77.3119 175.335 77.2792L175.425 77.2984L175.017 79.0628C174.823 79.0844 174.629 79.1059 174.435 79.1274C174.211 79.1425 173.941 79.0851 173.641 79.0213ZM166.709 75.7596C167.49 75.9255 168.238 75.959 168.9 75.8175C169.563 75.6759 170.119 75.4491 170.606 75.1134C171.056 74.8011 171.46 74.4164 171.751 73.9762C172.041 73.5359 172.272 73.083 172.382 72.6045L172.99 69.9727C172.507 70.1525 171.942 70.2833 171.24 70.3223C170.538 70.3614 169.873 70.3769 169.185 70.3561C168.557 70.3481 167.959 70.3465 167.391 70.3513C166.823 70.356 166.301 70.4334 165.855 70.5896C165.41 70.7459 165.048 70.9513 164.725 71.2591C164.402 71.5669 164.201 72.0263 164.077 72.5646C163.952 73.1029 163.946 73.5408 164.05 73.908C164.154 74.2753 164.369 74.572 164.628 74.8152C164.887 75.0585 165.182 75.2782 165.559 75.421C165.905 75.5574 166.289 75.6702 166.709 75.7596ZM75.8555 117.501L78.1072 117.979L79.2326 113.105L81.6644 113.622L80.539 118.496L83.5413 119.134L83.0856 121.108L80.0833 120.47L77.7634 130.519C77.6392 131.057 77.6695 131.471 77.8914 131.738C78.1132 132.005 78.4828 132.178 78.9932 132.286C79.2334 132.337 79.4735 132.388 79.7275 132.379C79.9815 132.371 80.1686 132.379 80.3325 132.351L80.4225 132.37L79.9392 134.464C79.6252 134.46 79.3112 134.456 78.974 134.415C78.63 134.405 78.2997 134.335 77.9395 134.258C76.9187 134.041 76.1564 133.66 75.6295 133.077C75.0726 132.488 74.9519 131.647 75.2074 130.54L77.6515 119.953L75.3998 119.475L75.8555 117.501ZM89.4749 137.055C88.274 136.8 87.2715 136.367 86.4375 135.751C85.6035 135.134 84.961 134.37 84.5031 133.489C84.0083 132.63 83.7282 131.661 83.6258 130.604C83.4934 129.54 83.5849 128.462 83.8473 127.325C84.1028 126.219 84.4945 125.204 85.0826 124.294C85.6708 123.383 86.3513 122.618 87.1845 122.011C88.0106 121.434 88.9293 121.001 89.9267 120.774C90.924 120.547 91.97 120.518 93.0808 120.754C94.2216 120.997 95.1872 121.453 95.9912 122.063C96.7952 122.673 97.4076 123.431 97.8286 124.336C98.2495 125.241 98.4927 126.234 98.5444 127.375C98.596 128.515 98.5069 129.72 98.2169 130.976L86.208 128.423C86.0585 129.207 86.036 129.987 86.1243 130.696C86.2056 131.435 86.3978 132.103 86.7076 132.671C87.0106 133.269 87.4312 133.766 87.9695 134.163C88.5009 134.589 89.1638 134.856 89.9444 135.022C91.0852 135.264 92.0712 135.223 92.916 134.838C93.7608 134.452 94.4207 133.777 94.9694 132.764L97.3412 133.268C96.5943 134.866 95.5168 135.986 94.1688 136.641C92.7908 137.289 91.2162 137.425 89.4749 137.055ZM92.6389 122.668C91.9184 122.515 91.2233 122.524 90.6277 122.649C90.0021 122.767 89.4388 123.023 88.945 123.389C88.4511 123.755 87.9966 124.223 87.6183 124.77C87.2401 125.317 86.908 125.937 86.6892 126.612L96.0261 128.596C96.2951 127.022 96.151 125.736 95.5775 124.673C94.9972 123.64 94.0199 122.962 92.6389 122.668ZM111.7 141.497C110.138 141.165 109.44 140.232 109.559 138.626L109.529 138.62C109.22 138.868 108.851 139.103 108.481 139.338C108.082 139.567 107.667 139.73 107.191 139.88C106.716 140.03 106.187 140.137 105.619 140.142C105.044 140.176 104.46 140.115 103.799 139.975C103.049 139.815 102.372 139.608 101.783 139.295C101.164 138.975 100.686 138.591 100.288 138.13C99.8906 137.669 99.6339 137.144 99.488 136.548C99.342 135.952 99.367 135.299 99.5396 134.551C99.7467 133.654 100.069 132.938 100.568 132.417C101.029 131.919 101.62 131.542 102.303 131.311C102.987 131.08 103.739 130.957 104.621 130.957C105.503 130.956 106.445 130.968 107.448 130.993C108.002 131.048 108.503 131.06 109.004 131.073C109.475 131.079 109.893 131.042 110.258 130.963C110.622 130.883 110.941 130.731 111.176 130.53C111.412 130.329 111.585 129.99 111.681 129.571C111.882 128.704 111.733 127.982 111.243 127.376C110.753 126.77 109.938 126.345 108.827 126.109C107.566 125.841 106.536 125.936 105.782 126.34C104.997 126.738 104.466 127.535 104.167 128.695L101.825 128.198C101.991 127.48 102.3 126.824 102.722 126.223C103.114 125.616 103.629 125.161 104.25 124.791C104.863 124.451 105.577 124.226 106.42 124.123C107.262 124.02 108.197 124.062 109.218 124.279C110.029 124.451 110.759 124.7 111.438 125.033C112.087 125.359 112.625 125.756 113.053 126.223C113.473 126.72 113.746 127.312 113.901 128.004C114.057 128.695 114.027 129.505 113.82 130.402L112.122 137.759C111.97 138.417 111.949 138.915 112.09 139.258C112.232 139.602 112.661 139.788 113.393 139.755L113.483 139.774L113.076 141.538C112.882 141.56 112.688 141.582 112.494 141.603C112.27 141.618 112 141.561 111.7 141.497ZM104.768 138.235C105.548 138.401 106.296 138.435 106.959 138.293C107.622 138.152 108.178 137.925 108.665 137.589C109.115 137.277 109.519 136.892 109.809 136.452C110.1 136.012 110.33 135.559 110.441 135.08L111.049 132.448C110.566 132.628 110 132.759 109.299 132.798C108.597 132.837 107.932 132.853 107.244 132.832C106.615 132.824 106.017 132.822 105.449 132.827C104.881 132.832 104.36 132.909 103.914 133.065C103.469 133.222 103.106 133.427 102.783 133.735C102.46 134.043 102.26 134.502 102.135 135.04C102.011 135.579 102.004 136.016 102.109 136.384C102.213 136.751 102.428 137.048 102.687 137.291C102.945 137.534 103.241 137.754 103.618 137.897C103.964 138.033 104.347 138.146 104.768 138.235ZM121.988 143.966C120.817 143.717 119.815 143.285 119.011 142.674C118.177 142.058 117.534 141.294 117.046 140.406C116.552 139.548 116.271 138.578 116.139 137.515C116.007 136.451 116.098 135.373 116.361 134.236C116.616 133.13 117.008 132.115 117.596 131.205C118.184 130.294 118.865 129.529 119.698 128.922C120.524 128.344 121.443 127.912 122.47 127.691C123.467 127.464 124.573 127.448 125.744 127.697C127.576 128.086 128.959 128.914 129.879 130.113C130.799 131.313 131.216 132.782 131.136 134.491L128.674 133.967C128.736 132.882 128.479 131.949 127.897 131.198C127.314 130.447 126.452 129.95 125.282 129.701C124.441 129.522 123.679 129.548 122.979 129.713C122.273 129.908 121.659 130.249 121.114 130.698C120.563 131.176 120.081 131.764 119.705 132.437C119.322 133.14 119.046 133.929 118.852 134.766C118.652 135.633 118.556 136.46 118.6 137.222C118.638 138.015 118.816 138.743 119.112 139.37C119.408 139.998 119.815 140.555 120.376 140.988C120.931 141.451 121.617 141.754 122.458 141.933C123.719 142.201 124.785 142.082 125.665 141.547C126.537 141.043 127.178 140.175 127.575 139.004L129.976 139.515C129.361 141.361 128.369 142.656 126.994 143.43C125.588 144.198 123.91 144.375 121.988 143.966ZM137.15 132.663L137.21 132.676C137.917 132.073 138.745 131.621 139.622 131.369C140.5 131.116 141.546 131.087 142.687 131.33C144.308 131.674 145.465 132.391 146.202 133.426C146.94 134.461 147.137 135.79 146.764 137.405L144.258 148.261L141.826 147.744L144.284 137.097C144.519 136.08 144.368 135.232 143.892 134.566C143.386 133.894 142.577 133.44 141.496 133.21C140.866 133.076 140.268 133.075 139.709 133.175C139.121 133.27 138.601 133.473 138.158 133.756C137.685 134.031 137.281 134.416 136.947 134.91C136.612 135.404 136.391 135.953 136.246 136.581L134.05 146.091L131.619 145.574L136.555 124.191L138.987 124.708L137.15 132.663ZM151.65 133.611L154.082 134.128L150.512 149.59L148.08 149.073L151.65 133.611ZM153.017 127.69L155.449 128.207L154.758 131.197L152.327 130.681L153.017 127.69ZM159.959 137.511L160.019 137.524C160.725 136.921 161.554 136.47 162.431 136.217C163.308 135.964 164.354 135.935 165.495 136.178C167.116 136.522 168.274 137.239 169.011 138.274C169.749 139.309 169.946 140.638 169.573 142.253L167.067 153.109L164.635 152.592L167.093 141.945C167.328 140.928 167.177 140.081 166.701 139.415C166.195 138.742 165.386 138.288 164.305 138.058C163.675 137.924 163.077 137.923 162.518 138.024C161.929 138.118 161.41 138.321 160.967 138.604C160.494 138.88 160.09 139.264 159.755 139.758C159.421 140.252 159.2 140.801 159.055 141.429L156.859 150.939L154.427 150.422L157.997 134.96L160.429 135.477L159.959 137.511ZM175.886 160.38C173.845 159.946 172.366 159.255 171.435 158.241C170.497 157.258 170.108 156.077 170.299 154.706L172.55 155.184C172.47 156.077 172.752 156.764 173.45 157.289C174.118 157.808 175.067 158.198 176.268 158.453C177.709 158.759 178.859 158.69 179.791 158.198C180.694 157.699 181.312 156.795 181.63 155.42L182.134 153.237L182.074 153.224C181.301 153.844 180.532 154.308 179.775 154.586C178.988 154.858 178.039 154.876 176.928 154.64C175.907 154.423 175.048 154.052 174.297 153.485C173.539 152.947 172.973 152.262 172.531 151.447C172.083 150.661 171.789 149.751 171.68 148.724C171.563 147.727 171.648 146.678 171.91 145.542C172.187 144.346 172.578 143.331 173.159 142.45C173.741 141.57 174.407 140.864 175.16 140.334C175.912 139.804 176.743 139.478 177.637 139.292C178.493 139.129 179.405 139.134 180.306 139.326C181.447 139.568 182.329 139.976 182.983 140.554C183.637 141.132 184.136 141.834 184.511 142.667L184.571 142.68L185.027 140.706L187.458 141.223L184.082 155.847C183.847 156.864 183.46 157.723 182.987 158.407C182.484 159.084 181.889 159.616 181.178 159.967C180.46 160.348 179.657 160.554 178.761 160.614C177.865 160.675 176.907 160.597 175.886 160.38ZM177.517 152.632C178.418 152.823 179.196 152.863 179.866 152.692C180.535 152.52 181.105 152.234 181.59 151.772C182.068 151.34 182.446 150.793 182.792 150.114C183.101 149.458 183.363 148.729 183.557 147.892C183.943 146.217 183.864 144.788 183.341 143.642C182.811 142.525 181.728 141.762 180.077 141.411C178.605 141.098 177.37 141.4 176.415 142.264C175.453 143.157 174.782 144.427 174.395 146.101C174.002 147.806 174.051 149.228 174.567 150.405C175.083 151.581 176.076 152.326 177.517 152.632ZM71.4918 171.054C70.3209 170.805 69.3184 170.372 68.5144 169.762C67.6804 169.145 67.0379 168.381 66.55 167.493C66.0552 166.635 65.7751 165.666 65.6427 164.602C65.5103 163.539 65.6018 162.46 65.8642 161.324C66.1197 160.217 66.5114 159.202 67.0995 158.292C67.6877 157.382 68.3682 156.617 69.2013 156.009C70.0275 155.432 70.9462 155 71.9736 154.779C72.9709 154.552 74.0769 154.536 75.2478 154.785C77.0791 155.174 78.4629 156.001 79.3828 157.201C80.3027 158.4 80.7194 159.869 80.6399 161.578L78.1781 161.055C78.2396 159.97 77.9826 159.037 77.4002 158.285C76.8177 157.534 75.9561 157.037 74.7852 156.788C73.9446 156.61 73.1826 156.636 72.4831 156.801C71.7767 156.996 71.1627 157.336 70.6181 157.785C70.0666 158.264 69.5845 158.852 69.2086 159.525C68.8259 160.228 68.5494 161.016 68.356 161.853C68.1558 162.721 68.0595 163.547 68.1039 164.31C68.1415 165.102 68.3198 165.83 68.6158 166.458C68.9119 167.086 69.3187 167.643 69.8801 168.076C70.4346 168.539 71.1206 168.841 71.9613 169.02C73.2222 169.288 74.2889 169.17 75.1682 168.635C76.0407 168.13 76.6819 167.263 77.0782 166.092L79.48 166.602C78.8649 168.448 77.873 169.743 76.4974 170.518C75.0917 171.286 73.4132 171.462 71.4918 171.054ZM87.6604 174.49C86.4896 174.242 85.4871 173.809 84.6831 173.199C83.8491 172.582 83.2066 171.818 82.7187 170.93C82.2239 170.072 81.9438 169.103 81.8114 168.039C81.679 166.976 81.7705 165.897 82.0329 164.761C82.2883 163.654 82.6801 162.639 83.2682 161.729C83.8563 160.819 84.5369 160.053 85.37 159.446C86.1962 158.869 87.1149 158.437 88.1422 158.216C89.1396 157.988 90.2456 157.972 91.4165 158.221C92.5573 158.464 93.5529 158.926 94.3869 159.543C95.1909 160.153 95.8334 160.917 96.3282 161.775C96.8161 162.663 97.0962 163.633 97.2286 164.696C97.331 165.753 97.2695 166.838 97.014 167.945C96.7516 169.081 96.3299 170.09 95.7718 171.006C95.1837 171.917 94.5031 172.682 93.6769 173.259C92.8438 173.867 91.9251 174.299 90.9278 174.526C89.9004 174.747 88.8013 174.733 87.6604 174.49ZM88.1299 172.457C88.9405 172.629 89.6956 172.633 90.402 172.438C91.0715 172.266 91.7155 171.933 92.2601 171.484C92.8047 171.035 93.2568 170.441 93.6396 169.738C94.0154 169.064 94.3219 168.283 94.5222 167.415C94.7155 166.578 94.7818 165.745 94.7443 164.953C94.6998 164.19 94.5515 163.468 94.2624 162.811C93.9663 162.183 93.5295 161.62 93.005 161.163C92.4436 160.73 91.7645 160.397 90.9539 160.225C90.1132 160.046 89.3513 160.073 88.6518 160.238C87.9453 160.433 87.3314 160.773 86.7868 161.222C86.2353 161.701 85.7532 162.288 85.3773 162.962C84.9945 163.664 84.718 164.453 84.5247 165.29C84.3245 166.157 84.2281 166.984 84.2726 167.747C84.3101 168.539 84.4885 169.267 84.7845 169.895C85.0805 170.522 85.4874 171.079 86.0488 171.512C86.6033 171.975 87.2893 172.278 88.1299 172.457ZM101.828 160.842L104.26 161.359L103.749 163.572L103.809 163.585C104.462 162.939 105.237 162.445 106.128 162.133C107.019 161.82 107.975 161.772 108.966 161.983C109.927 162.187 110.682 162.599 111.292 163.23C111.872 163.856 112.231 164.622 112.384 165.596L112.444 165.609C113.131 164.814 113.974 164.302 114.925 164.003C115.876 163.703 116.862 163.661 117.823 163.866C119.204 164.159 120.211 164.844 120.918 165.873C121.596 166.895 121.763 168.217 121.39 169.832L118.884 180.688L116.452 180.171L118.931 169.435C119.152 168.478 119.024 167.666 118.608 167.013C118.162 166.353 117.563 165.944 116.783 165.778C116.272 165.669 115.764 165.687 115.266 165.801C114.737 165.908 114.278 166.124 113.835 166.406C113.391 166.689 113.018 167.08 112.69 167.543C112.363 168.007 112.148 168.526 112.01 169.124L109.787 178.754L107.355 178.237L109.834 167.501C110.055 166.544 109.957 165.739 109.601 165.099C109.245 164.458 108.647 164.049 107.866 163.883C107.386 163.781 106.878 163.798 106.349 163.905C105.82 164.013 105.331 164.222 104.888 164.505C104.415 164.78 104.011 165.165 103.653 165.623C103.296 166.08 103.051 166.593 102.913 167.191L100.69 176.821L98.2584 176.304L101.828 160.842ZM126.265 166.036L128.696 166.553L128.185 168.766L128.245 168.779C128.898 168.134 129.674 167.64 130.565 167.327C131.456 167.014 132.412 166.967 133.403 167.177C134.363 167.381 135.119 167.793 135.729 168.425C136.309 169.05 136.667 169.816 136.82 170.79L136.88 170.803C137.568 170.008 138.41 169.497 139.361 169.197C140.313 168.897 141.298 168.855 142.259 169.06C143.64 169.353 144.647 170.038 145.355 171.067C146.032 172.089 146.199 173.411 145.827 175.026L143.32 185.882L140.888 185.365L143.367 174.629C143.588 173.672 143.46 172.86 143.044 172.207C142.598 171.548 142 171.138 141.219 170.972C140.709 170.864 140.201 170.881 139.702 170.995C139.174 171.102 138.714 171.318 138.271 171.6C137.828 171.883 137.454 172.274 137.127 172.738C136.799 173.201 136.585 173.721 136.447 174.319L134.223 183.948L131.792 183.432L134.27 172.695C134.491 171.738 134.394 170.933 134.038 170.293C133.682 169.652 133.083 169.243 132.303 169.077C131.822 168.975 131.314 168.992 130.786 169.099C130.257 169.207 129.768 169.416 129.324 169.699C128.851 169.975 128.448 170.359 128.09 170.817C127.732 171.274 127.488 171.787 127.35 172.385L125.127 182.015L122.695 181.498L126.265 166.036ZM157.009 188.792L157.499 186.668L157.439 186.656C156.689 187.312 155.92 187.776 155.096 188.071C154.272 188.367 153.323 188.385 152.182 188.142C150.561 187.798 149.404 187.081 148.68 185.986C147.927 184.885 147.766 183.533 148.139 181.918L150.611 171.211L153.043 171.728L150.585 182.375C150.35 183.392 150.464 184.263 150.94 184.929C151.416 185.595 152.225 186.049 153.336 186.285C153.936 186.413 154.527 186.444 155.093 186.314C155.621 186.206 156.111 185.997 156.561 185.685C157.011 185.372 157.385 184.981 157.689 184.481C157.987 184.011 158.238 183.468 158.383 182.84L160.578 173.33L163.01 173.847L159.441 189.309L157.009 188.792ZM168.861 177.224L168.921 177.237C169.628 176.634 170.456 176.183 171.333 175.93C172.211 175.677 173.257 175.648 174.397 175.891C176.019 176.235 177.176 176.952 177.913 177.987C178.651 179.023 178.848 180.351 178.475 181.966L175.969 192.822L173.537 192.305L175.995 181.658C176.23 180.641 176.079 179.794 175.603 179.128C175.097 178.455 174.288 178.001 173.207 177.771C172.577 177.637 171.979 177.636 171.42 177.737C170.831 177.831 170.312 178.034 169.869 178.317C169.396 178.593 168.992 178.977 168.658 179.471C168.323 179.965 168.102 180.514 167.957 181.142L165.761 190.652L163.329 190.135L166.899 174.674L169.331 175.19L168.861 177.224ZM183.361 178.173L185.793 178.69L182.223 194.151L179.791 193.634L183.361 178.173ZM184.728 172.251L187.16 172.768L186.469 175.759L184.038 175.242L184.728 172.251ZM188.717 179.311L190.969 179.79L192.094 174.915L194.526 175.432L193.401 180.307L196.403 180.945L195.947 182.919L192.945 182.28L190.625 192.329C190.501 192.867 190.531 193.282 190.753 193.548C190.975 193.815 191.344 193.988 191.855 194.096C192.095 194.147 192.335 194.198 192.589 194.19C192.843 194.181 193.03 194.189 193.194 194.161L193.284 194.181L192.801 196.274C192.487 196.27 192.173 196.266 191.836 196.226C191.492 196.215 191.161 196.145 190.801 196.069C189.78 195.852 189.018 195.47 188.491 194.887C187.934 194.298 187.813 193.457 188.069 192.35L190.513 181.764L188.261 181.285L188.717 179.311ZM196.746 202.603C196.265 202.501 195.875 202.418 195.558 202.288C195.235 202.188 194.926 202.028 194.63 201.808L195.127 199.655L195.247 199.68C195.37 199.832 195.566 199.936 195.822 200.054C196.079 200.171 196.402 200.271 196.822 200.36C197.333 200.469 197.811 200.445 198.226 200.282C198.642 200.12 199.089 199.681 199.569 198.968L200.522 197.57L197.923 181.268L200.565 181.829L202.005 192.238C202.042 192.622 202.086 192.977 202.123 193.361C202.16 193.746 202.181 194.064 202.233 194.388C202.27 194.773 202.307 195.157 202.358 195.482L202.418 195.495C202.577 195.215 202.78 194.881 202.983 194.548C203.142 194.268 203.331 193.994 203.534 193.661C203.737 193.328 203.933 193.024 204.136 192.691L209.902 183.814L212.484 184.363L201.989 199.67C201.473 200.408 200.991 200.995 200.58 201.41C200.162 201.855 199.742 202.173 199.313 202.396C198.884 202.618 198.482 202.721 198.071 202.728C197.653 202.764 197.226 202.705 196.746 202.603Z" fill="#FAFAFA"/>
<path d="M86.9303 98.725C84.9889 98.3123 83.5857 97.2506 82.7209 95.5399C81.8606 93.8093 81.7158 91.7078 82.2866 89.2355C82.839 86.843 83.8982 85.0289 85.4643 83.7931C87.0551 82.5416 88.8112 82.12 90.7326 82.5284C92.654 82.9369 93.9302 84.0029 94.5611 85.7266L94.6512 85.7458L96.4739 77.8505L100.557 78.7184L95.6203 100.101L91.6874 99.2655L92.15 97.2618L92.0899 97.249C90.7117 98.6712 88.9919 99.1631 86.9303 98.725ZM88.6181 95.5071C89.819 95.7623 90.8241 95.5472 91.6332 94.8616C92.4624 94.1803 93.0427 93.1219 93.3742 91.6864C94.129 88.4166 93.3156 86.5286 90.9338 86.0224C89.833 85.7884 88.8911 86.0483 88.1082 86.8022C87.3252 87.5561 86.7657 88.6607 86.4297 90.1162C86.0845 91.6115 86.0977 92.8274 86.4694 93.764C86.8611 94.7048 87.5774 95.2858 88.6181 95.5071ZM106.007 102.78C103.525 102.252 101.748 101.08 100.677 99.2625C99.6105 97.4252 99.351 95.3203 99.8988 92.9478C100.428 90.6549 101.581 88.892 103.356 87.6588C105.136 86.4057 107.137 86.0153 109.359 86.4875C111.78 87.0023 113.459 88.2375 114.393 90.193C115.327 92.1485 115.47 94.5319 114.821 97.3431L103.653 94.9692C103.532 96.2195 103.724 97.2537 104.228 98.072C104.736 98.8703 105.561 99.3907 106.702 99.6332C108.203 99.9523 109.339 99.5348 110.109 98.3809L114.132 99.236C113.5 100.608 112.463 101.642 111.022 102.34C109.58 103.037 107.908 103.184 106.007 102.78ZM108.694 89.6405C106.712 89.2193 105.268 90.0627 104.362 92.1708L111.207 93.6258C111.372 92.636 111.224 91.7783 110.761 91.0526C110.304 90.3069 109.614 89.8362 108.694 89.6405ZM114.646 109.416L119.348 89.05L123.281 89.886L122.839 91.8L122.929 91.8192C124.429 90.5065 126.119 90.0502 128.001 90.4501C130.022 90.8798 131.471 91.972 132.347 93.7268C133.222 95.4817 133.382 97.5653 132.825 99.9778C132.254 102.45 131.188 104.294 129.626 105.51C128.069 106.706 126.29 107.091 124.289 106.666C122.287 106.24 120.974 105.198 120.349 103.538L120.289 103.525L118.729 110.284L114.646 109.416ZM124.198 103.101C125.239 103.322 126.154 103.088 126.943 102.398C127.752 101.713 128.323 100.652 128.654 99.2168C129.008 97.6816 128.997 96.4136 128.619 95.413C128.241 94.4124 127.452 93.7844 126.251 93.5292C125.03 93.2697 124.023 93.5368 123.231 94.3305C122.443 95.1044 121.879 96.229 121.539 97.7043C121.212 99.1199 121.272 100.314 121.719 101.288C122.171 102.242 122.997 102.846 124.198 103.101ZM140.69 110.152C138.208 109.624 136.431 108.452 135.36 106.635C134.293 104.797 134.034 102.692 134.582 100.32C135.111 98.027 136.263 96.264 138.039 95.0309C139.819 93.7778 141.82 93.3874 144.041 93.8596C146.463 94.3744 148.141 95.6095 149.076 97.5651C150.01 99.5206 150.153 101.904 149.504 104.715L138.335 102.341C138.215 103.592 138.406 104.626 138.91 105.444C139.419 106.242 140.244 106.763 141.385 107.005C142.886 107.324 144.021 106.907 144.792 105.753L148.815 106.608C148.183 107.98 147.146 109.014 145.704 109.712C144.263 110.409 142.591 110.556 140.69 110.152ZM143.377 97.0125C141.395 96.5914 139.951 97.4348 139.044 99.5429L145.89 100.998C146.055 100.008 145.907 99.1504 145.444 98.4246C144.986 97.6789 144.297 97.2082 143.377 97.0125ZM158.024 97.2708L157.54 99.3643L157.63 99.3834C159.078 97.9342 160.792 97.4201 162.774 97.8413C164.355 98.1774 165.512 98.988 166.244 100.273C166.981 101.538 167.153 103.018 166.762 104.713L164.449 114.731L160.366 113.864L162.541 104.443C162.734 103.606 162.651 102.877 162.29 102.256C161.949 101.64 161.359 101.243 160.518 101.064C159.617 100.872 158.791 101.042 158.038 101.572C157.306 102.107 156.82 102.892 156.581 103.929L154.572 112.632L150.489 111.764L154.031 96.4221L158.024 97.2708ZM173.227 117.068C171.286 116.655 169.882 115.594 169.018 113.883C168.157 112.152 168.012 110.051 168.583 107.578C169.136 105.186 170.195 103.372 171.761 102.136C173.352 100.884 175.108 100.463 177.029 100.871C178.951 101.28 180.227 102.346 180.858 104.07L180.948 104.089L182.771 96.1934L186.854 97.0613L181.917 118.444L177.984 117.608L178.447 115.605L178.387 115.592C177.008 117.014 175.289 117.506 173.227 117.068ZM174.915 113.85C176.116 114.105 177.121 113.89 177.93 113.205C178.759 112.523 179.339 111.465 179.671 110.029C180.426 106.76 179.612 104.872 177.23 104.365C176.13 104.131 175.188 104.391 174.405 105.145C173.622 105.899 173.062 107.004 172.726 108.459C172.381 109.954 172.394 111.17 172.766 112.107C173.158 113.048 173.874 113.629 174.915 113.85ZM194.869 121.197C194.728 120.896 194.7 120.293 194.782 119.391L194.722 119.378C194.13 119.942 193.452 120.331 192.689 120.546C191.925 120.76 190.933 120.737 189.712 120.478C188.091 120.133 186.884 119.448 186.092 118.422C185.3 117.396 185.077 116.136 185.422 114.64C185.781 113.085 186.584 112.063 187.83 111.575C189.082 111.068 190.72 110.882 192.746 111.02C194.233 111.127 195.26 111.136 195.826 111.047C196.397 110.939 196.745 110.615 196.869 110.077C196.998 109.519 196.879 109.033 196.513 108.621C196.15 108.188 195.549 107.883 194.708 107.704C192.847 107.308 191.691 107.815 191.239 109.225L187.606 108.453C188.002 107.011 188.871 105.93 190.213 105.211C191.555 104.492 193.287 104.358 195.408 104.809C199.731 105.728 201.458 108.072 200.588 111.84L198.786 119.646C198.519 120.802 198.536 121.548 198.836 121.884L198.802 122.033L194.869 121.197ZM191.359 117.847C192.48 118.085 193.427 117.984 194.201 117.542C194.995 117.104 195.484 116.486 195.668 115.689L196.2 113.386C195.7 113.551 194.68 113.648 193.141 113.677C191.92 113.689 191.03 113.814 190.472 114.051C189.918 114.268 189.562 114.715 189.406 115.393C189.107 116.689 189.758 117.507 191.359 117.847ZM209.94 124.872C207.859 124.429 206.509 123.316 205.892 121.533L205.832 121.52L205.39 123.434L201.458 122.598L206.394 101.215L210.477 102.083L208.654 109.978L208.745 109.997C210.075 108.69 211.681 108.237 213.562 108.637C215.504 109.049 216.92 110.145 217.811 111.924C218.707 113.683 218.879 115.759 218.326 118.152C217.756 120.624 216.699 122.47 215.158 123.69C213.621 124.89 211.882 125.284 209.94 124.872ZM209.827 121.271C210.868 121.492 211.763 121.253 212.512 120.555C213.281 119.861 213.838 118.766 214.183 117.271C214.524 115.796 214.493 114.565 214.09 113.581C213.712 112.58 212.973 111.963 211.872 111.729C209.511 111.227 207.952 112.61 207.197 115.88C206.87 117.296 206.941 118.492 207.408 119.47C207.88 120.428 208.686 121.028 209.827 121.271ZM219.123 126.353L224.06 104.97L228.143 105.838L223.206 127.221L219.123 126.353ZM233.626 129.906C231.144 129.379 229.368 128.206 228.297 126.389C227.23 124.552 226.971 122.447 227.518 120.074C228.048 117.781 229.2 116.018 230.976 114.785C232.756 113.532 234.757 113.142 236.978 113.614C239.4 114.129 241.078 115.364 242.012 117.319C242.947 119.275 243.089 121.658 242.44 124.47L231.272 122.096C231.151 123.346 231.343 124.38 231.847 125.198C232.356 125.997 233.18 126.517 234.321 126.76C235.822 127.079 236.958 126.661 237.728 125.507L241.751 126.362C241.12 127.734 240.083 128.769 238.641 129.466C237.199 130.164 235.528 130.31 233.626 129.906ZM236.313 116.767C234.332 116.346 232.888 117.189 231.981 119.297L238.826 120.752C238.992 119.762 238.843 118.905 238.381 118.179C237.923 117.433 237.234 116.963 236.313 116.767ZM59.6025 205.908L58.6411 189.609L62.6942 190.47L62.9123 197.984L62.94 201.002L63 201.014C63.4733 199.965 63.9168 199.044 64.3302 198.254L67.888 191.574L71.3706 192.315L71.7458 199.83L71.7966 202.884L71.8566 202.897C72.3454 201.871 72.7965 200.963 73.21 200.173L76.8047 193.47L80.7676 194.312L72.6322 208.678L68.9094 207.886L68.6078 199.916L68.5318 197.108L68.4718 197.095C67.9906 197.997 67.5456 198.833 67.1367 199.603L63.2953 206.693L59.6025 205.908ZM79.2707 210.089L82.8126 194.747L86.8957 195.615L83.3537 210.957L79.2707 210.089ZM83.365 192.354L84.2073 188.706L88.2904 189.574L87.448 193.222L83.365 192.354ZM88.605 198.802L89.2264 196.11L91.358 196.563L92.4627 191.778L96.4557 192.627L95.351 197.412L97.9929 197.973L97.3715 200.665L94.7296 200.103L92.8516 208.238C92.6168 209.255 93.0098 209.872 94.0306 210.089L95.2384 210.314L94.5479 213.305C93.9183 213.213 93.063 213.052 91.9822 212.822C90.8013 212.571 89.875 212.081 89.2033 211.353C88.5362 210.605 88.3546 209.572 88.6584 208.257L90.7366 199.255L88.605 198.802ZM106.174 193.375L104.316 201.42L104.406 201.439C105.18 200.725 105.951 200.251 106.719 200.016C107.512 199.767 108.418 199.75 109.439 199.967C111.02 200.303 112.177 201.114 112.909 202.399C113.646 203.664 113.819 205.144 113.427 206.839L111.114 216.857L107.031 215.989L109.206 206.569C109.399 205.732 109.316 205.003 108.955 204.382C108.614 203.766 108.024 203.368 107.183 203.19C106.283 202.998 105.456 203.168 104.704 203.698C103.971 204.233 103.485 205.018 103.246 206.055L101.237 214.758L97.1539 213.89L102.091 192.507L106.174 193.375ZM127.749 218.448C125.894 219.664 123.785 220.021 121.423 219.519C119.062 219.017 117.307 217.839 116.161 215.985C115.019 214.111 114.714 212.017 115.248 209.704C115.782 207.392 116.977 205.627 118.833 204.411C120.693 203.175 122.804 202.808 125.166 203.31C127.527 203.812 129.279 205 130.421 206.874C131.568 208.729 131.874 210.812 131.34 213.125C130.806 215.438 129.609 217.212 127.749 218.448ZM122.141 216.409C123.362 216.668 124.417 216.422 125.304 215.669C126.216 214.901 126.848 213.759 127.197 212.244C127.547 210.729 127.478 209.438 126.989 208.372C126.52 207.31 125.675 206.65 124.454 206.39C123.213 206.127 122.147 206.381 121.255 207.153C120.367 207.906 119.746 209.05 119.392 210.585C119.042 212.1 119.101 213.389 119.57 214.451C120.043 215.492 120.9 216.145 122.141 216.409ZM145.731 224.215L141.799 223.379L142.213 221.585L142.123 221.566C141.387 222.204 140.638 222.631 139.875 222.845C139.131 223.064 138.239 223.062 137.199 222.841C135.517 222.484 134.321 221.706 133.611 220.51C132.9 219.313 132.741 217.867 133.132 216.172L135.493 205.944L139.546 206.806L137.344 216.346C136.916 218.2 137.552 219.308 139.253 219.67C140.194 219.87 141.018 219.71 141.726 219.191C142.434 218.672 142.907 217.895 143.147 216.858L145.19 208.006L149.273 208.873L145.731 224.215ZM150.993 212.063L151.614 209.371L153.746 209.824L154.851 205.039L158.844 205.888L157.739 210.673L160.381 211.234L159.759 213.926L157.117 213.364L155.239 221.499C155.005 222.516 155.398 223.133 156.418 223.35L157.626 223.575L156.936 226.566C156.306 226.474 155.451 226.313 154.37 226.083C153.189 225.832 152.263 225.342 151.591 224.614C150.924 223.865 150.742 222.833 151.046 221.517L153.124 212.516L150.993 212.063ZM54.118 243.034C51.9163 242.566 50.3055 241.721 49.2855 240.501C48.2701 239.26 47.8957 237.79 48.1623 236.089L51.9451 236.893C51.814 238.643 52.7393 239.729 54.7207 240.15C55.6214 240.341 56.3487 240.329 56.9027 240.112C57.4768 239.899 57.8259 239.524 57.9502 238.985C57.9962 238.786 57.9976 238.598 57.9544 238.422C57.9312 238.249 57.8433 238.084 57.6908 237.926C57.5629 237.753 57.4381 237.611 57.3164 237.502C57.2147 237.396 57.013 237.27 56.7111 237.122C56.4093 236.974 56.1729 236.861 56.002 236.783C55.8511 236.709 55.5724 236.598 55.1659 236.448C54.784 236.284 54.5176 236.164 54.3667 236.09C53.5629 235.752 52.9092 235.446 52.4056 235.171C51.9266 234.881 51.4338 234.515 50.927 234.073C50.4248 233.611 50.088 233.068 49.9167 232.446C49.77 231.809 49.7887 231.091 49.9728 230.293C50.341 228.698 51.2022 227.606 52.5564 227.015C53.9306 226.429 55.5384 226.331 57.3798 226.722C59.3613 227.144 60.8066 227.932 61.7157 229.087C62.6494 230.227 63.0145 231.601 62.811 233.21L59.1182 232.426C59.3033 230.896 58.4852 229.938 56.6638 229.551C55.8432 229.376 55.1582 229.388 54.6088 229.585C54.0794 229.786 53.7526 230.156 53.6283 230.694C53.5869 230.873 53.5778 231.049 53.601 231.221C53.6488 231.378 53.739 231.533 53.8715 231.687C54.0286 231.825 54.178 231.951 54.3198 232.064C54.4661 232.158 54.6801 232.277 54.9619 232.421C55.2484 232.544 55.4947 232.659 55.7011 232.766C55.9121 232.853 56.1985 232.976 56.5603 233.137C56.9268 233.277 57.2155 233.391 57.4265 233.478C58.0347 233.753 58.5252 233.994 58.8979 234.198C59.2952 234.387 59.7341 234.669 60.2147 235.043C60.6998 235.397 61.0557 235.766 61.2823 236.148C61.5335 236.516 61.707 236.992 61.8029 237.577C61.9234 238.146 61.9031 238.78 61.742 239.478C61.3922 240.993 60.5133 242.072 59.1052 242.713C57.7218 243.34 56.0594 243.446 54.118 243.034ZM64.8754 231.579L65.4968 228.887L67.6284 229.34L68.7331 224.555L72.7261 225.404L71.6214 230.189L74.2634 230.75L73.642 233.442L71 232.88L69.122 241.015C68.8872 242.032 69.2802 242.649 70.301 242.866L71.5088 243.091L70.8183 246.082C70.1887 245.99 69.3334 245.829 68.2526 245.599C67.0718 245.348 66.1455 244.858 65.4738 244.13C64.8066 243.382 64.625 242.349 64.9288 241.034L67.007 232.032L64.8754 231.579ZM80.8992 232.161L80.3331 234.613L80.4231 234.632C81.1106 233.837 81.7929 233.292 82.47 232.997C83.1517 232.682 83.9329 232.617 84.8135 232.805C85.2339 232.894 85.5449 233.002 85.7466 233.128L84.925 236.687L84.8349 236.668C83.4861 236.235 82.3063 236.298 81.2953 236.857C80.2844 237.416 79.5971 238.483 79.2335 240.058L77.5074 247.535L73.4243 246.667L76.9663 231.325L80.8992 232.161ZM91.2422 250.925C88.7604 250.397 86.9838 249.225 85.9126 247.408C84.846 245.57 84.5865 243.465 85.1343 241.093C85.6636 238.8 86.816 237.037 88.5915 235.804C90.3716 234.551 92.3725 234.16 94.5941 234.633C97.0159 235.147 98.694 236.383 99.6283 238.338C100.563 240.294 100.705 242.677 100.056 245.488L88.888 243.114C88.7673 244.365 88.959 245.399 89.463 246.217C89.9716 247.015 90.7963 247.536 91.9372 247.778C93.4383 248.097 94.574 247.68 95.3444 246.526L99.3674 247.381C98.7357 248.753 97.699 249.787 96.2571 250.485C94.8153 251.182 93.1436 251.329 91.2422 250.925ZM93.9292 237.786C91.9477 237.364 90.5037 238.208 89.5971 240.316L96.4422 241.771C96.6077 240.781 96.4592 239.923 95.9969 239.198C95.5391 238.452 94.8499 237.981 93.9292 237.786ZM107.182 254.313C104.981 253.845 103.37 253.001 102.35 251.78C101.335 250.539 100.96 249.069 101.227 247.368L105.01 248.172C104.879 249.922 105.804 251.008 107.785 251.429C108.686 251.621 109.413 251.608 109.967 251.391C110.541 251.178 110.89 250.803 111.015 250.265C111.061 250.065 111.062 249.877 111.019 249.701C110.996 249.529 110.908 249.363 110.755 249.206C110.627 249.032 110.503 248.89 110.381 248.781C110.279 248.676 110.077 248.549 109.776 248.401C109.474 248.253 109.237 248.14 109.067 248.062C108.916 247.988 108.637 247.877 108.23 247.728C107.848 247.563 107.582 247.443 107.431 247.37C106.627 247.031 105.974 246.725 105.47 246.451C104.991 246.161 104.498 245.794 103.991 245.352C103.489 244.89 103.153 244.348 102.981 243.725C102.834 243.088 102.853 242.37 103.037 241.573C103.406 239.978 104.267 238.885 105.621 238.294C106.995 237.708 108.603 237.61 110.444 238.002C112.426 238.423 113.871 239.211 114.78 240.366C115.714 241.506 116.079 242.881 115.875 244.49L112.183 243.705C112.368 242.175 111.55 241.217 109.728 240.83C108.908 240.656 108.223 240.667 107.673 240.864C107.144 241.065 106.817 241.435 106.693 241.973C106.651 242.153 106.642 242.328 106.666 242.501C106.713 242.657 106.804 242.812 106.936 242.966C107.093 243.104 107.243 243.23 107.384 243.344C107.531 243.438 107.745 243.556 108.026 243.7C108.313 243.823 108.559 243.939 108.766 244.045C108.977 244.132 109.263 244.255 109.625 244.416C109.991 244.557 110.28 244.67 110.491 244.757C111.099 245.033 111.59 245.273 111.962 245.478C112.36 245.667 112.799 245.948 113.279 246.322C113.764 246.676 114.12 247.045 114.347 247.428C114.598 247.795 114.772 248.271 114.867 248.856C114.988 249.425 114.968 250.059 114.807 250.757C114.457 252.272 113.578 253.351 112.17 253.993C110.786 254.619 109.124 254.726 107.182 254.313ZM122.354 257.538C120.153 257.07 118.542 256.226 117.522 255.005C116.506 253.764 116.132 252.294 116.399 250.593L120.181 251.397C120.05 253.147 120.976 254.233 122.957 254.654C123.858 254.846 124.585 254.833 125.139 254.616C125.713 254.403 126.062 254.028 126.187 253.49C126.233 253.29 126.234 253.102 126.191 252.926C126.168 252.753 126.08 252.588 125.927 252.43C125.799 252.257 125.674 252.115 125.553 252.006C125.451 251.9 125.249 251.774 124.947 251.626C124.646 251.478 124.409 251.365 124.238 251.287C124.087 251.213 123.809 251.102 123.402 250.952C123.02 250.788 122.754 250.668 122.603 250.594C121.799 250.256 121.146 249.95 120.642 249.676C120.163 249.386 119.67 249.019 119.163 248.577C118.661 248.115 118.324 247.572 118.153 246.95C118.006 246.313 118.025 245.595 118.209 244.797C118.577 243.202 119.439 242.11 120.793 241.519C122.167 240.933 123.775 240.835 125.616 241.227C127.598 241.648 129.043 242.436 129.952 243.591C130.886 244.731 131.251 246.105 131.047 247.715L127.355 246.93C127.54 245.4 126.722 244.442 124.9 244.055C124.08 243.88 123.395 243.892 122.845 244.089C122.316 244.29 121.989 244.66 121.865 245.198C121.823 245.377 121.814 245.553 121.837 245.726C121.885 245.882 121.975 246.037 122.108 246.191C122.265 246.329 122.414 246.455 122.556 246.569C122.702 246.662 122.916 246.781 123.198 246.925C123.485 247.048 123.731 247.163 123.937 247.27C124.148 247.357 124.435 247.48 124.797 247.641C125.163 247.782 125.452 247.895 125.663 247.982C126.271 248.258 126.762 248.498 127.134 248.702C127.532 248.892 127.97 249.173 128.451 249.547C128.936 249.901 129.292 250.27 129.519 250.653C129.77 251.02 129.943 251.496 130.039 252.081C130.16 252.65 130.139 253.284 129.978 253.982C129.629 255.497 128.75 256.576 127.342 257.218C125.958 257.844 124.296 257.951 122.354 257.538ZM131.145 258.936L132.146 254.599L136.529 255.531L135.528 259.867L131.145 258.936Z" fill="#32FF92"/>
<defs>
<filter id="filter0_f_2234_940" x="17.6165" y="97.4658" width="468.792" height="355.846" filterUnits="userSpaceOnUse" color-interpolation-filters="sRGB">
<feFlood flood-opacity="0" result="BackgroundImageFix"/>
<feBlend mode="normal" in="SourceGraphic" in2="BackgroundImageFix" result="shape"/>
<feGaussianBlur stdDeviation="4" result="effect1_foregroundBlur_2234_940"/>
</filter>
<filter id="filter1_n_2234_940" x="-6.43271" y="197.744" width="326.839" height="203.531" filterUnits="userSpaceOnUse" color-interpolation-filters="sRGB">
<feFlood flood-opacity="0" result="BackgroundImageFix"/>
<feBlend mode="normal" in="SourceGraphic" in2="BackgroundImageFix" result="shape"/>
<feTurbulence type="fractalNoise" baseFrequency="1 1" stitchTiles="stitch" numOctaves="3" result="noise" seed="1706" />
<feColorMatrix in="noise" type="luminanceToAlpha" result="alphaNoise" />
<feComponentTransfer in="alphaNoise" result="coloredNoise1">
<feFuncA type="discrete" tableValues="1 1 1 1 1 1 1 1 1 1 1 1 1 1 1 1 1 1 1 1 1 1 1 1 1 1 1 1 1 1 1 1 1 1 1 1 1 1 1 1 1 1 1 1 1 1 1 1 1 1 1 0 0 0 0 0 0 0 0 0 0 0 0 0 0 0 0 0 0 0 0 0 0 0 0 0 0 0 0 0 0 0 0 0 0 0 0 0 0 0 0 0 0 0 0 0 0 0 0 0 "/>
</feComponentTransfer>
<feComposite operator="in" in2="shape" in="coloredNoise1" result="noise1Clipped" />
<feFlood flood-color="rgba(0, 0, 0, 0.05)" result="color1Flood" />
<feComposite operator="in" in2="noise1Clipped" in="color1Flood" result="color1" />
<feMerge result="effect1_noise_2234_940">
<feMergeNode in="shape" />
<feMergeNode in="color1" />
</feMerge>
</filter>
<filter id="filter2_n_2234_940" x="238.939" y="53.2207" width="109.876" height="335.988" filterUnits="userSpaceOnUse" color-interpolation-filters="sRGB">
<feFlood flood-opacity="0" result="BackgroundImageFix"/>
<feBlend mode="normal" in="SourceGraphic" in2="BackgroundImageFix" result="shape"/>
<feTurbulence type="fractalNoise" baseFrequency="1 1" stitchTiles="stitch" numOctaves="3" result="noise" seed="1706" />
<feColorMatrix in="noise" type="luminanceToAlpha" result="alphaNoise" />
<feComponentTransfer in="alphaNoise" result="coloredNoise1">
<feFuncA type="discrete" tableValues="1 1 1 1 1 1 1 1 1 1 1 1 1 1 1 1 1 1 1 1 1 1 1 1 1 1 1 1 1 1 1 1 1 1 1 1 1 1 1 1 1 1 1 1 1 1 1 1 1 1 1 0 0 0 0 0 0 0 0 0 0 0 0 0 0 0 0 0 0 0 0 0 0 0 0 0 0 0 0 0 0 0 0 0 0 0 0 0 0 0 0 0 0 0 0 0 0 0 0 0 "/>
</feComponentTransfer>
<feComposite operator="in" in2="shape" in="coloredNoise1" result="noise1Clipped" />
<feFlood flood-color="rgba(0, 0, 0, 0.05)" result="color1Flood" />
<feComposite operator="in" in2="noise1Clipped" in="color1Flood" result="color1" />
<feMerge result="effect1_noise_2234_940">
<feMergeNode in="shape" />
<feMergeNode in="color1" />
</feMerge>
</filter>
<filter id="filter3_n_2234_940" x="0" y="0" width="338.152" height="353.849" filterUnits="userSpaceOnUse" color-interpolation-filters="sRGB">
<feFlood flood-opacity="0" result="BackgroundImageFix"/>
<feBlend mode="normal" in="SourceGraphic" in2="BackgroundImageFix" result="shape"/>
<feTurbulence type="fractalNoise" baseFrequency="1 1" stitchTiles="stitch" numOctaves="3" result="noise" seed="1706" />
<feColorMatrix in="noise" type="luminanceToAlpha" result="alphaNoise" />
<feComponentTransfer in="alphaNoise" result="coloredNoise1">
<feFuncA type="discrete" tableValues="1 1 1 1 1 1 1 1 1 1 1 1 1 1 1 1 1 1 1 1 1 1 1 1 1 1 1 1 1 1 1 1 1 1 1 1 1 1 1 1 1 1 1 1 1 1 1 1 1 1 1 0 0 0 0 0 0 0 0 0 0 0 0 0 0 0 0 0 0 0 0 0 0 0 0 0 0 0 0 0 0 0 0 0 0 0 0 0 0 0 0 0 0 0 0 0 0 0 0 0 "/>
</feComponentTransfer>
<feComposite operator="in" in2="shape" in="coloredNoise1" result="noise1Clipped" />
<feFlood flood-color="rgba(0, 0, 0, 0.05)" result="color1Flood" />
<feComposite operator="in" in2="noise1Clipped" in="color1Flood" result="color1" />
<feMerge result="effect1_noise_2234_940">
<feMergeNode in="shape" />
<feMergeNode in="color1" />
</feMerge>
</filter>
<linearGradient id="paint0_linear_2234_940" x1="-3.31041" y1="292.179" x2="286.043" y2="294.562" gradientUnits="userSpaceOnUse">
<stop stop-color="#0362A6"/>
<stop offset="1" stop-color="#32FF92"/>
</linearGradient>
<linearGradient id="paint1_linear_2234_940" x1="144.998" y1="315.481" x2="377.556" y2="122.477" gradientUnits="userSpaceOnUse">
<stop stop-color="#32FF92"/>
<stop offset="1" stop-color="#0362A6"/>
</linearGradient>
<linearGradient id="paint2_linear_2234_940" x1="0.421221" y1="190.687" x2="343.281" y2="190.687" gradientUnits="userSpaceOnUse">
<stop stop-color="#0A7FD2"/>
<stop offset="1" stop-color="#32FF92"/>
</linearGradient>
</defs>
</svg>
