<svg width="843" height="531" viewBox="0 0 843 531" fill="none" xmlns="http://www.w3.org/2000/svg">
<g filter="url(#filter0_f_2307_1188)">
<path d="M74.6255 382.499L25.6165 333.739L346.727 105.466L823.142 202.839L834.741 196.005L769.838 517.266L758.809 522.354L74.6255 382.499Z" fill="#001524" fill-opacity="0.3"/>
</g>
<mask id="mask0_2307_1188" style="mask-type:alpha" maskUnits="userSpaceOnUse" x="0" y="55" width="347" height="332">
<path d="M214.558 264.716L0.0117188 298.743L25.6233 333.746L282.373 386.301C309.532 274.307 319.809 216.518 346.969 104.524L338.049 55.0967L214.558 264.716Z" fill="#D9D9D9"/>
</mask>
<g mask="url(#mask0_2307_1188)">
<g filter="url(#filter1_n_2307_1188)">
<path d="M24.0972 342.285L286.054 401.275L320.406 255.031L16.915 197.744L-6.43262 297.733L24.0972 342.285Z" fill="url(#paint0_linear_2307_1188)"/>
</g>
<g filter="url(#filter2_n_2307_1188)">
<path d="M283.583 389.209L269.483 353.714L238.938 126.747L339.298 53.2207L348.815 105.771L283.583 389.209Z" fill="url(#paint1_linear_2307_1188)"/>
</g>
</g>
<g filter="url(#filter3_n_2307_1188)">
<path d="M338.152 55.1064L68.6007 0L0 298.755L269.574 353.849L338.152 55.1064Z" fill="url(#paint2_linear_2307_1188)"/>
</g>
<path d="M90.0664 61.8701L95.0031 40.487L104.1 42.4206C106.362 42.9013 107.94 43.8852 108.836 45.3724C109.535 46.5251 109.715 47.8391 109.374 49.3145C108.85 51.5874 107.353 52.8381 104.886 53.0666L104.865 53.1563C106.077 53.7277 106.98 54.547 107.573 55.6144C108.171 56.6618 108.312 57.8734 107.994 59.2491C107.617 60.8839 106.781 62.1391 105.487 63.0144C103.913 64.1021 101.965 64.3993 99.6435 63.9058L90.0664 61.8701ZM93.3277 60.022L100.083 61.4578C101.564 61.7726 102.767 61.652 103.694 61.0959C104.491 60.5542 105.002 59.7948 105.228 58.8179C105.527 57.5219 105.344 56.4478 104.68 55.5955C104.016 54.7432 103.003 54.1724 101.642 53.8831L95.0676 52.4856L93.3277 60.022ZM95.5923 50.2127L101.657 51.5017C102.958 51.7783 104.05 51.6862 104.933 51.2255C105.816 50.7649 106.385 49.9863 106.638 48.8897C106.877 47.853 106.723 46.9732 106.176 46.2503C105.654 45.5118 104.792 45.0149 103.591 44.7597L97.1665 43.394L95.5923 50.2127ZM121.937 68.6443L119.505 68.1274L119.995 66.0041L119.935 65.9913C118.332 67.3866 116.58 67.8822 114.679 67.478C113.077 67.1377 111.91 66.419 111.176 65.3218C110.447 64.2047 110.267 62.8487 110.635 61.2537L113.107 50.5472L115.539 51.0641L113.081 61.7108C112.851 62.7076 112.972 63.549 113.443 64.2349C113.935 64.925 114.731 65.3871 115.832 65.6211C117.053 65.8806 118.128 65.6803 119.057 65.0203C119.986 64.3603 120.594 63.4122 120.879 62.1761L123.075 52.6658L125.506 53.1827L121.937 68.6443ZM125.826 69.4709L129.395 54.0093L131.827 54.5262L128.257 69.9878L125.826 69.4709ZM130.072 51.0785L130.762 48.0878L133.194 48.6047L132.504 51.5954L130.072 51.0785ZM132.263 70.8391L137.199 49.4561L139.631 49.973L134.694 71.356L132.263 70.8391ZM144.596 73.9314C142.475 73.4804 140.961 72.3953 140.056 70.6761C139.176 68.9412 139.024 66.8277 139.599 64.3355C140.179 61.8233 141.278 59.9757 142.895 58.7925C144.511 57.6093 146.311 57.2283 148.292 57.6495C150.394 58.0962 151.819 59.2882 152.569 61.2253L152.629 61.2381L154.5 53.1335L156.932 53.6504L151.995 75.0335L149.563 74.5166L149.998 72.6325L149.938 72.6197C148.358 73.9153 146.578 74.3525 144.596 73.9314ZM145.156 71.9169C146.817 72.27 148.175 71.9833 149.228 71.0569C150.302 70.1348 151.053 68.7466 151.481 66.8924C151.905 65.0582 151.805 63.4892 151.182 62.1855C150.579 60.8861 149.497 60.0704 147.936 59.7386C146.515 59.4365 145.283 59.7708 144.24 60.7413C143.222 61.6961 142.503 63.0807 142.084 64.895C141.665 66.7094 141.707 68.2556 142.21 69.5338C142.733 70.8162 143.715 71.6106 145.156 71.9169ZM173.424 79.7452C171.883 79.4176 171.169 78.4607 171.284 76.8744L171.254 76.868C169.595 78.2307 167.685 78.6822 165.524 78.2228C163.983 77.8952 162.807 77.2583 161.996 76.3122C161.186 75.366 160.942 74.1951 161.264 72.7995C161.43 72.0817 161.683 71.4871 162.022 71.0155C162.387 70.5282 162.786 70.1634 163.22 69.921C163.658 69.6586 164.216 69.4737 164.891 69.3664C165.592 69.2433 166.246 69.1837 166.854 69.1874C167.466 69.1712 168.239 69.1891 169.172 69.2409C169.771 69.2846 170.195 69.312 170.444 69.3231C170.718 69.3186 171.067 69.3091 171.49 69.2945C171.918 69.2599 172.228 69.1899 172.421 69.0844C172.613 68.9789 172.807 68.8214 173.002 68.6119C173.198 68.4024 173.332 68.1382 173.406 67.8192C173.608 66.9419 173.452 66.2081 172.938 65.6176C172.448 65.0115 171.652 64.5914 170.552 64.3574C168.05 63.8257 166.496 64.6877 165.892 66.9436L163.55 66.4458C163.953 64.8792 164.786 63.7281 166.048 62.9923C167.33 62.2608 168.961 62.1056 170.943 62.5268C174.766 63.3393 176.299 65.3805 175.545 68.6503L173.846 76.0072C173.69 76.6851 173.689 77.187 173.845 77.513C174.021 77.8431 174.445 78.0065 175.118 78.0031L175.208 78.0222L174.8 79.7867C174.363 79.8611 173.904 79.8473 173.424 79.7452ZM166.492 76.4834C167.993 76.8025 169.253 76.6206 170.272 75.9377C171.295 75.2349 171.926 74.3651 172.165 73.3283L172.773 70.6966C171.927 70.9977 170.658 71.1255 168.968 71.08C168.34 71.072 167.847 71.0717 167.488 71.0791C167.134 71.0666 166.716 71.1033 166.234 71.1891C165.757 71.255 165.385 71.3643 165.119 71.5169C164.853 71.6694 164.601 71.8982 164.362 72.2031C164.129 72.4881 163.961 72.8499 163.86 73.2885C163.473 74.9632 164.351 76.0282 166.492 76.4834ZM184.677 67.8305L185.133 65.8567L187.264 66.3098L187.837 63.8275C188.132 62.5515 188.694 61.7088 189.523 61.2995C190.357 60.8702 191.445 60.7981 192.786 61.0831C193.166 61.1639 193.572 61.2711 194.003 61.4046L193.526 63.4681C193.251 63.3886 192.993 63.3233 192.753 63.2723C191.972 63.1064 191.394 63.109 191.019 63.2802C190.643 63.4514 190.384 63.846 190.241 64.464L189.696 66.8266L192.578 67.4393L192.122 69.4131L189.24 68.8005L186.126 82.2883L183.695 81.7714L186.808 68.2836L184.677 67.8305ZM204.288 86.1487L201.856 85.6318L202.347 83.5084L202.287 83.4957C200.684 84.891 198.931 85.3866 197.03 84.9824C195.429 84.6421 194.262 83.9233 193.528 82.8262C192.799 81.7091 192.619 80.353 192.987 78.758L195.459 68.0515L197.89 68.5684L195.432 79.2151C195.202 80.212 195.323 81.0534 195.795 81.7393C196.286 82.4294 197.082 82.8915 198.183 83.1254C199.404 83.385 200.479 83.1847 201.408 82.5247C202.338 81.8646 202.945 80.9165 203.23 79.6804L205.426 70.1702L207.858 70.6871L204.288 86.1487ZM208.267 86.9944L213.204 65.6113L215.636 66.1282L210.699 87.5113L208.267 86.9944ZM216.823 74.6634L217.279 72.6896L219.41 73.1426L219.983 70.6604C220.278 69.3844 220.84 68.5417 221.669 68.1324C222.503 67.7031 223.591 67.6309 224.932 67.916C225.312 67.9968 225.718 68.104 226.149 68.2374L225.673 70.301C225.397 70.2215 225.139 70.1562 224.899 70.1052C224.118 69.9392 223.54 69.9419 223.165 70.1131C222.789 70.2842 222.53 70.6789 222.388 71.2969L221.842 73.6595L224.724 74.2722L224.269 76.246L221.386 75.6334L218.273 89.1211L215.841 88.6042L218.955 75.1165L216.823 74.6634ZM223.226 90.1741L226.796 74.7125L229.228 75.2294L225.658 90.691L223.226 90.1741ZM227.473 71.7816L228.163 68.791L230.595 69.3079L229.904 72.2985L227.473 71.7816ZM229.639 91.5372L234.576 70.1541L237.008 70.671L232.071 92.0541L229.639 91.5372ZM236.162 92.9237L241.099 71.5406L243.531 72.0575L238.594 93.4406L236.162 92.9237ZM242.595 94.291L246.165 78.8294L248.596 79.3463L245.027 94.8079L242.595 94.291ZM246.841 75.8986L247.532 72.9079L249.963 73.4248L249.273 76.4155L246.841 75.8986ZM254.943 80.6954L254.474 82.729L254.534 82.7418C256.103 81.402 257.928 80.9534 260.01 81.3958C261.651 81.7447 262.833 82.4456 263.556 83.4986C264.279 84.5516 264.456 85.8756 264.088 87.4707L261.581 98.3267L259.149 97.8098L261.607 87.1631C261.838 86.1662 261.705 85.3327 261.208 84.6625C260.717 83.9723 259.921 83.5103 258.82 83.2763C257.579 83.0125 256.466 83.1943 255.481 83.8216C254.497 84.449 253.859 85.3907 253.569 86.6468L251.374 96.157L248.942 95.6401L252.511 80.1785L254.943 80.6954ZM270.401 105.598C268.419 105.176 266.946 104.466 265.98 103.466C265.029 102.49 264.64 101.309 264.813 99.9235L267.065 100.402C266.921 102.024 268.161 103.114 270.783 103.671C273.745 104.301 275.532 103.289 276.144 100.638L276.648 98.4546L276.588 98.4418C275.784 99.1075 274.985 99.5652 274.192 99.8151C273.4 100.065 272.483 100.079 271.442 99.858C269.441 99.4326 267.975 98.3681 267.046 96.6646C266.116 94.961 265.909 92.9928 266.425 90.7597C266.963 88.427 268.022 86.7069 269.6 85.5992C271.199 84.4958 272.939 84.144 274.82 84.5439C276.862 84.9779 278.264 86.0915 279.025 87.8849L279.085 87.8976L279.541 85.9238L281.973 86.4407L278.597 101.065C278.141 103.039 277.188 104.394 275.737 105.132C274.301 105.893 272.522 106.049 270.401 105.598ZM272.032 97.8499C275.174 98.5178 277.187 96.9378 278.071 93.1097C278.913 89.4612 277.753 87.3008 274.591 86.6286C273.17 86.3265 271.962 86.6031 270.967 87.4583C269.991 88.3177 269.306 89.6047 268.91 91.3193C268.514 93.0339 268.579 94.4805 269.105 95.659C269.635 96.8175 270.611 97.5478 272.032 97.8499ZM87.9212 99.6742C85.6595 99.1934 84.0177 98.0287 82.9957 96.1801C81.9937 94.3356 81.7597 92.257 82.2936 89.9443C82.8276 87.6315 83.9546 85.8422 85.6746 84.5764C87.4147 83.3148 89.4155 82.9244 91.6772 83.4051C93.4986 83.7922 94.8769 84.5977 95.8122 85.8213C96.7522 87.0251 97.1712 88.4842 97.0694 90.1985L94.6075 89.6753C94.6713 88.5803 94.412 87.6572 93.8296 86.9059C93.2471 86.1546 92.3755 85.6556 91.2146 85.4088C89.6134 85.0685 88.239 85.3829 87.0914 86.3521C85.9638 87.3255 85.1951 88.6995 84.7855 90.4739C84.3758 92.2484 84.4678 93.8053 85.0615 95.1446C85.6798 96.4682 86.7895 97.3002 88.3907 97.6405C89.6316 97.9043 90.6983 97.7859 91.5908 97.2854C92.4878 96.7649 93.1268 95.9072 93.5076 94.7123L95.9094 95.2228C95.3212 97.043 94.327 98.3481 92.9268 99.1381C91.5312 99.9081 89.8626 100.087 87.9212 99.6742ZM109.999 104.085C108.458 103.757 107.745 102.8 107.859 101.214L107.829 101.208C106.171 102.57 104.261 103.022 102.099 102.562C100.558 102.235 99.382 101.598 98.5716 100.652C97.7612 99.7055 97.5171 98.5346 97.8393 97.139C98.005 96.4212 98.2578 95.8266 98.5976 95.355C98.9621 94.8677 99.3613 94.5029 99.7952 94.2605C100.234 93.9981 100.791 93.8132 101.466 93.7059C102.167 93.5828 102.821 93.5232 103.429 93.5269C104.042 93.5107 104.814 93.5286 105.747 93.5804C106.346 93.6241 106.77 93.6515 107.02 93.6626C107.294 93.6581 107.642 93.6486 108.066 93.634C108.494 93.5994 108.804 93.5294 108.996 93.4239C109.188 93.3183 109.382 93.1608 109.578 92.9514C109.773 92.7419 109.907 92.4777 109.981 92.1587C110.184 91.2814 110.028 90.5476 109.513 89.9571C109.023 89.351 108.228 88.9309 107.127 88.6969C104.625 88.1651 103.072 89.0272 102.467 91.2831L100.125 90.7853C100.529 89.2187 101.361 88.0676 102.623 87.3318C103.905 86.6003 105.536 86.4451 107.518 86.8663C111.341 87.6788 112.875 89.72 112.12 92.9898L110.421 100.347C110.265 101.025 110.264 101.527 110.42 101.852C110.596 102.183 111.02 102.346 111.693 102.343L111.783 102.362L111.376 104.126C110.938 104.201 110.48 104.187 109.999 104.085ZM103.067 100.823C104.569 101.142 105.828 100.96 106.847 100.277C107.87 99.5744 108.501 98.7046 108.741 97.6678L109.348 95.0361C108.502 95.3372 107.234 95.465 105.543 95.4195C104.915 95.4115 104.422 95.4112 104.063 95.4186C103.709 95.4061 103.291 95.4428 102.809 95.5286C102.332 95.5945 101.961 95.7038 101.694 95.8564C101.428 96.0089 101.176 96.2377 100.938 96.5426C100.704 96.8276 100.536 97.1893 100.435 97.628C100.048 99.3027 100.926 100.368 103.067 100.823ZM119.751 89.7802L119.157 92.3522L119.217 92.3649C119.906 91.6539 120.709 91.1342 121.624 90.8059C122.545 90.4577 123.495 90.3878 124.476 90.5963C124.836 90.6729 125.153 90.8029 125.425 90.9863L124.887 93.319L124.797 93.2999C124.519 93.1364 124.171 93.0099 123.75 92.9206C122.509 92.6568 121.347 92.87 120.264 93.5601C119.186 94.2302 118.485 95.2631 118.163 96.6587L116.181 105.242L113.75 104.725L117.319 89.2633L119.751 89.7802ZM130.593 108.744C128.291 108.255 126.637 107.098 125.63 105.274C124.648 103.434 124.427 101.347 124.965 99.0144C125.495 96.7216 126.619 94.9422 128.339 93.6764C130.084 92.3949 132.037 91.9839 134.199 92.4433C136.48 92.9283 138.058 94.1002 138.93 95.959C139.808 97.7978 139.942 100.033 139.335 102.665L127.326 100.112C127.049 101.768 127.22 103.206 127.842 104.426C128.488 105.63 129.561 106.392 131.062 106.711C133.384 107.204 135.059 106.452 136.087 104.453L138.459 104.957C137.717 106.536 136.659 107.66 135.287 108.33C133.919 108.981 132.354 109.119 130.593 108.744ZM136.695 96.3624C136.117 95.3192 135.138 94.6509 133.757 94.3573C132.376 94.0638 131.169 94.2884 130.137 95.0311C129.124 95.778 128.348 96.8679 127.807 98.3008L137.144 100.285C137.423 98.7132 137.273 97.4056 136.695 96.3624ZM147.201 112.275C144.9 111.785 143.245 110.628 142.239 108.804C141.257 106.964 141.035 104.877 141.574 102.545C142.103 100.252 143.228 98.4725 144.948 97.2066C146.692 95.9251 148.646 95.5141 150.807 95.9736C153.089 96.4585 154.666 97.6304 155.539 99.4892C156.416 101.328 156.551 103.563 155.943 106.195L143.934 103.643C143.657 105.299 143.829 106.737 144.45 107.956C145.096 109.16 146.17 109.922 147.671 110.241C149.992 110.734 151.668 109.982 152.696 107.983L155.068 108.488C154.325 110.066 153.268 111.19 151.895 111.86C150.527 112.511 148.963 112.649 147.201 112.275ZM153.304 99.8926C152.726 98.8495 151.746 98.1811 150.365 97.8876C148.984 97.594 147.778 97.8186 146.745 98.5613C145.733 99.3083 144.956 100.398 144.416 101.831L153.753 103.816C154.031 102.243 153.882 100.936 153.304 99.8926ZM163.273 99.0311L162.679 101.603L162.739 101.616C163.428 100.905 164.231 100.385 165.146 100.057C166.067 99.7086 167.017 99.6387 167.998 99.8471C168.358 99.9237 168.674 100.054 168.947 100.237L168.409 102.57L168.318 102.551C168.041 102.387 167.692 102.261 167.272 102.171C166.031 101.908 164.869 102.121 163.786 102.811C162.707 103.481 162.007 104.514 161.685 105.91L159.703 114.493L157.271 113.976L160.841 98.5142L163.273 99.0311ZM180.824 119.453C178.763 119.014 177.322 117.84 176.503 115.93L176.443 115.917L175.974 117.951L173.542 117.434L178.479 96.0512L180.911 96.5681L179.033 104.703L179.093 104.715C180.749 103.269 182.609 102.765 184.67 103.203C186.672 103.628 188.105 104.696 188.97 106.407C189.839 108.098 189.982 110.209 189.397 112.741C188.822 115.233 187.763 117.09 186.222 118.31C184.705 119.514 182.906 119.895 180.824 119.453ZM181.113 117.381C182.555 117.687 183.772 117.371 184.766 116.431C185.764 115.472 186.475 114.076 186.898 112.241C187.317 110.427 187.285 108.883 186.802 107.609C186.324 106.315 185.375 105.517 183.954 105.215C182.332 104.871 180.968 105.187 179.86 106.165C178.757 107.123 178.001 108.489 177.591 110.263C177.173 112.078 177.255 113.632 177.837 114.927C178.42 116.223 179.512 117.04 181.113 117.381ZM191.157 126.543C190.236 126.348 189.531 126.083 189.041 125.748L189.538 123.595L189.658 123.621C190.008 123.925 190.533 124.152 191.233 124.301C191.774 124.416 192.256 124.372 192.681 124.169C193.101 123.987 193.534 123.566 193.98 122.908L194.933 121.51L192.334 105.208L194.976 105.77L196.416 116.178L196.769 119.422L196.829 119.435C197.456 118.355 198.029 117.421 198.547 116.631L204.313 107.754L206.895 108.303L196.401 123.611C195.45 124.998 194.595 125.883 193.835 126.265C193.07 126.668 192.177 126.76 191.157 126.543ZM214.417 126.122L213.063 109.614L215.675 110.169L216.204 120.29L216.278 123.789L216.339 123.801C216.952 122.509 217.463 121.478 217.872 120.707L222.7 111.663L225.252 112.205L225.557 122.341L225.555 125.76L225.615 125.773C226.249 124.486 226.794 123.441 227.252 122.639L232.337 113.711L234.859 114.247L226.216 128.63L223.724 128.101L223.303 118.191L223.298 114.802L223.238 114.789C222.659 116.025 222.15 117.047 221.712 117.853L216.939 126.658L214.417 126.122ZM245.89 130.804C244.17 132.07 242.179 132.463 239.918 131.982C237.656 131.501 236.014 130.337 234.992 128.488C233.99 126.643 233.756 124.565 234.29 122.252C234.824 119.939 235.951 118.15 237.671 116.884C239.411 115.623 241.412 115.232 243.674 115.713C245.935 116.194 247.567 117.356 248.569 119.201C249.571 121.045 249.805 123.124 249.271 125.436C248.737 127.749 247.61 129.538 245.89 130.804ZM237.058 127.452C237.676 128.776 238.786 129.608 240.387 129.948C241.988 130.289 243.35 129.982 244.473 129.029C245.601 128.055 246.37 126.681 246.779 124.907C247.194 123.112 247.092 121.553 246.473 120.23C245.88 118.89 244.792 118.053 243.211 117.717C241.61 117.376 240.235 117.691 239.088 118.66C237.96 119.633 237.191 121.007 236.782 122.782C236.372 124.556 236.464 126.113 237.058 127.452ZM256.517 118.851L255.923 121.423L255.983 121.435C256.672 120.724 257.475 120.205 258.39 119.876C259.311 119.528 260.261 119.458 261.242 119.667C261.602 119.743 261.918 119.873 262.191 120.057L261.653 122.389L261.562 122.37C261.285 122.207 260.937 122.08 260.516 121.991C259.275 121.727 258.113 121.94 257.03 122.631C255.951 123.301 255.251 124.334 254.929 125.729L252.947 134.312L250.515 133.795L254.085 118.334L256.517 118.851ZM271.614 138.28L268.047 128.768L265.268 130.437L263.839 136.627L261.407 136.11L266.343 114.727L268.775 115.244L265.882 127.775L274.223 122.614L277.316 123.272L270.087 127.571L274.466 138.886L271.614 138.28ZM75.1829 120.199L75.6386 118.225L77.8903 118.703L79.0157 113.829L81.4475 114.345L80.3221 119.22L83.3243 119.858L82.8686 121.832L79.8664 121.194L77.5465 131.243C77.3256 132.2 77.7355 132.789 78.7762 133.01C79.2166 133.104 79.663 133.125 80.1155 133.075L80.2056 133.094L79.7223 135.188C79.0296 135.187 78.363 135.118 77.7225 134.982C75.4408 134.497 74.5301 133.258 74.9904 131.264L77.4346 120.677L75.1829 120.199ZM90.2347 115.115L88.3982 123.07L88.4582 123.083C90.0273 121.743 91.8527 121.295 93.9342 121.737C95.5754 122.086 96.7574 122.787 97.4802 123.84C98.203 124.893 98.3802 126.217 98.012 127.812L95.5057 138.668L93.0739 138.151L95.5318 127.504C95.762 126.507 95.629 125.674 95.1328 125.004C94.6412 124.314 93.845 123.852 92.7442 123.618C91.5033 123.354 90.3904 123.536 89.4057 124.163C88.421 124.79 87.7837 125.732 87.4937 126.988L85.2981 136.498L82.8663 135.981L87.8029 114.598L90.2347 115.115ZM111.483 142.221C109.942 141.893 109.228 140.936 109.342 139.35L109.312 139.344C107.654 140.706 105.744 141.158 103.582 140.698C102.041 140.371 100.865 139.734 100.055 138.788C99.2445 137.842 99.0004 136.671 99.3226 135.275C99.4883 134.557 99.7411 133.963 100.081 133.491C100.445 133.004 100.845 132.639 101.279 132.397C101.717 132.134 102.274 131.949 102.95 131.842C103.65 131.719 104.304 131.659 104.912 131.663C105.525 131.647 106.298 131.665 107.231 131.717C107.83 131.76 108.254 131.788 108.503 131.799C108.777 131.794 109.126 131.785 109.549 131.77C109.977 131.736 110.287 131.666 110.479 131.56C110.672 131.454 110.866 131.297 111.061 131.088C111.256 130.878 111.391 130.614 111.464 130.295C111.667 129.418 111.511 128.684 110.996 128.093C110.506 127.487 109.711 127.067 108.61 126.833C106.108 126.301 104.555 127.163 103.95 129.419L101.608 128.921C102.012 127.355 102.845 126.204 104.106 125.468C105.388 124.736 107.02 124.581 109.001 125.002C112.824 125.815 114.358 127.856 113.603 131.126L111.905 138.483C111.748 139.161 111.748 139.663 111.904 139.989C112.079 140.319 112.503 140.482 113.176 140.479L113.266 140.498L112.859 142.262C112.422 142.337 111.963 142.323 111.483 142.221ZM104.551 138.959C106.052 139.278 107.312 139.096 108.33 138.413C109.353 137.711 109.985 136.841 110.224 135.804L110.832 133.172C109.985 133.473 108.717 133.601 107.027 133.556C106.399 133.548 105.905 133.547 105.546 133.555C105.192 133.542 104.775 133.579 104.293 133.665C103.816 133.731 103.444 133.84 103.178 133.992C102.912 134.145 102.659 134.374 102.421 134.679C102.187 134.964 102.02 135.325 101.918 135.764C101.532 137.439 102.409 138.504 104.551 138.959ZM117.063 129.1L117.519 127.127L119.77 127.605L120.896 122.73L123.328 123.247L122.202 128.122L125.204 128.76L124.749 130.734L121.746 130.096L119.426 140.144C119.206 141.101 119.615 141.691 120.656 141.912C121.097 142.005 121.543 142.027 121.996 141.977L122.086 141.996L121.602 144.089C120.91 144.089 120.243 144.02 119.603 143.884C117.321 143.399 116.41 142.16 116.87 140.166L119.315 129.579L117.063 129.1Z" fill="#FAFAFA"/>
<path d="M129.795 145.956L133.337 130.614L137.27 131.45L136.794 133.514L136.884 133.533C138.247 132.087 139.929 131.576 141.93 132.002C142.891 132.206 143.684 132.636 144.31 133.292C144.96 133.932 145.381 134.701 145.572 135.599L145.632 135.612C147.167 134.056 148.916 133.486 150.877 133.903C152.478 134.244 153.606 134.996 154.261 136.16C154.941 137.309 155.085 138.73 154.694 140.425L152.312 150.743L148.229 149.875L150.452 140.245C150.857 138.49 150.269 137.445 148.688 137.109C147.828 136.926 147.076 137.09 146.433 137.602C145.814 138.098 145.388 138.854 145.153 139.871L143.095 148.783L139.012 147.916L141.235 138.286C141.641 136.531 141.052 135.486 139.471 135.15C138.651 134.975 137.909 135.142 137.246 135.649C136.607 136.141 136.171 136.895 135.936 137.912L133.878 146.824L129.795 145.956ZM165.131 153.467C164.991 153.166 164.962 152.563 165.044 151.661L164.984 151.648C164.392 152.212 163.714 152.601 162.951 152.816C162.188 153.03 161.196 153.007 159.975 152.748C158.353 152.403 157.147 151.718 156.355 150.692C155.563 149.666 155.339 148.405 155.685 146.91C156.044 145.355 156.846 144.333 158.093 143.845C159.344 143.337 160.983 143.152 163.008 143.29C164.496 143.397 165.522 143.406 166.089 143.317C166.66 143.209 167.007 142.885 167.132 142.347C167.261 141.789 167.142 141.303 166.775 140.891C166.413 140.458 165.812 140.152 164.971 139.974C163.11 139.578 161.953 140.085 161.502 141.495L157.869 140.723C158.265 139.28 159.134 138.2 160.476 137.481C161.817 136.762 163.549 136.628 165.671 137.079C169.994 137.998 171.721 140.342 170.851 144.11L169.049 151.915C168.782 153.072 168.798 153.818 169.099 154.154L169.064 154.303L165.131 153.467ZM161.621 150.117C162.742 150.355 163.69 150.254 164.463 149.811C165.257 149.374 165.746 148.756 165.931 147.959L166.462 145.656C165.962 145.821 164.942 145.918 163.403 145.947C162.182 145.959 161.293 146.084 160.734 146.321C160.18 146.537 159.825 146.985 159.668 147.663C159.369 148.959 160.02 149.777 161.621 150.117ZM181.868 157.025L179.16 149.108L176.967 150.555L175.773 155.729L171.72 154.868L176.657 133.485L180.71 134.346L177.976 146.189L184.779 141.549L189.673 142.589L182.652 147.215L186.821 158.078L181.868 157.025ZM194.786 160.241C192.304 159.714 190.528 158.541 189.456 156.724C188.39 154.887 188.13 152.782 188.678 150.409C189.207 148.116 190.36 146.353 192.135 145.12C193.915 143.867 195.916 143.477 198.138 143.949C200.56 144.464 202.238 145.699 203.172 147.654C204.106 149.61 204.249 151.993 203.6 154.805L192.432 152.431C192.311 153.681 192.503 154.715 193.007 155.533C193.515 156.332 194.34 156.852 195.481 157.095C196.982 157.414 198.118 156.996 198.888 155.842L202.911 156.697C202.279 158.069 201.243 159.104 199.801 159.801C198.359 160.499 196.687 160.645 194.786 160.241ZM197.473 147.102C195.491 146.681 194.047 147.524 193.141 149.632L199.986 151.087C200.151 150.097 200.003 149.24 199.541 148.514C199.083 147.768 198.394 147.298 197.473 147.102ZM210.726 163.629C208.524 163.161 206.914 162.317 205.894 161.096C204.878 159.856 204.504 158.385 204.77 156.685L208.553 157.489C208.422 159.239 209.347 160.324 211.329 160.746C212.23 160.937 212.957 160.924 213.511 160.707C214.085 160.495 214.434 160.119 214.558 159.581C214.604 159.382 214.606 159.194 214.563 159.017C214.539 158.845 214.451 158.68 214.299 158.522C214.171 158.348 214.046 158.207 213.925 158.097C213.823 157.992 213.621 157.865 213.319 157.718C213.017 157.57 212.781 157.457 212.61 157.379C212.459 157.305 212.181 157.193 211.774 157.044C211.392 156.879 211.126 156.76 210.975 156.686C210.171 156.348 209.517 156.041 209.014 155.767C208.535 155.477 208.042 155.111 207.535 154.668C207.033 154.206 206.696 153.664 206.525 153.042C206.378 152.404 206.397 151.686 206.581 150.889C206.949 149.294 207.81 148.201 209.165 147.61C210.539 147.024 212.147 146.927 213.988 147.318C215.969 147.739 217.415 148.527 218.324 149.683C219.258 150.823 219.623 152.197 219.419 153.806L215.726 153.021C215.912 151.492 215.093 150.533 213.272 150.146C212.451 149.972 211.766 149.983 211.217 150.18C210.688 150.381 210.361 150.751 210.236 151.289C210.195 151.469 210.186 151.645 210.209 151.817C210.257 151.974 210.347 152.129 210.48 152.282C210.637 152.42 210.786 152.546 210.928 152.66C211.074 152.754 211.288 152.873 211.57 153.016C211.857 153.14 212.103 153.255 212.309 153.361C212.52 153.448 212.807 153.572 213.169 153.732C213.535 153.873 213.824 153.987 214.035 154.073C214.643 154.349 215.133 154.589 215.506 154.794C215.903 154.983 216.342 155.265 216.823 155.639C217.308 155.993 217.664 156.361 217.89 156.744C218.142 157.111 218.315 157.587 218.411 158.172C218.532 158.742 218.511 159.375 218.35 160.073C218 161.588 217.121 162.667 215.713 163.309C214.33 163.935 212.668 164.042 210.726 163.629ZM235.097 168.339C234.957 168.037 234.928 167.435 235.011 166.532L234.951 166.52C234.358 167.084 233.681 167.473 232.917 167.687C232.154 167.902 231.162 167.879 229.941 167.619C228.32 167.275 227.113 166.59 226.321 165.564C225.529 164.538 225.306 163.277 225.651 161.782C226.01 160.227 226.813 159.205 228.059 158.717C229.31 158.209 230.949 158.024 232.975 158.162C234.462 158.269 235.488 158.278 236.055 158.189C236.626 158.08 236.974 157.757 237.098 157.219C237.227 156.66 237.108 156.175 236.741 155.762C236.379 155.33 235.778 155.024 234.937 154.846C233.076 154.45 231.919 154.957 231.468 156.367L227.835 155.595C228.231 154.152 229.1 153.071 230.442 152.353C231.784 151.634 233.515 151.5 235.637 151.951C239.96 152.87 241.687 155.213 240.817 158.982L239.015 166.787C238.748 167.944 238.764 168.69 239.065 169.025L239.03 169.175L235.097 168.339ZM231.587 164.989C232.708 165.227 233.656 165.125 234.43 164.683C235.224 164.245 235.713 163.628 235.897 162.83L236.428 160.527C235.928 160.693 234.908 160.79 233.369 160.818C232.148 160.831 231.259 160.956 230.7 161.192C230.146 161.409 229.791 161.857 229.634 162.535C229.335 163.83 229.986 164.649 231.587 164.989ZM70.067 171.552C68.1256 171.14 66.7224 170.078 65.8575 168.367C64.9973 166.637 64.8525 164.535 65.4233 162.063C65.9756 159.67 67.0349 157.856 68.601 156.62C70.1918 155.369 71.9478 154.947 73.8693 155.356C75.7907 155.764 77.0669 156.83 77.6978 158.554L77.7878 158.573L79.6106 150.678L83.6937 151.546L78.757 172.929L74.8241 172.093L75.2867 170.089L75.2266 170.076C73.8484 171.498 72.1286 171.99 70.067 171.552ZM71.7548 168.334C72.9557 168.59 73.9607 168.374 74.7699 167.689C75.5991 167.008 76.1794 165.949 76.5108 164.514C77.2657 161.244 76.4523 159.356 74.0705 158.85C72.9697 158.616 72.0278 158.876 71.2448 159.629C70.4619 160.383 69.9024 161.488 69.5664 162.943C69.2211 164.439 69.2344 165.655 69.6061 166.591C69.9978 167.532 70.714 168.113 71.7548 168.334ZM82.0116 173.62L85.5536 158.279L89.6366 159.146L86.0946 174.488L82.0116 173.62ZM86.1059 155.886L86.9483 152.237L91.0313 153.105L90.189 156.754L86.1059 155.886ZM91.3183 162.453L91.9673 159.642L94.0689 160.089L94.3589 158.832C94.7731 157.038 95.6782 155.892 97.074 155.394C98.4898 154.9 100.173 154.975 102.124 155.62L101.399 158.76C100.468 158.52 99.7764 158.468 99.3254 158.602C98.8745 158.736 98.5616 159.182 98.3867 159.94L98.1519 160.956L102.745 161.933L103.063 160.557C103.477 158.763 104.392 157.619 105.808 157.125C107.224 156.631 108.947 156.715 110.978 157.377L110.253 160.517C109.242 160.26 108.5 160.196 108.03 160.326C107.579 160.461 107.266 160.907 107.091 161.664L106.828 162.801L109.59 163.388L108.941 166.199L106.179 165.612L103.286 178.143L99.2034 177.275L102.096 164.744L97.5029 163.768L94.61 176.298L90.5269 175.43L93.4199 162.9L91.3183 162.453ZM115.207 181.147C112.725 180.619 110.948 179.447 109.877 177.63C108.81 175.792 108.551 173.687 109.099 171.315C109.628 169.022 110.78 167.259 112.556 166.026C114.336 164.773 116.337 164.382 118.558 164.855C120.98 165.369 122.658 166.605 123.593 168.56C124.527 170.516 124.67 172.899 124.021 175.71L112.852 173.336C112.732 174.587 112.923 175.621 113.427 176.439C113.936 177.237 114.761 177.758 115.902 178C117.403 178.319 118.538 177.902 119.309 176.748L123.332 177.603C122.7 178.975 121.663 180.009 120.221 180.707C118.78 181.404 117.108 181.551 115.207 181.147ZM117.894 168.008C115.912 167.586 114.468 168.43 113.561 170.538L120.407 171.993C120.572 171.003 120.424 170.145 119.961 169.42C119.503 168.674 118.814 168.203 117.894 168.008ZM132.481 168.253L131.914 170.705L132.005 170.725C132.692 169.93 133.374 169.384 134.051 169.089C134.733 168.774 135.514 168.71 136.395 168.897C136.815 168.986 137.126 169.094 137.328 169.221L136.506 172.78L136.416 172.76C135.068 172.327 133.888 172.39 132.877 172.949C131.866 173.508 131.178 174.575 130.815 176.15L129.089 183.627L125.006 182.759L128.548 167.417L132.481 168.253ZM142.824 187.017C140.342 186.49 138.565 185.317 137.494 183.5C136.427 181.663 136.168 179.558 136.716 177.185C137.245 174.892 138.397 173.129 140.173 171.896C141.953 170.643 143.954 170.253 146.176 170.725C148.597 171.24 150.275 172.475 151.21 174.43C152.144 176.386 152.287 178.769 151.638 181.58L140.469 179.207C140.349 180.457 140.54 181.491 141.044 182.309C141.553 183.108 142.378 183.628 143.519 183.871C145.02 184.19 146.155 183.772 146.926 182.618L150.949 183.473C150.317 184.845 149.28 185.88 147.839 186.577C146.397 187.275 144.725 187.421 142.824 187.017ZM145.511 173.878C143.529 173.457 142.085 174.3 141.178 176.408L148.024 177.863C148.189 176.873 148.041 176.016 147.578 175.29C147.121 174.544 146.431 174.074 145.511 173.878ZM160.158 174.136L159.674 176.23L159.764 176.249C161.212 174.799 162.926 174.285 164.908 174.707C166.489 175.043 167.646 175.853 168.378 177.138C169.115 178.403 169.287 179.883 168.896 181.578L166.583 191.597L162.5 190.729L164.675 181.308C164.868 180.471 164.785 179.742 164.424 179.122C164.083 178.505 163.493 178.108 162.652 177.929C161.751 177.738 160.925 177.907 160.172 178.437C159.44 178.972 158.954 179.758 158.715 180.794L156.706 189.497L152.623 188.629L156.165 173.287L160.158 174.136ZM176.742 194.227C174.36 193.72 172.626 192.547 171.539 190.705C170.453 188.864 170.179 186.776 170.717 184.444C171.256 182.111 172.403 180.326 174.158 179.089C175.934 177.855 177.972 177.484 180.274 177.973C182.216 178.385 183.679 179.23 184.666 180.506C185.652 181.783 186.087 183.308 185.971 185.082L181.978 184.233C181.999 183.506 181.81 182.869 181.411 182.324C181.012 181.779 180.442 181.428 179.702 181.271C178.501 181.016 177.481 181.249 176.643 181.97C175.804 182.691 175.21 183.809 174.86 185.324C174.515 186.82 174.551 188.072 174.969 189.081C175.392 190.07 176.204 190.692 177.405 190.948C179.186 191.326 180.417 190.678 181.098 189.003L185.03 189.839C184.499 191.504 183.484 192.763 181.985 193.616C180.491 194.448 178.744 194.652 176.742 194.227ZM193.294 197.745C190.812 197.217 189.036 196.045 187.964 194.228C186.898 192.39 186.638 190.285 187.186 187.913C187.715 185.62 188.868 183.857 190.643 182.624C192.423 181.371 194.424 180.98 196.646 181.453C199.068 181.967 200.746 183.203 201.68 185.158C202.614 187.114 202.757 189.497 202.108 192.308L190.94 189.934C190.819 191.185 191.011 192.219 191.515 193.037C192.023 193.835 192.848 194.356 193.989 194.598C195.49 194.917 196.626 194.5 197.396 193.346L201.419 194.201C200.787 195.573 199.751 196.607 198.309 197.305C196.867 198.002 195.195 198.149 193.294 197.745ZM195.981 184.606C193.999 184.184 192.555 185.028 191.649 187.136L198.494 188.591C198.659 187.601 198.511 186.743 198.049 186.018C197.591 185.272 196.902 184.801 195.981 184.606ZM63.2149 207.917C60.7331 207.389 58.9565 206.217 57.8853 204.399C56.8187 202.562 56.5592 200.457 57.107 198.085C57.6363 195.792 58.7887 194.029 60.5642 192.796C62.3443 191.543 64.3452 191.152 66.5668 191.624C68.9887 192.139 70.6667 193.374 71.6011 195.33C72.5354 197.285 72.678 199.669 72.029 202.48L60.8607 200.106C60.7401 201.356 60.9317 202.391 61.4357 203.209C61.9443 204.007 62.769 204.528 63.9099 204.77C65.411 205.089 66.5467 204.672 67.3171 203.518L71.3401 204.373C70.7084 205.745 69.6717 206.779 68.2298 207.477C66.788 208.174 65.1163 208.321 63.2149 207.917ZM65.9019 194.777C63.9205 194.356 62.4764 195.2 61.5698 197.308L68.4149 198.763C68.5804 197.773 68.4319 196.915 67.9696 196.189C67.5118 195.444 66.8226 194.973 65.9019 194.777ZM76.8039 210.334L75.0019 193.857L79.145 194.737L79.7703 203.216L79.8946 205.815L79.9547 205.827C80.2467 205.199 80.6555 204.429 81.1813 203.515L85.5398 196.096L89.6228 196.964L80.7068 211.164L76.8039 210.334ZM94.7607 214.622C92.2788 214.094 90.5023 212.922 89.4311 211.105C88.3644 209.267 88.105 207.162 88.6527 204.79C89.1821 202.497 90.3345 200.734 92.11 199.501C93.8901 198.248 95.8909 197.857 98.1126 198.33C100.534 198.844 102.212 200.08 103.147 202.035C104.081 203.991 104.224 206.374 103.575 209.185L92.4065 206.811C92.2858 208.062 92.4775 209.096 92.9815 209.914C93.4901 210.712 94.3148 211.233 95.4556 211.475C96.9567 211.794 98.0925 211.377 98.8628 210.223L102.886 211.078C102.254 212.45 101.217 213.484 99.7756 214.182C98.3337 214.879 96.6621 215.026 94.7607 214.622ZM97.4477 201.483C95.4662 201.061 94.0221 201.905 93.1155 204.013L99.9606 205.468C100.126 204.478 99.9777 203.62 99.5153 202.895C99.0576 202.149 98.3684 201.678 97.4477 201.483ZM112.035 201.728L111.469 204.18L111.559 204.2C112.246 203.404 112.928 202.859 113.606 202.564C114.287 202.249 115.068 202.185 115.949 202.372C116.369 202.461 116.68 202.569 116.882 202.696L116.061 206.255L115.97 206.235C114.622 205.802 113.442 205.865 112.431 206.424C111.42 206.983 110.733 208.05 110.369 209.625L108.643 217.102L104.56 216.234L108.102 200.892L112.035 201.728ZM115.003 223.725L115.741 220.525L117.182 220.831C118.704 221.154 119.625 220.618 119.947 219.222C120.104 218.545 120.034 217.076 119.736 214.817L118.113 203.02L122.407 203.933L123.093 211.326L123.311 214.886L123.371 214.899C123.95 213.663 124.508 212.61 125.045 211.741L128.801 205.292L132.914 206.166L123.909 220.755C122.903 222.382 121.944 223.443 121.032 223.939C120.135 224.46 118.925 224.558 117.404 224.235L115.003 223.725ZM53.4207 243.656C51.4792 243.243 50.076 242.181 49.2112 240.471C48.3509 238.74 48.2061 236.638 48.7769 234.166C49.3293 231.774 50.3885 229.96 51.9546 228.724C53.5454 227.472 55.3015 227.051 57.2229 227.459C59.1443 227.868 60.4205 228.934 61.0514 230.657L61.1415 230.676L62.9642 222.781L67.0473 223.649L62.1106 245.032L58.1777 244.196L58.6403 242.192L58.5802 242.18C57.202 243.602 55.4822 244.094 53.4207 243.656ZM55.1084 240.438C56.3093 240.693 57.3144 240.478 58.1235 239.792C58.9527 239.111 59.533 238.053 59.8645 236.617C60.6193 233.347 59.8059 231.459 57.4241 230.953C56.3233 230.719 55.3814 230.979 54.5985 231.733C53.8155 232.487 53.256 233.591 52.92 235.047C52.5748 236.542 52.588 237.758 52.9597 238.695C53.3514 239.635 54.0677 240.216 55.1084 240.438ZM75.0624 247.785C74.9221 247.483 74.8932 246.881 74.9756 245.978L74.9156 245.966C74.3234 246.53 73.6456 246.919 72.8822 247.133C72.1188 247.348 71.1267 247.325 69.9058 247.066C68.2846 246.721 67.078 246.036 66.286 245.01C65.494 243.984 65.2706 242.723 65.6158 241.228C65.9748 239.673 66.7776 238.651 68.0241 238.163C69.2752 237.655 70.9137 237.47 72.9396 237.608C74.4267 237.715 75.4535 237.724 76.0199 237.635C76.5909 237.526 76.9386 237.203 77.0629 236.665C77.1917 236.106 77.0728 235.621 76.7062 235.208C76.3441 234.776 75.7427 234.47 74.9021 234.292C73.0407 233.896 71.8843 234.403 71.4328 235.813L67.8001 235.041C68.1961 233.598 69.0651 232.518 70.4068 231.799C71.7486 231.08 73.4803 230.946 75.6019 231.397C79.9251 232.316 81.6517 234.66 80.7818 238.428L78.9797 246.233C78.7127 247.39 78.7295 248.136 79.0299 248.472L78.9954 248.621L75.0624 247.785ZM71.5525 244.435C72.6733 244.673 73.6207 244.571 74.3947 244.129C75.1886 243.691 75.6777 243.074 75.8618 242.276L76.3934 239.974C75.8933 240.139 74.8735 240.236 73.3342 240.264C72.1135 240.277 71.2238 240.402 70.6652 240.638C70.1112 240.855 69.756 241.303 69.5995 241.981C69.3003 243.276 69.9513 244.095 71.5525 244.435ZM80.6749 254.249L81.4136 251.049L82.8547 251.355C84.3759 251.679 85.2975 251.142 85.6197 249.747C85.7762 249.069 85.7058 247.6 85.4086 245.341L83.7856 233.544L88.0788 234.457L88.7656 241.85L88.983 245.41L89.0431 245.423C89.6225 244.187 90.1805 243.134 90.717 242.265L94.4736 235.816L98.5866 236.69L89.5809 251.279C88.5754 252.906 87.6164 253.967 86.7039 254.464C85.8069 254.984 84.5978 255.083 83.0767 254.759L80.6749 254.249ZM95.1462 252.054L96.1474 247.718L100.531 248.649L99.5295 252.986L95.1462 252.054Z" fill="#32FF92"/>
<path fill-rule="evenodd" clip-rule="evenodd" d="M177.466 274.864C178.559 275.265 179.686 275.518 180.847 275.623C181.981 275.711 183.113 275.687 184.244 275.551C186.785 275.185 189.281 274.553 191.69 273.667C192.042 273.575 192.344 273.352 192.535 273.043C192.726 272.735 192.791 272.365 192.717 272.01C192.617 271.663 192.392 271.366 192.086 271.176C191.78 270.986 191.415 270.916 191.06 270.979C188.67 271.264 186.253 271.349 183.844 271.248C182.401 271.222 180.963 271.119 179.528 270.937L177.443 270.469C180.598 267.822 182.923 264.322 184.139 260.387C186.85 252.22 184.588 242.937 175.084 239.926C171.973 239.206 168.736 239.237 165.639 240.015C162.542 240.793 159.675 242.297 157.274 244.401C154.681 246.351 152.781 249.081 151.854 252.19C150.927 255.299 151.022 258.623 152.125 261.674C152.843 263.521 153.971 265.184 155.422 266.541L156.823 267.733C152.881 270.287 149.565 273.696 147.121 277.707C145.268 280.828 143.849 284.187 142.905 287.692C141.559 292.807 140.739 298.049 140.449 303.331C140.416 303.522 140.424 303.718 140.47 303.906C140.517 304.094 140.602 304.271 140.719 304.425C140.837 304.579 140.985 304.707 141.155 304.802C141.324 304.896 141.511 304.954 141.704 304.973C142.054 305.008 142.403 304.907 142.68 304.691C142.957 304.476 143.141 304.162 143.193 303.815C144.06 298.768 145.337 293.8 147.01 288.96C148.087 285.865 149.42 282.859 151.001 279.983C153.131 275.955 156.034 272.387 159.543 269.481C160.606 270.027 161.669 270.573 162.75 271.035C162.894 271.099 163.05 271.134 163.207 271.138C163.365 271.142 163.522 271.115 163.669 271.058C163.817 271.002 163.951 270.917 164.066 270.808C164.18 270.699 164.272 270.569 164.336 270.425C164.4 270.281 164.435 270.125 164.439 269.968C164.443 269.81 164.416 269.653 164.359 269.506C164.303 269.359 164.217 269.224 164.109 269.11C164 268.995 163.87 268.903 163.726 268.839C155.799 265.041 155.166 260.816 155.153 260.681C154.446 258.278 154.533 255.711 155.401 253.361C156.268 251.011 157.87 249.003 159.968 247.636C161.864 246.02 164.112 244.869 166.532 244.277C168.951 243.684 171.476 243.665 173.904 244.222C180.953 246.243 182.393 253.108 180.629 259.209C179.944 262.451 178.204 265.374 175.681 267.523C173.159 269.672 169.995 270.924 166.686 271.084C166.328 271.068 165.978 271.189 165.706 271.421C165.434 271.653 165.26 271.98 165.22 272.335C165.205 272.69 165.328 273.036 165.563 273.302C165.798 273.567 166.127 273.732 166.48 273.76C168.814 273.942 171.157 273.532 173.289 272.566C174.554 273.539 175.961 274.316 177.466 274.864Z" fill="#199271"/>
<path fill-rule="evenodd" clip-rule="evenodd" d="M191.093 279.635C189.024 280.867 186.815 281.845 184.513 282.548C182.244 283.218 179.912 283.65 177.554 283.84C175.767 283.877 173.982 284.004 172.201 284.219C170.94 284.385 169.773 284.972 168.886 285.885C167.431 287.977 166.474 290.375 166.088 292.895C164.917 298.115 165.186 304.932 164.696 308.29C164.662 308.465 164.664 308.645 164.702 308.819C164.739 308.994 164.811 309.159 164.913 309.305C165.016 309.45 165.147 309.574 165.298 309.668C165.449 309.763 165.618 309.826 165.794 309.853C165.965 309.886 166.142 309.885 166.312 309.849C166.483 309.814 166.646 309.745 166.79 309.647C166.934 309.549 167.058 309.424 167.154 309.278C167.249 309.132 167.315 308.969 167.348 308.797C167.986 305.955 168.699 300.628 169.776 295.826C172.205 285.005 174.071 288.624 178.253 287.983C180.793 287.42 183.277 286.627 185.673 285.613C188.111 284.589 190.415 283.262 192.525 281.664C192.665 281.584 192.788 281.476 192.884 281.347C192.98 281.217 193.048 281.069 193.083 280.911C193.118 280.754 193.12 280.591 193.089 280.432C193.057 280.274 192.993 280.124 192.9 279.992C192.816 279.838 192.7 279.704 192.558 279.599C192.417 279.495 192.254 279.423 192.082 279.389C191.909 279.354 191.732 279.358 191.561 279.4C191.39 279.442 191.231 279.52 191.094 279.631M234.635 282.515C232.599 282.278 230.607 281.831 228.659 281.174C222.916 279.007 216.016 272.019 220.761 264.177C222.275 261.915 224.306 260.046 226.686 258.725C229.065 257.404 231.726 256.669 234.446 256.581C237.345 256.369 240.235 257.107 242.676 258.685C245.118 260.263 246.979 262.594 247.976 265.325C248.463 266.716 248.668 268.191 248.581 269.663C248.493 271.135 248.114 272.574 247.466 273.899C246.817 275.223 245.912 276.405 244.803 277.377C243.694 278.349 242.404 279.091 241.006 279.56C240.675 279.698 240.412 279.96 240.273 280.289C240.133 280.619 240.128 280.99 240.259 281.323C240.347 281.581 240.515 281.803 240.738 281.959C240.961 282.115 241.228 282.196 241.5 282.19C241.68 282.188 241.859 282.147 242.022 282.07C243.828 281.531 245.508 280.639 246.965 279.445C248.422 278.252 249.628 276.78 250.512 275.117C251.396 273.453 251.941 271.63 252.114 269.754C252.288 267.878 252.087 265.987 251.523 264.189C250.383 260.548 248.082 257.38 244.973 255.169C241.863 252.958 238.115 251.825 234.302 251.944C230.837 252.065 227.455 253.037 224.455 254.775C221.455 256.512 218.929 258.962 217.1 261.907C215.923 263.887 215.287 266.142 215.256 268.445C215.224 270.749 215.798 273.02 216.92 275.032C216.285 274.635 215.68 274.191 215.111 273.704C213.254 271.761 211.902 269.392 211.172 266.806C210.563 264.734 209.645 262.767 208.447 260.97C207.498 259.466 206.183 258.228 204.624 257.373C203.065 256.517 201.315 256.071 199.536 256.077C198.019 256.353 196.594 257.002 195.39 257.965C194.186 258.929 193.241 260.177 192.639 261.597C192.179 262.487 191.956 263.48 191.992 264.481C192.177 265.731 192.425 266.97 192.738 268.199C193.059 269.413 193.452 270.599 193.915 271.756C195.037 274.774 196.516 277.652 198.311 280.333C200.122 283.022 202.297 285.459 204.759 287.575C206.788 289.019 208.888 290.354 211.06 291.579C211.697 291.986 212.276 292.467 212.795 293.022C212.88 294.663 212.806 296.298 212.572 297.928C212.323 300.495 211.886 303.029 211.26 305.531C210.305 309.356 209.139 313.117 207.762 316.814C207.703 316.962 207.674 317.121 207.676 317.28C207.678 317.44 207.711 317.597 207.774 317.744C207.837 317.89 207.928 318.023 208.042 318.135C208.156 318.246 208.291 318.334 208.439 318.393C208.588 318.452 208.746 318.482 208.905 318.479C209.065 318.477 209.223 318.444 209.369 318.381C209.516 318.318 209.648 318.227 209.76 318.113C209.871 317.999 209.959 317.864 210.018 317.716C211.508 314.011 213.017 310.223 214.148 306.355C214.935 303.737 215.532 301.076 215.94 298.372C216.277 296.64 216.495 294.886 216.591 293.123C216.581 292.342 216.358 291.579 215.945 290.915C215.202 289.924 214.32 289.046 213.326 288.308C211.452 286.878 209.127 285.697 207.555 284.291C205.437 282.361 203.57 280.174 201.997 277.78C200.428 275.37 199.105 272.808 198.05 270.134C197.671 269.083 197.333 268.046 197.047 266.972C196.009 263.402 196.39 263.663 196.837 262.842C197.093 262.204 197.498 261.637 198.019 261.188C198.54 260.74 199.161 260.423 199.83 260.265C201.373 260.041 203.132 261.006 205.385 263.487C207.637 265.968 208.27 272.125 212.871 276.055C215.056 277.862 217.671 279.081 220.46 279.602C220.803 279.951 221.168 280.281 221.554 280.594C223.403 281.983 225.485 283.03 227.704 283.686C229.843 284.284 232.034 284.673 234.248 284.847C234.404 284.866 234.562 284.853 234.713 284.809C234.864 284.765 235.004 284.69 235.125 284.59C235.246 284.49 235.346 284.366 235.417 284.226C235.489 284.087 235.531 283.934 235.542 283.777C235.584 283.491 235.513 283.2 235.344 282.966C235.176 282.732 234.923 282.572 234.639 282.52" fill="#199271"/>
<path fill-rule="evenodd" clip-rule="evenodd" d="M238.78 281.65C238.705 281.493 238.596 281.355 238.461 281.244C238.326 281.133 238.169 281.054 238 281.01C237.831 280.966 237.655 280.96 237.484 280.992C237.312 281.023 237.15 281.092 237.007 281.192C236.865 281.293 236.747 281.423 236.66 281.575C236.573 281.726 236.52 281.894 236.505 282.068C236.49 282.241 236.513 282.416 236.573 282.58C236.632 282.744 236.727 282.893 236.85 283.017C239.44 287.725 240.528 293.113 239.969 298.458C239.81 301.706 239.438 304.93 238.852 308.129C237.904 313.067 236.677 317.948 235.176 322.747C235.114 322.912 235.086 323.088 235.093 323.264C235.1 323.44 235.142 323.613 235.216 323.773C235.291 323.933 235.396 324.076 235.527 324.195C235.657 324.313 235.81 324.404 235.976 324.463C236.308 324.589 236.675 324.581 237.001 324.442C237.327 324.302 237.586 324.041 237.724 323.714C239.909 318.989 241.697 314.092 243.07 309.071C243.99 305.624 244.463 302.072 244.476 298.504C244.536 292.403 242.527 286.462 238.776 281.649" fill="#199271"/>
<path fill-rule="evenodd" clip-rule="evenodd" d="M186.189 234.433C186.232 235.18 186.344 235.922 186.524 236.659C186.671 237.371 186.865 238.073 187.105 238.765C187.738 240.444 188.483 242.073 189.34 243.652C189.438 243.951 189.646 244.201 189.922 244.353C190.197 244.504 190.52 244.546 190.825 244.468C191.13 244.38 191.387 244.173 191.54 243.895C191.693 243.616 191.729 243.289 191.641 242.983C191.463 241.232 191.527 239.578 191.341 237.868C191.255 237.143 191.123 236.424 190.945 235.716C190.792 235.016 190.595 234.327 190.355 233.652C189.806 231.992 189.153 230.401 188.492 228.848C188.406 228.501 188.189 228.202 187.886 228.013C187.583 227.824 187.218 227.761 186.869 227.837C186.52 227.913 186.215 228.123 186.018 228.421C185.821 228.719 185.748 229.082 185.815 229.432C185.979 231.049 185.961 232.714 186.189 234.433ZM204.889 239.684C204.82 239.987 204.872 240.305 205.034 240.57C205.195 240.836 205.454 241.028 205.754 241.107C205.907 241.153 206.067 241.168 206.225 241.149C206.384 241.13 206.536 241.079 206.674 240.999C206.812 240.919 206.931 240.811 207.025 240.682C207.119 240.553 207.185 240.406 207.22 240.251C207.99 238.58 208.815 237.053 209.428 235.303C209.632 234.574 209.798 233.834 209.925 233.088C210.126 232.36 210.292 231.622 210.422 230.873C210.806 229.159 210.68 227.375 210.823 225.563C210.9 225.222 210.845 224.865 210.668 224.565C210.49 224.264 210.205 224.042 209.87 223.944C209.697 223.9 209.518 223.89 209.342 223.916C209.166 223.943 208.997 224.004 208.845 224.097C208.693 224.19 208.561 224.312 208.457 224.457C208.354 224.602 208.28 224.766 208.242 224.94C207.555 226.629 206.845 228.226 206.284 229.944C206.08 230.673 205.914 231.412 205.787 232.159C205.579 232.891 205.413 233.629 205.29 234.374C204.98 236.148 205.032 237.872 204.889 239.684ZM218.8 248.859C220.229 248.253 221.605 247.537 222.925 246.712C223.448 246.341 223.936 245.924 224.391 245.461C224.838 245.035 225.253 244.557 225.667 244.079C226.594 242.883 227.387 241.7 228.262 240.535C228.54 240.308 228.72 239.984 228.767 239.628C228.814 239.273 228.725 238.913 228.516 238.621C228.271 238.361 227.933 238.207 227.575 238.192C227.218 238.178 226.869 238.303 226.602 238.543C225.281 239.344 224.063 240.08 222.806 240.983C222.327 241.359 221.848 241.734 221.401 242.16C220.881 242.584 220.395 243.047 219.948 243.546C219.03 244.701 218.322 245.903 217.372 247.007C217.24 247.098 217.128 247.214 217.042 247.348C216.956 247.483 216.897 247.633 216.87 247.791C216.843 247.948 216.847 248.11 216.884 248.265C216.92 248.421 216.986 248.568 217.08 248.697C217.174 248.827 217.293 248.936 217.431 249.019C217.568 249.102 217.72 249.156 217.879 249.179C218.037 249.202 218.199 249.193 218.354 249.152C218.509 249.112 218.654 249.041 218.781 248.943L218.8 248.859Z" fill="#199271"/>
<defs>
<filter id="filter0_f_2307_1188" x="17.6165" y="97.4658" width="825.125" height="432.888" filterUnits="userSpaceOnUse" color-interpolation-filters="sRGB">
<feFlood flood-opacity="0" result="BackgroundImageFix"/>
<feBlend mode="normal" in="SourceGraphic" in2="BackgroundImageFix" result="shape"/>
<feGaussianBlur stdDeviation="4" result="effect1_foregroundBlur_2307_1188"/>
</filter>
<filter id="filter1_n_2307_1188" x="-6.43262" y="197.744" width="326.839" height="203.531" filterUnits="userSpaceOnUse" color-interpolation-filters="sRGB">
<feFlood flood-opacity="0" result="BackgroundImageFix"/>
<feBlend mode="normal" in="SourceGraphic" in2="BackgroundImageFix" result="shape"/>
<feTurbulence type="fractalNoise" baseFrequency="1 1" stitchTiles="stitch" numOctaves="3" result="noise" seed="1706" />
<feColorMatrix in="noise" type="luminanceToAlpha" result="alphaNoise" />
<feComponentTransfer in="alphaNoise" result="coloredNoise1">
<feFuncA type="discrete" tableValues="1 1 1 1 1 1 1 1 1 1 1 1 1 1 1 1 1 1 1 1 1 1 1 1 1 1 1 1 1 1 1 1 1 1 1 1 1 1 1 1 1 1 1 1 1 1 1 1 1 1 1 0 0 0 0 0 0 0 0 0 0 0 0 0 0 0 0 0 0 0 0 0 0 0 0 0 0 0 0 0 0 0 0 0 0 0 0 0 0 0 0 0 0 0 0 0 0 0 0 0 "/>
</feComponentTransfer>
<feComposite operator="in" in2="shape" in="coloredNoise1" result="noise1Clipped" />
<feFlood flood-color="rgba(0, 0, 0, 0.05)" result="color1Flood" />
<feComposite operator="in" in2="noise1Clipped" in="color1Flood" result="color1" />
<feMerge result="effect1_noise_2307_1188">
<feMergeNode in="shape" />
<feMergeNode in="color1" />
</feMerge>
</filter>
<filter id="filter2_n_2307_1188" x="238.938" y="53.2207" width="109.876" height="335.988" filterUnits="userSpaceOnUse" color-interpolation-filters="sRGB">
<feFlood flood-opacity="0" result="BackgroundImageFix"/>
<feBlend mode="normal" in="SourceGraphic" in2="BackgroundImageFix" result="shape"/>
<feTurbulence type="fractalNoise" baseFrequency="1 1" stitchTiles="stitch" numOctaves="3" result="noise" seed="1706" />
<feColorMatrix in="noise" type="luminanceToAlpha" result="alphaNoise" />
<feComponentTransfer in="alphaNoise" result="coloredNoise1">
<feFuncA type="discrete" tableValues="1 1 1 1 1 1 1 1 1 1 1 1 1 1 1 1 1 1 1 1 1 1 1 1 1 1 1 1 1 1 1 1 1 1 1 1 1 1 1 1 1 1 1 1 1 1 1 1 1 1 1 0 0 0 0 0 0 0 0 0 0 0 0 0 0 0 0 0 0 0 0 0 0 0 0 0 0 0 0 0 0 0 0 0 0 0 0 0 0 0 0 0 0 0 0 0 0 0 0 0 "/>
</feComponentTransfer>
<feComposite operator="in" in2="shape" in="coloredNoise1" result="noise1Clipped" />
<feFlood flood-color="rgba(0, 0, 0, 0.05)" result="color1Flood" />
<feComposite operator="in" in2="noise1Clipped" in="color1Flood" result="color1" />
<feMerge result="effect1_noise_2307_1188">
<feMergeNode in="shape" />
<feMergeNode in="color1" />
</feMerge>
</filter>
<filter id="filter3_n_2307_1188" x="0" y="0" width="338.152" height="353.849" filterUnits="userSpaceOnUse" color-interpolation-filters="sRGB">
<feFlood flood-opacity="0" result="BackgroundImageFix"/>
<feBlend mode="normal" in="SourceGraphic" in2="BackgroundImageFix" result="shape"/>
<feTurbulence type="fractalNoise" baseFrequency="1 1" stitchTiles="stitch" numOctaves="3" result="noise" seed="1706" />
<feColorMatrix in="noise" type="luminanceToAlpha" result="alphaNoise" />
<feComponentTransfer in="alphaNoise" result="coloredNoise1">
<feFuncA type="discrete" tableValues="1 1 1 1 1 1 1 1 1 1 1 1 1 1 1 1 1 1 1 1 1 1 1 1 1 1 1 1 1 1 1 1 1 1 1 1 1 1 1 1 1 1 1 1 1 1 1 1 1 1 1 0 0 0 0 0 0 0 0 0 0 0 0 0 0 0 0 0 0 0 0 0 0 0 0 0 0 0 0 0 0 0 0 0 0 0 0 0 0 0 0 0 0 0 0 0 0 0 0 0 "/>
</feComponentTransfer>
<feComposite operator="in" in2="shape" in="coloredNoise1" result="noise1Clipped" />
<feFlood flood-color="rgba(0, 0, 0, 0.05)" result="color1Flood" />
<feComposite operator="in" in2="noise1Clipped" in="color1Flood" result="color1" />
<feMerge result="effect1_noise_2307_1188">
<feMergeNode in="shape" />
<feMergeNode in="color1" />
</feMerge>
</filter>
<linearGradient id="paint0_linear_2307_1188" x1="-3.31032" y1="292.179" x2="286.043" y2="294.562" gradientUnits="userSpaceOnUse">
<stop stop-color="#0362A6"/>
<stop offset="1" stop-color="#32FF92"/>
</linearGradient>
<linearGradient id="paint1_linear_2307_1188" x1="144.998" y1="315.481" x2="377.556" y2="122.477" gradientUnits="userSpaceOnUse">
<stop stop-color="#32FF92"/>
<stop offset="1" stop-color="#0362A6"/>
</linearGradient>
<linearGradient id="paint2_linear_2307_1188" x1="0.421221" y1="190.687" x2="343.281" y2="190.687" gradientUnits="userSpaceOnUse">
<stop stop-color="#0A7FD2"/>
<stop offset="1" stop-color="#32FF92"/>
</linearGradient>
</defs>
</svg>
