<svg width="483" height="457" viewBox="0 0 483 457" fill="none" xmlns="http://www.w3.org/2000/svg">
<g filter="url(#filter0_f_2307_1198)">
<path d="M74.6255 382.499L25.6165 333.739L346.727 105.466L463.282 129.285L474.882 122.451L409.978 443.712L398.95 448.8L74.6255 382.499Z" fill="#001524" fill-opacity="0.3"/>
</g>
<mask id="mask0_2307_1198" style="mask-type:alpha" maskUnits="userSpaceOnUse" x="0" y="55" width="347" height="332">
<path d="M214.558 264.716L0.0117188 298.743L25.6233 333.746L282.373 386.301C309.532 274.307 319.809 216.518 346.969 104.524L338.049 55.0967L214.558 264.716Z" fill="#D9D9D9"/>
</mask>
<g mask="url(#mask0_2307_1198)">
<g filter="url(#filter1_n_2307_1198)">
<path d="M24.0972 342.286L286.054 401.276L320.406 255.032L16.915 197.745L-6.43262 297.734L24.0972 342.286Z" fill="url(#paint0_linear_2307_1198)"/>
</g>
<g filter="url(#filter2_n_2307_1198)">
<path d="M283.583 389.209L269.483 353.714L238.938 126.747L339.298 53.2207L348.815 105.771L283.583 389.209Z" fill="url(#paint1_linear_2307_1198)"/>
</g>
</g>
<g filter="url(#filter3_n_2307_1198)">
<path d="M338.152 55.1064L68.6007 0L0 298.755L269.574 353.849L338.152 55.1064Z" fill="url(#paint2_linear_2307_1198)"/>
</g>
<path d="M90.5083 62.1718L95.445 40.7888L104.542 42.7223C106.803 43.2031 108.382 44.187 109.277 45.6741C109.977 46.8268 110.157 48.1409 109.816 49.6163C109.291 51.8892 107.795 53.1399 105.328 53.3684L105.307 53.4581C106.519 54.0294 107.422 54.8488 108.015 55.9161C108.613 56.9636 108.754 58.1751 108.436 59.5508C108.059 61.1857 107.223 62.4408 105.929 63.3162C104.355 64.4039 102.407 64.701 100.085 64.2075L90.5083 62.1718ZM93.7695 60.3237L100.525 61.7596C102.006 62.0744 103.209 61.9538 104.136 61.3977C104.933 60.8559 105.444 60.0966 105.669 59.1196C105.969 57.8237 105.786 56.7496 105.122 55.8973C104.458 55.045 103.445 54.4742 102.084 54.1849L95.5095 52.7873L93.7695 60.3237ZM96.0342 50.5144L102.099 51.8035C103.4 52.08 104.492 51.988 105.375 51.5273C106.258 51.0666 106.826 50.288 107.08 49.1915C107.319 48.1547 107.165 47.2749 106.618 46.5521C106.096 45.8136 105.234 45.3167 104.033 45.0614L97.6084 43.6958L96.0342 50.5144ZM116.608 68.1587C114.306 67.6694 112.652 66.5126 111.645 64.6881C110.663 62.8479 110.442 60.7615 110.98 58.4288C111.51 56.136 112.634 54.3566 114.354 53.0908C116.099 51.8093 118.052 51.3982 120.214 51.8577C122.495 52.3427 124.073 53.5146 124.945 55.3733C125.823 57.2122 125.957 59.4475 125.35 62.0792L113.341 59.5267C113.063 61.1828 113.235 62.6207 113.857 63.8404C114.503 65.0444 115.576 65.806 117.077 66.125C119.399 66.6185 121.074 65.866 122.102 63.8675L124.474 64.3716C123.732 65.9499 122.674 67.0742 121.302 67.7446C119.934 68.395 118.369 68.5331 116.608 68.1587ZM122.71 55.7768C122.132 54.7336 121.153 54.0652 119.772 53.7717C118.391 53.4782 117.184 53.7027 116.152 54.4454C115.139 55.1924 114.363 56.2823 113.822 57.7151L123.159 59.6998C123.438 58.1276 123.288 56.82 122.71 55.7768ZM130.911 75.9678L135.627 55.5417L138.059 56.0586L137.555 58.2418L137.615 58.2546C139.267 56.8279 141.124 56.3337 143.185 56.7718C145.187 57.1973 146.63 58.2675 147.515 59.9824C148.404 61.6774 148.557 63.791 147.972 66.3231C147.397 68.8153 146.338 70.6714 144.797 71.8916C143.26 73.0917 141.441 73.4685 139.339 73.0218C137.258 72.5793 135.801 71.475 134.97 69.7087L134.91 69.696L133.343 76.4847L130.911 75.9678ZM139.629 70.9499C141.07 71.2562 142.299 70.9319 143.318 69.9771C144.336 69.0222 145.055 67.6376 145.474 65.8233C145.892 64.009 145.85 62.4627 145.348 61.1846C144.849 59.8865 143.89 59.0864 142.469 58.7843C140.848 58.4397 139.483 58.7563 138.376 59.734C137.273 60.6918 136.516 62.0579 136.107 63.8323C135.688 65.6466 135.75 67.1971 136.293 68.4838C136.835 69.7705 137.947 70.5925 139.629 70.9499ZM161.377 77.3924C159.836 77.0648 159.123 76.1079 159.237 74.5217L159.207 74.5153C157.549 75.8779 155.639 76.3295 153.477 75.87C151.936 75.5424 150.76 74.9055 149.95 73.9594C149.139 73.0132 148.895 71.8423 149.217 70.4467C149.383 69.729 149.636 69.1343 149.976 68.6627C150.34 68.1754 150.739 67.8106 151.173 67.5682C151.612 67.3058 152.169 67.121 152.845 67.0136C153.545 66.8905 154.199 66.8309 154.807 66.8346C155.42 66.8184 156.193 66.8363 157.125 66.8882C157.724 66.9318 158.148 66.9592 158.398 66.9704C158.672 66.9659 159.02 66.9563 159.444 66.9417C159.872 66.9072 160.182 66.8371 160.374 66.7316C160.566 66.6261 160.76 66.4686 160.956 66.2591C161.151 66.0496 161.285 65.7854 161.359 65.4664C161.562 64.5891 161.406 63.8553 160.891 63.2648C160.401 62.6587 159.606 62.2387 158.505 62.0047C156.003 61.4729 154.45 62.3349 153.845 64.5908L151.503 64.093C151.907 62.5265 152.739 61.3753 154.001 60.6395C155.283 59.908 156.914 59.7528 158.896 60.174C162.719 60.9866 164.253 63.0277 163.498 66.2975L161.799 73.6545C161.643 74.3324 161.643 74.8343 161.798 75.1602C161.974 75.4904 162.398 75.6537 163.071 75.6503L163.161 75.6695L162.754 77.4339C162.316 77.5083 161.858 77.4945 161.377 77.3924ZM154.445 74.1307C155.947 74.4497 157.206 74.2678 158.225 73.5849C159.248 72.8821 159.879 72.0123 160.119 70.9756L160.726 68.3438C159.88 68.6449 158.612 68.7728 156.921 68.7272C156.293 68.7192 155.8 68.7189 155.441 68.7264C155.087 68.7138 154.669 68.7505 154.187 68.8364C153.71 68.9023 153.339 69.0115 153.072 69.1641C152.806 69.3167 152.554 69.5454 152.316 69.8503C152.082 70.1353 151.914 70.4971 151.813 70.9357C151.426 72.6105 152.304 73.6754 154.445 74.1307ZM171.129 63.088L170.535 65.6599L170.595 65.6727C171.284 64.9616 172.087 64.4419 173.002 64.1136C173.923 63.7654 174.873 63.6956 175.854 63.904C176.214 63.9806 176.531 64.1106 176.803 64.294L176.265 66.6267L176.175 66.6076C175.897 66.4441 175.549 66.3177 175.128 66.2283C173.887 65.9646 172.725 66.1777 171.642 66.8678C170.564 67.5379 169.863 68.5708 169.541 69.9664L167.559 78.5496L165.128 78.0327L168.697 62.5711L171.129 63.088ZM178.142 66.6493L178.598 64.6755L180.849 65.1541L181.975 60.2794L184.407 60.7963L183.281 65.671L186.284 66.3091L185.828 68.283L182.826 67.6448L180.506 77.6934C180.285 78.6504 180.695 79.2395 181.735 79.4607C182.176 79.5543 182.622 79.576 183.075 79.5258L183.165 79.5449L182.682 81.6384C181.989 81.6375 181.322 81.569 180.682 81.4329C178.4 80.9479 177.489 79.7085 177.95 77.7148L180.394 67.1279L178.142 66.6493ZM203.716 84.2269C201.996 85.4927 200.005 85.8853 197.743 85.4045C195.481 84.9238 193.84 83.7591 192.818 81.9104C191.816 80.066 191.582 77.9874 192.116 75.6746C192.65 73.3619 193.776 71.5726 195.497 70.3067C197.237 69.0451 199.237 68.6547 201.499 69.1355C203.761 69.6162 205.393 70.7788 206.395 72.6232C207.397 74.4676 207.631 76.5462 207.097 78.859C206.563 81.1717 205.436 82.961 203.716 84.2269ZM194.883 80.8749C195.502 82.1986 196.611 83.0306 198.213 83.3709C199.814 83.7112 201.176 83.4047 202.299 82.4512C203.427 81.4777 204.195 80.1038 204.605 78.3293C205.019 76.5349 204.917 74.9759 204.299 73.6523C203.705 72.313 202.618 71.4753 201.037 71.1392C199.435 70.7988 198.061 71.1133 196.913 72.0825C195.786 73.0559 195.017 74.4299 194.607 76.2043C194.198 77.9787 194.29 79.5356 194.883 80.8749ZM210.171 73.4573L210.627 71.4834L212.758 71.9365L213.331 69.4543C213.626 68.1783 214.188 67.3356 215.017 66.9263C215.851 66.497 216.939 66.4248 218.28 66.7099C218.66 66.7907 219.066 66.8979 219.497 67.0313L219.021 69.0949C218.745 69.0154 218.487 68.9501 218.247 68.899C217.466 68.7331 216.888 68.7358 216.513 68.9069C216.137 69.0781 215.878 69.4728 215.736 70.0908L215.19 72.4534L218.072 73.066L217.617 75.0399L214.734 74.4272L211.621 87.915L209.189 87.3981L212.303 73.9103L210.171 73.4573ZM235.007 93.0429C233.466 92.7153 232.753 91.7584 232.867 90.1721L232.837 90.1658C231.178 91.5284 229.268 91.9799 227.107 91.5205C225.566 91.1929 224.39 90.556 223.579 89.6099C222.769 88.6637 222.525 87.4928 222.847 86.0972C223.013 85.3795 223.266 84.7848 223.605 84.3132C223.97 83.8259 224.369 83.4611 224.803 83.2187C225.242 82.9563 225.799 82.7714 226.474 82.6641C227.175 82.541 227.829 82.4814 228.437 82.4851C229.05 82.4689 229.822 82.4868 230.755 82.5387C231.354 82.5823 231.778 82.6097 232.028 82.6209C232.302 82.6164 232.65 82.6068 233.074 82.5922C233.501 82.5577 233.812 82.4876 234.004 82.3821C234.196 82.2766 234.39 82.1191 234.585 81.9096C234.781 81.7001 234.915 81.4359 234.989 81.1169C235.191 80.2396 235.035 79.5058 234.521 78.9153C234.031 78.3092 233.235 77.8891 232.135 77.6552C229.633 77.1234 228.079 77.9854 227.475 80.2413L225.133 79.7435C225.537 78.177 226.369 77.0258 227.631 76.29C228.913 75.5585 230.544 75.4033 232.526 75.8245C236.349 76.6371 237.883 78.6782 237.128 81.948L235.429 89.305C235.273 89.9828 235.272 90.4847 235.428 90.8107C235.604 91.1409 236.028 91.3042 236.701 91.3008L236.791 91.3199L236.383 93.0844C235.946 93.1588 235.488 93.145 235.007 93.0429ZM228.075 89.7812C229.576 90.1002 230.836 89.9183 231.855 89.2354C232.878 88.5326 233.509 87.6628 233.749 86.626L234.356 83.9943C233.51 84.2954 232.241 84.4233 230.551 84.3777C229.923 84.3697 229.43 84.3694 229.071 84.3769C228.717 84.3643 228.299 84.401 227.817 84.4869C227.34 84.5528 226.968 84.662 226.702 84.8146C226.436 84.9672 226.184 85.1959 225.945 85.5008C225.712 85.7858 225.544 86.1476 225.443 86.5862C225.056 88.261 225.934 89.3259 228.075 89.7812ZM83.948 84.4486L84.4037 82.4747L86.6554 82.9534L87.7808 78.0786L90.2126 78.5955L89.0872 83.4703L92.0894 84.1084L91.6337 86.0822L88.6315 85.4441L86.3116 95.4926C86.0906 96.4496 86.5006 97.0387 87.5413 97.26C87.9817 97.3536 88.4281 97.3753 88.8806 97.325L88.9707 97.3442L88.4874 99.4376C87.7947 99.4368 87.1281 99.3683 86.4876 99.2322C84.2059 98.7472 83.2952 97.5078 83.7555 95.514L86.1997 84.9272L83.948 84.4486ZM98.023 102.029C95.7213 101.54 94.0672 100.383 93.0606 98.5586C92.0786 96.7184 91.8569 94.632 92.3954 92.2993C92.9248 90.0065 94.0495 88.2272 95.7695 86.9613C97.5142 85.6798 99.4673 85.2688 101.629 85.7282C103.911 86.2132 105.488 87.3851 106.361 89.2439C107.238 91.0827 107.373 93.318 106.765 95.9498L94.7561 93.3972C94.4787 95.0534 94.6507 96.4913 95.272 97.711C95.9179 98.915 96.9914 99.6765 98.4925 99.9956C100.814 100.489 102.489 99.7366 103.518 97.738L105.889 98.2422C105.147 99.8204 104.09 100.945 102.717 101.615C101.349 102.266 99.7843 102.404 98.023 102.029ZM104.126 89.6473C103.548 88.6041 102.568 87.9358 101.187 87.6422C99.806 87.3487 98.5993 87.5733 97.567 88.316C96.5546 89.0629 95.7781 90.1528 95.2373 91.5857L104.574 93.5703C104.853 91.9981 104.704 90.6905 104.126 89.6473ZM120.248 106.471C118.707 106.143 117.993 105.186 118.107 103.6L118.077 103.594C116.419 104.956 114.509 105.408 112.347 104.948C110.806 104.621 109.63 103.984 108.82 103.038C108.01 102.092 107.765 100.921 108.088 99.5252C108.253 98.8074 108.506 98.2128 108.846 97.7412C109.21 97.2539 109.61 96.8891 110.044 96.6466C110.482 96.3843 111.039 96.1994 111.715 96.0921C112.415 95.969 113.069 95.9094 113.677 95.9131C114.29 95.8969 115.063 95.9148 115.996 95.9666C116.595 96.0103 117.019 96.0377 117.268 96.0488C117.542 96.0443 117.891 96.0348 118.314 96.0202C118.742 95.9856 119.052 95.9156 119.244 95.8101C119.437 95.7045 119.631 95.547 119.826 95.3376C120.021 95.1281 120.156 94.8639 120.229 94.5449C120.432 93.6676 120.276 92.9338 119.761 92.3433C119.271 91.7372 118.476 91.3171 117.375 91.0831C114.873 90.5513 113.32 91.4134 112.715 93.6693L110.373 93.1715C110.777 91.6049 111.61 90.4538 112.872 89.718C114.153 88.9865 115.785 88.8313 117.766 89.2525C121.589 90.065 123.123 92.1062 122.368 95.376L120.67 102.733C120.513 103.411 120.513 103.913 120.669 104.239C120.844 104.569 121.269 104.732 121.941 104.729L122.031 104.748L121.624 106.512C121.187 106.587 120.728 106.573 120.248 106.471ZM113.316 103.209C114.817 103.528 116.077 103.346 117.095 102.663C118.118 101.961 118.75 101.091 118.989 100.054L119.597 97.4223C118.75 97.7234 117.482 97.8512 115.792 97.8057C115.164 97.7977 114.67 97.7974 114.312 97.8048C113.958 97.7923 113.54 97.829 113.058 97.9148C112.581 97.9807 112.209 98.09 111.943 98.2426C111.677 98.3951 111.424 98.6239 111.186 98.9288C110.952 99.2137 110.785 99.5755 110.683 100.014C110.297 101.689 111.174 102.754 113.316 103.209ZM123.998 107.111L127.568 91.6495L129.999 92.1664L129.488 94.3795L129.549 94.3923C130.228 93.721 131.022 93.2412 131.928 92.9529C132.839 92.6445 133.765 92.5903 134.706 92.7903C136.727 93.22 137.866 94.4243 138.124 96.4032L138.184 96.4159C138.862 95.6607 139.687 95.1353 140.658 94.8398C141.633 94.5243 142.602 94.4686 143.562 94.6728C144.983 94.9749 146.023 95.656 146.681 96.7162C147.344 97.7564 147.493 99.0641 147.13 100.639L144.623 111.495L142.192 110.978L144.67 100.242C144.887 99.3048 144.777 98.5076 144.341 97.8501C143.929 97.177 143.323 96.7554 142.522 96.5852C141.502 96.3682 140.519 96.5777 139.574 97.2135C138.63 97.8493 138.021 98.7554 137.75 99.9317L135.527 109.562L133.095 109.045L135.573 98.3083C135.79 97.3712 135.71 96.5804 135.334 95.9357C134.982 95.2753 134.406 94.8601 133.606 94.6899C132.605 94.4772 131.59 94.6902 130.561 95.329C129.556 95.9521 128.92 96.8418 128.653 97.9982L126.43 107.628L123.998 107.111ZM157.206 114.17L155.852 97.6616L158.464 98.2168L158.994 108.338L159.068 111.836L159.128 111.849C159.741 110.557 160.252 109.526 160.661 108.755L165.49 99.7101L168.041 100.253L168.347 110.389L168.345 113.808L168.405 113.821C169.038 112.533 169.584 111.488 170.042 110.686L175.127 101.759L177.649 102.295L169.005 116.678L166.513 116.148L166.093 106.239L166.088 102.849L166.028 102.836C165.448 104.073 164.939 105.094 164.501 105.9L159.728 114.706L157.206 114.17ZM183.831 97.3965L181.994 105.352L182.054 105.364C183.623 104.025 185.448 103.576 187.53 104.018C189.171 104.367 190.353 105.068 191.076 106.121C191.799 107.174 191.976 108.498 191.608 110.093L189.101 120.949L186.67 120.432L189.128 109.786C189.358 108.789 189.225 107.955 188.729 107.285C188.237 106.595 187.441 106.133 186.34 105.899C185.099 105.635 183.986 105.817 183.002 106.444C182.017 107.072 181.379 108.013 181.089 109.269L178.894 118.78L176.462 118.263L181.399 96.8796L183.831 97.3965ZM199.462 123.591C197.16 123.102 195.506 121.945 194.5 120.12C193.518 118.28 193.296 116.194 193.835 113.861C194.364 111.568 195.489 109.789 197.209 108.523C198.953 107.241 200.906 106.83 203.068 107.29C205.35 107.775 206.927 108.947 207.8 110.805C208.677 112.644 208.812 114.88 208.204 117.511L196.195 114.959C195.918 116.615 196.09 118.053 196.711 119.273C197.357 120.477 198.431 121.238 199.932 121.557C202.253 122.051 203.928 121.298 204.957 119.3L207.329 119.804C206.586 121.382 205.529 122.506 204.156 123.177C202.788 123.827 201.224 123.965 199.462 123.591ZM205.565 111.209C204.987 110.166 204.007 109.497 202.626 109.204C201.245 108.91 200.038 109.135 199.006 109.878C197.994 110.624 197.217 111.714 196.676 113.147L206.013 115.132C206.292 113.56 206.143 112.252 205.565 111.209ZM215.534 110.347L214.94 112.919L215 112.932C215.689 112.221 216.492 111.701 217.407 111.373C218.327 111.025 219.278 110.955 220.259 111.163C220.619 111.24 220.935 111.37 221.208 111.553L220.669 113.886L220.579 113.867C220.302 113.703 219.953 113.577 219.533 113.488C218.292 113.224 217.13 113.437 216.047 114.127C214.968 114.797 214.268 115.83 213.946 117.226L211.964 125.809L209.532 125.292L213.102 109.83L215.534 110.347ZM226.376 129.311C224.074 128.822 222.42 127.665 221.413 125.841C220.431 124.001 220.209 121.914 220.748 119.581C221.277 117.289 222.402 115.509 224.122 114.243C225.867 112.962 227.82 112.551 229.981 113.01C232.263 113.495 233.84 114.667 234.713 116.526C235.59 118.365 235.725 120.6 235.118 123.232L223.109 120.679C222.831 122.336 223.003 123.773 223.625 124.993C224.27 126.197 225.344 126.959 226.845 127.278C229.167 127.771 230.842 127.019 231.87 125.02L234.242 125.524C233.5 127.103 232.442 128.227 231.07 128.897C229.702 129.548 228.137 129.686 226.376 129.311ZM232.478 116.929C231.9 115.886 230.921 115.218 229.54 114.924C228.159 114.631 226.952 114.855 225.92 115.598C224.907 116.345 224.131 117.435 223.59 118.868L232.927 120.852C233.206 119.28 233.056 117.973 232.478 116.929ZM242.626 137.691C241.705 137.496 241 137.231 240.51 136.896L241.007 134.743L241.127 134.769C241.477 135.073 242.002 135.3 242.703 135.449C243.243 135.564 243.726 135.52 244.15 135.317C244.571 135.134 245.004 134.714 245.449 134.056L246.402 132.658L243.804 116.356L246.446 116.918L247.885 127.326L248.238 130.57L248.299 130.583C248.926 129.503 249.498 128.569 250.017 127.779L255.782 118.902L258.364 119.451L247.87 134.759C246.92 136.146 246.064 137.031 245.304 137.413C244.539 137.816 243.647 137.908 242.626 137.691ZM269.332 135.995C267.612 137.261 265.621 137.653 263.359 137.173C261.098 136.692 259.456 135.527 258.434 133.678C257.432 131.834 257.198 129.755 257.732 127.443C258.266 125.13 259.393 123.341 261.113 122.075C262.853 120.813 264.854 120.423 267.115 120.903C269.377 121.384 271.009 122.547 272.011 124.391C273.013 126.236 273.247 128.314 272.713 130.627C272.179 132.94 271.052 134.729 269.332 135.995ZM260.5 132.643C261.118 133.967 262.228 134.799 263.829 135.139C265.43 135.479 266.792 135.173 267.915 134.219C269.043 133.246 269.811 131.872 270.221 130.097C270.635 128.303 270.533 126.744 269.915 125.42C269.321 124.081 268.234 123.243 266.653 122.907C265.052 122.567 263.677 122.881 262.53 123.85C261.402 124.824 260.633 126.198 260.224 127.972C259.814 129.747 259.906 131.304 260.5 132.643ZM286.266 141.602L283.835 141.085L284.325 138.962L284.265 138.949C282.662 140.345 280.91 140.84 279.008 140.436C277.407 140.096 276.24 139.377 275.506 138.28C274.777 137.163 274.597 135.807 274.965 134.212L277.437 123.505L279.869 124.022L277.411 134.669C277.18 135.666 277.301 136.507 277.773 137.193C278.264 137.883 279.061 138.345 280.161 138.579C281.382 138.839 282.457 138.638 283.387 137.978C284.316 137.318 284.923 136.37 285.209 135.134L287.404 125.624L289.836 126.141L286.266 141.602ZM75.6248 120.5L76.0805 118.526L78.2121 118.98L78.7851 116.497C79.0797 115.221 79.6417 114.379 80.4711 113.969C81.3051 113.54 82.3926 113.468 83.7336 113.753C84.1139 113.834 84.5196 113.941 84.9508 114.074L84.4743 116.138C84.1987 116.058 83.9408 115.993 83.7007 115.942C82.9201 115.776 82.3421 115.779 81.9666 115.95C81.5911 116.121 81.332 116.516 81.1893 117.134L80.6439 119.496L83.526 120.109L83.0703 122.083L80.1882 121.47L77.0743 134.958L74.6425 134.441L77.7564 120.953L75.6248 120.5ZM89.0255 137.938C86.7238 137.448 85.0696 136.291 84.0631 134.467C83.0811 132.627 82.8594 130.54 83.3979 128.208C83.9273 125.915 85.052 124.136 86.772 122.87C88.5167 121.588 90.4698 121.177 92.6314 121.637C94.9131 122.122 96.4903 123.293 97.363 125.152C98.2403 126.991 98.3751 129.226 97.7675 131.858L85.7586 129.306C85.4812 130.962 85.6532 132.4 86.2745 133.619C86.9204 134.823 87.9939 135.585 89.495 135.904C91.8167 136.397 93.4918 135.645 94.5201 133.646L96.8918 134.151C96.1495 135.729 95.0921 136.853 93.7195 137.523C92.3515 138.174 90.7868 138.312 89.0255 137.938ZM95.1281 125.556C94.5501 124.513 93.5705 123.844 92.1895 123.551C90.8085 123.257 89.6018 123.482 88.5695 124.224C87.5571 124.971 86.7806 126.061 86.2398 127.494L95.5768 129.479C95.8557 127.907 95.7062 126.599 95.1281 125.556ZM105.634 141.468C103.332 140.979 101.678 139.822 100.672 137.997C99.6895 136.157 99.4678 134.071 100.006 131.738C100.536 129.445 101.66 127.666 103.38 126.4C105.125 125.118 107.078 124.707 109.24 125.167C111.522 125.652 113.099 126.824 113.971 128.682C114.849 130.521 114.984 132.757 114.376 135.388L102.367 132.836C102.09 134.492 102.262 135.93 102.883 137.15C103.529 138.354 104.602 139.115 106.103 139.434C108.425 139.928 110.1 139.175 111.129 137.177L113.5 137.681C112.758 139.259 111.701 140.383 110.328 141.054C108.96 141.704 107.395 141.842 105.634 141.468ZM111.737 129.086C111.159 128.043 110.179 127.374 108.798 127.081C107.417 126.787 106.21 127.012 105.178 127.755C104.166 128.502 103.389 129.591 102.848 131.024L112.185 133.009C112.464 131.437 112.315 130.129 111.737 129.086ZM115.794 143.188L120.731 121.805L123.163 122.322L118.226 143.705L115.794 143.188Z" fill="#FAFAFA"/>
<path d="M134.751 131.123L134.185 133.575L134.275 133.594C134.962 132.799 135.645 132.254 136.322 131.959C137.003 131.643 137.785 131.579 138.665 131.767C139.086 131.856 139.397 131.964 139.598 132.09L138.777 135.649L138.687 135.63C137.338 135.197 136.158 135.26 135.147 135.819C134.136 136.378 133.449 137.445 133.085 139.02L131.359 146.497L127.276 145.629L130.818 130.287L134.751 131.123ZM145.094 149.887C142.612 149.359 140.836 148.187 139.764 146.369C138.698 144.532 138.438 142.427 138.986 140.055C139.515 137.762 140.668 135.999 142.443 134.766C144.223 133.513 146.224 133.122 148.446 133.594C150.868 134.109 152.546 135.344 153.48 137.3C154.414 139.255 154.557 141.639 153.908 144.45L142.74 142.076C142.619 143.326 142.811 144.361 143.315 145.179C143.823 145.977 144.648 146.498 145.789 146.74C147.29 147.059 148.426 146.642 149.196 145.488L153.219 146.343C152.587 147.715 151.551 148.749 150.109 149.447C148.667 150.144 146.995 150.291 145.094 149.887ZM147.781 136.747C145.8 136.326 144.355 137.17 143.449 139.278L150.294 140.733C150.459 139.743 150.311 138.885 149.849 138.159C149.391 137.414 148.702 136.943 147.781 136.747ZM161.034 153.275C158.833 152.807 157.222 151.963 156.202 150.742C155.186 149.501 154.812 148.031 155.079 146.33L158.861 147.134C158.73 148.884 159.656 149.97 161.637 150.391C162.538 150.583 163.265 150.57 163.819 150.353C164.393 150.14 164.742 149.765 164.866 149.226C164.913 149.027 164.914 148.839 164.871 148.663C164.847 148.49 164.76 148.325 164.607 148.167C164.479 147.994 164.354 147.852 164.233 147.743C164.131 147.637 163.929 147.511 163.627 147.363C163.326 147.215 163.089 147.102 162.918 147.024C162.767 146.95 162.489 146.839 162.082 146.689C161.7 146.525 161.434 146.405 161.283 146.331C160.479 145.993 159.825 145.687 159.322 145.413C158.843 145.122 158.35 144.756 157.843 144.314C157.341 143.852 157.004 143.309 156.833 142.687C156.686 142.05 156.705 141.332 156.889 140.534C157.257 138.939 158.119 137.847 159.473 137.256C160.847 136.67 162.455 136.572 164.296 136.964C166.278 137.385 167.723 138.173 168.632 139.328C169.566 140.468 169.931 141.842 169.727 143.452L166.034 142.667C166.22 141.137 165.401 140.179 163.58 139.792C162.76 139.617 162.074 139.629 161.525 139.826C160.996 140.027 160.669 140.397 160.545 140.935C160.503 141.114 160.494 141.29 160.517 141.462C160.565 141.619 160.655 141.774 160.788 141.928C160.945 142.066 161.094 142.192 161.236 142.306C161.382 142.399 161.596 142.518 161.878 142.662C162.165 142.785 162.411 142.9 162.617 143.007C162.828 143.094 163.115 143.217 163.477 143.378C163.843 143.519 164.132 143.632 164.343 143.719C164.951 143.995 165.441 144.235 165.814 144.439C166.211 144.628 166.65 144.91 167.131 145.284C167.616 145.638 167.972 146.007 168.199 146.389C168.45 146.757 168.623 147.233 168.719 147.818C168.84 148.387 168.819 149.021 168.658 149.719C168.308 151.234 167.43 152.313 166.022 152.955C164.638 153.581 162.976 153.688 161.034 153.275ZM168.905 159.748L173.607 139.382L177.54 140.218L177.098 142.132L177.188 142.151C178.688 140.838 180.379 140.382 182.26 140.782C184.282 141.212 185.73 142.304 186.606 144.059C187.481 145.813 187.641 147.897 187.084 150.31C186.513 152.782 185.447 154.626 183.885 155.842C182.329 157.038 180.549 157.423 178.548 156.998C176.546 156.572 175.233 155.53 174.609 153.87L174.548 153.857L172.988 160.616L168.905 159.748ZM178.457 153.433C179.498 153.654 180.413 153.42 181.202 152.73C182.011 152.045 182.582 150.984 182.913 149.549C183.268 148.013 183.256 146.745 182.878 145.745C182.5 144.744 181.711 144.116 180.51 143.861C179.289 143.601 178.282 143.869 177.49 144.662C176.703 145.436 176.138 146.561 175.798 148.036C175.471 149.452 175.531 150.646 175.978 151.62C176.43 152.573 177.256 153.178 178.457 153.433ZM194.949 160.484C192.467 159.956 190.69 158.784 189.619 156.966C188.552 155.129 188.293 153.024 188.841 150.652C189.37 148.359 190.523 146.596 192.298 145.363C194.078 144.11 196.079 143.719 198.301 144.191C200.722 144.706 202.4 145.941 203.335 147.897C204.269 149.852 204.412 152.236 203.763 155.047L192.594 152.673C192.474 153.923 192.665 154.958 193.169 155.776C193.678 156.574 194.503 157.095 195.644 157.337C197.145 157.656 198.28 157.239 199.051 156.085L203.074 156.94C202.442 158.312 201.405 159.346 199.964 160.044C198.522 160.741 196.85 160.888 194.949 160.484ZM197.636 147.344C195.654 146.923 194.21 147.767 193.304 149.875L200.149 151.33C200.314 150.34 200.166 149.482 199.703 148.756C199.246 148.011 198.556 147.54 197.636 147.344ZM211.79 164.063C209.408 163.557 207.674 162.383 206.587 160.542C205.5 158.7 205.226 156.613 205.765 154.28C206.303 151.948 207.45 150.163 209.206 148.925C210.981 147.692 213.02 147.32 215.322 147.809C217.263 148.222 218.727 149.066 219.713 150.343C220.699 151.619 221.134 153.144 221.019 154.919L217.026 154.07C217.047 153.342 216.858 152.706 216.459 152.161C216.06 151.616 215.49 151.265 214.749 151.107C213.548 150.852 212.529 151.085 211.69 151.806C210.852 152.527 210.258 153.646 209.908 155.161C209.563 156.656 209.599 157.908 210.017 158.918C210.439 159.907 211.251 160.529 212.452 160.784C214.233 161.163 215.464 160.515 216.145 158.84L220.078 159.676C219.547 161.341 218.532 162.599 217.033 163.452C215.539 164.285 213.791 164.489 211.79 164.063ZM223.23 152.753L223.851 150.062L225.983 150.515L227.087 145.73L231.08 146.578L229.976 151.363L232.618 151.925L231.996 154.616L229.354 154.055L227.476 162.189C227.241 163.206 227.634 163.823 228.655 164.04L229.863 164.265L229.173 167.256C228.543 167.164 227.688 167.003 226.607 166.774C225.426 166.523 224.5 166.033 223.828 165.304C223.161 164.556 222.979 163.524 223.283 162.208L225.361 153.206L223.23 152.753ZM238.764 169.797C236.282 169.269 234.505 168.097 233.434 166.28C232.367 164.442 232.108 162.337 232.656 159.965C233.185 157.672 234.338 155.909 236.113 154.676C237.893 153.423 239.894 153.032 242.116 153.505C244.537 154.019 246.216 155.254 247.15 157.21C248.084 159.166 248.227 161.549 247.578 164.36L236.41 161.986C236.289 163.236 236.481 164.271 236.985 165.089C237.493 165.887 238.318 166.408 239.459 166.65C240.96 166.969 242.096 166.552 242.866 165.398L246.889 166.253C246.257 167.625 245.22 168.659 243.779 169.357C242.337 170.054 240.665 170.201 238.764 169.797ZM241.451 156.657C239.469 156.236 238.025 157.08 237.119 159.188L243.964 160.643C244.129 159.653 243.981 158.795 243.518 158.07C243.061 157.324 242.371 156.853 241.451 156.657ZM254.224 173.083C252.282 172.67 250.879 171.609 250.014 169.898C249.154 168.167 249.009 166.066 249.58 163.593C250.132 161.201 251.191 159.387 252.758 158.151C254.348 156.9 256.104 156.478 258.026 156.886C259.947 157.295 261.223 158.361 261.854 160.085L261.944 160.104L263.767 152.208L267.85 153.076L262.914 174.459L258.981 173.623L259.443 171.62L259.383 171.607C258.005 173.029 256.285 173.521 254.224 173.083ZM255.911 169.865C257.112 170.12 258.117 169.905 258.926 169.22C259.756 168.538 260.336 167.48 260.667 166.044C261.422 162.775 260.609 160.887 258.227 160.38C257.126 160.146 256.184 160.406 255.401 161.16C254.618 161.914 254.059 163.019 253.723 164.474C253.378 165.969 253.391 167.185 253.763 168.122C254.154 169.063 254.871 169.644 255.911 169.865ZM264.812 180.071L265.15 178.606C266.762 178.174 267.751 177.161 268.12 175.566L265.928 175.1L266.929 170.764L271.312 171.695L270.366 175.793C270.035 177.228 269.345 178.305 268.298 179.024C267.265 179.766 266.103 180.115 264.812 180.071ZM70.425 176.856C68.3434 176.414 66.7688 175.64 65.7012 174.534C64.6536 173.433 64.1947 172.101 64.3243 170.539L68.3773 171.401C68.5153 172.622 69.4148 173.41 71.0761 173.763C73.3578 174.248 74.7449 173.424 75.2374 171.29L75.6241 169.616L75.534 169.596C74.197 170.567 72.7179 170.88 71.0967 170.536C69.2754 170.149 67.8384 169.142 66.7858 167.517C65.7532 165.896 65.4923 163.98 66.0033 161.766C66.528 159.494 67.5673 157.811 69.1213 156.719C70.6798 155.607 72.4398 155.26 74.4012 155.677C76.2626 156.072 77.5272 157.052 78.1949 158.616L78.255 158.629L78.6278 157.014L82.5607 157.85L79.288 172.026C78.8277 174.02 77.8582 175.445 76.3796 176.302C74.8717 177.195 72.8868 177.379 70.425 176.856ZM72.5398 167.423C73.7607 167.682 74.7612 167.487 75.5411 166.837C76.3211 166.187 76.8515 165.254 77.1322 164.038C77.4084 162.842 77.316 161.787 76.8551 160.873C76.4187 159.944 75.6101 159.353 74.4292 159.102C73.3885 158.881 72.4604 159.081 71.645 159.703C70.8496 160.328 70.3046 161.279 70.01 162.555C69.7109 163.851 69.7863 164.934 70.2365 165.804C70.7113 166.658 71.479 167.197 72.5398 167.423ZM95.9084 176.782L91.9755 175.946L92.3898 174.152L92.2997 174.133C91.5644 174.771 90.815 175.198 90.0517 175.412C89.3083 175.63 88.4163 175.629 87.3755 175.408C85.6942 175.05 84.4983 174.273 83.7878 173.076C83.0772 171.88 82.9176 170.434 83.3088 168.739L85.6701 158.511L89.7232 159.373L87.5206 168.913C87.0926 170.767 87.7292 171.875 89.4304 172.236C90.3711 172.436 91.1953 172.277 91.9031 171.758C92.6108 171.239 93.0843 170.461 93.3236 169.425L95.3674 160.572L99.4504 161.44L95.9084 176.782ZM99.1499 177.471L102.692 162.129L106.775 162.997L103.233 178.339L99.1499 177.471ZM103.244 159.737L104.087 156.088L108.17 156.956L107.327 160.605L103.244 159.737ZM112.125 180.7C110.184 180.287 108.78 179.225 107.916 177.515C107.055 175.784 106.911 173.683 107.481 171.21C108.034 168.818 109.093 167.004 110.659 165.768C112.25 164.516 114.006 164.095 115.927 164.503C117.849 164.912 119.125 165.978 119.756 167.701L119.846 167.721L121.669 159.825L125.752 160.693L120.815 182.076L116.882 181.24L117.345 179.237L117.285 179.224C115.906 180.646 114.187 181.138 112.125 180.7ZM113.813 177.482C115.014 177.737 116.019 177.522 116.828 176.836C117.657 176.155 118.237 175.097 118.569 173.661C119.324 170.391 118.51 168.503 116.129 167.997C115.028 167.763 114.086 168.023 113.303 168.777C112.52 169.531 111.96 170.636 111.624 172.091C111.279 173.586 111.292 174.802 111.664 175.739C112.056 176.68 112.772 177.261 113.813 177.482ZM131.201 184.755C128.72 184.227 126.943 183.055 125.872 181.237C124.805 179.4 124.546 177.295 125.094 174.923C125.623 172.63 126.775 170.867 128.551 169.634C130.331 168.381 132.332 167.99 134.553 168.462C136.975 168.977 138.653 170.212 139.588 172.168C140.522 174.123 140.665 176.507 140.016 179.318L128.847 176.944C128.727 178.194 128.918 179.228 129.422 180.047C129.931 180.845 130.756 181.366 131.896 181.608C133.397 181.927 134.533 181.51 135.304 180.356L139.327 181.211C138.695 182.582 137.658 183.617 136.216 184.315C134.774 185.012 133.103 185.159 131.201 184.755ZM133.888 171.615C131.907 171.194 130.463 172.038 129.556 174.146L136.401 175.601C136.567 174.611 136.418 173.753 135.956 173.027C135.498 172.282 134.809 171.811 133.888 171.615ZM146.661 188.041C144.72 187.628 143.317 186.566 142.452 184.856C141.592 183.125 141.447 181.024 142.018 178.551C142.57 176.159 143.629 174.345 145.195 173.109C146.786 171.857 148.542 171.436 150.464 171.844C152.385 172.253 153.661 173.319 154.292 175.042L154.382 175.061L156.205 167.166L160.288 168.034L155.351 189.417L151.418 188.581L151.881 186.577L151.821 186.565C150.443 187.987 148.723 188.479 146.661 188.041ZM148.349 184.823C149.55 185.078 150.555 184.863 151.364 184.177C152.193 183.496 152.774 182.438 153.105 181.002C153.86 177.732 153.047 175.844 150.665 175.338C149.564 175.104 148.622 175.364 147.839 176.118C147.056 176.872 146.497 177.976 146.161 179.432C145.815 180.927 145.829 182.143 146.2 183.08C146.592 184.021 147.308 184.602 148.349 184.823ZM157.25 195.029L157.588 193.563C159.199 193.132 160.189 192.119 160.557 190.524L158.366 190.058L159.367 185.721L163.75 186.653L162.804 190.75C162.473 192.186 161.783 193.263 160.735 193.981C159.703 194.724 158.541 195.073 157.25 195.029ZM181.085 194.887C180.945 194.585 180.916 193.983 180.998 193.08L180.938 193.067C180.346 193.632 179.668 194.021 178.905 194.235C178.141 194.45 177.149 194.427 175.928 194.167C174.307 193.823 173.1 193.138 172.308 192.112C171.516 191.086 171.293 189.825 171.638 188.33C171.997 186.775 172.8 185.753 174.047 185.265C175.298 184.757 176.936 184.572 178.962 184.71C180.449 184.817 181.476 184.826 182.042 184.737C182.613 184.628 182.961 184.305 183.085 183.767C183.214 183.208 183.095 182.723 182.729 182.31C182.367 181.878 181.765 181.572 180.925 181.393C179.063 180.998 177.907 181.505 177.455 182.915L173.823 182.143C174.219 180.7 175.087 179.619 176.429 178.901C177.771 178.182 179.503 178.048 181.624 178.499C185.948 179.418 187.674 181.761 186.804 185.53L185.002 193.335C184.735 194.492 184.752 195.238 185.052 195.573L185.018 195.723L181.085 194.887ZM177.575 191.537C178.696 191.775 179.643 191.673 180.417 191.231C181.211 190.793 181.7 190.176 181.884 189.378L182.416 187.075C181.916 187.241 180.896 187.338 179.357 187.366C178.136 187.379 177.246 187.503 176.688 187.74C176.134 187.957 175.778 188.405 175.622 189.082C175.323 190.378 175.974 191.197 177.575 191.537ZM195.209 181.794L194.725 183.888L194.815 183.907C196.263 182.458 197.977 181.943 199.959 182.365C201.54 182.701 202.697 183.511 203.429 184.796C204.165 186.062 204.338 187.542 203.947 189.236L201.634 199.255L197.551 198.387L199.726 188.966C199.919 188.129 199.835 187.4 199.475 186.78C199.134 186.163 198.544 185.766 197.703 185.587C196.802 185.396 195.976 185.565 195.223 186.096C194.491 186.63 194.005 187.416 193.766 188.453L191.757 197.155L187.674 196.287L191.216 180.945L195.209 181.794ZM210.412 201.591C208.47 201.179 207.067 200.117 206.202 198.406C205.342 196.676 205.197 194.574 205.768 192.102C206.32 189.709 207.38 187.895 208.946 186.659C210.537 185.408 212.293 184.986 214.214 185.395C216.136 185.803 217.412 186.869 218.043 188.593L218.133 188.612L219.955 180.717L224.039 181.585L219.102 202.968L215.169 202.132L215.632 200.128L215.571 200.115C214.193 201.537 212.473 202.029 210.412 201.591ZM212.1 198.373C213.301 198.629 214.306 198.413 215.115 197.728C215.944 197.047 216.524 195.988 216.856 194.553C217.611 191.283 216.797 189.395 214.415 188.889C213.315 188.655 212.373 188.915 211.59 189.669C210.807 190.422 210.247 191.527 209.911 192.982C209.566 194.478 209.579 195.694 209.951 196.63C210.343 197.571 211.059 198.152 212.1 198.373ZM56.525 206.232L60.067 190.89L64.15 191.758L60.608 207.1L56.525 206.232ZM60.6193 188.497L61.4617 184.849L65.5447 185.717L64.7024 189.365L60.6193 188.497ZM71.3744 193.293L70.8911 195.387L70.9811 195.406C72.4286 193.957 74.143 193.443 76.1245 193.864C77.7057 194.2 78.8624 195.01 79.5945 196.296C80.3313 197.561 80.5041 199.041 80.1128 200.735L77.7998 210.754L73.7168 209.886L75.8917 200.466C76.085 199.628 76.0013 198.899 75.6407 198.279C75.3 197.663 74.7093 197.265 73.8687 197.086C72.968 196.895 72.1415 197.064 71.3892 197.595C70.6569 198.129 70.171 198.915 69.9317 199.952L67.9225 208.654L63.8394 207.787L67.3814 192.445L71.3744 193.293ZM87.0581 213.192C84.8564 212.724 83.2456 211.88 82.2256 210.659C81.2103 209.419 80.8359 207.948 81.1024 206.248L84.8852 207.052C84.7542 208.802 85.6794 209.887 87.6609 210.309C88.5615 210.5 89.2889 210.487 89.8429 210.27C90.4169 210.058 90.766 209.682 90.8903 209.144C90.9363 208.945 90.9377 208.757 90.8945 208.58C90.8713 208.408 90.7834 208.243 90.6309 208.085C90.503 207.911 90.3782 207.77 90.2565 207.66C90.1548 207.555 89.9531 207.428 89.6513 207.281C89.3494 207.133 89.1131 207.02 88.9421 206.942C88.7912 206.868 88.5125 206.756 88.106 206.607C87.7241 206.442 87.4577 206.323 87.3068 206.249C86.503 205.911 85.8493 205.604 85.3457 205.33C84.8668 205.04 84.3739 204.674 83.8671 204.231C83.3649 203.769 83.0282 203.227 82.8568 202.605C82.7101 201.967 82.7288 201.249 82.9129 200.452C83.2812 198.857 84.1424 197.764 85.4966 197.174C86.8708 196.587 88.4786 196.49 90.3199 196.881C92.3014 197.302 93.7467 198.091 94.6558 199.246C95.5895 200.386 95.9546 201.76 95.7511 203.369L92.0583 202.584C92.2434 201.055 91.4253 200.097 89.604 199.709C88.7833 199.535 88.0983 199.546 87.5489 199.743C87.0195 199.944 86.6927 200.314 86.5684 200.853C86.527 201.032 86.5179 201.208 86.5411 201.38C86.589 201.537 86.6791 201.692 86.8116 201.845C86.9688 201.983 87.1182 202.109 87.2599 202.223C87.4062 202.317 87.6202 202.436 87.9021 202.579C88.1885 202.703 88.4349 202.818 88.6412 202.925C88.8522 203.011 89.1386 203.135 89.5005 203.295C89.8669 203.436 90.1556 203.55 90.3666 203.636C90.9749 203.912 91.4653 204.152 91.838 204.357C92.2353 204.546 92.6742 204.828 93.1548 205.202C93.64 205.556 93.9958 205.924 94.2224 206.307C94.4736 206.674 94.6472 207.15 94.743 207.735C94.8635 208.305 94.8432 208.938 94.6821 209.636C94.3323 211.152 93.4534 212.23 92.0454 212.872C90.6619 213.498 88.9995 213.605 87.0581 213.192ZM94.9289 219.666L99.6308 199.299L103.564 200.135L103.122 202.049L103.212 202.069C104.712 200.756 106.402 200.3 108.284 200.699C110.305 201.129 111.754 202.221 112.63 203.976C113.505 205.731 113.665 207.815 113.108 210.227C112.537 212.699 111.471 214.543 109.909 215.759C108.352 216.955 106.573 217.34 104.572 216.915C102.57 216.49 101.257 215.447 100.632 213.787L100.572 213.775L99.0119 220.534L94.9289 219.666ZM104.481 213.351C105.522 213.572 106.437 213.338 107.226 212.648C108.035 211.962 108.606 210.902 108.937 209.466C109.291 207.931 109.28 206.663 108.902 205.662C108.524 204.662 107.735 204.034 106.534 203.779C105.313 203.519 104.306 203.786 103.514 204.58C102.726 205.354 102.162 206.478 101.822 207.954C101.495 209.369 101.555 210.564 102.002 211.537C102.454 212.491 103.28 213.095 104.481 213.351ZM113.841 218.415L117.383 203.073L121.466 203.941L117.924 219.283L113.841 218.415ZM117.935 200.68L118.777 197.032L122.86 197.899L122.018 201.548L117.935 200.68ZM128.63 205.463L128.064 207.916L128.154 207.935C128.841 207.14 129.524 206.595 130.201 206.299C130.883 205.984 131.664 205.92 132.544 206.107C132.965 206.196 133.276 206.304 133.477 206.431L132.656 209.99L132.566 209.971C131.217 209.538 130.037 209.601 129.026 210.16C128.015 210.719 127.328 211.786 126.964 213.361L125.238 220.837L121.155 219.969L124.697 204.627L128.63 205.463ZM138.973 224.227C136.491 223.7 134.715 222.527 133.643 220.71C132.577 218.873 132.317 216.768 132.865 214.395C133.394 212.102 134.547 210.339 136.322 209.106C138.102 207.853 140.103 207.463 142.325 207.935C144.747 208.45 146.425 209.685 147.359 211.641C148.293 213.596 148.436 215.979 147.787 218.791L136.619 216.417C136.498 217.667 136.69 218.701 137.194 219.52C137.702 220.318 138.527 220.838 139.668 221.081C141.169 221.4 142.305 220.982 143.075 219.828L147.098 220.684C146.467 222.055 145.43 223.09 143.988 223.787C142.546 224.485 140.874 224.631 138.973 224.227ZM141.66 211.088C139.679 210.667 138.235 211.51 137.328 213.618L144.173 215.073C144.338 214.084 144.19 213.226 143.728 212.5C143.27 211.754 142.581 211.284 141.66 211.088ZM154.433 227.513C152.491 227.101 151.088 226.039 150.223 224.328C149.363 222.598 149.218 220.496 149.789 218.024C150.342 215.631 151.401 213.817 152.967 212.582C154.558 211.33 156.314 210.908 158.235 211.317C160.157 211.725 161.433 212.791 162.064 214.515L162.154 214.534L163.977 206.639L168.06 207.507L163.123 228.89L159.19 228.054L159.653 226.05L159.592 226.037C158.214 227.46 156.494 227.952 154.433 227.513ZM156.121 224.296C157.322 224.551 158.327 224.336 159.136 223.65C159.965 222.969 160.545 221.91 160.877 220.475C161.632 217.205 160.818 215.317 158.436 214.811C157.336 214.577 156.394 214.837 155.611 215.591C154.828 216.345 154.268 217.449 153.932 218.905C153.587 220.4 153.6 221.616 153.972 222.552C154.364 223.493 155.08 224.074 156.121 224.296ZM166.137 229.531L167.138 225.194L171.522 226.126L170.521 230.462L166.137 229.531Z" fill="#32EEFF"/>
<path fill-rule="evenodd" clip-rule="evenodd" d="M192.015 287.416C192.23 287.194 192.358 286.903 192.374 286.597C192.39 286.292 192.294 285.993 192.103 285.755C191.912 285.518 191.64 285.359 191.337 285.309C191.034 285.258 190.721 285.318 190.457 285.479C189.212 286.57 187.746 287.382 186.162 287.857C184.577 288.332 182.913 288.46 181.285 288.231C179.791 287.892 178.395 287.233 177.192 286.301C175.989 285.369 175.009 284.185 174.319 282.832C173.758 281.156 173.6 279.367 173.856 277.606C174.112 275.846 174.776 274.162 175.795 272.688C176.707 271.165 178.072 269.957 179.699 269.234C181.326 268.512 183.133 268.311 184.864 268.659C186.43 268.945 187.923 269.517 189.274 270.341C190.567 271.165 191.654 272.266 192.463 273.566C192.55 273.775 192.698 273.953 192.889 274.076C193.079 274.2 193.303 274.264 193.532 274.26C193.761 274.256 193.985 274.185 194.175 274.055C194.365 273.925 194.513 273.742 194.6 273.531C194.658 273.39 194.687 273.241 194.687 273.09C194.687 272.939 194.656 272.791 194.598 272.652C193.719 270.93 192.448 269.44 190.883 268.297C189.312 267.107 187.534 266.211 185.633 265.653C183.191 264.945 180.571 265.051 178.17 265.955C175.769 266.859 173.718 268.512 172.329 270.662C170.888 272.686 169.965 275.023 169.64 277.467C169.316 279.912 169.601 282.388 170.47 284.678C170.841 285.254 171.286 285.766 171.806 286.216C170.524 286.715 169.297 287.347 168.145 288.103C167.284 288.722 166.504 289.431 165.805 290.231C165.107 291.008 164.479 291.845 163.93 292.732C162.689 294.765 161.687 296.931 160.945 299.185C160.865 299.374 160.832 299.578 160.849 299.781C160.865 299.984 160.931 300.179 161.041 300.349C161.15 300.519 161.3 300.66 161.477 300.759C161.655 300.859 161.855 300.914 162.059 300.919C162.323 300.922 162.581 300.841 162.797 300.688C163.013 300.535 163.175 300.318 163.259 300.069C164.355 298.238 165.595 296.504 166.978 294.864L168.732 292.886C169.309 292.264 169.923 291.65 170.536 291.036C171.579 290.041 172.675 289.098 173.825 288.209C175.842 289.912 178.334 290.974 180.984 291.259C182.979 291.426 184.995 291.17 186.897 290.508C188.799 289.846 190.543 288.792 192.015 287.416ZM251.231 311.284C251.124 310.258 250.924 309.245 250.632 308.257C250.353 307.254 249.955 306.288 249.448 305.38C248.736 304.23 247.902 303.161 246.959 302.19C247.585 301.921 248.163 301.574 248.694 301.149C250.461 299.437 251.79 297.33 252.565 295.011C253.34 292.692 253.539 290.23 253.144 287.836C252.832 285.323 251.7 282.994 249.921 281.201C248.141 279.409 245.812 278.251 243.286 277.904C241.368 277.626 239.41 277.688 237.502 278.085C235.581 278.487 233.772 279.323 232.217 280.527C232.1 280.61 232 280.715 231.923 280.836C231.846 280.957 231.793 281.091 231.768 281.232C231.743 281.372 231.746 281.515 231.777 281.653C231.808 281.792 231.866 281.922 231.948 282.037C232.029 282.152 232.134 282.25 232.254 282.325C232.375 282.399 232.509 282.449 232.65 282.472C232.791 282.495 232.935 282.489 233.075 282.457C233.215 282.424 233.347 282.364 233.465 282.281C234.766 281.427 236.239 280.87 237.775 280.651C239.361 280.463 240.964 280.565 242.504 280.951C244.228 281.335 245.778 282.249 246.935 283.564C248.093 284.879 248.799 286.527 248.955 288.278C249.251 290.015 249.136 291.802 248.621 293.501C248.106 295.199 247.205 296.763 245.987 298.069C244.749 298.957 243.338 299.574 241.85 299.879C240.361 300.185 238.829 300.171 237.357 299.84C235.796 299.429 234.348 298.688 233.111 297.668C231.874 296.648 230.876 295.372 230.186 293.927C230.015 293.678 229.758 293.499 229.463 293.425C229.167 293.35 228.853 293.385 228.577 293.522C228.302 293.659 228.084 293.889 227.964 294.17C227.844 294.452 227.83 294.765 227.924 295.053C228.657 296.935 229.795 298.631 231.26 300.024C232.724 301.417 234.48 302.473 236.406 303.121C238.88 303.886 241.535 303.92 244.05 303.218C244.697 304.484 245.276 305.782 245.787 307.114C246.073 307.919 246.359 308.724 246.607 309.522L247.327 312.026C247.858 314.043 248.223 316.091 248.422 318.171C248.412 318.335 248.436 318.499 248.492 318.652C248.547 318.806 248.634 318.946 248.746 319.065C248.858 319.184 248.993 319.279 249.144 319.344C249.295 319.41 249.457 319.444 249.623 319.445C249.939 319.446 250.245 319.33 250.483 319.12C250.721 318.909 250.872 318.62 250.908 318.308C251.287 315.982 251.396 313.626 251.231 311.284Z" fill="#1887A3"/>
<path fill-rule="evenodd" clip-rule="evenodd" d="M226.142 298.001C225.803 296.806 225.33 295.654 224.732 294.566C223.799 292.878 222.653 291.318 221.32 289.923C223.39 288.658 225.154 286.95 226.479 284.927C227.805 282.903 228.658 280.616 228.974 278.235C229.842 274.389 229.14 270.382 227.023 267.096C224.907 263.81 221.548 261.513 217.687 260.711C213.576 259.678 209.195 260.303 205.495 262.452C201.795 264.6 199.075 268.098 197.927 272.185C197.204 274.876 197.314 277.709 198.244 280.311C199.174 282.913 200.879 285.162 203.137 286.763C200.736 287.496 198.42 288.441 196.189 289.597C194.178 290.668 192.339 292.034 190.734 293.649C189.279 294.998 188.106 296.619 187.286 298.416C186.466 300.213 186.014 302.149 185.958 304.11C185.93 304.437 186.033 304.759 186.245 305.006C186.458 305.253 186.761 305.405 187.09 305.428C187.418 305.451 187.745 305.344 187.997 305.129C188.25 304.915 188.407 304.611 188.436 304.284C189.154 301.211 190.957 298.479 193.517 296.587C194.987 295.332 196.635 294.155 198.275 293.018C200.709 291.344 203.22 289.786 205.8 288.348C207.185 289.037 208.644 289.571 210.153 289.939C210.293 289.98 210.441 289.992 210.587 289.976C210.733 289.96 210.875 289.915 211.005 289.844C211.135 289.773 211.249 289.678 211.342 289.564C211.436 289.449 211.505 289.318 211.548 289.178C211.623 288.899 211.587 288.604 211.446 288.354C211.305 288.105 211.071 287.921 210.794 287.842C202.793 285.358 200.094 279.498 201.232 274.059C202.207 274.877 203.329 275.504 204.544 275.899C205.106 276.115 205.701 276.242 206.306 276.273C206.936 276.316 207.561 276.279 208.18 276.162C209.741 275.971 211.231 275.383 212.508 274.457C212.508 274.457 212.577 274.158 212.79 274.086L214.042 275.136C215.175 276.001 216.399 276.718 217.715 277.288C220.199 278.251 222.831 278.81 225.51 278.945C225.184 281.764 223.792 284.372 221.615 286.238C219.438 288.104 216.64 289.089 213.789 288.992C213.459 288.961 213.127 289.061 212.866 289.269C212.604 289.477 212.434 289.778 212.392 290.106C212.374 290.267 212.388 290.43 212.435 290.585C212.481 290.739 212.558 290.883 212.661 291.007C212.764 291.131 212.892 291.233 213.036 291.307C213.18 291.381 213.338 291.426 213.5 291.439C215.323 291.669 217.18 291.515 218.953 290.991C219.899 292.631 220.697 294.342 221.348 296.124C221.713 297.099 222.077 298.077 222.395 299.085C222.713 300.093 222.984 301.131 223.248 302.205C223.867 304.719 224.245 307.292 224.384 309.892C224.386 310.136 224.458 310.373 224.594 310.574C224.729 310.776 224.921 310.933 225.146 311.027C225.372 311.121 225.62 311.147 225.863 311.103C226.105 311.059 226.331 310.947 226.512 310.779C226.629 310.666 226.724 310.531 226.789 310.382C226.855 310.233 226.89 310.073 226.893 309.912C227.17 307.218 227.15 304.507 226.832 301.827C226.722 300.531 226.491 299.25 226.142 298.001ZM209.35 272.458L207.551 272.075L205.69 271.954C204.388 272.03 203.089 271.976 201.794 271.792C203.055 269.148 205.25 267.047 207.955 265.892C208.525 268.157 209.529 270.286 210.913 272.163C210.971 272.192 211.035 272.205 211.101 272.203C210.527 272.368 209.944 272.453 209.35 272.458ZM219.272 273.783C218.27 273.209 217.316 272.561 216.415 271.843C213.965 269.981 211.95 267.616 210.504 264.905C212.599 264.461 214.758 264.452 216.842 264.881C219.471 265.348 221.816 266.769 223.423 268.87C225.03 270.971 225.785 273.601 225.542 276.252C223.35 275.696 221.242 274.866 219.268 273.782" fill="#1887A3"/>
<path fill-rule="evenodd" clip-rule="evenodd" d="M210.96 294.774C211.026 294.487 210.975 294.187 210.818 293.94C210.661 293.694 210.411 293.521 210.123 293.46C209.834 293.398 209.531 293.454 209.281 293.613C209.03 293.773 208.852 294.024 208.785 294.312C208.137 295.584 207.44 296.729 206.905 298.026C206.718 298.586 206.585 299.161 206.508 299.744C206.341 300.297 206.212 300.857 206.12 301.425C205.81 302.77 206.05 304.114 206.002 305.514C205.966 305.673 205.962 305.836 205.992 305.995C206.022 306.153 206.084 306.304 206.175 306.436C206.266 306.569 206.384 306.682 206.521 306.767C206.658 306.852 206.812 306.908 206.973 306.931C207.134 306.966 207.3 306.967 207.463 306.936C207.625 306.906 207.78 306.843 207.919 306.751C208.057 306.66 208.176 306.543 208.269 306.406C208.361 306.269 208.426 306.115 208.458 305.954C208.759 304.647 209.531 303.518 209.957 302.354C210.124 301.816 210.251 301.267 210.337 300.711C210.523 300.165 210.652 299.605 210.725 299.03C210.974 297.437 210.875 296.163 210.96 294.774Z" fill="#1887A3"/>
<path fill-rule="evenodd" clip-rule="evenodd" d="M227.362 246.048L223.455 242.357C223.455 242.357 222.511 241.334 222.113 241.014C221.751 240.724 221.304 240.556 220.836 240.534C220.368 240.512 219.902 240.637 219.506 240.891C217.727 242.119 215.904 243.221 214.106 244.363C211.347 246.088 208.644 247.747 205.816 249.262C202.659 250.896 199.419 252.364 196.111 253.66C195.838 253.758 195.614 253.959 195.487 254.219C195.361 254.479 195.343 254.776 195.437 255.045C195.531 255.315 195.73 255.534 195.99 255.656C196.25 255.777 196.549 255.79 196.822 255.692C201.244 254.407 205.564 252.784 209.743 250.837C213.393 249.183 216.947 247.323 220.387 245.267L224.39 249.057L240.626 265.591C240.861 265.819 241.179 265.945 241.51 265.942C241.841 265.939 242.161 265.808 242.4 265.576C242.521 265.464 242.619 265.329 242.687 265.179C242.755 265.029 242.793 264.868 242.798 264.705C242.802 264.541 242.774 264.379 242.714 264.228C242.655 264.076 242.565 263.939 242.45 263.824C238.265 259.29 234.576 254.313 230.564 249.542C229.495 248.378 228.404 247.328 227.362 246.048Z" fill="#1887A3"/>
<path fill-rule="evenodd" clip-rule="evenodd" d="M196.002 243.414C198.931 242.313 201.895 241.062 204.713 239.741C209.092 237.812 213.497 235.77 217.669 233.718L223.438 231.03L223.946 230.707C223.946 230.707 224.82 231.519 224.964 231.746C225.992 233.257 226.945 234.753 227.852 236.278C228.339 236.891 228.856 237.549 229.39 238.133C231.507 240.441 233.76 242.621 236.139 244.662C239.579 247.822 243.189 250.741 246.617 253.781C246.734 253.891 246.872 253.977 247.022 254.033C247.173 254.09 247.334 254.116 247.497 254.111C247.659 254.105 247.819 254.068 247.967 254.001C248.116 253.934 248.25 253.839 248.362 253.721C248.584 253.474 248.705 253.155 248.7 252.826C248.696 252.498 248.566 252.186 248.338 251.953C245.14 248.765 241.738 245.612 238.499 242.26C236.401 240.105 234.434 237.834 232.599 235.445L228.48 229.28C228.006 228.466 227.476 227.686 226.895 226.945C226.515 226.525 226.034 226.208 225.496 226.02C225.027 225.878 224.527 225.867 224.048 225.987C223.269 226.313 222.513 226.689 221.782 227.112L215.929 230.178C211.735 232.5 207.676 235.085 203.546 237.146C200.756 238.669 198.035 239.893 195.17 241.396C195.015 241.437 194.87 241.51 194.746 241.611C194.621 241.712 194.519 241.838 194.446 241.98C194.374 242.123 194.333 242.279 194.327 242.437C194.32 242.596 194.348 242.753 194.408 242.899C194.468 243.045 194.559 243.176 194.675 243.283C194.791 243.39 194.93 243.471 195.081 243.52C195.232 243.568 195.393 243.584 195.552 243.566C195.71 243.548 195.864 243.496 196.002 243.414Z" fill="#1887A3"/>
<defs>
<filter id="filter0_f_2307_1198" x="17.6165" y="97.4658" width="465.265" height="359.334" filterUnits="userSpaceOnUse" color-interpolation-filters="sRGB">
<feFlood flood-opacity="0" result="BackgroundImageFix"/>
<feBlend mode="normal" in="SourceGraphic" in2="BackgroundImageFix" result="shape"/>
<feGaussianBlur stdDeviation="4" result="effect1_foregroundBlur_2307_1198"/>
</filter>
<filter id="filter1_n_2307_1198" x="-6.43262" y="197.745" width="326.839" height="203.531" filterUnits="userSpaceOnUse" color-interpolation-filters="sRGB">
<feFlood flood-opacity="0" result="BackgroundImageFix"/>
<feBlend mode="normal" in="SourceGraphic" in2="BackgroundImageFix" result="shape"/>
<feTurbulence type="fractalNoise" baseFrequency="1 1" stitchTiles="stitch" numOctaves="3" result="noise" seed="1706" />
<feColorMatrix in="noise" type="luminanceToAlpha" result="alphaNoise" />
<feComponentTransfer in="alphaNoise" result="coloredNoise1">
<feFuncA type="discrete" tableValues="1 1 1 1 1 1 1 1 1 1 1 1 1 1 1 1 1 1 1 1 1 1 1 1 1 1 1 1 1 1 1 1 1 1 1 1 1 1 1 1 1 1 1 1 1 1 1 1 1 1 1 0 0 0 0 0 0 0 0 0 0 0 0 0 0 0 0 0 0 0 0 0 0 0 0 0 0 0 0 0 0 0 0 0 0 0 0 0 0 0 0 0 0 0 0 0 0 0 0 0 "/>
</feComponentTransfer>
<feComposite operator="in" in2="shape" in="coloredNoise1" result="noise1Clipped" />
<feFlood flood-color="rgba(0, 0, 0, 0.05)" result="color1Flood" />
<feComposite operator="in" in2="noise1Clipped" in="color1Flood" result="color1" />
<feMerge result="effect1_noise_2307_1198">
<feMergeNode in="shape" />
<feMergeNode in="color1" />
</feMerge>
</filter>
<filter id="filter2_n_2307_1198" x="238.938" y="53.2207" width="109.876" height="335.988" filterUnits="userSpaceOnUse" color-interpolation-filters="sRGB">
<feFlood flood-opacity="0" result="BackgroundImageFix"/>
<feBlend mode="normal" in="SourceGraphic" in2="BackgroundImageFix" result="shape"/>
<feTurbulence type="fractalNoise" baseFrequency="1 1" stitchTiles="stitch" numOctaves="3" result="noise" seed="1706" />
<feColorMatrix in="noise" type="luminanceToAlpha" result="alphaNoise" />
<feComponentTransfer in="alphaNoise" result="coloredNoise1">
<feFuncA type="discrete" tableValues="1 1 1 1 1 1 1 1 1 1 1 1 1 1 1 1 1 1 1 1 1 1 1 1 1 1 1 1 1 1 1 1 1 1 1 1 1 1 1 1 1 1 1 1 1 1 1 1 1 1 1 0 0 0 0 0 0 0 0 0 0 0 0 0 0 0 0 0 0 0 0 0 0 0 0 0 0 0 0 0 0 0 0 0 0 0 0 0 0 0 0 0 0 0 0 0 0 0 0 0 "/>
</feComponentTransfer>
<feComposite operator="in" in2="shape" in="coloredNoise1" result="noise1Clipped" />
<feFlood flood-color="rgba(0, 0, 0, 0.05)" result="color1Flood" />
<feComposite operator="in" in2="noise1Clipped" in="color1Flood" result="color1" />
<feMerge result="effect1_noise_2307_1198">
<feMergeNode in="shape" />
<feMergeNode in="color1" />
</feMerge>
</filter>
<filter id="filter3_n_2307_1198" x="0" y="0" width="338.152" height="353.849" filterUnits="userSpaceOnUse" color-interpolation-filters="sRGB">
<feFlood flood-opacity="0" result="BackgroundImageFix"/>
<feBlend mode="normal" in="SourceGraphic" in2="BackgroundImageFix" result="shape"/>
<feTurbulence type="fractalNoise" baseFrequency="1 1" stitchTiles="stitch" numOctaves="3" result="noise" seed="1706" />
<feColorMatrix in="noise" type="luminanceToAlpha" result="alphaNoise" />
<feComponentTransfer in="alphaNoise" result="coloredNoise1">
<feFuncA type="discrete" tableValues="1 1 1 1 1 1 1 1 1 1 1 1 1 1 1 1 1 1 1 1 1 1 1 1 1 1 1 1 1 1 1 1 1 1 1 1 1 1 1 1 1 1 1 1 1 1 1 1 1 1 1 0 0 0 0 0 0 0 0 0 0 0 0 0 0 0 0 0 0 0 0 0 0 0 0 0 0 0 0 0 0 0 0 0 0 0 0 0 0 0 0 0 0 0 0 0 0 0 0 0 "/>
</feComponentTransfer>
<feComposite operator="in" in2="shape" in="coloredNoise1" result="noise1Clipped" />
<feFlood flood-color="rgba(0, 0, 0, 0.05)" result="color1Flood" />
<feComposite operator="in" in2="noise1Clipped" in="color1Flood" result="color1" />
<feMerge result="effect1_noise_2307_1198">
<feMergeNode in="shape" />
<feMergeNode in="color1" />
</feMerge>
</filter>
<linearGradient id="paint0_linear_2307_1198" x1="4.75393" y1="297.39" x2="287.534" y2="299.663" gradientUnits="userSpaceOnUse">
<stop stop-color="#0362A6"/>
<stop offset="1" stop-color="#32EEFF"/>
</linearGradient>
<linearGradient id="paint1_linear_2307_1198" x1="146.773" y1="313.689" x2="375.908" y2="124.511" gradientUnits="userSpaceOnUse">
<stop stop-color="#32EEFF"/>
<stop offset="1" stop-color="#0362A6"/>
</linearGradient>
<linearGradient id="paint2_linear_2307_1198" x1="0.131348" y1="191.819" x2="342.847" y2="191.819" gradientUnits="userSpaceOnUse">
<stop stop-color="#0A7FD2"/>
<stop offset="1" stop-color="#32EEFF"/>
</linearGradient>
</defs>
</svg>
