<svg width="1040" height="2446" viewBox="0 0 1040 2446" fill="none" xmlns="http://www.w3.org/2000/svg">
<path d="M0 2446C43.8489 2023.5 492.166 83 492.166 83H551.199C551.199 83 1017.4 2004.73 1040 2446H0Z" fill="#024D81"/>
<path d="M546.594 18.4194C546.594 15.2436 540.243 0 524.999 0C509.756 0 503.409 15.2436 503.409 18.4194V50.1769C503.409 53.9878 507.342 57.016 509.126 60.3393C510.91 63.6626 511.031 68.687 508.491 70.5017C505.95 72.3164 486.26 76.8532 472.287 91.4617C455.654 108.851 456.408 133.045 456.408 154.977H458.949C457.937 198.486 464.03 258.506 465.3 262.952C466.571 267.398 469.816 267.832 471.652 269.304C473.488 270.776 472.287 275.655 473.557 280.737C474.068 282.778 477.368 284.547 477.368 284.547L490.706 485.89H511.031L524.999 330.278L538.973 485.89H559.297L572.636 284.547C572.636 284.547 575.936 282.778 576.446 280.737C577.717 275.655 576.516 270.776 578.352 269.304C580.188 267.832 583.433 267.398 584.703 262.952C585.974 258.506 592.066 198.486 591.055 154.977H593.596C593.596 133.045 594.35 108.851 577.717 91.4617C563.743 76.8532 544.054 72.3164 541.513 70.5017C538.973 68.687 539.094 63.6626 540.878 60.3393C542.662 57.016 546.594 53.9878 546.594 50.1769V18.4194Z" fill="url(#paint0_linear_2126_6519)"/>
<path d="M503.407 721.708C503.407 723.31 509.758 731 525.002 731C540.246 731 546.592 723.31 546.592 721.708L546.592 705.688C546.592 703.766 542.66 702.238 540.876 700.562C539.091 698.885 538.97 696.35 541.511 695.435C544.051 694.52 563.741 692.231 577.714 684.862C594.347 676.09 593.593 663.885 593.593 652.821L591.052 652.821C592.064 630.873 585.971 600.595 584.701 598.352C583.431 596.11 580.185 595.891 578.349 595.148C576.513 594.406 577.714 591.944 576.444 589.381C575.933 588.351 572.633 587.459 572.633 587.459L559.295 485.89L538.97 485.89L525.002 564.389L511.029 485.89L490.704 485.89L477.366 587.459C477.366 587.459 474.065 588.351 473.555 589.381C472.284 591.944 473.485 594.406 471.649 595.148C469.813 595.891 466.568 596.11 465.298 598.352C464.027 600.595 457.935 630.873 458.946 652.821L456.406 652.821C456.406 663.885 455.651 676.09 472.284 684.862C486.258 692.231 505.947 694.52 508.488 695.435C511.029 696.351 510.907 698.885 509.123 700.562C507.339 702.238 503.407 703.766 503.407 705.688L503.407 721.708Z" fill="url(#paint1_linear_2126_6519)"/>
<defs>
<linearGradient id="paint0_linear_2126_6519" x1="525.002" y1="121.149" x2="525.002" y2="485.89" gradientUnits="userSpaceOnUse">
<stop stop-color="#FCFF32"/>
<stop offset="1" stop-color="#0A7FD2"/>
</linearGradient>
<linearGradient id="paint1_linear_2126_6519" x1="524.999" y1="479.14" x2="524.999" y2="726.857" gradientUnits="userSpaceOnUse">
<stop stop-color="#023558"/>
<stop offset="1" stop-color="#024D81"/>
</linearGradient>
</defs>
</svg>
