<svg width="1840" height="1086" viewBox="0 0 1840 1086" fill="none" xmlns="http://www.w3.org/2000/svg">
<path d="M383.147 24.2676C725.626 -73.9604 919.91 157.739 919.91 157.739C919.91 157.739 1113.45 -73.9604 1455.93 24.2676C1693.92 92.5275 1837.93 281.802 1839.07 529.388C1840.37 809.894 1632.31 1061.34 1352.72 1083.96C1073.12 1106.57 919.91 933.97 919.91 933.97C919.91 933.97 765.957 1106.57 486.361 1083.96C206.765 1061.34 -1.29186 809.894 0.00603891 529.388C1.15162 281.802 145.154 92.5275 383.147 24.2676Z" fill="#023558"/>
<mask id="mask0_2458_1066" style="mask-type:alpha" maskUnits="userSpaceOnUse" x="0" y="0" width="1840" height="1086">
<path d="M383.147 24.2676C725.626 -73.9604 919.91 157.739 919.91 157.739C919.91 157.739 1113.45 -73.9604 1455.93 24.2676C1693.92 92.5275 1837.93 281.802 1839.07 529.388C1840.37 809.894 1632.31 1061.34 1352.72 1083.96C1073.12 1106.57 919.91 933.97 919.91 933.97C919.91 933.97 765.957 1106.57 486.361 1083.96C206.765 1061.34 -1.29186 809.894 0.00603891 529.388C1.15162 281.802 145.154 92.5275 383.147 24.2676Z" fill="#023558"/>
</mask>
<g mask="url(#mask0_2458_1066)">
<g filter="url(#filter0_f_2458_1066)">
<path d="M903.463 225.134L919.977 249.304L936.468 225.129C936.472 225.122 936.487 225.1 936.513 225.063C936.564 224.99 936.656 224.858 936.791 224.668C937.061 224.288 937.498 223.678 938.103 222.858C939.313 221.219 941.193 218.738 943.742 215.564C948.844 209.215 956.613 200.109 967.052 189.42C987.951 168.019 1019.41 140.419 1061.42 115.857C1145.01 66.9953 1271.26 29.56 1441.9 78.501C1675.13 145.396 1800.97 349.371 1800.97 510.385C1800.97 608.896 1760.08 734.54 1681.96 837.878C1604.09 940.877 1490.61 1020 1346.13 1029.4C1199.18 1038.97 1096.65 998.029 1031.11 955.425C998.226 934.05 974.487 912.146 959.068 895.731C951.362 887.528 945.749 880.709 942.124 876.037C940.312 873.702 938.999 871.905 938.172 870.742C937.759 870.161 937.467 869.739 937.295 869.487C937.209 869.362 937.153 869.278 937.127 869.239H937.126L921.251 845.016L904.236 868.455L904.243 868.445L904.225 868.471C904.191 868.516 904.125 868.605 904.026 868.736C903.828 869 903.498 869.435 903.035 870.027C902.109 871.213 900.654 873.034 898.665 875.392C894.687 880.109 888.581 886.97 880.314 895.214C863.771 911.711 838.642 933.674 804.663 955.07C736.872 997.757 633.554 1038.4 491.872 1028.57C212.653 1009.2 51.25 745.851 51.25 510.385C51.2502 337.108 167.955 142.838 397.03 77.1357C567.547 28.2292 694.042 65.9765 777.918 115.178C820.077 139.908 851.68 167.677 872.692 189.208C883.187 199.962 891.004 209.123 896.139 215.512C898.705 218.705 900.599 221.201 901.818 222.852C902.428 223.677 902.869 224.29 903.141 224.674C903.276 224.865 903.37 224.999 903.422 225.073C903.443 225.104 903.457 225.125 903.464 225.135L903.463 225.134Z" stroke="black" stroke-opacity="0.5" stroke-width="40"/>
</g>
</g>
<path d="M1067.55 70.2646C1155.33 26.3243 1284.7 -6.1188 1450.97 41.5703C1681.31 107.635 1819.96 289.923 1821.07 529.472C1822.33 801.617 1620.47 1044.24 1351.27 1066.02C1215.61 1076.99 1110.91 1040.63 1040.15 1001.67C1004.72 982.175 977.81 962.023 959.836 946.836C950.854 939.246 944.119 932.909 939.687 928.533C937.471 926.346 935.831 924.65 934.776 923.534C934.249 922.977 933.868 922.564 933.634 922.308C933.517 922.18 933.436 922.09 933.393 922.042C933.371 922.018 933.358 922.004 933.354 922C933.353 921.998 933.353 921.999 933.355 922.002L919.942 906.891L906.494 921.969C906.491 921.973 906.478 921.987 906.456 922.011C906.412 922.059 906.331 922.148 906.213 922.276C905.977 922.533 905.593 922.946 905.062 923.504C904.002 924.62 902.355 926.317 900.129 928.506C895.676 932.884 888.912 939.223 879.894 946.814C861.848 962.006 834.839 982.163 799.32 1001.67C728.36 1040.63 623.464 1076.99 487.812 1066.02C218.609 1044.24 16.7477 801.617 18.0068 529.472C19.1152 289.923 157.77 107.635 388.11 41.5703C554.38 -6.11827 683.932 26.3226 771.914 70.2715C816.041 92.3138 849.814 117.315 872.491 136.741C883.821 146.447 892.354 154.738 897.995 160.532C900.815 163.429 902.909 165.699 904.268 167.207C904.947 167.961 905.441 168.524 905.75 168.88C905.904 169.057 906.012 169.183 906.073 169.255C906.104 169.291 906.123 169.313 906.13 169.321C906.131 169.322 906.131 169.323 906.132 169.323L919.937 185.786L933.714 169.29C933.715 169.291 933.715 169.291 933.715 169.291C933.714 169.292 933.71 169.297 933.709 169.298C933.707 169.3 933.708 169.3 933.711 169.296C933.718 169.287 933.737 169.265 933.768 169.229C933.828 169.158 933.935 169.032 934.089 168.854C934.396 168.499 934.889 167.936 935.565 167.183C936.918 165.675 939.005 163.405 941.814 160.51C947.435 154.717 955.938 146.428 967.232 136.725C989.839 117.302 1023.52 92.3037 1067.55 70.2646Z" stroke="url(#paint0_linear_2458_1066)" stroke-width="36.0015"/>
<defs>
<filter id="filter0_f_2458_1066" x="-92.75" y="-89.6768" width="2037.72" height="1264.48" filterUnits="userSpaceOnUse" color-interpolation-filters="sRGB">
<feFlood flood-opacity="0" result="BackgroundImageFix"/>
<feBlend mode="normal" in="SourceGraphic" in2="BackgroundImageFix" result="shape"/>
<feGaussianBlur stdDeviation="62" result="effect1_foregroundBlur_2458_1066"/>
</filter>
<linearGradient id="paint0_linear_2458_1066" x1="163.218" y1="77.37" x2="1662.76" y2="878.1" gradientUnits="userSpaceOnUse">
<stop stop-color="#0A7FD2"/>
<stop offset="0.366649" stop-color="#32FF92"/>
<stop offset="0.820145" stop-color="#FCFF32"/>
<stop offset="1" stop-color="#0A7FD2"/>
</linearGradient>
</defs>
</svg>
