<svg xmlns="http://www.w3.org/2000/svg" width="605" height="448" fill="none"><g filter="url(#a)"><path fill="url(#b)" d="M132.504 127.211 102.639 91.32l8.194-52.955 38.407-22.41-.361 35.15z"/><mask id="c" width="589" height="245" x="4" y="187" maskUnits="userSpaceOnUse" style="mask-type:alpha"><path fill="#fff" d="M539.805 419.116 4 300.178l21.688 16.216 519.214 114.713zm5.097 11.991-5.097-11.991 52.815-231.698v37.296z"/></mask><g mask="url(#c)"><g filter="url(#d)"><path fill="url(#e)" d="M547.011 411.537-5.476 290.792l21.084 28.194 534.468 117.191z"/></g><g filter="url(#f)"><path fill="url(#g)" d="m546.767 435.642-13.135-30.817 58.988-240.07v59.959z"/></g></g><g filter="url(#h)"><path fill="url(#i)" d="m592.623 187.426-460.12-97.385 16.738-74.09L73.604 0l-17.04 73.945L4 300.19l535.808 118.932z"/></g><path fill="#024D81" d="m102.334 57.437 1.36-5.893-11.374-2.417.608-2.631L108.5 33.284l2.324.494-3.701 16.03 3.98.846-.543 2.35-3.979-.846-1.361 5.893zm-6.594-10.16-.025.106 8.522 1.811 2.599-11.26-.07-.015z"/><path fill="#FAFAFA" d="m81.978 151.636 5.79-25.08 5.106 1.085-5.79 25.08zm18.164-15.017-.567 2.455.105.023q2.547-2.55 6.033-1.809 2.782.591 4.07 2.852 1.296 2.226.608 5.208l-2.713 11.751-4.789-1.018 2.551-11.05q.34-1.473-.294-2.565-.6-1.084-2.079-1.398-1.584-.337-2.908.596-1.288.94-1.71 2.765l-2.356 10.207-4.789-1.018 4.154-17.995zm13.218 6.121.728-3.157 2.501.532 1.295-5.613 4.684.996-1.296 5.612 3.099.659-.729 3.157-3.099-.659-2.203 9.541q-.412 1.789 1.383 2.171l1.417.264-.81 3.508a51 51 0 0 1-3.009-.566q-2.078-.442-3.26-1.723-1.173-1.317-.639-3.632l2.438-10.558zm18.22 19.991q-4.367-.928-6.252-4.125-1.877-3.232-.912-7.407.93-4.034 4.055-6.203 3.13-2.205 7.04-1.374 4.261.906 5.905 4.346t.502 8.386l-13.1-2.784q-.212 2.199.675 3.639.894 1.405 2.902 1.831 2.64.562 3.996-1.469l4.719 1.003q-1.112 2.414-3.648 3.641t-5.882.516m3.151-15.411q-3.486-.741-5.081 2.968l8.029 1.706q.291-1.742-.523-3.018-.805-1.312-2.425-1.656m17.109.288-.664 2.876.106.023q1.21-1.399 2.401-1.919 1.199-.555 2.749-.225.739.157 1.094.38l-.964 4.174-.105-.023q-2.373-.762-4.152.222t-2.418 3.755l-2.025 8.769-4.789-1.018 4.154-17.995zm9.416 20.879-2.114-19.327 4.859 1.033.734 9.944.146 3.049.07.014a37 37 0 0 1 1.439-2.711l5.112-8.702 4.789 1.018-10.458 16.655zm13.212 2.808 4.154-17.995 4.789 1.018-4.154 17.995zm4.802-20.801.988-4.279 4.789 1.018-.988 4.279zm12.142 24.955q-4.367-.928-6.251-4.126-1.876-3.232-.913-7.406.932-4.034 4.055-6.204 3.132-2.203 7.04-1.374 4.261.906 5.905 4.347 1.644 3.44.502 8.386l-13.099-2.784q-.213 2.199.674 3.639.895 1.405 2.902 1.831 2.641.561 3.996-1.469l4.719 1.003q-1.112 2.414-3.648 3.641t-5.882.516m3.152-15.411q-3.487-.741-5.082 2.967l8.029 1.707q.291-1.741-.522-3.018-.806-1.312-2.425-1.656m11.871 18.052-1.128-19.117 4.754 1.01.256 8.812.033 3.54.07.015a62 62 0 0 1 1.56-3.238l4.173-7.834 4.085.868.44 8.815.059 3.582.071.015a96 96 0 0 1 1.587-3.195l4.216-7.862 4.649.988-9.542 16.849-4.367-.928-.354-9.348-.089-3.294-.07-.015q-.847 1.586-1.566 2.942l-4.506 8.316z"/><path fill="#FCFF32" d="M247.497 186.818q-.248-.53-.102-2.119l-.07-.015a5.6 5.6 0 0 1-2.385 1.37q-1.343.376-3.491-.08-2.853-.606-4.246-2.411t-.786-4.436q.631-2.736 2.824-3.595 2.202-.893 5.766-.651 2.616.188 3.613.032 1.005-.191 1.223-1.138.227-.982-.418-1.708-.637-.762-2.116-1.076-3.275-.696-4.069 1.785l-4.261-.906q.696-2.538 3.057-3.803 2.361-1.264 6.093-.471 7.606 1.617 6.076 8.247l-2.114 9.155q-.47 2.034.059 2.625l-.04.175zm-4.117-3.929q1.972.418 3.334-.359 1.396-.77 1.72-2.173l.624-2.701q-.88.291-3.588.341-2.148.022-3.131.439-.975.381-1.25 1.574-.526 2.28 2.291 2.879m13.87-9.564.729-3.157 2.5.532 1.296-5.613 4.683.996-1.296 5.612 3.099.659-.729 3.157-3.098-.659-2.203 9.541q-.414 1.789 1.383 2.171l1.416.264-.81 3.508a51 51 0 0 1-3.009-.566q-2.077-.442-3.259-1.723-1.174-1.317-.639-3.632l2.437-10.558zm23.849 21.187q-3.873-.823-5.668-2.971-1.786-2.183-1.317-5.174l4.436.943q-.23 3.08 3.256 3.82 1.584.336 2.559-.045 1.01-.374 1.229-1.321.08-.35.005-.661-.042-.304-.309-.581a3.3 3.3 0 0 0-.44-.498q-.179-.185-.71-.446a36 36 0 0 0-.831-.397 12 12 0 0 0-.981-.393q-.672-.29-.937-.42a26 26 0 0 1-2.3-1.078q-.843-.51-1.735-1.288a4 4 0 0 1-1.185-1.908q-.258-1.122.066-2.525.648-2.807 3.03-3.845 2.418-1.032 5.658-.343 3.486.74 5.085 2.773 1.643 2.005 1.285 4.836l-4.331-.92q.325-2.691-2.879-3.372-1.444-.307-2.41.04-.932.353-1.15 1.301-.074.315-.032.618.084.276.317.546.276.243.526.443.257.166.753.418.504.218.867.405.37.153 1.008.435.644.247 1.016.4 1.07.485 1.725.845.699.333 1.545.991.853.623 1.252 1.296.442.646.611 1.676.212 1.002-.072 2.229-.615 2.666-3.092 3.795-2.434 1.102-5.85.376m19.023 4.044q-4.19-.891-6.102-4.131t-.964-7.344 4.036-6.281q3.123-2.169 7.173-1.309 3.416.727 5.151 2.972t1.531 5.367l-4.683-.995q.037-1.28-.665-2.239-.703-.96-2.005-1.236-2.113-.45-3.588.82-1.475 1.268-2.091 3.934-.607 2.631.128 4.406.744 1.741 2.856 2.19 3.135.666 4.332-2.281l4.613.981q-.935 2.929-3.572 4.429-2.628 1.465-6.15.717m21.628-22.266-2.178 9.436.106.022q1.36-1.256 2.712-1.668 1.395-.44 3.19-.058 2.783.591 4.07 2.852 1.297 2.226.608 5.208l-2.713 11.751-4.789-1.018 2.551-11.05q.34-1.473-.294-2.564-.6-1.084-2.078-1.399-1.585-.337-2.909.596-1.288.94-1.709 2.765l-2.357 10.207-4.789-1.018 5.79-25.08zm25.307 29.408q-3.265 2.14-7.42 1.257t-6.173-4.146q-2.009-3.297-1.07-7.366.94-4.069 4.204-6.209 3.273-2.174 7.428-1.291t6.165 4.181q2.017 3.261 1.078 7.331-.94 4.07-4.212 6.243m-6.578-2.391q2.148.456 3.71-.868 1.605-1.352 2.22-4.017t-.244-4.541q-.825-1.869-2.973-2.325-2.183-.464-3.753.895-1.561 1.324-2.185 4.025-.615 2.665.209 4.534.833 1.833 3.016 2.297m27.502 6.839q-3.264 2.14-7.42 1.256-4.155-.882-6.172-4.145-2.01-3.298-1.07-7.366.939-4.07 4.204-6.209 3.272-2.175 7.428-1.291 4.155.882 6.164 4.18 2.017 3.263 1.078 7.331-.939 4.07-4.212 6.244m-6.577-2.392q2.148.458 3.709-.867 1.605-1.351 2.221-4.017.615-2.666-.245-4.542-.825-1.868-2.973-2.324-2.183-.464-3.753.895-1.561 1.323-2.185 4.025-.615 2.666.209 4.533.834 1.833 3.017 2.297m11.717 5.766 5.79-25.08 4.789 1.018-5.79 25.08zm15.849 3.921q-3.873-.823-5.668-2.971-1.786-2.183-1.317-5.174l4.436.943q-.23 3.078 3.256 3.82 1.584.336 2.559-.045 1.01-.375 1.229-1.321.08-.351.005-.662-.042-.303-.309-.581a3.4 3.4 0 0 0-.44-.498q-.178-.185-.709-.445a45 45 0 0 0-.832-.398 12 12 0 0 0-.981-.392q-.672-.29-.937-.42-1.415-.595-2.3-1.078-.843-.51-1.735-1.288a4 4 0 0 1-1.185-1.908q-.258-1.122.066-2.525.648-2.806 3.03-3.846 2.418-1.031 5.658-.343 3.486.741 5.085 2.774 1.643 2.006 1.285 4.836l-4.331-.921q.325-2.69-2.879-3.371-1.444-.308-2.41.039-.932.354-1.15 1.301a1.7 1.7 0 0 0-.032.619q.083.276.317.546.276.243.526.443.257.165.753.418.504.217.867.405.37.151 1.008.435.644.247 1.016.4 1.07.485 1.725.845.699.333 1.545.991.853.623 1.252 1.296.442.646.611 1.675.212 1.002-.072 2.23-.615 2.665-3.092 3.795-2.435 1.102-5.85.376"/><path fill="#FAFAFA" d="M79.123 200.878q-1.855-.394-3.324-1.393a8.8 8.8 0 0 1-2.403-2.498 8.9 8.9 0 0 1-1.22-3.252q-.296-1.805.151-3.746.454-1.965 1.513-3.457a9.3 9.3 0 0 1 2.536-2.454 9 9 0 0 1 3.25-1.272q1.77-.31 3.648.089t3.318 1.417a8.2 8.2 0 0 1 2.385 2.469 8.5 8.5 0 0 1 1.249 3.234q.326 1.786-.127 3.751-.45 1.941-1.536 3.452a9.1 9.1 0 0 1-2.56 2.448 8.9 8.9 0 0 1-3.255 1.296q-1.747.315-3.625-.084m.491-2.128q1.455.31 2.771.049a6.6 6.6 0 0 0 2.406-1.034 7 7 0 0 0 1.87-1.908 7.6 7.6 0 0 0 1.113-2.585q.33-1.427.123-2.771a6.4 6.4 0 0 0-.86-2.464 5.9 5.9 0 0 0-1.725-1.912q-1.074-.792-2.529-1.102-1.431-.304-2.753-.021a6.4 6.4 0 0 0-2.43 1.029 7.3 7.3 0 0 0-1.863 1.886 7.4 7.4 0 0 0-1.109 2.561 7.5 7.5 0 0 0-.128 2.794q.207 1.344.854 2.487a6.6 6.6 0 0 0 1.75 1.918q1.078.768 2.51 1.073m11.92 4.472 2.91-12.605 2.136.454-.567 2.456-.303-.286q.745-1.092 1.929-1.528 1.212-.453 2.621-.154 1.362.29 2.278 1.122a4.4 4.4 0 0 1 1.301 2.043q.386 1.21.073 2.567l-1.884 8.161-2.207-.469 1.722-7.46q.243-1.052.035-1.857a2.7 2.7 0 0 0-.821-1.352q-.583-.566-1.476-.755a3.15 3.15 0 0 0-1.693.082 3 3 0 0 0-1.345.916q-.565.64-.804 1.669l-1.722 7.46zm19.774 4.497q-1.855-.394-3.11-1.569a6.17 6.17 0 0 1-1.709-2.841q-.476-1.67-.044-3.542.438-1.894 1.599-3.192a6.55 6.55 0 0 1 2.794-1.86q1.655-.555 3.509-.161 1.245.264 2.222.938a6.4 6.4 0 0 1 1.626 1.597q.65.922.792 2.008l-2.164.521a3.73 3.73 0 0 0-.994-1.879q-.77-.826-1.967-1.081a4 4 0 0 0-2.225.141q-1.05.39-1.822 1.28-.772.891-1.075 2.201-.291 1.263.011 2.406a4.2 4.2 0 0 0 1.088 1.9 3.9 3.9 0 0 0 1.955 1.029q1.197.254 2.253-.159a4.04 4.04 0 0 0 1.745-1.371l1.722 1.396a4.9 4.9 0 0 1-1.603 1.499 6.7 6.7 0 0 1-2.176.789 6.2 6.2 0 0 1-2.427-.05m14.45 3.072q-1.831-.39-3.063-1.559a6.2 6.2 0 0 1-1.709-2.841q-.47-1.694-.039-3.566.438-1.893 1.576-3.197a6.5 6.5 0 0 1 2.741-1.846q1.609-.566 3.346-.197 1.409.3 2.369 1.043a5.24 5.24 0 0 1 1.542 1.751 5.7 5.7 0 0 1 .725 2.19 6.2 6.2 0 0 1-.095 2.335q-.06.257-.182.575a7 7 0 0 1-.206.569l-10.376-2.205.432-1.871 9.109 1.936-1.228.623q.492-1.172.268-2.225a3.56 3.56 0 0 0-.964-1.8q-.74-.746-1.842-.98a3.9 3.9 0 0 0-2.149.132q-1.045.367-1.804 1.309-.73.924-.966 2.371-.413 1.36-.139 2.522a4.04 4.04 0 0 0 1.13 1.933 4.27 4.27 0 0 0 2.006 1.015q1.268.27 2.272-.131a4.84 4.84 0 0 0 1.754-1.197l1.615 1.325q-.576.785-1.541 1.34a6.2 6.2 0 0 1-2.114.729q-1.154.196-2.468-.083m17.069 3.628q-1.244-.264-2.104-.914-.831-.666-1.187-1.577-.351-.933-.108-1.985.232-1.006.838-1.711.635-.723 1.68-1.09 1.068-.362 2.531-.296l4.873.226-.421 1.824-4.364-.192q-1.269-.049-1.962.393a2 2 0 0 0-.859 1.265 1.63 1.63 0 0 0 .314 1.416q.515.648 1.454.848 1.197.255 2.179-.052a3.85 3.85 0 0 0 1.704-1.085 3.83 3.83 0 0 0 .959-1.808l.74-3.203q.238-1.03-.392-1.825-.6-.815-1.844-1.079a3.5 3.5 0 0 0-2.055.152 3.4 3.4 0 0 0-1.555 1.19l-1.675-1.386a4.3 4.3 0 0 1 1.483-1.304 6 6 0 0 1 2.062-.715q1.125-.178 2.251.062 1.456.309 2.43 1.105.979.772 1.362 1.884.413 1.093.116 2.38l-1.976 8.558-2.136-.454.55-2.385.367.225a4.5 4.5 0 0 1-1.382 1.08 5.5 5.5 0 0 1-1.802.55 6 6 0 0 1-2.071-.097m19.087 4.057q-1.902-.405-3.094-1.639a5.06 5.06 0 0 1-1.412-2.95l1.931-.472q.28 1.237 1.069 2.091.787.855 1.938 1.099 1.034.22 1.827-.127.793-.346.978-1.141.13-.561-.124-.959a2 2 0 0 0-.627-.697 4.5 4.5 0 0 0-.751-.479l-1.778-.942q-1.6-.855-2.188-1.937-.564-1.077-.283-2.293.26-1.122 1.012-1.821a4.1 4.1 0 0 1 1.875-.975q1.118-.253 2.361.011 1.668.354 2.787 1.476 1.144 1.127 1.357 2.766l-1.973.439a3.44 3.44 0 0 0-.912-1.813 3.28 3.28 0 0 0-1.766-.988q-.962-.205-1.64.166-.671.348-.838 1.073-.125.538.076.949.207.387.562.659.362.248.71.445l1.926 1.047q1.446.774 2.075 1.889.653 1.12.351 2.429a3.4 3.4 0 0 1-1.024 1.77q-.781.717-1.923.965-1.14.249-2.502-.041m13.68 2.908q-1.854-.395-3.11-1.569a6.17 6.17 0 0 1-1.708-2.841q-.477-1.671-.045-3.542.438-1.894 1.599-3.193a6.55 6.55 0 0 1 2.794-1.859q1.655-.556 3.51-.162a6.1 6.1 0 0 1 2.221.938q.978.675 1.626 1.597.65.923.793 2.008l-2.165.522a3.7 3.7 0 0 0-.994-1.88q-.77-.826-1.967-1.08a4 4 0 0 0-2.224.14 4.4 4.4 0 0 0-1.823 1.281q-.772.89-1.075 2.2-.29 1.263.011 2.407.308 1.12 1.089 1.899a3.9 3.9 0 0 0 1.954 1.029q1.197.255 2.253-.159a4 4 0 0 0 1.745-1.371l1.722 1.397a4.94 4.94 0 0 1-1.602 1.499 6.7 6.7 0 0 1-2.177.788 6.2 6.2 0 0 1-2.427-.049m8.693 1.553 4.087-17.702 2.183.464-1.744 7.553-.35-.295q.746-1.093 1.929-1.528 1.213-.454 2.621-.155 1.362.29 2.278 1.122a4.4 4.4 0 0 1 1.302 2.043q.386 1.21.072 2.567l-1.884 8.162-2.207-.47 1.722-7.459q.243-1.053.011-1.862a2.7 2.7 0 0 0-.797-1.347q-.584-.566-1.475-.756a3.1 3.1 0 0 0-1.671.087 2.93 2.93 0 0 0-1.367.911q-.567.64-.804 1.669l-1.723 7.46zm19.915 4.527q-1.831-.389-3.116-1.545a6.4 6.4 0 0 1-1.802-2.861q-.523-1.682-.086-3.575.438-1.895 1.623-3.188a6.8 6.8 0 0 1 2.887-1.84q1.679-.55 3.533-.156 1.832.388 3.111 1.569a6.1 6.1 0 0 1 1.789 2.809q.529 1.658.086 3.575-.442 1.917-1.68 3.225a7 7 0 0 1-2.911 1.834q-1.65.532-3.434.153m.486-2.104a4.05 4.05 0 0 0 2.248-.136 4.25 4.25 0 0 0 1.874-1.294 4.9 4.9 0 0 0 1.093-2.172q.297-1.286-.04-2.388a4.1 4.1 0 0 0-1.135-1.91q-.798-.807-1.972-1.057a4.1 4.1 0 0 0-2.301.149 4.55 4.55 0 0 0-1.869 1.271q-.79.862-1.087 2.149-.292 1.263.034 2.411t1.13 1.933q.828.789 2.025 1.044m15.226 5.444q-1.831-.388-3.116-1.545a6.4 6.4 0 0 1-1.802-2.861q-.523-1.682-.086-3.576.438-1.893 1.623-3.187a6.8 6.8 0 0 1 2.887-1.84q1.679-.55 3.534-.157 1.83.39 3.11 1.569a6.1 6.1 0 0 1 1.789 2.809q.529 1.658.086 3.576-.442 1.917-1.68 3.224a7 7 0 0 1-2.911 1.835q-1.65.533-3.434.153m.486-2.104a4.05 4.05 0 0 0 2.248-.136 4.26 4.26 0 0 0 1.875-1.294 4.9 4.9 0 0 0 1.092-2.172q.297-1.287-.04-2.388a4.1 4.1 0 0 0-1.135-1.91 3.8 3.8 0 0 0-1.972-1.057 4.1 4.1 0 0 0-2.3.149q-1.075.385-1.87 1.271-.79.862-1.087 2.148-.292 1.263.034 2.412t1.13 1.933q.828.789 2.025 1.044m9.281 3.886 4.087-17.703 2.183.465-4.087 17.702zm16.09 3.714q-1.831-.389-3.063-1.559a6.17 6.17 0 0 1-1.709-2.84q-.47-1.695-.038-3.566.437-1.895 1.575-3.198 1.162-1.298 2.741-1.846 1.61-.566 3.346-.196 1.409.299 2.37 1.043a5.2 5.2 0 0 1 1.541 1.751q.58 1.007.726 2.19a6.2 6.2 0 0 1-.096 2.335q-.06.257-.182.574-.093.3-.205.57l-10.377-2.205.432-1.871 9.109 1.936-1.227.622q.492-1.171.267-2.225a3.55 3.55 0 0 0-.964-1.799q-.739-.746-1.842-.98a3.9 3.9 0 0 0-2.149.132q-1.045.367-1.804 1.309-.73.924-.966 2.37-.412 1.36-.139 2.522a4.04 4.04 0 0 0 1.13 1.933q.856.771 2.007 1.016 1.268.269 2.271-.131a4.9 4.9 0 0 0 1.754-1.197l1.615 1.324q-.575.786-1.541 1.341a6.2 6.2 0 0 1-2.114.728q-1.153.197-2.468-.083m7.354 1.269 5.894-5.371-2.961-7.229 2.63.559 2.516 6.276-1.338-.285 4.996-4.678 2.652.564-5.865 5.352 2.932 7.247-2.629-.559-2.47-6.265 1.315.279-4.996 4.679zm12.694 7.605 3.99-17.282 2.136.454-.626 2.713-.158-.598a5.3 5.3 0 0 1 2.336-1.368q1.377-.418 2.95-.084 1.784.379 2.993 1.544a6.17 6.17 0 0 1 1.708 2.841q.482 1.647.044 3.542-.426 1.847-1.593 3.169a6.5 6.5 0 0 1-2.799 1.883q-1.608.566-3.416.182-1.526-.326-2.637-1.272a4.74 4.74 0 0 1-1.482-2.327l.438-.299-1.701 7.366zm7.886-5.144q1.198.255 2.272-.131a4.17 4.17 0 0 0 1.822-1.28q.778-.915 1.069-2.177.303-1.31-.01-2.407a3.97 3.97 0 0 0-1.089-1.899q-.798-.808-1.996-1.062a4.2 4.2 0 0 0-2.294.125 4.5 4.5 0 0 0-1.875 1.294q-.773.891-1.069 2.177-.292 1.263.01 2.407.332 1.125 1.136 1.909.827.789 2.024 1.044m9.25 3.88 2.91-12.605 2.136.454-.534 2.315-.159-.377q.695-.981 1.728-1.301 1.04-.343 2.355-.064l.774.165-.475 2.058-1.103-.235q-1.338-.284-2.354.383-1.011.644-1.362 2.164l-1.733 7.507zm14.317 3.337q-1.831-.389-3.064-1.559a6.2 6.2 0 0 1-1.708-2.841q-.471-1.695-.039-3.565.438-1.895 1.576-3.198a6.5 6.5 0 0 1 2.741-1.846q1.608-.566 3.345-.197 1.409.3 2.37 1.044a5.2 5.2 0 0 1 1.541 1.75q.58 1.006.726 2.191a6.2 6.2 0 0 1-.096 2.335 4 4 0 0 1-.182.574q-.094.3-.205.57l-10.376-2.206.432-1.871 9.108 1.937-1.227.622q.492-1.171.267-2.225a3.56 3.56 0 0 0-.963-1.799q-.74-.746-1.843-.981a3.9 3.9 0 0 0-2.148.132q-1.046.367-1.805 1.31-.73.924-.966 2.37-.412 1.36-.139 2.522a4.05 4.05 0 0 0 1.13 1.933q.857.77 2.007 1.015 1.267.27 2.271-.13a4.85 4.85 0 0 0 1.754-1.198l1.615 1.325q-.575.786-1.541 1.341-.937.536-2.113.728-1.154.196-2.468-.083m13.481 2.865q-1.901-.403-3.095-1.638a5.07 5.07 0 0 1-1.412-2.95l1.932-.473q.28 1.237 1.068 2.092a3.6 3.6 0 0 0 1.938 1.099q1.033.22 1.828-.127.794-.347.977-1.142.13-.56-.123-.958a2 2 0 0 0-.627-.698 4.5 4.5 0 0 0-.752-.478l-1.777-.942q-1.6-.856-2.188-1.937a3.22 3.22 0 0 1-.283-2.293q.259-1.122 1.011-1.821a4.1 4.1 0 0 1 1.875-.975q1.117-.253 2.362.011 1.666.354 2.787 1.475 1.144 1.126 1.356 2.767l-1.973.439a3.43 3.43 0 0 0-.911-1.813 3.3 3.3 0 0 0-1.767-.989q-.962-.204-1.639.167a1.55 1.55 0 0 0-.839 1.073q-.124.537.077.948.205.387.562.659.361.25.71.446l1.925 1.047q1.447.774 2.076 1.888.653 1.12.35 2.43a3.4 3.4 0 0 1-1.024 1.77q-.781.716-1.922.965-1.142.248-2.502-.042m12.342 2.624q-1.902-.405-3.094-1.639a5.07 5.07 0 0 1-1.413-2.95l1.932-.472q.28 1.237 1.068 2.091a3.6 3.6 0 0 0 1.939 1.099q1.032.22 1.827-.127.794-.346.977-1.141.13-.561-.123-.959a2 2 0 0 0-.627-.697 4.5 4.5 0 0 0-.752-.479l-1.777-.942q-1.6-.855-2.188-1.937-.564-1.077-.283-2.293.259-1.122 1.011-1.821a4.1 4.1 0 0 1 1.875-.975q1.118-.253 2.362.011 1.666.355 2.787 1.476 1.144 1.127 1.356 2.766l-1.973.439a3.43 3.43 0 0 0-.911-1.813 3.28 3.28 0 0 0-1.767-.988q-.962-.205-1.639.166-.671.348-.839 1.073-.124.538.077.949.206.387.562.659.361.248.71.445l1.925 1.047q1.447.774 2.076 1.889.653 1.12.35 2.429a3.37 3.37 0 0 1-1.024 1.77q-.781.717-1.922.965-1.14.249-2.502-.041m13.633 2.898q-1.832-.39-3.063-1.559a6.2 6.2 0 0 1-1.709-2.841q-.471-1.695-.039-3.565.438-1.894 1.576-3.198a6.5 6.5 0 0 1 2.741-1.846q1.608-.567 3.346-.197 1.409.3 2.369 1.043a5.24 5.24 0 0 1 1.542 1.751q.58 1.006.725 2.19a6.2 6.2 0 0 1-.095 2.335q-.06.257-.182.575a7 7 0 0 1-.206.57l-10.376-2.206.432-1.871 9.109 1.936-1.228.623q.492-1.172.268-2.225a3.56 3.56 0 0 0-.964-1.8q-.74-.746-1.842-.98a3.9 3.9 0 0 0-2.149.132q-1.045.367-1.804 1.309-.73.925-.966 2.371-.413 1.36-.139 2.522a4.04 4.04 0 0 0 1.13 1.933 4.27 4.27 0 0 0 2.006 1.015q1.267.27 2.272-.131a4.84 4.84 0 0 0 1.754-1.197l1.615 1.325q-.576.785-1.541 1.34a6.2 6.2 0 0 1-2.114.729q-1.154.196-2.468-.083m13.481 2.865q-1.902-.404-3.094-1.639a5.07 5.07 0 0 1-1.413-2.949l1.932-.473q.28 1.237 1.069 2.092a3.6 3.6 0 0 0 1.938 1.098q1.032.22 1.827-.126.793-.347.978-1.142.13-.561-.124-.958a2 2 0 0 0-.627-.698 4.6 4.6 0 0 0-.751-.479l-1.778-.942q-1.6-.855-2.188-1.937-.564-1.076-.283-2.292.26-1.124 1.011-1.821a4.1 4.1 0 0 1 1.876-.976q1.117-.253 2.361.012 1.666.354 2.787 1.475 1.144 1.126 1.357 2.766l-1.974.439a3.43 3.43 0 0 0-.911-1.812 3.28 3.28 0 0 0-1.766-.989q-.963-.205-1.64.167a1.55 1.55 0 0 0-.838 1.072q-.125.538.076.949.206.387.562.659.362.249.71.445l1.925 1.048q1.447.773 2.076 1.888.653 1.12.351 2.43a3.4 3.4 0 0 1-1.024 1.769q-.781.717-1.923.965-1.14.249-2.502-.041M63.374 229.946l2.91-12.604 2.183.464-2.91 12.604zm3.374-14.616.648-2.806 2.183.464-.648 2.806zm2.548 15.875 2.91-12.605 2.137.455-.567 2.455-.304-.285q.745-1.093 1.93-1.528 1.213-.454 2.62-.155 1.362.29 2.278 1.122a4.4 4.4 0 0 1 1.302 2.043q.386 1.21.072 2.567l-1.884 8.161-2.207-.469 1.723-7.459q.243-1.053.034-1.857a2.67 2.67 0 0 0-.82-1.353q-.584-.565-1.476-.755a3.15 3.15 0 0 0-1.694.082 3 3 0 0 0-1.344.916q-.567.64-.804 1.669l-1.722 7.46zm19.08 4.202q-1.856-.393-2.622-1.661-.743-1.262-.3-3.179l1.533-6.641-2.3-.489.48-2.082.47.1q.844.18 1.456-.23t.806-1.251l.238-1.029 2.183.464-.67 2.899 2.841.604-.48 2.081-2.84-.603-1.518 6.571q-.146.631-.066 1.139.103.513.508.893.41.357 1.185.522.165.034.404.061.264.032.48.053l-.442 1.918a4.4 4.4 0 0 1-.702-.052 5 5 0 0 1-.645-.088m9.963 2.266q-1.83-.39-3.063-1.559a6.2 6.2 0 0 1-1.708-2.841q-.47-1.695-.04-3.566.439-1.893 1.576-3.197a6.5 6.5 0 0 1 2.742-1.846q1.608-.567 3.345-.197 1.408.3 2.37 1.043a5.2 5.2 0 0 1 1.541 1.751q.58 1.006.726 2.19a6.2 6.2 0 0 1-.096 2.335 4 4 0 0 1-.182.575 7 7 0 0 1-.205.569l-10.376-2.205.432-1.871 9.108 1.936-1.227.622q.492-1.17.267-2.224a3.56 3.56 0 0 0-.964-1.8q-.738-.746-1.842-.98a3.9 3.9 0 0 0-2.148.132q-1.046.367-1.805 1.309-.73.925-.966 2.371-.412 1.36-.139 2.522a4.05 4.05 0 0 0 1.13 1.933q.856.77 2.007 1.015 1.267.269 2.271-.131a4.8 4.8 0 0 0 1.754-1.197l1.615 1.325q-.575.785-1.541 1.34a6.2 6.2 0 0 1-2.113.729q-1.153.196-2.469-.083m9.015 1.621 2.91-12.604 2.137.454-.535 2.315-.159-.377q.694-.981 1.729-1.301 1.04-.343 2.354-.064l.775.165-.475 2.058-1.104-.235q-1.337-.284-2.354.383-1.01.644-1.361 2.164l-1.733 7.506zm14.317 3.338q-1.831-.39-3.063-1.559a6.2 6.2 0 0 1-1.709-2.841q-.47-1.695-.039-3.565.438-1.895 1.576-3.198a6.5 6.5 0 0 1 2.741-1.846q1.608-.566 3.346-.197 1.409.3 2.369 1.044a5.2 5.2 0 0 1 1.542 1.75q.58 1.006.725 2.191a6.2 6.2 0 0 1-.095 2.334q-.06.257-.182.575a7 7 0 0 1-.206.57l-10.376-2.206.432-1.871 9.109 1.936-1.228.623q.492-1.172.268-2.225a3.55 3.55 0 0 0-.964-1.799q-.74-.746-1.842-.981a3.9 3.9 0 0 0-2.149.132q-1.045.367-1.804 1.309-.73.925-.966 2.371-.413 1.36-.139 2.522a4.04 4.04 0 0 0 1.13 1.933 4.27 4.27 0 0 0 2.006 1.015q1.268.27 2.272-.13a4.9 4.9 0 0 0 1.754-1.198l1.615 1.325q-.575.785-1.541 1.341-.937.536-2.114.728-1.154.196-2.468-.083m13.481 2.865q-1.902-.403-3.094-1.639a5.06 5.06 0 0 1-1.412-2.949l1.931-.473q.281 1.237 1.069 2.092a3.6 3.6 0 0 0 1.938 1.099q1.034.22 1.827-.127t.978-1.142q.13-.56-.124-.958a2 2 0 0 0-.627-.698 4.5 4.5 0 0 0-.751-.478l-1.778-.942q-1.6-.856-2.188-1.937-.564-1.077-.283-2.293.26-1.123 1.012-1.821a4.1 4.1 0 0 1 1.875-.976q1.118-.253 2.361.012 1.668.354 2.787 1.475 1.144 1.127 1.357 2.766l-1.973.44a3.44 3.44 0 0 0-.912-1.813 3.28 3.28 0 0 0-1.766-.989q-.963-.204-1.64.167a1.55 1.55 0 0 0-.838 1.073q-.125.537.076.948.207.387.562.659.362.248.71.446l1.926 1.047q1.446.773 2.076 1.888.652 1.12.35 2.43a3.4 3.4 0 0 1-1.024 1.769q-.781.717-1.923.966-1.14.248-2.502-.042m12.985 2.613q-1.855-.394-2.621-1.661-.744-1.262-.301-3.179l1.534-6.642-2.301-.489.481-2.081.469.1q.845.18 1.457-.23t.806-1.252l.238-1.029 2.183.464-.67 2.9 2.841.604-.481 2.081-2.84-.604-1.517 6.572q-.145.63-.066 1.139.103.512.508.893.41.357 1.185.521.164.036.404.062.264.031.481.053l-.443 1.917a4 4 0 0 1-.703-.051 5 5 0 0 1-.644-.088m4.176 4.151.243-1.053q.771-.032 1.271-.49t.762-1.383l-1.056-.225.648-2.806 2.277.484-.459 1.988q-.389 1.683-1.33 2.562-.92.885-2.356.923m15.063-.209-1.433-13.527 2.418.514 1.016 11.28-.84-.203 5.81-9.805 2.066.439.951 11.242-.85-.156 5.909-9.808 2.394.509-7.253 11.681-2.089-.444-.904-11.232.657.14-5.763 9.814zm22.364 5.048q-1.832-.389-3.063-1.558a6.2 6.2 0 0 1-1.709-2.841q-.471-1.695-.039-3.566.438-1.895 1.576-3.198 1.162-1.298 2.741-1.846 1.609-.565 3.346-.196 1.409.299 2.369 1.043a5.2 5.2 0 0 1 1.542 1.751 5.7 5.7 0 0 1 .725 2.19 6.2 6.2 0 0 1-.095 2.335q-.06.257-.182.575a7 7 0 0 1-.206.569l-10.376-2.205.432-1.871 9.109 1.936-1.228.622q.492-1.17.268-2.224a3.55 3.55 0 0 0-.964-1.8q-.74-.746-1.842-.98a3.9 3.9 0 0 0-2.149.132q-1.045.367-1.804 1.309-.73.924-.966 2.371-.413 1.36-.139 2.521a4.03 4.03 0 0 0 1.13 1.933 4.27 4.27 0 0 0 2.006 1.016q1.268.269 2.272-.131a4.9 4.9 0 0 0 1.754-1.197l1.615 1.324q-.575.786-1.541 1.341a6.2 6.2 0 0 1-2.114.728q-1.154.197-2.468-.083m13.425 2.56 4.087-17.703 2.183.464-1.744 7.554-.35-.296q.744-1.093 1.929-1.528 1.212-.454 2.621-.154 1.362.29 2.278 1.122a4.37 4.37 0 0 1 1.301 2.043q.385 1.21.073 2.567l-1.885 8.161-2.206-.469 1.722-7.46q.243-1.052.011-1.862a2.7 2.7 0 0 0-.797-1.347q-.584-.566-1.476-.755a3.1 3.1 0 0 0-1.67.086 2.94 2.94 0 0 0-1.368.912q-.566.64-.804 1.669l-1.722 7.46zm19.727 4.487q-1.831-.389-3.064-1.559a6.2 6.2 0 0 1-1.708-2.841q-.471-1.694-.039-3.565.438-1.895 1.576-3.198a6.5 6.5 0 0 1 2.741-1.846q1.608-.566 3.346-.197 1.408.3 2.369 1.044a5.2 5.2 0 0 1 1.542 1.75q.58 1.006.725 2.191a6.2 6.2 0 0 1-.095 2.335q-.06.257-.182.574-.094.3-.206.57l-10.376-2.206.432-1.87 9.108 1.936-1.227.622q.492-1.171.268-2.225a3.55 3.55 0 0 0-.964-1.799q-.74-.746-1.843-.981a3.9 3.9 0 0 0-2.148.132q-1.045.367-1.805 1.31-.73.924-.966 2.37-.412 1.36-.138 2.522a4.04 4.04 0 0 0 1.129 1.933q.857.77 2.007 1.015 1.267.27 2.271-.13a4.9 4.9 0 0 0 1.754-1.197l1.616 1.324q-.576.786-1.541 1.341-.937.536-2.114.728-1.154.196-2.468-.083m9.015 1.622 4.087-17.703 2.183.465-4.087 17.702zm4.843 5.936 3.99-17.282 2.136.454-.626 2.713-.158-.598a5.3 5.3 0 0 1 2.336-1.368q1.377-.418 2.95-.084 1.784.379 2.993 1.544a6.17 6.17 0 0 1 1.708 2.841q.482 1.647.044 3.542-.426 1.847-1.593 3.169a6.5 6.5 0 0 1-2.799 1.883q-1.609.566-3.416.182-1.527-.326-2.637-1.272a4.74 4.74 0 0 1-1.483-2.327l.439-.299-1.701 7.366zm7.886-5.144q1.198.255 2.272-.131a4.17 4.17 0 0 0 1.822-1.28q.777-.914 1.069-2.177.303-1.31-.011-2.407a3.97 3.97 0 0 0-1.088-1.899q-.798-.808-1.996-1.062a4.2 4.2 0 0 0-2.295.125 4.5 4.5 0 0 0-1.875 1.294q-.772.891-1.069 2.177-.29 1.263.011 2.407a4.3 4.3 0 0 0 1.136 1.909q.827.789 2.024 1.044m13.153 10.106a5.3 5.3 0 0 1-.829-.249 3.4 3.4 0 0 1-.744-.404l.448-1.941q.248.102.612.228.382.156.759.235 1.102.235 1.78-.137.695-.343 1.481-1.402l1.235-1.725-.484 1.885-2.273-14.688 2.371.504 1.718 11.65-.704-.149 6.662-9.869 2.418.514-8.96 12.888a7.8 7.8 0 0 1-1.454 1.605 4.8 4.8 0 0 1-1.81 1.013q-1.005.302-2.226.042m19.55-.947q-1.83-.389-3.115-1.545a6.4 6.4 0 0 1-1.803-2.861q-.522-1.681-.085-3.576.437-1.893 1.622-3.187a6.8 6.8 0 0 1 2.888-1.84q1.678-.55 3.533-.156 1.831.389 3.11 1.568a6.1 6.1 0 0 1 1.79 2.809q.529 1.658.085 3.576-.443 1.917-1.68 3.224a7 7 0 0 1-2.911 1.835q-1.65.533-3.434.153m.486-2.104a4.05 4.05 0 0 0 2.248-.136 4.25 4.25 0 0 0 1.875-1.294 4.9 4.9 0 0 0 1.092-2.172q.297-1.287-.039-2.388a4.1 4.1 0 0 0-1.136-1.91 3.8 3.8 0 0 0-1.972-1.057 4.1 4.1 0 0 0-2.3.149 4.55 4.55 0 0 0-1.87 1.271q-.79.863-1.087 2.148-.291 1.263.035 2.412a4.27 4.27 0 0 0 1.129 1.933q.828.789 2.025 1.044m13.701 5.12q-1.362-.29-2.32-1.156a4.45 4.45 0 0 1-1.285-2.113q-.322-1.27.018-2.744l1.819-7.88 2.183.464-1.765 7.646q-.216.936-.002 1.717.237.786.826 1.329.613.547 1.504.737.892.19 1.665-.064.797-.247 1.344-.916.572-.663.81-1.692l1.722-7.46 2.207.469-2.91 12.604-2.136-.454.566-2.455.304.285a3.86 3.86 0 0 1-1.958 1.547q-1.208.43-2.592.136m12.88 7.35 3.99-17.282 2.136.454-.626 2.713-.157-.598a5.3 5.3 0 0 1 2.335-1.368q1.377-.418 2.95-.084 1.784.379 2.993 1.544a6.17 6.17 0 0 1 1.708 2.84q.481 1.648.045 3.543-.427 1.847-1.594 3.169a6.5 6.5 0 0 1-2.799 1.883q-1.608.566-3.416.181-1.526-.324-2.637-1.272a4.73 4.73 0 0 1-1.482-2.326l.438-.3-1.7 7.367zm7.887-5.144q1.197.254 2.271-.131a4.16 4.16 0 0 0 1.822-1.281q.778-.914 1.069-2.176.303-1.31-.01-2.407a3.97 3.97 0 0 0-1.089-1.899q-.798-.808-1.996-1.063a4.2 4.2 0 0 0-2.294.126 4.5 4.5 0 0 0-1.875 1.294q-.772.891-1.069 2.177-.292 1.263.011 2.407.33 1.125 1.135 1.909.827.789 2.025 1.044m9.249 3.879 2.91-12.604 2.136.454-.534 2.315-.159-.377q.695-.981 1.728-1.301 1.04-.343 2.355-.064l.774.165-.475 2.058-1.103-.235q-1.338-.284-2.354.383-1.011.644-1.362 2.164l-1.733 7.506zm14.317 3.338q-1.831-.39-3.064-1.559a6.2 6.2 0 0 1-1.708-2.841q-.471-1.695-.039-3.565.438-1.894 1.576-3.198a6.5 6.5 0 0 1 2.741-1.846q1.608-.566 3.345-.197 1.409.3 2.37 1.044a5.2 5.2 0 0 1 1.542 1.75q.58 1.006.725 2.191a6.2 6.2 0 0 1-.096 2.334q-.059.258-.181.575a7 7 0 0 1-.206.57l-10.376-2.206.432-1.871 9.108 1.936-1.227.623q.492-1.172.267-2.225a3.55 3.55 0 0 0-.963-1.799q-.74-.746-1.843-.981a3.9 3.9 0 0 0-2.148.132q-1.045.367-1.805 1.309-.73.925-.966 2.371-.412 1.36-.139 2.522a4.05 4.05 0 0 0 1.13 1.933q.857.77 2.007 1.015 1.267.27 2.271-.13a4.85 4.85 0 0 0 1.754-1.198l1.616 1.325q-.576.785-1.541 1.341-.937.537-2.114.728-1.154.196-2.468-.083m7.935 6.299 3.99-17.282 2.136.454-.626 2.713-.158-.598a5.3 5.3 0 0 1 2.335-1.368q1.378-.418 2.951-.084 1.784.379 2.993 1.544a6.2 6.2 0 0 1 1.708 2.841q.482 1.647.044 3.542-.426 1.847-1.594 3.169a6.5 6.5 0 0 1-2.798 1.883q-1.609.566-3.416.181-1.527-.324-2.637-1.271a4.73 4.73 0 0 1-1.483-2.327l.439-.3-1.701 7.367zm7.886-5.144q1.197.255 2.271-.131a4.17 4.17 0 0 0 1.823-1.28q.778-.915 1.069-2.177.303-1.31-.011-2.407a3.96 3.96 0 0 0-1.088-1.899q-.8-.808-1.996-1.063a4.2 4.2 0 0 0-2.295.126 4.5 4.5 0 0 0-1.875 1.294q-.771.891-1.069 2.177-.291 1.263.011 2.407.331 1.125 1.135 1.909.828.789 2.025 1.044m12.894 4.949q-1.244-.265-2.104-.914-.831-.667-1.188-1.577-.35-.933-.108-1.986.233-1.005.839-1.71.635-.724 1.68-1.091 1.068-.361 2.531-.296l4.873.227-.421 1.824-4.364-.192q-1.269-.05-1.962.392-.67.447-.859 1.265-.178.772.314 1.416.515.65 1.454.849 1.197.255 2.179-.052a3.86 3.86 0 0 0 1.704-1.085 3.84 3.84 0 0 0 .959-1.808l.739-3.204q.238-1.029-.391-1.825-.6-.814-1.844-1.079a3.5 3.5 0 0 0-2.055.152 3.4 3.4 0 0 0-1.555 1.191l-1.675-1.387q.552-.79 1.483-1.303a6 6 0 0 1 2.061-.715 6.1 6.1 0 0 1 2.252.061q1.455.31 2.429 1.105.98.772 1.363 1.885.413 1.094.116 2.379l-1.976 8.559-2.137-.454.551-2.385.367.225a4.6 4.6 0 0 1-1.382 1.08 5.5 5.5 0 0 1-1.802.549 6 6 0 0 1-2.071-.096m10.211 1.875 2.91-12.604 2.136.454-.534 2.315-.16-.377q.695-.981 1.729-1.301 1.04-.343 2.354-.064l.775.165-.475 2.058-1.103-.235q-1.338-.284-2.354.383-1.011.644-1.362 2.164l-1.733 7.507zm14.316 3.338q-1.83-.39-3.063-1.559a6.2 6.2 0 0 1-1.708-2.841q-.471-1.695-.039-3.565.437-1.894 1.575-3.198a6.5 6.5 0 0 1 2.742-1.846q1.608-.566 3.345-.197 1.409.3 2.37 1.044a5.2 5.2 0 0 1 1.541 1.75q.58 1.006.726 2.191a6.2 6.2 0 0 1-.096 2.334q-.059.258-.182.575a7 7 0 0 1-.205.57l-10.376-2.206.432-1.871 9.108 1.937-1.227.622q.492-1.171.267-2.225a3.55 3.55 0 0 0-.964-1.799q-.738-.746-1.842-.981a3.9 3.9 0 0 0-2.148.132q-1.046.367-1.805 1.31-.73.924-.966 2.37-.412 1.36-.139 2.522a4.05 4.05 0 0 0 1.13 1.933q.856.77 2.007 1.015 1.267.27 2.271-.13a4.85 4.85 0 0 0 1.754-1.198l1.615 1.325q-.575.786-1.541 1.341-.937.537-2.113.728-1.153.196-2.469-.083M59.82 262.195q-1.245-.264-2.105-.914-.831-.666-1.187-1.577-.351-.933-.108-1.985.232-1.006.838-1.711.635-.724 1.68-1.09 1.069-.362 2.531-.296l4.874.226-.422 1.824-4.364-.192q-1.269-.049-1.962.393-.669.446-.858 1.265-.18.771.313 1.416.516.648 1.454.848 1.197.255 2.18-.052a3.85 3.85 0 0 0 1.703-1.085 3.83 3.83 0 0 0 .96-1.808l.739-3.203q.237-1.03-.392-1.825-.6-.815-1.844-1.079a3.5 3.5 0 0 0-2.054.152 3.4 3.4 0 0 0-1.556 1.19l-1.675-1.386a4.3 4.3 0 0 1 1.483-1.304 6 6 0 0 1 2.062-.715q1.125-.178 2.251.062 1.455.309 2.43 1.105.98.772 1.362 1.884.413 1.093.116 2.38l-1.976 8.558-2.136-.454.55-2.385.367.225a4.5 4.5 0 0 1-1.382 1.08q-.81.417-1.801.55a6 6 0 0 1-2.072-.097m10.21 1.876 2.91-12.605 2.136.454-.566 2.456-.304-.285q.746-1.093 1.929-1.529 1.213-.453 2.621-.154 1.362.29 2.278 1.122a4.4 4.4 0 0 1 1.302 2.043q.385 1.21.072 2.567l-1.884 8.161-2.207-.469 1.722-7.46q.243-1.052.035-1.857a2.67 2.67 0 0 0-.82-1.352q-.585-.565-1.476-.755a3.15 3.15 0 0 0-1.694.082 3 3 0 0 0-1.344.916q-.567.64-.804 1.669l-1.723 7.46zm19.657 4.472q-1.784-.379-3.017-1.549a6.23 6.23 0 0 1-1.684-2.835q-.477-1.673-.05-3.519.436-1.894 1.599-3.193a6.57 6.57 0 0 1 2.775-1.888q1.632-.56 3.416-.181 1.574.334 2.637 1.272a5 5 0 0 1 1.515 2.186l-.476.463 1.803-7.811 2.207.47-4.087 17.702-2.137-.454.621-2.689.196.434a4.8 4.8 0 0 1-2.368 1.508q-1.4.414-2.95.084m.674-2.064q1.197.254 2.27-.131a4.36 4.36 0 0 0 1.847-1.276q.801-.909 1.092-2.172.297-1.286-.034-2.411a4.1 4.1 0 0 0-1.106-1.928q-.805-.784-2.002-1.039a4.05 4.05 0 0 0-2.276.154 4.36 4.36 0 0 0-1.847 1.276q-.766.867-1.069 2.177-.29 1.263.011 2.406a4.14 4.14 0 0 0 1.112 1.905q.804.784 2.002 1.039m18.571 6.155q-1.902-.404-3.094-1.639a5.07 5.07 0 0 1-1.413-2.95l1.932-.472q.28 1.237 1.069 2.091t1.938 1.099q1.032.22 1.827-.127.793-.346.978-1.141.13-.561-.124-.959a2 2 0 0 0-.627-.697 4.5 4.5 0 0 0-.751-.479l-1.778-.942q-1.6-.855-2.188-1.937-.564-1.077-.283-2.292.26-1.123 1.011-1.822a4.1 4.1 0 0 1 1.876-.975q1.118-.253 2.361.011 1.667.356 2.787 1.476 1.144 1.126 1.357 2.766l-1.974.439a3.43 3.43 0 0 0-.911-1.813 3.28 3.28 0 0 0-1.766-.988q-.963-.205-1.64.166-.671.348-.838 1.073-.125.538.076.949.206.387.562.659.362.249.71.445l1.925 1.047q1.448.774 2.076 1.889.653 1.12.351 2.43a3.4 3.4 0 0 1-1.024 1.769q-.782.717-1.923.965-1.14.249-2.502-.041m13.68 2.908q-1.854-.394-3.11-1.569a6.2 6.2 0 0 1-1.709-2.841q-.476-1.671-.044-3.542.438-1.894 1.599-3.193a6.56 6.56 0 0 1 2.794-1.859q1.654-.557 3.51-.162a6.1 6.1 0 0 1 2.221.938q.978.675 1.626 1.597a4.5 4.5 0 0 1 .793 2.009l-2.165.521a3.7 3.7 0 0 0-.994-1.88q-.77-.826-1.967-1.08a4 4 0 0 0-2.225.14q-1.05.39-1.822 1.281t-1.075 2.2q-.29 1.263.011 2.407.308 1.12 1.089 1.899a3.9 3.9 0 0 0 1.954 1.029q1.197.255 2.253-.159a4 4 0 0 0 1.745-1.371l1.722 1.397a4.94 4.94 0 0 1-1.602 1.499 6.7 6.7 0 0 1-2.177.789 6.2 6.2 0 0 1-2.427-.05m8.693 1.553 4.087-17.702 2.183.464-1.744 7.553-.35-.295q.744-1.093 1.929-1.528 1.213-.454 2.621-.154 1.362.29 2.278 1.122a4.37 4.37 0 0 1 1.301 2.043q.386 1.21.073 2.566l-1.884 8.162-2.207-.469 1.722-7.46q.243-1.052.011-1.862a2.7 2.7 0 0 0-.797-1.347q-.584-.566-1.476-.756a3.1 3.1 0 0 0-1.67.087 2.93 2.93 0 0 0-1.367.911q-.567.641-.804 1.669l-1.723 7.46zm19.727 4.488q-1.832-.39-3.063-1.559a6.2 6.2 0 0 1-1.709-2.841q-.47-1.694-.039-3.566.438-1.893 1.576-3.197a6.5 6.5 0 0 1 2.741-1.846q1.608-.566 3.346-.197 1.409.3 2.369 1.043a5.24 5.24 0 0 1 1.542 1.751q.58 1.007.726 2.19a6.2 6.2 0 0 1-.096 2.335q-.06.258-.182.575a7 7 0 0 1-.206.569l-10.376-2.205.432-1.871 9.109 1.936-1.228.623q.493-1.172.268-2.225a3.56 3.56 0 0 0-.964-1.8q-.74-.746-1.842-.98a3.9 3.9 0 0 0-2.149.132q-1.045.367-1.804 1.309-.73.924-.966 2.371-.413 1.36-.139 2.522a4.04 4.04 0 0 0 1.13 1.933q.857.77 2.006 1.015 1.269.27 2.272-.131a4.84 4.84 0 0 0 1.754-1.197l1.615 1.325q-.576.785-1.541 1.34a6.2 6.2 0 0 1-2.114.729q-1.154.196-2.468-.083m14.702 3.125q-1.784-.38-3.017-1.549a6.25 6.25 0 0 1-1.685-2.836q-.475-1.671-.049-3.519.437-1.894 1.599-3.193a6.56 6.56 0 0 1 2.775-1.887q1.632-.561 3.416-.182 1.573.334 2.637 1.272a5 5 0 0 1 1.515 2.186l-.476.463 1.803-7.81 2.207.469-4.087 17.702-2.137-.454.621-2.689.196.434a4.8 4.8 0 0 1-2.368 1.508q-1.4.414-2.95.085m.673-2.065q1.198.255 2.272-.131a4.36 4.36 0 0 0 1.846-1.275 4.9 4.9 0 0 0 1.092-2.172q.297-1.287-.034-2.412a4.1 4.1 0 0 0-1.106-1.928q-.805-.784-2.002-1.039a4.05 4.05 0 0 0-2.276.154 4.36 4.36 0 0 0-1.847 1.276q-.766.867-1.069 2.177-.29 1.263.011 2.407a4.15 4.15 0 0 0 1.112 1.904q.804.784 2.001 1.039m14.115 5.208q-1.362-.29-2.319-1.155a4.45 4.45 0 0 1-1.285-2.113q-.322-1.272.017-2.744l1.82-7.881 2.183.464-1.765 7.647q-.216.935-.003 1.717.237.786.826 1.328.613.548 1.505.737.893.19 1.665-.063.795-.248 1.344-.916.572-.664.809-1.693l1.723-7.46 2.206.469-2.91 12.605-2.136-.454.567-2.456.304.286a3.86 3.86 0 0 1-1.958 1.546q-1.208.43-2.593.136m9.551 1.736 4.087-17.703 2.183.464-4.087 17.703zm11.68 2.777q-1.831-.39-3.063-1.559a6.2 6.2 0 0 1-1.709-2.841q-.471-1.695-.039-3.565.438-1.894 1.576-3.198a6.5 6.5 0 0 1 2.741-1.846q1.608-.567 3.346-.197 1.409.3 2.369 1.044a5.2 5.2 0 0 1 1.542 1.75 5.7 5.7 0 0 1 .725 2.19 6.2 6.2 0 0 1-.095 2.335q-.06.258-.182.575a7 7 0 0 1-.206.57l-10.376-2.206.432-1.871 9.109 1.936-1.228.623q.492-1.172.268-2.225a3.56 3.56 0 0 0-.964-1.8q-.74-.746-1.842-.98a3.9 3.9 0 0 0-2.149.132q-1.045.367-1.804 1.309-.73.925-.966 2.371-.413 1.36-.139 2.522a4.04 4.04 0 0 0 1.13 1.933 4.27 4.27 0 0 0 2.006 1.015q1.268.27 2.272-.131a4.84 4.84 0 0 0 1.754-1.197l1.615 1.325q-.575.785-1.541 1.341a6.3 6.3 0 0 1-2.114.728q-1.154.196-2.468-.083m17.069 3.628q-1.244-.264-2.104-.913-.831-.667-1.187-1.578-.351-.933-.108-1.985.232-1.006.838-1.711.635-.724 1.68-1.09 1.068-.362 2.531-.296l4.873.226-.421 1.824-4.364-.192q-1.269-.049-1.962.393a2 2 0 0 0-.859 1.265 1.63 1.63 0 0 0 .314 1.416q.515.648 1.454.848 1.197.255 2.179-.052a3.85 3.85 0 0 0 1.704-1.085 3.83 3.83 0 0 0 .959-1.808l.74-3.203q.237-1.03-.392-1.825-.6-.815-1.844-1.079a3.5 3.5 0 0 0-2.055.152 3.4 3.4 0 0 0-1.555 1.19l-1.675-1.386a4.3 4.3 0 0 1 1.483-1.304 6 6 0 0 1 2.062-.715 6.1 6.1 0 0 1 2.251.062q1.456.309 2.429 1.105.98.772 1.363 1.884.413 1.093.116 2.38l-1.976 8.559-2.136-.455.55-2.385.367.225a4.5 4.5 0 0 1-1.382 1.08 5.5 5.5 0 0 1-1.802.55 6 6 0 0 1-2.071-.097m10.211 1.876 2.91-12.605 2.136.455-.567 2.455-.303-.285q.744-1.093 1.929-1.528 1.212-.454 2.621-.155 1.362.29 2.278 1.122a4.4 4.4 0 0 1 1.301 2.043q.386 1.21.073 2.567l-1.884 8.161-2.207-.469 1.722-7.459q.243-1.053.035-1.858a2.7 2.7 0 0 0-.821-1.352q-.583-.565-1.476-.755a3.15 3.15 0 0 0-1.693.082 3 3 0 0 0-1.345.916q-.566.64-.804 1.669l-1.722 7.46zm18.38 3.907 2.91-12.605 2.183.464-2.91 12.605zm3.374-14.616.648-2.806 2.183.464-.648 2.806zm2.549 15.875 2.91-12.605 2.136.454-.567 2.456-.303-.286q.744-1.093 1.928-1.528 1.214-.454 2.622-.154 1.362.29 2.278 1.122a4.37 4.37 0 0 1 1.301 2.043q.386 1.21.072 2.567l-1.884 8.161-2.206-.469 1.722-7.46q.242-1.052.035-1.857a2.7 2.7 0 0 0-.821-1.352q-.584-.566-1.476-.755a3.14 3.14 0 0 0-1.693.082 3 3 0 0 0-1.345.916q-.565.64-.804 1.669l-1.722 7.46zm19.078 4.202q-1.854-.394-2.621-1.661-.743-1.262-.3-3.179l1.533-6.642-2.3-.489.48-2.081.47.1q.845.18 1.456-.23.612-.41.807-1.252l.237-1.029 2.183.464-.669 2.9 2.84.604-.48 2.081-2.841-.604-1.517 6.571q-.146.632-.066 1.139.104.513.508.893.411.357 1.185.522.165.035.405.062.263.031.48.053l-.443 1.917a4 4 0 0 1-.702-.051 5 5 0 0 1-.645-.088m9.965 2.265q-1.831-.389-3.064-1.559a6.17 6.17 0 0 1-1.708-2.84q-.471-1.695-.039-3.566.438-1.894 1.576-3.198a6.5 6.5 0 0 1 2.741-1.846q1.608-.566 3.345-.196 1.409.299 2.37 1.043a5.2 5.2 0 0 1 1.541 1.751q.58 1.007.726 2.19a6.2 6.2 0 0 1-.096 2.335 4 4 0 0 1-.182.574q-.093.3-.205.57l-10.376-2.205.432-1.871 9.108 1.936-1.227.622q.492-1.171.267-2.225a3.55 3.55 0 0 0-.963-1.799q-.74-.746-1.843-.98a3.9 3.9 0 0 0-2.148.132q-1.045.366-1.805 1.309-.73.924-.966 2.37-.412 1.36-.139 2.522a4.05 4.05 0 0 0 1.13 1.933q.857.771 2.007 1.016 1.267.269 2.271-.131a4.9 4.9 0 0 0 1.754-1.197l1.615 1.324q-.575.786-1.54 1.341a6.2 6.2 0 0 1-2.114.728q-1.154.197-2.468-.083m9.015 1.622 2.91-12.604 2.136.454-.535 2.315-.159-.378q.694-.98 1.729-1.3 1.04-.343 2.354-.064l.775.165-.475 2.057-1.103-.234q-1.339-.285-2.355.383-1.01.643-1.361 2.164l-1.733 7.506zm12.08 2.568-2.043-13.657 2.441.519 1.506 11.506-.845-.179 6.453-9.816 2.441.519-7.887 11.547zm9.348 1.987 2.91-12.605 2.184.464-2.91 12.605zm3.375-14.616.648-2.806 2.183.464-.648 2.806zm8.306 17.393q-1.831-.39-3.064-1.559a6.2 6.2 0 0 1-1.708-2.841q-.471-1.695-.039-3.565.438-1.894 1.576-3.198a6.5 6.5 0 0 1 2.741-1.846q1.608-.566 3.345-.197 1.409.3 2.37 1.044a5.2 5.2 0 0 1 1.541 1.75q.58 1.006.726 2.191a6.2 6.2 0 0 1-.096 2.334q-.059.258-.182.575a7 7 0 0 1-.205.57l-10.376-2.206.432-1.871 9.108 1.937-1.227.622q.492-1.171.267-2.225a3.56 3.56 0 0 0-.963-1.799q-.74-.746-1.843-.981a3.9 3.9 0 0 0-2.148.132q-1.046.367-1.805 1.31-.73.924-.966 2.37-.412 1.36-.139 2.522a4.05 4.05 0 0 0 1.13 1.933q.857.77 2.007 1.015 1.267.27 2.271-.13a4.85 4.85 0 0 0 1.754-1.198l1.615 1.325q-.575.786-1.541 1.341-.937.536-2.113.728-1.154.196-2.468-.083m11.926 2.241-1.433-13.528 2.418.514 1.016 11.28-.84-.203 5.81-9.805 2.066.439.951 11.242-.851-.156 5.909-9.808 2.395.509-7.253 11.681-2.089-.444-.904-11.232.657.14-5.763 9.815zm16.788 3.568.648-2.806 2.277.484-.648 2.806z"/></g><defs><linearGradient id="b" x1="13.685" x2="218.588" y1="274.636" y2="152.87" gradientUnits="userSpaceOnUse"><stop stop-color="#32FF92"/><stop offset="1" stop-color="#0362A6"/></linearGradient><linearGradient id="e" x1=".221" x2="289.52" y1="340.006" y2="344.625" gradientUnits="userSpaceOnUse"><stop stop-color="#0362A6"/><stop offset="1" stop-color="#32FF92"/></linearGradient><linearGradient id="g" x1="457.413" x2="662.316" y1="445.99" y2="324.224" gradientUnits="userSpaceOnUse"><stop stop-color="#32FF92"/><stop offset="1" stop-color="#0362A6"/></linearGradient><linearGradient id="i" x1="-13.332" x2="705.125" y1="280.696" y2="367.739" gradientUnits="userSpaceOnUse"><stop stop-color="#0A7FD2"/><stop offset=".619" stop-color="#32FF92"/><stop offset="1" stop-color="#FCFF32"/></linearGradient><filter id="a" width="604.623" height="447.107" x="0" y="0" color-interpolation-filters="sRGB" filterUnits="userSpaceOnUse"><feFlood flood-opacity="0" result="BackgroundImageFix"/><feColorMatrix in="SourceAlpha" result="hardAlpha" values="0 0 0 0 0 0 0 0 0 0 0 0 0 0 0 0 0 0 127 0"/><feOffset dx="4" dy="8"/><feGaussianBlur stdDeviation="4"/><feComposite in2="hardAlpha" operator="out"/><feColorMatrix values="0 0 0 0 0 0 0 0 0 0 0 0 0 0 0 0 0 0 0.25 0"/><feBlend in2="BackgroundImageFix" result="effect1_dropShadow_2313_481"/><feBlend in="SourceGraphic" in2="effect1_dropShadow_2313_481" result="shape"/></filter><filter id="d" width="555.552" height="145.385" x="-5.476" y="290.792" color-interpolation-filters="sRGB" filterUnits="userSpaceOnUse"><feFlood flood-opacity="0" result="BackgroundImageFix"/><feBlend in="SourceGraphic" in2="BackgroundImageFix" result="shape"/><feTurbulence baseFrequency="1 1" numOctaves="3" result="noise" seed="1706" stitchTiles="stitch" type="fractalNoise"/><feColorMatrix in="noise" result="alphaNoise" type="luminanceToAlpha"/><feComponentTransfer in="alphaNoise" result="coloredNoise1"><feFuncA tableValues="1 1 1 1 1 1 1 1 1 1 1 1 1 1 1 1 1 1 1 1 1 1 1 1 1 1 1 1 1 1 1 1 1 1 1 1 1 1 1 1 1 1 1 1 1 1 1 1 1 1 1 0 0 0 0 0 0 0 0 0 0 0 0 0 0 0 0 0 0 0 0 0 0 0 0 0 0 0 0 0 0 0 0 0 0 0 0 0 0 0 0 0 0 0 0 0 0 0 0 0" type="discrete"/></feComponentTransfer><feComposite in="coloredNoise1" in2="shape" operator="in" result="noise1Clipped"/><feFlood flood-color="rgba(0, 0, 0, 0.05)" result="color1Flood"/><feComposite in="color1Flood" in2="noise1Clipped" operator="in" result="color1"/><feMerge result="effect1_noise_2313_481"><feMergeNode in="shape"/><feMergeNode in="color1"/></feMerge></filter><filter id="f" width="58.987" height="270.887" x="533.632" y="164.755" color-interpolation-filters="sRGB" filterUnits="userSpaceOnUse"><feFlood flood-opacity="0" result="BackgroundImageFix"/><feBlend in="SourceGraphic" in2="BackgroundImageFix" result="shape"/><feTurbulence baseFrequency="1 1" numOctaves="3" result="noise" seed="1706" stitchTiles="stitch" type="fractalNoise"/><feColorMatrix in="noise" result="alphaNoise" type="luminanceToAlpha"/><feComponentTransfer in="alphaNoise" result="coloredNoise1"><feFuncA tableValues="1 1 1 1 1 1 1 1 1 1 1 1 1 1 1 1 1 1 1 1 1 1 1 1 1 1 1 1 1 1 1 1 1 1 1 1 1 1 1 1 1 1 1 1 1 1 1 1 1 1 1 0 0 0 0 0 0 0 0 0 0 0 0 0 0 0 0 0 0 0 0 0 0 0 0 0 0 0 0 0 0 0 0 0 0 0 0 0 0 0 0 0 0 0 0 0 0 0 0 0" type="discrete"/></feComponentTransfer><feComposite in="coloredNoise1" in2="shape" operator="in" result="noise1Clipped"/><feFlood flood-color="rgba(0, 0, 0, 0.05)" result="color1Flood"/><feComposite in="color1Flood" in2="noise1Clipped" operator="in" result="color1"/><feMerge result="effect1_noise_2313_481"><feMergeNode in="shape"/><feMergeNode in="color1"/></feMerge></filter><filter id="h" width="588.623" height="419.122" x="4" y="0" color-interpolation-filters="sRGB" filterUnits="userSpaceOnUse"><feFlood flood-opacity="0" result="BackgroundImageFix"/><feBlend in="SourceGraphic" in2="BackgroundImageFix" result="shape"/><feTurbulence baseFrequency="1 1" numOctaves="3" result="noise" seed="1706" stitchTiles="stitch" type="fractalNoise"/><feColorMatrix in="noise" result="alphaNoise" type="luminanceToAlpha"/><feComponentTransfer in="alphaNoise" result="coloredNoise1"><feFuncA tableValues="1 1 1 1 1 1 1 1 1 1 1 1 1 1 1 1 1 1 1 1 1 1 1 1 1 1 1 1 1 1 1 1 1 1 1 1 1 1 1 1 1 1 1 1 1 1 1 1 1 1 1 0 0 0 0 0 0 0 0 0 0 0 0 0 0 0 0 0 0 0 0 0 0 0 0 0 0 0 0 0 0 0 0 0 0 0 0 0 0 0 0 0 0 0 0 0 0 0 0 0" type="discrete"/></feComponentTransfer><feComposite in="coloredNoise1" in2="shape" operator="in" result="noise1Clipped"/><feFlood flood-color="rgba(0, 0, 0, 0.05)" result="color1Flood"/><feComposite in="color1Flood" in2="noise1Clipped" operator="in" result="color1"/><feMerge result="effect1_noise_2313_481"><feMergeNode in="shape"/><feMergeNode in="color1"/></feMerge></filter></defs></svg>