<svg xmlns="http://www.w3.org/2000/svg" width="605" height="448" fill="none"><g filter="url(#a)"><path fill="url(#b)" d="M132.504 127.211 102.639 91.32l8.194-52.955 38.407-22.41-.361 35.15z"/><mask id="c" width="589" height="245" x="4" y="187" maskUnits="userSpaceOnUse" style="mask-type:alpha"><path fill="#fff" d="M539.805 419.116 4 300.178l21.688 16.216 519.214 114.713zm5.097 11.991-5.097-11.991 52.815-231.698v37.296z"/></mask><g mask="url(#c)"><g filter="url(#d)"><path fill="url(#e)" d="M547.011 411.537-5.476 290.792l21.084 28.194 534.468 117.191z"/></g><g filter="url(#f)"><path fill="url(#g)" d="m546.767 435.642-13.135-30.817 58.988-240.07v59.959z"/></g></g><g filter="url(#h)"><path fill="url(#i)" d="m592.623 187.426-460.12-97.385 16.738-74.09L73.604 0l-17.04 73.945L4 300.19l535.808 118.932z"/></g><path fill="#024D81" d="M91.136 55.057q.616-2.187 1.638-3.736 1.059-1.542 2.932-2.615 1.908-1.067 2.926-1.476 1.06-.437 3.615-1.256.086-.054.121-.047a.4.4 0 0 1 .122-.048.4.4 0 0 0 .122-.048l.157-.04q3.154-1.022 4.584-1.933 1.437-.945 1.899-2.945.51-2.21-.618-3.884-1.093-1.668-3.487-2.177-2.43-.516-4.187.693-1.713 1.181-2.482 4.513l-3.1-.658q.981-4.245 3.796-6.038 2.806-1.76 6.786-.913 3.627.771 5.368 3.312 1.74 2.541.995 5.768a7.3 7.3 0 0 1-.938 2.303q-.638 1.005-1.214 1.582-.577.577-1.906 1.214-1.321.603-1.958.798-.6.204-2.388.744-.357.108-.557.176a76 76 0 0 0-3.198 1.05q-1.254.47-2.743 1.477-1.48.974-2.08 2.134l13.169 2.8-.648 2.805z"/><path fill="#FAFAFA" d="m80.112 151.239 14.558-23.216 5.282 1.122 3.084 26.967-5.317-1.13-.46-5.691-9.085-1.932-2.886 4.98zm14.08-14.266-3.922 6.747 6.656 1.415-.586-7.705-.13-4.076-.07-.014q-1.217 2.39-1.948 3.633m12.583 4.368.729-3.157 2.5.531 1.296-5.612 4.683.995-1.296 5.613 3.099.658-.729 3.157-3.099-.658-2.202 9.541q-.414 1.788 1.383 2.17l1.416.265-.81 3.507a50 50 0 0 1-3.009-.566q-2.077-.44-3.259-1.723-1.174-1.316-.639-3.632l2.437-10.558zm12.052 2.562.729-3.157 2.5.531 1.296-5.612 4.683.995-1.295 5.612 3.098.659-.728 3.157-3.099-.659-2.203 9.541q-.413 1.79 1.383 2.171l1.417.264-.81 3.508a50 50 0 0 1-3.01-.566q-2.077-.441-3.259-1.723-1.173-1.316-.639-3.632l2.437-10.558zm18.22 19.99q-4.366-.929-6.251-4.125-1.876-3.232-.913-7.407.932-4.034 4.055-6.203 3.132-2.205 7.041-1.374 4.26.905 5.904 4.346t.502 8.386l-13.099-2.784q-.212 2.2.674 3.639.895 1.405 2.902 1.832 2.641.56 3.997-1.469l4.718 1.003q-1.112 2.413-3.648 3.64t-5.882.516m3.152-15.411q-3.486-.741-5.081 2.968l8.028 1.706q.291-1.74-.522-3.018-.805-1.311-2.425-1.656m17.18.303-.567 2.455.105.023q2.547-2.55 6.033-1.809 2.782.591 4.07 2.852 1.296 2.226.608 5.208l-2.713 11.751-4.789-1.018 2.551-11.05q.34-1.473-.295-2.565-.599-1.084-2.078-1.398-1.585-.337-2.908.596-1.289.94-1.71 2.765l-2.356 10.207-4.789-1.018 4.154-17.995zm17.832 23.22q-3.416-.726-4.938-3.736-1.514-3.044-.509-7.394.972-4.209 3.727-6.384 2.8-2.202 6.179-1.483 3.381.718 4.491 3.751l.105.023 2.138-9.261 4.789 1.018-5.79 25.08-4.613-.98.543-2.35-.071-.015q-2.424 2.502-6.051 1.731m1.979-3.774q2.113.449 3.537-.757 1.458-1.199 2.042-3.725 1.328-5.752-2.863-6.643-1.937-.411-3.314.915t-1.969 3.887q-.607 2.631.047 4.278.689 1.656 2.52 2.045m30.023 10.024q-.246-.53-.102-2.119l-.07-.015a5.6 5.6 0 0 1-2.385 1.37q-1.343.377-3.491-.08-2.852-.606-4.246-2.411t-.786-4.436q.632-2.736 2.825-3.594 2.2-.894 5.765-.651 2.617.188 3.613.032 1.005-.191 1.224-1.139.226-.982-.419-1.708-.636-.761-2.116-1.075-3.274-.696-4.069 1.784l-4.261-.905q.697-2.538 3.058-3.803 2.36-1.264 6.093-.471 7.606 1.617 6.076 8.246l-2.114 9.155q-.47 2.035.059 2.626l-.041.175zm-4.117-3.929q1.972.419 3.334-.359 1.397-.77 1.721-2.173l.623-2.701q-.879.291-3.588.341-2.148.022-3.13.439-.975.381-1.25 1.574-.527 2.28 2.29 2.879m20.683-11.427-.567 2.455.106.023q2.546-2.55 6.032-1.809 2.783.591 4.07 2.852 1.297 2.226.608 5.208l-2.713 11.75-4.789-1.017 2.551-11.05q.34-1.473-.294-2.565-.6-1.085-2.078-1.398-1.585-.337-2.909.596-1.288.94-1.709 2.764l-2.357 10.208-4.789-1.018 4.155-17.995z"/><path fill="#FCFF32" d="m242.013 185.652 5.79-25.08 5.106 1.085-5.79 25.081zm18.164-15.017-.567 2.456.105.022q2.547-2.55 6.033-1.809 2.782.592 4.07 2.853 1.296 2.225.608 5.207l-2.713 11.751-4.789-1.018 2.551-11.049q.34-1.473-.294-2.565-.6-1.084-2.079-1.399-1.585-.337-2.908.596-1.288.94-1.71 2.765l-2.356 10.208-4.789-1.018 4.154-17.995zm13.217 6.122.729-3.157 2.5.531 1.296-5.612 4.684.995-1.296 5.613 3.099.658-.729 3.157-3.099-.658-2.203 9.541q-.413 1.788 1.383 2.17l1.417.265-.81 3.507q-1.108-.16-3.009-.566-2.078-.44-3.26-1.723-1.173-1.316-.639-3.632l2.438-10.558zm18.221 19.99q-4.366-.927-6.252-4.125-1.876-3.233-.913-7.407.932-4.034 4.055-6.203 3.132-2.205 7.041-1.374 4.261.906 5.905 4.346 1.643 3.44.502 8.387l-13.1-2.785q-.212 2.2.675 3.64.894 1.404 2.902 1.831 2.64.56 3.996-1.469l4.718 1.003q-1.11 2.413-3.648 3.64-2.536 1.227-5.881.516m3.151-15.411q-3.486-.74-5.081 2.968l8.029 1.707q.291-1.742-.523-3.018-.805-1.312-2.425-1.657m17.109.288-.664 2.877.106.022q1.209-1.399 2.401-1.918 1.198-.555 2.748-.226.74.158 1.095.38l-.964 4.174-.106-.022q-2.372-.762-4.151.221-1.779.984-2.418 3.755l-2.025 8.769-4.789-1.018 4.154-17.994zm9.415 20.879-2.113-19.327 4.859 1.033.734 9.944.145 3.049.071.015q.513-1.105 1.439-2.712l5.112-8.702 4.789 1.018-10.458 16.655zm13.213 2.809 4.154-17.995 4.789 1.018-4.154 17.995zm4.802-20.801.988-4.28 4.789 1.018-.988 4.28zm12.142 24.954q-4.367-.929-6.251-4.125-1.877-3.232-.913-7.407.931-4.034 4.055-6.203 3.132-2.205 7.04-1.374 4.261.905 5.905 4.346t.502 8.387l-13.099-2.785q-.213 2.2.674 3.639.895 1.405 2.902 1.832 2.642.56 3.996-1.469l4.719 1.003q-1.111 2.413-3.648 3.64t-5.882.516m3.151-15.411q-3.486-.741-5.081 2.968l8.029 1.706q.291-1.74-.522-3.018-.806-1.311-2.426-1.656m11.872 18.052-1.128-19.117 4.754 1.01.256 8.813.032 3.54.071.014a62 62 0 0 1 1.56-3.237l4.173-7.835 4.085.869.44 8.814.059 3.583.071.015a97 97 0 0 1 1.587-3.196l4.216-7.862 4.649.988-9.543 16.85-4.366-.928-.354-9.349-.089-3.294-.07-.015q-.848 1.587-1.566 2.943l-4.506 8.315z"/><path fill="#FAFAFA" d="m70.83 198.821 4.022-17.422 2.113.449 4.406 10.676-1.08-.229 8.647-7.902 2.112.449-4.022 17.422-2.324-.494 3.353-14.522.762.432-8.608 7.738-.188-.04-4.327-10.487.788-.103-3.353 14.522zm25.934 5.807q-1.83-.39-3.063-1.559a6.2 6.2 0 0 1-1.709-2.841q-.471-1.695-.039-3.565.438-1.895 1.576-3.198a6.5 6.5 0 0 1 2.741-1.846q1.608-.566 3.346-.197 1.408.3 2.369 1.044a5.2 5.2 0 0 1 1.542 1.75q.58 1.006.725 2.191a6.2 6.2 0 0 1-.095 2.334q-.06.257-.182.575a7 7 0 0 1-.206.57l-10.376-2.206.432-1.871 9.109 1.936-1.228.623q.492-1.172.268-2.225a3.55 3.55 0 0 0-.964-1.799q-.74-.747-1.843-.981a3.9 3.9 0 0 0-2.148.132q-1.045.367-1.805 1.309-.73.924-.965 2.371-.413 1.36-.14 2.522a4.05 4.05 0 0 0 1.13 1.933q.857.77 2.007 1.015 1.267.27 2.272-.13a4.85 4.85 0 0 0 1.754-1.198l1.615 1.325q-.576.785-1.541 1.341a6.3 6.3 0 0 1-2.114.728q-1.154.196-2.468-.083m14.772 3.14q-1.832-.39-3.063-1.559a6.2 6.2 0 0 1-1.709-2.841q-.47-1.695-.039-3.565.438-1.894 1.576-3.198a6.5 6.5 0 0 1 2.741-1.846q1.608-.567 3.346-.197 1.409.3 2.369 1.043a5.24 5.24 0 0 1 1.542 1.751q.58 1.006.726 2.19a6.2 6.2 0 0 1-.096 2.335q-.06.257-.182.575a7 7 0 0 1-.206.57l-10.376-2.206.432-1.871 9.109 1.936-1.228.623q.493-1.172.268-2.225a3.56 3.56 0 0 0-.964-1.8q-.74-.746-1.842-.98a3.9 3.9 0 0 0-2.149.132q-1.045.367-1.804 1.309-.73.925-.966 2.371-.413 1.36-.139 2.522a4.04 4.04 0 0 0 1.13 1.933q.857.77 2.006 1.015 1.269.27 2.272-.131a4.84 4.84 0 0 0 1.754-1.197l1.615 1.325q-.575.785-1.541 1.34a6.2 6.2 0 0 1-2.114.729q-1.154.196-2.468-.083m14.124 2.855q-1.855-.395-2.621-1.661-.744-1.263-.301-3.18l1.534-6.641-2.301-.489.481-2.082.469.1q.845.18 1.457-.23t.806-1.251l.238-1.029 2.183.464-.67 2.9 2.841.603-.481 2.082-2.84-.604-1.517 6.571q-.145.632-.066 1.139.103.513.508.893.41.357 1.185.522.164.034.404.061.264.032.481.053l-.443 1.918a4.5 4.5 0 0 1-.703-.051 6 6 0 0 1-.644-.088m14.906 3.315q-1.832-.388-3.116-1.545a6.4 6.4 0 0 1-1.802-2.861q-.524-1.682-.086-3.576.437-1.893 1.623-3.187a6.8 6.8 0 0 1 2.887-1.84q1.679-.55 3.533-.157 1.832.39 3.111 1.569a6.1 6.1 0 0 1 1.789 2.809q.528 1.658.086 3.576-.442 1.917-1.68 3.224a7 7 0 0 1-2.911 1.835q-1.65.532-3.434.153m.486-2.104a4.04 4.04 0 0 0 2.247-.136 4.25 4.25 0 0 0 1.875-1.294q.8-.909 1.093-2.172.297-1.287-.04-2.388a4.1 4.1 0 0 0-1.135-1.91 3.83 3.83 0 0 0-1.973-1.057 4.1 4.1 0 0 0-2.3.149 4.54 4.54 0 0 0-1.869 1.271q-.79.862-1.087 2.148-.292 1.263.034 2.412t1.13 1.933q.827.789 2.025 1.044m13.7 5.12q-1.362-.29-2.319-1.156a4.45 4.45 0 0 1-1.286-2.113q-.322-1.27.018-2.744l1.82-7.881 2.183.465-1.766 7.646q-.216.936-.002 1.717.237.786.826 1.329.613.547 1.505.737t1.664-.064q.796-.247 1.345-.916.572-.663.809-1.692l1.722-7.46 2.207.469-2.91 12.604-2.136-.454.567-2.455.303.285a3.86 3.86 0 0 1-1.957 1.547q-1.208.43-2.593.136m9.551 1.735 2.91-12.604 2.136.454-.535 2.315-.159-.377q.694-.981 1.729-1.301 1.04-.343 2.354-.064l.775.165-.475 2.058-1.103-.235q-1.339-.285-2.355.383-1.01.643-1.361 2.164l-1.733 7.506zm11.889 7.434 3.99-17.282 2.136.455-.626 2.712-.158-.598a5.3 5.3 0 0 1 2.336-1.368q1.377-.418 2.95-.084 1.784.379 2.993 1.544a6.2 6.2 0 0 1 1.708 2.841q.482 1.647.044 3.542-.426 1.847-1.593 3.169a6.5 6.5 0 0 1-2.799 1.883q-1.608.566-3.416.182-1.525-.325-2.637-1.272a4.74 4.74 0 0 1-1.482-2.327l.438-.299-1.701 7.366zm7.886-5.144q1.198.254 2.272-.13a4.2 4.2 0 0 0 1.822-1.281q.778-.915 1.069-2.177.303-1.31-.011-2.407a3.97 3.97 0 0 0-1.088-1.899q-.798-.809-1.996-1.062a4.2 4.2 0 0 0-2.295.125 4.5 4.5 0 0 0-1.874 1.294q-.773.891-1.07 2.177-.29 1.263.011 2.407.332 1.125 1.136 1.909.827.79 2.024 1.044m9.25 3.88 4.087-17.703 2.183.464-4.087 17.703zm9.567 2.328q-1.244-.265-2.104-.914-.831-.667-1.187-1.577-.351-.933-.108-1.985.232-1.006.838-1.711.635-.724 1.68-1.09 1.069-.362 2.531-.297l4.874.227-.422 1.824-4.364-.192q-1.269-.05-1.962.393-.669.446-.858 1.265-.179.771.313 1.415.515.65 1.454.849 1.197.255 2.179-.052a3.85 3.85 0 0 0 1.704-1.085 3.83 3.83 0 0 0 .959-1.808l.74-3.204q.237-1.029-.392-1.825-.6-.814-1.844-1.079a3.5 3.5 0 0 0-2.055.153 3.4 3.4 0 0 0-1.555 1.19l-1.675-1.386a4.3 4.3 0 0 1 1.483-1.304 6 6 0 0 1 2.062-.715q1.125-.178 2.251.061 1.456.31 2.43 1.106.979.772 1.362 1.884.413 1.094.116 2.379l-1.976 8.559-2.136-.454.55-2.385.367.225a4.6 4.6 0 0 1-1.382 1.08 5.5 5.5 0 0 1-1.802.549 6 6 0 0 1-2.071-.096m16.015 3.404q-1.854-.395-3.11-1.569a6.17 6.17 0 0 1-1.708-2.841q-.477-1.671-.045-3.542.438-1.894 1.599-3.193a6.55 6.55 0 0 1 2.794-1.859q1.655-.557 3.51-.162a6.1 6.1 0 0 1 2.221.938q.978.675 1.626 1.597a4.5 4.5 0 0 1 .793 2.009l-2.165.521a3.7 3.7 0 0 0-.994-1.88q-.77-.826-1.967-1.08a4 4 0 0 0-2.224.14 4.4 4.4 0 0 0-1.823 1.281q-.772.89-1.074 2.2-.292 1.263.01 2.407.308 1.12 1.089 1.899a3.9 3.9 0 0 0 1.954 1.029q1.197.255 2.253-.159a4 4 0 0 0 1.745-1.371l1.722 1.397a4.94 4.94 0 0 1-1.602 1.499 6.7 6.7 0 0 1-2.177.788 6.2 6.2 0 0 1-2.427-.049m14.45 3.071q-1.83-.389-3.063-1.559a6.16 6.16 0 0 1-1.708-2.84q-.471-1.695-.039-3.566.437-1.894 1.575-3.198a6.5 6.5 0 0 1 2.742-1.846q1.608-.566 3.345-.196 1.409.299 2.37 1.043a5.2 5.2 0 0 1 1.541 1.751q.58 1.006.726 2.19a6.2 6.2 0 0 1-.096 2.335q-.06.257-.182.574-.094.3-.205.57l-10.376-2.205.431-1.871 9.109 1.936-1.227.622q.492-1.171.267-2.225a3.55 3.55 0 0 0-.964-1.799q-.738-.746-1.842-.98a3.9 3.9 0 0 0-2.149.132q-1.044.367-1.804 1.309-.73.924-.966 2.37-.412 1.36-.139 2.522a4.04 4.04 0 0 0 1.13 1.933q.856.771 2.007 1.016 1.268.269 2.271-.131a4.9 4.9 0 0 0 1.754-1.197l1.615 1.324q-.575.786-1.541 1.341a6.2 6.2 0 0 1-2.113.728q-1.154.197-2.469-.083m9.015 1.622 2.91-12.604 2.137.454-.594 2.572-.214-.462q.745-1.093 1.924-1.505t2.47-.137q1.479.314 2.463 1.382a4.14 4.14 0 0 1 1.147 2.501l-.616-.107q.834-1.368 2.18-1.867a4.8 4.8 0 0 1 2.784-.218q1.314.28 2.231 1.112a4.54 4.54 0 0 1 1.325 2.048q.386 1.21.072 2.567l-1.884 8.161-2.207-.469 1.722-7.46q.243-1.051.035-1.857a2.77 2.77 0 0 0-.774-1.342q-.537-.555-1.405-.74a2.93 2.93 0 0 0-1.623.097q-.75.257-1.321.921-.543.645-.781 1.674l-1.722 7.46-2.207-.469 1.723-7.46q.243-1.053.034-1.857a2.75 2.75 0 0 0-.773-1.342q-.537-.556-1.406-.741a2.95 2.95 0 0 0-1.623.097q-.748.258-1.321.921-.543.645-.78 1.674l-1.722 7.46zm27.545 6.149q-1.831-.389-3.064-1.559a6.2 6.2 0 0 1-1.708-2.841q-.471-1.694-.039-3.565.438-1.894 1.576-3.198a6.5 6.5 0 0 1 2.741-1.846q1.608-.566 3.346-.196 1.408.299 2.369 1.043a5.2 5.2 0 0 1 1.542 1.751q.58 1.007.725 2.19a6.2 6.2 0 0 1-.095 2.335q-.06.257-.182.574-.094.3-.206.57l-10.376-2.206.432-1.87 9.108 1.936-1.227.622q.492-1.171.268-2.225a3.56 3.56 0 0 0-.964-1.799q-.74-.746-1.843-.98a3.9 3.9 0 0 0-2.148.132q-1.045.366-1.805 1.309-.73.924-.966 2.37-.412 1.36-.138 2.522a4.04 4.04 0 0 0 1.129 1.933q.856.77 2.007 1.015 1.267.27 2.271-.13a4.9 4.9 0 0 0 1.754-1.197l1.616 1.324q-.576.786-1.541 1.341a6.2 6.2 0 0 1-2.114.728q-1.154.196-2.468-.083m9.015 1.622 2.91-12.604 2.136.454-.567 2.455-.303-.285q.744-1.093 1.929-1.528 1.212-.454 2.621-.155 1.362.29 2.278 1.122a4.4 4.4 0 0 1 1.301 2.043q.385 1.21.073 2.567l-1.885 8.161-2.206-.469 1.722-7.459q.243-1.053.035-1.857a2.67 2.67 0 0 0-.821-1.352q-.583-.566-1.476-.756a3.15 3.15 0 0 0-1.693.082 3 3 0 0 0-1.345.916q-.566.64-.804 1.669l-1.722 7.46zm19.078 4.202q-1.854-.393-2.621-1.661-.743-1.262-.3-3.179l1.533-6.641-2.3-.489.48-2.082.47.1q.845.18 1.457-.23.61-.41.806-1.251l.237-1.029 2.183.464-.669 2.899 2.841.604-.481 2.081-2.841-.603-1.517 6.571q-.146.631-.066 1.139.104.513.508.893.411.357 1.185.522.165.034.405.061.264.032.48.053l-.443 1.918a4.4 4.4 0 0 1-.702-.052 5 5 0 0 1-.645-.088m14.07 2.991q-1.854-.394-2.621-1.661-.743-1.262-.3-3.179l1.533-6.642-2.301-.489.481-2.081.469.1q.846.18 1.457-.23t.806-1.252l.238-1.029 2.183.464-.669 2.9 2.84.604-.48 2.081-2.841-.604-1.517 6.571q-.146.632-.066 1.139.103.513.508.893.411.358 1.185.522.164.035.405.062.262.031.48.053l-.443 1.917a4 4 0 0 1-.702-.051 5 5 0 0 1-.645-.088m9.964 2.265q-1.83-.389-3.063-1.559a6.17 6.17 0 0 1-1.708-2.84q-.471-1.695-.039-3.566.437-1.895 1.576-3.198a6.5 6.5 0 0 1 2.741-1.846q1.608-.565 3.345-.196 1.409.299 2.37 1.043a5.2 5.2 0 0 1 1.541 1.751q.58 1.006.726 2.19a6.2 6.2 0 0 1-.096 2.335 4 4 0 0 1-.182.574q-.094.3-.205.57l-10.376-2.205.432-1.871 9.108 1.936-1.227.622q.492-1.171.267-2.225a3.55 3.55 0 0 0-.964-1.799q-.738-.746-1.842-.98a3.9 3.9 0 0 0-2.148.132q-1.046.367-1.805 1.309-.73.924-.966 2.37-.412 1.36-.139 2.522a4.04 4.04 0 0 0 1.13 1.933q.856.771 2.007 1.016 1.267.269 2.271-.131a4.9 4.9 0 0 0 1.754-1.197l1.615 1.324q-.575.786-1.541 1.341a6.2 6.2 0 0 1-2.113.728q-1.154.197-2.469-.083m12.499 2.657q-1.244-.264-2.104-.913-.831-.668-1.187-1.578-.351-.933-.108-1.985.232-1.005.838-1.711.635-.724 1.68-1.09 1.069-.362 2.531-.296l4.874.226-.422 1.824-4.364-.192q-1.269-.048-1.962.393-.669.446-.858 1.265-.179.771.313 1.416.515.648 1.454.848 1.197.255 2.179-.051a3.86 3.86 0 0 0 1.704-1.086 3.83 3.83 0 0 0 .959-1.808l.74-3.203q.238-1.03-.392-1.825-.6-.815-1.844-1.079a3.5 3.5 0 0 0-2.055.152 3.4 3.4 0 0 0-1.555 1.19l-1.675-1.386a4.3 4.3 0 0 1 1.483-1.304 6 6 0 0 1 2.062-.715q1.125-.178 2.251.062 1.456.309 2.43 1.105.979.773 1.362 1.884.413 1.093.116 2.38l-1.976 8.559-2.136-.454.55-2.386.367.225a4.5 4.5 0 0 1-1.382 1.08 5.5 5.5 0 0 1-1.802.55 6 6 0 0 1-2.071-.097m10.211 1.876 2.91-12.604 2.136.454-.593 2.572-.214-.462q.745-1.094 1.924-1.505 1.178-.412 2.47-.138 1.478.315 2.463 1.383 1.009 1.073 1.147 2.501l-.616-.107q.833-1.369 2.18-1.867a4.8 4.8 0 0 1 2.784-.218q1.315.28 2.23 1.112a4.53 4.53 0 0 1 1.325 2.048q.385 1.21.073 2.567l-1.884 8.161-2.207-.469 1.722-7.46q.243-1.051.035-1.857a2.77 2.77 0 0 0-.774-1.342q-.537-.555-1.405-.74a2.94 2.94 0 0 0-1.623.096q-.75.258-1.321.922-.543.645-.781 1.674l-1.722 7.46-2.207-.469 1.722-7.46q.243-1.053.035-1.857a2.76 2.76 0 0 0-.774-1.342q-.536-.556-1.405-.741a2.95 2.95 0 0 0-1.623.097q-.749.258-1.321.921-.543.645-.78 1.674l-1.723 7.46zm31.306 6.801q-1.854-.393-2.621-1.661-.743-1.262-.3-3.179l1.533-6.641-2.301-.489.481-2.082.469.1q.846.18 1.457-.23t.806-1.251l.238-1.029 2.183.464-.669 2.899 2.84.604-.48 2.081-2.841-.603-1.517 6.571q-.146.631-.066 1.139.103.512.508.893.411.357 1.185.522.164.034.405.061.262.032.48.053l-.443 1.918a4.4 4.4 0 0 1-.702-.052 5 5 0 0 1-.645-.088m10.152 2.306q-1.83-.39-3.115-1.546a6.4 6.4 0 0 1-1.803-2.861q-.523-1.681-.085-3.575.437-1.895 1.622-3.188a6.8 6.8 0 0 1 2.888-1.839q1.678-.552 3.533-.157 1.831.388 3.11 1.569a6.1 6.1 0 0 1 1.79 2.809q.528 1.658.085 3.575-.442 1.918-1.68 3.225a7 7 0 0 1-2.911 1.834q-1.65.532-3.434.154m.486-2.105a4.05 4.05 0 0 0 2.248-.136 4.24 4.24 0 0 0 1.875-1.294 4.9 4.9 0 0 0 1.092-2.172q.297-1.286-.039-2.388a4.1 4.1 0 0 0-1.136-1.909q-.798-.808-1.972-1.057a4.1 4.1 0 0 0-2.3.148 4.56 4.56 0 0 0-1.87 1.271q-.79.862-1.087 2.149-.291 1.263.034 2.411.327 1.149 1.13 1.933.828.789 2.025 1.044m-317.64-32.599q-1.785-.38-3.017-1.549a6.2 6.2 0 0 1-1.685-2.836q-.476-1.671-.05-3.518.438-1.894 1.6-3.193a6.56 6.56 0 0 1 2.775-1.888q1.631-.56 3.416-.182 1.572.335 2.637 1.272a5 5 0 0 1 1.514 2.187l-.476.463 1.803-7.811 2.207.469-4.087 17.703-2.136-.454.62-2.69.196.434a4.8 4.8 0 0 1-2.368 1.509q-1.4.414-2.95.084m.673-2.065q1.197.255 2.271-.13a4.36 4.36 0 0 0 1.846-1.276q.8-.909 1.093-2.172.297-1.286-.035-2.411a4.1 4.1 0 0 0-1.106-1.928q-.804-.784-2.001-1.039a4.05 4.05 0 0 0-2.277.154 4.36 4.36 0 0 0-1.846 1.276q-.767.867-1.069 2.177-.29 1.263.01 2.406a4.14 4.14 0 0 0 1.113 1.905q.804.784 2.001 1.038m9.696 3.975 2.91-12.605 2.183.464-2.91 12.605zm3.374-14.616.648-2.806 2.183.464-.648 2.806zm7.014 17.118q-1.901-.403-3.094-1.639a5.06 5.06 0 0 1-1.412-2.949l1.932-.473q.28 1.237 1.068 2.092a3.6 3.6 0 0 0 1.938 1.099q1.033.22 1.828-.127.794-.347.977-1.142.13-.56-.123-.958a2 2 0 0 0-.627-.698 4.5 4.5 0 0 0-.752-.478l-1.777-.942q-1.6-.856-2.188-1.937-.564-1.077-.283-2.293.259-1.122 1.011-1.821a4.1 4.1 0 0 1 1.875-.975q1.117-.253 2.362.011 1.667.354 2.787 1.475 1.144 1.127 1.356 2.766l-1.973.44a3.43 3.43 0 0 0-.911-1.813 3.28 3.28 0 0 0-1.767-.989q-.962-.204-1.64.167a1.55 1.55 0 0 0-.838 1.073q-.124.537.077.948.205.387.562.659.36.248.71.446l1.925 1.047q1.447.774 2.076 1.888.653 1.12.35 2.43a3.37 3.37 0 0 1-1.024 1.769q-.78.718-1.922.966-1.14.248-2.502-.042m13.681 2.908q-1.855-.394-3.111-1.569a6.17 6.17 0 0 1-1.708-2.84q-.476-1.672-.044-3.543.436-1.894 1.599-3.192a6.55 6.55 0 0 1 2.793-1.86q1.656-.555 3.51-.161 1.244.264 2.222.938a6.4 6.4 0 0 1 1.626 1.597q.65.922.792 2.008l-2.164.521a3.7 3.7 0 0 0-.995-1.879q-.769-.826-1.967-1.081a4 4 0 0 0-2.224.141 4.43 4.43 0 0 0-1.823 1.281q-.771.89-1.074 2.2-.291 1.263.011 2.406a4.2 4.2 0 0 0 1.088 1.9 3.9 3.9 0 0 0 1.955 1.029q1.197.254 2.253-.159a4.03 4.03 0 0 0 1.745-1.371l1.721 1.396a4.9 4.9 0 0 1-1.602 1.499 6.7 6.7 0 0 1-2.177.789 6.2 6.2 0 0 1-2.426-.05m13.112 2.787q-1.362-.29-2.319-1.155a4.45 4.45 0 0 1-1.286-2.113q-.323-1.27.018-2.744l1.819-7.881 2.184.464-1.766 7.647q-.216.936-.002 1.717.237.786.826 1.329.612.547 1.505.736.891.19 1.664-.063.796-.247 1.345-.916.572-.663.809-1.693l1.722-7.459 2.207.469-2.91 12.604-2.136-.454.567-2.455.303.285a3.86 3.86 0 0 1-1.958 1.546q-1.208.431-2.592.136m14.016 2.98q-1.901-.405-3.094-1.639a5.07 5.07 0 0 1-1.412-2.95l1.932-.473q.28 1.237 1.068 2.092.787.855 1.938 1.099 1.034.22 1.827-.127.795-.346.978-1.141.13-.562-.123-.959a2 2 0 0 0-.627-.697 4.5 4.5 0 0 0-.752-.479l-1.777-.942q-1.6-.855-2.188-1.937a3.23 3.23 0 0 1-.284-2.293q.26-1.122 1.012-1.821a4.1 4.1 0 0 1 1.875-.975q1.117-.253 2.362.011 1.667.354 2.787 1.476 1.143 1.126 1.356 2.766l-1.973.439a3.44 3.44 0 0 0-.911-1.813 3.3 3.3 0 0 0-1.767-.989q-.963-.204-1.639.167-.672.348-.839 1.073-.124.538.077.948.205.388.562.66.36.248.71.445l1.925 1.047q1.448.774 2.076 1.889.653 1.12.35 2.429a3.4 3.4 0 0 1-1.024 1.77q-.781.716-1.922.965-1.141.248-2.503-.041m12.343 2.623q-1.902-.404-3.095-1.639a5.07 5.07 0 0 1-1.412-2.95l1.932-.472q.28 1.237 1.068 2.091a3.6 3.6 0 0 0 1.938 1.099q1.033.22 1.828-.127.794-.346.977-1.141.13-.561-.123-.959a2 2 0 0 0-.627-.697 4.5 4.5 0 0 0-.752-.479l-1.777-.942q-1.6-.855-2.188-1.937a3.22 3.22 0 0 1-.283-2.292q.258-1.123 1.011-1.822a4.1 4.1 0 0 1 1.875-.975q1.117-.253 2.362.011 1.666.356 2.787 1.476 1.144 1.127 1.356 2.766l-1.973.439a3.43 3.43 0 0 0-.911-1.813 3.3 3.3 0 0 0-1.767-.988q-.963-.205-1.639.166-.672.348-.839 1.073-.124.538.077.949.205.387.562.659.361.249.71.445l1.925 1.047q1.448.774 2.076 1.889.653 1.12.35 2.43a3.4 3.4 0 0 1-1.024 1.769q-.781.717-1.922.965-1.141.249-2.502-.041m11.779 7.606a5 5 0 0 1-.829-.249 3.4 3.4 0 0 1-.745-.404l.449-1.941q.247.102.612.229.383.155.758.234 1.104.235 1.78-.136.695-.344 1.482-1.403l1.235-1.724-.484 1.884-2.274-14.688 2.372.504 1.718 11.65-.704-.149 6.662-9.869 2.418.514-8.96 12.888a8 8 0 0 1-1.454 1.605 4.8 4.8 0 0 1-1.81 1.013q-1.007.302-2.226.042m19.55-.947q-1.831-.388-3.116-1.545a6.4 6.4 0 0 1-1.802-2.861q-.523-1.682-.086-3.575.438-1.895 1.623-3.188a6.8 6.8 0 0 1 2.887-1.84q1.68-.55 3.534-.156 1.83.389 3.11 1.568a6.13 6.13 0 0 1 1.79 2.81q.528 1.658.085 3.575-.442 1.917-1.68 3.225a7 7 0 0 1-2.911 1.834q-1.65.532-3.434.153m.486-2.104a4.05 4.05 0 0 0 2.248-.136 4.26 4.26 0 0 0 1.875-1.294 4.9 4.9 0 0 0 1.092-2.172q.297-1.285-.04-2.388a4.1 4.1 0 0 0-1.135-1.91q-.798-.807-1.972-1.057a4.1 4.1 0 0 0-2.3.149q-1.075.385-1.87 1.271-.79.862-1.087 2.149-.291 1.262.034 2.411.327 1.149 1.13 1.933.828.789 2.025 1.044m13.7 5.12q-1.36-.29-2.319-1.156a4.44 4.44 0 0 1-1.285-2.113q-.322-1.27.018-2.744l1.819-7.88 2.183.464-1.765 7.647q-.216.934-.003 1.716.238.787.827 1.329.612.547 1.504.737t1.665-.063a2.8 2.8 0 0 0 1.344-.917q.572-.663.81-1.692l1.722-7.46 2.207.469-2.91 12.605-2.137-.454.567-2.456.304.285a3.86 3.86 0 0 1-1.958 1.547q-1.207.43-2.593.136m9.551 1.735 2.91-12.604 2.136.454-.534 2.315-.159-.377q.695-.981 1.728-1.301 1.04-.343 2.355-.064l.774.165-.475 2.058-1.103-.235q-1.338-.284-2.354.383-1.011.644-1.362 2.164l-1.733 7.506zm17.815 9.184a7.2 7.2 0 0 1-2.391-.95 5.9 5.9 0 0 1-1.679-1.583 4.9 4.9 0 0 1-.827-1.967l2.259-.501q.124.959.898 1.761.793.831 2.202 1.131 1.08.229 2.046-.007a3.3 3.3 0 0 0 1.689-.917q.7-.685.965-1.831l.653-2.83.302.506a4.76 4.76 0 0 1-2.355 1.56 5.65 5.65 0 0 1-2.856.105q-1.785-.38-3.004-1.497a6 6 0 0 1-1.683-2.738q-.464-1.62-.059-3.373.411-1.777 1.538-3.034a6.2 6.2 0 0 1 2.702-1.781q1.602-.543 3.387-.163 1.48.314 2.519 1.247a5.07 5.07 0 0 1 1.528 2.238l-.464.515.648-2.807 2.136.454-2.786 12.067q-.378 1.637-1.449 2.758a5.64 5.64 0 0 1-2.624 1.552q-1.534.46-3.295.085m1.579-7.588a3.83 3.83 0 0 0 2.149-.132 4.4 4.4 0 0 0 1.801-1.187 4.45 4.45 0 0 0 1.031-2.014 4.3 4.3 0 0 0-.054-2.219 4.1 4.1 0 0 0-1.105-1.83q-.762-.75-1.889-.99a4.13 4.13 0 0 0-2.219.117 4.3 4.3 0 0 0-1.83 1.206q-.732.825-1.002 1.995-.27 1.168.025 2.238.324 1.05 1.11 1.806.81.76 1.983 1.01m15.347 6.083q-1.831-.389-3.116-1.545a6.4 6.4 0 0 1-1.802-2.861q-.523-1.681-.086-3.576.438-1.893 1.623-3.187a6.8 6.8 0 0 1 2.887-1.84q1.678-.55 3.534-.157 1.83.39 3.11 1.569a6.1 6.1 0 0 1 1.789 2.809q.529 1.658.086 3.576-.442 1.917-1.68 3.224a7 7 0 0 1-2.911 1.835q-1.65.533-3.434.153m.486-2.104a4.05 4.05 0 0 0 2.248-.136 4.26 4.26 0 0 0 1.875-1.294 4.9 4.9 0 0 0 1.092-2.172q.297-1.287-.04-2.388a4.1 4.1 0 0 0-1.135-1.91 3.8 3.8 0 0 0-1.972-1.057 4.1 4.1 0 0 0-2.3.149q-1.075.385-1.87 1.271-.79.863-1.087 2.148-.291 1.263.034 2.412.326 1.149 1.13 1.933.828.789 2.025 1.044m12.926 4.955q-1.244-.264-2.105-.913-.83-.667-1.187-1.578-.351-.933-.108-1.985.232-1.006.838-1.711.636-.724 1.68-1.09 1.069-.362 2.531-.296l4.874.226-.421 1.824-4.364-.192q-1.27-.049-1.963.393-.669.446-.858 1.265-.179.771.313 1.416.515.648 1.454.848 1.197.255 2.18-.052a3.86 3.86 0 0 0 1.703-1.085 3.8 3.8 0 0 0 .959-1.808l.74-3.203q.237-1.03-.391-1.825-.6-.815-1.845-1.079a3.5 3.5 0 0 0-2.054.152 3.4 3.4 0 0 0-1.556 1.19l-1.675-1.386a4.3 4.3 0 0 1 1.484-1.304 6 6 0 0 1 2.061-.715 6.1 6.1 0 0 1 2.252.062q1.455.309 2.429 1.105.98.772 1.363 1.884.412 1.093.115 2.38l-1.976 8.559-2.136-.455.551-2.385.366.225a4.5 4.5 0 0 1-1.382 1.08 5.5 5.5 0 0 1-1.801.55 6 6 0 0 1-2.071-.097m10.21 1.876 4.087-17.702 2.183.464-4.086 17.702zm10.389 2.503q-1.901-.405-3.094-1.639a5.07 5.07 0 0 1-1.412-2.95l1.931-.473q.282 1.237 1.069 2.092a3.6 3.6 0 0 0 1.938 1.099q1.034.22 1.827-.127.795-.347.978-1.142.129-.56-.123-.958a2 2 0 0 0-.627-.698 4.5 4.5 0 0 0-.752-.478l-1.777-.942q-1.601-.855-2.188-1.937a3.23 3.23 0 0 1-.284-2.293q.26-1.122 1.012-1.821a4.1 4.1 0 0 1 1.875-.975q1.117-.253 2.362.011 1.667.354 2.787 1.476 1.143 1.125 1.356 2.766l-1.973.439a3.44 3.44 0 0 0-.911-1.813 3.3 3.3 0 0 0-1.767-.989q-.963-.205-1.639.167a1.55 1.55 0 0 0-.839 1.073q-.124.538.076.948.207.387.562.659.362.25.71.446l1.926 1.047q1.446.774 2.076 1.889.653 1.12.35 2.429a3.4 3.4 0 0 1-1.024 1.77q-.782.716-1.922.965-1.141.247-2.503-.041m7.502 4.71.243-1.053q.77-.032 1.27-.49t.763-1.384l-1.056-.224.647-2.806 2.278.484-.459 1.987q-.39 1.684-1.331 2.563-.918.884-2.355.923m17.909.691q-1.831-.39-3.064-1.559a6.2 6.2 0 0 1-1.708-2.841q-.471-1.695-.039-3.566.438-1.893 1.576-3.197a6.5 6.5 0 0 1 2.741-1.846q1.608-.566 3.346-.197 1.408.3 2.369 1.043a5.24 5.24 0 0 1 1.542 1.751q.58 1.007.725 2.19a6.2 6.2 0 0 1-.095 2.335q-.06.258-.182.575a7 7 0 0 1-.206.569l-10.376-2.205.432-1.871 9.108 1.936-1.227.623q.492-1.172.267-2.225a3.56 3.56 0 0 0-.963-1.8q-.74-.746-1.843-.98a3.9 3.9 0 0 0-2.148.132q-1.045.367-1.805 1.309-.73.924-.966 2.371-.413 1.36-.138 2.522a4.05 4.05 0 0 0 1.129 1.933q.856.77 2.007 1.015 1.267.27 2.271-.131a4.8 4.8 0 0 0 1.754-1.197l1.616 1.325q-.576.785-1.541 1.34a6.2 6.2 0 0 1-2.114.729q-1.154.196-2.468-.083m7.354 1.268 5.894-5.37-2.961-7.229 2.629.559 2.516 6.275-1.338-.284 4.996-4.679 2.653.564-5.866 5.352 2.933 7.247-2.63-.558-2.469-6.266 1.315.28-4.996 4.678zm12.694 7.605 3.99-17.281 2.136.454-.626 2.712-.158-.597a5.3 5.3 0 0 1 2.335-1.368q1.378-.42 2.951-.085 1.784.38 2.992 1.544a6.2 6.2 0 0 1 1.709 2.841q.482 1.648.044 3.542-.427 1.848-1.594 3.169a6.5 6.5 0 0 1-2.799 1.883q-1.608.566-3.415.182-1.527-.324-2.638-1.272a4.73 4.73 0 0 1-1.482-2.327l.439-.299-1.701 7.366zm7.886-5.144q1.197.255 2.271-.13a4.2 4.2 0 0 0 1.823-1.281q.778-.914 1.069-2.177.303-1.31-.011-2.406a3.97 3.97 0 0 0-1.088-1.9q-.8-.807-1.996-1.062a4.2 4.2 0 0 0-2.295.126 4.5 4.5 0 0 0-1.875 1.294q-.772.89-1.069 2.177-.291 1.263.011 2.406.331 1.125 1.135 1.91.828.79 2.025 1.043m15.007 5.398q-1.831-.389-3.064-1.559a6.17 6.17 0 0 1-1.708-2.841q-.471-1.694-.039-3.565.438-1.894 1.576-3.198a6.5 6.5 0 0 1 2.741-1.846q1.608-.566 3.345-.197 1.41.3 2.37 1.044a5.2 5.2 0 0 1 1.542 1.75q.58 1.007.725 2.191a6.2 6.2 0 0 1-.095 2.335q-.06.257-.182.574-.094.3-.206.57l-10.376-2.206.432-1.87 9.108 1.936-1.227.622q.492-1.171.267-2.225a3.55 3.55 0 0 0-.963-1.799q-.74-.745-1.843-.981a3.9 3.9 0 0 0-2.148.132q-1.045.367-1.805 1.31-.73.924-.966 2.37-.413 1.36-.138 2.522a4.04 4.04 0 0 0 1.129 1.933q.856.77 2.007 1.015 1.267.27 2.271-.13a4.9 4.9 0 0 0 1.754-1.197l1.616 1.324q-.576.786-1.541 1.341a6.2 6.2 0 0 1-2.114.728q-1.154.196-2.468-.083m9.015 1.622 2.91-12.605 2.136.454-.534 2.316-.16-.378q.695-.98 1.729-1.3 1.04-.344 2.354-.064l.775.164-.475 2.058-1.103-.234q-1.338-.285-2.354.383-1.011.643-1.362 2.163l-1.733 7.507zm8.559 1.819 2.91-12.604 2.183.464-2.91 12.604zm3.374-14.615.648-2.807 2.184.465-.648 2.806zm8.306 17.392q-1.83-.389-3.063-1.559a6.16 6.16 0 0 1-1.708-2.84q-.471-1.695-.039-3.566.437-1.894 1.575-3.198a6.5 6.5 0 0 1 2.742-1.846q1.608-.565 3.345-.196 1.409.299 2.37 1.043a5.2 5.2 0 0 1 1.541 1.751q.58 1.007.726 2.19a6.2 6.2 0 0 1-.096 2.335q-.06.257-.182.574-.094.3-.205.57l-10.376-2.205.431-1.871 9.109 1.936-1.227.622q.492-1.171.267-2.225a3.55 3.55 0 0 0-.964-1.799q-.738-.746-1.842-.98a3.9 3.9 0 0 0-2.149.132q-1.045.366-1.804 1.309-.73.924-.966 2.371-.412 1.36-.139 2.521a4.04 4.04 0 0 0 1.13 1.933q.856.771 2.007 1.016 1.267.269 2.271-.131a4.9 4.9 0 0 0 1.754-1.197l1.615 1.324q-.575.786-1.541 1.341a6.2 6.2 0 0 1-2.113.728q-1.154.197-2.469-.083m9.015 1.622 2.91-12.604 2.137.454-.567 2.455-.304-.285q.746-1.093 1.929-1.528 1.213-.454 2.622-.154 1.361.289 2.277 1.122a4.37 4.37 0 0 1 1.302 2.043q.385 1.21.072 2.566l-1.884 8.162-2.207-.469 1.722-7.46q.243-1.053.035-1.857a2.66 2.66 0 0 0-.821-1.352q-.584-.565-1.475-.756a3.15 3.15 0 0 0-1.694.082 3 3 0 0 0-1.344.916q-.567.64-.804 1.669l-1.722 7.46zm19.774 4.498q-1.854-.394-3.11-1.569a6.17 6.17 0 0 1-1.708-2.841q-.477-1.671-.045-3.542.438-1.894 1.599-3.193a6.54 6.54 0 0 1 2.794-1.859q1.655-.556 3.51-.162a6.1 6.1 0 0 1 2.221.938 6.4 6.4 0 0 1 1.626 1.597q.65.923.793 2.008l-2.165.522a3.7 3.7 0 0 0-.994-1.88q-.77-.826-1.967-1.08a4 4 0 0 0-2.224.14 4.4 4.4 0 0 0-1.823 1.281q-.772.89-1.074 2.2-.292 1.263.01 2.407.308 1.12 1.089 1.899a3.9 3.9 0 0 0 1.954 1.029q1.197.255 2.253-.159a4 4 0 0 0 1.745-1.371l1.722 1.396a4.9 4.9 0 0 1-1.602 1.5 6.7 6.7 0 0 1-2.177.788 6.2 6.2 0 0 1-2.427-.049m14.45 3.071q-1.83-.389-3.063-1.559a6.17 6.17 0 0 1-1.708-2.841q-.471-1.694-.039-3.565.437-1.894 1.575-3.198a6.5 6.5 0 0 1 2.742-1.846q1.608-.566 3.345-.197 1.409.3 2.37 1.044a5.2 5.2 0 0 1 1.541 1.75q.58 1.007.726 2.191a6.2 6.2 0 0 1-.096 2.335q-.06.257-.182.574-.094.3-.205.57l-10.376-2.206.431-1.87 9.109 1.936-1.227.622q.492-1.171.267-2.225a3.55 3.55 0 0 0-.964-1.799q-.738-.746-1.842-.981a3.9 3.9 0 0 0-2.149.132q-1.045.367-1.804 1.31-.73.924-.966 2.37-.412 1.36-.139 2.522a4.04 4.04 0 0 0 1.13 1.933q.857.77 2.007 1.015 1.268.27 2.271-.13a4.9 4.9 0 0 0 1.754-1.197l1.615 1.324q-.575.786-1.541 1.341-.936.537-2.113.728-1.154.196-2.469-.083m8.641 4.952.242-1.052q.771-.032 1.271-.491t.763-1.383l-1.057-.225.648-2.806 2.277.484-.458 1.988q-.39 1.684-1.331 2.563-.918.884-2.355.922M59.82 262.195q-1.245-.264-2.105-.914-.831-.666-1.187-1.577-.351-.933-.108-1.985.232-1.006.838-1.711.635-.724 1.68-1.09 1.069-.362 2.531-.296l4.874.226-.422 1.824-4.364-.192q-1.269-.049-1.962.393-.669.446-.858 1.265-.18.771.313 1.416.516.648 1.454.848 1.197.255 2.18-.052a3.85 3.85 0 0 0 1.703-1.085 3.83 3.83 0 0 0 .96-1.808l.739-3.203q.237-1.03-.392-1.825-.6-.815-1.844-1.079a3.5 3.5 0 0 0-2.054.152 3.4 3.4 0 0 0-1.556 1.19l-1.675-1.386a4.3 4.3 0 0 1 1.483-1.304 6 6 0 0 1 2.062-.715q1.125-.178 2.251.062 1.455.309 2.43 1.105.98.772 1.362 1.884.413 1.093.116 2.38l-1.976 8.558-2.136-.454.55-2.385.367.225a4.5 4.5 0 0 1-1.382 1.08q-.81.417-1.801.55a6 6 0 0 1-2.072-.097m10.21 1.876 2.91-12.605 2.136.454-.566 2.456-.304-.285q.746-1.093 1.929-1.529 1.213-.453 2.621-.154 1.362.29 2.278 1.122a4.4 4.4 0 0 1 1.302 2.043q.385 1.21.072 2.567l-1.884 8.161-2.207-.469 1.722-7.46q.243-1.052.035-1.857a2.67 2.67 0 0 0-.82-1.352q-.585-.565-1.476-.755a3.15 3.15 0 0 0-1.694.082 3 3 0 0 0-1.344.916q-.567.64-.804 1.669l-1.723 7.46zm19.657 4.472q-1.784-.379-3.017-1.549a6.23 6.23 0 0 1-1.684-2.835q-.477-1.673-.05-3.519.436-1.894 1.599-3.193a6.57 6.57 0 0 1 2.775-1.888q1.632-.56 3.416-.181 1.574.334 2.637 1.272a5 5 0 0 1 1.515 2.186l-.476.463 1.803-7.811 2.207.47-4.087 17.702-2.137-.454.621-2.689.196.434a4.8 4.8 0 0 1-2.368 1.508q-1.4.414-2.95.084m.674-2.064q1.197.254 2.27-.131a4.36 4.36 0 0 0 1.847-1.276q.801-.909 1.092-2.172.297-1.286-.034-2.411a4.1 4.1 0 0 0-1.106-1.928q-.805-.784-2.002-1.039a4.05 4.05 0 0 0-2.276.154 4.36 4.36 0 0 0-1.847 1.276q-.766.867-1.069 2.177-.29 1.263.011 2.406a4.14 4.14 0 0 0 1.112 1.905q.804.784 2.002 1.039m13.025 9.588 3.99-17.281 2.136.454-.626 2.713-.158-.598a5.3 5.3 0 0 1 2.336-1.368q1.377-.418 2.95-.085 1.784.38 2.993 1.544a6.2 6.2 0 0 1 1.708 2.841q.482 1.649.044 3.542-.426 1.848-1.593 3.17a6.5 6.5 0 0 1-2.799 1.883q-1.608.565-3.416.181-1.525-.324-2.637-1.272a4.73 4.73 0 0 1-1.482-2.327l.438-.299-1.701 7.366zm7.886-5.143q1.198.254 2.272-.131a4.2 4.2 0 0 0 1.822-1.281q.778-.914 1.069-2.177.303-1.31-.011-2.406a3.97 3.97 0 0 0-1.088-1.9q-.799-.807-1.996-1.062a4.2 4.2 0 0 0-2.295.126 4.5 4.5 0 0 0-1.875 1.294q-.771.89-1.069 2.177-.29 1.263.011 2.406.332 1.126 1.136 1.91.827.789 2.024 1.044m9.25 3.879 2.91-12.604 2.136.454-.534 2.315-.159-.377q.694-.981 1.728-1.301 1.04-.343 2.355-.064l.774.165-.475 2.058-1.103-.235q-1.338-.285-2.354.383-1.011.643-1.362 2.164l-1.733 7.506zm14.316 3.338q-1.83-.39-3.063-1.559a6.2 6.2 0 0 1-1.708-2.841q-.471-1.694-.039-3.566.438-1.893 1.576-3.197a6.5 6.5 0 0 1 2.741-1.846q1.608-.566 3.345-.197 1.409.3 2.37 1.043a5.2 5.2 0 0 1 1.541 1.751q.58 1.007.726 2.19a6.2 6.2 0 0 1-.096 2.335 4 4 0 0 1-.182.575 7 7 0 0 1-.205.569l-10.376-2.205.432-1.871 9.108 1.936-1.227.622q.492-1.17.267-2.224a3.56 3.56 0 0 0-.963-1.8q-.74-.746-1.843-.98a3.9 3.9 0 0 0-2.148.132q-1.046.367-1.805 1.309-.73.924-.966 2.371-.412 1.36-.139 2.522a4.05 4.05 0 0 0 1.13 1.933q.857.77 2.007 1.015 1.268.27 2.271-.131a4.8 4.8 0 0 0 1.754-1.197l1.615 1.325q-.575.785-1.541 1.34a6.2 6.2 0 0 1-2.113.729q-1.154.196-2.469-.083m10.354 1.906 2.429-10.523-2.418-.514.481-2.082 2.418.514.205-.888q.312-1.356 1.116-2.167a4.2 4.2 0 0 1 1.925-1.087 5.2 5.2 0 0 1 2.344-.017q.258.054.553.166.323.093.523.185l-.448 1.941a2 2 0 0 0-.435-.142 5 5 0 0 0-.394-.108q-1.08-.23-1.903.135-.8.37-1.075 1.563l-.205.888 3.005.639-.48 2.081-3.005-.638-2.43 10.523zm13.505 3.165q-1.83-.389-3.063-1.559a6.17 6.17 0 0 1-1.708-2.841q-.471-1.695-.039-3.565.437-1.894 1.575-3.198a6.5 6.5 0 0 1 2.742-1.846q1.608-.566 3.345-.197 1.409.3 2.37 1.044a5.2 5.2 0 0 1 1.541 1.75q.58 1.006.726 2.191a6.2 6.2 0 0 1-.096 2.334q-.059.258-.182.575a7 7 0 0 1-.205.57l-10.376-2.206.431-1.871 9.109 1.937-1.227.622q.492-1.171.267-2.225a3.55 3.55 0 0 0-.964-1.799q-.738-.746-1.842-.981a3.9 3.9 0 0 0-2.148.132q-1.046.367-1.805 1.31-.73.924-.966 2.37-.412 1.36-.139 2.522a4.05 4.05 0 0 0 1.13 1.933q.856.77 2.007 1.015 1.267.27 2.271-.13a4.85 4.85 0 0 0 1.754-1.198l1.615 1.325q-.575.786-1.541 1.341-.936.537-2.113.728-1.154.196-2.469-.083m9.015 1.622 2.91-12.605 2.137.454-.535 2.316-.159-.378q.694-.98 1.729-1.301 1.04-.343 2.354-.063l.775.164-.475 2.058-1.104-.234q-1.338-.284-2.354.382-1.01.645-1.361 2.164l-1.733 7.507zm14.317 3.337q-1.832-.389-3.063-1.559a6.17 6.17 0 0 1-1.709-2.84q-.471-1.695-.039-3.566.438-1.894 1.576-3.198a6.5 6.5 0 0 1 2.741-1.846q1.609-.566 3.346-.196 1.409.299 2.369 1.043a5.2 5.2 0 0 1 1.542 1.751q.58 1.006.725 2.19a6.2 6.2 0 0 1-.095 2.335q-.06.257-.182.574-.094.3-.206.57l-10.376-2.205.432-1.871 9.109 1.936-1.228.622q.492-1.171.268-2.225a3.55 3.55 0 0 0-.964-1.799q-.74-.746-1.842-.98a3.9 3.9 0 0 0-2.149.132q-1.045.366-1.804 1.309-.73.924-.966 2.37-.413 1.36-.139 2.522a4.03 4.03 0 0 0 1.13 1.933 4.27 4.27 0 0 0 2.006 1.016q1.267.269 2.272-.131a4.9 4.9 0 0 0 1.754-1.197l1.615 1.324q-.575.786-1.541 1.341a6.2 6.2 0 0 1-2.114.728q-1.154.197-2.468-.083m9.015 1.622 2.91-12.604 2.136.454-.567 2.455-.303-.285q.744-1.093 1.929-1.528 1.212-.454 2.621-.154 1.362.288 2.278 1.121a4.4 4.4 0 0 1 1.301 2.043q.385 1.21.073 2.567l-1.884 8.162-2.207-.47 1.722-7.459q.243-1.053.035-1.857a2.67 2.67 0 0 0-.821-1.352q-.583-.566-1.476-.756a3.15 3.15 0 0 0-1.693.082 3 3 0 0 0-1.345.916q-.565.64-.804 1.669l-1.722 7.46zm19.774 4.498q-1.855-.394-3.11-1.569a6.2 6.2 0 0 1-1.709-2.841q-.476-1.671-.044-3.542.437-1.894 1.599-3.193a6.54 6.54 0 0 1 2.794-1.859q1.655-.556 3.509-.162 1.244.264 2.222.938a6.4 6.4 0 0 1 1.626 1.597q.65.923.792 2.008l-2.164.522a3.73 3.73 0 0 0-.995-1.88q-.769-.826-1.967-1.081a4 4 0 0 0-2.224.141 4.4 4.4 0 0 0-1.822 1.281q-.772.89-1.075 2.2-.291 1.263.011 2.407.308 1.12 1.088 1.899a3.9 3.9 0 0 0 1.955 1.029q1.197.255 2.253-.159a4 4 0 0 0 1.745-1.371l1.722 1.396a4.9 4.9 0 0 1-1.603 1.5 6.7 6.7 0 0 1-2.177.788 6.2 6.2 0 0 1-2.426-.049m14.45 3.071q-1.832-.389-3.063-1.559a6.2 6.2 0 0 1-1.709-2.841q-.471-1.695-.039-3.565.438-1.894 1.576-3.198a6.5 6.5 0 0 1 2.741-1.846q1.608-.566 3.346-.197 1.409.3 2.369 1.044a5.2 5.2 0 0 1 1.542 1.75q.58 1.006.725 2.191a6.2 6.2 0 0 1-.095 2.335q-.06.257-.182.574a7 7 0 0 1-.206.57l-10.376-2.206.432-1.871 9.109 1.937-1.228.622q.492-1.171.268-2.225a3.55 3.55 0 0 0-.964-1.799q-.74-.746-1.842-.981a3.9 3.9 0 0 0-2.149.132q-1.045.367-1.804 1.31-.73.924-.966 2.37-.413 1.36-.139 2.522a4.03 4.03 0 0 0 1.13 1.933 4.27 4.27 0 0 0 2.006 1.015q1.267.27 2.272-.13a4.9 4.9 0 0 0 1.754-1.198l1.615 1.325q-.576.786-1.541 1.341-.937.537-2.114.728-1.154.196-2.468-.083m13.481 2.865q-1.902-.404-3.094-1.638a5.07 5.07 0 0 1-1.413-2.95l1.932-.473q.28 1.237 1.069 2.092a3.6 3.6 0 0 0 1.938 1.099q1.032.22 1.827-.127.793-.347.978-1.142.13-.56-.124-.958a2 2 0 0 0-.627-.698 4.5 4.5 0 0 0-.751-.478l-1.778-.942q-1.6-.856-2.188-1.937-.564-1.077-.283-2.293.26-1.122 1.011-1.821a4.1 4.1 0 0 1 1.876-.975q1.118-.253 2.361.011 1.666.354 2.787 1.475 1.144 1.126 1.357 2.767l-1.974.439a3.43 3.43 0 0 0-.911-1.813 3.28 3.28 0 0 0-1.766-.989q-.963-.205-1.64.167a1.55 1.55 0 0 0-.838 1.073q-.125.537.076.948.206.387.562.659.362.25.71.446l1.925 1.047q1.448.774 2.076 1.888.653 1.12.351 2.43a3.4 3.4 0 0 1-1.024 1.769q-.781.718-1.923.966-1.14.248-2.502-.042m8.768 1.57.648-2.806 2.277.484-.648 2.806z"/></g><defs><linearGradient id="b" x1="13.685" x2="218.588" y1="274.636" y2="152.87" gradientUnits="userSpaceOnUse"><stop stop-color="#32FF92"/><stop offset="1" stop-color="#0362A6"/></linearGradient><linearGradient id="e" x1=".221" x2="289.52" y1="340.006" y2="344.625" gradientUnits="userSpaceOnUse"><stop stop-color="#0362A6"/><stop offset="1" stop-color="#32FF92"/></linearGradient><linearGradient id="g" x1="457.413" x2="662.316" y1="445.99" y2="324.224" gradientUnits="userSpaceOnUse"><stop stop-color="#32FF92"/><stop offset="1" stop-color="#0362A6"/></linearGradient><linearGradient id="i" x1="-13.332" x2="705.125" y1="280.696" y2="367.739" gradientUnits="userSpaceOnUse"><stop stop-color="#0A7FD2"/><stop offset=".619" stop-color="#32FF92"/><stop offset="1" stop-color="#FCFF32"/></linearGradient><filter id="a" width="604.623" height="447.107" x="0" y="0" color-interpolation-filters="sRGB" filterUnits="userSpaceOnUse"><feFlood flood-opacity="0" result="BackgroundImageFix"/><feColorMatrix in="SourceAlpha" result="hardAlpha" values="0 0 0 0 0 0 0 0 0 0 0 0 0 0 0 0 0 0 127 0"/><feOffset dx="4" dy="8"/><feGaussianBlur stdDeviation="4"/><feComposite in2="hardAlpha" operator="out"/><feColorMatrix values="0 0 0 0 0 0 0 0 0 0 0 0 0 0 0 0 0 0 0.25 0"/><feBlend in2="BackgroundImageFix" result="effect1_dropShadow_1724_1986"/><feBlend in="SourceGraphic" in2="effect1_dropShadow_1724_1986" result="shape"/></filter><filter id="d" width="555.552" height="145.385" x="-5.476" y="290.792" color-interpolation-filters="sRGB" filterUnits="userSpaceOnUse"><feFlood flood-opacity="0" result="BackgroundImageFix"/><feBlend in="SourceGraphic" in2="BackgroundImageFix" result="shape"/><feTurbulence baseFrequency="1 1" numOctaves="3" result="noise" seed="1706" stitchTiles="stitch" type="fractalNoise"/><feColorMatrix in="noise" result="alphaNoise" type="luminanceToAlpha"/><feComponentTransfer in="alphaNoise" result="coloredNoise1"><feFuncA tableValues="1 1 1 1 1 1 1 1 1 1 1 1 1 1 1 1 1 1 1 1 1 1 1 1 1 1 1 1 1 1 1 1 1 1 1 1 1 1 1 1 1 1 1 1 1 1 1 1 1 1 1 0 0 0 0 0 0 0 0 0 0 0 0 0 0 0 0 0 0 0 0 0 0 0 0 0 0 0 0 0 0 0 0 0 0 0 0 0 0 0 0 0 0 0 0 0 0 0 0 0" type="discrete"/></feComponentTransfer><feComposite in="coloredNoise1" in2="shape" operator="in" result="noise1Clipped"/><feFlood flood-color="rgba(0, 0, 0, 0.05)" result="color1Flood"/><feComposite in="color1Flood" in2="noise1Clipped" operator="in" result="color1"/><feMerge result="effect1_noise_1724_1986"><feMergeNode in="shape"/><feMergeNode in="color1"/></feMerge></filter><filter id="f" width="58.987" height="270.887" x="533.632" y="164.755" color-interpolation-filters="sRGB" filterUnits="userSpaceOnUse"><feFlood flood-opacity="0" result="BackgroundImageFix"/><feBlend in="SourceGraphic" in2="BackgroundImageFix" result="shape"/><feTurbulence baseFrequency="1 1" numOctaves="3" result="noise" seed="1706" stitchTiles="stitch" type="fractalNoise"/><feColorMatrix in="noise" result="alphaNoise" type="luminanceToAlpha"/><feComponentTransfer in="alphaNoise" result="coloredNoise1"><feFuncA tableValues="1 1 1 1 1 1 1 1 1 1 1 1 1 1 1 1 1 1 1 1 1 1 1 1 1 1 1 1 1 1 1 1 1 1 1 1 1 1 1 1 1 1 1 1 1 1 1 1 1 1 1 0 0 0 0 0 0 0 0 0 0 0 0 0 0 0 0 0 0 0 0 0 0 0 0 0 0 0 0 0 0 0 0 0 0 0 0 0 0 0 0 0 0 0 0 0 0 0 0 0" type="discrete"/></feComponentTransfer><feComposite in="coloredNoise1" in2="shape" operator="in" result="noise1Clipped"/><feFlood flood-color="rgba(0, 0, 0, 0.05)" result="color1Flood"/><feComposite in="color1Flood" in2="noise1Clipped" operator="in" result="color1"/><feMerge result="effect1_noise_1724_1986"><feMergeNode in="shape"/><feMergeNode in="color1"/></feMerge></filter><filter id="h" width="588.623" height="419.122" x="4" y="0" color-interpolation-filters="sRGB" filterUnits="userSpaceOnUse"><feFlood flood-opacity="0" result="BackgroundImageFix"/><feBlend in="SourceGraphic" in2="BackgroundImageFix" result="shape"/><feTurbulence baseFrequency="1 1" numOctaves="3" result="noise" seed="1706" stitchTiles="stitch" type="fractalNoise"/><feColorMatrix in="noise" result="alphaNoise" type="luminanceToAlpha"/><feComponentTransfer in="alphaNoise" result="coloredNoise1"><feFuncA tableValues="1 1 1 1 1 1 1 1 1 1 1 1 1 1 1 1 1 1 1 1 1 1 1 1 1 1 1 1 1 1 1 1 1 1 1 1 1 1 1 1 1 1 1 1 1 1 1 1 1 1 1 0 0 0 0 0 0 0 0 0 0 0 0 0 0 0 0 0 0 0 0 0 0 0 0 0 0 0 0 0 0 0 0 0 0 0 0 0 0 0 0 0 0 0 0 0 0 0 0 0" type="discrete"/></feComponentTransfer><feComposite in="coloredNoise1" in2="shape" operator="in" result="noise1Clipped"/><feFlood flood-color="rgba(0, 0, 0, 0.05)" result="color1Flood"/><feComposite in="color1Flood" in2="noise1Clipped" operator="in" result="color1"/><feMerge result="effect1_noise_1724_1986"><feMergeNode in="shape"/><feMergeNode in="color1"/></feMerge></filter></defs></svg>