<svg width="256" height="256" viewBox="0 0 256 256" fill="none" xmlns="http://www.w3.org/2000/svg">
<g clip-path="url(#clip0_2010_546)">
<path d="M256 0H0V256H256V0Z" fill="#024D81"/>
<path d="M124.144 64.1562C125.767 79.7088 126.204 103.697 133.544 106.144C139.102 107.993 150.864 101.232 154.819 97.5501C150.863 103.142 141.7 115.403 147.044 121.281C151.136 125.781 170.364 126.192 184.275 128.237H182.425L184.275 128.25C170.364 130.296 151.136 130.294 147.044 134.794C141.7 140.672 150.863 152.933 154.819 158.525C150.864 154.844 139.102 148.082 133.544 149.932C126.205 152.378 125.766 176.36 124.144 191.912V192.075C124.141 192.052 124.14 192.029 124.138 192.006C124.135 192.029 124.134 192.052 124.131 192.075L124.125 191.912C122.502 176.36 122.07 152.378 114.732 149.932C109.172 148.082 97.4106 154.844 93.456 158.525C97.4112 152.933 106.575 140.672 101.231 134.794C97.1392 130.294 77.9104 130.296 64 128.25L65.8502 128.237H64C77.9104 126.192 97.1392 125.781 101.231 121.281C106.575 115.403 97.4112 103.142 93.456 97.5501C97.4106 101.232 109.172 107.993 114.732 106.144C122.071 103.697 122.502 79.7088 124.125 64.1562L124.131 64C124.134 64.0211 124.135 64.0416 124.138 64.0627C124.14 64.0416 124.141 64.0211 124.144 64V64.1562Z" fill="white"/>
</g>
<defs>
<clipPath id="clip0_2010_546">
<rect width="256" height="256" fill="white"/>
</clipPath>
</defs>
</svg>
