<svg xmlns="http://www.w3.org/2000/svg" width="1394" height="1402" fill="none"><g filter="url(#a)"><path fill="#000" fill-opacity=".3" d="m615.343 1300.8-19.937-21.53v-37.48l39.967-64.85 67.195-79.29-8.064-68.54-8.063-34.462-8.911-29.172 25.038-17.693 47.037-10.059 263.405 14.7 92.73-21.503h83.32c79.29-43.453 155.29-88.496 161.74-91.721s-5.92 133.248-8.61 217.02l-62.29 66.19-111.54 95.41-100.8 36.29-82.467 59.23-62.515 29.73-115.837 17.21-70.179-10.03-29.507-7.18-50.242-8.77-41.47-6.38z"/></g><path fill="url(#b)" d="M21.546 686.44 0 702.802l780.601 363.178 21.2-16.41z"/><g filter="url(#c)"><path fill="url(#d)" d="M1039.18 759.319c-59.255-51.695-81.599-162.925-38.17-207.515 50.97-52.346 138.18-33.484 189.49 18.502 57.84 58.603 70.67 169.479 2.13 216.359-50.04 34.223-107.78 12.492-153.45-27.346"/><path fill="#6D6D6D" fill-opacity=".1" d="M1039.18 759.319c-59.255-51.695-81.599-162.925-38.17-207.515 50.97-52.346 138.18-33.484 189.49 18.502 57.84 58.603 70.67 169.479 2.13 216.359-50.04 34.223-107.78 12.492-153.45-27.346"/></g><mask id="f" width="262" height="284" x="978" y="520" maskUnits="userSpaceOnUse" style="mask-type:alpha"><path fill="url(#e)" d="M1039.18 759.319c-59.255-51.695-81.599-162.925-38.17-207.515 50.97-52.346 138.18-33.484 189.49 18.502 57.84 58.603 70.67 169.479 2.13 216.359-50.04 34.223-107.78 12.492-153.45-27.346"/><path fill="#6D6D6D" fill-opacity=".1" d="M1039.18 759.319c-59.255-51.695-81.599-162.925-38.17-207.515 50.97-52.346 138.18-33.484 189.49 18.502 57.84 58.603 70.67 169.479 2.13 216.359-50.04 34.223-107.78 12.492-153.45-27.346"/></mask><g mask="url(#f)"><g filter="url(#g)"><path fill="#000" fill-opacity=".15" d="m1078.39 535.519-31.98-1.936s-20.81 34.541-37.04 55.07c-11.696 14.783-30.896 24.448-30.896 24.448l-.246 7.687 2.724 7.097 77.358-10.328z"/></g><g filter="url(#h)"><path fill="#000" fill-opacity=".2" d="m1253.8 697.481-50.42-19.046s-20.82 34.54-37.05 55.069c-11.69 14.784-30.89 24.449-30.89 24.449l-.25 7.686 31.14 34.733s18.04-30.203 32.07-47.745c19.07-23.839 55.4-55.146 55.4-55.146"/></g></g><g filter="url(#i)"><path fill="url(#j)" d="M701.383 783.399c24.388-3.062 38.614-9.568 60.296-24.129 8.055-5.409 69.52-3.738 76.402-1.022 11.277 4.448 3.87 28.188.355 36.526l269.874 130.621 35.61-52.004c25.81-47.104 18.55-48.994 27.63-89.992 8.61-26.267 14.73-28.311 22.47-38.628 14.38-19.193 24.8-25.397 40.06-39.658 13.94-13.033 31.94-36.983 31.94-36.983l-59.93-136.833-118.56-27.585-42.18 37.64s-22.24 37.499-41.86 57.546c-7.022 7.173-14.249 12.139-25.017 15.756-40.028 13.448-77.095 4.279-118.68 23.665 0 0-33.505 17.992-53.699 24.895-23.055 7.879-38.756 6.802-60.889 17.605-17.278 8.433-23.548 19.065-40.594 27.858-17.235 8.892-32.335 12.061-45.501 17.203s-15.035 26.07-10.642 32.498c13.06 19.126 24.252 25.286 52.915 25.021"/><path fill="#6D6D6D" fill-opacity=".1" d="M701.383 783.399c24.388-3.062 38.614-9.568 60.296-24.129 8.055-5.409 69.52-3.738 76.402-1.022 11.277 4.448 3.87 28.188.355 36.526l269.874 130.621 35.61-52.004c25.81-47.104 18.55-48.994 27.63-89.992 8.61-26.267 14.73-28.311 22.47-38.628 14.38-19.193 24.8-25.397 40.06-39.658 13.94-13.033 31.94-36.983 31.94-36.983l-59.93-136.833-118.56-27.585-42.18 37.64s-22.24 37.499-41.86 57.546c-7.022 7.173-14.249 12.139-25.017 15.756-40.028 13.448-77.095 4.279-118.68 23.665 0 0-33.505 17.992-53.699 24.895-23.055 7.879-38.756 6.802-60.889 17.605-17.278 8.433-23.548 19.065-40.594 27.858-17.235 8.892-32.335 12.061-45.501 17.203s-15.035 26.07-10.642 32.498c13.06 19.126 24.252 25.286 52.915 25.021"/></g><mask id="l" width="643" height="511" x="646" y="470" maskUnits="userSpaceOnUse" style="mask-type:alpha"><path fill="#969696" d="M701.383 783.397c24.388-3.062 38.613-9.568 60.296-24.128 8.055-5.41 66.839-4.472 76.402-1.023 9.562 3.449 6.125 22.472 2.476 31.306-10.337 25.027-16.508 36.818-30.875 59.256l267.638 131.481 66.6-106.899c25.81-47.105 41.26-81.823 50.35-122.821 8.6-26.267 14.73-28.311 22.46-38.628 14.39-19.193 24.8-25.397 40.06-39.658 13.94-13.033 31.94-36.983 31.94-36.983l-59.93-136.833-118.55-27.585-42.19 37.64s-22.24 37.499-41.86 57.546c-7.02 7.173-14.25 12.139-25.01 15.756-33.729 11.331-59.392 13.269-94.274 29.991-16.69 8.001-41.167 23.485-41.167 23.485s-39.462 21.01-59.656 27.912c-23.054 7.88-38.756 6.803-60.888 17.605-17.279 8.434-23.548 19.065-40.594 27.859-17.236 8.892-32.335 12.06-45.501 17.202s-15.036 26.07-10.643 32.498c13.061 19.126 24.252 25.286 52.916 25.021"/></mask><g filter="url(#k)" mask="url(#l)"><path fill="url(#n)" d="M697.644 746.781c-18.502 2.525-48.566 0-48.566 0l-13.45 8.593 35.491 38.479h44.807l43.494-20.381 82.426-11.748s-1.694-9.526-4.483-14.943c-4.397-8.54-13.341-16.274-26.897-21.668-19.06-7.584-33.676-1.748-53.797 2.242-23.803 4.721-34.705 16.108-59.025 19.426"/><path fill="#6D6D6D" fill-opacity=".1" d="M697.644 746.781c-18.502 2.525-48.566 0-48.566 0l-13.45 8.593 35.491 38.479h44.807l43.494-20.381 82.426-11.748s-1.694-9.526-4.483-14.943c-4.397-8.54-13.341-16.274-26.897-21.668-19.06-7.584-33.676-1.748-53.797 2.242-23.803 4.721-34.705 16.108-59.025 19.426"/></g><g filter="url(#o)"><path fill="url(#p)" d="M955.273 1232.98s-7.107 4.62-21.456 15.89c-21.176 16.64-38.901 31.29-64.08 40.93-31.055 11.89-75.419 29.37-75.419 29.37s-18.847 5.26-26.65-2.13c-4.981-4.71-6.936-16.19-6.936-16.19-16.983 20.12-32.667 31.06-42.371 34.27-16.58 5.47-23.62 2.24-30.93-11.57-14.878 9.21-22.049 12.16-35.502 12.16-11.617 0-20.601-13.99-16.961-24.51 2.312-6.68 15.356-30.09 34.352-47.44 8.77-17.11 14.062-26.58 29.308-43.04 7.308-14.94 12.781-25.44 21.891-41.12-19.265 23.89-32.707 39.42-53.882 61-16.26 16.57-33.873 25.38-49.902 30.36-11.505 3.58-20.367.39-25.239-5.84-3.947-5.05-1.713-19.6 9.586-34.51l27.227-28.77c.018-.03 10.084-19.84 19.069-30.97 6.146-7.62 14.466-13.85 18.63-21.53 15.03-27.74 22.888-45.22 22.888-45.22zm-83.856-15.77c.841-1.32-3.495-5.87-8.393-5.04-23.29 3.97-54.392 37.23-70.69 52.64 14.428-8.96 24.389-11.35 39.122-19.09 6.871-3.61 14.537-11.26 21.06-15.92 6.414-4.58 16.815-9.31 18.901-12.59"/><path fill="#6D6D6D" fill-opacity=".1" d="M955.273 1232.98s-7.107 4.62-21.456 15.89c-21.176 16.64-38.901 31.29-64.08 40.93-31.055 11.89-75.419 29.37-75.419 29.37s-18.847 5.26-26.65-2.13c-4.981-4.71-6.936-16.19-6.936-16.19-16.983 20.12-32.667 31.06-42.371 34.27-16.58 5.47-23.62 2.24-30.93-11.57-14.878 9.21-22.049 12.16-35.502 12.16-11.617 0-20.601-13.99-16.961-24.51 2.312-6.68 15.356-30.09 34.352-47.44 8.77-17.11 14.062-26.58 29.308-43.04 7.308-14.94 12.781-25.44 21.891-41.12-19.265 23.89-32.707 39.42-53.882 61-16.26 16.57-33.873 25.38-49.902 30.36-11.505 3.58-20.367.39-25.239-5.84-3.947-5.05-1.713-19.6 9.586-34.51l27.227-28.77c.018-.03 10.084-19.84 19.069-30.97 6.146-7.62 14.466-13.85 18.63-21.53 15.03-27.74 22.888-45.22 22.888-45.22zm-83.856-15.77c.841-1.32-3.495-5.87-8.393-5.04-23.29 3.97-54.392 37.23-70.69 52.64 14.428-8.96 24.389-11.35 39.122-19.09 6.871-3.61 14.537-11.26 21.06-15.92 6.414-4.58 16.815-9.31 18.901-12.59"/></g><mask id="q" width="367" height="234" x="589" y="1104" maskUnits="userSpaceOnUse" style="mask-type:luminance"><path fill="#fff" d="M955.281 1232.99s-7.111 4.61-21.464 15.88c-21.176 16.64-38.901 31.29-64.08 40.93-31.039 11.89-75.373 29.35-75.419 29.37 0 0-18.847 5.26-26.65-2.13-4.981-4.71-6.936-16.19-6.936-16.19-16.983 20.12-32.667 31.06-42.371 34.26-16.58 5.48-23.62 2.25-30.93-11.56-14.878 9.21-22.049 12.16-35.502 12.16-11.617 0-20.601-13.99-16.961-24.51 2.312-6.68 15.356-30.1 34.352-47.44 8.77-17.11 14.062-26.58 29.308-43.04 7.308-14.94 12.781-25.44 21.891-41.12-19.265 23.89-32.707 39.42-53.882 61-16.26 16.57-33.873 25.37-49.902 30.36-11.505 3.58-20.367.39-25.239-5.84-3.947-5.05-1.713-19.6 9.586-34.51l27.227-28.77c.016-.03 10.083-19.85 19.069-30.98 6.146-7.61 14.466-13.84 18.63-21.52 15.03-27.74 22.95-45.3 22.95-45.3zm-83.864-15.78c.841-1.33-3.495-5.87-8.393-5.04-23.29 3.97-54.392 37.23-70.69 52.64 14.428-8.97 24.389-11.35 39.122-19.09 6.871-3.61 14.537-11.26 21.06-15.92 6.414-4.58 16.815-9.31 18.901-12.59"/></mask><g mask="url(#q)"><g filter="url(#r)"><path fill="url(#s)" d="M846.337 1206.14c-14.515 16.07-30.844 36.03-30.844 36.03l55.985-25.14s1.046-3.26 0-6.22c-1.242-3.51-3.197-7.05-6.48-8.81-6.579-3.53-13.657-1.4-18.661 4.14"/><path fill="#6D6D6D" fill-opacity=".1" d="M846.337 1206.14c-14.515 16.07-30.844 36.03-30.844 36.03l55.985-25.14s1.046-3.26 0-6.22c-1.242-3.51-3.197-7.05-6.48-8.81-6.579-3.53-13.657-1.4-18.661 4.14"/></g><g filter="url(#t)"><path fill="url(#u)" d="M871.859 1272.71c-19.199 11.76-70.789 42.74-70.789 42.74s91.226-24.19 115.367-39.09c27.193-16.78 59.574-56.1 59.574-56.1s-8.662-8.68-15.829-10.93c-7.29-2.3-12.135-1.77-19.57 0-7.435 1.76-18.678 19.57-31.37 31.37-14.078 13.08-20.739 21.81-37.383 32.01"/><path fill="#6D6D6D" fill-opacity=".1" d="M871.859 1272.71c-19.199 11.76-70.789 42.74-70.789 42.74s91.226-24.19 115.367-39.09c27.193-16.78 59.574-56.1 59.574-56.1s-8.662-8.68-15.829-10.93c-7.29-2.3-12.135-1.77-19.57 0-7.435 1.76-18.678 19.57-31.37 31.37-14.078 13.08-20.739 21.81-37.383 32.01"/></g><g filter="url(#v)"><path fill="url(#w)" d="M688.183 1310.15c1.314-5.94 6.243-14.28 6.243-14.28s-21.359 15.62-31.773 26.67c-5.807 6.16-11.972 18.31-11.972 18.31l18.838-3.75 18.118-10.63s-.921-9.69.546-16.32"/><path fill="#6D6D6D" fill-opacity=".1" d="M688.183 1310.15c1.314-5.94 6.243-14.28 6.243-14.28s-21.359 15.62-31.773 26.67c-5.807 6.16-11.972 18.31-11.972 18.31l18.838-3.75 18.118-10.63s-.921-9.69.546-16.32"/></g><g filter="url(#x)"><path fill="url(#y)" d="M615.383 1262.08c-5.921 4.44-14.011 12.76-14.011 12.76s25.159-.72 41.259-9.39c22.989-12.39 77.464-85.45 77.464-85.45s-58.668 54.38-77.464 66.08c-9.171 5.71-18.604 9.52-27.248 16"/><path fill="#6D6D6D" fill-opacity=".1" d="M615.383 1262.08c-5.921 4.44-14.011 12.76-14.011 12.76s25.159-.72 41.259-9.39c22.989-12.39 77.464-85.45 77.464-85.45s-58.668 54.38-77.464 66.08c-9.171 5.71-18.604 9.52-27.248 16"/></g><g filter="url(#z)"><path fill="url(#A)" d="m706.657 1356.85-12.99-24.32c-.045-.04-.067-.08-.067-.13l.067.13c1.58 1.43 30.581.62 67.167-31.76l-1.216 13.52-10.647 12.58z"/><path fill="#6D6D6D" fill-opacity=".1" d="m706.657 1356.85-12.99-24.32c-.045-.04-.067-.08-.067-.13l.067.13c1.58 1.43 30.581.62 67.167-31.76l-1.216 13.52-10.647 12.58z"/></g></g><g filter="url(#B)"><path fill="url(#C)" d="M1087.44 540.762c-51.5-7.103-93.774 20.094-93.774 20.094s64.494-119.25 106.414-199.082c0 0 53.9-107.331 94.76-172.382C1243.21 112.382 1380.8 0 1380.8 0l9.18 552.053c-62.62 79.072-122.8 157.717-185.61 225.372 0 0 51.82-101.995-9.53-183.44-5.89-7.82-51.39-45.498-107.4-53.223"/><path fill="#6D6D6D" fill-opacity=".1" d="M1087.44 540.762c-51.5-7.103-93.774 20.094-93.774 20.094s64.494-119.25 106.414-199.082c0 0 53.9-107.331 94.76-172.382C1243.21 112.382 1380.8 0 1380.8 0l9.18 552.053c-62.62 79.072-122.8 157.717-185.61 225.372 0 0 51.82-101.995-9.53-183.44-5.89-7.82-51.39-45.498-107.4-53.223"/></g><mask id="D" width="417" height="439" x="688" y="794" maskUnits="userSpaceOnUse" style="mask-type:alpha"><path fill="#D9D9D9" d="m710.245 1059.9-21.36 16.45v27.75l266.383 128.89v-27.74l21.361-16.45v-27.75l21.359-16.44v-27.75l21.362-16.45v-27.74l21.36-16.45v-27.74l21.36-16.45v-27.732l21.36-16.449v-27.744l21.36-16.449-266.319-128.909-21.36 16.45-.001 27.743-21.361 16.449v27.743l-21.425 16.45.001 27.743-21.36 16.45v27.743l-21.36 16.449v27.743l-21.36 16.45z"/></mask><g mask="url(#D)"><path fill="#023558" d="M683.609 1073.8v27.74L960.322 1236v-28.44z"/><path fill="#023558" d="M816.812 760.644 640.644 1102.26l324.899 151.15 185.227-336.512z"/><path fill="#024D81" d="m707.389 1058.39-21.545 16.36 270.872 131.07 21.201-16.41zm16.494-46.5-21.545 16.36 275.478 133.23 21.16-16.54zm14.458-47.555L716.5 980.599l281.794 136.271 21.156-16.54zm25.91-42.012-21.982 16.155 281.791 136.362 21.16-16.54zm27.16-41.381-21.983 16.155L1051.3 1033.46l21.14-16.44zm20.784-44.439-21.982 16.155 281.757 136.45 21.35-16.468zm24.214-42.672L814.6 809.993l281.7 136.357 21.07-16.539z"/></g><path fill="#000" fill-opacity=".15" d="M742.31 1099.99 687.09 1143l-3.119 14.93 6.467 7.11 11.936 1.68.419-4.2-2.645-3.27 53.489-46.81 61.395-44.84 47.8-60.87 38.977-29.653 40.772 20.875-40.772 27.968-15.005 20.02-12.602 21.66-15.123 21.36 42.73 20.68 3.914-7.96-18.919-18.59 7.728-5.88 12.823-21.27 16.577-19.53s19.078-7.87 30.317-14.71c15.43-9.4 36.022-29.034 36.022-29.034s3.904-6.271 4.313-10.791c.531-5.867-4.313-14.455-4.313-14.455l-26.97-23.467s-3.039-17.641 4.495-22.475c16.919-10.857 52.014-26.809 52.014-26.809l-5.14-13.005c-2.39-6.134-1.42-11.873 5.14-11.873 6.57 0 13.34-1.925 19.27-7.392 4.14-3.823 9.06-6.732 7.7-12.201-1.55-6.238-9.85-7.039-15.94-7.039-11.56 0-23.59 2.591-34.147 10.892-3.233 2.542-6.422 8.348-6.422 8.348l-9.087 7.392s-54.311 11.873-66.899 20.855c-4.579 3.268-9.402 10.913-9.402 10.913l-23.79 54.123-45.433 38.909-39.852 63.389z"/><path fill="url(#E)" d="M678.498 1135.39s-.355 4.99 0 8.16c.516 4.6 1.162 7.25 3.206 11.4 2.687 5.46 6.559 11.77 6.559 11.77h11.49v-4.36s-3.986-3.41-4.202-5.98c-.521-6.19 0-17.49 0-17.49h4.202s2.91-49.61 6.297-57.32c2.118-4.82 15.493-19.2 20.16-40.84 3.72-17.25 8.705-43.792 8.705-43.792 17.183 8.952 25.667 13.092 40.359 26.542 0 0-2.323 10.3-4.621 17.25-2.506 7.57-3.171 12.61-4.901 20.35-2.616 11.7-8.131 31.48-8.131 31.48-.995 4.63-2.251 8.79 1.288 11.29 3.539 2.51 28.036 4.26 39.008 7.62v-4.38l-25.828-12.56s8.07-17.92 11.113-29.22c4.249-15.78 14.715-39.04 14.715-39.04s3.604-8.65 2.296-14.06c-1.176-4.87-7.176-10.62-7.176-10.62l-34.657-32.594s2.166-24.056 3.219-38.224c1.27-17.094 7.283-25.667 7.975-42.794.178-4.393.397-12.509-.82-14.908-1.777-3.505-7.155-7.077-7.155-7.077s5.357-6.448 7.155-11.567c2.953-8.405 2.736-15.735 0-23.152-1.952-5.294-9.268-12.313-18.527-11.913-7.88.34-11.636 3.887-14.855 9.533-2.656 4.66-1.941 10.595-1.063 16.125.825 5.196 2.392 13.256 2.392 13.256-12.339 6.807-18.27 20.539-21.26 25.408-3.504 5.706-12.014 31.025-12.014 50.838 0 8.701-3.807 29.114-4.013 49.911l4.013 4.94s.979 44.558-6.526 60.358c-3.589 7.56-6.931 15.06-9.942 26.62-5.361 20.58-5.783 57.2-5.783 57.2z"/><path fill="url(#F)" d="M729.163 985.751c-.995-4.439-3.094-5.667-3.094-10.059 0-2.162 2.761-23.33 6.655-37.807 4.237-15.746 14.677-39.091 14.677-39.091l-21.332-4.19s-6.274 22.85-8.635 37.81c-3.215 20.366-1.097 35.217-2.406 52.667-.141 1.887-1.086 3.414-1.716 4.666-.63 1.251-.828 1.56-.828 2.217-.001.657.674 1.016 1.423 1.154.934.172 3.206-3.414 4.993-6.316.211 3.072-.451 8.107-1.605 9.696s.353 3.426 1.356 2.978c3.296-1.469 4.716-5.262 5.951-9.928 0 0 2.223 7.99 2.662 9.197s2.283.899 2.592 0 .536-7.511-.693-12.994"/><defs><linearGradient id="b" x1="97.477" x2="616.618" y1="733.921" y2="968.297" gradientUnits="userSpaceOnUse"><stop stop-color="#FCFF32"/><stop offset=".223" stop-color="#32FF92"/><stop offset=".32" stop-color="#024D81"/></linearGradient><linearGradient id="d" x1="968.783" x2="1211.48" y1="581.13" y2="785.163" gradientUnits="userSpaceOnUse"><stop stop-color="#A6FE5B"/><stop offset="1" stop-color="#01518A"/></linearGradient><linearGradient id="e" x1="968.783" x2="1211.48" y1="581.13" y2="785.163" gradientUnits="userSpaceOnUse"><stop stop-color="#A6FE5B"/><stop offset="1" stop-color="#01518A"/></linearGradient><linearGradient id="j" x1="633.2" x2="1180.1" y1="758.001" y2="994.679" gradientUnits="userSpaceOnUse"><stop stop-color="#0A7FD2"/><stop offset=".512" stop-color="#32FF92"/><stop offset="1" stop-color="#FCFF32"/></linearGradient><linearGradient id="n" x1="640.4" x2="738.116" y1="750.801" y2="885.724" gradientUnits="userSpaceOnUse"><stop stop-color="#0A7FD2"/><stop offset=".704" stop-color="#32FF92"/><stop offset="1" stop-color="#FCFF32"/></linearGradient><linearGradient id="p" x1="684.966" x2="853.265" y1="1127.33" y2="1371.42" gradientUnits="userSpaceOnUse"><stop stop-color="#0A7FD2"/><stop offset=".512" stop-color="#32FF92"/><stop offset="1" stop-color="#FCFF32"/></linearGradient><linearGradient id="s" x1="815.493" x2="861.312" y1="1224.54" y2="1227.55" gradientUnits="userSpaceOnUse"><stop stop-color="#4DFB7E"/><stop offset=".481" stop-color="#2DEE94"/><stop offset="1" stop-color="#1DBCB3"/></linearGradient><linearGradient id="u" x1="802.776" x2="980.378" y1="1314.72" y2="1282.87" gradientUnits="userSpaceOnUse"><stop stop-color="#A6FF5B"/><stop offset=".481" stop-color="#2DEE99"/><stop offset="1" stop-color="#7BFF6F"/></linearGradient><linearGradient id="w" x1="654.669" x2="714.96" y1="1335.56" y2="1326.38" gradientUnits="userSpaceOnUse"><stop stop-color="#32FF92"/><stop offset=".481" stop-color="#2DEE99"/><stop offset="1" stop-color="#1DBCB3"/></linearGradient><linearGradient id="y" x1="599.094" x2="706.113" y1="1269.07" y2="1194.95" gradientUnits="userSpaceOnUse"><stop stop-color="#17BCB8"/><stop offset=".476" stop-color="#1DB2AC"/><stop offset="1" stop-color="#1CA0A2"/></linearGradient><linearGradient id="A" x1="693.6" x2="748.221" y1="1333.25" y2="1336.44" gradientUnits="userSpaceOnUse"><stop stop-color="#4DFB7E"/><stop offset=".481" stop-color="#2DEE94"/><stop offset="1" stop-color="#1DBCB3"/></linearGradient><linearGradient id="C" x1="1054.8" x2="1366" y1="404.4" y2="624.4" gradientUnits="userSpaceOnUse"><stop stop-color="#0A7FD2"/><stop offset=".623" stop-color="#023558"/><stop offset="1" stop-color="#023558"/></linearGradient><linearGradient id="E" x1="738.932" x2="739.04" y1="905.628" y2="1162.68" gradientUnits="userSpaceOnUse"><stop stop-color="#32FF92"/><stop offset="1" stop-color="#096BAE"/></linearGradient><linearGradient id="F" x1="741.655" x2="739.076" y1="1003.63" y2="894.941" gradientUnits="userSpaceOnUse"><stop stop-color="#FCFF32"/><stop offset="1" stop-color="#32FF92"/></linearGradient><filter id="a" width="838.712" height="602.613" x="554.667" y="798.404" color-interpolation-filters="sRGB" filterUnits="userSpaceOnUse"><feFlood flood-opacity="0" result="BackgroundImageFix"/><feBlend in="SourceGraphic" in2="BackgroundImageFix" result="shape"/><feGaussianBlur result="effect1_foregroundBlur_2427_1996" stdDeviation="20.369"/></filter><filter id="c" width="260.794" height="282.959" x="978.331" y="520.702" color-interpolation-filters="sRGB" filterUnits="userSpaceOnUse"><feFlood flood-opacity="0" result="BackgroundImageFix"/><feBlend in="SourceGraphic" in2="BackgroundImageFix" result="shape"/><feTurbulence baseFrequency="2.5 2.5" numOctaves="3" result="noise" seed="1706" stitchTiles="stitch" type="fractalNoise"/><feColorMatrix in="noise" result="alphaNoise" type="luminanceToAlpha"/><feComponentTransfer in="alphaNoise" result="coloredNoise1"><feFuncA tableValues="1 1 1 1 1 1 1 1 1 1 1 1 1 1 1 1 1 1 1 1 1 1 1 1 1 1 1 1 1 1 1 1 1 1 1 1 1 1 1 1 1 1 1 1 1 1 1 1 1 1 1 0 0 0 0 0 0 0 0 0 0 0 0 0 0 0 0 0 0 0 0 0 0 0 0 0 0 0 0 0 0 0 0 0 0 0 0 0 0 0 0 0 0 0 0 0 0 0 0 0" type="discrete"/></feComponentTransfer><feComposite in="coloredNoise1" in2="shape" operator="in" result="noise1Clipped"/><feFlood flood-color="rgba(0, 0, 0, 0.08)" result="color1Flood"/><feComposite in="color1Flood" in2="noise1Clipped" operator="in" result="color1"/><feMerge result="effect1_noise_2427_1996"><feMergeNode in="shape"/><feMergeNode in="color1"/></feMerge></filter><filter id="g" width="125.757" height="119.903" x="965.428" y="520.783" color-interpolation-filters="sRGB" filterUnits="userSpaceOnUse"><feFlood flood-opacity="0" result="BackgroundImageFix"/><feBlend in="SourceGraphic" in2="BackgroundImageFix" result="shape"/><feGaussianBlur result="effect1_foregroundBlur_2427_1996" stdDeviation="6.4"/></filter><filter id="h" width="144.214" height="147.538" x="1122.39" y="665.635" color-interpolation-filters="sRGB" filterUnits="userSpaceOnUse"><feFlood flood-opacity="0" result="BackgroundImageFix"/><feBlend in="SourceGraphic" in2="BackgroundImageFix" result="shape"/><feGaussianBlur result="effect1_foregroundBlur_2427_1996" stdDeviation="6.4"/></filter><filter id="i" width="619.678" height="421.684" x="646.337" y="503.712" color-interpolation-filters="sRGB" filterUnits="userSpaceOnUse"><feFlood flood-opacity="0" result="BackgroundImageFix"/><feBlend in="SourceGraphic" in2="BackgroundImageFix" result="shape"/><feTurbulence baseFrequency="1.25 1.25" numOctaves="3" result="noise" seed="1706" stitchTiles="stitch" type="fractalNoise"/><feColorMatrix in="noise" result="alphaNoise" type="luminanceToAlpha"/><feComponentTransfer in="alphaNoise" result="coloredNoise1"><feFuncA tableValues="1 1 1 1 1 1 1 1 1 1 1 1 1 1 1 1 1 1 1 1 1 1 1 1 1 1 1 1 1 1 1 1 1 1 1 1 1 1 1 1 1 1 1 1 1 1 1 1 1 1 1 0 0 0 0 0 0 0 0 0 0 0 0 0 0 0 0 0 0 0 0 0 0 0 0 0 0 0 0 0 0 0 0 0 0 0 0 0 0 0 0 0 0 0 0 0 0 0 0 0" type="discrete"/></feComponentTransfer><feComposite in="coloredNoise1" in2="shape" operator="in" result="noise1Clipped"/><feFlood flood-color="rgba(0, 0, 0, 0.05)" result="color1Flood"/><feComposite in="color1Flood" in2="noise1Clipped" operator="in" result="color1"/><feMerge result="effect1_noise_2427_1996"><feMergeNode in="shape"/><feMergeNode in="color1"/></feMerge></filter><filter id="k" width="206.218" height="72.426" x="635.628" y="721.427" color-interpolation-filters="sRGB" filterUnits="userSpaceOnUse"><feFlood flood-opacity="0" result="BackgroundImageFix"/><feBlend in="SourceGraphic" in2="BackgroundImageFix" result="shape"/><feTurbulence baseFrequency="1.25 1.25" numOctaves="3" result="noise" seed="1706" stitchTiles="stitch" type="fractalNoise"/><feColorMatrix in="noise" result="alphaNoise" type="luminanceToAlpha"/><feComponentTransfer in="alphaNoise" result="coloredNoise1"><feFuncA tableValues="1 1 1 1 1 1 1 1 1 1 1 1 1 1 1 1 1 1 1 1 1 1 1 1 1 1 1 1 1 1 1 1 1 1 1 1 1 1 1 1 1 1 1 1 1 1 1 1 1 1 1 0 0 0 0 0 0 0 0 0 0 0 0 0 0 0 0 0 0 0 0 0 0 0 0 0 0 0 0 0 0 0 0 0 0 0 0 0 0 0 0 0 0 0 0 0 0 0 0 0" type="discrete"/></feComponentTransfer><feComposite in="coloredNoise1" in2="shape" operator="in" result="noise1Clipped"/><feFlood flood-color="rgba(0, 0, 0, 0.05)" result="color1Flood"/><feComposite in="color1Flood" in2="noise1Clipped" operator="in" result="color1"/><feMerge result="effect1_noise_2427_1996"><feMergeNode in="shape"/><feMergeNode in="color1"/></feMerge></filter><filter id="o" width="365.582" height="233.523" x="589.69" y="1104.12" color-interpolation-filters="sRGB" filterUnits="userSpaceOnUse"><feFlood flood-opacity="0" result="BackgroundImageFix"/><feBlend in="SourceGraphic" in2="BackgroundImageFix" result="shape"/><feTurbulence baseFrequency="2.5 2.5" numOctaves="3" result="noise" seed="1706" stitchTiles="stitch" type="fractalNoise"/><feColorMatrix in="noise" result="alphaNoise" type="luminanceToAlpha"/><feComponentTransfer in="alphaNoise" result="coloredNoise1"><feFuncA tableValues="1 1 1 1 1 1 1 1 1 1 1 1 1 1 1 1 1 1 1 1 1 1 1 1 1 1 1 1 1 1 1 1 1 1 1 1 1 1 1 1 1 1 1 1 1 1 1 1 1 1 1 0 0 0 0 0 0 0 0 0 0 0 0 0 0 0 0 0 0 0 0 0 0 0 0 0 0 0 0 0 0 0 0 0 0 0 0 0 0 0 0 0 0 0 0 0 0 0 0 0" type="discrete"/></feComponentTransfer><feComposite in="coloredNoise1" in2="shape" operator="in" result="noise1Clipped"/><feFlood flood-color="rgba(0, 0, 0, 0.05)" result="color1Flood"/><feComposite in="color1Flood" in2="noise1Clipped" operator="in" result="color1"/><feMerge result="effect1_noise_2427_1996"><feMergeNode in="shape"/><feMergeNode in="color1"/></feMerge></filter><filter id="r" width="56.45" height="41.898" x="815.493" y="1200.27" color-interpolation-filters="sRGB" filterUnits="userSpaceOnUse"><feFlood flood-opacity="0" result="BackgroundImageFix"/><feBlend in="SourceGraphic" in2="BackgroundImageFix" result="shape"/><feTurbulence baseFrequency="2.5 2.5" numOctaves="3" result="noise" seed="1706" stitchTiles="stitch" type="fractalNoise"/><feColorMatrix in="noise" result="alphaNoise" type="luminanceToAlpha"/><feComponentTransfer in="alphaNoise" result="coloredNoise1"><feFuncA tableValues="1 1 1 1 1 1 1 1 1 1 1 1 1 1 1 1 1 1 1 1 1 1 1 1 1 1 1 1 1 1 1 1 1 1 1 1 1 1 1 1 1 1 1 1 1 1 1 1 1 1 1 0 0 0 0 0 0 0 0 0 0 0 0 0 0 0 0 0 0 0 0 0 0 0 0 0 0 0 0 0 0 0 0 0 0 0 0 0 0 0 0 0 0 0 0 0 0 0 0 0" type="discrete"/></feComponentTransfer><feComposite in="coloredNoise1" in2="shape" operator="in" result="noise1Clipped"/><feFlood flood-color="rgba(0, 0, 0, 0.05)" result="color1Flood"/><feComposite in="color1Flood" in2="noise1Clipped" operator="in" result="color1"/><feMerge result="effect1_noise_2427_1996"><feMergeNode in="shape"/><feMergeNode in="color1"/></feMerge></filter><filter id="t" width="174.941" height="107.658" x="801.07" y="1207.8" color-interpolation-filters="sRGB" filterUnits="userSpaceOnUse"><feFlood flood-opacity="0" result="BackgroundImageFix"/><feBlend in="SourceGraphic" in2="BackgroundImageFix" result="shape"/><feTurbulence baseFrequency="2.5 2.5" numOctaves="3" result="noise" seed="1706" stitchTiles="stitch" type="fractalNoise"/><feColorMatrix in="noise" result="alphaNoise" type="luminanceToAlpha"/><feComponentTransfer in="alphaNoise" result="coloredNoise1"><feFuncA tableValues="1 1 1 1 1 1 1 1 1 1 1 1 1 1 1 1 1 1 1 1 1 1 1 1 1 1 1 1 1 1 1 1 1 1 1 1 1 1 1 1 1 1 1 1 1 1 1 1 1 1 1 0 0 0 0 0 0 0 0 0 0 0 0 0 0 0 0 0 0 0 0 0 0 0 0 0 0 0 0 0 0 0 0 0 0 0 0 0 0 0 0 0 0 0 0 0 0 0 0 0" type="discrete"/></feComponentTransfer><feComposite in="coloredNoise1" in2="shape" operator="in" result="noise1Clipped"/><feFlood flood-color="rgba(0, 0, 0, 0.05)" result="color1Flood"/><feComposite in="color1Flood" in2="noise1Clipped" operator="in" result="color1"/><feMerge result="effect1_noise_2427_1996"><feMergeNode in="shape"/><feMergeNode in="color1"/></feMerge></filter><filter id="v" width="43.745" height="44.978" x="650.681" y="1295.87" color-interpolation-filters="sRGB" filterUnits="userSpaceOnUse"><feFlood flood-opacity="0" result="BackgroundImageFix"/><feBlend in="SourceGraphic" in2="BackgroundImageFix" result="shape"/><feTurbulence baseFrequency="2.5 2.5" numOctaves="3" result="noise" seed="1706" stitchTiles="stitch" type="fractalNoise"/><feColorMatrix in="noise" result="alphaNoise" type="luminanceToAlpha"/><feComponentTransfer in="alphaNoise" result="coloredNoise1"><feFuncA tableValues="1 1 1 1 1 1 1 1 1 1 1 1 1 1 1 1 1 1 1 1 1 1 1 1 1 1 1 1 1 1 1 1 1 1 1 1 1 1 1 1 1 1 1 1 1 1 1 1 1 1 1 0 0 0 0 0 0 0 0 0 0 0 0 0 0 0 0 0 0 0 0 0 0 0 0 0 0 0 0 0 0 0 0 0 0 0 0 0 0 0 0 0 0 0 0 0 0 0 0 0" type="discrete"/></feComponentTransfer><feComposite in="coloredNoise1" in2="shape" operator="in" result="noise1Clipped"/><feFlood flood-color="rgba(0, 0, 0, 0.05)" result="color1Flood"/><feComposite in="color1Flood" in2="noise1Clipped" operator="in" result="color1"/><feMerge result="effect1_noise_2427_1996"><feMergeNode in="shape"/><feMergeNode in="color1"/></feMerge></filter><filter id="x" width="118.724" height="94.844" x="601.372" y="1180" color-interpolation-filters="sRGB" filterUnits="userSpaceOnUse"><feFlood flood-opacity="0" result="BackgroundImageFix"/><feBlend in="SourceGraphic" in2="BackgroundImageFix" result="shape"/><feTurbulence baseFrequency="2.5 2.5" numOctaves="3" result="noise" seed="1706" stitchTiles="stitch" type="fractalNoise"/><feColorMatrix in="noise" result="alphaNoise" type="luminanceToAlpha"/><feComponentTransfer in="alphaNoise" result="coloredNoise1"><feFuncA tableValues="1 1 1 1 1 1 1 1 1 1 1 1 1 1 1 1 1 1 1 1 1 1 1 1 1 1 1 1 1 1 1 1 1 1 1 1 1 1 1 1 1 1 1 1 1 1 1 1 1 1 1 0 0 0 0 0 0 0 0 0 0 0 0 0 0 0 0 0 0 0 0 0 0 0 0 0 0 0 0 0 0 0 0 0 0 0 0 0 0 0 0 0 0 0 0 0 0 0 0 0" type="discrete"/></feComponentTransfer><feComposite in="coloredNoise1" in2="shape" operator="in" result="noise1Clipped"/><feFlood flood-color="rgba(0, 0, 0, 0.05)" result="color1Flood"/><feComposite in="color1Flood" in2="noise1Clipped" operator="in" result="color1"/><feMerge result="effect1_noise_2427_1996"><feMergeNode in="shape"/><feMergeNode in="color1"/></feMerge></filter><filter id="z" width="67.235" height="56.078" x="693.6" y="1300.77" color-interpolation-filters="sRGB" filterUnits="userSpaceOnUse"><feFlood flood-opacity="0" result="BackgroundImageFix"/><feBlend in="SourceGraphic" in2="BackgroundImageFix" result="shape"/><feTurbulence baseFrequency="2.5 2.5" numOctaves="3" result="noise" seed="1706" stitchTiles="stitch" type="fractalNoise"/><feColorMatrix in="noise" result="alphaNoise" type="luminanceToAlpha"/><feComponentTransfer in="alphaNoise" result="coloredNoise1"><feFuncA tableValues="1 1 1 1 1 1 1 1 1 1 1 1 1 1 1 1 1 1 1 1 1 1 1 1 1 1 1 1 1 1 1 1 1 1 1 1 1 1 1 1 1 1 1 1 1 1 1 1 1 1 1 0 0 0 0 0 0 0 0 0 0 0 0 0 0 0 0 0 0 0 0 0 0 0 0 0 0 0 0 0 0 0 0 0 0 0 0 0 0 0 0 0 0 0 0 0 0 0 0 0" type="discrete"/></feComponentTransfer><feComposite in="coloredNoise1" in2="shape" operator="in" result="noise1Clipped"/><feFlood flood-color="rgba(0, 0, 0, 0.05)" result="color1Flood"/><feComposite in="color1Flood" in2="noise1Clipped" operator="in" result="color1"/><feMerge result="effect1_noise_2427_1996"><feMergeNode in="shape"/><feMergeNode in="color1"/></feMerge></filter><filter id="B" width="396.31" height="777.425" x="993.666" y="0" color-interpolation-filters="sRGB" filterUnits="userSpaceOnUse"><feFlood flood-opacity="0" result="BackgroundImageFix"/><feBlend in="SourceGraphic" in2="BackgroundImageFix" result="shape"/><feTurbulence baseFrequency="1.25 1.25" numOctaves="3" result="noise" seed="1706" stitchTiles="stitch" type="fractalNoise"/><feColorMatrix in="noise" result="alphaNoise" type="luminanceToAlpha"/><feComponentTransfer in="alphaNoise" result="coloredNoise1"><feFuncA tableValues="1 1 1 1 1 1 1 1 1 1 1 1 1 1 1 1 1 1 1 1 1 1 1 1 1 1 1 1 1 1 1 1 1 1 1 1 1 1 1 1 1 1 1 1 1 1 1 1 1 1 1 0 0 0 0 0 0 0 0 0 0 0 0 0 0 0 0 0 0 0 0 0 0 0 0 0 0 0 0 0 0 0 0 0 0 0 0 0 0 0 0 0 0 0 0 0 0 0 0 0" type="discrete"/></feComponentTransfer><feComposite in="coloredNoise1" in2="shape" operator="in" result="noise1Clipped"/><feFlood flood-color="rgba(0, 0, 0, 0.05)" result="color1Flood"/><feComposite in="color1Flood" in2="noise1Clipped" operator="in" result="color1"/><feMerge result="effect1_noise_2427_1996"><feMergeNode in="shape"/><feMergeNode in="color1"/></feMerge></filter></defs></svg>