<svg xmlns="http://www.w3.org/2000/svg" width="1814" height="1782" fill="none"><g filter="url(#a)"><path fill="#000" fill-opacity=".3" d="m769.18 1626-24.922-26.91v-46.86l49.958-81.06 83.994-99.11-10.079-85.67-10.079-43.08-11.139-36.46 31.297-22.12 58.796-12.57 329.254 18.37 115.92-26.88h104.15c99.11-54.31 194.11-110.62 202.17-114.65s-7.4 166.56-10.76 271.27l-77.86 82.74-139.43 119.27-125.99 45.36-103.09 74.03-78.15 37.17-144.79 21.51-87.727-12.54-36.884-8.97-62.802-10.97-51.837-7.97z"/></g><path fill="url(#b)" d="M26.932 858.048 0 878.5l975.601 452.31 26.499-20.51z"/><path fill="url(#c)" d="m1008.29 1386.48-26.936 20.45L1787.5 1782l26.5-20.51z"/><g filter="url(#d)"><path fill="url(#e)" d="M1298.98 949.148c-74.07-64.619-102-203.657-47.72-259.394 63.72-65.432 172.72-41.855 236.87 23.128 72.3 73.253 88.34 211.848 2.66 270.448-62.55 42.78-134.73 15.615-191.81-34.182"/><path fill="#6D6D6D" fill-opacity=".1" d="M1298.98 949.148c-74.07-64.619-102-203.657-47.72-259.394 63.72-65.432 172.72-41.855 236.87 23.128 72.3 73.253 88.34 211.848 2.66 270.448-62.55 42.78-134.73 15.615-191.81-34.182"/></g><mask id="g" width="327" height="355" x="1222" y="650" maskUnits="userSpaceOnUse" style="mask-type:alpha"><path fill="url(#f)" d="M1298.98 949.148c-74.07-64.619-102-203.657-47.72-259.394 63.72-65.432 172.72-41.855 236.87 23.128 72.3 73.253 88.34 211.848 2.66 270.448-62.55 42.78-134.73 15.615-191.81-34.182"/><path fill="#6D6D6D" fill-opacity=".1" d="M1298.98 949.148c-74.07-64.619-102-203.657-47.72-259.394 63.72-65.432 172.72-41.855 236.87 23.128 72.3 73.253 88.34 211.848 2.66 270.448-62.55 42.78-134.73 15.615-191.81-34.182"/></mask><g mask="url(#g)"><g filter="url(#h)"><path fill="#000" fill-opacity=".15" d="m1347.98 669.397-39.96-2.42s-26.02 43.176-46.31 68.838c-14.62 18.479-38.62 30.56-38.62 30.56l-.3 9.608 3.4 8.872 96.7-12.91z"/></g><g filter="url(#i)"><path fill="#000" fill-opacity=".2" d="m1567.25 871.851-63.03-23.808s-26.02 43.176-46.31 68.837c-14.61 18.48-38.61 30.56-38.61 30.56l-.31 9.609 38.92 43.421s22.55-37.759 40.09-59.686c23.84-29.8 69.25-68.933 69.25-68.933"/></g></g><g filter="url(#j)"><path fill="url(#k)" d="M876.729 979.247c30.485-3.827 48.266-11.96 75.37-30.161 10.068-6.761 86.901-4.672 95.501-1.278 14.1 5.561 4.84 35.236.44 45.658l337.35 163.274 44.51-65c32.26-58.88 23.19-61.25 34.54-112.492 10.76-32.834 18.41-35.389 28.08-48.286 17.98-23.99 31.01-31.745 50.07-49.572 17.43-16.291 39.93-46.229 39.93-46.229l-74.91-171.041-148.19-34.481-52.74 47.05s-27.8 46.874-52.32 71.932c-8.78 8.966-17.81 15.174-31.27 19.696-50.03 16.81-96.37 5.348-148.35 29.581 0 0-41.88 22.49-67.12 31.118-28.821 9.849-48.448 8.503-76.114 22.006-21.598 10.542-29.435 23.832-50.742 34.824-21.545 11.114-40.419 15.075-56.877 21.502s-18.794 32.588-13.303 40.623c16.326 23.908 30.315 31.607 66.145 31.276"/><path fill="#6D6D6D" fill-opacity=".1" d="M876.729 979.247c30.485-3.827 48.266-11.96 75.37-30.161 10.068-6.761 86.901-4.672 95.501-1.278 14.1 5.561 4.84 35.236.44 45.658l337.35 163.274 44.51-65c32.26-58.88 23.19-61.25 34.54-112.492 10.76-32.834 18.41-35.389 28.08-48.286 17.98-23.99 31.01-31.745 50.07-49.572 17.43-16.291 39.93-46.229 39.93-46.229l-74.91-171.041-148.19-34.481-52.74 47.05s-27.8 46.874-52.32 71.932c-8.78 8.966-17.81 15.174-31.27 19.696-50.03 16.81-96.37 5.348-148.35 29.581 0 0-41.88 22.49-67.12 31.118-28.821 9.849-48.448 8.503-76.114 22.006-21.598 10.542-29.435 23.832-50.742 34.824-21.545 11.114-40.419 15.075-56.877 21.502s-18.794 32.588-13.303 40.623c16.326 23.908 30.315 31.607 66.145 31.276"/></g><mask id="m" width="804" height="638" x="807" y="588" maskUnits="userSpaceOnUse" style="mask-type:alpha"><path fill="#969696" d="M876.729 979.246c30.485-3.827 48.266-11.96 75.37-30.161 10.068-6.761 83.551-5.589 95.501-1.278s7.66 28.09 3.1 39.133c-12.92 31.28-20.64 46.02-38.6 74.07l334.55 164.35 83.25-133.62c32.26-58.88 51.58-102.282 62.93-153.53 10.76-32.833 18.41-35.388 28.08-48.285 17.99-23.991 31.01-31.745 50.08-49.573 17.42-16.29 39.92-46.228 39.92-46.228l-74.9-171.042-148.2-34.48-52.73 47.05s-27.8 46.873-52.33 71.932c-8.77 8.966-17.81 15.174-31.27 19.696-42.15 14.163-74.23 16.585-117.83 37.488-20.87 10.002-51.46 29.356-51.46 29.356s-49.33 26.263-74.57 34.89c-28.821 9.85-48.448 8.504-76.114 22.007-21.598 10.542-29.435 23.831-50.742 34.823-21.545 11.115-40.419 15.076-56.877 21.503s-18.794 32.588-13.303 40.623c16.326 23.907 30.315 31.607 66.145 31.276"/></mask><g filter="url(#l)" mask="url(#m)"><path fill="url(#o)" d="M872.054 933.476c-23.128 3.155-60.707 0-60.707 0l-16.812 10.74 44.363 48.099h56.01l54.366-25.476 103.036-14.685s-2.12-11.908-5.61-18.678c-5.49-10.676-16.67-20.343-33.62-27.086-23.822-9.48-42.093-2.185-67.244 2.803-29.755 5.901-43.382 20.135-73.782 24.283"/><path fill="#6D6D6D" fill-opacity=".1" d="M872.054 933.476c-23.128 3.155-60.707 0-60.707 0l-16.812 10.74 44.363 48.099h56.01l54.366-25.476 103.036-14.685s-2.12-11.908-5.61-18.678c-5.49-10.676-16.67-20.343-33.62-27.086-23.822-9.48-42.093-2.185-67.244 2.803-29.755 5.901-43.382 20.135-73.782 24.283"/></g><g filter="url(#p)"><path fill="url(#q)" d="M1194.09 1541.23s-8.88 5.77-26.82 19.86c-26.47 20.8-48.62 39.11-80.1 51.16-38.82 14.87-94.273 36.71-94.273 36.71s-23.559 6.57-33.313-2.66c-6.226-5.89-8.67-20.24-8.67-20.24-21.228 25.15-40.833 38.83-52.963 42.83-20.725 6.84-29.525 2.8-38.663-14.46-18.597 11.52-27.56 15.2-44.377 15.2-14.522 0-25.752-17.48-21.201-30.63 2.89-8.35 19.195-37.62 42.939-59.31 10.963-21.38 17.578-33.21 36.636-53.79 9.135-18.68 15.976-31.8 27.363-51.4-24.08 29.87-40.883 49.27-67.352 76.24-20.326 20.72-42.342 31.73-62.377 37.96-14.382 4.47-25.459.49-31.55-7.31-4.933-6.31-2.14-24.49 11.984-43.13l34.033-35.96c.022-.04 12.605-24.81 23.837-38.72 7.682-9.51 18.081-17.3 23.287-26.91 18.788-34.67 28.61-56.53 28.61-56.53zm-104.82-19.72c1.05-1.66-4.37-7.34-10.49-6.3-29.11 4.96-67.99 46.54-88.363 65.8 18.033-11.21 30.483-14.19 48.903-23.86 8.59-4.51 18.17-14.07 26.33-19.9 8.01-5.72 21.01-11.64 23.62-15.74"/><path fill="#6D6D6D" fill-opacity=".1" d="M1194.09 1541.23s-8.88 5.77-26.82 19.86c-26.47 20.8-48.62 39.11-80.1 51.16-38.82 14.87-94.273 36.71-94.273 36.71s-23.559 6.57-33.313-2.66c-6.226-5.89-8.67-20.24-8.67-20.24-21.228 25.15-40.833 38.83-52.963 42.83-20.725 6.84-29.525 2.8-38.663-14.46-18.597 11.52-27.56 15.2-44.377 15.2-14.522 0-25.752-17.48-21.201-30.63 2.89-8.35 19.195-37.62 42.939-59.31 10.963-21.38 17.578-33.21 36.636-53.79 9.135-18.68 15.976-31.8 27.363-51.4-24.08 29.87-40.883 49.27-67.352 76.24-20.326 20.72-42.342 31.73-62.377 37.96-14.382 4.47-25.459.49-31.55-7.31-4.933-6.31-2.14-24.49 11.984-43.13l34.033-35.96c.022-.04 12.605-24.81 23.837-38.72 7.682-9.51 18.081-17.3 23.287-26.91 18.788-34.67 28.61-56.53 28.61-56.53zm-104.82-19.72c1.05-1.66-4.37-7.34-10.49-6.3-29.11 4.96-67.99 46.54-88.363 65.8 18.033-11.21 30.483-14.19 48.903-23.86 8.59-4.51 18.17-14.07 26.33-19.9 8.01-5.72 21.01-11.64 23.62-15.74"/></g><mask id="r" width="458" height="293" x="737" y="1380" maskUnits="userSpaceOnUse" style="mask-type:luminance"><path fill="#fff" d="M1194.1 1541.23s-8.89 5.76-26.83 19.86c-26.47 20.8-48.62 39.11-80.1 51.16-38.8 14.86-94.215 36.69-94.273 36.71 0 0-23.559 6.57-33.313-2.66-6.226-5.89-8.67-20.24-8.67-20.24-21.228 25.15-40.833 38.83-52.963 42.83-20.725 6.84-29.525 2.8-38.663-14.46-18.597 11.52-27.56 15.2-44.377 15.2-14.522 0-25.751-17.48-21.201-30.63 2.89-8.35 19.195-37.62 42.939-59.31 10.963-21.38 17.578-33.21 36.636-53.79 9.135-18.68 15.976-31.8 27.363-51.4-24.08 29.86-40.883 49.27-67.352 76.24-20.326 20.71-42.342 31.73-62.377 37.96-14.382 4.47-25.459.49-31.55-7.31-4.933-6.31-2.14-24.49 11.984-43.13l34.033-35.96c.02-.04 12.604-24.81 23.837-38.72 7.682-9.52 18.081-17.3 23.287-26.91 18.788-34.67 28.687-56.62 28.687-56.62zm-104.83-19.72c1.05-1.66-4.37-7.34-10.49-6.3-29.11 4.96-67.99 46.54-88.363 65.8 18.033-11.21 30.483-14.19 48.903-23.86 8.59-4.51 18.17-14.08 26.33-19.9 8.01-5.73 21.01-11.64 23.62-15.74"/></mask><g mask="url(#r)"><g filter="url(#s)"><path fill="url(#t)" d="M1057.92 1507.68c-18.14 20.09-38.55 45.03-38.55 45.03l69.98-31.42s1.31-4.08 0-7.78c-1.56-4.39-4-8.81-8.1-11.02-8.23-4.41-17.07-1.74-23.33 5.19"/><path fill="#6D6D6D" fill-opacity=".1" d="M1057.92 1507.68c-18.14 20.09-38.55 45.03-38.55 45.03l69.98-31.42s1.31-4.08 0-7.78c-1.56-4.39-4-8.81-8.1-11.02-8.23-4.41-17.07-1.74-23.33 5.19"/></g><g filter="url(#u)"><path fill="url(#v)" d="M1089.82 1590.88c-23.99 14.7-88.48 53.43-88.48 53.43s114.03-30.24 144.21-48.86c33.99-20.98 74.46-70.12 74.46-70.12s-10.82-10.86-19.78-13.68c-9.11-2.86-15.17-2.21-24.46 0-9.3 2.21-23.35 24.48-39.22 39.22-17.6 16.35-25.92 27.26-46.73 40.01"/><path fill="#6D6D6D" fill-opacity=".1" d="M1089.82 1590.88c-23.99 14.7-88.48 53.43-88.48 53.43s114.03-30.24 144.21-48.86c33.99-20.98 74.46-70.12 74.46-70.12s-10.82-10.86-19.78-13.68c-9.11-2.86-15.17-2.21-24.46 0-9.3 2.21-23.35 24.48-39.22 39.22-17.6 16.35-25.92 27.26-46.73 40.01"/></g><g filter="url(#w)"><path fill="url(#x)" d="M860.229 1637.68c1.642-7.42 7.803-17.84 7.803-17.84s-26.698 19.52-39.715 33.33c-7.259 7.71-14.966 22.89-14.966 22.89l23.548-4.68 22.648-13.3s-1.152-12.11.682-20.4"/><path fill="#6D6D6D" fill-opacity=".1" d="M860.229 1637.68c1.642-7.42 7.803-17.84 7.803-17.84s-26.698 19.52-39.715 33.33c-7.259 7.71-14.966 22.89-14.966 22.89l23.548-4.68 22.648-13.3s-1.152-12.11.682-20.4"/></g><g filter="url(#y)"><path fill="url(#z)" d="M769.229 1577.6c-7.402 5.55-17.515 15.95-17.515 15.95s31.449-.89 51.575-11.74c28.735-15.48 96.83-106.81 96.83-106.81s-73.335 67.97-96.83 82.6c-11.465 7.14-23.255 11.9-34.06 20"/><path fill="#6D6D6D" fill-opacity=".1" d="M769.229 1577.6c-7.402 5.55-17.515 15.95-17.515 15.95s31.449-.89 51.575-11.74c28.735-15.48 96.83-106.81 96.83-106.81s-73.335 67.97-96.83 82.6c-11.465 7.14-23.255 11.9-34.06 20"/></g><g filter="url(#A)"><path fill="url(#B)" d="m883.321 1696.06-16.236-30.4a.22.22 0 0 1-.085-.16l.085.16c1.974 1.78 38.226.78 83.958-39.7l-1.52 16.9-13.309 15.72z"/><path fill="#6D6D6D" fill-opacity=".1" d="m883.321 1696.06-16.236-30.4a.22.22 0 0 1-.085-.16l.085.16c1.974 1.78 38.226.78 83.958-39.7l-1.52 16.9-13.309 15.72z"/></g></g><g filter="url(#C)"><path fill="url(#D)" d="M1359.3 675.953c-64.37-8.879-117.22 25.117-117.22 25.117s80.61-149.062 133.02-248.853c0 0 67.37-134.163 118.45-215.477C1554.01 140.477 1726 0 1726 0l11.47 690.067c-78.28 98.839-153.49 197.146-232 281.715 0 0 64.77-127.495-11.92-229.3-7.37-9.776-64.24-56.873-134.25-66.529"/><path fill="#6D6D6D" fill-opacity=".1" d="M1359.3 675.953c-64.37-8.879-117.22 25.117-117.22 25.117s80.61-149.062 133.02-248.853c0 0 67.37-134.163 118.45-215.477C1554.01 140.477 1726 0 1726 0l11.47 690.067c-78.28 98.839-153.49 197.146-232 281.715 0 0 64.77-127.495-11.92-229.3-7.37-9.776-64.24-56.873-134.25-66.529"/></g><mask id="E" width="520" height="549" x="861" y="993" maskUnits="userSpaceOnUse" style="mask-type:alpha"><path fill="#D9D9D9" d="m887.806 1324.88-26.701 20.56v34.68l332.975 161.12v-34.68l26.71-20.56v-34.68l26.69-20.56v-34.68l26.71-20.56-.01-34.68 26.7-20.56v-34.68l26.7-20.57.01-34.66 26.7-20.56v-34.68l26.7-20.56-332.9-161.136-26.7 20.566v34.67l-26.704 20.57v34.68l-26.781 20.56.001 34.68-26.701 20.56v34.68l-26.7 20.56v34.68l-26.699 20.56z"/></mask><g mask="url(#E)"><path fill="#023558" d="M854.511 1342.25v34.68L1200.4 1545v-35.55z"/><path fill="#023558" d="M1021.01 950.806 800.804 1377.82l406.126 188.95 231.53-420.65z"/><path fill="#024D81" d="m884.236 1322.99-26.932 20.45 338.586 163.83 26.51-20.5zm20.617-58.13-26.932 20.45 344.349 166.55 26.45-20.68zm18.073-59.44-27.301 20.33 352.245 170.34 26.45-20.68zm32.388-52.52-27.479 20.2 352.235 170.45 26.45-20.67zm33.949-51.72-27.478 20.19 352.335 170.46 26.43-20.55zm25.977-55.55-27.475 20.19 352.195 170.57 26.69-20.59zm30.27-53.341-27.26 20.201 352.12 170.45 26.35-20.68z"/></g><path fill="#000" fill-opacity=".15" d="m927.888 1374.99-69.025 53.76-3.899 18.67 8.084 8.88 14.92 2.1.524-5.24-3.306-4.1 66.86-58.5 76.744-56.06 59.75-76.08 48.72-37.07 50.97 26.09-50.97 34.96-18.75 25.02-15.76 27.08-18.9 26.7 53.41 25.86 4.89-9.96-23.64-23.24 9.66-7.34 16.02-26.59 20.73-24.42s23.84-9.83 37.89-18.39c19.29-11.75 45.03-36.29 45.03-36.29s4.88-7.84 5.39-13.48c.66-7.34-5.39-18.07-5.39-18.07l-33.71-29.34s-3.8-22.05 5.61-28.09c21.15-13.57 65.02-33.51 65.02-33.51l-6.42-16.26c-2.99-7.67-1.78-14.84 6.42-14.84 8.21 0 16.68-2.41 24.08-9.24 5.18-4.78 11.34-8.42 9.64-15.25-1.94-7.8-12.31-8.8-19.93-8.8-14.45 0-29.49 3.24-42.68 13.61-4.04 3.18-8.03 10.44-8.03 10.44l-11.36 9.24s-67.89 14.84-83.62 26.07c-5.73 4.08-11.76 13.64-11.76 13.64l-29.73 67.65-56.79 48.64-49.82 79.24z"/><path fill="url(#F)" d="M848.123 1419.24s-.445 6.24 0 10.2c.644 5.75 1.452 9.07 4.007 14.25 3.359 6.82 8.198 14.71 8.198 14.71h14.363v-5.44s-4.982-4.27-5.253-7.48c-.651-7.74 0-21.87 0-21.87h5.253s3.637-62.01 7.871-71.65c2.647-6.02 19.366-24 25.201-51.05 4.65-21.55 10.881-54.74 10.881-54.74 21.478 11.19 32.084 16.37 50.448 33.19 0 0-2.903 12.87-5.776 21.55-3.132 9.47-3.964 15.77-6.127 25.44-3.269 14.63-10.163 39.36-10.163 39.36-1.244 5.79-2.813 10.98 1.61 14.11 4.424 3.13 35.045 5.32 48.76 9.51v-5.47l-32.285-15.69s10.088-22.41 13.892-36.53c5.311-19.72 18.393-48.8 18.393-48.8s4.504-10.82 2.874-17.58c-1.474-6.08-8.974-13.27-8.974-13.27l-43.321-40.74s2.707-30.07 4.023-47.78c1.588-21.37 9.105-32.09 9.97-53.5.222-5.49.495-15.63-1.025-18.63-2.222-4.38-8.945-8.85-8.945-8.85s6.697-8.06 8.945-14.46c3.691-10.5 3.42-19.66 0-28.94-2.441-6.61-11.586-15.39-23.16-14.89-9.85.43-14.544 4.86-18.568 11.92-3.32 5.82-2.426 13.24-1.329 20.16 1.031 6.49 2.99 16.57 2.99 16.57-15.424 8.5-22.837 25.67-26.574 31.76-4.381 7.13-15.018 38.78-15.018 63.54 0 10.88-4.76 36.39-5.017 62.39l5.017 6.18s1.224 55.69-8.158 75.44c-4.487 9.45-8.663 18.82-12.428 33.28-6.7 25.72-7.228 71.5-7.228 71.5z"/><path fill="url(#G)" d="M911.454 1232.19c-1.244-5.55-3.867-7.08-3.867-12.57 0-2.7 3.451-29.17 8.319-47.26 5.295-19.68 18.346-48.87 18.346-48.87l-26.665-5.23s-7.843 28.56-10.795 47.26c-4.018 25.46-1.37 44.02-3.006 65.83-.177 2.36-1.359 4.27-2.146 5.84-.787 1.56-1.035 1.95-1.035 2.77s.843 1.27 1.779 1.44c1.168.21 4.008-4.27 6.241-7.9.264 3.84-.564 10.14-2.006 12.12-1.443 1.99.441 4.29 1.696 3.73 4.119-1.84 5.895-6.58 7.438-12.41 0 0 2.779 9.98 3.328 11.49s2.853 1.13 3.24 0c.386-1.12.67-9.39-.867-16.24"/><defs><linearGradient id="b" x1="121.846" x2="891.506" y1="917.399" y2="1260.79" gradientUnits="userSpaceOnUse"><stop stop-color="#FCFF32"/><stop offset=".223" stop-color="#32FF92"/><stop offset=".32" stop-color="#024D81"/></linearGradient><linearGradient id="c" x1="1212.63" x2="1660.19" y1="1498.9" y2="1714.17" gradientUnits="userSpaceOnUse"><stop offset=".52" stop-color="#024D81"/><stop offset=".701" stop-color="#32FF92"/><stop offset="1" stop-color="#FCFF32"/></linearGradient><linearGradient id="e" x1="1210.98" x2="1514.35" y1="726.412" y2="981.453" gradientUnits="userSpaceOnUse"><stop stop-color="#A6FE5B"/><stop offset="1" stop-color="#01518A"/></linearGradient><linearGradient id="f" x1="1210.98" x2="1514.35" y1="726.412" y2="981.453" gradientUnits="userSpaceOnUse"><stop stop-color="#A6FE5B"/><stop offset="1" stop-color="#01518A"/></linearGradient><linearGradient id="k" x1="791.5" x2="1475.13" y1="947.5" y2="1243.35" gradientUnits="userSpaceOnUse"><stop stop-color="#0A7FD2"/><stop offset=".512" stop-color="#32FF92"/><stop offset="1" stop-color="#FCFF32"/></linearGradient><linearGradient id="o" x1="800.5" x2="922.644" y1="938.5" y2="1107.15" gradientUnits="userSpaceOnUse"><stop stop-color="#0A7FD2"/><stop offset=".704" stop-color="#32FF92"/><stop offset="1" stop-color="#FCFF32"/></linearGradient><linearGradient id="q" x1="856.208" x2="1066.58" y1="1409.16" y2="1714.27" gradientUnits="userSpaceOnUse"><stop stop-color="#0A7FD2"/><stop offset=".512" stop-color="#32FF92"/><stop offset="1" stop-color="#FCFF32"/></linearGradient><linearGradient id="t" x1="1019.37" x2="1076.64" y1="1530.67" y2="1534.43" gradientUnits="userSpaceOnUse"><stop stop-color="#4DFB7E"/><stop offset=".481" stop-color="#2DEE94"/><stop offset="1" stop-color="#1DBCB3"/></linearGradient><linearGradient id="v" x1="1003.47" x2="1225.47" y1="1643.4" y2="1603.58" gradientUnits="userSpaceOnUse"><stop stop-color="#A6FF5B"/><stop offset=".481" stop-color="#2DEE99"/><stop offset="1" stop-color="#7BFF6F"/></linearGradient><linearGradient id="x" x1="818.336" x2="893.7" y1="1669.45" y2="1657.98" gradientUnits="userSpaceOnUse"><stop stop-color="#32FF92"/><stop offset=".481" stop-color="#2DEE99"/><stop offset="1" stop-color="#1DBCB3"/></linearGradient><linearGradient id="z" x1="748.867" x2="882.641" y1="1586.34" y2="1493.69" gradientUnits="userSpaceOnUse"><stop stop-color="#17BCB8"/><stop offset=".476" stop-color="#1DB2AC"/><stop offset="1" stop-color="#1CA0A2"/></linearGradient><linearGradient id="B" x1="867" x2="935.277" y1="1666.56" y2="1670.55" gradientUnits="userSpaceOnUse"><stop stop-color="#4DFB7E"/><stop offset=".481" stop-color="#2DEE94"/><stop offset="1" stop-color="#1DBCB3"/></linearGradient><linearGradient id="D" x1="1318.5" x2="1707.5" y1="505.5" y2="780.5" gradientUnits="userSpaceOnUse"><stop stop-color="#0A7FD2"/><stop offset=".623" stop-color="#023558"/><stop offset="1" stop-color="#023558"/></linearGradient><linearGradient id="F" x1="923.665" x2="923.8" y1="1132.04" y2="1453.35" gradientUnits="userSpaceOnUse"><stop stop-color="#32FF92"/><stop offset="1" stop-color="#096BAE"/></linearGradient><linearGradient id="G" x1="927.069" x2="923.846" y1="1254.54" y2="1118.68" gradientUnits="userSpaceOnUse"><stop stop-color="#FCFF32"/><stop offset="1" stop-color="#32FF92"/></linearGradient><filter id="a" width="1048.39" height="753.266" x="693.334" y="998.006" color-interpolation-filters="sRGB" filterUnits="userSpaceOnUse"><feFlood flood-opacity="0" result="BackgroundImageFix"/><feBlend in="SourceGraphic" in2="BackgroundImageFix" result="shape"/><feGaussianBlur result="effect1_foregroundBlur_2372_468" stdDeviation="25.462"/></filter><filter id="d" width="325.993" height="353.698" x="1222.91" y="650.877" color-interpolation-filters="sRGB" filterUnits="userSpaceOnUse"><feFlood flood-opacity="0" result="BackgroundImageFix"/><feBlend in="SourceGraphic" in2="BackgroundImageFix" result="shape"/><feTurbulence baseFrequency="2 2" numOctaves="3" result="noise" seed="1706" stitchTiles="stitch" type="fractalNoise"/><feColorMatrix in="noise" result="alphaNoise" type="luminanceToAlpha"/><feComponentTransfer in="alphaNoise" result="coloredNoise1"><feFuncA tableValues="1 1 1 1 1 1 1 1 1 1 1 1 1 1 1 1 1 1 1 1 1 1 1 1 1 1 1 1 1 1 1 1 1 1 1 1 1 1 1 1 1 1 1 1 1 1 1 1 1 1 1 0 0 0 0 0 0 0 0 0 0 0 0 0 0 0 0 0 0 0 0 0 0 0 0 0 0 0 0 0 0 0 0 0 0 0 0 0 0 0 0 0 0 0 0 0 0 0 0 0" type="discrete"/></feComponentTransfer><feComposite in="coloredNoise1" in2="shape" operator="in" result="noise1Clipped"/><feFlood flood-color="rgba(0, 0, 0, 0.08)" result="color1Flood"/><feComposite in="color1Flood" in2="noise1Clipped" operator="in" result="color1"/><feMerge result="effect1_noise_2372_468"><feMergeNode in="shape"/><feMergeNode in="color1"/></feMerge></filter><filter id="h" width="157.197" height="149.877" x="1206.79" y="650.978" color-interpolation-filters="sRGB" filterUnits="userSpaceOnUse"><feFlood flood-opacity="0" result="BackgroundImageFix"/><feBlend in="SourceGraphic" in2="BackgroundImageFix" result="shape"/><feGaussianBlur result="effect1_foregroundBlur_2372_468" stdDeviation="8"/></filter><filter id="i" width="180.267" height="184.422" x="1402.99" y="832.043" color-interpolation-filters="sRGB" filterUnits="userSpaceOnUse"><feFlood flood-opacity="0" result="BackgroundImageFix"/><feBlend in="SourceGraphic" in2="BackgroundImageFix" result="shape"/><feGaussianBlur result="effect1_foregroundBlur_2372_468" stdDeviation="8"/></filter><filter id="j" width="774.598" height="527.104" x="807.921" y="629.639" color-interpolation-filters="sRGB" filterUnits="userSpaceOnUse"><feFlood flood-opacity="0" result="BackgroundImageFix"/><feBlend in="SourceGraphic" in2="BackgroundImageFix" result="shape"/><feTurbulence baseFrequency="1 1" numOctaves="3" result="noise" seed="1706" stitchTiles="stitch" type="fractalNoise"/><feColorMatrix in="noise" result="alphaNoise" type="luminanceToAlpha"/><feComponentTransfer in="alphaNoise" result="coloredNoise1"><feFuncA tableValues="1 1 1 1 1 1 1 1 1 1 1 1 1 1 1 1 1 1 1 1 1 1 1 1 1 1 1 1 1 1 1 1 1 1 1 1 1 1 1 1 1 1 1 1 1 1 1 1 1 1 1 0 0 0 0 0 0 0 0 0 0 0 0 0 0 0 0 0 0 0 0 0 0 0 0 0 0 0 0 0 0 0 0 0 0 0 0 0 0 0 0 0 0 0 0 0 0 0 0 0" type="discrete"/></feComponentTransfer><feComposite in="coloredNoise1" in2="shape" operator="in" result="noise1Clipped"/><feFlood flood-color="rgba(0, 0, 0, 0.05)" result="color1Flood"/><feComposite in="color1Flood" in2="noise1Clipped" operator="in" result="color1"/><feMerge result="effect1_noise_2372_468"><feMergeNode in="shape"/><feMergeNode in="color1"/></feMerge></filter><filter id="l" width="257.772" height="90.532" x="794.535" y="901.782" color-interpolation-filters="sRGB" filterUnits="userSpaceOnUse"><feFlood flood-opacity="0" result="BackgroundImageFix"/><feBlend in="SourceGraphic" in2="BackgroundImageFix" result="shape"/><feTurbulence baseFrequency="1 1" numOctaves="3" result="noise" seed="1706" stitchTiles="stitch" type="fractalNoise"/><feColorMatrix in="noise" result="alphaNoise" type="luminanceToAlpha"/><feComponentTransfer in="alphaNoise" result="coloredNoise1"><feFuncA tableValues="1 1 1 1 1 1 1 1 1 1 1 1 1 1 1 1 1 1 1 1 1 1 1 1 1 1 1 1 1 1 1 1 1 1 1 1 1 1 1 1 1 1 1 1 1 1 1 1 1 1 1 0 0 0 0 0 0 0 0 0 0 0 0 0 0 0 0 0 0 0 0 0 0 0 0 0 0 0 0 0 0 0 0 0 0 0 0 0 0 0 0 0 0 0 0 0 0 0 0 0" type="discrete"/></feComponentTransfer><feComposite in="coloredNoise1" in2="shape" operator="in" result="noise1Clipped"/><feFlood flood-color="rgba(0, 0, 0, 0.05)" result="color1Flood"/><feComposite in="color1Flood" in2="noise1Clipped" operator="in" result="color1"/><feMerge result="effect1_noise_2372_468"><feMergeNode in="shape"/><feMergeNode in="color1"/></feMerge></filter><filter id="p" width="456.978" height="291.905" x="737.113" y="1380.14" color-interpolation-filters="sRGB" filterUnits="userSpaceOnUse"><feFlood flood-opacity="0" result="BackgroundImageFix"/><feBlend in="SourceGraphic" in2="BackgroundImageFix" result="shape"/><feTurbulence baseFrequency="2 2" numOctaves="3" result="noise" seed="1706" stitchTiles="stitch" type="fractalNoise"/><feColorMatrix in="noise" result="alphaNoise" type="luminanceToAlpha"/><feComponentTransfer in="alphaNoise" result="coloredNoise1"><feFuncA tableValues="1 1 1 1 1 1 1 1 1 1 1 1 1 1 1 1 1 1 1 1 1 1 1 1 1 1 1 1 1 1 1 1 1 1 1 1 1 1 1 1 1 1 1 1 1 1 1 1 1 1 1 0 0 0 0 0 0 0 0 0 0 0 0 0 0 0 0 0 0 0 0 0 0 0 0 0 0 0 0 0 0 0 0 0 0 0 0 0 0 0 0 0 0 0 0 0 0 0 0 0" type="discrete"/></feComponentTransfer><feComposite in="coloredNoise1" in2="shape" operator="in" result="noise1Clipped"/><feFlood flood-color="rgba(0, 0, 0, 0.05)" result="color1Flood"/><feComposite in="color1Flood" in2="noise1Clipped" operator="in" result="color1"/><feMerge result="effect1_noise_2372_468"><feMergeNode in="shape"/><feMergeNode in="color1"/></feMerge></filter><filter id="s" width="70.562" height="52.374" x="1019.37" y="1500.34" color-interpolation-filters="sRGB" filterUnits="userSpaceOnUse"><feFlood flood-opacity="0" result="BackgroundImageFix"/><feBlend in="SourceGraphic" in2="BackgroundImageFix" result="shape"/><feTurbulence baseFrequency="2 2" numOctaves="3" result="noise" seed="1706" stitchTiles="stitch" type="fractalNoise"/><feColorMatrix in="noise" result="alphaNoise" type="luminanceToAlpha"/><feComponentTransfer in="alphaNoise" result="coloredNoise1"><feFuncA tableValues="1 1 1 1 1 1 1 1 1 1 1 1 1 1 1 1 1 1 1 1 1 1 1 1 1 1 1 1 1 1 1 1 1 1 1 1 1 1 1 1 1 1 1 1 1 1 1 1 1 1 1 0 0 0 0 0 0 0 0 0 0 0 0 0 0 0 0 0 0 0 0 0 0 0 0 0 0 0 0 0 0 0 0 0 0 0 0 0 0 0 0 0 0 0 0 0 0 0 0 0" type="discrete"/></feComponentTransfer><feComposite in="coloredNoise1" in2="shape" operator="in" result="noise1Clipped"/><feFlood flood-color="rgba(0, 0, 0, 0.05)" result="color1Flood"/><feComposite in="color1Flood" in2="noise1Clipped" operator="in" result="color1"/><feMerge result="effect1_noise_2372_468"><feMergeNode in="shape"/><feMergeNode in="color1"/></feMerge></filter><filter id="u" width="218.677" height="134.572" x="1001.34" y="1509.74" color-interpolation-filters="sRGB" filterUnits="userSpaceOnUse"><feFlood flood-opacity="0" result="BackgroundImageFix"/><feBlend in="SourceGraphic" in2="BackgroundImageFix" result="shape"/><feTurbulence baseFrequency="2 2" numOctaves="3" result="noise" seed="1706" stitchTiles="stitch" type="fractalNoise"/><feColorMatrix in="noise" result="alphaNoise" type="luminanceToAlpha"/><feComponentTransfer in="alphaNoise" result="coloredNoise1"><feFuncA tableValues="1 1 1 1 1 1 1 1 1 1 1 1 1 1 1 1 1 1 1 1 1 1 1 1 1 1 1 1 1 1 1 1 1 1 1 1 1 1 1 1 1 1 1 1 1 1 1 1 1 1 1 0 0 0 0 0 0 0 0 0 0 0 0 0 0 0 0 0 0 0 0 0 0 0 0 0 0 0 0 0 0 0 0 0 0 0 0 0 0 0 0 0 0 0 0 0 0 0 0 0" type="discrete"/></feComponentTransfer><feComposite in="coloredNoise1" in2="shape" operator="in" result="noise1Clipped"/><feFlood flood-color="rgba(0, 0, 0, 0.05)" result="color1Flood"/><feComposite in="color1Flood" in2="noise1Clipped" operator="in" result="color1"/><feMerge result="effect1_noise_2372_468"><feMergeNode in="shape"/><feMergeNode in="color1"/></feMerge></filter><filter id="w" width="54.681" height="56.224" x="813.351" y="1619.84" color-interpolation-filters="sRGB" filterUnits="userSpaceOnUse"><feFlood flood-opacity="0" result="BackgroundImageFix"/><feBlend in="SourceGraphic" in2="BackgroundImageFix" result="shape"/><feTurbulence baseFrequency="2 2" numOctaves="3" result="noise" seed="1706" stitchTiles="stitch" type="fractalNoise"/><feColorMatrix in="noise" result="alphaNoise" type="luminanceToAlpha"/><feComponentTransfer in="alphaNoise" result="coloredNoise1"><feFuncA tableValues="1 1 1 1 1 1 1 1 1 1 1 1 1 1 1 1 1 1 1 1 1 1 1 1 1 1 1 1 1 1 1 1 1 1 1 1 1 1 1 1 1 1 1 1 1 1 1 1 1 1 1 0 0 0 0 0 0 0 0 0 0 0 0 0 0 0 0 0 0 0 0 0 0 0 0 0 0 0 0 0 0 0 0 0 0 0 0 0 0 0 0 0 0 0 0 0 0 0 0 0" type="discrete"/></feComponentTransfer><feComposite in="coloredNoise1" in2="shape" operator="in" result="noise1Clipped"/><feFlood flood-color="rgba(0, 0, 0, 0.05)" result="color1Flood"/><feComposite in="color1Flood" in2="noise1Clipped" operator="in" result="color1"/><feMerge result="effect1_noise_2372_468"><feMergeNode in="shape"/><feMergeNode in="color1"/></feMerge></filter><filter id="y" width="148.405" height="118.555" x="751.714" y="1475" color-interpolation-filters="sRGB" filterUnits="userSpaceOnUse"><feFlood flood-opacity="0" result="BackgroundImageFix"/><feBlend in="SourceGraphic" in2="BackgroundImageFix" result="shape"/><feTurbulence baseFrequency="2 2" numOctaves="3" result="noise" seed="1706" stitchTiles="stitch" type="fractalNoise"/><feColorMatrix in="noise" result="alphaNoise" type="luminanceToAlpha"/><feComponentTransfer in="alphaNoise" result="coloredNoise1"><feFuncA tableValues="1 1 1 1 1 1 1 1 1 1 1 1 1 1 1 1 1 1 1 1 1 1 1 1 1 1 1 1 1 1 1 1 1 1 1 1 1 1 1 1 1 1 1 1 1 1 1 1 1 1 1 0 0 0 0 0 0 0 0 0 0 0 0 0 0 0 0 0 0 0 0 0 0 0 0 0 0 0 0 0 0 0 0 0 0 0 0 0 0 0 0 0 0 0 0 0 0 0 0 0" type="discrete"/></feComponentTransfer><feComposite in="coloredNoise1" in2="shape" operator="in" result="noise1Clipped"/><feFlood flood-color="rgba(0, 0, 0, 0.05)" result="color1Flood"/><feComposite in="color1Flood" in2="noise1Clipped" operator="in" result="color1"/><feMerge result="effect1_noise_2372_468"><feMergeNode in="shape"/><feMergeNode in="color1"/></feMerge></filter><filter id="A" width="84.043" height="70.099" x="867" y="1625.96" color-interpolation-filters="sRGB" filterUnits="userSpaceOnUse"><feFlood flood-opacity="0" result="BackgroundImageFix"/><feBlend in="SourceGraphic" in2="BackgroundImageFix" result="shape"/><feTurbulence baseFrequency="2 2" numOctaves="3" result="noise" seed="1706" stitchTiles="stitch" type="fractalNoise"/><feColorMatrix in="noise" result="alphaNoise" type="luminanceToAlpha"/><feComponentTransfer in="alphaNoise" result="coloredNoise1"><feFuncA tableValues="1 1 1 1 1 1 1 1 1 1 1 1 1 1 1 1 1 1 1 1 1 1 1 1 1 1 1 1 1 1 1 1 1 1 1 1 1 1 1 1 1 1 1 1 1 1 1 1 1 1 1 0 0 0 0 0 0 0 0 0 0 0 0 0 0 0 0 0 0 0 0 0 0 0 0 0 0 0 0 0 0 0 0 0 0 0 0 0 0 0 0 0 0 0 0 0 0 0 0 0" type="discrete"/></feComponentTransfer><feComposite in="coloredNoise1" in2="shape" operator="in" result="noise1Clipped"/><feFlood flood-color="rgba(0, 0, 0, 0.05)" result="color1Flood"/><feComposite in="color1Flood" in2="noise1Clipped" operator="in" result="color1"/><feMerge result="effect1_noise_2372_468"><feMergeNode in="shape"/><feMergeNode in="color1"/></feMerge></filter><filter id="C" width="495.388" height="971.782" x="1242.08" y="0" color-interpolation-filters="sRGB" filterUnits="userSpaceOnUse"><feFlood flood-opacity="0" result="BackgroundImageFix"/><feBlend in="SourceGraphic" in2="BackgroundImageFix" result="shape"/><feTurbulence baseFrequency="1 1" numOctaves="3" result="noise" seed="1706" stitchTiles="stitch" type="fractalNoise"/><feColorMatrix in="noise" result="alphaNoise" type="luminanceToAlpha"/><feComponentTransfer in="alphaNoise" result="coloredNoise1"><feFuncA tableValues="1 1 1 1 1 1 1 1 1 1 1 1 1 1 1 1 1 1 1 1 1 1 1 1 1 1 1 1 1 1 1 1 1 1 1 1 1 1 1 1 1 1 1 1 1 1 1 1 1 1 1 0 0 0 0 0 0 0 0 0 0 0 0 0 0 0 0 0 0 0 0 0 0 0 0 0 0 0 0 0 0 0 0 0 0 0 0 0 0 0 0 0 0 0 0 0 0 0 0 0" type="discrete"/></feComponentTransfer><feComposite in="coloredNoise1" in2="shape" operator="in" result="noise1Clipped"/><feFlood flood-color="rgba(0, 0, 0, 0.05)" result="color1Flood"/><feComposite in="color1Flood" in2="noise1Clipped" operator="in" result="color1"/><feMerge result="effect1_noise_2372_468"><feMergeNode in="shape"/><feMergeNode in="color1"/></feMerge></filter></defs></svg>