<svg width="2108" height="3234" viewBox="0 0 2108 3234" fill="none" xmlns="http://www.w3.org/2000/svg">
<path d="M875.036 825.244C869.537 887.744 871.288 936.744 883.425 969.812C919.829 1068.99 956.593 1129.61 1039.12 1202.98C1103.37 1260.1 1156.54 1292.78 1231.42 1310.12C1305.55 1327.29 1433.26 1307.02 1456 1233.12C1476.37 1166.93 1442.58 1125.29 1389 1088.72C1301.36 1028.9 1211.93 1038.22 1104.5 1038.22C836.466 1038.22 915.962 1287.15 1062.2 1382.45C1156.65 1444 1233.45 1468.53 1344.7 1480.41C1430.27 1489.55 1507.22 1475.21 1551.46 1464.81C1628.19 1446.77 1668.89 1378.98 1618.68 1331.3C1558.8 1274.43 1508.62 1252.07 1433.19 1224.67C1354.3 1196.02 1308.05 1184.06 1226.42 1190C1092.64 1199.73 945.38 1268.01 988.171 1420.59C1006.89 1487.35 1047.54 1590.32 1131.5 1622.72C1243.81 1666.06 1322.86 1720.89 1410.5 1723.72C1516.86 1727.14 1599 1691.43 1682 1666.72C1743.14 1648.51 1751.91 1597.2 1763 1544.72C1775.36 1486.22 1693.29 1448.37 1655 1436.22C1581.37 1412.85 1493.37 1379.05 1389 1392.72C1278.83 1407.14 1203.45 1429.05 1131.5 1513.72C1074.53 1580.75 1033.75 1637.26 1050 1723.72C1065.12 1804.21 1182 1896.72 1182 1896.72C1182 1896.72 1305.62 1968.39 1389 1981.22C1491.94 1997.05 1582.38 2011.63 1682 1981.22C1769.98 1954.35 1854.18 1915.83 1862.5 1824.22C1866.2 1783.42 1854.31 1758.38 1832.5 1723.72C1772.99 1629.16 1653.65 1605.32 1542 1609.22C1434.05 1612.98 1337.63 1628.25 1243.5 1681.22C1166.59 1724.49 1079 1881.22 1079 1881.22C1079 1881.22 1030.32 2045.99 1062.2 2141.72C1091.36 2229.29 1231.42 2306.72 1231.42 2306.72C1231.42 2306.72 1315.81 2329.24 1371 2337.72C1497.8 2357.19 1571.54 2346.93 1699.5 2337.72C1795.69 2330.79 1860.33 2353.8 1944.5 2306.72C2019.36 2264.84 2094.73 2227.34 2089.5 2141.72C2084.6 2061.51 2026.74 1998.9 1955.5 1961.72C1830.83 1896.65 1672.69 1870.67 1534.5 1896.72C1397.37 1922.56 1286.27 1953.49 1182 2046.22C1109.95 2110.29 1079 2225.3 1079 2321.72C1079 2408.72 1084.21 2419.86 1104.5 2465.72C1154.5 2578.72 1162.5 2572.07 1226.42 2607.22C1331 2664.72 1312.08 2660.06 1371 2668.72C1510.5 2689.22 1480.52 2676.17 1551.46 2683.22C1685.55 2696.53 1762.41 2696.53 1896.5 2683.22" stroke="url(#paint0_linear_1350_16181)" stroke-width="36.0043"/>
<path d="M818.665 546.661C818.665 546.661 898.242 714.421 875.55 821.219C799.47 1179.28 704.147 1619.26 597.277 2039.11C554.895 2205.62 536.558 2370.75 480.251 2529.75C380.017 2812.8 190.416 3051.97 12.3838 3220.74" stroke="url(#paint1_linear_1350_16181)" stroke-width="36"/>
<path d="M258.066 928.656C245.846 939.691 240.997 965.274 222.094 982.334C212.638 990.868 179.591 984.293 168.707 971.55C162.195 963.926 158.241 954.885 163.502 945.119C168.941 935.021 197.068 931.124 214.792 921.242C224.29 915.946 235.307 912.891 239.911 904.952C244.516 897.013 244.516 888.801 247.143 880.024C251.097 866.815 256.937 860.704 267.331 852.377C330.255 801.965 372.731 781.342 439.286 735.679C469.039 715.266 520.353 691.778 520.353 691.778L548.319 669.377L573.968 666.042L564.132 677.747L563.36 684.103L530.204 697.275C530.204 697.275 460.48 735.961 420.657 767.814C411.331 775.273 401.238 789.096 401.238 789.096C401.238 789.096 418.599 784.755 427.405 781.533C480.98 761.932 505.881 741.61 559.242 718.001C569.249 713.574 586.965 714.919 586.965 714.919C586.965 714.919 659.489 665.607 704.53 630.296C754.586 591.053 791.552 557.365 826.255 531.49C826.255 531.49 839.651 540.518 843.255 549.49C846.247 556.939 846.755 562.99 845.755 569.99C845.372 572.676 843.549 575.232 842.255 576.99C841.109 578.547 838.881 579.493 836.755 579.99C832.762 580.925 829.602 578.771 826.513 576.666L826.255 576.49C823.381 574.534 817.255 566.49 817.255 566.49C817.255 566.49 704.521 654.931 680.907 684.06L851.529 673.5C851.529 673.5 858.557 673.681 863.2 675.074C872.469 677.855 870.786 686.031 878.557 694.521C882.607 698.947 881.71 707.95 875.286 709.531C867.059 711.556 850.786 694.531 850.786 694.531C850.786 694.531 744.755 699.49 672.156 717.96C634.57 727.522 586.751 768.64 586.751 768.64L516.565 809.562C542.579 809.203 567.339 803.975 631.074 784.773C631.074 784.773 627.669 795.486 610.099 801.575C559.587 819.08 519.14 825.905 466.853 855.121C419.457 881.605 406.425 890.151 362.467 900.481C337.948 906.244 317.906 911.348 297.956 912.003C278.006 912.658 270.286 917.621 258.066 928.656Z" fill="#096BAE"/>
<path d="M931.914 334.967L931.11 312.948C931.11 312.948 942.104 299.98 947.364 267.065C952.624 234.151 957.075 183 957.075 183L916.887 184.331C916.887 184.331 916.896 248.438 914.01 312.948C913.825 317.093 910.233 328.404 909.079 336.929C908.888 338.344 908.965 339.036 910.298 339.48C911.505 339.881 912.533 338.863 913.222 337.992C913.91 337.121 914.758 335.018 915.933 332.856C916.566 331.689 919.576 331.374 919.127 333.887C918.679 336.4 914.361 358.913 914.01 360.059C913.39 362.08 919.462 362.038 920.503 360.5C922.267 357.895 931.914 334.967 931.914 334.967Z" fill="url(#paint2_linear_1350_16181)"/>
<g filter="url(#filter0_f_1350_16181)">
<path d="M921.727 380.465L922.773 350.204C922.773 350.204 928.278 302.847 933.538 269.933C938.798 237.018 942.243 214.805 942.243 214.805L910.619 212.652C910.619 212.652 914.135 285.694 911.25 350.204C911.064 354.349 907.812 376.014 906.658 384.539C906.466 385.954 906.544 386.645 907.876 387.089C909.083 387.491 910.111 386.473 910.8 385.602C911.488 384.73 912.337 382.627 913.511 380.465C914.145 379.298 918.022 379.549 917.573 382.062C917.125 384.575 914.096 403.293 913.745 404.438C913.125 406.46 916.379 406.093 917.42 404.556C919.184 401.951 921.727 380.465 921.727 380.465Z" fill="black" fill-opacity="0.2"/>
</g>
<path d="M893.622 21.7674C893.622 18.0145 884.405 0 862.286 0C840.169 0.000814575 830.962 18.0146 830.962 21.7674V59.2958C830.962 63.7994 836.665 67.3789 839.254 71.3063C841.842 75.2332 842.019 81.169 838.334 83.3141C834.648 85.4586 806.078 90.8207 785.803 108.083C761.668 128.633 762.763 157.225 762.763 183.143H766.447L806.023 192.377L801.411 333.597C801.547 333.594 801.623 333.594 801.632 333.594C801.632 333.594 801.493 402.562 809.596 450.319C813.723 474.647 821.428 532.689 821.428 532.689L819.006 550.685C819.006 550.685 818.74 556.453 821.428 563.898C823.945 570.873 828.007 574.748 834.326 575.473C839.15 576.026 844.058 571.452 844.761 565.962C846.42 552.999 847.482 551.867 844.366 538.861C843.807 536.528 842.799 532.689 842.799 532.689C842.799 532.689 845.072 477.692 847.869 452.812C851.807 417.782 860.527 363.451 860.527 363.451C860.527 363.451 869.951 432.362 871.863 476.823C874.522 538.671 855.029 597 852.029 669C851.793 674.658 850.401 677.648 851.529 683.5C852.384 687.939 856.003 695.456 858.529 699C862.163 704.1 869.278 708.609 875.529 709C878.951 709.214 882.883 708.927 884.529 706.5C886.393 703.749 885.844 699.667 884.529 696C882.726 690.978 874.029 675 874.029 675C888.062 641.726 910.999 547.638 913.865 484.415C915.736 443.151 920.571 391.572 921.112 331.972C921.602 277.954 917.55 193.693 917.55 193.693L958.133 183.143H961.821C961.821 157.225 962.916 128.633 938.781 108.083C918.506 90.8204 889.936 85.4586 886.25 83.3141C882.564 81.1695 882.738 75.2334 885.326 71.3063C887.914 67.3789 893.622 63.7994 893.622 59.2958V21.7674Z" fill="url(#paint3_linear_1350_16181)"/>
<g filter="url(#filter1_f_1350_16181)">
<path d="M801.905 380.376L800.859 350.115C800.859 350.115 795.353 302.758 790.093 269.844C784.833 236.929 781.388 214.717 781.388 214.717L813.012 212.563C813.012 212.563 809.496 285.605 812.382 350.115C812.567 354.26 815.82 375.925 816.974 384.45C817.165 385.865 817.088 386.556 815.755 387C814.548 387.402 813.52 386.384 812.832 385.513C812.143 384.642 811.295 382.538 810.121 380.376C809.487 379.21 805.61 379.461 806.058 381.973C806.507 384.486 809.535 403.204 809.887 404.35C810.507 406.371 807.252 406.004 806.211 404.467C804.447 401.862 801.905 380.376 801.905 380.376Z" fill="black" fill-opacity="0.2"/>
</g>
<path d="M791.421 380.019L792.225 358C792.225 358 781.527 299.891 776.267 266.977C771.007 234.062 766.556 182.911 766.556 182.911L806.745 184.242C806.745 184.242 806.439 293.49 809.324 358C809.51 362.145 813.101 373.456 814.255 381.981C814.447 383.396 814.369 384.088 813.036 384.531C811.83 384.933 810.801 383.915 810.113 383.044C809.424 382.173 808.576 380.069 807.402 377.908C806.768 376.741 803.759 376.426 804.207 378.939C804.656 381.452 808.973 403.965 809.324 405.11C809.944 407.132 803.873 407.09 802.832 405.552C801.067 402.947 791.421 380.019 791.421 380.019Z" fill="url(#paint4_linear_1350_16181)"/>
<defs>
<filter id="filter0_f_1350_16181" x="872.13" y="178.202" width="104.563" height="262.081" filterUnits="userSpaceOnUse" color-interpolation-filters="sRGB">
<feFlood flood-opacity="0" result="BackgroundImageFix"/>
<feBlend mode="normal" in="SourceGraphic" in2="BackgroundImageFix" result="shape"/>
<feGaussianBlur stdDeviation="17.2249" result="effect1_foregroundBlur_1350_16181"/>
</filter>
<filter id="filter1_f_1350_16181" x="746.938" y="178.114" width="104.563" height="262.081" filterUnits="userSpaceOnUse" color-interpolation-filters="sRGB">
<feFlood flood-opacity="0" result="BackgroundImageFix"/>
<feBlend mode="normal" in="SourceGraphic" in2="BackgroundImageFix" result="shape"/>
<feGaussianBlur stdDeviation="17.2249" result="effect1_foregroundBlur_1350_16181"/>
</filter>
<linearGradient id="paint0_linear_1350_16181" x1="825.866" y1="716.364" x2="1725.5" y2="2861.72" gradientUnits="userSpaceOnUse">
<stop stop-color="#096BAE"/>
<stop offset="1" stop-color="#0A7FD2"/>
</linearGradient>
<linearGradient id="paint1_linear_1350_16181" x1="825.851" y1="562.765" x2="57.6236" y2="2958.76" gradientUnits="userSpaceOnUse">
<stop stop-color="#096BAE"/>
<stop offset="0.285964" stop-color="#32FF92"/>
<stop offset="0.78654" stop-color="#FCFF32"/>
<stop offset="1" stop-color="#0A7FD2"/>
</linearGradient>
<linearGradient id="paint2_linear_1350_16181" x1="918.579" y1="371" x2="928.896" y2="196.782" gradientUnits="userSpaceOnUse">
<stop stop-color="#FCFF32"/>
<stop offset="1" stop-color="#32FF92"/>
</linearGradient>
<linearGradient id="paint3_linear_1350_16181" x1="862.292" y1="175.919" x2="862.579" y2="700" gradientUnits="userSpaceOnUse">
<stop stop-color="#32FF92"/>
<stop offset="1" stop-color="#096BAE"/>
</linearGradient>
<linearGradient id="paint4_linear_1350_16181" x1="806.579" y1="414.5" x2="797.957" y2="183.818" gradientUnits="userSpaceOnUse">
<stop stop-color="#FCFF32"/>
<stop offset="1" stop-color="#32FF92"/>
</linearGradient>
</defs>
</svg>
