<svg xmlns="http://www.w3.org/2000/svg" width="1394" height="1402" fill="none"><g filter="url(#a)"><path fill="#000" fill-opacity=".3" d="m778.035 1300.8 19.937-21.53.001-37.48-39.967-64.85-67.195-79.29 8.063-68.54 8.064-34.461 8.911-29.172-25.038-17.693-47.037-10.059-263.406 14.7-92.729-21.503h-83.323c-79.29-43.453-155.286-88.496-161.737-91.721s5.922 133.248 8.61 217.019l62.288 66.19 111.544 95.41 100.793 36.29 82.472 59.23 62.515 29.73 115.837 17.21 70.179-10.03 29.507-7.18 50.242-8.77 41.469-6.38z"/></g><path fill="url(#b)" d="m1371.83 686.438 21.55 16.361-780.602 363.181-21.2-16.41z"/><g filter="url(#c)"><path fill="url(#d)" d="M354.198 759.32c59.256-51.695 81.6-162.925 38.175-207.515-50.978-52.346-138.181-33.484-189.495 18.502-57.843 58.603-70.673 169.479-2.128 216.359 50.038 34.223 107.783 12.492 153.448-27.346"/><path fill="#6D6D6D" fill-opacity=".1" d="M354.198 759.32c59.256-51.695 81.6-162.925 38.175-207.515-50.978-52.346-138.181-33.484-189.495 18.502-57.843 58.603-70.673 169.479-2.128 216.359 50.038 34.223 107.783 12.492 153.448-27.346"/></g><mask id="f" width="262" height="284" x="154" y="520" maskUnits="userSpaceOnUse" style="mask-type:alpha"><path fill="url(#e)" d="M354.198 759.321c59.256-51.695 81.6-162.925 38.175-207.515-50.978-52.346-138.181-33.484-189.495 18.502-57.843 58.603-70.673 169.479-2.128 216.359 50.038 34.223 107.783 12.492 153.448-27.346"/><path fill="#6D6D6D" fill-opacity=".1" d="M354.198 759.321c59.256-51.695 81.6-162.925 38.175-207.515-50.978-52.346-138.181-33.484-189.495 18.502-57.843 58.603-70.673 169.479-2.128 216.359 50.038 34.223 107.783 12.492 153.448-27.346"/></mask><g mask="url(#f)"><g filter="url(#g)"><path fill="#000" fill-opacity=".15" d="m314.994 535.519 31.971-1.936s20.814 34.541 37.048 55.07c11.691 14.783 30.891 24.448 30.891 24.448l.247 7.687-2.725 7.097-77.361-10.328z"/></g><g filter="url(#h)"><path fill="#000" fill-opacity=".2" d="m139.575 697.485 50.427-19.047s20.814 34.541 37.049 55.07c11.691 14.784 30.891 24.448 30.891 24.448l.246 7.687-31.137 34.733s-18.044-30.203-32.074-47.745c-19.068-23.839-55.402-55.146-55.402-55.146"/></g></g><g filter="url(#i)"><path fill="url(#j)" d="M691.995 783.399c-24.388-3.062-38.613-9.568-60.296-24.129-8.055-5.409-69.519-3.738-76.402-1.022-11.276 4.448-3.87 28.188-.354 36.526L285.069 925.395l-35.614-52.004c-25.807-47.104-18.547-48.994-27.63-89.992-8.606-26.267-14.728-28.311-22.462-38.628-14.387-19.193-24.805-25.397-40.061-39.658-13.94-13.033-31.939-36.983-31.939-36.983l59.924-136.833 118.559-27.585 42.185 37.64s22.239 37.499 41.859 57.546c7.021 7.173 14.248 12.139 25.015 15.756 40.029 13.448 77.095 4.279 118.681 23.665 0 0 33.505 17.992 53.699 24.895 23.054 7.879 38.756 6.802 60.888 17.605 17.279 8.433 23.549 19.065 40.594 27.858 17.236 8.892 32.335 12.061 45.501 17.203 13.167 5.141 15.036 26.07 10.643 32.498-13.061 19.126-24.252 25.286-52.916 25.021"/><path fill="#6D6D6D" fill-opacity=".1" d="M691.995 783.399c-24.388-3.062-38.613-9.568-60.296-24.129-8.055-5.409-69.519-3.738-76.402-1.022-11.276 4.448-3.87 28.188-.354 36.526L285.069 925.395l-35.614-52.004c-25.807-47.104-18.547-48.994-27.63-89.992-8.606-26.267-14.728-28.311-22.462-38.628-14.387-19.193-24.805-25.397-40.061-39.658-13.94-13.033-31.939-36.983-31.939-36.983l59.924-136.833 118.559-27.585 42.185 37.64s22.239 37.499 41.859 57.546c7.021 7.173 14.248 12.139 25.015 15.756 40.029 13.448 77.095 4.279 118.681 23.665 0 0 33.505 17.992 53.699 24.895 23.054 7.879 38.756 6.802 60.888 17.605 17.279 8.433 23.549 19.065 40.594 27.858 17.236 8.892 32.335 12.061 45.501 17.203 13.167 5.141 15.036 26.07 10.643 32.498-13.061 19.126-24.252 25.286-52.916 25.021"/></g><mask id="l" width="644" height="511" x="104" y="470" maskUnits="userSpaceOnUse" style="mask-type:alpha"><path fill="#969696" d="M691.996 783.4c-24.388-3.062-38.614-9.568-60.296-24.128-8.055-5.41-66.84-4.472-76.402-1.023-9.563 3.449-6.125 22.472-2.476 31.306 10.336 25.027 16.507 36.818 30.875 59.256L316.056 980.292l-66.6-106.9c-25.807-47.104-41.262-81.822-50.344-122.82-8.607-26.267-14.729-28.311-22.463-38.628-14.387-19.193-24.805-25.397-40.06-39.659-13.941-13.032-31.94-36.982-31.94-36.982l59.925-136.834 118.558-27.584 42.185 37.64s22.24 37.499 41.86 57.546c7.02 7.173 14.247 12.139 25.015 15.756 33.726 11.331 59.389 13.269 94.27 29.991 16.69 8.001 41.168 23.485 41.168 23.485s39.461 21.01 59.655 27.912c23.055 7.88 38.756 6.803 60.889 17.605 17.278 8.434 23.548 19.065 40.594 27.859 17.235 8.892 32.335 12.06 45.501 17.202s15.035 26.07 10.642 32.498c-13.06 19.126-24.252 25.286-52.915 25.021"/></mask><g filter="url(#k)" mask="url(#l)"><path fill="url(#n)" d="M695.735 746.782c18.502 2.525 48.566 0 48.566 0l13.45 8.593-35.491 38.479h-44.808l-43.493-20.381-82.426-11.748s1.694-9.526 4.483-14.943c4.397-8.54 13.34-16.274 26.897-21.668 19.059-7.584 33.676-1.748 53.797 2.242 23.803 4.721 34.705 16.108 59.025 19.426"/><path fill="#6D6D6D" fill-opacity=".1" d="M695.735 746.782c18.502 2.525 48.566 0 48.566 0l13.45 8.593-35.491 38.479h-44.808l-43.493-20.381-82.426-11.748s1.694-9.526 4.483-14.943c4.397-8.54 13.34-16.274 26.897-21.668 19.059-7.584 33.676-1.748 53.797 2.242 23.803 4.721 34.705 16.108 59.025 19.426"/></g><g filter="url(#o)"><path fill="url(#p)" d="M438.106 1232.98s7.107 4.62 21.456 15.89c21.175 16.64 38.901 31.29 64.08 40.93 31.055 11.89 75.419 29.37 75.419 29.37s18.847 5.26 26.65-2.13c4.981-4.72 6.936-16.19 6.936-16.19 16.983 20.12 32.667 31.06 42.371 34.26 16.58 5.47 23.62 2.24 30.93-11.57 14.878 9.22 22.049 12.17 35.502 12.17 11.617 0 20.601-13.99 16.961-24.51-2.312-6.68-15.356-30.1-34.352-47.45-8.77-17.1-14.062-26.57-29.308-43.03-7.308-14.94-12.781-25.44-21.891-41.12 19.264 23.89 32.706 39.42 53.882 60.99 16.26 16.57 33.873 25.38 49.901 30.37 11.506 3.57 20.368.39 25.24-5.85 3.947-5.04 1.712-19.59-9.586-34.5l-27.227-28.77c-.018-.04-10.084-19.85-19.07-30.98-6.145-7.61-14.465-13.84-18.629-21.52-15.03-27.74-22.888-45.23-22.888-45.23zm83.856-15.77c-.841-1.33 3.494-5.88 8.393-5.04 23.29 3.96 54.392 37.23 70.69 52.63-14.428-8.96-24.389-11.34-39.122-19.08-6.871-3.61-14.537-11.26-21.06-15.92-6.414-4.58-16.816-9.31-18.901-12.59"/><path fill="#6D6D6D" fill-opacity=".1" d="M438.106 1232.98s7.107 4.62 21.456 15.89c21.175 16.64 38.901 31.29 64.08 40.93 31.055 11.89 75.419 29.37 75.419 29.37s18.847 5.26 26.65-2.13c4.981-4.72 6.936-16.19 6.936-16.19 16.983 20.12 32.667 31.06 42.371 34.26 16.58 5.47 23.62 2.24 30.93-11.57 14.878 9.22 22.049 12.17 35.502 12.17 11.617 0 20.601-13.99 16.961-24.51-2.312-6.68-15.356-30.1-34.352-47.45-8.77-17.1-14.062-26.57-29.308-43.03-7.308-14.94-12.781-25.44-21.891-41.12 19.264 23.89 32.706 39.42 53.882 60.99 16.26 16.57 33.873 25.38 49.901 30.37 11.506 3.57 20.368.39 25.24-5.85 3.947-5.04 1.712-19.59-9.586-34.5l-27.227-28.77c-.018-.04-10.084-19.85-19.07-30.98-6.145-7.61-14.465-13.84-18.629-21.52-15.03-27.74-22.888-45.23-22.888-45.23zm83.856-15.77c-.841-1.33 3.494-5.88 8.393-5.04 23.29 3.96 54.392 37.23 70.69 52.63-14.428-8.96-24.389-11.34-39.122-19.08-6.871-3.61-14.537-11.26-21.06-15.92-6.414-4.58-16.816-9.31-18.901-12.59"/></g><mask id="q" width="366" height="234" x="438" y="1104" maskUnits="userSpaceOnUse" style="mask-type:luminance"><path fill="#fff" d="M438.098 1232.99s7.111 4.6 21.464 15.88c21.175 16.64 38.9 31.29 64.08 40.93 31.039 11.88 75.373 29.35 75.419 29.37 0 0 18.847 5.25 26.65-2.13 4.981-4.72 6.936-16.19 6.936-16.19 16.983 20.12 32.667 31.06 42.371 34.26 16.58 5.47 23.62 2.24 30.93-11.57 14.878 9.22 22.049 12.16 35.502 12.16 11.617 0 20.601-13.98 16.96-24.5-2.312-6.69-15.355-30.1-34.351-47.45-8.77-17.1-14.062-26.57-29.308-43.03-7.308-14.94-12.781-25.44-21.891-41.12 19.264 23.89 32.706 39.41 53.882 60.99 16.26 16.57 33.873 25.38 49.901 30.37 11.506 3.57 20.368.39 25.24-5.85 3.947-5.05 1.712-19.59-9.586-34.5l-27.227-28.77c-.017-.04-10.083-19.85-19.07-30.98-6.145-7.61-14.465-13.84-18.629-21.53-15.03-27.73-22.95-45.29-22.95-45.29zm83.864-15.79c-.841-1.32 3.494-5.87 8.393-5.03 23.29 3.96 54.392 37.23 70.69 52.63-14.428-8.96-24.389-11.35-39.122-19.08-6.871-3.61-14.537-11.26-21.061-15.92-6.413-4.58-16.815-9.32-18.9-12.6"/></mask><g mask="url(#q)"><g filter="url(#r)"><path fill="url(#s)" d="M547.041 1206.14c14.516 16.07 30.844 36.03 30.844 36.03l-55.984-25.14s-1.047-3.27 0-6.22c1.242-3.52 3.197-7.06 6.48-8.82 6.579-3.53 13.656-1.39 18.66 4.15"/><path fill="#6D6D6D" fill-opacity=".1" d="M547.041 1206.14c14.516 16.07 30.844 36.03 30.844 36.03l-55.984-25.14s-1.047-3.27 0-6.22c1.242-3.52 3.197-7.06 6.48-8.82 6.579-3.53 13.656-1.39 18.66 4.15"/></g><g filter="url(#t)"><path fill="url(#u)" d="M521.52 1272.7c19.199 11.77 70.789 42.75 70.789 42.75s-91.226-24.19-115.367-39.09c-27.194-16.79-59.574-56.1-59.574-56.1s8.662-8.68 15.828-10.94c7.291-2.29 12.135-1.77 19.571 0 7.435 1.77 18.678 19.58 31.37 31.37 14.078 13.09 20.739 21.81 37.383 32.01"/><path fill="#6D6D6D" fill-opacity=".1" d="M521.52 1272.7c19.199 11.77 70.789 42.75 70.789 42.75s-91.226-24.19-115.367-39.09c-27.194-16.79-59.574-56.1-59.574-56.1s8.662-8.68 15.828-10.94c7.291-2.29 12.135-1.77 19.571 0 7.435 1.77 18.678 19.58 31.37 31.37 14.078 13.09 20.739 21.81 37.383 32.01"/></g><g filter="url(#v)"><path fill="url(#w)" d="M705.196 1310.14c-1.314-5.94-6.243-14.27-6.243-14.27s21.359 15.61 31.772 26.66c5.808 6.17 11.973 18.32 11.973 18.32l-18.838-3.75-18.119-10.64s.922-9.68-.545-16.32"/><path fill="#6D6D6D" fill-opacity=".1" d="M705.196 1310.14c-1.314-5.94-6.243-14.27-6.243-14.27s21.359 15.61 31.772 26.66c5.808 6.17 11.973 18.32 11.973 18.32l-18.838-3.75-18.119-10.64s.922-9.68-.545-16.32"/></g><g filter="url(#x)"><path fill="url(#y)" d="M777.996 1262.08c5.921 4.44 14.011 12.76 14.011 12.76s-25.159-.72-41.259-9.39c-22.989-12.39-77.464-85.45-77.464-85.45s58.668 54.38 77.464 66.08c9.171 5.71 18.604 9.52 27.248 16"/><path fill="#6D6D6D" fill-opacity=".1" d="M777.996 1262.08c5.921 4.44 14.011 12.76 14.011 12.76s-25.159-.72-41.259-9.39c-22.989-12.39-77.464-85.45-77.464-85.45s58.668 54.38 77.464 66.08c9.171 5.71 18.604 9.52 27.248 16"/></g><g filter="url(#z)"><path fill="url(#A)" d="m686.722 1356.84 12.989-24.31a.2.2 0 0 0 .068-.13l-.068.13c-1.579 1.42-30.58.62-67.166-31.77l1.215 13.53 10.648 12.58z"/><path fill="#6D6D6D" fill-opacity=".1" d="m686.722 1356.84 12.989-24.31a.2.2 0 0 0 .068-.13l-.068.13c-1.579 1.42-30.58.62-67.166-31.77l1.215 13.53 10.648 12.58z"/></g></g><g filter="url(#B)"><path fill="url(#C)" d="M305.938 540.762c51.498-7.103 93.775 20.094 93.775 20.094s-64.49-119.25-106.412-199.082c0 0-53.898-107.331-94.76-172.382C150.167 112.382 12.579 0 12.579 0L3.403 552.053c62.62 79.072 122.795 157.717 185.603 225.372 0 0-51.819-101.995 9.535-183.44 5.891-7.82 51.39-45.498 107.397-53.223"/><path fill="#6D6D6D" fill-opacity=".1" d="M305.938 540.762c51.498-7.103 93.775 20.094 93.775 20.094s-64.49-119.25-106.412-199.082c0 0-53.898-107.331-94.76-172.382C150.167 112.382 12.579 0 12.579 0L3.403 552.053c62.62 79.072 122.795 157.717 185.603 225.372 0 0-51.819-101.995 9.535-183.44 5.891-7.82 51.39-45.498 107.397-53.223"/></g><mask id="D" width="417" height="439" x="288" y="794" maskUnits="userSpaceOnUse" style="mask-type:alpha"><path fill="#D9D9D9" d="m683.134 1059.9 21.36 16.45v27.75l-266.383 128.89v-27.74l-21.361-16.45v-27.75l-21.36-16.44v-27.75l-21.36-16.45.001-27.74-21.36-16.45v-27.74l-21.361-16.45v-27.732l-21.361-16.449v-27.744l-21.361-16.449 266.32-128.909 21.36 16.45.001 27.743 21.361 16.449v27.743l21.424 16.45v27.743l21.36 16.45v27.743l21.36 16.449v27.743l21.36 16.45z"/></mask><g mask="url(#D)"><path fill="#023558" d="M709.769 1073.8v27.74L433.057 1236v-28.44z"/><path fill="#023558" d="m576.566 760.646 176.169 341.614-324.899 151.16L242.612 916.9z"/><path fill="#024D81" d="m685.989 1058.39 21.546 16.36-270.872 131.07-21.201-16.41zm-16.493-46.5 21.545 16.36-275.478 133.24-21.16-16.54zm-14.458-47.553 21.841 16.264-281.794 136.269-21.16-16.54zm-25.911-42.012 21.983 16.155-281.787 136.37-21.16-16.54zm-27.159-41.383 21.983 16.155-281.869 136.363-21.147-16.44zm-20.784-44.437 21.982 16.155-281.757 136.45-21.348-16.469zm-24.214-42.672 21.809 16.162-281.695 136.357-21.078-16.539z"/></g><path fill="#000" fill-opacity=".15" d="m651.069 1100 55.22 43 3.119 14.94-6.467 7.1-11.936 1.68-.419-4.19 2.645-3.28-53.489-46.8-61.395-44.85-47.8-60.87-38.977-29.651-40.772 20.875 40.772 27.966 15.005 20.02 12.602 21.66 15.123 21.36-42.73 20.69-3.914-7.97 18.919-18.59-7.728-5.87-12.824-21.27-16.576-19.54s-19.079-7.86-30.317-14.71c-15.43-9.4-36.022-29.032-36.022-29.032s-3.904-6.271-4.313-10.791c-.532-5.867 4.313-14.455 4.313-14.455l26.97-23.467s3.039-17.641-4.495-22.475c-16.919-10.857-52.015-26.809-52.015-26.809l5.138-13.005c2.394-6.134 1.427-11.873-5.138-11.873s-13.344-1.925-19.264-7.392c-4.141-3.823-9.067-6.732-7.706-12.201 1.551-6.238 9.846-7.039 15.943-7.039 11.559 0 23.59 2.591 34.145 10.892 3.233 2.542 6.422 8.348 6.422 8.348l9.086 7.392s54.312 11.873 66.9 20.855c4.578 3.268 9.402 10.913 9.402 10.913l23.79 54.123 45.433 38.909 39.852 63.397z"/><path fill="url(#E)" d="M714.88 1135.39s.356 5 0 8.17c-.515 4.59-1.162 7.25-3.205 11.39-2.687 5.46-6.559 11.77-6.559 11.77h-11.49v-4.36s3.986-3.41 4.202-5.98c.521-6.19 0-17.49 0-17.49h-4.202s-2.91-49.61-6.297-57.32c-2.118-4.82-15.493-19.2-20.16-40.84-3.72-17.25-8.706-43.791-8.706-43.791-17.182 8.951-25.666 13.091-40.358 26.541 0 0 2.323 10.31 4.621 17.25 2.506 7.57 3.171 12.61 4.901 20.35 2.616 11.7 8.131 31.49 8.131 31.49.995 4.63 2.251 8.79-1.288 11.29-3.54 2.5-28.036 4.25-39.008 7.61v-4.38l25.828-12.56s-8.07-17.92-11.113-29.22c-4.249-15.78-14.715-39.04-14.715-39.04s-3.604-8.65-2.296-14.06c1.176-4.87 7.176-10.62 7.176-10.62l34.657-32.593s-2.166-24.056-3.219-38.224c-1.27-17.094-7.284-25.667-7.976-42.794-.177-4.393-.396-12.509.821-14.908 1.777-3.505 7.155-7.077 7.155-7.077s-5.357-6.449-7.155-11.567c-2.953-8.405-2.736-15.735 0-23.152 1.952-5.294 9.268-12.313 18.527-11.913 7.88.34 11.636 3.887 14.854 9.533 2.656 4.66 1.941 10.595 1.064 16.125-.825 5.196-2.392 13.256-2.392 13.256 12.339 6.807 18.269 20.539 21.259 25.408 3.505 5.706 12.015 31.025 12.015 50.838 0 8.701 3.807 29.114 4.013 49.911l-4.013 4.94s-.979 44.557 6.526 60.357c3.589 7.56 6.93 15.06 9.942 26.62 5.361 20.58 5.783 57.2 5.783 57.2z"/><path fill="url(#F)" d="M664.216 985.752c.995-4.438 3.094-5.666 3.094-10.058 0-2.162-2.761-23.33-6.656-37.807-4.236-15.746-14.676-39.091-14.676-39.091l21.332-4.19s6.274 22.85 8.635 37.81c3.215 20.366 1.097 35.217 2.405 52.667.142 1.887 1.087 3.414 1.717 4.666.629 1.251.828 1.56.828 2.217s-.674 1.016-1.423 1.154c-.934.172-3.206-3.414-4.993-6.317-.211 3.073.451 8.108 1.605 9.697s-.353 3.426-1.357 2.978c-3.295-1.469-4.716-5.262-5.95-9.928 0 0-2.224 7.99-2.663 9.197s-2.282.899-2.591 0-.536-7.511.693-12.995"/><defs><linearGradient id="b" x1="1295.9" x2="776.761" y1="733.918" y2="968.294" gradientUnits="userSpaceOnUse"><stop stop-color="#FCFF32"/><stop offset=".223" stop-color="#32FF92"/><stop offset=".32" stop-color="#024D81"/></linearGradient><linearGradient id="d" x1="424.596" x2="181.896" y1="581.131" y2="785.164" gradientUnits="userSpaceOnUse"><stop stop-color="#A6FE5B"/><stop offset="1" stop-color="#01518A"/></linearGradient><linearGradient id="e" x1="424.596" x2="181.896" y1="581.132" y2="785.165" gradientUnits="userSpaceOnUse"><stop stop-color="#A6FE5B"/><stop offset="1" stop-color="#01518A"/></linearGradient><linearGradient id="j" x1="760.178" x2="213.276" y1="758.001" y2="994.679" gradientUnits="userSpaceOnUse"><stop stop-color="#0A7FD2"/><stop offset=".512" stop-color="#32FF92"/><stop offset="1" stop-color="#FCFF32"/></linearGradient><linearGradient id="n" x1="752.978" x2="655.263" y1="750.802" y2="885.725" gradientUnits="userSpaceOnUse"><stop stop-color="#0A7FD2"/><stop offset=".704" stop-color="#32FF92"/><stop offset="1" stop-color="#FCFF32"/></linearGradient><linearGradient id="p" x1="708.412" x2="540.113" y1="1127.32" y2="1371.42" gradientUnits="userSpaceOnUse"><stop stop-color="#0A7FD2"/><stop offset=".512" stop-color="#32FF92"/><stop offset="1" stop-color="#FCFF32"/></linearGradient><linearGradient id="s" x1="577.885" x2="532.066" y1="1224.54" y2="1227.54" gradientUnits="userSpaceOnUse"><stop stop-color="#4DFB7E"/><stop offset=".481" stop-color="#2DEE94"/><stop offset="1" stop-color="#1DBCB3"/></linearGradient><linearGradient id="u" x1="590.602" x2="413.001" y1="1314.72" y2="1282.86" gradientUnits="userSpaceOnUse"><stop stop-color="#A6FF5B"/><stop offset=".481" stop-color="#2DEE99"/><stop offset="1" stop-color="#7BFF6F"/></linearGradient><linearGradient id="w" x1="738.71" x2="678.419" y1="1335.56" y2="1326.38" gradientUnits="userSpaceOnUse"><stop stop-color="#32FF92"/><stop offset=".481" stop-color="#2DEE99"/><stop offset="1" stop-color="#1DBCB3"/></linearGradient><linearGradient id="y" x1="794.285" x2="687.266" y1="1269.07" y2="1194.95" gradientUnits="userSpaceOnUse"><stop stop-color="#17BCB8"/><stop offset=".476" stop-color="#1DB2AC"/><stop offset="1" stop-color="#1CA0A2"/></linearGradient><linearGradient id="A" x1="699.779" x2="645.157" y1="1333.24" y2="1336.44" gradientUnits="userSpaceOnUse"><stop stop-color="#4DFB7E"/><stop offset=".481" stop-color="#2DEE94"/><stop offset="1" stop-color="#1DBCB3"/></linearGradient><linearGradient id="C" x1="338.579" x2="27.379" y1="404.4" y2="624.4" gradientUnits="userSpaceOnUse"><stop stop-color="#0A7FD2"/><stop offset=".623" stop-color="#023558"/><stop offset="1" stop-color="#023558"/></linearGradient><linearGradient id="E" x1="654.446" x2="654.339" y1="905.629" y2="1162.68" gradientUnits="userSpaceOnUse"><stop stop-color="#32FF92"/><stop offset="1" stop-color="#096BAE"/></linearGradient><linearGradient id="F" x1="651.724" x2="654.302" y1="1003.63" y2="894.943" gradientUnits="userSpaceOnUse"><stop stop-color="#FCFF32"/><stop offset="1" stop-color="#32FF92"/></linearGradient><filter id="a" width="838.712" height="602.612" x="0" y="798.405" color-interpolation-filters="sRGB" filterUnits="userSpaceOnUse"><feFlood flood-opacity="0" result="BackgroundImageFix"/><feBlend in="SourceGraphic" in2="BackgroundImageFix" result="shape"/><feGaussianBlur result="effect1_foregroundBlur_2427_2036" stdDeviation="20.369"/></filter><filter id="c" width="260.794" height="282.958" x="154.253" y="520.703" color-interpolation-filters="sRGB" filterUnits="userSpaceOnUse"><feFlood flood-opacity="0" result="BackgroundImageFix"/><feBlend in="SourceGraphic" in2="BackgroundImageFix" result="shape"/><feTurbulence baseFrequency="2.5 2.5" numOctaves="3" result="noise" seed="1706" stitchTiles="stitch" type="fractalNoise"/><feColorMatrix in="noise" result="alphaNoise" type="luminanceToAlpha"/><feComponentTransfer in="alphaNoise" result="coloredNoise1"><feFuncA tableValues="1 1 1 1 1 1 1 1 1 1 1 1 1 1 1 1 1 1 1 1 1 1 1 1 1 1 1 1 1 1 1 1 1 1 1 1 1 1 1 1 1 1 1 1 1 1 1 1 1 1 1 0 0 0 0 0 0 0 0 0 0 0 0 0 0 0 0 0 0 0 0 0 0 0 0 0 0 0 0 0 0 0 0 0 0 0 0 0 0 0 0 0 0 0 0 0 0 0 0 0" type="discrete"/></feComponentTransfer><feComposite in="coloredNoise1" in2="shape" operator="in" result="noise1Clipped"/><feFlood flood-color="rgba(0, 0, 0, 0.08)" result="color1Flood"/><feComposite in="color1Flood" in2="noise1Clipped" operator="in" result="color1"/><feMerge result="effect1_noise_2427_2036"><feMergeNode in="shape"/><feMergeNode in="color1"/></feMerge></filter><filter id="g" width="125.757" height="119.902" x="302.194" y="520.783" color-interpolation-filters="sRGB" filterUnits="userSpaceOnUse"><feFlood flood-opacity="0" result="BackgroundImageFix"/><feBlend in="SourceGraphic" in2="BackgroundImageFix" result="shape"/><feGaussianBlur result="effect1_foregroundBlur_2427_2036" stdDeviation="6.4"/></filter><filter id="h" width="144.214" height="147.538" x="126.775" y="665.638" color-interpolation-filters="sRGB" filterUnits="userSpaceOnUse"><feFlood flood-opacity="0" result="BackgroundImageFix"/><feBlend in="SourceGraphic" in2="BackgroundImageFix" result="shape"/><feGaussianBlur result="effect1_foregroundBlur_2427_2036" stdDeviation="6.4"/></filter><filter id="i" width="619.678" height="421.684" x="127.363" y="503.712" color-interpolation-filters="sRGB" filterUnits="userSpaceOnUse"><feFlood flood-opacity="0" result="BackgroundImageFix"/><feBlend in="SourceGraphic" in2="BackgroundImageFix" result="shape"/><feTurbulence baseFrequency="1.25 1.25" numOctaves="3" result="noise" seed="1706" stitchTiles="stitch" type="fractalNoise"/><feColorMatrix in="noise" result="alphaNoise" type="luminanceToAlpha"/><feComponentTransfer in="alphaNoise" result="coloredNoise1"><feFuncA tableValues="1 1 1 1 1 1 1 1 1 1 1 1 1 1 1 1 1 1 1 1 1 1 1 1 1 1 1 1 1 1 1 1 1 1 1 1 1 1 1 1 1 1 1 1 1 1 1 1 1 1 1 0 0 0 0 0 0 0 0 0 0 0 0 0 0 0 0 0 0 0 0 0 0 0 0 0 0 0 0 0 0 0 0 0 0 0 0 0 0 0 0 0 0 0 0 0 0 0 0 0" type="discrete"/></feComponentTransfer><feComposite in="coloredNoise1" in2="shape" operator="in" result="noise1Clipped"/><feFlood flood-color="rgba(0, 0, 0, 0.05)" result="color1Flood"/><feComposite in="color1Flood" in2="noise1Clipped" operator="in" result="color1"/><feMerge result="effect1_noise_2427_2036"><feMergeNode in="shape"/><feMergeNode in="color1"/></feMerge></filter><filter id="k" width="206.218" height="72.426" x="551.533" y="721.428" color-interpolation-filters="sRGB" filterUnits="userSpaceOnUse"><feFlood flood-opacity="0" result="BackgroundImageFix"/><feBlend in="SourceGraphic" in2="BackgroundImageFix" result="shape"/><feTurbulence baseFrequency="1.25 1.25" numOctaves="3" result="noise" seed="1706" stitchTiles="stitch" type="fractalNoise"/><feColorMatrix in="noise" result="alphaNoise" type="luminanceToAlpha"/><feComponentTransfer in="alphaNoise" result="coloredNoise1"><feFuncA tableValues="1 1 1 1 1 1 1 1 1 1 1 1 1 1 1 1 1 1 1 1 1 1 1 1 1 1 1 1 1 1 1 1 1 1 1 1 1 1 1 1 1 1 1 1 1 1 1 1 1 1 1 0 0 0 0 0 0 0 0 0 0 0 0 0 0 0 0 0 0 0 0 0 0 0 0 0 0 0 0 0 0 0 0 0 0 0 0 0 0 0 0 0 0 0 0 0 0 0 0 0" type="discrete"/></feComponentTransfer><feComposite in="coloredNoise1" in2="shape" operator="in" result="noise1Clipped"/><feFlood flood-color="rgba(0, 0, 0, 0.05)" result="color1Flood"/><feComposite in="color1Flood" in2="noise1Clipped" operator="in" result="color1"/><feMerge result="effect1_noise_2427_2036"><feMergeNode in="shape"/><feMergeNode in="color1"/></feMerge></filter><filter id="o" width="365.582" height="233.523" x="438.106" y="1104.11" color-interpolation-filters="sRGB" filterUnits="userSpaceOnUse"><feFlood flood-opacity="0" result="BackgroundImageFix"/><feBlend in="SourceGraphic" in2="BackgroundImageFix" result="shape"/><feTurbulence baseFrequency="2.5 2.5" numOctaves="3" result="noise" seed="1706" stitchTiles="stitch" type="fractalNoise"/><feColorMatrix in="noise" result="alphaNoise" type="luminanceToAlpha"/><feComponentTransfer in="alphaNoise" result="coloredNoise1"><feFuncA tableValues="1 1 1 1 1 1 1 1 1 1 1 1 1 1 1 1 1 1 1 1 1 1 1 1 1 1 1 1 1 1 1 1 1 1 1 1 1 1 1 1 1 1 1 1 1 1 1 1 1 1 1 0 0 0 0 0 0 0 0 0 0 0 0 0 0 0 0 0 0 0 0 0 0 0 0 0 0 0 0 0 0 0 0 0 0 0 0 0 0 0 0 0 0 0 0 0 0 0 0 0" type="discrete"/></feComponentTransfer><feComposite in="coloredNoise1" in2="shape" operator="in" result="noise1Clipped"/><feFlood flood-color="rgba(0, 0, 0, 0.05)" result="color1Flood"/><feComposite in="color1Flood" in2="noise1Clipped" operator="in" result="color1"/><feMerge result="effect1_noise_2427_2036"><feMergeNode in="shape"/><feMergeNode in="color1"/></feMerge></filter><filter id="r" width="56.45" height="41.898" x="521.436" y="1200.27" color-interpolation-filters="sRGB" filterUnits="userSpaceOnUse"><feFlood flood-opacity="0" result="BackgroundImageFix"/><feBlend in="SourceGraphic" in2="BackgroundImageFix" result="shape"/><feTurbulence baseFrequency="2.5 2.5" numOctaves="3" result="noise" seed="1706" stitchTiles="stitch" type="fractalNoise"/><feColorMatrix in="noise" result="alphaNoise" type="luminanceToAlpha"/><feComponentTransfer in="alphaNoise" result="coloredNoise1"><feFuncA tableValues="1 1 1 1 1 1 1 1 1 1 1 1 1 1 1 1 1 1 1 1 1 1 1 1 1 1 1 1 1 1 1 1 1 1 1 1 1 1 1 1 1 1 1 1 1 1 1 1 1 1 1 0 0 0 0 0 0 0 0 0 0 0 0 0 0 0 0 0 0 0 0 0 0 0 0 0 0 0 0 0 0 0 0 0 0 0 0 0 0 0 0 0 0 0 0 0 0 0 0 0" type="discrete"/></feComponentTransfer><feComposite in="coloredNoise1" in2="shape" operator="in" result="noise1Clipped"/><feFlood flood-color="rgba(0, 0, 0, 0.05)" result="color1Flood"/><feComposite in="color1Flood" in2="noise1Clipped" operator="in" result="color1"/><feMerge result="effect1_noise_2427_2036"><feMergeNode in="shape"/><feMergeNode in="color1"/></feMerge></filter><filter id="t" width="174.941" height="107.658" x="417.368" y="1207.79" color-interpolation-filters="sRGB" filterUnits="userSpaceOnUse"><feFlood flood-opacity="0" result="BackgroundImageFix"/><feBlend in="SourceGraphic" in2="BackgroundImageFix" result="shape"/><feTurbulence baseFrequency="2.5 2.5" numOctaves="3" result="noise" seed="1706" stitchTiles="stitch" type="fractalNoise"/><feColorMatrix in="noise" result="alphaNoise" type="luminanceToAlpha"/><feComponentTransfer in="alphaNoise" result="coloredNoise1"><feFuncA tableValues="1 1 1 1 1 1 1 1 1 1 1 1 1 1 1 1 1 1 1 1 1 1 1 1 1 1 1 1 1 1 1 1 1 1 1 1 1 1 1 1 1 1 1 1 1 1 1 1 1 1 1 0 0 0 0 0 0 0 0 0 0 0 0 0 0 0 0 0 0 0 0 0 0 0 0 0 0 0 0 0 0 0 0 0 0 0 0 0 0 0 0 0 0 0 0 0 0 0 0 0" type="discrete"/></feComponentTransfer><feComposite in="coloredNoise1" in2="shape" operator="in" result="noise1Clipped"/><feFlood flood-color="rgba(0, 0, 0, 0.05)" result="color1Flood"/><feComposite in="color1Flood" in2="noise1Clipped" operator="in" result="color1"/><feMerge result="effect1_noise_2427_2036"><feMergeNode in="shape"/><feMergeNode in="color1"/></feMerge></filter><filter id="v" width="43.745" height="44.978" x="698.953" y="1295.87" color-interpolation-filters="sRGB" filterUnits="userSpaceOnUse"><feFlood flood-opacity="0" result="BackgroundImageFix"/><feBlend in="SourceGraphic" in2="BackgroundImageFix" result="shape"/><feTurbulence baseFrequency="2.5 2.5" numOctaves="3" result="noise" seed="1706" stitchTiles="stitch" type="fractalNoise"/><feColorMatrix in="noise" result="alphaNoise" type="luminanceToAlpha"/><feComponentTransfer in="alphaNoise" result="coloredNoise1"><feFuncA tableValues="1 1 1 1 1 1 1 1 1 1 1 1 1 1 1 1 1 1 1 1 1 1 1 1 1 1 1 1 1 1 1 1 1 1 1 1 1 1 1 1 1 1 1 1 1 1 1 1 1 1 1 0 0 0 0 0 0 0 0 0 0 0 0 0 0 0 0 0 0 0 0 0 0 0 0 0 0 0 0 0 0 0 0 0 0 0 0 0 0 0 0 0 0 0 0 0 0 0 0 0" type="discrete"/></feComponentTransfer><feComposite in="coloredNoise1" in2="shape" operator="in" result="noise1Clipped"/><feFlood flood-color="rgba(0, 0, 0, 0.05)" result="color1Flood"/><feComposite in="color1Flood" in2="noise1Clipped" operator="in" result="color1"/><feMerge result="effect1_noise_2427_2036"><feMergeNode in="shape"/><feMergeNode in="color1"/></feMerge></filter><filter id="x" width="118.724" height="94.844" x="673.284" y="1180" color-interpolation-filters="sRGB" filterUnits="userSpaceOnUse"><feFlood flood-opacity="0" result="BackgroundImageFix"/><feBlend in="SourceGraphic" in2="BackgroundImageFix" result="shape"/><feTurbulence baseFrequency="2.5 2.5" numOctaves="3" result="noise" seed="1706" stitchTiles="stitch" type="fractalNoise"/><feColorMatrix in="noise" result="alphaNoise" type="luminanceToAlpha"/><feComponentTransfer in="alphaNoise" result="coloredNoise1"><feFuncA tableValues="1 1 1 1 1 1 1 1 1 1 1 1 1 1 1 1 1 1 1 1 1 1 1 1 1 1 1 1 1 1 1 1 1 1 1 1 1 1 1 1 1 1 1 1 1 1 1 1 1 1 1 0 0 0 0 0 0 0 0 0 0 0 0 0 0 0 0 0 0 0 0 0 0 0 0 0 0 0 0 0 0 0 0 0 0 0 0 0 0 0 0 0 0 0 0 0 0 0 0 0" type="discrete"/></feComponentTransfer><feComposite in="coloredNoise1" in2="shape" operator="in" result="noise1Clipped"/><feFlood flood-color="rgba(0, 0, 0, 0.05)" result="color1Flood"/><feComposite in="color1Flood" in2="noise1Clipped" operator="in" result="color1"/><feMerge result="effect1_noise_2427_2036"><feMergeNode in="shape"/><feMergeNode in="color1"/></feMerge></filter><filter id="z" width="67.234" height="56.078" x="632.545" y="1300.76" color-interpolation-filters="sRGB" filterUnits="userSpaceOnUse"><feFlood flood-opacity="0" result="BackgroundImageFix"/><feBlend in="SourceGraphic" in2="BackgroundImageFix" result="shape"/><feTurbulence baseFrequency="2.5 2.5" numOctaves="3" result="noise" seed="1706" stitchTiles="stitch" type="fractalNoise"/><feColorMatrix in="noise" result="alphaNoise" type="luminanceToAlpha"/><feComponentTransfer in="alphaNoise" result="coloredNoise1"><feFuncA tableValues="1 1 1 1 1 1 1 1 1 1 1 1 1 1 1 1 1 1 1 1 1 1 1 1 1 1 1 1 1 1 1 1 1 1 1 1 1 1 1 1 1 1 1 1 1 1 1 1 1 1 1 0 0 0 0 0 0 0 0 0 0 0 0 0 0 0 0 0 0 0 0 0 0 0 0 0 0 0 0 0 0 0 0 0 0 0 0 0 0 0 0 0 0 0 0 0 0 0 0 0" type="discrete"/></feComponentTransfer><feComposite in="coloredNoise1" in2="shape" operator="in" result="noise1Clipped"/><feFlood flood-color="rgba(0, 0, 0, 0.05)" result="color1Flood"/><feComposite in="color1Flood" in2="noise1Clipped" operator="in" result="color1"/><feMerge result="effect1_noise_2427_2036"><feMergeNode in="shape"/><feMergeNode in="color1"/></feMerge></filter><filter id="B" width="396.31" height="777.426" x="3.403" y="0" color-interpolation-filters="sRGB" filterUnits="userSpaceOnUse"><feFlood flood-opacity="0" result="BackgroundImageFix"/><feBlend in="SourceGraphic" in2="BackgroundImageFix" result="shape"/><feTurbulence baseFrequency="1.25 1.25" numOctaves="3" result="noise" seed="1706" stitchTiles="stitch" type="fractalNoise"/><feColorMatrix in="noise" result="alphaNoise" type="luminanceToAlpha"/><feComponentTransfer in="alphaNoise" result="coloredNoise1"><feFuncA tableValues="1 1 1 1 1 1 1 1 1 1 1 1 1 1 1 1 1 1 1 1 1 1 1 1 1 1 1 1 1 1 1 1 1 1 1 1 1 1 1 1 1 1 1 1 1 1 1 1 1 1 1 0 0 0 0 0 0 0 0 0 0 0 0 0 0 0 0 0 0 0 0 0 0 0 0 0 0 0 0 0 0 0 0 0 0 0 0 0 0 0 0 0 0 0 0 0 0 0 0 0" type="discrete"/></feComponentTransfer><feComposite in="coloredNoise1" in2="shape" operator="in" result="noise1Clipped"/><feFlood flood-color="rgba(0, 0, 0, 0.05)" result="color1Flood"/><feComposite in="color1Flood" in2="noise1Clipped" operator="in" result="color1"/><feMerge result="effect1_noise_2427_2036"><feMergeNode in="shape"/><feMergeNode in="color1"/></feMerge></filter></defs></svg>