<svg width="543" height="398" viewBox="0 0 543 398" fill="none" xmlns="http://www.w3.org/2000/svg">
<g filter="url(#filter0_g_2306_880)">
<path d="M489.735 240.714L309.839 69.1384C307.067 66.4951 303.029 65.6681 299.441 67.0093L56.4975 157.835C49.589 160.417 47.7624 169.337 53.0997 174.428L230.277 343.41C234.712 347.639 241.173 348.962 246.913 346.816L486.337 257.307C493.246 254.724 495.073 245.804 489.735 240.714Z" fill="black" fill-opacity="0.25"/>
</g>
<mask id="mask0_2306_880" style="mask-type:alpha" maskUnits="userSpaceOnUse" x="48" y="95" width="444" height="202">
<path d="M477.309 180.298L491.355 182.634V196.476C491.355 196.476 491.355 199.064 490.553 200.348C489.417 202.167 485.27 203.244 485.27 203.244L252.796 293.626C252.796 293.626 242.361 297.886 235.807 296.163C230.394 294.739 224.263 288.667 224.263 288.667L50.6904 121.722C50.6904 121.722 49.4856 120.392 49.0667 119.607C48.6267 118.782 48.5314 117.273 48.5314 117.273V102.783L54.4173 95.2852L241.944 268.099L477.309 180.298Z" fill="#D9D9D9"/>
</mask>
<g mask="url(#mask0_2306_880)">
<g filter="url(#filter1_n_2306_880)">
<path d="M37.1243 84.2207V110.334L234.172 311.611L437.701 202.204L187.127 85.389L37.1243 84.2207Z" fill="url(#paint0_linear_2306_880)"/>
</g>
<g filter="url(#filter2_n_2306_880)">
<path d="M53.4205 103.279L56.4186 92.7852L51.4217 94.7839L45.6387 102.186L46.4247 121.767L59.4168 134.26L58.9171 115.271L53.4205 103.279Z" fill="url(#paint1_linear_2306_880)"/>
</g>
<g filter="url(#filter3_n_2306_880)">
<path d="M236.042 299.911L236.073 267.964L487.631 179.645L499.804 186.893V201.031L236.042 299.911Z" fill="url(#paint2_linear_2306_880)"/>
</g>
<g filter="url(#filter4_n_2306_880)">
<path d="M481.447 210.497L481.447 186.603L498.933 175.928L498.933 204.803L481.447 210.497Z" fill="url(#paint3_linear_2306_880)"/>
</g>
<g filter="url(#filter5_n_2306_880)">
<path d="M237.307 281.67C231.267 280.403 224.315 272.676 224.315 272.676V290.165C224.315 290.165 231.81 300.184 236.307 301.158C243.004 302.61 252.797 295.162 252.797 295.162V278.672C252.797 278.672 243.337 282.936 237.307 281.67Z" fill="url(#paint4_linear_2306_880)"/>
</g>
</g>
<g filter="url(#filter6_n_2306_880)">
<path d="M488.257 175.897L308.36 4.32195C305.589 1.67867 301.55 0.851733 297.963 2.19289L55.0191 93.0183C48.1106 95.601 46.284 104.521 51.6213 109.611L228.799 278.594C233.233 282.823 239.695 284.146 245.435 282L484.859 192.49C491.768 189.908 493.594 180.988 488.257 175.897Z" fill="url(#paint5_linear_2306_880)"/>
</g>
<path d="M114.525 126.936L96.9913 116.319L99.2977 115.434L114.535 124.86L113.997 125.066L106.754 112.572L109.061 111.686L124.432 121.06L123.872 121.275L116.495 108.833L118.801 107.947L126.975 122.157L124.535 123.093L109.193 113.778L109.775 113.554L116.966 125.999L114.525 126.936ZM136.7 118.703C135.909 119.007 135.098 119.17 134.268 119.194C133.44 119.201 132.66 119.082 131.925 118.836C131.179 118.579 130.548 118.201 130.03 117.701C129.535 117.223 129.227 116.744 129.104 116.263C128.985 115.766 129.079 115.272 129.385 114.782C129.706 114.286 130.257 113.81 131.038 113.356L134.947 111.087L136.293 112.386L132.802 114.425C132.129 114.823 131.752 115.224 131.67 115.628C131.602 116.026 131.77 116.42 132.173 116.809C132.552 117.175 133.063 117.406 133.704 117.501C134.36 117.591 134.986 117.521 135.584 117.292C136.345 117 136.881 116.631 137.192 116.186C137.506 115.724 137.607 115.227 137.495 114.696C137.398 114.159 137.09 113.64 136.573 113.14L134.209 110.858C133.703 110.369 133.048 110.069 132.245 109.958C131.445 109.831 130.65 109.919 129.859 110.222C129.172 110.486 128.698 110.854 128.437 111.327C128.179 111.783 128.147 112.276 128.342 112.807L125.803 112.804C125.602 112.307 125.581 111.803 125.74 111.291C125.887 110.769 126.192 110.287 126.653 109.846C127.114 109.405 127.703 109.047 128.42 108.772C129.345 108.417 130.297 108.238 131.274 108.235C132.241 108.221 133.159 108.373 134.031 108.691C134.905 108.991 135.659 109.447 136.292 110.058L142.606 116.156L140.569 116.939L138.809 115.239L139.293 115.193C139.407 115.646 139.386 116.089 139.229 116.521C139.072 116.954 138.783 117.36 138.362 117.739C137.941 118.118 137.387 118.439 136.7 118.703ZM146.171 114.788L136.871 105.807L138.909 105.025L140.721 106.775L140.23 106.754C139.942 106.073 139.965 105.45 140.3 104.887C140.638 104.307 141.255 103.845 142.15 103.502C143.016 103.169 143.935 103.018 144.905 103.049C145.891 103.075 146.843 103.268 147.76 103.63C148.692 103.986 149.492 104.487 150.159 105.131L156.18 110.946L154.076 111.754L148.572 106.439C148.054 105.939 147.498 105.563 146.902 105.31C146.307 105.057 145.687 104.923 145.044 104.906C144.404 104.872 143.8 104.964 143.233 105.182C142.666 105.399 142.262 105.694 142.021 106.066C141.784 106.421 141.722 106.825 141.836 107.278C141.939 107.72 142.244 108.185 142.75 108.674L148.254 113.989L146.171 114.788ZM164.504 107.891C163.324 108.343 162.155 108.443 160.995 108.189C159.851 107.93 158.807 107.345 157.864 106.434L152.964 101.702L150.769 102.545L149.234 101.062L149.682 100.89C150.219 100.684 150.518 100.398 150.578 100.034C150.639 99.6688 150.462 99.2865 150.048 98.8867L149.289 98.1535L151.371 97.3542L153.511 99.4202L156.22 98.3801L157.756 99.863L155.046 100.903L159.894 105.585C160.205 105.885 160.535 106.123 160.884 106.299C161.249 106.47 161.649 106.565 162.086 106.583C162.511 106.591 162.97 106.5 163.463 106.311C163.567 106.271 163.688 106.217 163.826 106.148C163.979 106.074 164.116 106.006 164.239 105.943L165.654 107.309C165.495 107.417 165.301 107.522 165.074 107.625C164.858 107.739 164.668 107.827 164.504 107.891ZM209.13 153.03C207.921 153.494 206.639 153.676 205.283 153.576C203.927 153.475 202.671 153.119 201.516 152.507L202.552 151.271C203.447 151.672 204.355 151.914 205.274 151.996C206.193 152.077 207.019 151.978 207.75 151.697C208.407 151.445 208.831 151.119 209.022 150.72C209.214 150.32 209.114 149.932 208.723 149.554C208.447 149.287 208.124 149.117 207.754 149.041C207.387 148.949 207.016 148.913 206.64 148.933C206.253 148.942 205.917 148.97 205.632 149.017L203.422 149.33C202.09 149.515 200.947 149.489 199.99 149.25C199.049 149.006 198.28 148.595 197.681 148.018C197.129 147.485 196.831 146.955 196.787 146.429C196.746 145.885 196.924 145.383 197.321 144.92C197.733 144.451 198.334 144.065 199.125 143.761C200.185 143.354 201.34 143.19 202.59 143.269C203.855 143.343 205.041 143.672 206.147 144.256L205.049 145.492C204.297 145.129 203.514 144.917 202.701 144.857C201.876 144.786 201.128 144.879 200.456 145.137C199.844 145.372 199.479 145.674 199.363 146.045C199.234 146.405 199.349 146.757 199.705 147.101C199.97 147.357 200.278 147.533 200.629 147.631C200.97 147.718 201.313 147.757 201.658 147.749C201.993 147.729 202.308 147.701 202.604 147.665L205.024 147.342C206.227 147.174 207.328 147.21 208.326 147.448C209.338 147.68 210.166 148.107 210.81 148.729C211.328 149.229 211.607 149.751 211.648 150.294C211.689 150.837 211.496 151.346 211.069 151.82C210.642 152.294 209.996 152.698 209.13 153.03ZM222.314 147.969C221.149 148.416 219.89 148.62 218.535 148.582C217.169 148.532 215.842 148.257 214.553 147.758C213.265 147.259 212.155 146.56 211.223 145.66C210.291 144.761 209.732 143.858 209.545 142.952C209.372 142.04 209.544 141.198 210.058 140.426C210.573 139.654 211.42 139.042 212.6 138.589C213.764 138.142 215.029 137.943 216.395 137.993C217.75 138.032 219.058 138.298 220.32 138.792C221.597 139.28 222.708 139.979 223.651 140.89C224.594 141.801 225.15 142.72 225.319 143.649C225.476 144.567 225.297 145.411 224.783 146.183C224.271 146.939 223.448 147.534 222.314 147.969ZM220.761 146.47C221.507 146.183 222.035 145.787 222.345 145.28C222.669 144.767 222.75 144.201 222.587 143.58C222.439 142.954 222.055 142.341 221.434 141.741C220.801 141.13 220.064 140.66 219.223 140.331C218.385 139.985 217.516 139.791 216.617 139.748C215.72 139.688 214.899 139.802 214.153 140.088C213.391 140.381 212.854 140.789 212.541 141.312C212.232 141.819 212.145 142.38 212.281 142.996C212.406 143.6 212.785 144.207 213.417 144.818C214.039 145.418 214.781 145.893 215.646 146.245C216.51 146.596 217.385 146.796 218.269 146.844C219.169 146.887 219.999 146.762 220.761 146.47ZM240.013 146.019C239.744 146.122 239.458 146.208 239.155 146.278C238.852 146.348 238.54 146.39 238.221 146.404L236.789 145.021C236.976 144.98 237.201 144.925 237.463 144.855C237.751 144.791 238.014 144.713 238.253 144.622C238.955 144.352 239.364 144.032 239.481 143.661C239.624 143.296 239.572 142.773 239.325 142.091L238.689 140.449L240.042 141.816L224.902 134.146L227.164 133.278L239.108 139.404L238.437 139.661L234.486 130.467L236.792 129.582L241.755 141.717C241.996 142.292 242.116 142.852 242.115 143.395C242.141 143.944 241.991 144.444 241.666 144.895C241.34 145.346 240.789 145.721 240.013 146.019ZM254.001 135.806C252.837 136.253 251.577 136.457 250.223 136.418C248.857 136.368 247.529 136.093 246.241 135.595C244.952 135.096 243.842 134.396 242.911 133.497C241.979 132.597 241.42 131.694 241.232 130.788C241.06 129.876 241.231 129.034 241.746 128.262C242.261 127.49 243.108 126.878 244.287 126.425C245.452 125.978 246.717 125.78 248.083 125.83C249.438 125.869 250.746 126.135 252.008 126.628C253.285 127.116 254.395 127.815 255.338 128.726C256.282 129.637 256.838 130.557 257.007 131.485C257.164 132.403 256.985 133.248 256.47 134.02C255.959 134.775 255.136 135.37 254.001 135.806ZM252.448 134.306C253.195 134.02 253.723 133.623 254.032 133.116C254.357 132.603 254.438 132.037 254.275 131.416C254.127 130.79 253.743 130.177 253.122 129.577C252.489 128.966 251.752 128.496 250.911 128.167C250.073 127.821 249.204 127.627 248.304 127.584C247.408 127.525 246.587 127.638 245.84 127.925C245.079 128.217 244.542 128.625 244.229 129.149C243.919 129.656 243.833 130.217 243.969 130.832C244.094 131.436 244.472 132.043 245.105 132.654C245.726 133.254 246.469 133.73 247.333 134.081C248.198 134.432 249.072 134.632 249.957 134.68C250.857 134.723 251.687 134.598 252.448 134.306ZM267.533 130.611C266.667 130.944 265.728 131.095 264.716 131.064C263.719 131.028 262.75 130.818 261.81 130.433C260.873 130.032 260.042 129.482 259.317 128.782L253.503 123.167L255.585 122.368L261.227 127.816C261.687 128.26 262.209 128.603 262.793 128.845C263.392 129.081 264.006 129.21 264.634 129.233C265.278 129.25 265.883 129.149 266.45 128.931C267.018 128.714 267.42 128.427 267.657 128.072C267.91 127.711 267.971 127.308 267.842 126.86C267.728 126.408 267.417 125.937 266.911 125.448L261.407 120.133L263.512 119.325L272.812 128.306L270.774 129.088L268.963 127.338L269.454 127.359C269.757 128.035 269.732 128.665 269.379 129.251C269.029 129.82 268.414 130.273 267.533 130.611ZM276.374 126.938L267.074 117.958L269.112 117.175L270.82 118.825L270.355 118.678C270.109 118.058 270.151 117.514 270.48 117.046C270.798 116.567 271.375 116.167 272.211 115.846L272.95 115.563L274.468 117.029L273.415 117.433C272.564 117.759 272.085 118.223 271.976 118.823C271.857 119.413 272.17 120.068 272.918 120.79L278.456 126.139L276.374 126.938ZM293.752 120.407C292.573 120.86 291.404 120.959 290.244 120.706C289.099 120.447 288.056 119.862 287.112 118.951L282.212 114.219L280.018 115.061L278.482 113.578L278.93 113.407C279.468 113.2 279.766 112.915 279.827 112.55C279.887 112.185 279.711 111.803 279.296 111.403L278.537 110.67L280.62 109.871L282.759 111.937L285.469 110.897L287.004 112.38L284.295 113.42L289.143 118.101C289.454 118.401 289.784 118.64 290.133 118.816C290.497 118.986 290.898 119.081 291.335 119.1C291.76 119.107 292.219 119.017 292.711 118.827C292.816 118.787 292.937 118.733 293.075 118.665C293.227 118.59 293.365 118.522 293.488 118.459L294.903 119.826C294.743 119.933 294.55 120.039 294.322 120.142C294.107 120.255 293.916 120.344 293.752 120.407ZM303.391 116.847C302.227 117.294 300.977 117.486 299.64 117.425C298.304 117.364 297.007 117.078 295.748 116.567C294.478 116.046 293.383 115.341 292.463 114.452C291.531 113.552 290.956 112.655 290.739 111.761C290.537 110.86 290.669 110.041 291.136 109.303C291.606 108.548 292.394 107.959 293.498 107.535C294.394 107.191 295.312 107.01 296.251 106.99C297.195 106.954 298.118 107.05 299.021 107.278C299.928 107.488 300.778 107.806 301.573 108.231C302.371 108.639 303.057 109.12 303.632 109.676C303.759 109.798 303.888 109.942 304.019 110.109C304.153 110.259 304.275 110.407 304.383 110.552L294.486 114.351L293.105 113.018L301.793 109.683L301.429 110.661C300.966 110.032 300.356 109.544 299.601 109.197C298.846 108.851 298.054 108.65 297.225 108.596C296.397 108.541 295.632 108.648 294.93 108.918C294.229 109.187 293.725 109.567 293.419 110.057C293.113 110.547 293.054 111.105 293.243 111.731C293.436 112.34 293.913 112.972 294.674 113.627C295.293 114.305 296.026 114.831 296.872 115.205C297.721 115.562 298.596 115.761 299.495 115.804C300.398 115.83 301.216 115.703 301.947 115.422C302.753 115.112 303.289 114.713 303.553 114.223C303.818 113.733 303.898 113.206 303.793 112.641L306.229 112.637C306.416 113.14 306.434 113.661 306.283 114.2C306.136 114.722 305.822 115.215 305.342 115.679C304.878 116.136 304.227 116.526 303.391 116.847ZM315.313 112.27C314.522 112.574 313.711 112.738 312.881 112.762C312.053 112.769 311.273 112.649 310.538 112.403C309.792 112.146 309.161 111.768 308.643 111.268C308.148 110.791 307.84 110.311 307.717 109.83C307.599 109.333 307.692 108.839 307.998 108.349C308.319 107.853 308.87 107.378 309.651 106.923L313.56 104.654L314.906 105.954L311.415 107.992C310.742 108.39 310.365 108.791 310.283 109.195C310.215 109.593 310.383 109.987 310.786 110.376C311.165 110.742 311.676 110.973 312.317 111.069C312.973 111.158 313.599 111.089 314.197 110.859C314.958 110.567 315.494 110.198 315.805 109.753C316.119 109.291 316.22 108.794 316.108 108.263C316.011 107.726 315.703 107.207 315.186 106.708L312.822 104.425C312.316 103.936 311.661 103.636 310.858 103.526C310.058 103.398 309.263 103.486 308.472 103.79C307.785 104.053 307.311 104.421 307.05 104.894C306.792 105.35 306.76 105.844 306.955 106.374L304.417 106.371C304.215 105.874 304.194 105.37 304.353 104.859C304.5 104.336 304.805 103.855 305.266 103.414C305.727 102.973 306.316 102.615 307.033 102.34C307.958 101.984 308.91 101.805 309.887 101.803C310.854 101.789 311.772 101.941 312.644 102.258C313.518 102.559 314.272 103.015 314.905 103.625L321.219 109.724L319.182 110.506L317.422 108.806L317.906 108.76C318.02 109.213 317.999 109.656 317.842 110.089C317.685 110.521 317.396 110.927 316.975 111.306C316.554 111.685 316 112.007 315.313 112.27ZM324.784 108.355L315.484 99.3746L317.522 98.5924L319.42 100.425L318.836 100.254C318.548 99.5726 318.577 98.956 318.923 98.404C319.269 97.8519 319.853 97.4183 320.674 97.1032C321.614 96.7422 322.659 96.6128 323.808 96.715C324.972 96.8115 326.024 97.1219 326.963 97.6462L326.398 97.8863C325.987 97.0662 325.97 96.3352 326.349 95.6932C326.716 95.0401 327.354 94.5388 328.265 94.1893C329.101 93.8684 330.004 93.7234 330.975 93.7543C331.961 93.7795 332.92 93.9702 333.852 94.3265C334.784 94.6827 335.584 95.183 336.251 95.8272L342.272 101.642L340.168 102.45L334.664 97.135C334.146 96.6352 333.59 96.2589 332.994 96.0063C332.399 95.7536 331.794 95.6131 331.181 95.5847C330.571 95.5395 329.989 95.6229 329.437 95.8349C328.9 96.0412 328.518 96.3274 328.292 96.6936C328.07 97.0428 328.016 97.4439 328.13 97.8968C328.248 98.3328 328.56 98.7952 329.066 99.2839L334.57 104.599L332.465 105.407L326.961 100.092C326.443 99.5921 325.887 99.2158 325.291 98.9632C324.696 98.7105 324.091 98.57 323.478 98.5416C322.868 98.4964 322.286 98.5798 321.734 98.7918C321.197 98.9981 320.815 99.2843 320.589 99.6504C320.367 99.9997 320.313 100.401 320.427 100.854C320.545 101.29 320.857 101.752 321.363 102.241L326.867 107.556L324.784 108.355ZM186.073 192.946C184.894 193.399 183.628 193.597 182.277 193.542C180.941 193.48 179.644 193.194 178.385 192.684C177.126 192.174 176.037 191.474 175.117 190.586C174.185 189.686 173.618 188.786 173.416 187.885C173.214 186.985 173.355 186.155 173.84 185.394C174.34 184.628 175.18 184.018 176.359 183.566C177.15 183.262 177.999 183.084 178.904 183.031C179.809 182.979 180.707 183.03 181.597 183.185C182.488 183.34 183.3 183.61 184.034 183.996L182.865 185.376C182.098 185.018 181.274 184.807 180.393 184.741C179.5 184.665 178.673 184.773 177.912 185.065C177.18 185.346 176.66 185.74 176.35 186.247C176.056 186.748 175.984 187.303 176.135 187.913C176.287 188.522 176.684 189.138 177.328 189.76C177.95 190.36 178.685 190.838 179.534 191.195C180.372 191.541 181.226 191.741 182.096 191.795C182.981 191.844 183.789 191.727 184.52 191.447C185.281 191.154 185.804 190.752 186.087 190.24C186.358 189.716 186.383 189.156 186.161 188.558L188.744 188.545C188.988 189.103 189.039 189.665 188.896 190.233C188.741 190.789 188.43 191.304 187.962 191.779C187.494 192.253 186.864 192.642 186.073 192.946ZM197.688 188.488C196.897 188.791 196.086 188.955 195.255 188.979C194.428 188.986 193.647 188.867 192.913 188.621C192.167 188.364 191.535 187.985 191.017 187.486C190.523 187.008 190.214 186.529 190.092 186.048C189.973 185.55 190.067 185.056 190.373 184.566C190.694 184.07 191.245 183.595 192.025 183.14L195.934 180.871L197.28 182.171L193.79 184.209C193.117 184.607 192.739 185.008 192.657 185.412C192.59 185.811 192.758 186.204 193.16 186.593C193.54 186.96 194.05 187.191 194.691 187.286C195.347 187.376 195.974 187.306 196.571 187.077C197.332 186.784 197.869 186.416 198.179 185.97C198.494 185.508 198.595 185.012 198.483 184.48C198.385 183.943 198.078 183.425 197.56 182.925L195.197 180.642C194.69 180.154 194.036 179.854 193.233 179.743C192.433 179.615 191.637 179.703 190.846 180.007C190.16 180.271 189.685 180.639 189.424 181.112C189.166 181.568 189.135 182.061 189.329 182.592L186.791 182.588C186.589 182.091 186.568 181.587 186.727 181.076C186.875 180.554 187.179 180.072 187.64 179.631C188.102 179.19 188.691 178.832 189.407 178.557C190.333 178.202 191.284 178.023 192.262 178.02C193.228 178.006 194.147 178.158 195.018 178.475C195.893 178.776 196.646 179.232 197.279 179.843L203.594 185.941L201.556 186.723L199.796 185.024L200.281 184.978C200.395 185.43 200.374 185.873 200.217 186.306C200.06 186.739 199.771 187.145 199.35 187.524C198.928 187.903 198.375 188.224 197.688 188.488ZM207.159 184.573L197.859 175.592L199.897 174.81L201.708 176.559L201.217 176.538C200.929 175.857 200.952 175.235 201.287 174.672C201.625 174.092 202.242 173.63 203.138 173.286C204.004 172.954 204.922 172.803 205.893 172.834C206.879 172.859 207.83 173.053 208.747 173.415C209.68 173.771 210.479 174.271 211.146 174.916L217.168 180.73L215.063 181.538L209.559 176.223C209.042 175.723 208.485 175.347 207.89 175.095C207.294 174.842 206.675 174.707 206.031 174.69C205.391 174.656 204.788 174.748 204.221 174.966C203.653 175.184 203.249 175.479 203.008 175.851C202.771 176.206 202.71 176.61 202.824 177.062C202.927 177.504 203.231 177.969 203.737 178.458L209.241 183.773L207.159 184.573ZM225.967 177.353L218.202 169.855L215.896 170.741L214.36 169.258L216.667 168.372L216.011 167.739C215.344 167.095 214.967 166.479 214.88 165.891C214.808 165.298 214.965 164.765 215.35 164.291C215.751 163.811 216.339 163.422 217.115 163.124C217.28 163.061 217.47 163.003 217.687 162.951C217.908 162.882 218.097 162.833 218.254 162.803L219.686 164.186C219.544 164.21 219.39 164.253 219.226 164.316C219.05 164.368 218.918 164.411 218.828 164.446C218.141 164.709 217.701 165.049 217.506 165.466C217.326 165.876 217.529 166.365 218.116 166.931L218.772 167.564L221.638 166.464L223.174 167.947L220.307 169.047L228.071 176.545L225.967 177.353ZM239.297 172.515C238.133 172.962 236.873 173.166 235.519 173.127C234.153 173.077 232.825 172.803 231.537 172.304C230.248 171.805 229.138 171.106 228.206 170.206C227.275 169.307 226.715 168.404 226.528 167.498C226.356 166.586 226.527 165.744 227.042 164.972C227.557 164.2 228.404 163.587 229.583 163.135C230.748 162.688 232.013 162.489 233.379 162.539C234.734 162.578 236.042 162.844 237.304 163.338C238.581 163.826 239.691 164.525 240.634 165.436C241.577 166.347 242.133 167.266 242.302 168.195C242.46 169.112 242.281 169.957 241.766 170.729C241.255 171.484 240.432 172.08 239.297 172.515ZM237.744 171.016C238.491 170.729 239.019 170.332 239.328 169.826C239.653 169.313 239.734 168.746 239.571 168.126C239.423 167.5 239.038 166.887 238.417 166.287C237.785 165.676 237.048 165.206 236.206 164.877C235.368 164.531 234.5 164.337 233.6 164.294C232.704 164.234 231.882 164.348 231.136 164.634C230.375 164.927 229.838 165.335 229.525 165.858C229.215 166.365 229.128 166.926 229.265 167.541C229.39 168.145 229.768 168.753 230.401 169.364C231.022 169.964 231.765 170.439 232.629 170.79C233.494 171.142 234.368 171.342 235.253 171.39C236.152 171.433 236.983 171.308 237.744 171.016ZM254.15 166.814C252.97 167.267 251.705 167.465 250.354 167.409C249.018 167.348 247.72 167.062 246.462 166.552C245.203 166.041 244.114 165.342 243.194 164.453C242.262 163.554 241.695 162.654 241.493 161.753C241.291 160.853 241.432 160.022 241.917 159.262C242.417 158.496 243.257 157.886 244.436 157.433C245.227 157.13 246.075 156.952 246.981 156.899C247.886 156.846 248.784 156.898 249.674 157.052C250.565 157.207 251.377 157.478 252.11 157.864L250.942 159.244C250.175 158.886 249.351 158.674 248.47 158.609C247.577 158.533 246.75 158.641 245.989 158.933C245.257 159.214 244.737 159.608 244.427 160.114C244.133 160.616 244.061 161.171 244.212 161.78C244.363 162.39 244.761 163.006 245.405 163.628C246.026 164.227 246.762 164.706 247.611 165.063C248.449 165.409 249.303 165.609 250.173 165.663C251.057 165.711 251.865 165.595 252.597 165.314C253.358 165.022 253.881 164.62 254.164 164.108C254.435 163.584 254.46 163.024 254.237 162.426L256.821 162.412C257.065 162.971 257.116 163.533 256.973 164.1C256.818 164.656 256.507 165.172 256.039 165.646C255.571 166.121 254.941 166.51 254.15 166.814ZM266.657 162.013C265.791 162.345 264.852 162.496 263.84 162.466C262.842 162.429 261.874 162.219 260.933 161.835C259.997 161.434 259.166 160.883 258.441 160.184L252.627 154.569L254.709 153.769L260.351 159.218C260.811 159.662 261.333 160.005 261.917 160.246C262.516 160.482 263.13 160.611 263.758 160.634C264.402 160.651 265.007 160.551 265.574 160.333C266.141 160.115 266.544 159.829 266.781 159.474C267.033 159.113 267.095 158.709 266.966 158.262C266.851 157.809 266.541 157.338 266.035 156.849L260.531 151.534L262.636 150.726L271.936 159.707L269.898 160.489L268.086 158.74L268.578 158.761C268.881 159.436 268.856 160.067 268.502 160.652C268.153 161.221 267.537 161.675 266.657 162.013ZM280.027 156.881C278.817 157.345 277.535 157.527 276.179 157.426C274.823 157.326 273.568 156.969 272.412 156.357L273.448 155.121C274.344 155.523 275.251 155.764 276.17 155.846C277.09 155.928 277.915 155.829 278.646 155.548C279.303 155.296 279.727 154.97 279.919 154.57C280.11 154.171 280.01 153.782 279.619 153.405C279.343 153.138 279.02 152.967 278.65 152.892C278.283 152.8 277.912 152.764 277.537 152.784C277.149 152.793 276.813 152.821 276.529 152.868L274.318 153.181C272.987 153.366 271.843 153.339 270.887 153.101C269.946 152.857 269.176 152.446 268.578 151.868C268.026 151.335 267.727 150.806 267.683 150.279C267.642 149.736 267.82 149.233 268.217 148.77C268.629 148.302 269.231 147.916 270.022 147.612C271.082 147.205 272.237 147.041 273.487 147.12C274.752 147.193 275.937 147.522 277.043 148.107L275.945 149.343C275.193 148.98 274.411 148.768 273.597 148.708C272.772 148.636 272.024 148.729 271.352 148.987C270.74 149.222 270.376 149.525 270.259 149.896C270.131 150.256 270.245 150.608 270.601 150.952C270.866 151.207 271.174 151.384 271.526 151.482C271.866 151.569 272.209 151.608 272.555 151.599C272.889 151.58 273.204 151.552 273.501 151.515L275.92 151.192C277.124 151.025 278.224 151.061 279.222 151.299C280.234 151.531 281.063 151.958 281.707 152.58C282.224 153.08 282.504 153.601 282.544 154.145C282.585 154.688 282.392 155.196 281.966 155.671C281.539 156.145 280.892 156.548 280.027 156.881ZM297.416 150.205C296.252 150.652 294.992 150.856 293.638 150.818C292.272 150.768 290.945 150.493 289.656 149.994C288.368 149.495 287.257 148.796 286.326 147.896C285.394 146.997 284.835 146.094 284.647 145.188C284.475 144.276 284.646 143.434 285.161 142.662C285.676 141.89 286.523 141.278 287.703 140.825C288.867 140.378 290.132 140.179 291.498 140.229C292.853 140.268 294.161 140.534 295.423 141.028C296.7 141.516 297.81 142.215 298.753 143.126C299.697 144.037 300.253 144.956 300.422 145.885C300.579 146.803 300.4 147.647 299.885 148.419C299.374 149.175 298.551 149.77 297.416 150.205ZM295.863 148.706C296.61 148.419 297.138 148.023 297.447 147.516C297.772 147.003 297.853 146.436 297.69 145.816C297.542 145.19 297.158 144.577 296.537 143.977C295.904 143.366 295.167 142.896 294.326 142.567C293.488 142.221 292.619 142.027 291.719 141.984C290.823 141.924 290.002 142.038 289.255 142.324C288.494 142.617 287.957 143.025 287.644 143.548C287.334 144.055 287.248 144.616 287.384 145.232C287.509 145.836 287.888 146.443 288.52 147.054C289.141 147.654 289.884 148.129 290.748 148.481C291.613 148.832 292.487 149.032 293.372 149.08C294.272 149.123 295.102 148.998 295.863 148.706ZM306.464 146.453L297.164 137.472L299.202 136.69L301.014 138.44L300.522 138.419C300.234 137.737 300.258 137.115 300.592 136.552C300.931 135.972 301.548 135.51 302.443 135.166C303.309 134.834 304.227 134.683 305.198 134.714C306.184 134.739 307.136 134.933 308.053 135.295C308.985 135.651 309.785 136.152 310.452 136.796L316.473 142.611L314.368 143.419L308.864 138.104C308.347 137.604 307.79 137.228 307.195 136.975C306.6 136.722 305.98 136.587 305.337 136.57C304.697 136.537 304.093 136.629 303.526 136.846C302.959 137.064 302.555 137.359 302.314 137.731C302.076 138.086 302.015 138.49 302.129 138.943C302.232 139.384 302.536 139.85 303.042 140.338L308.546 145.654L306.464 146.453ZM209.226 215.124C208.062 215.571 206.802 215.775 205.448 215.736C204.082 215.686 202.754 215.411 201.466 214.912C200.177 214.414 199.067 213.714 198.136 212.815C197.204 211.915 196.644 211.012 196.457 210.106C196.285 209.194 196.456 208.352 196.971 207.58C197.486 206.808 198.333 206.196 199.512 205.743C200.677 205.296 201.942 205.098 203.308 205.148C204.663 205.186 205.971 205.453 207.233 205.946C208.51 206.434 209.62 207.133 210.563 208.044C211.506 208.955 212.063 209.875 212.231 210.803C212.389 211.721 212.21 212.566 211.695 213.338C211.184 214.093 210.361 214.688 209.226 215.124ZM207.673 213.624C208.42 213.338 208.948 212.941 209.257 212.434C209.582 211.921 209.663 211.355 209.5 210.734C209.352 210.108 208.968 209.495 208.346 208.895C207.714 208.284 206.977 207.814 206.135 207.485C205.297 207.139 204.429 206.945 203.529 206.902C202.633 206.843 201.812 206.956 201.065 207.243C200.304 207.535 199.767 207.943 199.454 208.467C199.144 208.974 199.058 209.535 199.194 210.15C199.319 210.754 199.697 211.361 200.33 211.972C200.951 212.572 201.694 213.048 202.558 213.399C203.423 213.75 204.297 213.95 205.182 213.998C206.082 214.041 206.912 213.916 207.673 213.624ZM223.063 209.673C221.883 210.125 220.714 210.225 219.554 209.971C218.41 209.712 217.366 209.127 216.423 208.216L211.523 203.485L209.328 204.327L207.793 202.844L208.24 202.672C208.778 202.466 209.077 202.18 209.137 201.816C209.198 201.451 209.021 201.069 208.607 200.669L207.848 199.936L209.93 199.136L212.069 201.202L214.779 200.162L216.314 201.645L213.605 202.685L218.453 207.367C218.764 207.667 219.094 207.905 219.443 208.081C219.808 208.252 220.208 208.347 220.645 208.365C221.07 208.373 221.529 208.282 222.021 208.093C222.126 208.053 222.247 207.999 222.385 207.93C222.538 207.856 222.675 207.788 222.798 207.725L224.213 209.091C224.053 209.199 223.86 209.304 223.633 209.407C223.417 209.521 223.227 209.61 223.063 209.673ZM227.269 207.918L214.208 195.305L216.291 194.506L221.864 199.888L221.328 199.884C221.04 199.203 221.063 198.581 221.398 198.017C221.736 197.437 222.353 196.975 223.249 196.632C224.114 196.299 225.033 196.149 226.003 196.18C226.989 196.205 227.941 196.398 228.858 196.76C229.79 197.116 230.59 197.617 231.257 198.261L237.278 204.076L235.174 204.884L229.67 199.569C229.152 199.069 228.588 198.696 227.978 198.449C227.382 198.196 226.77 198.058 226.142 198.036C225.502 198.002 224.898 198.094 224.331 198.312C223.779 198.524 223.382 198.816 223.141 199.188C222.889 199.548 222.82 199.955 222.934 200.408C223.037 200.85 223.342 201.315 223.848 201.804L229.352 207.119L227.269 207.918ZM246.355 200.871C245.19 201.318 243.94 201.511 242.604 201.45C241.267 201.388 239.97 201.102 238.711 200.592C237.441 200.071 236.346 199.366 235.426 198.477C234.494 197.577 233.92 196.68 233.703 195.785C233.501 194.885 233.633 194.066 234.1 193.328C234.57 192.573 235.357 191.984 236.462 191.56C237.357 191.216 238.275 191.034 239.215 191.015C240.158 190.979 241.081 191.075 241.985 191.302C242.891 191.513 243.742 191.831 244.536 192.255C245.334 192.663 246.02 193.145 246.596 193.7C246.722 193.822 246.851 193.967 246.982 194.134C247.117 194.284 247.238 194.432 247.346 194.576L237.449 198.376L236.069 197.043L244.757 193.708L244.393 194.686C243.929 194.056 243.319 193.569 242.564 193.222C241.809 192.875 241.017 192.675 240.189 192.62C239.36 192.566 238.595 192.673 237.894 192.943C237.192 193.212 236.688 193.592 236.382 194.082C236.076 194.572 236.017 195.13 236.207 195.756C236.399 196.365 236.876 196.997 237.638 197.651C238.257 198.329 238.989 198.855 239.835 199.229C240.685 199.586 241.559 199.786 242.459 199.829C243.362 199.855 244.179 199.727 244.91 199.446C245.717 199.137 246.252 198.737 246.517 198.248C246.782 197.758 246.861 197.231 246.756 196.666L249.193 196.662C249.38 197.164 249.397 197.685 249.246 198.224C249.099 198.747 248.785 199.24 248.306 199.703C247.841 200.161 247.191 200.55 246.355 200.871ZM254.685 197.394L245.385 188.414L247.423 187.631L249.131 189.281L248.665 189.134C248.42 188.514 248.462 187.97 248.791 187.502C249.109 187.023 249.685 186.623 250.521 186.302L251.26 186.019L252.779 187.485L251.726 187.889C250.875 188.215 250.396 188.679 250.287 189.279C250.167 189.869 250.481 190.524 251.229 191.246L256.767 196.595L254.685 197.394ZM272.063 190.863C270.884 191.316 269.714 191.415 268.555 191.162C267.41 190.903 266.366 190.318 265.423 189.407L260.523 184.675L258.329 185.517L256.793 184.035L257.241 183.863C257.778 183.656 258.077 183.371 258.138 183.006C258.198 182.641 258.021 182.259 257.607 181.859L256.848 181.126L258.931 180.327L261.07 182.393L263.779 181.353L265.315 182.836L262.606 183.876L267.454 188.558C267.764 188.857 268.094 189.096 268.444 189.272C268.808 189.442 269.209 189.537 269.645 189.556C270.07 189.563 270.529 189.473 271.022 189.284C271.126 189.243 271.248 189.189 271.385 189.121C271.538 189.047 271.676 188.978 271.799 188.915L273.214 190.282C273.054 190.39 272.86 190.495 272.633 190.598C272.417 190.712 272.227 190.8 272.063 190.863ZM279.862 188.009C279.07 188.313 278.26 188.477 277.429 188.501C276.602 188.508 275.821 188.388 275.087 188.142C274.341 187.885 273.709 187.507 273.191 187.007C272.697 186.53 272.388 186.05 272.266 185.569C272.147 185.072 272.24 184.578 272.547 184.088C272.868 183.592 273.418 183.117 274.199 182.662L278.108 180.393L279.454 181.693L275.963 183.731C275.291 184.129 274.913 184.53 274.831 184.934C274.764 185.332 274.931 185.726 275.334 186.115C275.713 186.481 276.224 186.712 276.865 186.808C277.521 186.897 278.148 186.828 278.745 186.598C279.506 186.306 280.042 185.937 280.353 185.492C280.667 185.03 280.768 184.533 280.656 184.002C280.559 183.465 280.252 182.946 279.734 182.447L277.37 180.164C276.864 179.675 276.21 179.375 275.406 179.265C274.607 179.137 273.811 179.225 273.02 179.529C272.333 179.792 271.859 180.16 271.598 180.633C271.34 181.089 271.308 181.583 271.503 182.113L268.965 182.11C268.763 181.613 268.742 181.109 268.901 180.598C269.048 180.075 269.353 179.594 269.814 179.153C270.275 178.712 270.864 178.354 271.581 178.079C272.507 177.723 273.458 177.544 274.436 177.542C275.402 177.528 276.321 177.68 277.192 177.997C278.067 178.298 278.82 178.754 279.453 179.364L285.768 185.463L283.73 186.245L281.97 184.545L282.454 184.499C282.569 184.952 282.547 185.395 282.39 185.828C282.234 186.26 281.945 186.666 281.523 187.045C281.102 187.424 280.548 187.746 279.862 188.009ZM293.861 182.635C292.652 183.099 291.37 183.281 290.014 183.181C288.658 183.08 287.402 182.724 286.247 182.112L287.283 180.876C288.178 181.277 289.086 181.519 290.005 181.601C290.924 181.683 291.749 181.583 292.481 181.302C293.138 181.05 293.562 180.724 293.753 180.325C293.945 179.926 293.845 179.537 293.454 179.159C293.178 178.893 292.855 178.722 292.484 178.646C292.118 178.554 291.747 178.518 291.371 178.538C290.984 178.547 290.648 178.575 290.363 178.623L288.152 178.936C286.821 179.121 285.677 179.094 284.721 178.856C283.78 178.612 283.01 178.201 282.412 177.623C281.86 177.09 281.562 176.56 281.518 176.034C281.477 175.491 281.655 174.988 282.052 174.525C282.464 174.056 283.065 173.67 283.856 173.367C284.916 172.96 286.071 172.796 287.321 172.875C288.586 172.948 289.772 173.277 290.878 173.861L289.78 175.098C289.028 174.734 288.245 174.522 287.432 174.462C286.607 174.391 285.858 174.484 285.187 174.742C284.575 174.977 284.21 175.28 284.093 175.65C283.965 176.01 284.079 176.362 284.436 176.707C284.701 176.962 285.009 177.139 285.36 177.237C285.701 177.323 286.044 177.362 286.389 177.354C286.724 177.334 287.039 177.306 287.335 177.27L289.754 176.947C290.958 176.78 292.059 176.815 293.056 177.053C294.069 177.285 294.897 177.713 295.541 178.335C296.059 178.834 296.338 179.356 296.379 179.899C296.42 180.442 296.227 180.951 295.8 181.425C295.373 181.9 294.727 182.303 293.861 182.635ZM301.105 179.575L288.044 166.962L290.126 166.163L299.081 174.81L298.075 174.987L299.441 167.663L302.106 166.641L301.215 172.035L311.719 175.501L309.256 176.446L299.694 173.318L300.941 172.769L300.255 176.851L299.754 175.46L303.187 178.776L301.105 179.575ZM318.456 173.194C317.247 173.658 315.964 173.84 314.608 173.74C313.253 173.639 311.997 173.283 310.842 172.671L311.878 171.435C312.773 171.836 313.68 172.078 314.6 172.16C315.519 172.242 316.344 172.142 317.076 171.861C317.732 171.609 318.157 171.283 318.348 170.884C318.539 170.484 318.439 170.096 318.048 169.718C317.772 169.452 317.449 169.281 317.079 169.205C316.713 169.113 316.342 169.077 315.966 169.097C315.579 169.106 315.243 169.134 314.958 169.182L312.747 169.495C311.416 169.68 310.272 169.653 309.316 169.415C308.375 169.17 307.605 168.76 307.007 168.182C306.455 167.649 306.157 167.119 306.112 166.593C306.071 166.05 306.25 165.547 306.646 165.084C307.058 164.615 307.66 164.229 308.451 163.925C309.511 163.519 310.666 163.355 311.916 163.434C313.181 163.507 314.366 163.836 315.472 164.42L314.374 165.657C313.623 165.293 312.84 165.081 312.027 165.021C311.202 164.95 310.453 165.043 309.781 165.301C309.169 165.536 308.805 165.839 308.688 166.209C308.56 166.569 308.674 166.921 309.031 167.265C309.295 167.521 309.603 167.698 309.955 167.795C310.295 167.882 310.638 167.921 310.984 167.913C311.318 167.893 311.634 167.865 311.93 167.829L314.349 167.506C315.553 167.339 316.654 167.374 317.651 167.612C318.664 167.844 319.492 168.272 320.136 168.894C320.654 169.393 320.933 169.915 320.974 170.458C321.015 171.001 320.822 171.51 320.395 171.984C319.968 172.459 319.322 172.862 318.456 173.194Z" fill="#FAFAFA"/>
<path d="M172.67 104.616L163.284 95.552L166.039 94.4947L168.126 96.5108L167.592 96.2968C167.174 95.5103 167.125 94.8692 167.446 94.3734C167.782 93.8719 168.376 93.4578 169.227 93.1312L169.943 92.8561L171.945 94.7889L170.892 95.1929C170.056 95.5138 169.586 95.966 169.481 96.5496C169.364 97.1221 169.663 97.7527 170.376 98.4414L175.604 103.49L172.67 104.616ZM187.366 99.2543C186.112 99.7356 184.796 99.9458 183.418 99.8847C182.041 99.8236 180.717 99.5323 179.447 99.0109C178.177 98.4895 177.087 97.79 176.179 96.9125C175.235 96.0016 174.663 95.096 174.461 94.1957C174.262 93.2785 174.405 92.4396 174.89 91.6791C175.39 90.9128 176.207 90.3119 177.342 89.8764C178.297 89.5097 179.254 89.3054 180.212 89.2636C181.185 89.2161 182.138 89.3004 183.071 89.5166C184.004 89.7327 184.881 90.0558 185.702 90.4858C186.512 90.9047 187.233 91.4197 187.865 92.0306C188.026 92.1861 188.178 92.3529 188.321 92.531C188.478 92.7033 188.591 92.862 188.657 93.0071L179.253 96.6173L177.527 94.9511L185.275 91.9771L184.698 93.2931C184.303 92.7305 183.794 92.2895 183.171 91.9698C182.563 91.6444 181.906 91.4539 181.202 91.3983C180.513 91.3369 179.847 91.4295 179.205 91.6759C178.593 91.9108 178.169 92.2366 177.933 92.6533C177.685 93.0588 177.665 93.5324 177.871 94.0741C178.081 94.599 178.537 95.161 179.241 95.7601C179.757 96.3384 180.366 96.7955 181.068 97.1313C181.774 97.4502 182.501 97.6289 183.25 97.6673C184.014 97.7 184.732 97.5875 185.404 97.3296C186.076 97.0717 186.534 96.7484 186.778 96.3598C187.037 95.9653 187.117 95.5388 187.018 95.0802L190.288 95.0355C190.498 95.5604 190.522 96.0869 190.359 96.6149C190.197 97.143 189.863 97.6361 189.356 98.0943C188.865 98.5467 188.202 98.9334 187.366 99.2543ZM201.502 93.8278C200.293 94.292 198.99 94.5048 197.594 94.4663C196.202 94.411 194.861 94.1339 193.573 93.635C192.273 93.125 191.157 92.4202 190.225 91.5204C189.294 90.6207 188.736 89.7094 188.552 88.7865C188.368 87.8635 188.541 87.0132 189.071 86.2355C189.616 85.452 190.493 84.8282 191.702 84.364C192.568 84.0317 193.495 83.8389 194.483 83.7856C195.459 83.7212 196.423 83.7859 197.375 83.9794C198.33 84.1562 199.208 84.4709 200.011 84.9234L198.298 86.745C197.603 86.3756 196.843 86.1551 196.018 86.0837C195.208 86.0066 194.459 86.0998 193.772 86.3634C193.131 86.6098 192.677 86.9471 192.411 87.3752C192.16 87.7976 192.105 88.2687 192.247 88.7885C192.389 89.3084 192.736 89.8349 193.288 90.3681C193.84 90.9013 194.471 91.3189 195.18 91.621C195.889 91.9231 196.611 92.0963 197.345 92.1404C198.094 92.1788 198.79 92.0749 199.432 91.8284C200.133 91.5591 200.602 91.1853 200.836 90.7071C201.071 90.2288 201.059 89.7134 200.8 89.161L204.272 89.0389C204.563 89.6415 204.652 90.2515 204.54 90.8688C204.417 91.4749 204.103 92.0379 203.598 92.5577C203.081 93.0664 202.383 93.4897 201.502 93.8278ZM209.388 90.5215L200.002 81.4575L202.756 80.4003L204.844 82.4163L204.309 82.2024C203.891 81.4159 203.843 80.7748 204.164 80.279C204.5 79.7775 205.093 79.3634 205.944 79.0368L206.661 78.7617L208.662 80.6945L207.61 81.0985C206.774 81.4194 206.303 81.8716 206.198 82.4552C206.082 83.0277 206.38 83.6583 207.093 84.347L212.321 89.3955L209.388 90.5215ZM222.65 85.71C221.709 86.071 220.727 86.2307 219.704 86.189C218.695 86.1416 217.716 85.9118 216.768 85.4997C215.835 85.0818 214.983 84.5008 214.212 83.7565L208.466 78.2082L211.4 77.0822L216.955 82.4472C217.347 82.8249 217.789 83.1209 218.282 83.3352C218.778 83.5327 219.299 83.6431 219.845 83.6664C220.394 83.6729 220.908 83.5845 221.386 83.4011C221.863 83.2178 222.208 82.9767 222.42 82.6779C222.621 82.3681 222.676 82.0286 222.586 81.6596C222.496 81.2906 222.244 80.9061 221.83 80.5062L216.326 75.1912L219.259 74.0651L228.645 83.1291L225.869 84.1949L224.023 82.4121L224.597 82.6341C224.888 83.2984 224.849 83.8955 224.48 84.4253C224.126 84.9494 223.516 85.3776 222.65 85.71ZM231.708 81.9534L222.322 72.8895L225.256 71.7635L234.642 80.8274L231.708 81.9534ZM221.27 71.8731L218.854 69.5405L221.788 68.4145L224.203 70.7471L221.27 71.8731ZM243.343 77.6271C241.969 78.1543 240.614 78.2863 239.278 78.0232C237.945 77.7432 236.749 77.0922 235.691 76.0703L231.55 72.0715L229.445 72.8795L227.427 70.9301L227.65 70.8442C228.248 70.6149 228.59 70.3207 228.676 69.9613C228.763 69.602 228.577 69.2002 228.117 68.7559L227.392 68.0561L230.325 66.9301L232.465 68.9961L235.264 67.9217L237.282 69.8711L234.483 70.9455L238.504 74.8277C238.814 75.1276 239.146 75.3573 239.499 75.5167C239.867 75.6705 240.257 75.7456 240.671 75.7421C241.099 75.7328 241.552 75.6365 242.03 75.4531C242.135 75.413 242.248 75.3616 242.371 75.2989C242.509 75.2305 242.639 75.165 242.762 75.1023L244.695 76.9684C244.509 77.0708 244.293 77.1847 244.047 77.3101C243.801 77.4355 243.567 77.5411 243.343 77.6271ZM247.272 75.9792L237.886 66.9152L240.64 65.858L242.814 67.9573L242.138 67.7278C241.683 66.9865 241.625 66.3258 241.963 65.7458C242.301 65.1658 242.926 64.7011 243.836 64.3515C244.837 63.9676 245.919 63.8239 247.083 63.9204C248.247 64.0169 249.268 64.3388 250.148 64.8859L249.371 65.254C248.997 64.3887 248.999 63.6351 249.377 62.9931C249.744 62.34 250.412 61.8273 251.383 61.4548C252.248 61.1224 253.167 60.9717 254.138 61.0027C255.123 61.0279 256.081 61.227 257.009 61.6001C257.927 61.962 258.736 62.4818 259.438 63.1594L265.477 68.991L262.543 70.117L257.039 64.8019C256.625 64.402 256.172 64.0949 255.678 63.8806C255.185 63.6663 254.687 63.5473 254.182 63.5236C253.666 63.4888 253.162 63.5659 252.669 63.755C252.207 63.9327 251.882 64.1736 251.697 64.4777C251.499 64.7708 251.453 65.0989 251.558 65.4622C251.663 65.8255 251.923 66.2071 252.337 66.607L257.841 71.922L254.907 73.0481L249.403 67.733C248.989 67.3331 248.536 67.026 248.043 66.8117C247.55 66.5974 247.043 66.4813 246.524 66.4633C246.008 66.4285 245.511 66.5028 245.034 66.6861C244.571 66.8638 244.247 67.1047 244.061 67.4088C243.864 67.7019 243.817 68.03 243.922 68.3933C244.027 68.7566 244.287 69.1382 244.701 69.5381L250.205 74.8531L247.272 75.9792ZM274.278 65.8917C273.024 66.373 271.709 66.5832 270.331 66.5221C268.953 66.461 267.63 66.1697 266.359 65.6483C265.089 65.1269 264 64.4274 263.091 63.5499C262.148 62.639 261.575 61.7334 261.373 60.8331C261.174 59.9159 261.318 59.077 261.803 58.3165C262.303 57.5502 263.12 56.9493 264.254 56.5138C265.21 56.1471 266.167 55.9428 267.125 55.901C268.098 55.8535 269.051 55.9378 269.984 56.1539C270.917 56.3701 271.794 56.6932 272.615 57.1232C273.424 57.5421 274.145 58.0571 274.778 58.668C274.939 58.8235 275.091 58.9903 275.233 59.1684C275.391 59.3407 275.503 59.4994 275.57 59.6445L266.165 63.2547L264.44 61.5885L272.188 58.6144L271.61 59.9305C271.215 59.3679 270.707 58.9268 270.083 58.6072C269.475 58.2818 268.819 58.0913 268.115 58.0357C267.425 57.9743 266.76 58.0669 266.118 58.3133C265.506 58.5482 265.082 58.874 264.845 59.2906C264.598 59.6962 264.577 60.1698 264.783 60.7115C264.993 61.2364 265.45 61.7984 266.154 62.3975C266.669 62.9758 267.278 63.4329 267.98 63.7687C268.686 64.0876 269.414 64.2663 270.163 64.3047C270.927 64.3374 271.645 64.2248 272.317 63.967C272.988 63.7091 273.446 63.3858 273.691 62.9971C273.95 62.6027 274.03 62.1762 273.93 61.7176L277.201 61.6729C277.411 62.1978 277.434 62.7243 277.272 63.2523C277.109 63.7804 276.775 64.2735 276.269 64.7317C275.778 65.1841 275.114 65.5708 274.278 65.8917ZM282.341 62.5173L272.955 53.4534L275.709 52.3962L277.555 54.1789L277.004 53.9483C276.724 53.2952 276.761 52.7065 277.115 52.1824C277.473 51.6415 278.085 51.2049 278.951 50.8725C279.846 50.5287 280.787 50.3694 281.773 50.3946C282.773 50.414 283.738 50.6103 284.667 50.9834C285.584 51.3454 286.394 51.8651 287.095 52.5427L293.134 58.3743L290.201 59.5003L284.697 54.1852C284.283 53.7853 283.821 53.4811 283.313 53.2725C282.805 53.064 282.284 52.9536 281.75 52.9413C281.219 52.9122 280.707 52.9922 280.215 53.1813C279.737 53.3647 279.398 53.6113 279.197 53.9212C278.985 54.22 278.924 54.5539 279.014 54.9229C279.104 55.2919 279.356 55.6764 279.77 56.0763L285.274 61.3913L282.341 62.5173ZM301.607 55.2614C300.234 55.7886 298.879 55.9207 297.542 55.6575C296.209 55.3775 295.014 54.7266 293.955 53.7047L289.815 49.7059L287.71 50.5139L285.691 48.5645L285.915 48.4785C286.512 48.2493 286.854 47.955 286.941 47.5957C287.028 47.2364 286.841 46.8345 286.381 46.3902L285.656 45.6904L288.59 44.5644L290.729 46.6305L293.528 45.556L295.547 47.5054L292.748 48.5799L296.768 52.462C297.079 52.7619 297.41 52.9916 297.763 53.1511C298.131 53.3048 298.522 53.38 298.935 53.3764C299.364 53.3672 299.817 53.2708 300.295 53.0875C300.399 53.0474 300.513 52.996 300.636 52.9333C300.773 52.8649 300.904 52.7993 301.027 52.7366L302.959 54.6027C302.773 54.7052 302.557 54.8191 302.312 54.9445C302.066 55.0698 301.831 55.1755 301.607 55.2614ZM133.984 150.531L120.923 137.919L123.856 136.793L129.377 142.124L128.646 141.962C128.366 141.309 128.404 140.721 128.758 140.197C129.116 139.656 129.728 139.219 130.593 138.887C131.489 138.543 132.43 138.384 133.416 138.409C134.416 138.428 135.381 138.624 136.31 138.998C137.227 139.359 138.036 139.879 138.738 140.557L144.777 146.388L141.843 147.514L136.34 142.199C135.925 141.799 135.464 141.495 134.956 141.287C134.448 141.078 133.927 140.968 133.393 140.955C132.862 140.926 132.35 141.006 131.858 141.195C131.38 141.379 131.041 141.625 130.84 141.935C130.628 142.234 130.567 142.568 130.657 142.937C130.747 143.306 130.999 143.691 131.413 144.09L136.917 149.405L133.984 150.531ZM151.495 144.089C150.644 144.416 149.796 144.594 148.95 144.623C148.105 144.653 147.309 144.539 146.563 144.282C145.806 144.014 145.157 143.619 144.616 143.097C144.098 142.597 143.788 142.096 143.684 141.592C143.568 141.078 143.686 140.567 144.037 140.06C144.388 139.552 144.983 139.06 145.824 138.582L149.309 136.569L151.034 138.235L148.057 139.983C147.555 140.285 147.266 140.59 147.19 140.898C147.113 141.207 147.242 141.523 147.575 141.845C147.897 142.156 148.313 142.346 148.822 142.414C149.334 142.466 149.829 142.4 150.307 142.217C150.919 141.982 151.359 141.681 151.626 141.314C151.897 140.931 151.981 140.519 151.878 140.077C151.79 139.629 151.533 139.2 151.108 138.789L148.692 136.456C148.289 136.068 147.747 135.826 147.064 135.731C146.385 135.619 145.71 135.692 145.038 135.95C144.411 136.19 143.983 136.533 143.755 136.978C143.531 137.405 143.519 137.868 143.721 138.365L140.428 138.418C140.172 137.849 140.12 137.294 140.271 136.755C140.425 136.199 140.75 135.687 141.244 135.217C141.739 134.748 142.397 134.356 143.218 134.041C144.218 133.657 145.242 133.457 146.291 133.443C147.329 133.417 148.309 133.569 149.233 133.897C150.161 134.208 150.958 134.686 151.625 135.33L157.871 141.362L155.095 142.428L153.49 140.878L154.082 140.604C154.172 141.113 154.138 141.584 153.981 142.017C153.812 142.439 153.527 142.828 153.124 143.184C152.71 143.53 152.167 143.831 151.495 144.089ZM160.918 140.192L151.532 131.128L154.287 130.071L156.133 131.854L155.581 131.623C155.301 130.97 155.338 130.381 155.693 129.857C156.05 129.316 156.662 128.88 157.528 128.547C158.424 128.204 159.364 128.044 160.35 128.069C161.351 128.089 162.316 128.285 163.244 128.658C164.162 129.02 164.971 129.54 165.673 130.218L171.711 136.049L168.778 137.175L163.274 131.86C162.86 131.46 162.399 131.156 161.891 130.947C161.383 130.739 160.862 130.628 160.327 130.616C159.797 130.587 159.285 130.667 158.792 130.856C158.315 131.04 157.975 131.286 157.775 131.596C157.563 131.895 157.501 132.229 157.592 132.598C157.682 132.967 157.934 133.351 158.348 133.751L163.852 139.066L160.918 140.192ZM180.4 132.993C179.221 133.446 177.955 133.645 176.604 133.589C175.242 133.522 173.918 133.231 172.633 132.715C171.348 132.199 170.251 131.503 169.342 130.625C168.422 129.737 167.862 128.834 167.664 127.917C167.465 126.999 167.61 126.152 168.098 125.375C168.602 124.592 169.428 123.979 170.578 123.538C171.503 123.183 172.468 123.007 173.472 123.009C174.48 122.995 175.445 123.152 176.37 123.48L176.388 124.102L170.849 118.754L173.782 117.628L186.843 130.241L184.067 131.306L182.255 129.557L183.017 129.87C183.105 130.519 182.914 131.12 182.444 131.673C181.962 132.215 181.281 132.655 180.4 132.993ZM178.643 130.874C179.315 130.616 179.784 130.273 180.05 129.845C180.316 129.417 180.378 128.943 180.236 128.423C180.109 127.897 179.769 127.368 179.217 126.835C178.676 126.313 178.044 125.903 177.32 125.607C176.599 125.294 175.864 125.118 175.115 125.079C174.366 125.041 173.656 125.151 172.984 125.409C172.327 125.661 171.864 126.009 171.594 126.454C171.314 126.888 171.237 127.368 171.364 127.893C171.494 128.402 171.835 128.923 172.387 129.456C172.94 129.989 173.57 130.407 174.279 130.709C175.004 131.006 175.748 131.17 176.512 131.203C177.276 131.235 177.986 131.126 178.643 130.874ZM189.908 129.064L176.847 116.451L179.781 115.325L192.842 127.938L189.908 129.064ZM201.87 124.752C200.616 125.233 199.301 125.443 197.923 125.382C196.545 125.321 195.222 125.03 193.951 124.508C192.681 123.987 191.592 123.287 190.683 122.41C189.74 121.499 189.167 120.593 188.965 119.693C188.766 118.776 188.91 117.937 189.395 117.176C189.895 116.41 190.712 115.809 191.846 115.374C192.802 115.007 193.759 114.803 194.717 114.761C195.69 114.713 196.643 114.798 197.576 115.014C198.509 115.23 199.386 115.553 200.207 115.983C201.016 116.402 201.737 116.917 202.37 117.528C202.531 117.683 202.683 117.85 202.825 118.028C202.983 118.201 203.095 118.359 203.162 118.505L193.757 122.115L192.032 120.449L199.78 117.474L199.202 118.79C198.807 118.228 198.299 117.787 197.675 117.467C197.067 117.142 196.411 116.951 195.707 116.896C195.017 116.834 194.352 116.927 193.71 117.173C193.098 117.408 192.674 117.734 192.437 118.151C192.19 118.556 192.169 119.03 192.375 119.572C192.585 120.096 193.042 120.658 193.746 121.258C194.261 121.836 194.87 122.293 195.573 122.629C196.278 122.948 197.006 123.126 197.755 123.165C198.519 123.197 199.237 123.085 199.909 122.827C200.58 122.569 201.038 122.246 201.283 121.857C201.542 121.463 201.622 121.036 201.522 120.578L204.793 120.533C205.003 121.058 205.026 121.584 204.864 122.112C204.701 122.64 204.367 123.134 203.861 123.592C203.37 124.044 202.706 124.431 201.87 124.752ZM215.805 119.403C214.626 119.855 213.361 120.054 212.009 119.998C210.647 119.931 209.323 119.64 208.038 119.124C206.753 118.609 205.656 117.912 204.747 117.034C203.827 116.146 203.268 115.243 203.069 114.326C202.87 113.409 203.015 112.561 203.503 111.784C204.007 111.001 204.833 110.389 205.983 109.947C206.908 109.592 207.873 109.416 208.877 109.418C209.885 109.404 210.851 109.561 211.775 109.89L211.793 110.511L206.254 105.163L209.188 104.037L222.249 116.65L219.472 117.716L217.66 115.966L218.422 116.279C218.511 116.928 218.319 117.529 217.849 118.082C217.367 118.624 216.686 119.065 215.805 119.403ZM214.048 117.283C214.72 117.025 215.189 116.682 215.455 116.254C215.721 115.826 215.783 115.352 215.641 114.832C215.514 114.306 215.174 113.777 214.622 113.244C214.082 112.722 213.449 112.313 212.725 112.016C212.004 111.703 211.269 111.527 210.52 111.489C209.771 111.45 209.061 111.56 208.389 111.818C207.732 112.07 207.269 112.419 207 112.863C206.719 113.297 206.642 113.777 206.769 114.303C206.899 114.811 207.24 115.332 207.793 115.865C208.345 116.399 208.975 116.816 209.685 117.118C210.409 117.415 211.153 117.579 211.917 117.612C212.681 117.645 213.391 117.535 214.048 117.283ZM235.614 111.799C234.36 112.28 233.044 112.49 231.666 112.429C230.289 112.368 228.965 112.077 227.695 111.555C226.425 111.034 225.335 110.335 224.426 109.457C223.483 108.546 222.911 107.641 222.708 106.74C222.51 105.823 222.653 104.984 223.138 104.224C223.638 103.457 224.455 102.857 225.59 102.421C226.545 102.054 227.502 101.85 228.46 101.808C229.433 101.761 230.386 101.845 231.319 102.061C232.252 102.277 233.129 102.6 233.95 103.03C234.759 103.449 235.48 103.964 236.113 104.575C236.274 104.731 236.426 104.897 236.569 105.076C236.726 105.248 236.838 105.407 236.905 105.552L227.5 109.162L225.775 107.496L233.523 104.522L232.945 105.838C232.551 105.275 232.042 104.834 231.419 104.514C230.81 104.189 230.154 103.999 229.45 103.943C228.761 103.882 228.095 103.974 227.453 104.22C226.841 104.455 226.417 104.781 226.181 105.198C225.933 105.603 225.912 106.077 226.119 106.619C226.328 107.144 226.785 107.706 227.489 108.305C228.004 108.883 228.613 109.34 229.316 109.676C230.022 109.995 230.749 110.174 231.498 110.212C232.262 110.245 232.98 110.132 233.652 109.874C234.324 109.616 234.782 109.293 235.026 108.904C235.285 108.51 235.365 108.083 235.265 107.625L238.536 107.58C238.746 108.105 238.77 108.631 238.607 109.16C238.445 109.688 238.11 110.181 237.604 110.639C237.113 111.091 236.45 111.478 235.614 111.799ZM243.676 108.425L234.29 99.3606L237.044 98.3034L238.89 100.086L238.339 99.8555C238.059 99.2024 238.096 98.6138 238.45 98.0897C238.808 97.5487 239.42 97.1121 240.286 96.7797C241.181 96.4359 242.122 96.2766 243.108 96.3018C244.109 96.3212 245.073 96.5175 246.002 96.8906C246.919 97.2526 247.729 97.7723 248.43 98.4499L254.469 104.281L251.536 105.407L246.032 100.092C245.618 99.6926 245.157 99.3883 244.649 99.1798C244.141 98.9712 243.619 98.8608 243.085 98.8485C242.554 98.8194 242.043 98.8994 241.55 99.0885C241.072 99.2719 240.733 99.5185 240.532 99.8284C240.32 100.127 240.259 100.461 240.349 100.83C240.439 101.199 240.691 101.584 241.106 101.983L246.609 107.299L243.676 108.425ZM263.158 101.226C261.978 101.678 260.713 101.877 259.362 101.821C257.999 101.754 256.676 101.463 255.391 100.947C254.105 100.432 253.009 99.735 252.1 98.8575C251.18 97.9689 250.62 97.066 250.421 96.1488C250.223 95.2316 250.368 94.3843 250.856 93.6069C251.359 92.8238 252.186 92.2117 253.335 91.7704C254.261 91.4151 255.226 91.2388 256.23 91.2415C257.237 91.2272 258.203 91.3843 259.127 91.7126L259.145 92.3344L253.607 86.986L256.54 85.86L269.601 98.4728L266.825 99.5387L265.013 97.7892L265.775 98.1021C265.863 98.7512 265.672 99.3524 265.202 99.9055C264.72 100.447 264.039 100.888 263.158 101.226ZM261.401 99.1059C262.073 98.848 262.541 98.5051 262.807 98.077C263.073 97.6489 263.136 97.1749 262.994 96.655C262.867 96.1294 262.527 95.6 261.975 95.0669C261.434 94.5448 260.802 94.1356 260.078 93.8392C259.357 93.526 258.622 93.3502 257.873 93.3117C257.124 93.2733 256.413 93.383 255.742 93.6409C255.085 93.893 254.622 94.2416 254.352 94.6865C254.071 95.1203 253.994 95.6 254.121 96.1256C254.252 96.6344 254.593 97.1553 255.145 97.6885C255.697 98.2217 256.328 98.6393 257.037 98.9414C257.761 99.2378 258.505 99.4024 259.27 99.4351C260.034 99.4678 260.744 99.358 261.401 99.1059ZM269.578 93.4986L267.594 91.5825L277.111 87.9294L279.095 89.8455L269.578 93.4986ZM292.085 89.9816C290.712 90.5088 289.357 90.6408 288.021 90.3777C286.688 90.0977 285.492 89.4468 284.434 88.4249L280.293 84.4261L278.188 85.2341L276.169 83.2847L276.393 83.1987C276.99 82.9695 277.332 82.6752 277.419 82.3159C277.506 81.9566 277.32 81.5547 276.859 81.1104L276.135 80.4106L279.068 79.2846L281.208 81.3507L284.007 80.2762L286.025 82.2256L283.226 83.3001L287.246 87.1822C287.557 87.4821 287.889 87.7118 288.242 87.8713C288.609 88.025 289 88.1002 289.414 88.0966C289.842 88.0874 290.295 87.991 290.773 87.8077C290.878 87.7676 290.991 87.7162 291.114 87.6535C291.252 87.5851 291.382 87.5195 291.505 87.4568L293.437 89.3229C293.251 89.4254 293.036 89.5393 292.79 89.6646C292.544 89.79 292.309 89.8957 292.085 89.9816ZM302.069 86.2892C300.874 86.7476 299.572 86.9605 298.161 86.9277C296.765 86.8892 295.408 86.6262 294.089 86.1388C292.786 85.6456 291.663 84.9437 290.72 84.0328C289.776 83.122 289.22 82.2022 289.051 81.2736C288.897 80.3392 289.093 79.4803 289.638 78.6968C290.182 77.9134 291.059 77.2896 292.268 76.8254C293.463 76.367 294.758 76.157 296.154 76.1955C297.55 76.234 298.899 76.4999 300.203 76.993C301.51 77.4693 302.64 78.1684 303.595 79.0904C304.538 80.0012 305.087 80.9238 305.241 81.8582C305.395 82.7926 305.199 83.6515 304.655 84.435C304.11 85.2184 303.248 85.8365 302.069 86.2892ZM299.998 84.2898C300.655 84.0377 301.109 83.7004 301.36 83.278C301.626 82.85 301.688 82.376 301.546 81.8561C301.408 81.3194 301.068 80.79 300.527 80.268C299.975 79.7348 299.343 79.3256 298.63 79.0403C297.921 78.7382 297.192 78.5679 296.443 78.5295C295.697 78.4742 294.996 78.5726 294.339 78.8248C293.667 79.0827 293.204 79.4312 292.949 79.8704C292.683 80.2985 292.614 80.7753 292.741 81.3009C292.871 81.8097 293.213 82.3306 293.765 82.8638C294.305 83.3859 294.936 83.8035 295.657 84.1167C296.381 84.4131 297.118 84.5805 297.867 84.619C298.616 84.6574 299.326 84.5477 299.998 84.2898ZM307.761 78.8418L305.777 76.9257L315.293 73.2726L317.277 75.1887L307.761 78.8418ZM162.987 170.743C161.733 171.224 160.417 171.434 159.04 171.373C157.662 171.312 156.338 171.021 155.068 170.499C153.798 169.978 152.708 169.279 151.8 168.401C150.857 167.49 150.284 166.585 150.082 165.684C149.883 164.767 150.026 163.928 150.511 163.168C151.011 162.401 151.828 161.8 152.963 161.365C153.918 160.998 154.875 160.794 155.833 160.752C156.806 160.705 157.759 160.789 158.692 161.005C159.626 161.221 160.503 161.544 161.323 161.974C162.133 162.393 162.854 162.908 163.486 163.519C163.647 163.675 163.799 163.841 163.942 164.02C164.099 164.192 164.212 164.351 164.279 164.496L154.874 168.106L153.148 166.44L160.896 163.466L160.319 164.782C159.924 164.219 159.415 163.778 158.792 163.458C158.184 163.133 157.528 162.942 156.823 162.887C156.134 162.825 155.468 162.918 154.826 163.164C154.214 163.399 153.79 163.725 153.554 164.142C153.306 164.547 153.286 165.021 153.492 165.563C153.702 166.088 154.159 166.65 154.862 167.249C155.378 167.827 155.987 168.284 156.689 168.62C157.395 168.939 158.122 169.117 158.871 169.156C159.635 169.189 160.353 169.076 161.025 168.818C161.697 168.56 162.155 168.237 162.399 167.848C162.658 167.454 162.738 167.027 162.639 166.569L165.91 166.524C166.119 167.049 166.143 167.575 165.98 168.103C165.818 168.632 165.484 169.125 164.978 169.583C164.486 170.035 163.823 170.422 162.987 170.743ZM171.049 167.368L161.663 158.305L164.418 157.247L166.264 159.03L165.712 158.799C165.432 158.146 165.469 157.558 165.824 157.034C166.181 156.493 166.793 156.056 167.659 155.724C168.555 155.38 169.495 155.221 170.481 155.246C171.482 155.265 172.447 155.461 173.375 155.835C174.293 156.197 175.102 156.716 175.804 157.394L181.842 163.225L178.909 164.351L173.405 159.036C172.991 158.637 172.53 158.332 172.022 158.124C171.514 157.915 170.993 157.805 170.459 157.792C169.928 157.763 169.416 157.843 168.923 158.032C168.446 158.216 168.106 158.462 167.906 158.772C167.694 159.071 167.633 159.405 167.723 159.774C167.813 160.143 168.065 160.528 168.479 160.927L173.983 166.242L171.049 167.368ZM190.531 160.17C189.352 160.622 188.087 160.821 186.735 160.765C185.373 160.698 184.049 160.407 182.764 159.891C181.479 159.376 180.382 158.679 179.473 157.801C178.553 156.913 177.994 156.01 177.795 155.093C177.596 154.176 177.741 153.328 178.229 152.551C178.733 151.768 179.559 151.156 180.709 150.714C181.634 150.359 182.599 150.183 183.603 150.185C184.611 150.171 185.576 150.328 186.501 150.657L186.519 151.278L180.98 145.93L183.914 144.804L196.975 157.417L194.198 158.483L192.386 156.733L193.148 157.046C193.236 157.695 193.045 158.296 192.575 158.849C192.093 159.391 191.412 159.831 190.531 160.17ZM188.774 158.05C189.446 157.792 189.915 157.449 190.181 157.021C190.447 156.593 190.509 156.119 190.367 155.599C190.24 155.073 189.9 154.544 189.348 154.011C188.808 153.489 188.175 153.08 187.451 152.783C186.73 152.47 185.995 152.294 185.246 152.256C184.497 152.217 183.787 152.327 183.115 152.585C182.458 152.837 181.995 153.186 181.726 153.63C181.445 154.064 181.368 154.544 181.495 155.07C181.625 155.578 181.966 156.099 182.519 156.632C183.071 157.166 183.701 157.583 184.411 157.885C185.135 158.182 185.879 158.346 186.643 158.379C187.407 158.412 188.117 158.302 188.774 158.05Z" fill="#FCFF32"/>
<path opacity="0.6" d="M251.219 253.76L248.219 250.863L239.964 254.032L237.005 251.175L237.139 240.339L240.744 238.955L249.5 247.411L252.217 246.368L254.411 248.487L251.694 249.53L254.693 252.426L251.219 253.76ZM240.583 250.752L240.644 250.81L246.025 248.744L240.671 243.574L240.619 243.594L240.583 250.752Z" fill="#00401E"/>
<g opacity="0.6">
<path d="M377.369 165.092C377.943 164.267 378.232 163.341 378.221 162.371C378.209 161.402 377.897 160.408 377.302 159.449C376.752 158.528 375.943 157.656 374.922 156.888C373.902 156.119 372.692 155.47 371.364 154.977C370.036 154.485 368.619 154.161 367.197 154.024C365.774 153.887 364.377 153.94 363.088 154.18C361.496 154.414 360.11 154.946 359.077 155.719C357.97 156.518 357.202 157.508 356.832 158.616C356.461 159.724 356.497 160.92 356.937 162.114C357.411 163.403 358.428 164.64 359.862 165.67C361.295 166.701 363.084 167.482 365.006 167.916C367.497 168.411 370.025 168.447 372.296 168.018C374.58 167.553 376.389 166.512 377.369 165.092ZM360.717 161.708C360.321 160.898 360.191 160.072 360.334 159.289C360.478 158.506 360.893 157.787 361.548 157.182C362.33 156.473 363.518 156.017 364.906 155.893C365.776 155.697 366.741 155.647 367.725 155.749C368.709 155.85 369.686 156.099 370.578 156.477C371.469 156.855 372.253 157.351 372.866 157.927C373.479 158.502 373.905 159.141 374.111 159.794C374.471 160.463 374.619 161.151 374.544 161.81C374.469 162.468 374.173 163.082 373.676 163.609C372.853 164.339 371.624 164.82 370.192 164.979C368.695 165.227 367.045 165.188 365.423 164.855C364.342 164.62 363.33 164.193 362.508 163.624C361.686 163.056 361.088 162.37 360.787 161.648L360.717 161.708Z" fill="#00401E"/>
<path d="M389.986 181.214C390.869 181.016 391.718 180.777 392.533 180.497C393.041 180.335 393.489 180.107 393.853 179.827C394.362 179.443 394.654 178.945 394.694 178.395C394.692 177.564 394.435 176.709 393.929 175.882C393.341 174.806 392.28 173.781 391.713 172.726C391.449 172.334 391.39 171.917 391.547 171.549C391.6 171.367 391.714 171.202 391.881 171.065C392.048 170.928 392.265 170.821 392.517 170.753C394.445 170.658 396.315 170.422 398.093 170.048C398.949 169.697 399.585 169.169 399.933 168.526C400.381 167.519 400.672 166.474 400.805 165.392C400.988 164.747 401.094 164.087 401.122 163.41C401.114 162.907 400.922 162.387 400.561 161.899C400.204 161.439 399.676 161.032 399.036 160.723C398.088 160.264 397.059 159.901 395.991 159.646C394.638 159.289 393.313 158.859 392.032 158.36C391.617 158.232 391.235 158.048 390.916 157.82C390.596 157.593 390.348 157.328 390.19 157.047C390.025 156.48 390.041 155.92 390.239 155.4C390.46 154.808 390.794 154.256 391.242 153.742C391.547 153.364 392.141 153.006 392.488 152.579C392.807 152.241 392.96 151.833 392.93 151.4C392.898 150.835 392.648 150.259 392.201 149.722C391.717 149.127 391.138 148.569 390.465 148.046L387.971 146.23C387.489 145.765 386.697 145.254 386.01 144.803C385.612 144.524 385.166 144.278 384.683 144.072C383.872 143.731 382.957 143.565 382.089 143.599C380.889 143.7 379.758 143.936 378.742 144.297C377.991 144.519 377.153 144.632 376.276 144.627C375.55 144.687 374.777 144.612 374.038 144.409C373.476 144.138 373.006 143.785 372.677 143.385C372.348 142.986 372.17 142.553 372.164 142.133C372.05 141.185 371.666 140.226 371.032 139.304C370.512 138.685 369.733 138.157 368.809 137.797C367.885 137.437 366.863 137.264 365.89 137.303C364.151 137.225 362.438 137.272 360.779 137.441C359.809 137.515 358.936 137.771 358.257 138.181C356.504 139.572 357.258 141.824 356.246 143.384C355.946 143.866 355.38 144.233 354.646 144.422C354.076 144.585 353.416 144.623 352.747 144.532C352.014 144.417 351.299 144.204 350.649 143.904C350.359 143.624 349.472 143.149 348.834 142.871C348.477 142.669 348.059 142.526 347.625 142.458C346.611 142.363 345.642 142.504 344.886 142.857C343.249 143.756 341.879 144.843 340.822 146.081C340.33 146.512 340.061 147.049 340.044 147.632C340.027 148.214 340.264 148.818 340.727 149.374C341.735 150.381 342.9 151.323 344.204 152.18C344.683 152.459 345.075 152.798 345.346 153.17C345.617 153.542 345.76 153.937 345.762 154.32C345.601 155.393 344.348 155.581 343.105 155.731C341.804 155.83 340.56 156.056 339.414 156.398C338.919 156.583 338.518 156.853 338.245 157.184C337.973 157.516 337.834 157.9 337.843 158.306C337.693 159.781 338.03 161.316 338.829 162.812C339.113 163.423 339.576 164.009 340.19 164.536C340.804 165.063 341.555 165.519 342.395 165.875C344.696 166.656 347.041 166.634 349.246 167.285C349.906 167.482 350.511 167.778 351.01 168.142C351.331 168.37 351.583 168.636 351.746 168.918C351.909 169.2 351.979 169.491 351.951 169.771C351.76 170.902 351.438 172.002 350.987 173.071C350.561 174.116 350.698 175.289 351.376 176.41C351.847 177.055 352.576 177.626 353.469 178.051C354.991 178.677 356.609 179.156 358.27 179.468C360.248 180.057 362.251 180.581 364.277 181.039C365.587 181.299 366.915 181.299 368.092 181.043C369.792 180.205 371.332 179.242 372.689 178.168C372.962 177.937 373.358 177.785 373.819 177.735C374.101 177.741 374.39 177.789 374.662 177.876C374.935 177.964 375.185 178.088 375.394 178.239C376.72 179.375 378.25 180.413 379.941 181.317C381.437 181.869 383.084 182.108 384.626 181.996C386.497 181.897 388.299 181.63 389.987 181.21M377.561 175.809C376.313 175.216 374.867 174.895 373.47 174.903C372.121 174.899 370.887 175.19 369.951 175.731C368.551 176.497 367.78 177.87 366.117 178.378C365.709 178.534 364.939 178.34 364.161 178.182C362.244 177.809 360.126 177.157 359.022 176.895C358.101 176.72 357.189 176.505 356.292 176.249C355.751 176.066 355.178 175.894 354.982 175.577C354.533 174.826 354.477 174.035 354.829 173.355C355.336 172.303 355.662 171.195 355.791 170.053C355.814 169.445 355.625 168.816 355.237 168.215C354.85 167.613 354.273 167.053 353.552 166.578C352.623 165.906 351.485 165.377 350.252 165.042C347.911 164.603 345.67 164.68 343.458 163.937C342.48 163.627 341.916 162.701 341.47 161.763C340.972 160.769 340.741 159.759 340.78 158.771C340.871 158.181 341.619 158.057 342.399 157.921C343.794 157.786 345.123 157.548 346.387 157.206C347.033 156.99 347.566 156.667 347.944 156.261C348.322 155.856 348.534 155.379 348.563 154.87C348.611 154.316 348.47 153.739 348.149 153.181C347.829 152.623 347.337 152.097 346.709 151.64C345.328 150.759 344.06 149.804 342.924 148.789C342.681 148.506 342.553 148.197 342.553 147.898C342.553 147.598 342.682 147.32 342.924 147.095C343.914 146.183 345.04 145.347 346.291 144.595C346.564 144.388 346.934 144.247 347.358 144.186C347.833 144.581 348.417 144.911 349.069 145.16C350.096 145.673 351.246 146.034 352.436 146.214C353.672 146.412 354.901 146.358 355.964 146.067C357.313 145.758 358.35 145.105 358.877 144.231C359.774 142.81 359.008 140.758 360.641 139.543C361.018 139.399 361.901 139.321 362.862 139.278C363.897 139.233 364.945 139.244 366.006 139.312C367.059 139.397 367.638 139.533 367.938 139.908C368.445 140.86 368.778 141.817 368.939 142.78C369.107 143.486 369.536 144.184 370.185 144.811C370.835 145.438 371.685 145.975 372.658 146.371C373.767 146.794 374.959 147.048 376.151 147.119C377.765 147.194 379.328 147.048 380.743 146.691L383.017 146.177L385.492 147.932L387.614 149.561C387.984 149.876 388.322 150.203 388.629 150.542C388.78 150.712 388.88 150.895 388.922 151.079L387.649 152.221C386.896 153.045 386.377 153.971 386.11 154.962C385.927 155.699 385.944 156.475 386.161 157.255C386.378 157.85 386.772 158.431 387.321 158.961C387.87 159.49 388.56 159.958 389.348 160.333C391.134 161.181 393.045 161.87 395.031 162.39L396.814 163.011L396.558 164.542C396.418 165.085 396.347 165.863 396.113 166.569C395.882 167.278 395.931 167.325 395.523 167.481C394.679 167.714 393.733 167.81 392.752 167.762C391.576 167.797 390.465 167.991 389.483 168.332C388.37 168.795 387.581 169.519 387.246 170.398C386.914 171.119 386.897 171.925 387.203 172.728C387.937 174.03 388.784 175.312 389.744 176.575C389.926 176.968 390.058 177.365 390.139 177.761L387.659 178.289C386.616 178.586 385.516 178.812 384.372 178.964C383.666 179.118 382.851 179.083 382.08 178.864C381.254 178.445 380.524 177.941 379.927 177.377C379.226 176.8 378.433 176.272 377.561 175.809Z" fill="#00401E"/>
<path d="M403.72 160.262C405.491 160.408 407.258 160.847 408.856 161.539C410.454 162.231 411.831 163.152 412.859 164.217C413.683 165.013 414.312 165.878 414.712 166.769C415.392 168.024 415.394 169.32 414.717 170.415C413.96 171.569 412.615 172.463 410.876 172.966C410.114 173.264 409.206 173.403 408.246 173.37C407.287 173.336 406.312 173.13 405.424 172.775C405.12 172.61 404.75 172.522 404.396 172.529C404.042 172.537 403.733 172.639 403.536 172.814C403.339 172.989 403.271 173.223 403.347 173.463C403.423 173.703 403.637 173.93 403.941 174.095C404.98 174.653 406.16 175.063 407.388 175.294C408.615 175.524 409.856 175.567 411.011 175.421C414.361 175.061 417.142 173.83 418.79 171.978C419.794 170.589 420.019 168.936 419.43 167.268C418.89 165.663 417.732 164.107 416.075 162.757C414.461 161.435 412.41 160.365 410.138 159.66C407.867 158.955 405.457 158.641 403.163 158.75C402.909 158.729 402.665 158.762 402.469 158.845C402.273 158.928 402.135 159.056 402.074 159.21C402.025 159.338 402.032 159.479 402.093 159.618C402.154 159.758 402.269 159.89 402.424 160.002C402.579 160.114 402.77 160.201 402.976 160.255C403.182 160.309 403.397 160.328 403.598 160.309L403.72 160.262Z" fill="#00401E"/>
<path d="M433.099 161.302C434.018 160.27 434.783 159.169 435.385 158.013C435.481 157.37 435.36 156.695 435.031 156.034C434.703 155.373 434.174 154.742 433.48 154.183C430.724 152.096 427.422 150.352 423.796 149.066C422.711 148.625 421.5 148.405 420.343 148.437C418.826 148.545 417.432 148.891 416.266 149.448C415.738 149.745 415.088 149.943 414.369 150.027C413.65 150.11 412.88 150.077 412.121 149.929C411.78 149.845 411.459 149.712 411.183 149.541C410.907 149.37 410.684 149.166 410.531 148.944C409.799 147.828 408.983 146.73 408.083 145.648C407.362 144.936 406.422 144.32 405.341 143.85C404.261 143.38 403.071 143.071 401.871 142.949C398.666 142.748 395.584 143.089 392.912 143.94C392.775 143.975 392.654 144.029 392.557 144.098C392.461 144.168 392.39 144.253 392.349 144.348C392.308 144.443 392.298 144.545 392.32 144.65C392.341 144.754 392.393 144.859 392.474 144.957C392.551 145.056 392.656 145.147 392.781 145.225C392.905 145.303 393.048 145.366 393.201 145.411C393.353 145.455 393.512 145.481 393.669 145.485C393.825 145.49 393.976 145.474 394.112 145.438C396.419 144.734 399.069 144.469 401.813 144.668C402.574 144.76 403.324 144.967 404.004 145.271C404.684 145.575 405.274 145.969 405.73 146.421C406.89 147.542 407.266 149.091 408.456 150.197C409.193 150.909 410.252 151.466 411.436 151.762C412.474 152.062 413.569 152.183 414.602 152.109C416.064 151.979 417.43 151.664 418.633 151.182C419.731 150.761 420.826 150.34 422.378 150.949C425.003 151.951 427.444 153.207 429.598 154.664C430.705 155.48 431.66 156.317 431.54 157.176C431.423 158.036 429.143 159.727 428.643 161.061C428.367 161.71 428.461 162.444 428.909 163.139C429.231 163.636 429.714 164.096 430.319 164.481C430.925 164.867 431.635 165.168 432.392 165.359C433.581 165.638 434.783 165.838 435.996 165.959C436.674 166.025 437.338 166.031 437.778 166.287L438.338 167.801C438.586 169.199 438.726 170.589 438.759 171.973C438.815 172.695 438.72 173.401 438.474 174.07L437.145 174.221C434.852 174.122 432.595 174.142 430.372 174.279C429.624 174.369 428.947 174.576 428.394 174.885C427.841 175.193 427.425 175.595 427.177 176.06C426.782 176.787 426.725 177.61 427.012 178.437C427.598 179.608 428.361 180.757 429.289 181.864C429.845 182.401 430.157 182.999 429.576 183.45C428.925 183.922 428.22 184.356 427.463 184.751C426.235 185.386 424.881 185.938 423.6 186.56L422.068 187.41C421.138 187.117 420.267 186.721 419.499 186.242C418.179 185.46 416.73 184.787 415.196 184.242C414.378 183.978 413.516 183.818 412.663 183.77C411.809 183.723 410.981 183.79 410.227 183.967C409.13 184.199 408.268 184.703 407.797 185.389C407.312 186.282 407.124 187.264 407.244 188.277C407.226 189.064 407.367 189.92 405.814 190.03C404.963 190.061 404.096 190.045 403.223 189.98C400.888 189.8 398.521 189.374 396.244 189.204C395.587 189.162 394.575 189.159 393.665 189.084C393.328 189.069 392.988 189.013 392.66 188.918C391.873 188.535 391.765 187.631 391.686 186.75C391.565 185.811 391.719 184.897 392.147 184.061C392.214 183.961 392.248 183.85 392.246 183.733C392.244 183.616 392.207 183.497 392.136 183.381C392.066 183.266 391.964 183.157 391.835 183.061C391.707 182.965 391.556 182.883 391.389 182.821C391.228 182.757 391.054 182.713 390.878 182.692C390.702 182.671 390.528 182.673 390.366 182.699C390.204 182.725 390.058 182.773 389.936 182.841C389.814 182.909 389.718 182.995 389.656 183.095C388.907 184.392 388.673 185.847 388.972 187.339C388.984 187.914 389.196 188.503 389.593 189.062C389.99 189.621 390.56 190.135 391.26 190.565C391.866 190.829 392.53 191.008 393.207 191.09C394.299 191.255 395.624 191.269 396.414 191.354C398.715 191.548 401.07 192.047 403.374 192.239C404.49 192.359 405.59 192.393 406.675 192.339C407.857 192.329 408.913 192.019 409.627 191.467C410.537 190.635 410.978 189.588 410.9 188.466C410.899 187.618 410.692 186.656 412.051 186.363C412.388 186.291 412.756 186.269 413.133 186.299C413.51 186.328 413.888 186.407 414.244 186.533C415.67 187.118 417.011 187.807 418.245 188.58C419.444 189.285 420.835 189.815 422.296 190.125C422.928 190.222 423.555 190.197 424.103 190.048C424.963 189.744 425.749 189.377 426.462 188.947C427.905 188.393 429.286 187.863 430.526 187.158C431.518 186.691 432.434 186.165 433.274 185.581C434.145 184.999 434.592 184.178 434.524 183.277C434.275 182.169 433.669 181.067 432.754 180.044C432.067 179.169 431.177 178.271 431.644 177.409C431.796 177.09 432.397 177.12 432.958 177.068C434.858 176.959 437.197 177.232 438.571 177.162C439.586 177.125 440.553 176.975 441.437 176.715C441.996 176.49 442.423 176.157 442.675 175.75C443.171 174.718 443.396 173.61 443.338 172.461C443.261 170.862 442.865 169.124 442.651 167.905C442.532 167.053 442.177 166.194 441.604 165.37C441.233 164.848 440.67 164.379 439.977 164.01C439.533 163.775 439.042 163.587 438.527 163.457C437.298 163.166 436.047 162.967 434.8 162.865C434.304 162.839 433.804 162.769 433.312 162.656C433.178 162.635 433.047 162.595 432.929 162.539C432.811 162.482 432.708 162.411 432.629 162.331C432.409 161.991 432.822 161.67 433.099 161.302Z" fill="#00401E"/>
</g>
<defs>
<filter id="filter0_g_2306_880" x="0" y="16.377" width="542.835" height="381.453" filterUnits="userSpaceOnUse" color-interpolation-filters="sRGB">
<feFlood flood-opacity="0" result="BackgroundImageFix"/>
<feBlend mode="normal" in="SourceGraphic" in2="BackgroundImageFix" result="shape"/>
<feTurbulence type="fractalNoise" baseFrequency="1 1" numOctaves="3" seed="9564" />
<feDisplacementMap in="shape" scale="100" xChannelSelector="R" yChannelSelector="G" result="displacedImage" width="100%" height="100%" />
<feMerge result="effect1_texture_2306_880">
<feMergeNode in="displacedImage"/>
</feMerge>
</filter>
<filter id="filter1_n_2306_880" x="37.1243" y="84.2207" width="400.577" height="227.391" filterUnits="userSpaceOnUse" color-interpolation-filters="sRGB">
<feFlood flood-opacity="0" result="BackgroundImageFix"/>
<feBlend mode="normal" in="SourceGraphic" in2="BackgroundImageFix" result="shape"/>
<feTurbulence type="fractalNoise" baseFrequency="1 1" stitchTiles="stitch" numOctaves="3" result="noise" seed="1706" />
<feColorMatrix in="noise" type="luminanceToAlpha" result="alphaNoise" />
<feComponentTransfer in="alphaNoise" result="coloredNoise1">
<feFuncA type="discrete" tableValues="1 1 1 1 1 1 1 1 1 1 1 1 1 1 1 1 1 1 1 1 1 1 1 1 1 1 1 1 1 1 1 1 1 1 1 1 1 1 1 1 1 1 1 1 1 1 1 1 1 1 1 0 0 0 0 0 0 0 0 0 0 0 0 0 0 0 0 0 0 0 0 0 0 0 0 0 0 0 0 0 0 0 0 0 0 0 0 0 0 0 0 0 0 0 0 0 0 0 0 0 "/>
</feComponentTransfer>
<feComposite operator="in" in2="shape" in="coloredNoise1" result="noise1Clipped" />
<feFlood flood-color="rgba(0, 0, 0, 0.05)" result="color1Flood" />
<feComposite operator="in" in2="noise1Clipped" in="color1Flood" result="color1" />
<feMerge result="effect1_noise_2306_880">
<feMergeNode in="shape" />
<feMergeNode in="color1" />
</feMerge>
</filter>
<filter id="filter2_n_2306_880" x="45.6387" y="92.7852" width="13.7782" height="41.4746" filterUnits="userSpaceOnUse" color-interpolation-filters="sRGB">
<feFlood flood-opacity="0" result="BackgroundImageFix"/>
<feBlend mode="normal" in="SourceGraphic" in2="BackgroundImageFix" result="shape"/>
<feTurbulence type="fractalNoise" baseFrequency="1 1" stitchTiles="stitch" numOctaves="3" result="noise" seed="1706" />
<feColorMatrix in="noise" type="luminanceToAlpha" result="alphaNoise" />
<feComponentTransfer in="alphaNoise" result="coloredNoise1">
<feFuncA type="discrete" tableValues="1 1 1 1 1 1 1 1 1 1 1 1 1 1 1 1 1 1 1 1 1 1 1 1 1 1 1 1 1 1 1 1 1 1 1 1 1 1 1 1 1 1 1 1 1 1 1 1 1 1 1 0 0 0 0 0 0 0 0 0 0 0 0 0 0 0 0 0 0 0 0 0 0 0 0 0 0 0 0 0 0 0 0 0 0 0 0 0 0 0 0 0 0 0 0 0 0 0 0 0 "/>
</feComponentTransfer>
<feComposite operator="in" in2="shape" in="coloredNoise1" result="noise1Clipped" />
<feFlood flood-color="rgba(0, 0, 0, 0.05)" result="color1Flood" />
<feComposite operator="in" in2="noise1Clipped" in="color1Flood" result="color1" />
<feMerge result="effect1_noise_2306_880">
<feMergeNode in="shape" />
<feMergeNode in="color1" />
</feMerge>
</filter>
<filter id="filter3_n_2306_880" x="236.042" y="179.645" width="263.762" height="120.266" filterUnits="userSpaceOnUse" color-interpolation-filters="sRGB">
<feFlood flood-opacity="0" result="BackgroundImageFix"/>
<feBlend mode="normal" in="SourceGraphic" in2="BackgroundImageFix" result="shape"/>
<feTurbulence type="fractalNoise" baseFrequency="1 1" stitchTiles="stitch" numOctaves="3" result="noise" seed="1706" />
<feColorMatrix in="noise" type="luminanceToAlpha" result="alphaNoise" />
<feComponentTransfer in="alphaNoise" result="coloredNoise1">
<feFuncA type="discrete" tableValues="1 1 1 1 1 1 1 1 1 1 1 1 1 1 1 1 1 1 1 1 1 1 1 1 1 1 1 1 1 1 1 1 1 1 1 1 1 1 1 1 1 1 1 1 1 1 1 1 1 1 1 0 0 0 0 0 0 0 0 0 0 0 0 0 0 0 0 0 0 0 0 0 0 0 0 0 0 0 0 0 0 0 0 0 0 0 0 0 0 0 0 0 0 0 0 0 0 0 0 0 "/>
</feComponentTransfer>
<feComposite operator="in" in2="shape" in="coloredNoise1" result="noise1Clipped" />
<feFlood flood-color="rgba(0, 0, 0, 0.05)" result="color1Flood" />
<feComposite operator="in" in2="noise1Clipped" in="color1Flood" result="color1" />
<feMerge result="effect1_noise_2306_880">
<feMergeNode in="shape" />
<feMergeNode in="color1" />
</feMerge>
</filter>
<filter id="filter4_n_2306_880" x="481.447" y="175.928" width="17.4861" height="34.5684" filterUnits="userSpaceOnUse" color-interpolation-filters="sRGB">
<feFlood flood-opacity="0" result="BackgroundImageFix"/>
<feBlend mode="normal" in="SourceGraphic" in2="BackgroundImageFix" result="shape"/>
<feTurbulence type="fractalNoise" baseFrequency="1 1" stitchTiles="stitch" numOctaves="3" result="noise" seed="1706" />
<feColorMatrix in="noise" type="luminanceToAlpha" result="alphaNoise" />
<feComponentTransfer in="alphaNoise" result="coloredNoise1">
<feFuncA type="discrete" tableValues="1 1 1 1 1 1 1 1 1 1 1 1 1 1 1 1 1 1 1 1 1 1 1 1 1 1 1 1 1 1 1 1 1 1 1 1 1 1 1 1 1 1 1 1 1 1 1 1 1 1 1 0 0 0 0 0 0 0 0 0 0 0 0 0 0 0 0 0 0 0 0 0 0 0 0 0 0 0 0 0 0 0 0 0 0 0 0 0 0 0 0 0 0 0 0 0 0 0 0 0 "/>
</feComponentTransfer>
<feComposite operator="in" in2="shape" in="coloredNoise1" result="noise1Clipped" />
<feFlood flood-color="rgba(0, 0, 0, 0.05)" result="color1Flood" />
<feComposite operator="in" in2="noise1Clipped" in="color1Flood" result="color1" />
<feMerge result="effect1_noise_2306_880">
<feMergeNode in="shape" />
<feMergeNode in="color1" />
</feMerge>
</filter>
<filter id="filter5_n_2306_880" x="224.315" y="272.676" width="28.4827" height="28.6699" filterUnits="userSpaceOnUse" color-interpolation-filters="sRGB">
<feFlood flood-opacity="0" result="BackgroundImageFix"/>
<feBlend mode="normal" in="SourceGraphic" in2="BackgroundImageFix" result="shape"/>
<feTurbulence type="fractalNoise" baseFrequency="1 1" stitchTiles="stitch" numOctaves="3" result="noise" seed="1706" />
<feColorMatrix in="noise" type="luminanceToAlpha" result="alphaNoise" />
<feComponentTransfer in="alphaNoise" result="coloredNoise1">
<feFuncA type="discrete" tableValues="1 1 1 1 1 1 1 1 1 1 1 1 1 1 1 1 1 1 1 1 1 1 1 1 1 1 1 1 1 1 1 1 1 1 1 1 1 1 1 1 1 1 1 1 1 1 1 1 1 1 1 0 0 0 0 0 0 0 0 0 0 0 0 0 0 0 0 0 0 0 0 0 0 0 0 0 0 0 0 0 0 0 0 0 0 0 0 0 0 0 0 0 0 0 0 0 0 0 0 0 "/>
</feComponentTransfer>
<feComposite operator="in" in2="shape" in="coloredNoise1" result="noise1Clipped" />
<feFlood flood-color="rgba(0, 0, 0, 0.05)" result="color1Flood" />
<feComposite operator="in" in2="noise1Clipped" in="color1Flood" result="color1" />
<feMerge result="effect1_noise_2306_880">
<feMergeNode in="shape" />
<feMergeNode in="color1" />
</feMerge>
</filter>
<filter id="filter6_n_2306_880" x="48.5216" y="1.56055" width="442.835" height="281.453" filterUnits="userSpaceOnUse" color-interpolation-filters="sRGB">
<feFlood flood-opacity="0" result="BackgroundImageFix"/>
<feBlend mode="normal" in="SourceGraphic" in2="BackgroundImageFix" result="shape"/>
<feTurbulence type="fractalNoise" baseFrequency="1 1" stitchTiles="stitch" numOctaves="3" result="noise" seed="1706" />
<feColorMatrix in="noise" type="luminanceToAlpha" result="alphaNoise" />
<feComponentTransfer in="alphaNoise" result="coloredNoise1">
<feFuncA type="discrete" tableValues="1 1 1 1 1 1 1 1 1 1 1 1 1 1 1 1 1 1 1 1 1 1 1 1 1 1 1 1 1 1 1 1 1 1 1 1 1 1 1 1 1 1 1 1 1 1 1 1 1 1 1 0 0 0 0 0 0 0 0 0 0 0 0 0 0 0 0 0 0 0 0 0 0 0 0 0 0 0 0 0 0 0 0 0 0 0 0 0 0 0 0 0 0 0 0 0 0 0 0 0 "/>
</feComponentTransfer>
<feComposite operator="in" in2="shape" in="coloredNoise1" result="noise1Clipped" />
<feFlood flood-color="rgba(0, 0, 0, 0.05)" result="color1Flood" />
<feComposite operator="in" in2="noise1Clipped" in="color1Flood" result="color1" />
<feMerge result="effect1_noise_2306_880">
<feMergeNode in="shape" />
<feMergeNode in="color1" />
</feMerge>
</filter>
<linearGradient id="paint0_linear_2306_880" x1="31.9321" y1="99.7815" x2="345.241" y2="394.102" gradientUnits="userSpaceOnUse">
<stop stop-color="#32FF92"/>
<stop offset="1" stop-color="#0A7FD2"/>
</linearGradient>
<linearGradient id="paint1_linear_2306_880" x1="44.6532" y1="115.426" x2="59.6532" y2="120.926" gradientUnits="userSpaceOnUse">
<stop stop-color="#00B087"/>
<stop offset="1" stop-color="#2EF498"/>
</linearGradient>
<linearGradient id="paint2_linear_2306_880" x1="229.312" y1="299.659" x2="644.058" y2="144.254" gradientUnits="userSpaceOnUse">
<stop stop-color="#32FF92"/>
<stop offset="1" stop-color="#0A7FD2"/>
</linearGradient>
<linearGradient id="paint3_linear_2306_880" x1="484.09" y1="197.015" x2="492.378" y2="196.906" gradientUnits="userSpaceOnUse">
<stop stop-color="#19AFBA"/>
<stop offset="1" stop-color="#00B087"/>
</linearGradient>
<linearGradient id="paint4_linear_2306_880" x1="223.292" y1="287.011" x2="252.797" y2="287.011" gradientUnits="userSpaceOnUse">
<stop stop-color="#19AFBA"/>
<stop offset="0.461043" stop-color="#00B087"/>
<stop offset="1" stop-color="#30F896"/>
</linearGradient>
<linearGradient id="paint5_linear_2306_880" x1="43.6476" y1="100.743" x2="500.033" y2="185.172" gradientUnits="userSpaceOnUse">
<stop stop-color="#0A7FD2"/>
<stop offset="1" stop-color="#32FF92"/>
</linearGradient>
</defs>
</svg>
