<svg width="543" height="398" viewBox="0 0 543 398" fill="none" xmlns="http://www.w3.org/2000/svg">
<g filter="url(#filter0_g_2306_820)">
<path d="M489.735 240.714L309.839 69.1384C307.067 66.4951 303.029 65.6681 299.442 67.0093L56.4975 157.835C49.5891 160.417 47.7625 169.337 53.0997 174.428L230.277 343.41C234.712 347.639 241.173 348.962 246.913 346.816L486.338 257.307C493.246 254.724 495.073 245.804 489.735 240.714Z" fill="black" fill-opacity="0.25"/>
</g>
<mask id="mask0_2306_820" style="mask-type:alpha" maskUnits="userSpaceOnUse" x="48" y="95" width="444" height="202">
<path d="M477.309 180.296L491.355 182.632V196.474C491.355 196.474 491.355 199.062 490.552 200.346C489.417 202.166 485.27 203.242 485.27 203.242L252.796 293.624C252.796 293.624 242.361 297.884 235.806 296.161C230.393 294.737 224.263 288.665 224.263 288.665L50.6903 121.72C50.6903 121.72 49.4854 120.39 49.0665 119.605C48.6265 118.78 48.5312 117.271 48.5312 117.271V102.781L54.4171 95.2832L241.944 268.097L477.309 180.296Z" fill="#D9D9D9"/>
</mask>
<g mask="url(#mask0_2306_820)">
<g filter="url(#filter1_n_2306_820)">
<path d="M37.1242 84.2207V110.334L234.172 311.611L437.701 202.204L187.127 85.389L37.1242 84.2207Z" fill="url(#paint0_linear_2306_820)"/>
</g>
<g filter="url(#filter2_n_2306_820)">
<path d="M53.4203 103.277L56.4185 92.7832L51.4215 94.782L45.6385 102.184L46.4246 121.766L59.4166 134.258L58.9169 115.269L53.4203 103.277Z" fill="url(#paint1_linear_2306_820)"/>
</g>
<g filter="url(#filter3_n_2306_820)">
<path d="M236.042 299.911L236.073 267.964L487.632 179.645L499.804 186.893V201.031L236.042 299.911Z" fill="url(#paint2_linear_2306_820)"/>
</g>
<g filter="url(#filter4_n_2306_820)">
<path d="M481.447 210.497L481.447 186.603L498.933 175.928L498.933 204.803L481.447 210.497Z" fill="url(#paint3_linear_2306_820)"/>
</g>
<g filter="url(#filter5_n_2306_820)">
<path d="M237.307 281.668C231.267 280.401 224.315 272.674 224.315 272.674V290.163C224.315 290.163 231.81 300.182 236.307 301.156C243.004 302.608 252.797 295.16 252.797 295.16V278.67C252.797 278.67 243.337 282.934 237.307 281.668Z" fill="url(#paint4_linear_2306_820)"/>
</g>
</g>
<g filter="url(#filter6_n_2306_820)">
<path d="M488.257 175.897L308.36 4.32195C305.589 1.67867 301.55 0.851733 297.963 2.19289L55.019 93.0183C48.1106 95.601 46.284 104.521 51.6212 109.611L228.799 278.594C233.233 282.823 239.695 284.146 245.434 282L484.859 192.49C491.768 189.908 493.594 180.988 488.257 175.897Z" fill="url(#paint5_linear_2306_820)"/>
</g>
<path d="M116.999 125.381C115.82 125.833 114.569 126.096 113.246 126.169C111.928 126.225 110.596 126.108 109.251 125.817C107.922 125.52 106.653 125.06 105.445 124.437C104.236 123.814 103.155 123.042 102.2 122.12C101.234 121.187 100.55 120.254 100.148 119.322C99.7457 118.39 99.6113 117.494 99.7447 116.636C99.878 115.778 100.284 115.001 100.962 114.306C101.629 113.6 102.551 113.02 103.731 112.568C104.88 112.127 106.066 111.881 107.287 111.831C108.523 111.776 109.702 111.867 110.823 112.104C111.96 112.335 112.944 112.671 113.777 113.112L112.469 114.569C111.367 114.029 110.188 113.706 108.93 113.599C107.66 113.481 106.45 113.643 105.301 114.084C104.136 114.531 103.312 115.135 102.827 115.895C102.357 116.65 102.247 117.491 102.499 118.419C102.751 119.347 103.383 120.3 104.395 121.278C105.395 122.244 106.529 122.996 107.796 123.535C109.063 124.073 110.357 124.376 111.678 124.443C113.014 124.504 114.264 124.311 115.429 123.864C116.578 123.423 117.345 122.834 117.729 122.097C118.101 121.348 118.125 120.555 117.8 119.718L120.523 119.627C120.818 120.275 120.891 120.96 120.744 121.684C120.612 122.403 120.238 123.089 119.623 123.745C119.023 124.394 118.148 124.939 116.999 125.381ZM130.177 120.322C129.386 120.626 128.575 120.789 127.745 120.813C126.918 120.82 126.137 120.701 125.402 120.455C124.656 120.198 124.025 119.82 123.507 119.32C123.012 118.842 122.704 118.363 122.582 117.882C122.463 117.384 122.556 116.891 122.862 116.401C123.183 115.905 123.734 115.429 124.515 114.974L128.424 112.706L129.77 114.005L126.279 116.044C125.606 116.442 125.229 116.843 125.147 117.247C125.079 117.645 125.247 118.039 125.65 118.427C126.029 118.794 126.54 119.025 127.181 119.12C127.837 119.21 128.464 119.14 129.061 118.911C129.822 118.619 130.358 118.25 130.669 117.805C130.983 117.343 131.084 116.846 130.972 116.315C130.875 115.777 130.567 115.259 130.05 114.759L127.686 112.477C127.18 111.988 126.525 111.688 125.722 111.577C124.922 111.45 124.127 111.538 123.336 111.841C122.649 112.105 122.175 112.473 121.914 112.946C121.656 113.402 121.624 113.895 121.819 114.426L119.281 114.422C119.079 113.926 119.058 113.421 119.217 112.91C119.364 112.388 119.669 111.906 120.13 111.465C120.591 111.024 121.18 110.666 121.897 110.391C122.822 110.036 123.774 109.857 124.752 109.854C125.718 109.84 126.636 109.992 127.508 110.31C128.382 110.61 129.136 111.066 129.769 111.677L136.083 117.775L134.046 118.557L132.286 116.858L132.77 116.812C132.884 117.265 132.863 117.708 132.706 118.14C132.549 118.573 132.26 118.979 131.839 119.358C131.418 119.737 130.864 120.058 130.177 120.322ZM139.648 116.407L130.348 107.426L132.386 106.644L134.198 108.394L133.707 108.373C133.419 107.691 133.442 107.069 133.777 106.506C134.115 105.926 134.732 105.464 135.628 105.12C136.493 104.788 137.412 104.637 138.383 104.668C139.368 104.693 140.32 104.887 141.237 105.249C142.169 105.605 142.969 106.106 143.636 106.75L149.658 112.565L147.553 113.373L142.049 108.058C141.531 107.558 140.975 107.182 140.379 106.929C139.784 106.676 139.164 106.541 138.521 106.524C137.881 106.491 137.277 106.583 136.71 106.8C136.143 107.018 135.739 107.313 135.498 107.685C135.261 108.04 135.199 108.444 135.313 108.897C135.416 109.338 135.721 109.804 136.227 110.292L141.731 115.608L139.648 116.407ZM144.774 102.89L143.997 102.14C144.368 101.874 144.545 101.581 144.527 101.262C144.513 100.926 144.338 100.566 144.004 100.182L142.996 100.569L140.925 98.5695L143.098 97.7357L144.564 99.152C145.312 99.874 145.709 100.56 145.756 101.209C145.806 101.842 145.479 102.402 144.774 102.89ZM165.008 106.812C163.829 107.265 162.659 107.364 161.5 107.111C160.355 106.852 159.311 106.267 158.368 105.356L153.468 100.624L151.274 101.466L149.738 99.9833L150.186 99.8114C150.723 99.6051 151.022 99.3196 151.083 98.9549C151.143 98.5902 150.966 98.2079 150.552 97.808L149.793 97.0749L151.876 96.2755L154.015 98.3416L156.724 97.3015L158.26 98.7844L155.551 99.8245L160.399 104.506C160.709 104.806 161.039 105.044 161.389 105.221C161.753 105.391 162.154 105.486 162.59 105.505C163.015 105.512 163.474 105.421 163.967 105.232C164.071 105.192 164.193 105.138 164.33 105.07C164.483 104.995 164.621 104.927 164.744 104.864L166.159 106.231C165.999 106.338 165.805 106.444 165.578 106.546C165.362 106.66 165.172 106.749 165.008 106.812ZM174.697 102.953L166.933 95.455L164.627 96.3404L163.091 94.8575L165.398 93.9721L164.742 93.339C164.075 92.6947 163.698 92.0788 163.611 91.4913C163.539 90.898 163.696 90.3643 164.081 89.8904C164.482 89.4107 165.07 89.0219 165.846 88.7239C166.01 88.6609 166.201 88.6032 166.418 88.551C166.639 88.4818 166.828 88.4326 166.985 88.4032L168.417 89.7862C168.275 89.8098 168.121 89.8531 167.957 89.9161C167.781 89.9681 167.649 90.0112 167.559 90.0456C166.872 90.3092 166.432 90.6491 166.237 91.0654C166.057 91.476 166.26 91.9645 166.847 92.531L167.503 93.1641L173.772 90.7574L175.308 92.2403L169.038 94.647L176.802 102.145L174.697 102.953ZM181.773 100.237L172.474 91.2559L174.579 90.4479L183.878 99.4286L181.773 100.237ZM187.096 98.1933L177.796 89.2127L179.834 88.4305L181.646 90.18L181.155 90.159C180.867 89.4779 180.89 88.8557 181.225 88.2926C181.563 87.7126 182.18 87.2507 183.075 86.9069C183.941 86.5745 184.86 86.4238 185.83 86.4547C186.816 86.4799 187.768 86.6735 188.685 87.0355C189.617 87.3917 190.417 87.892 191.084 88.5362L197.105 94.3511L195.001 95.1591L189.497 89.844C188.979 89.3442 188.423 88.9679 187.827 88.7153C187.232 88.4626 186.612 88.3278 185.969 88.3109C185.329 88.2772 184.725 88.3692 184.158 88.5869C183.591 88.8047 183.187 89.0995 182.946 89.4713C182.709 89.8263 182.647 90.2303 182.761 90.6831C182.864 91.1249 183.169 91.5902 183.675 92.0789L189.179 97.394L187.096 98.1933ZM206.114 91.1723C204.98 91.6078 203.745 91.7949 202.408 91.7334C201.087 91.6663 199.797 91.3775 198.538 90.8672C197.28 90.3569 196.196 89.6629 195.287 88.7854C194.356 87.8857 193.789 86.9857 193.587 86.0853C193.373 85.1738 193.501 84.3407 193.971 83.5859C194.456 82.8254 195.266 82.2273 196.401 81.7918C197.401 81.4079 198.456 81.228 199.566 81.2521C200.664 81.2652 201.713 81.4523 202.713 81.8136L202.774 82.3257L197.011 76.7608L199.116 75.9528L212.177 88.5656L210.14 89.3478L208.155 87.4317L208.7 87.5952C208.892 88.3443 208.751 89.0347 208.279 89.6663C207.821 90.2921 207.1 90.7941 206.114 91.1723ZM204.741 89.604C205.502 89.3118 206.038 88.9122 206.347 88.4053C206.657 87.8984 206.736 87.3402 206.585 86.7308C206.437 86.1045 206.052 85.4914 205.431 84.8916C204.798 84.2807 204.056 83.8052 203.203 83.4651C202.353 83.1081 201.486 82.9054 200.602 82.8569C199.717 82.8085 198.894 82.9304 198.133 83.2226C197.386 83.5091 196.856 83.9143 196.543 84.438C196.234 84.9449 196.155 85.5031 196.306 86.1125C196.446 86.7108 196.838 87.321 197.482 87.9431C198.103 88.5429 198.838 89.0213 199.688 89.3782C200.526 89.724 201.387 89.9212 202.272 89.9697C203.156 90.0181 203.979 89.8963 204.741 89.604ZM137.689 148.504C136.51 148.956 135.244 149.155 133.893 149.099C132.557 149.038 131.26 148.752 130.001 148.241C128.742 147.731 127.653 147.032 126.733 146.143C125.801 145.243 125.234 144.343 125.032 143.443C124.83 142.543 124.971 141.712 125.456 140.952C125.956 140.185 126.796 139.576 127.975 139.123C128.766 138.819 129.615 138.641 130.52 138.589C131.425 138.536 132.323 138.587 133.213 138.742C134.104 138.897 134.916 139.168 135.65 139.553L134.481 140.933C133.714 140.576 132.89 140.364 132.009 140.299C131.116 140.222 130.289 140.33 129.528 140.623C128.796 140.903 128.276 141.297 127.966 141.804C127.672 142.305 127.6 142.861 127.751 143.47C127.903 144.08 128.3 144.695 128.944 145.317C129.566 145.917 130.301 146.396 131.15 146.752C131.988 147.098 132.842 147.298 133.712 147.353C134.597 147.401 135.405 147.285 136.136 147.004C136.897 146.712 137.42 146.31 137.703 145.797C137.974 145.274 137.999 144.713 137.777 144.116L140.36 144.102C140.604 144.66 140.655 145.223 140.512 145.79C140.357 146.346 140.046 146.861 139.578 147.336C139.11 147.811 138.48 148.2 137.689 148.504ZM149.304 144.045C148.513 144.349 147.702 144.513 146.871 144.536C146.044 144.544 145.263 144.424 144.529 144.178C143.783 143.921 143.151 143.543 142.633 143.043C142.139 142.565 141.83 142.086 141.708 141.605C141.589 141.108 141.683 140.614 141.989 140.124C142.31 139.628 142.861 139.153 143.641 138.698L147.55 136.429L148.896 137.728L145.406 139.767C144.733 140.165 144.355 140.566 144.273 140.97C144.206 141.368 144.374 141.762 144.776 142.151C145.156 142.517 145.666 142.748 146.307 142.844C146.963 142.933 147.59 142.863 148.187 142.634C148.948 142.342 149.485 141.973 149.795 141.528C150.11 141.066 150.211 140.569 150.099 140.038C150.001 139.501 149.694 138.982 149.176 138.482L146.813 136.2C146.306 135.711 145.652 135.411 144.849 135.3C144.049 135.173 143.253 135.261 142.462 135.565C141.776 135.828 141.301 136.196 141.04 136.669C140.782 137.125 140.751 137.619 140.945 138.149L138.407 138.146C138.205 137.649 138.184 137.145 138.343 136.633C138.491 136.111 138.795 135.629 139.256 135.188C139.718 134.748 140.307 134.389 141.023 134.114C141.949 133.759 142.9 133.58 143.878 133.577C144.844 133.564 145.763 133.715 146.634 134.033C147.509 134.334 148.262 134.789 148.895 135.4L155.21 141.499L153.172 142.281L151.412 140.581L151.897 140.535C152.011 140.988 151.99 141.431 151.833 141.864C151.676 142.296 151.387 142.702 150.966 143.081C150.544 143.46 149.991 143.781 149.304 144.045ZM158.775 140.13L149.475 131.15L151.513 130.367L153.324 132.117L152.833 132.096C152.545 131.415 152.568 130.793 152.903 130.229C153.241 129.649 153.858 129.187 154.754 128.844C155.62 128.511 156.538 128.361 157.509 128.392C158.495 128.417 159.446 128.61 160.363 128.972C161.296 129.329 162.095 129.829 162.762 130.473L168.784 136.288L166.679 137.096L161.175 131.781C160.658 131.281 160.101 130.905 159.506 130.652C158.91 130.399 158.291 130.265 157.647 130.248C157.007 130.214 156.404 130.306 155.837 130.524C155.269 130.741 154.865 131.036 154.624 131.408C154.387 131.763 154.326 132.167 154.44 132.62C154.543 133.062 154.847 133.527 155.353 134.016L160.857 139.331L158.775 140.13ZM177.793 133.109C176.658 133.545 175.423 133.732 174.087 133.67C172.766 133.603 171.476 133.314 170.217 132.804C168.958 132.294 167.875 131.6 166.966 130.722C166.034 129.822 165.467 128.922 165.265 128.022C165.051 127.111 165.18 126.277 165.65 125.523C166.135 124.762 166.945 124.164 168.079 123.729C169.079 123.345 170.134 123.165 171.244 123.189C172.343 123.202 173.392 123.389 174.392 123.75L174.453 124.263L168.69 118.698L170.795 117.89L183.856 130.502L181.818 131.285L179.834 129.369L180.379 129.532C180.57 130.281 180.43 130.971 179.957 131.603C179.5 132.229 178.778 132.731 177.793 133.109ZM176.419 131.541C177.181 131.249 177.716 130.849 178.026 130.342C178.335 129.835 178.414 129.277 178.263 128.668C178.115 128.041 177.731 127.428 177.11 126.828C176.477 126.217 175.734 125.742 174.881 125.402C174.032 125.045 173.165 124.842 172.28 124.794C171.395 124.745 170.572 124.867 169.811 125.159C169.065 125.446 168.535 125.851 168.222 126.375C167.912 126.882 167.833 127.44 167.985 128.049C168.124 128.648 168.516 129.258 169.16 129.88C169.782 130.48 170.517 130.958 171.366 131.315C172.204 131.661 173.066 131.858 173.95 131.906C174.835 131.955 175.658 131.833 176.419 131.541ZM187.415 129.136L178.115 120.156L180.198 119.356L189.497 128.337L187.415 129.136ZM176.631 118.723L174.561 116.723L176.643 115.924L178.714 117.923L176.631 118.723ZM198.758 125.061C197.623 125.497 196.388 125.684 195.052 125.623C193.73 125.555 192.44 125.267 191.182 124.756C189.923 124.246 188.839 123.552 187.931 122.675C186.999 121.775 186.432 120.875 186.23 119.974C186.016 119.063 186.144 118.23 186.615 117.475C187.1 116.715 187.909 116.117 189.044 115.681C190.044 115.297 191.099 115.117 192.209 115.141C193.307 115.154 194.356 115.342 195.356 115.703L195.417 116.215L189.655 110.65L191.759 109.842L204.82 122.455L202.783 123.237L200.799 121.321L201.343 121.484C201.535 122.234 201.395 122.924 200.922 123.555C200.464 124.181 199.743 124.683 198.758 125.061ZM197.384 123.493C198.145 123.201 198.681 122.801 198.99 122.294C199.3 121.788 199.379 121.229 199.228 120.62C199.08 119.994 198.695 119.381 198.074 118.781C197.442 118.17 196.699 117.694 195.846 117.354C194.997 116.997 194.13 116.795 193.245 116.746C192.36 116.698 191.537 116.82 190.776 117.112C190.029 117.398 189.5 117.803 189.187 118.327C188.877 118.834 188.798 119.392 188.949 120.002C189.089 120.6 189.481 121.21 190.125 121.832C190.746 122.432 191.482 122.91 192.331 123.267C193.169 123.613 194.03 123.81 194.915 123.859C195.8 123.907 196.623 123.785 197.384 123.493ZM212.125 119.93C211.333 120.234 210.523 120.398 209.692 120.422C208.865 120.429 208.084 120.309 207.35 120.064C206.604 119.807 205.972 119.428 205.454 118.928C204.96 118.451 204.651 117.972 204.529 117.491C204.41 116.993 204.503 116.499 204.81 116.009C205.131 115.513 205.681 115.038 206.462 114.583L210.371 112.314L211.717 113.614L208.226 115.652C207.554 116.05 207.176 116.451 207.094 116.855C207.027 117.254 207.194 117.647 207.597 118.036C207.976 118.403 208.487 118.634 209.128 118.729C209.784 118.819 210.411 118.749 211.008 118.52C211.769 118.227 212.305 117.859 212.616 117.413C212.93 116.951 213.031 116.454 212.919 115.923C212.822 115.386 212.515 114.868 211.997 114.368L209.633 112.085C209.127 111.596 208.473 111.297 207.669 111.186C206.87 111.058 206.074 111.146 205.283 111.45C204.596 111.713 204.122 112.082 203.861 112.555C203.603 113.011 203.571 113.504 203.766 114.035L201.228 114.031C201.026 113.534 201.005 113.03 201.164 112.519C201.311 111.996 201.616 111.515 202.077 111.074C202.538 110.633 203.127 110.275 203.844 110C204.769 109.645 205.721 109.465 206.699 109.463C207.665 109.449 208.584 109.601 209.455 109.918C210.33 110.219 211.083 110.675 211.716 111.286L218.031 117.384L215.993 118.166L214.233 116.467L214.717 116.42C214.832 116.873 214.81 117.316 214.653 117.749C214.497 118.182 214.208 118.588 213.786 118.967C213.365 119.346 212.811 119.667 212.125 119.93ZM226.384 114.317C225.205 114.77 224.035 114.869 222.876 114.616C221.731 114.357 220.687 113.772 219.744 112.861L214.844 108.129L212.65 108.971L211.114 107.488L211.562 107.317C212.099 107.11 212.398 106.825 212.459 106.46C212.519 106.095 212.342 105.713 211.928 105.313L211.169 104.58L213.252 103.781L215.391 105.847L218.101 104.807L219.636 106.289L216.927 107.33L221.775 112.011C222.085 112.311 222.416 112.549 222.765 112.726C223.129 112.896 223.53 112.991 223.966 113.01C224.392 113.017 224.85 112.927 225.343 112.737C225.448 112.697 225.569 112.643 225.706 112.575C225.859 112.5 225.997 112.432 226.12 112.369L227.535 113.736C227.375 113.843 227.182 113.949 226.954 114.052C226.738 114.165 226.548 114.254 226.384 114.317ZM236.023 110.757C234.859 111.204 233.608 111.396 232.272 111.335C230.936 111.274 229.639 110.988 228.38 110.477C227.11 109.956 226.015 109.251 225.094 108.362C224.163 107.462 223.588 106.565 223.371 105.671C223.169 104.77 223.301 103.951 223.768 103.213C224.238 102.458 225.026 101.869 226.13 101.445C227.026 101.101 227.944 100.92 228.883 100.9C229.827 100.864 230.75 100.96 231.653 101.188C232.56 101.398 233.41 101.716 234.205 102.141C235.003 102.549 235.689 103.03 236.264 103.586C236.391 103.708 236.519 103.852 236.651 104.019C236.785 104.169 236.907 104.317 237.015 104.462L227.117 108.261L225.737 106.928L234.425 103.593L234.061 104.571C233.597 103.942 232.988 103.454 232.233 103.107C231.477 102.761 230.686 102.56 229.857 102.506C229.029 102.451 228.264 102.558 227.562 102.828C226.861 103.097 226.357 103.477 226.051 103.967C225.744 104.457 225.686 105.015 225.875 105.641C226.068 106.25 226.545 106.882 227.306 107.536C227.925 108.215 228.658 108.741 229.504 109.115C230.353 109.472 231.228 109.671 232.127 109.714C233.03 109.74 233.847 109.613 234.579 109.332C235.385 109.022 235.921 108.623 236.185 108.133C236.45 107.643 236.53 107.116 236.425 106.551L238.861 106.547C239.048 107.05 239.066 107.571 238.915 108.11C238.767 108.632 238.454 109.125 237.974 109.589C237.509 110.046 236.859 110.436 236.023 110.757ZM248.882 105.821C247.673 106.285 246.39 106.467 245.035 106.366C243.679 106.266 242.423 105.909 241.268 105.297L242.304 104.061C243.199 104.463 244.107 104.704 245.026 104.786C245.945 104.868 246.77 104.768 247.502 104.488C248.159 104.235 248.583 103.91 248.774 103.51C248.965 103.111 248.866 102.722 248.474 102.345C248.198 102.078 247.875 101.907 247.505 101.832C247.139 101.74 246.768 101.704 246.392 101.724C246.005 101.733 245.669 101.761 245.384 101.808L243.173 102.121C241.842 102.306 240.698 102.279 239.742 102.041C238.801 101.797 238.031 101.386 237.433 100.808C236.881 100.275 236.583 99.7455 236.538 99.2192C236.498 98.676 236.676 98.173 237.073 97.7102C237.484 97.2416 238.086 96.8555 238.877 96.5518C239.937 96.1449 241.092 95.981 242.342 96.06C243.607 96.1332 244.793 96.4621 245.898 97.0466L244.801 98.283C244.049 97.9196 243.266 97.7078 242.453 97.6475C241.628 97.5761 240.879 97.6693 240.208 97.9272C239.595 98.1621 239.231 98.465 239.114 98.8358C238.986 99.1955 239.1 99.5475 239.457 99.8918C239.721 100.147 240.03 100.324 240.381 100.422C240.721 100.509 241.064 100.548 241.41 100.539C241.744 100.519 242.06 100.492 242.356 100.455L244.775 100.132C245.979 99.965 247.08 100 248.077 100.238C249.09 100.471 249.918 100.898 250.562 101.52C251.08 102.02 251.359 102.541 251.4 103.084C251.441 103.628 251.248 104.136 250.821 104.611C250.394 105.085 249.748 105.488 248.882 105.821ZM263.109 100.08L249.667 92.6895L251.973 91.8042L263.046 98.055L262.223 98.3478L257.683 89.6123L259.654 88.8559L270.642 95.1159L269.853 95.442L265.386 86.6554L267.67 85.7787L272.827 96.3495L270.834 97.1145L259.89 90.8373L260.517 90.5966L265.102 99.315L263.109 100.08ZM279.168 93.9154L266.107 81.3026L268.189 80.5032L273.762 85.8849L273.226 85.8811C272.938 85.2 272.962 84.5779 273.297 84.0147C273.635 83.4347 274.252 82.9728 275.147 82.629C276.013 82.2966 276.932 82.1459 277.902 82.1768C278.888 82.202 279.84 82.3956 280.757 82.7576C281.689 83.1138 282.489 83.6141 283.156 84.2583L289.177 90.0732L287.072 90.8812L281.569 85.5661C281.051 85.0663 280.487 84.6929 279.877 84.446C279.281 84.1933 278.669 84.0557 278.041 84.033C277.401 83.9993 276.797 84.0913 276.23 84.309C275.678 84.5211 275.281 84.813 275.04 85.1848C274.788 85.5456 274.719 85.9524 274.833 86.4053C274.936 86.847 275.24 87.3123 275.747 87.801L281.25 93.1161L279.168 93.9154ZM298.433 86.7999C297.268 87.2468 296.009 87.4509 294.654 87.412C293.288 87.3621 291.961 87.0876 290.672 86.5888C289.384 86.0899 288.274 85.3906 287.342 84.4909C286.41 83.5911 285.851 82.6882 285.664 81.7822C285.491 80.8703 285.663 80.0284 286.178 79.2564C286.692 78.4844 287.539 77.8721 288.719 77.4194C289.883 76.9724 291.148 76.7739 292.515 76.8239C293.869 76.8627 295.177 77.1289 296.439 77.6224C297.716 78.1102 298.827 78.8095 299.77 79.7203C300.713 80.6312 301.269 81.5509 301.438 82.4795C301.595 83.3971 301.416 84.2419 300.902 85.0139C300.39 85.769 299.567 86.3644 298.433 86.7999ZM296.88 85.3003C297.626 85.0138 298.154 84.6171 298.464 84.1102C298.788 83.5975 298.869 83.031 298.706 82.4104C298.559 81.7841 298.174 81.1711 297.553 80.5713C296.92 79.9604 296.183 79.4904 295.342 79.1614C294.504 78.8156 293.635 78.6213 292.736 78.5785C291.839 78.5189 291.018 78.6324 290.272 78.9189C289.51 79.2112 288.973 79.6192 288.66 80.1429C288.351 80.6498 288.264 81.2109 288.4 81.826C288.525 82.4301 288.904 83.0376 289.536 83.6485C290.158 84.2483 290.9 84.7238 291.765 85.075C292.629 85.4263 293.504 85.6261 294.388 85.6746C295.288 85.7173 296.118 85.5926 296.88 85.3003Z" fill="#FAFAFA"/>
<path d="M156.067 172.235L148.7 165.12L146.55 165.945L144.531 163.996L146.681 163.171L146.371 162.871C145.657 162.182 145.24 161.527 145.119 160.906C145.001 160.269 145.153 159.69 145.575 159.171C145.997 158.652 146.678 158.212 147.619 157.851C147.798 157.782 148.004 157.719 148.236 157.661C148.471 157.586 148.675 157.531 148.847 157.496L150.797 159.379C150.625 159.414 150.471 159.457 150.337 159.509C150.206 159.544 150.088 159.581 149.984 159.621C149.327 159.873 148.934 160.179 148.806 160.539C148.666 160.887 148.832 161.289 149.304 161.745L149.615 162.045L154.944 159.999L156.963 161.948L151.633 163.994L159 171.109L156.067 172.235ZM163.233 169.484L153.847 160.42L156.802 159.286L166.188 168.349L163.233 169.484ZM174.622 165.252C173.249 165.779 171.894 165.911 170.558 165.648C169.225 165.368 168.029 164.717 166.971 163.695L162.83 159.696L160.725 160.504L158.706 158.555L158.93 158.469C159.527 158.24 159.869 157.945 159.956 157.586C160.043 157.227 159.856 156.825 159.396 156.38L158.672 155.681L161.605 154.555L163.745 156.621L166.544 155.546L168.562 157.496L165.763 158.57L169.783 162.452C170.094 162.752 170.426 162.982 170.779 163.141C171.146 163.295 171.537 163.37 171.951 163.367C172.379 163.357 172.832 163.261 173.31 163.078C173.414 163.038 173.528 162.986 173.651 162.924C173.789 162.855 173.919 162.79 174.042 162.727L175.974 164.593C175.788 164.695 175.572 164.809 175.327 164.935C175.081 165.06 174.846 165.166 174.622 165.252ZM188.141 165.045C187.812 165.171 187.468 165.272 187.109 165.348C186.761 165.435 186.408 165.478 186.051 165.475L184.17 163.659C184.399 163.618 184.665 163.562 184.968 163.492C185.286 163.417 185.565 163.333 185.803 163.242C186.475 162.984 186.84 162.681 186.897 162.333C186.98 161.99 186.946 161.584 186.793 161.115L186.15 159.406L188.003 161.256L172.362 153.313L175.519 152.101L186.862 158.039L185.742 158.468L181.811 149.686L184.991 148.465L190.019 160.482C190.303 161.18 190.435 161.821 190.412 162.404C190.39 162.987 190.19 163.498 189.811 163.938C189.459 164.384 188.902 164.753 188.141 165.045ZM202.268 154.779C201.074 155.238 199.771 155.45 198.361 155.418C196.965 155.379 195.607 155.116 194.289 154.629C192.986 154.136 191.862 153.434 190.919 152.523C189.976 151.612 189.42 150.692 189.251 149.764C189.097 148.829 189.292 147.97 189.837 147.187C190.382 146.403 191.259 145.779 192.468 145.315C193.662 144.857 194.957 144.647 196.353 144.685C197.749 144.724 199.099 144.99 200.402 145.483C201.709 145.959 202.84 146.658 203.795 147.58C204.738 148.491 205.286 149.414 205.44 150.348C205.594 151.283 205.399 152.141 204.854 152.925C204.31 153.708 203.447 154.326 202.268 154.779ZM200.198 152.78C200.855 152.528 201.309 152.19 201.56 151.768C201.826 151.34 201.888 150.866 201.746 150.346C201.607 149.809 201.268 149.28 200.727 148.758C200.175 148.225 199.542 147.815 198.83 147.53C198.121 147.228 197.391 147.058 196.642 147.019C195.897 146.964 195.195 147.063 194.539 147.315C193.867 147.573 193.404 147.921 193.149 148.36C192.883 148.788 192.814 149.265 192.941 149.791C193.071 150.3 193.412 150.821 193.965 151.354C194.505 151.876 195.136 152.293 195.857 152.607C196.581 152.903 197.317 153.07 198.066 153.109C198.816 153.147 199.526 153.038 200.198 152.78ZM215.599 149.662C214.659 150.023 213.677 150.182 212.653 150.141C211.644 150.093 210.666 149.864 209.717 149.451C208.784 149.034 207.932 148.453 207.161 147.708L201.416 142.16L204.349 141.034L209.905 146.399C210.296 146.777 210.738 147.073 211.231 147.287C211.728 147.484 212.249 147.595 212.795 147.618C213.344 147.625 213.857 147.536 214.335 147.353C214.813 147.17 215.158 146.929 215.37 146.63C215.57 146.32 215.626 145.98 215.536 145.611C215.446 145.242 215.194 144.858 214.779 144.458L209.276 139.143L212.209 138.017L221.595 147.081L218.818 148.147L216.972 146.364L217.546 146.586C217.838 147.25 217.799 147.847 217.43 148.377C217.075 148.901 216.465 149.329 215.599 149.662ZM224.658 145.905L215.272 136.841L218.026 135.784L220.114 137.8L219.579 137.586C219.161 136.8 219.113 136.159 219.434 135.663C219.77 135.161 220.363 134.747 221.214 134.421L221.931 134.145L223.932 136.078L222.879 136.482C222.044 136.803 221.573 137.255 221.468 137.839C221.352 138.411 221.65 139.042 222.363 139.731L227.591 144.779L224.658 145.905ZM242.527 139.325C241.228 139.824 239.858 140.032 238.416 139.949C236.977 139.849 235.67 139.474 234.495 138.822L235.879 137.197C236.722 137.588 237.569 137.821 238.42 137.898C239.286 137.969 240.063 137.873 240.75 137.609C241.287 137.403 241.62 137.151 241.75 136.853C241.879 136.555 241.794 136.261 241.495 135.972C241.311 135.795 241.095 135.676 240.845 135.617C240.599 135.54 240.324 135.506 240.02 135.514C239.719 135.506 239.413 135.522 239.101 135.564L236.677 135.913C235.417 136.086 234.282 136.048 233.273 135.799C232.279 135.544 231.46 135.106 230.816 134.483C230.241 133.928 229.927 133.373 229.875 132.819C229.826 132.248 230.016 131.717 230.447 131.226C230.892 130.729 231.555 130.311 232.435 129.973C233.585 129.532 234.813 129.348 236.119 129.421C237.426 129.494 238.651 129.831 239.795 130.432L238.366 132.074C237.732 131.743 237.042 131.55 236.296 131.495C235.55 131.44 234.871 131.53 234.259 131.765C233.767 131.954 233.465 132.186 233.354 132.462C233.243 132.737 233.325 133.008 233.601 133.275C233.774 133.441 233.983 133.563 234.229 133.639C234.475 133.715 234.743 133.752 235.032 133.75C235.336 133.742 235.665 133.717 236.018 133.674L238.414 133.36C239.645 133.198 240.758 133.236 241.756 133.474C242.768 133.706 243.608 134.145 244.275 134.789C244.839 135.333 245.145 135.891 245.194 136.462C245.232 137.022 245.028 137.55 244.583 138.047C244.138 138.544 243.452 138.97 242.527 139.325ZM255.596 134.308C254.387 134.773 253.085 134.985 251.689 134.947C250.296 134.891 248.956 134.614 247.667 134.115C246.367 133.606 245.251 132.901 244.32 132.001C243.388 131.101 242.83 130.19 242.646 129.267C242.463 128.344 242.636 127.494 243.165 126.716C243.71 125.933 244.587 125.309 245.796 124.845C246.662 124.512 247.589 124.319 248.577 124.266C249.553 124.202 250.517 124.266 251.469 124.46C252.424 124.637 253.303 124.951 254.105 125.404L252.393 127.226C251.697 126.856 250.937 126.636 250.112 126.564C249.302 126.487 248.553 126.58 247.867 126.844C247.225 127.09 246.771 127.428 246.505 127.856C246.254 128.278 246.199 128.749 246.341 129.269C246.483 129.789 246.83 130.315 247.382 130.849C247.934 131.382 248.565 131.799 249.274 132.102C249.984 132.404 250.705 132.577 251.439 132.621C252.189 132.659 252.884 132.555 253.526 132.309C254.228 132.04 254.696 131.666 254.931 131.188C255.166 130.709 255.154 130.194 254.894 129.641L258.367 129.519C258.657 130.122 258.746 130.732 258.634 131.349C258.511 131.955 258.197 132.518 257.692 133.038C257.176 133.547 256.477 133.97 255.596 134.308ZM263.482 131.002L250.421 118.389L253.354 117.263L258.875 122.595L258.145 122.433C257.865 121.78 257.902 121.191 258.256 120.667C258.614 120.126 259.226 119.689 260.092 119.357C260.987 119.013 261.928 118.854 262.914 118.879C263.914 118.899 264.879 119.095 265.808 119.468C266.725 119.83 267.535 120.35 268.236 121.027L274.275 126.859L271.342 127.985L265.838 122.67C265.424 122.27 264.962 121.966 264.454 121.757C263.946 121.549 263.425 121.438 262.891 121.426C262.36 121.397 261.848 121.477 261.356 121.666C260.878 121.849 260.539 122.096 260.338 122.406C260.126 122.705 260.065 123.039 260.155 123.408C260.245 123.777 260.497 124.161 260.911 124.561L266.415 129.876L263.482 131.002ZM283.255 123.691C282.06 124.15 280.758 124.363 279.347 124.33C277.951 124.291 276.594 124.028 275.276 123.541C273.972 123.048 272.849 122.346 271.906 121.435C270.962 120.524 270.406 119.604 270.238 118.676C270.084 117.741 270.279 116.882 270.824 116.099C271.368 115.315 272.245 114.692 273.455 114.228C274.649 113.769 275.944 113.559 277.34 113.598C278.736 113.636 280.085 113.902 281.389 114.395C282.696 114.871 283.827 115.571 284.781 116.492C285.724 117.403 286.273 118.326 286.427 119.26C286.581 120.195 286.386 121.054 285.841 121.837C285.296 122.621 284.434 123.239 283.255 123.691ZM281.184 121.692C281.841 121.44 282.295 121.103 282.546 120.68C282.812 120.252 282.874 119.778 282.732 119.258C282.594 118.722 282.254 118.192 281.713 117.67C281.161 117.137 280.529 116.728 279.816 116.442C279.107 116.14 278.378 115.97 277.629 115.932C276.883 115.876 276.182 115.975 275.525 116.227C274.853 116.485 274.39 116.833 274.136 117.273C273.87 117.701 273.8 118.177 273.927 118.703C274.058 119.212 274.399 119.733 274.951 120.266C275.492 120.788 276.122 121.206 276.843 121.519C277.567 121.815 278.304 121.983 279.053 122.021C279.802 122.06 280.512 121.95 281.184 121.692ZM298.198 117.955C297.004 118.414 295.701 118.626 294.29 118.594C292.894 118.555 291.537 118.292 290.219 117.805C288.916 117.312 287.792 116.61 286.849 115.699C285.906 114.788 285.35 113.868 285.181 112.94C285.027 112.005 285.222 111.146 285.767 110.363C286.312 109.579 287.189 108.955 288.398 108.491C289.592 108.033 290.887 107.823 292.283 107.861C293.679 107.9 295.029 108.166 296.332 108.659C297.639 109.135 298.77 109.834 299.725 110.756C300.668 111.667 301.216 112.59 301.37 113.524C301.524 114.458 301.329 115.317 300.784 116.101C300.239 116.884 299.377 117.502 298.198 117.955ZM296.128 115.956C296.784 115.704 297.238 115.366 297.489 114.944C297.755 114.516 297.817 114.042 297.676 113.522C297.537 112.985 297.197 112.456 296.657 111.934C296.105 111.401 295.472 110.991 294.76 110.706C294.05 110.404 293.321 110.234 292.572 110.195C291.826 110.14 291.125 110.239 290.468 110.491C289.797 110.749 289.333 111.097 289.079 111.536C288.813 111.964 288.743 112.441 288.871 112.967C289.001 113.476 289.342 113.997 289.894 114.53C290.435 115.052 291.066 115.469 291.786 115.783C292.511 116.079 293.247 116.246 293.996 116.285C294.745 116.323 295.456 116.214 296.128 115.956ZM306.978 114.305L293.917 101.693L296.85 100.567L309.911 113.179L306.978 114.305ZM183.749 192.953C182.54 193.417 181.237 193.63 179.841 193.592C178.449 193.536 177.108 193.259 175.82 192.76C174.52 192.25 173.404 191.545 172.472 190.646C171.541 189.746 170.983 188.835 170.799 187.912C170.615 186.989 170.788 186.138 171.318 185.361C171.863 184.577 172.74 183.953 173.949 183.489C174.815 183.157 175.742 182.964 176.73 182.911C177.706 182.847 178.67 182.911 179.622 183.105C180.577 183.281 181.455 183.596 182.258 184.049L180.545 185.87C179.85 185.501 179.09 185.28 178.265 185.209C177.455 185.132 176.706 185.225 176.019 185.489C175.378 185.735 174.924 186.072 174.658 186.5C174.406 186.923 174.352 187.394 174.494 187.914C174.636 188.434 174.983 188.96 175.535 189.493C176.087 190.027 176.718 190.444 177.427 190.746C178.136 191.048 178.858 191.222 179.592 191.266C180.341 191.304 181.037 191.2 181.679 190.954C182.38 190.684 182.849 190.311 183.083 189.832C183.318 189.354 183.306 188.839 183.047 188.286L186.519 188.164C186.81 188.767 186.899 189.377 186.787 189.994C186.664 190.6 186.35 191.163 185.845 191.683C185.328 192.192 184.63 192.615 183.749 192.953ZM196.186 188.179C195.245 188.54 194.263 188.7 193.239 188.658C192.231 188.611 191.252 188.381 190.304 187.969C189.37 187.551 188.518 186.97 187.748 186.226L182.002 180.677L184.936 179.551L190.491 184.916C190.882 185.294 191.324 185.59 191.818 185.804C192.314 186.002 192.835 186.112 193.381 186.136C193.93 186.142 194.444 186.054 194.921 185.87C195.399 185.687 195.744 185.446 195.956 185.147C196.157 184.837 196.212 184.498 196.122 184.129C196.032 183.76 195.78 183.375 195.366 182.975L189.862 177.66L192.795 176.534L202.181 185.598L199.405 186.664L197.559 184.881L198.133 185.103C198.424 185.768 198.385 186.365 198.016 186.894C197.662 187.419 197.052 187.847 196.186 188.179ZM205.244 184.423L192.183 171.81L195.116 170.684L208.177 183.297L205.244 184.423ZM216.878 180.096C215.505 180.623 214.15 180.755 212.814 180.492C211.481 180.212 210.285 179.561 209.227 178.54L205.086 174.541L202.981 175.349L200.962 173.399L201.186 173.313C201.783 173.084 202.125 172.79 202.212 172.431C202.299 172.071 202.113 171.669 201.652 171.225L200.928 170.525L203.861 169.399L206.001 171.465L208.8 170.391L210.818 172.34L208.019 173.415L212.039 177.297C212.35 177.597 212.682 177.826 213.035 177.986C213.402 178.14 213.793 178.215 214.207 178.211C214.635 178.202 215.088 178.106 215.566 177.922C215.671 177.882 215.784 177.831 215.907 177.768C216.045 177.7 216.175 177.634 216.298 177.571L218.23 179.438C218.044 179.54 217.829 179.654 217.583 179.779C217.337 179.905 217.102 180.01 216.878 180.096ZM225.359 176.981C224.418 177.342 223.436 177.501 222.412 177.46C221.404 177.412 220.425 177.183 219.477 176.77C218.543 176.353 217.691 175.771 216.921 175.027L211.175 169.479L214.109 168.353L219.664 173.718C220.055 174.096 220.497 174.392 220.991 174.606C221.487 174.803 222.008 174.914 222.554 174.937C223.103 174.944 223.617 174.855 224.094 174.672C224.572 174.489 224.917 174.247 225.129 173.949C225.33 173.639 225.385 173.299 225.295 172.93C225.205 172.561 224.953 172.177 224.539 171.777L219.035 166.462L221.968 165.336L231.354 174.4L228.578 175.466L226.731 173.683L227.306 173.905C227.597 174.569 227.558 175.166 227.189 175.696C226.835 176.22 226.224 176.648 225.359 176.981ZM234.417 173.224L225.031 164.16L227.785 163.103L229.873 165.119L229.338 164.905C228.92 164.119 228.872 163.478 229.193 162.982C229.529 162.48 230.122 162.066 230.973 161.739L231.69 161.464L233.691 163.397L232.639 163.801C231.803 164.122 231.332 164.574 231.227 165.158C231.111 165.73 231.409 166.361 232.122 167.05L237.35 172.098L234.417 173.224ZM249.112 167.863C247.858 168.344 246.542 168.554 245.165 168.493C243.787 168.432 242.464 168.141 241.193 167.619C239.923 167.098 238.834 166.398 237.925 165.521C236.982 164.61 236.409 163.704 236.207 162.804C236.008 161.887 236.151 161.048 236.637 160.287C237.136 159.521 237.954 158.92 239.088 158.485C240.044 158.118 241 157.914 241.959 157.872C242.932 157.824 243.885 157.909 244.818 158.125C245.751 158.341 246.628 158.664 247.449 159.094C248.258 159.513 248.979 160.028 249.612 160.639C249.773 160.794 249.925 160.961 250.067 161.139C250.225 161.312 250.337 161.47 250.404 161.615L240.999 165.226L239.274 163.559L247.021 160.585L246.444 161.901C246.049 161.339 245.54 160.898 244.917 160.578C244.309 160.253 243.653 160.062 242.949 160.007C242.259 159.945 241.594 160.038 240.952 160.284C240.34 160.519 239.915 160.845 239.679 161.262C239.432 161.667 239.411 162.141 239.617 162.682C239.827 163.207 240.284 163.769 240.988 164.368C241.503 164.947 242.112 165.404 242.814 165.74C243.52 166.059 244.248 166.237 244.997 166.276C245.761 166.308 246.479 166.196 247.15 165.938C247.822 165.68 248.28 165.357 248.524 164.968C248.784 164.574 248.863 164.147 248.764 163.689L252.035 163.644C252.245 164.169 252.268 164.695 252.106 165.223C251.943 165.751 251.609 166.244 251.103 166.703C250.612 167.155 249.948 167.542 249.112 167.863ZM258.563 163.955L256.148 161.623L259.103 160.488L261.519 162.821L258.563 163.955Z" fill="#FCFF32"/>
<path opacity="0.6" d="M247.091 255.344L237.469 246.052L233.42 247.607L231.608 245.857C234.21 244.75 234.898 243.381 233.672 241.751L236.781 240.558L250.67 253.97L247.091 255.344Z" fill="#3E4000"/>
<g opacity="0.6">
<path fill-rule="evenodd" clip-rule="evenodd" d="M391.892 169.174C392.234 167.07 392.615 165.045 393.164 163.346C394.685 163.115 396.128 162.758 397.452 162.282C397.577 162.243 397.685 162.187 397.769 162.115C397.853 162.044 397.912 161.96 397.942 161.867C397.972 161.775 397.972 161.676 397.943 161.576C397.914 161.476 397.855 161.378 397.772 161.286C397.69 161.196 397.584 161.115 397.461 161.047C397.338 160.979 397.199 160.926 397.053 160.891C396.908 160.856 396.758 160.841 396.614 160.845C396.47 160.849 396.333 160.872 396.213 160.914C388.709 163.116 382.105 161.149 378.513 157.806C379.87 157.816 381.172 157.646 382.342 157.307C382.911 157.168 383.419 156.973 383.866 156.722C384.33 156.47 384.725 156.179 385.05 155.847C385.917 155.06 386.419 154.099 386.507 153.056C386.507 153.056 386.315 152.871 386.406 152.707C386.987 152.742 387.56 152.749 388.125 152.726C389.584 152.687 391.003 152.533 392.347 152.27C394.871 151.728 397.173 150.899 399.159 149.816C401.245 151.47 402.43 153.483 402.474 155.444C402.518 157.406 401.416 159.168 399.394 160.372C399.151 160.498 399.011 160.692 399.004 160.913C398.996 161.133 399.122 161.363 399.355 161.552C399.601 161.738 399.931 161.865 400.275 161.908C400.619 161.95 400.95 161.905 401.201 161.781C402.594 161.087 403.72 160.193 404.517 159.15C406.487 159.597 408.409 160.152 410.285 160.816C411.358 161.181 412.403 161.556 413.468 161.955C414.534 162.355 415.54 162.781 416.567 163.227C417.768 163.732 418.928 164.278 420.047 164.867C421.565 165.451 423.322 165.003 422.463 163.292C420.632 161.86 420.609 162.257 418.597 161.154C417.499 160.56 416.343 160.019 415.141 159.538C413.935 159.044 412.669 158.638 411.37 158.33C409.377 157.866 407.349 157.559 405.332 157.414C405.7 155.82 405.494 154.125 404.73 152.457C403.965 150.788 402.662 149.189 400.918 147.78C399.66 146.563 398.091 145.482 396.302 144.598C394.513 143.714 392.539 143.045 390.492 142.628C388.445 142.212 386.367 142.057 384.374 142.171C382.382 142.286 380.516 142.668 378.882 143.296C375.229 144.547 372.745 146.81 371.969 149.592C371.194 152.374 372.19 155.451 374.741 158.151C376.434 159.912 378.813 161.382 381.563 162.366C384.313 163.351 387.304 163.803 390.14 163.663C389.146 165.154 388.373 166.728 387.839 168.366C387.365 169.824 387.228 171.359 387.431 172.924C387.547 174.389 388.356 175.876 389.745 177.177C390.873 178.267 393.3 178.177 392.639 177.202C391.234 175.51 391.743 175.12 391.66 173.276C391.62 171.89 391.698 170.522 391.892 169.174ZM381.64 145.96C383.808 145.023 386.582 144.73 389.418 145.138C392.254 145.545 394.947 146.624 396.97 148.163C395.01 148.837 392.878 149.319 390.625 149.596C388.328 149.864 385.925 149.904 383.487 149.717C381.48 149.585 379.458 149.272 377.481 148.785C378.512 147.63 379.926 146.669 381.64 145.96ZM376.288 150.407C378.515 151.383 380.939 152.082 383.414 152.462L383.689 152.518C383.422 152.808 383.09 153.066 382.701 153.285C382.217 153.503 381.709 153.698 381.177 153.87L379.821 154.617C379.016 155.212 378.111 155.744 377.119 156.204C375.767 154.278 375.47 152.21 376.288 150.407Z" fill="#3E4000"/>
<path fill-rule="evenodd" clip-rule="evenodd" d="M422.692 170.1C422.672 169.958 422.592 169.815 422.46 169.688C422.329 169.561 422.151 169.455 421.949 169.383C420.268 168.767 419.796 170.662 418.197 171.761C416.751 172.732 415.176 173.606 413.471 174.384C409.201 176.439 404.19 177.824 398.731 178.457C396.006 178.809 393.141 178.874 390.231 178.648C387.469 178.468 384.688 178.031 381.971 177.349C376.956 175.969 372.34 173.799 368.574 171.053C364.808 168.306 362.022 165.078 360.49 161.683C358.711 158.321 357.974 154.873 358.325 151.565C358.676 148.257 360.109 145.164 362.528 142.489C364.059 140.886 365.866 139.423 367.921 138.123C369.848 136.831 372.123 135.783 374.665 135.016C381.877 133.179 390.42 133.441 398.469 135.746C406.632 138.027 413.87 141.968 418.998 146.924C420.955 148.856 422.61 150.891 423.934 152.991C425.281 155.067 426.041 157.226 426.17 159.348C426 161.091 425.616 162.797 425.02 164.449C424.203 165.549 423.543 166.711 423.049 167.922C423.094 168.087 423.206 168.248 423.373 168.387C423.539 168.527 423.754 168.639 423.992 168.712C424.23 168.786 424.482 168.816 424.721 168.801C424.959 168.786 425.175 168.726 425.343 168.627C427.52 165.927 428.786 162.87 429.072 159.628C429.033 157.282 428.233 154.872 426.717 152.569C425.374 150.286 423.647 148.07 421.575 145.967C416.124 140.472 408.278 136.068 399.36 133.496C390.389 130.775 380.779 130.358 372.625 132.336C369.607 133.162 366.892 134.324 364.578 135.781C362.325 137.202 360.338 138.799 358.648 140.547C355.919 143.556 354.318 147.043 353.956 150.772C353.593 154.501 354.477 158.385 356.547 162.161C358.416 165.979 361.703 169.582 366.079 172.606C370.454 175.63 375.762 177.969 381.471 179.388C387.67 180.667 393.978 181.005 399.889 180.373C405.56 179.465 410.786 177.896 415.35 175.732C417.103 174.879 418.734 173.929 420.229 172.889C421.167 172.012 421.988 171.082 422.692 170.1Z" fill="#3E4000"/>
<path fill-rule="evenodd" clip-rule="evenodd" d="M450.506 170.455C449 169.442 447.198 168.654 445.263 168.163C442.811 167.52 440.197 167.262 437.685 166.771C435.173 166.28 433.56 165.893 431.515 165.514C430.913 165.397 430.305 165.317 429.701 165.273C429.384 165.202 429.06 165.203 428.784 165.276C428.508 165.349 428.297 165.49 428.188 165.674C428.079 165.857 428.079 166.073 428.188 166.282C428.297 166.492 428.507 166.682 428.784 166.821C429.583 166.922 430.372 167.083 431.151 167.303C433.15 167.765 435.183 168.343 437.089 168.84C438.995 169.337 441.92 169.77 444.245 170.462C445.527 170.843 446.706 171.416 447.666 172.124C448.411 172.775 448.87 173.529 448.98 174.281C449.09 175.034 448.845 175.748 448.279 176.326C447.926 177.006 447.27 177.571 446.386 177.956C445.501 178.342 444.423 178.532 443.274 178.506C442.205 178.378 441.141 178.155 440.111 177.844C438.326 177.247 436.583 176.575 434.895 175.833C432.146 174.689 429.394 173.543 426.82 172.232C425.538 171.624 425.926 171.831 424.652 171.188C423.378 170.546 422.597 171.978 423.562 172.448C425.154 173.357 425.109 173.439 426.74 174.3C428.944 175.463 431.185 176.578 433.487 177.667C435.251 178.551 437.074 179.361 438.957 180.095C440.402 180.627 441.925 181.006 443.466 181.214C445.445 181.341 447.334 181.087 448.907 180.484C450.481 179.88 451.671 178.951 452.335 177.809C453.207 176.747 453.499 175.467 453.17 174.149C452.842 172.831 451.912 171.539 450.506 170.455ZM401.997 164.517C401.872 164.377 401.69 164.26 401.477 164.18C401.264 164.101 401.03 164.064 400.808 164.074C400.663 164.082 400.526 164.11 400.405 164.155C400.222 164.219 400.082 164.321 400.003 164.45C399.923 164.578 399.909 164.726 399.96 164.875C399.995 164.974 400.057 165.071 400.143 165.161C400.726 166.101 401.198 167.019 401.925 167.973C402.508 168.735 403.252 169.453 404.129 170.102C405.172 170.898 406.261 171.615 407.373 172.353C407.583 172.555 407.892 172.708 408.233 172.777C408.574 172.847 408.918 172.827 409.19 172.722C409.462 172.618 409.64 172.437 409.684 172.22C409.728 172.003 409.635 171.767 409.426 171.565C408.563 170.732 408.152 169.79 407.414 168.909C407.074 168.544 406.706 168.188 406.312 167.844C405.982 167.484 405.622 167.137 405.233 166.803C404.203 165.934 403.077 165.267 401.997 164.517Z" fill="#3E4000"/>
</g>
<defs>
<filter id="filter0_g_2306_820" x="0" y="16.377" width="542.835" height="381.453" filterUnits="userSpaceOnUse" color-interpolation-filters="sRGB">
<feFlood flood-opacity="0" result="BackgroundImageFix"/>
<feBlend mode="normal" in="SourceGraphic" in2="BackgroundImageFix" result="shape"/>
<feTurbulence type="fractalNoise" baseFrequency="1.0006107091903687 1.0006107091903687" numOctaves="3" seed="9564" />
<feDisplacementMap in="shape" scale="100" xChannelSelector="R" yChannelSelector="G" result="displacedImage" width="100%" height="100%" />
<feMerge result="effect1_texture_2306_820">
<feMergeNode in="displacedImage"/>
</feMerge>
</filter>
<filter id="filter1_n_2306_820" x="37.1242" y="84.2207" width="400.576" height="227.391" filterUnits="userSpaceOnUse" color-interpolation-filters="sRGB">
<feFlood flood-opacity="0" result="BackgroundImageFix"/>
<feBlend mode="normal" in="SourceGraphic" in2="BackgroundImageFix" result="shape"/>
<feTurbulence type="fractalNoise" baseFrequency="1 1" stitchTiles="stitch" numOctaves="3" result="noise" seed="1706" />
<feColorMatrix in="noise" type="luminanceToAlpha" result="alphaNoise" />
<feComponentTransfer in="alphaNoise" result="coloredNoise1">
<feFuncA type="discrete" tableValues="1 1 1 1 1 1 1 1 1 1 1 1 1 1 1 1 1 1 1 1 1 1 1 1 1 1 1 1 1 1 1 1 1 1 1 1 1 1 1 1 1 1 1 1 1 1 1 1 1 1 1 0 0 0 0 0 0 0 0 0 0 0 0 0 0 0 0 0 0 0 0 0 0 0 0 0 0 0 0 0 0 0 0 0 0 0 0 0 0 0 0 0 0 0 0 0 0 0 0 0 "/>
</feComponentTransfer>
<feComposite operator="in" in2="shape" in="coloredNoise1" result="noise1Clipped" />
<feFlood flood-color="rgba(0, 0, 0, 0.05)" result="color1Flood" />
<feComposite operator="in" in2="noise1Clipped" in="color1Flood" result="color1" />
<feMerge result="effect1_noise_2306_820">
<feMergeNode in="shape" />
<feMergeNode in="color1" />
</feMerge>
</filter>
<filter id="filter2_n_2306_820" x="45.6385" y="92.7832" width="13.7781" height="41.4746" filterUnits="userSpaceOnUse" color-interpolation-filters="sRGB">
<feFlood flood-opacity="0" result="BackgroundImageFix"/>
<feBlend mode="normal" in="SourceGraphic" in2="BackgroundImageFix" result="shape"/>
<feTurbulence type="fractalNoise" baseFrequency="1 1" stitchTiles="stitch" numOctaves="3" result="noise" seed="1706" />
<feColorMatrix in="noise" type="luminanceToAlpha" result="alphaNoise" />
<feComponentTransfer in="alphaNoise" result="coloredNoise1">
<feFuncA type="discrete" tableValues="1 1 1 1 1 1 1 1 1 1 1 1 1 1 1 1 1 1 1 1 1 1 1 1 1 1 1 1 1 1 1 1 1 1 1 1 1 1 1 1 1 1 1 1 1 1 1 1 1 1 1 0 0 0 0 0 0 0 0 0 0 0 0 0 0 0 0 0 0 0 0 0 0 0 0 0 0 0 0 0 0 0 0 0 0 0 0 0 0 0 0 0 0 0 0 0 0 0 0 0 "/>
</feComponentTransfer>
<feComposite operator="in" in2="shape" in="coloredNoise1" result="noise1Clipped" />
<feFlood flood-color="rgba(0, 0, 0, 0.05)" result="color1Flood" />
<feComposite operator="in" in2="noise1Clipped" in="color1Flood" result="color1" />
<feMerge result="effect1_noise_2306_820">
<feMergeNode in="shape" />
<feMergeNode in="color1" />
</feMerge>
</filter>
<filter id="filter3_n_2306_820" x="236.042" y="179.645" width="263.762" height="120.266" filterUnits="userSpaceOnUse" color-interpolation-filters="sRGB">
<feFlood flood-opacity="0" result="BackgroundImageFix"/>
<feBlend mode="normal" in="SourceGraphic" in2="BackgroundImageFix" result="shape"/>
<feTurbulence type="fractalNoise" baseFrequency="1 1" stitchTiles="stitch" numOctaves="3" result="noise" seed="1706" />
<feColorMatrix in="noise" type="luminanceToAlpha" result="alphaNoise" />
<feComponentTransfer in="alphaNoise" result="coloredNoise1">
<feFuncA type="discrete" tableValues="1 1 1 1 1 1 1 1 1 1 1 1 1 1 1 1 1 1 1 1 1 1 1 1 1 1 1 1 1 1 1 1 1 1 1 1 1 1 1 1 1 1 1 1 1 1 1 1 1 1 1 0 0 0 0 0 0 0 0 0 0 0 0 0 0 0 0 0 0 0 0 0 0 0 0 0 0 0 0 0 0 0 0 0 0 0 0 0 0 0 0 0 0 0 0 0 0 0 0 0 "/>
</feComponentTransfer>
<feComposite operator="in" in2="shape" in="coloredNoise1" result="noise1Clipped" />
<feFlood flood-color="rgba(0, 0, 0, 0.05)" result="color1Flood" />
<feComposite operator="in" in2="noise1Clipped" in="color1Flood" result="color1" />
<feMerge result="effect1_noise_2306_820">
<feMergeNode in="shape" />
<feMergeNode in="color1" />
</feMerge>
</filter>
<filter id="filter4_n_2306_820" x="481.447" y="175.928" width="17.4861" height="34.5684" filterUnits="userSpaceOnUse" color-interpolation-filters="sRGB">
<feFlood flood-opacity="0" result="BackgroundImageFix"/>
<feBlend mode="normal" in="SourceGraphic" in2="BackgroundImageFix" result="shape"/>
<feTurbulence type="fractalNoise" baseFrequency="1 1" stitchTiles="stitch" numOctaves="3" result="noise" seed="1706" />
<feColorMatrix in="noise" type="luminanceToAlpha" result="alphaNoise" />
<feComponentTransfer in="alphaNoise" result="coloredNoise1">
<feFuncA type="discrete" tableValues="1 1 1 1 1 1 1 1 1 1 1 1 1 1 1 1 1 1 1 1 1 1 1 1 1 1 1 1 1 1 1 1 1 1 1 1 1 1 1 1 1 1 1 1 1 1 1 1 1 1 1 0 0 0 0 0 0 0 0 0 0 0 0 0 0 0 0 0 0 0 0 0 0 0 0 0 0 0 0 0 0 0 0 0 0 0 0 0 0 0 0 0 0 0 0 0 0 0 0 0 "/>
</feComponentTransfer>
<feComposite operator="in" in2="shape" in="coloredNoise1" result="noise1Clipped" />
<feFlood flood-color="rgba(0, 0, 0, 0.05)" result="color1Flood" />
<feComposite operator="in" in2="noise1Clipped" in="color1Flood" result="color1" />
<feMerge result="effect1_noise_2306_820">
<feMergeNode in="shape" />
<feMergeNode in="color1" />
</feMerge>
</filter>
<filter id="filter5_n_2306_820" x="224.315" y="272.674" width="28.4827" height="28.6699" filterUnits="userSpaceOnUse" color-interpolation-filters="sRGB">
<feFlood flood-opacity="0" result="BackgroundImageFix"/>
<feBlend mode="normal" in="SourceGraphic" in2="BackgroundImageFix" result="shape"/>
<feTurbulence type="fractalNoise" baseFrequency="1 1" stitchTiles="stitch" numOctaves="3" result="noise" seed="1706" />
<feColorMatrix in="noise" type="luminanceToAlpha" result="alphaNoise" />
<feComponentTransfer in="alphaNoise" result="coloredNoise1">
<feFuncA type="discrete" tableValues="1 1 1 1 1 1 1 1 1 1 1 1 1 1 1 1 1 1 1 1 1 1 1 1 1 1 1 1 1 1 1 1 1 1 1 1 1 1 1 1 1 1 1 1 1 1 1 1 1 1 1 0 0 0 0 0 0 0 0 0 0 0 0 0 0 0 0 0 0 0 0 0 0 0 0 0 0 0 0 0 0 0 0 0 0 0 0 0 0 0 0 0 0 0 0 0 0 0 0 0 "/>
</feComponentTransfer>
<feComposite operator="in" in2="shape" in="coloredNoise1" result="noise1Clipped" />
<feFlood flood-color="rgba(0, 0, 0, 0.05)" result="color1Flood" />
<feComposite operator="in" in2="noise1Clipped" in="color1Flood" result="color1" />
<feMerge result="effect1_noise_2306_820">
<feMergeNode in="shape" />
<feMergeNode in="color1" />
</feMerge>
</filter>
<filter id="filter6_n_2306_820" x="48.5215" y="1.56055" width="442.835" height="281.453" filterUnits="userSpaceOnUse" color-interpolation-filters="sRGB">
<feFlood flood-opacity="0" result="BackgroundImageFix"/>
<feBlend mode="normal" in="SourceGraphic" in2="BackgroundImageFix" result="shape"/>
<feTurbulence type="fractalNoise" baseFrequency="1 1" stitchTiles="stitch" numOctaves="3" result="noise" seed="1706" />
<feColorMatrix in="noise" type="luminanceToAlpha" result="alphaNoise" />
<feComponentTransfer in="alphaNoise" result="coloredNoise1">
<feFuncA type="discrete" tableValues="1 1 1 1 1 1 1 1 1 1 1 1 1 1 1 1 1 1 1 1 1 1 1 1 1 1 1 1 1 1 1 1 1 1 1 1 1 1 1 1 1 1 1 1 1 1 1 1 1 1 1 0 0 0 0 0 0 0 0 0 0 0 0 0 0 0 0 0 0 0 0 0 0 0 0 0 0 0 0 0 0 0 0 0 0 0 0 0 0 0 0 0 0 0 0 0 0 0 0 0 "/>
</feComponentTransfer>
<feComposite operator="in" in2="shape" in="coloredNoise1" result="noise1Clipped" />
<feFlood flood-color="rgba(0, 0, 0, 0.05)" result="color1Flood" />
<feComposite operator="in" in2="noise1Clipped" in="color1Flood" result="color1" />
<feMerge result="effect1_noise_2306_820">
<feMergeNode in="shape" />
<feMergeNode in="color1" />
</feMerge>
</filter>
<linearGradient id="paint0_linear_2306_820" x1="31.9321" y1="99.7815" x2="345.241" y2="394.102" gradientUnits="userSpaceOnUse">
<stop stop-color="#FCFF32"/>
<stop offset="1" stop-color="#0A7FD2"/>
</linearGradient>
<linearGradient id="paint1_linear_2306_820" x1="44.2212" y1="98.5137" x2="58.8641" y2="98.1651" gradientUnits="userSpaceOnUse">
<stop offset="0.263652" stop-color="#8BAE52"/>
<stop offset="1" stop-color="#EDF83C"/>
</linearGradient>
<linearGradient id="paint2_linear_2306_820" x1="229.312" y1="299.659" x2="644.058" y2="144.254" gradientUnits="userSpaceOnUse">
<stop stop-color="#FCFF32"/>
<stop offset="1" stop-color="#0A7FD2"/>
</linearGradient>
<linearGradient id="paint3_linear_2306_820" x1="483.292" y1="197.614" x2="493.223" y2="195.687" gradientUnits="userSpaceOnUse">
<stop stop-color="#69B193"/>
<stop offset="1" stop-color="#8BAE52"/>
</linearGradient>
<linearGradient id="paint4_linear_2306_820" x1="223.315" y1="278.67" x2="251.925" y2="276.396" gradientUnits="userSpaceOnUse">
<stop stop-color="#68B094"/>
<stop offset="0.501377" stop-color="#8BAE52"/>
<stop offset="1" stop-color="#EDF83C"/>
</linearGradient>
<linearGradient id="paint5_linear_2306_820" x1="43.9247" y1="99.2814" x2="499.76" y2="186.634" gradientUnits="userSpaceOnUse">
<stop stop-color="#0A7FD2"/>
<stop offset="1" stop-color="#FCFF32"/>
</linearGradient>
</defs>
</svg>
