<svg width="44" height="48" viewBox="0 0 44 48" fill="none" xmlns="http://www.w3.org/2000/svg">
<path fill-rule="evenodd" clip-rule="evenodd" d="M39.7803 41.6601C40.7561 41.0911 41.5862 40.3028 42.2048 39.3576C42.8234 38.4123 43.2135 37.3361 43.3443 36.214C43.6158 34.0167 43.2104 31.7888 42.1823 29.8279C41.2323 28.0194 39.7512 26.5453 37.9382 25.6038C36.0768 24.6818 33.9493 24.448 31.9321 24.9438C30.2686 25.2988 28.6734 25.9202 27.208 26.7838C26.1879 27.3998 25.2919 28.2018 24.5659 29.1479C23.8256 30.2308 23.3112 31.4519 23.0535 32.7382C22.7958 34.0244 22.8 35.3494 23.0659 36.634C23.2611 37.9185 23.7371 39.1442 24.46 40.2237C25.1828 41.3033 26.1347 42.2103 27.248 42.8802C28.4834 43.5291 29.8566 43.872 31.2521 43.8802C33.2119 43.891 35.1623 43.6079 37.0382 43.0402C37.1067 43.0283 37.1714 43.0004 37.227 42.9586C37.2827 42.9169 37.3276 42.8626 37.3582 42.8002C37.6182 43.3802 37.8582 43.9402 38.1782 44.5002C38.3422 44.8149 38.5356 45.1089 38.7582 45.3822C38.9582 45.6422 39.1982 45.9022 39.4382 46.1622C40.0003 46.7423 40.6203 47.2643 41.2423 47.8243C41.3166 47.8945 41.4066 47.9459 41.5049 47.9742C41.6031 48.0025 41.7067 48.0069 41.807 47.9869C41.9073 47.9669 42.0013 47.9232 42.0812 47.8594C42.1611 47.7956 42.2246 47.7136 42.2663 47.6203C42.3166 47.5035 42.3297 47.3741 42.3039 47.2496C42.2782 47.1251 42.2148 47.0115 42.1223 46.9243C41.7223 46.2242 41.3623 45.5442 40.9423 44.9222C40.7823 44.6422 40.5823 44.3622 40.3823 44.0822C40.1849 43.8089 39.9705 43.5484 39.7403 43.3022C39.3688 42.9127 38.9818 42.5384 38.5802 42.1802C38.9989 42.0535 39.3989 41.8801 39.7803 41.6601ZM31.2521 42.5202C30.1039 42.4448 28.9878 42.1097 27.988 41.5401C27.1249 40.9458 26.4019 40.1702 25.8696 39.2676C25.3373 38.3649 25.0084 37.3569 24.9059 36.314C24.727 35.2931 24.7533 34.2467 24.9834 33.2361C25.2135 32.2254 25.6427 31.2708 26.2459 30.4279C26.968 29.5099 27.886 28.7658 28.93 28.2478C30.0394 27.7005 31.2086 27.2837 32.4141 27.0058C33.9574 26.6041 35.5925 26.7526 37.0382 27.4258C38.5288 28.1309 39.7606 29.2858 40.5603 30.7279C41.5243 32.3199 41.9523 34.18 41.7803 36.034C41.7177 36.9345 41.4443 37.8077 40.9823 38.5831C40.5202 39.3585 39.8824 40.0145 39.1202 40.4981C38.7761 40.7156 38.4067 40.8902 38.0202 41.0181C35.7762 41.7581 35.3562 42.8402 31.2921 42.5182L31.2521 42.5202Z" fill="#FCFF32"/>
<path fill-rule="evenodd" clip-rule="evenodd" d="M22.6825 41.481C21.7625 41.481 19.9005 41.601 17.8584 41.601H10.5902L6.58615 41.501L4.4861 41.241C2.78407 40.901 2.14205 40.2189 2.14205 39.2369C2.59839 36.9504 3.26869 34.7118 4.1441 32.5508C4.74969 30.0784 5.15765 27.5617 5.36413 25.0246C5.60413 22.2665 5.60413 19.4925 5.36413 16.7364C4.98412 12.7323 4.2641 8.6082 3.64409 4.58411C3.62017 4.47516 3.56311 4.3763 3.48074 4.30109C3.39837 4.22588 3.29474 4.17803 3.18407 4.1641C6.78616 3.70409 10.4502 3.06407 14.1343 2.64406C16.6624 2.32405 19.2144 2.18805 21.7605 2.24205C22.3005 2.24205 23.7626 2.12205 25.1646 2.14205C25.8246 2.14205 26.4246 2.14205 26.6646 2.30205C28.2667 3.62208 29.9687 5.12412 31.5507 6.70616C32.5548 7.75951 33.5021 8.86087 34.3928 10.0102C34.5128 10.1502 34.3928 10.4902 34.3928 10.8103V12.2303L34.2728 21.6005C34.2993 21.7484 34.3769 21.8822 34.492 21.9786C34.6072 22.075 34.7526 22.1278 34.9028 22.1278C35.053 22.1278 35.1984 22.075 35.3136 21.9786C35.4288 21.8822 35.5064 21.7484 35.5328 21.6005L36.0748 12.2523C36.1083 11.5854 36.1083 10.9172 36.0748 10.2502C36.1195 9.74471 36.0152 9.23718 35.7748 8.79021C34.6316 7.27914 33.3874 5.84717 32.0508 4.50411C30.7595 3.15021 29.3962 1.86698 27.9667 0.660015C27.3089 0.239864 26.547 0.0113114 25.7666 0C24.3046 0 22.3825 0.120003 21.7605 0C19.7487 0.0491486 17.7426 0.236259 15.7564 0.560013C11.1503 1.18003 6.58615 2.34205 2.14205 3.10207C2.01219 3.14685 1.90162 3.23483 1.82881 3.35131C1.75601 3.4678 1.72538 3.60574 1.74204 3.74209C1.76623 3.88933 1.84625 4.02159 1.96545 4.11136C2.08464 4.20113 2.23385 4.24151 2.38206 4.2241H2.78207C2.67718 4.26696 2.58916 4.3429 2.53139 4.44037C2.47363 4.53785 2.44928 4.65153 2.46206 4.76411C2.90207 8.7682 3.44208 12.7723 3.62408 16.7764C3.77009 19.4485 3.68409 22.1265 3.36408 24.7846C3.22408 26.0046 3.04407 27.2246 2.82407 28.4267C2.60406 29.6267 2.28405 30.8287 2.00405 32.0307C1.40203 34.5328 0 37.2149 0 39.2369C0 41.259 0.940022 42.641 4.00409 43.241L6.46615 43.421H10.4722C11.7523 43.421 14.9163 43.301 17.7804 43.181C19.7805 43.181 21.7825 43.001 22.6845 42.881C22.7678 42.876 22.8493 42.8543 22.924 42.8171C22.9987 42.7799 23.0651 42.7279 23.1193 42.6644C23.1734 42.601 23.2142 42.5272 23.2392 42.4475C23.2641 42.3679 23.2728 42.284 23.2645 42.201C23.2757 42.1153 23.2693 42.0283 23.2459 41.9451C23.2225 41.862 23.1825 41.7844 23.1283 41.7171C23.0741 41.6499 23.0068 41.5943 22.9306 41.5537C22.8543 41.5131 22.7706 41.4883 22.6845 41.481" fill="#FAFAFA"/>
<path fill-rule="evenodd" clip-rule="evenodd" d="M28.7704 22.8613C28.9234 22.8529 29.0683 22.79 29.1788 22.6838C29.2893 22.5777 29.358 22.4354 29.3726 22.2829C29.3871 22.1304 29.3464 21.9777 29.2579 21.8526C29.1695 21.7276 29.0391 21.6384 28.8904 21.6013C27.8104 21.4413 26.7284 21.3613 25.6463 21.3013H25.2263C25.2109 20.4621 25.09 19.6282 24.8663 18.8192C24.7577 18.4512 24.6102 18.0959 24.4263 17.7592C24.2545 17.408 24.0321 17.0839 23.7663 16.7972C23.4194 16.5001 23.0435 16.2388 22.6443 16.0171C23.093 15.5004 23.4353 14.9001 23.6515 14.2507C23.8677 13.6013 23.9536 12.9157 23.9043 12.2331C23.9184 11.6014 23.8061 10.9732 23.574 10.3856C23.3419 9.79794 22.9946 9.26263 22.5526 8.81112C22.1106 8.35962 21.5828 8.00104 21.0002 7.75646C20.4176 7.51189 19.792 7.38625 19.1602 7.38694C17.8171 7.34778 16.5125 7.83811 15.5277 8.75219C14.5429 9.66626 13.9569 10.9308 13.8961 12.2731C13.8789 13.0563 14.0721 13.8297 14.4555 14.5129C14.839 15.196 15.3986 15.7638 16.0761 16.1571C15.5588 16.4105 15.0721 16.7172 14.6161 17.0772C14.0716 17.5022 13.6105 18.0244 13.256 18.6172C12.6211 19.6308 12.4059 20.8517 12.656 22.0213C11.614 22.2213 10.652 22.4613 9.57195 22.7413C9.50047 22.7533 9.43214 22.7795 9.37101 22.8185C9.30989 22.8574 9.25723 22.9082 9.21617 22.968C9.17511 23.0277 9.14649 23.0951 9.13202 23.1661C9.11755 23.2371 9.11752 23.3103 9.13194 23.3813C9.16053 23.5196 9.2403 23.6419 9.35527 23.7239C9.47024 23.8059 9.61192 23.8414 9.75196 23.8233C10.852 23.6833 11.952 23.6033 13.074 23.5233C14.1961 23.4433 15.6581 23.5233 16.9581 23.5233C18.2582 23.5233 19.5602 23.4033 20.9622 23.3833C22.7823 23.2433 24.6463 23.0433 26.4883 22.9633C27.2484 22.8913 28.0084 22.858 28.7684 22.8633M19.1982 9.53099C19.9567 9.51372 20.6914 9.79644 21.2426 10.3177C21.7939 10.839 22.1172 11.5568 22.1422 12.3151C22.8023 17.7192 15.3541 16.3192 15.7161 12.3151C15.8299 11.4935 16.2544 10.7469 16.9022 10.2289C17.55 9.711 18.3717 9.4612 19.1982 9.53099ZM20.8402 21.1833C19.3402 21.1833 17.8181 21.1833 16.3161 21.4233C15.5361 21.4233 14.7561 21.6433 13.9941 21.7633C14.0701 21.2373 14.2701 20.7373 14.5741 20.3032C14.7541 20.0632 14.9541 19.8432 15.1541 19.6032L16.0741 18.5012C16.6361 17.8812 17.1361 17.2592 17.6161 16.7392C20.4002 17.2992 20.4202 17.2592 21.3602 16.8392C21.5802 17.1592 21.8002 17.4592 21.9802 17.7792C22.1602 18.0992 22.1802 18.1792 22.3002 18.3592C22.4203 18.5392 22.6203 18.9392 22.8003 19.2212C23.1843 19.8666 23.5249 20.5332 23.8223 21.2213L20.8402 21.1833ZM21.8622 27.0074C21.8649 26.9243 21.8509 26.8415 21.8209 26.764C21.791 26.6864 21.7457 26.6157 21.6879 26.556C21.63 26.4963 21.5608 26.4488 21.4842 26.4164C21.4076 26.384 21.3254 26.3673 21.2422 26.3674C20.0422 26.2274 18.9002 26.0674 17.7201 25.9674H16.1581C15.1781 25.9674 14.1561 26.0674 13.214 26.2074C11.774 26.4274 10.394 26.8074 8.94994 26.9874C8.80141 26.9874 8.65897 27.0464 8.55395 27.1514C8.44892 27.2564 8.38992 27.3989 8.38992 27.5474C8.38992 27.6959 8.44892 27.8384 8.55395 27.9434C8.65897 28.0484 8.80141 28.1074 8.94994 28.1074C10.422 28.2408 11.8967 28.2941 13.374 28.2674C14.3341 28.2674 15.3761 28.1074 16.2381 28.0674L21.1822 27.7074C21.2757 27.7174 21.3702 27.7059 21.4587 27.674C21.5471 27.642 21.6271 27.5903 21.6926 27.5229C21.7581 27.4555 21.8074 27.374 21.8368 27.2847C21.8662 27.1954 21.8749 27.1006 21.8622 27.0074ZM15.1361 30.6895H13.576C13.064 30.7215 12.5567 30.7815 12.054 30.8695C10.874 31.0895 9.77196 31.4295 8.62993 31.6695C8.48285 31.6847 8.34711 31.7554 8.25045 31.8673C8.1538 31.9792 8.10353 32.1238 8.10992 32.2715C8.11499 32.3451 8.13455 32.417 8.16749 32.483C8.20042 32.5491 8.24608 32.6079 8.30184 32.6562C8.35759 32.7046 8.42235 32.7414 8.49238 32.7646C8.56242 32.7878 8.63635 32.797 8.70993 32.7915C10.03 32.7915 11.374 32.9515 12.714 32.8915C13.474 32.8915 14.2541 32.7715 15.0161 32.7315C16.1542 32.6091 17.3021 32.6091 18.4402 32.7315C18.604 32.7623 18.7735 32.73 18.9145 32.6409C19.0555 32.5519 19.1576 32.4127 19.2002 32.2515C19.2208 32.17 19.2246 32.0851 19.2114 32.0021C19.1982 31.9191 19.1682 31.8396 19.1233 31.7685C19.0784 31.6974 19.0195 31.6362 18.9502 31.5886C18.8809 31.541 18.8026 31.5079 18.7202 31.4915C17.5658 31.0686 16.3607 30.7996 15.1361 30.6915" fill="#FAFAFA"/>
</svg>
