<svg width="1203" height="604" viewBox="0 0 1203 604" fill="none" xmlns="http://www.w3.org/2000/svg">
<g filter="url(#filter0_f_2233_756)">
<path d="M74.6255 382.499L25.6165 333.739L346.727 105.466L1182.69 276.456L1194.29 269.621L1129.39 590.883L1118.36 595.97L74.6255 382.499Z" fill="#001524" fill-opacity="0.3"/>
</g>
<mask id="mask0_2233_756" style="mask-type:alpha" maskUnits="userSpaceOnUse" x="0" y="55" width="347" height="332">
<path d="M214.558 264.716L0.0117188 298.743L25.6233 333.746L282.373 386.301C309.532 274.307 319.809 216.518 346.969 104.524L338.049 55.0967L214.558 264.716Z" fill="#D9D9D9"/>
</mask>
<g mask="url(#mask0_2233_756)">
<g filter="url(#filter1_n_2233_756)">
<path d="M24.097 342.286L286.054 401.276L320.406 255.031L16.9149 197.745L-6.43274 297.733L24.097 342.286Z" fill="url(#paint0_linear_2233_756)"/>
</g>
<g filter="url(#filter2_n_2233_756)">
<path d="M283.583 389.209L269.483 353.715L238.939 126.747L339.298 53.2212L348.815 105.771L283.583 389.209Z" fill="url(#paint1_linear_2233_756)"/>
</g>
</g>
<g filter="url(#filter3_n_2233_756)">
<path d="M338.152 55.1064L68.6007 0L0 298.755L269.574 353.849L338.152 55.1064Z" fill="url(#paint2_linear_2233_756)"/>
</g>
<path fill-rule="evenodd" clip-rule="evenodd" d="M231.157 270.515C231.126 269.673 230.865 268.842 230.398 268.099C229.931 267.356 229.274 266.725 228.489 266.266C226.209 265.154 223.755 264.414 221.241 264.08C220.304 263.877 219.389 263.601 218.496 263.253C218.226 263.163 217.976 263.023 217.762 262.843C217.547 262.662 217.373 262.445 217.25 262.204C216.682 260.489 218.28 259.938 220.069 259.765C222.453 259.522 224.894 259.811 227.192 260.607C227.458 260.774 227.78 260.84 228.086 260.792C228.393 260.744 228.661 260.585 228.832 260.349C228.9 260.226 228.94 260.09 228.948 259.95C228.956 259.81 228.933 259.668 228.88 259.533C228.827 259.398 228.746 259.274 228.64 259.167C228.535 259.06 228.408 258.973 228.268 258.912C227.042 258.255 225.727 257.765 224.366 257.458C224.374 257.356 224.403 257.257 224.454 257.168C224.572 256.901 224.657 256.621 224.705 256.334C224.851 256.089 224.933 255.815 224.947 255.532C224.956 254.782 224.762 254.13 224.721 253.405C224.813 253.097 224.768 252.761 224.595 252.471C224.422 252.182 224.135 251.962 223.798 251.86C223.454 251.766 223.091 251.799 222.786 251.951C222.48 252.103 222.257 252.362 222.164 252.673C221.703 253.273 221.282 253.9 220.903 254.55C220.797 254.834 220.71 255.125 220.641 255.42C220.513 255.699 220.426 255.989 220.378 256.291L220.475 256.835C218.931 256.704 217.392 256.889 215.967 257.376C214.866 257.786 213.988 258.568 213.501 259.569C213.015 260.571 212.955 261.723 213.332 262.804C213.534 263.599 213.929 264.35 214.486 264.999C215.043 265.647 215.747 266.176 216.544 266.543C218.801 267.481 221.151 268.189 223.55 268.656C224.431 268.799 225.29 269.058 226.096 269.424C226.311 269.537 226.492 269.7 226.621 269.895C226.751 270.09 226.823 270.312 226.831 270.536C226.839 270.76 226.782 270.979 226.667 271.171C226.551 271.362 226.381 271.519 226.174 271.625C225.287 272.079 224.302 272.36 223.277 272.453C221.017 272.666 218.707 272.39 216.529 271.645C215.904 271.397 215.334 271.036 214.852 270.585C214.287 270.081 213.787 269.518 213.361 268.909C213.26 268.773 213.131 268.657 212.983 268.565C212.835 268.474 212.67 268.41 212.498 268.376C212.327 268.343 212.151 268.341 211.982 268.371C211.813 268.4 211.653 268.461 211.513 268.549C211.224 268.697 211.013 268.945 210.923 269.242C210.834 269.539 210.872 269.862 211.031 270.146C211.636 271.067 212.332 271.925 213.119 272.719C213.726 273.261 214.399 273.715 215.139 274.08C215.838 274.354 216.554 274.57 217.287 274.728C217.186 275.001 217.102 275.279 217.036 275.563C216.934 275.835 216.85 276.114 216.784 276.397C216.819 277.16 216.973 277.8 217.054 278.537C217.008 278.688 216.996 278.848 217.018 279.006C217.04 279.165 217.096 279.32 217.184 279.461C217.271 279.602 217.387 279.727 217.525 279.828C217.663 279.929 217.82 280.004 217.987 280.05C218.152 280.105 218.327 280.129 218.499 280.119C218.671 280.108 218.837 280.065 218.986 279.99C219.136 279.916 219.265 279.813 219.365 279.687C219.466 279.561 219.536 279.416 219.57 279.26C220.055 278.672 220.489 278.049 220.87 277.396C221.003 277.107 221.095 276.803 221.144 276.489C221.263 276.222 221.347 275.942 221.396 275.654C223.404 275.871 225.418 275.71 227.315 275.179C228.436 274.918 229.416 274.322 230.108 273.48C230.801 272.639 231.167 271.598 231.153 270.514" fill="#728F47"/>
<path fill-rule="evenodd" clip-rule="evenodd" d="M192.759 257.312C191.664 253.804 191.591 250.137 192.546 246.691C193.501 243.244 195.45 240.146 198.191 237.717C199.381 236.647 200.861 235.889 202.492 235.515C204.124 235.141 205.852 235.164 207.515 235.581C211.242 236.4 214.671 238.235 217.35 240.843C219.295 242.964 220.759 245.416 221.65 248.042C222.709 250.142 224.29 250.223 225.464 249.786C226.023 249.466 226.528 249.091 226.98 248.659C228.361 247.532 229.745 245.535 231 244.682C233.237 243.049 235.928 242.012 238.806 241.692C241.609 241.371 244.495 241.92 247.019 243.255C248.628 244.209 250.008 245.468 251.065 246.943C252.121 248.418 252.827 250.073 253.133 251.793C253.886 255.368 253.767 259.014 252.78 262.461C250.565 269.106 246.28 274.913 240.447 279.179C234.737 283.652 227.565 286.281 219.939 286.699C219.769 286.701 219.603 286.734 219.45 286.797C219.298 286.86 219.162 286.951 219.051 287.065C218.94 287.179 218.856 287.313 218.803 287.461C218.751 287.608 218.731 287.765 218.745 287.922C218.751 288.082 218.791 288.24 218.864 288.388C218.937 288.536 219.04 288.671 219.168 288.783C219.297 288.896 219.447 288.984 219.61 289.044C219.773 289.103 219.946 289.131 220.117 289.128C228.37 288.855 236.19 286.185 242.478 281.494C248.847 276.91 253.577 270.67 256.114 263.506C257.679 258.763 257.72 253.633 256.232 248.725C255.146 245.193 252.681 242.103 249.329 240.072C245.988 238.158 242.097 237.334 238.307 237.738C234.597 238.046 231.099 239.291 228.19 241.337C226.984 242.399 225.869 243.546 224.855 244.769C223.847 242.291 222.323 240.001 220.372 238.033C216.437 234.239 211.183 231.878 205.646 231.415C203.68 231.276 201.727 231.535 199.922 232.173C198.117 232.812 196.504 233.814 195.196 235.112C192.126 238.012 189.983 241.654 188.986 245.668C187.989 249.681 188.174 253.922 189.521 257.959C193.359 268.948 200.826 278.692 210.835 285.774C212.012 286.763 213.21 285.382 212.644 284.38C203.177 277.405 196.21 267.922 192.759 257.312Z" fill="#728F47"/>
<path fill-rule="evenodd" clip-rule="evenodd" d="M254.46 304.99C254.703 303.941 254.514 302.827 253.928 301.861C253.612 301.507 253.226 301.212 252.793 300.993C252.36 300.774 251.888 300.636 251.405 300.585C249.249 300.252 243.695 299.804 243.246 299.708C236.332 297.933 229.083 298.569 222.905 301.494C217.882 304.447 214.078 308.845 212.037 314.059C212.266 312.149 212.535 310.25 212.891 308.062C213.247 305.873 213.551 303.427 213.839 301.175C214.259 296.585 214.937 292.03 215.872 287.529C215.956 287.338 215.974 287.125 215.923 286.918C215.872 286.711 215.755 286.52 215.587 286.371C215.474 286.273 215.343 286.195 215.201 286.14C212.186 284.914 212.347 290.425 209.871 298.632C209.452 300.369 209.153 302.128 208.975 303.908C208.75 305.661 208.594 307.474 208.498 309.231C208.428 309.407 208.374 309.589 208.334 309.775C206.848 305.886 204.6 302.253 201.708 299.064C198.883 296.179 195.215 294.119 191.197 293.163C189.499 292.741 187.762 292.51 186.024 292.474C183.577 292.369 181.123 292.579 178.756 292.657L174.847 292.666L172.938 292.09C172.414 292.07 171.906 292.207 171.488 292.48C171.071 292.754 170.768 293.149 170.622 293.608C170.505 293.996 170.512 294.406 170.64 294.801C171.117 296.053 171.881 297.206 172.88 298.168C174.597 299.957 177.17 301.802 178.307 302.936C183.042 307.967 188.611 312.272 194.786 315.673C199.108 317.954 204.036 318.927 208.847 318.449C208.967 319.606 209.185 320.754 209.501 321.892C209.557 322.134 209.689 322.358 209.88 322.537C210.071 322.715 210.312 322.839 210.573 322.892C210.834 322.946 211.102 322.927 211.343 322.837C211.584 322.747 211.786 322.591 211.925 322.389C212.109 322.127 212.171 321.803 212.097 321.487C212.019 321.189 211.98 320.884 211.98 320.581C212.132 320.731 212.323 320.843 212.532 320.907C212.742 320.97 212.963 320.982 213.173 320.941C215.309 320.305 217.557 319.995 219.835 320.02C225.625 320.629 231.437 320.668 237.173 320.135C240.424 319.435 243.472 318.166 246.157 316.392C248.889 314.594 251.158 312.27 252.82 309.566C253.649 308.154 254.209 306.601 254.46 304.99ZM208.563 316.067C204.347 316.273 200.101 315.241 196.424 313.119C190.818 309.666 185.824 305.403 181.645 300.503C180.717 299.55 178.969 298.152 177.413 296.693L179.446 296.713C181.745 296.575 183.906 296.316 186.451 296.367C187.873 296.342 189.288 296.452 190.696 296.697C194.051 297.313 197.177 298.85 199.657 301.102C203.745 305.489 206.797 310.599 208.603 316.079L208.563 316.067ZM249.955 305.539C249.672 306.199 249.348 306.841 248.984 307.463C247.553 309.665 245.64 311.552 243.361 313.012C241.165 314.616 238.639 315.805 235.917 316.514C230.511 317.217 225.013 317.403 219.51 317.068C216.934 317.149 214.408 317.604 212.025 318.417L211.915 318.78C211.882 318.889 211.946 317.958 211.947 317.523C212.216 317.616 212.508 317.612 212.763 317.513C213.019 317.414 213.219 317.226 213.324 316.988C215.418 311.594 219.449 307.103 224.768 304.237C230.309 301.979 236.66 301.738 242.605 303.56C243.003 303.68 247.573 304.069 250.188 304.462C250.137 304.824 250.058 305.182 249.951 305.538" fill="#728F47"/>
<path d="M95.22 39.7631L97.922 40.3375L95.8231 49.429L107.292 51.8667L109.391 42.7752L112.093 43.3495L107.156 64.7326L104.454 64.1582L106.788 54.0499L95.319 51.6122L92.9853 61.7205L90.2833 61.1462L95.22 39.7631ZM114.997 50.179L117.429 50.6959L113.86 66.1575L111.428 65.6406L114.997 50.179ZM116.364 44.2575L118.796 44.7744L118.106 47.765L115.674 47.2481L116.364 44.2575ZM123.182 54.6169L123.242 54.6297C123.865 53.9777 124.648 53.4538 125.552 53.0814C126.457 52.709 127.45 52.6377 128.501 52.861C128.711 52.9057 128.884 52.9739 129.028 53.0357C129.141 53.0911 129.284 53.1529 129.45 53.251L128.912 55.5837L128.822 55.5646C128.655 55.4665 128.482 55.3983 128.339 55.3365C128.189 55.3046 128.016 55.2364 127.775 55.1853C127.175 55.0577 126.577 55.0561 125.988 55.1506C125.393 55.2749 124.843 55.4719 124.333 55.7714C123.816 56.1007 123.375 56.509 122.997 57.0561C122.619 57.6032 122.354 58.2057 122.188 58.9234L120.206 67.5066L117.775 66.9897L121.344 51.5281L123.776 52.0449L123.182 54.6169ZM134.618 71.009C133.417 70.7538 132.415 70.3211 131.58 69.7046C130.746 69.0881 130.104 68.324 129.646 67.4423C129.151 66.5842 128.871 65.6148 128.769 64.5577C128.636 63.4942 128.728 62.4156 128.99 61.2791C129.246 60.1726 129.638 59.1578 130.226 58.2474C130.814 57.3371 131.494 56.5719 132.327 55.9647C133.154 55.3873 134.072 54.9551 135.07 54.7278C136.067 54.5006 137.113 54.4719 138.224 54.708C139.365 54.9505 140.33 55.4068 141.134 56.0169C141.938 56.627 142.551 57.3847 142.972 58.2899C143.392 59.1951 143.636 60.188 143.687 61.3284C143.739 62.4689 143.65 63.6735 143.36 64.9296L131.351 62.377C131.201 63.161 131.179 63.9405 131.267 64.6495C131.349 65.3884 131.541 66.0567 131.851 66.6246C132.154 67.2223 132.574 67.7196 133.112 68.1164C133.644 68.5431 134.307 68.8095 135.087 68.9754C136.228 69.2179 137.214 69.1765 138.059 68.7913C138.904 68.4061 139.564 67.7307 140.112 66.7179L142.484 67.222C141.737 68.8202 140.66 69.9402 139.312 70.5949C137.934 71.2433 136.359 71.3792 134.618 71.009ZM137.782 56.6221C137.061 56.4689 136.366 56.478 135.771 56.6024C135.145 56.7204 134.582 56.9772 134.088 57.3428C133.594 57.7085 133.14 58.1766 132.761 58.7237C132.383 59.2707 132.051 59.8904 131.832 60.5655L141.169 62.5501C141.438 60.9758 141.294 59.6902 140.72 58.6271C140.14 57.5939 139.163 56.9156 137.782 56.6221ZM84.1787 81.4491L86.4304 81.9277L87.5558 77.053L89.9876 77.5699L88.8622 82.4446L91.8644 83.0828L91.4088 85.0566L88.4065 84.4184L86.0866 94.467C85.9623 95.0053 85.9927 95.4196 86.2146 95.6864C86.4364 95.9532 86.806 96.1259 87.3164 96.2343C87.5566 96.2854 87.7967 96.3364 88.0507 96.3277C88.3047 96.3189 88.4917 96.3273 88.6557 96.2994L88.7457 96.3185L88.2624 98.412C87.9484 98.408 87.6344 98.404 87.2972 98.3637C86.9532 98.3533 86.6229 98.2831 86.2626 98.2065C85.2419 97.9896 84.4796 97.6079 83.9527 97.0253C83.3958 96.4363 83.2751 95.595 83.5305 94.4884L85.9747 83.9015L83.723 83.4229L84.1787 81.4491ZM97.7981 101.004C96.5972 100.748 95.5947 100.316 94.7607 99.6991C93.9267 99.0826 93.2842 98.3186 92.8263 97.4369C92.3315 96.5787 92.0514 95.6094 91.949 94.5522C91.8166 93.4888 91.9081 92.4101 92.1705 91.2737C92.426 90.1671 92.8177 89.1523 93.4058 88.242C93.994 87.3317 94.6745 86.5665 95.5076 85.9592C96.3338 85.3818 97.2525 84.9496 98.2498 84.7224C99.2472 84.4951 100.293 84.4665 101.404 84.7026C102.545 84.9451 103.51 85.4013 104.314 86.0114C105.118 86.6216 105.731 87.3792 106.152 88.2844C106.573 89.1896 106.816 90.1825 106.868 91.323C106.919 92.4634 106.83 93.6681 106.54 94.9241L94.5312 92.3716C94.3817 93.1555 94.3592 93.9351 94.4475 94.6441C94.5288 95.383 94.721 96.0513 95.0308 96.6191C95.3338 97.2169 95.7544 97.7142 96.2927 98.1109C96.8241 98.5376 97.487 98.804 98.2676 98.97C99.4084 99.2124 100.394 99.171 101.239 98.7859C102.084 98.4007 102.744 97.7252 103.293 96.7124L105.664 97.2166C104.917 98.8147 103.84 99.9348 102.492 100.589C101.114 101.238 99.5394 101.374 97.7981 101.004ZM100.962 86.6166C100.242 86.4635 99.5465 86.4726 98.9509 86.597C98.3252 86.715 97.762 86.9718 97.2682 87.3374C96.7743 87.703 96.3198 88.1711 95.9415 88.7182C95.5633 89.2653 95.2312 89.885 95.0124 90.56L104.349 92.5447C104.618 90.9704 104.474 89.6848 103.901 88.6217C103.32 87.5885 102.343 86.9102 100.962 86.6166ZM120.023 105.445C118.462 105.113 117.764 104.181 117.882 102.574L117.852 102.568C117.543 102.816 117.174 103.051 116.805 103.287C116.405 103.515 115.99 103.678 115.514 103.828C115.039 103.978 114.51 104.085 113.942 104.09C113.367 104.125 112.783 104.063 112.122 103.923C111.372 103.763 110.695 103.557 110.106 103.243C109.487 102.923 109.009 102.539 108.611 102.078C108.214 101.617 107.957 101.092 107.811 100.497C107.665 99.9008 107.69 99.2472 107.863 98.4996C108.07 97.6024 108.393 96.8866 108.891 96.3651C109.352 95.867 109.943 95.4906 110.627 95.2594C111.31 95.0281 112.062 94.9057 112.945 94.905C113.827 94.9042 114.769 94.9162 115.771 94.941C116.325 94.9961 116.826 95.0084 117.327 95.0208C117.798 95.0268 118.216 94.9902 118.581 94.9108C118.946 94.8315 119.264 94.6796 119.5 94.4786C119.735 94.2777 119.908 93.9379 120.005 93.5192C120.205 92.6519 120.056 91.9302 119.566 91.3241C119.076 90.7179 118.261 90.2936 117.15 90.0575C115.889 89.7895 114.86 89.8843 114.105 90.2886C113.32 90.6866 112.79 91.4837 112.49 92.6436L110.148 92.1459C110.314 91.4281 110.623 90.7722 111.045 90.1717C111.437 89.5648 111.952 89.1094 112.573 88.7394C113.187 88.3993 113.9 88.1744 114.743 88.0712C115.585 87.9679 116.521 88.0099 117.541 88.2268C118.352 88.3991 119.082 88.6484 119.761 88.981C120.41 89.3072 120.948 89.704 121.376 90.1713C121.796 90.6686 122.069 91.26 122.225 91.9518C122.38 92.6437 122.35 93.4531 122.143 94.3503L120.445 101.707C120.293 102.365 120.273 102.863 120.414 103.207C120.555 103.55 120.984 103.736 121.716 103.703L121.806 103.722L121.399 105.487C121.205 105.508 121.011 105.53 120.817 105.551C120.593 105.566 120.323 105.509 120.023 105.445ZM113.091 102.183C113.871 102.349 114.62 102.383 115.282 102.241C115.945 102.1 116.501 101.873 116.988 101.537C117.438 101.225 117.842 100.84 118.132 100.4C118.423 99.9599 118.654 99.5069 118.764 99.0284L119.372 96.3966C118.889 96.5764 118.324 96.7072 117.622 96.7463C116.92 96.7853 116.255 96.8008 115.567 96.7801C114.939 96.7721 114.341 96.7704 113.773 96.7752C113.205 96.78 112.683 96.8573 112.237 97.0136C111.792 97.1699 111.429 97.3752 111.106 97.683C110.783 97.9909 110.583 98.4502 110.458 98.9885C110.334 99.5269 110.328 99.9647 110.432 100.332C110.536 100.699 110.751 100.996 111.01 101.239C111.269 101.482 111.564 101.702 111.941 101.845C112.287 101.981 112.671 102.094 113.091 102.183ZM130.311 107.914C129.14 107.666 128.138 107.233 127.334 106.623C126.5 106.006 125.857 105.242 125.37 104.354C124.875 103.496 124.595 102.527 124.462 101.463C124.33 100.4 124.421 99.321 124.684 98.1846C124.939 97.0781 125.331 96.0632 125.919 95.1529C126.507 94.2426 127.188 93.4774 128.021 92.8701C128.847 92.2928 129.766 91.8605 130.793 91.6397C131.79 91.4124 132.896 91.3965 134.067 91.6454C135.899 92.0347 137.282 92.8622 138.202 94.0617C139.122 95.2612 139.539 96.7302 139.459 98.4389L136.998 97.9156C137.059 96.8306 136.802 95.8975 136.22 95.1462C135.637 94.3949 134.776 93.898 133.605 93.6491C132.764 93.4705 132.002 93.4967 131.303 93.6618C130.596 93.8568 129.982 94.1969 129.438 94.6458C128.886 95.1247 128.404 95.7125 128.028 96.3856C127.645 97.0885 127.369 97.8769 127.176 98.7143C126.975 99.5815 126.879 100.408 126.923 101.171C126.961 101.963 127.139 102.691 127.435 103.319C127.731 103.946 128.138 104.503 128.7 104.937C129.254 105.399 129.94 105.702 130.781 105.881C132.042 106.149 133.108 106.03 133.988 105.496C134.86 104.991 135.501 104.123 135.898 102.953L138.3 103.463C137.684 105.309 136.693 106.604 135.317 107.378C133.911 108.146 132.233 108.323 130.311 107.914ZM145.474 96.6112L145.534 96.6239C146.24 96.0211 147.068 95.5697 147.946 95.3169C148.823 95.0642 149.869 95.0355 151.01 95.278C152.631 95.6226 153.788 96.3392 154.526 97.3744C155.263 98.4096 155.46 99.7379 155.087 101.353L152.581 112.209L150.149 111.692L152.607 101.045C152.842 100.028 152.691 99.1807 152.215 98.5147C151.709 97.8424 150.9 97.3882 149.82 97.1585C149.189 97.0245 148.591 97.0228 148.032 97.1237C147.444 97.2182 146.924 97.4215 146.481 97.7038C146.008 97.9797 145.604 98.3645 145.27 98.8582C144.935 99.3518 144.714 99.9009 144.569 100.529L142.374 110.039L139.942 109.522L144.878 88.1392L147.31 88.6561L145.474 96.6112ZM162.942 114.85C161.741 114.595 160.739 114.162 159.904 113.546C159.07 112.929 158.428 112.165 157.97 111.284C157.475 110.425 157.195 109.456 157.093 108.399C156.96 107.335 157.052 106.257 157.314 105.12C157.57 104.014 157.962 102.999 158.55 102.089C159.138 101.178 159.818 100.413 160.651 99.806C161.478 99.2286 162.396 98.7964 163.394 98.5691C164.391 98.3419 165.437 98.3132 166.548 98.5493C167.689 98.7918 168.654 99.2481 169.458 99.8582C170.262 100.468 170.875 101.226 171.296 102.131C171.716 103.036 171.96 104.029 172.011 105.17C172.063 106.31 171.974 107.515 171.684 108.771L159.675 106.218C159.525 107.002 159.503 107.782 159.591 108.491C159.673 109.23 159.865 109.898 160.175 110.466C160.478 111.064 160.898 111.561 161.436 111.958C161.968 112.384 162.631 112.651 163.411 112.817C164.552 113.059 165.538 113.018 166.383 112.633C167.228 112.247 167.888 111.572 168.436 110.559L170.808 111.063C170.061 112.661 168.984 113.782 167.636 114.436C166.258 115.085 164.683 115.22 162.942 114.85ZM166.106 100.463C165.385 100.31 164.69 100.319 164.095 100.444C163.469 100.562 162.906 100.818 162.412 101.184C161.918 101.55 161.464 102.018 161.085 102.565C160.707 103.112 160.375 103.732 160.156 104.407L169.493 106.391C169.762 104.817 169.618 103.532 169.045 102.468C168.464 101.435 167.487 100.757 166.106 100.463ZM178.42 104.179L178.48 104.192C179.103 103.54 179.885 103.016 180.79 102.643C181.695 102.271 182.688 102.2 183.738 102.423C183.949 102.468 184.122 102.536 184.265 102.598C184.378 102.653 184.521 102.715 184.688 102.813L184.149 105.146L184.059 105.127C183.893 105.028 183.72 104.96 183.576 104.898C183.426 104.866 183.253 104.798 183.013 104.747C182.412 104.62 181.814 104.618 181.226 104.712C180.63 104.837 180.081 105.034 179.57 105.333C179.053 105.663 178.613 106.071 178.234 106.618C177.856 107.165 177.591 107.768 177.425 108.485L175.444 117.068L173.012 116.552L176.582 101.09L179.013 101.607L178.42 104.179ZM189.684 120.566C187.523 120.106 185.975 119.307 185.055 118.107C184.105 116.902 183.785 115.422 184.073 113.632L186.564 114.161C186.466 114.862 186.515 115.469 186.688 115.945C186.825 116.444 187.072 116.873 187.407 117.196C187.735 117.548 188.144 117.823 188.627 118.051C189.08 118.273 189.613 118.417 190.214 118.545C191.475 118.813 192.461 118.772 193.141 118.414C193.792 118.051 194.238 117.487 194.403 116.769C194.5 116.35 194.493 115.972 194.412 115.641C194.331 115.31 194.146 115.02 193.864 114.74C193.575 114.491 193.196 114.222 192.72 113.964C192.237 113.736 191.671 113.459 190.992 113.126C190.246 112.811 189.567 112.478 188.918 112.152C188.239 111.819 187.694 111.452 187.229 111.008C186.765 110.565 186.448 110.027 186.272 109.425C186.066 108.816 186.075 108.096 186.268 107.259C186.565 105.973 187.25 105.052 188.39 104.478C189.531 103.905 191.001 103.81 192.833 104.199C194.754 104.608 196.122 105.369 196.889 106.41C197.65 107.482 197.974 108.806 197.809 110.339L195.317 109.81C195.432 108.767 195.237 107.973 194.777 107.373C194.287 106.767 193.472 106.343 192.331 106.1C191.19 105.858 190.354 105.931 189.777 106.248C189.2 106.564 188.836 107.052 188.698 107.65C188.601 108.068 188.608 108.447 188.726 108.754C188.844 109.061 189.066 109.328 189.385 109.584C189.704 109.84 190.09 110.079 190.602 110.314C191.085 110.542 191.651 110.819 192.284 111.079C193.023 111.424 193.702 111.757 194.351 112.083C195 112.409 195.539 112.806 195.996 113.28C196.454 113.754 196.77 114.291 196.946 114.894C197.115 115.526 197.1 116.275 196.893 117.172C196.713 117.95 196.404 118.606 195.966 119.14C195.528 119.675 194.997 120.064 194.367 120.338C193.737 120.612 193.007 120.77 192.215 120.79C191.416 120.84 190.585 120.757 189.684 120.566ZM75.3151 117.386L77.9271 117.941L78.4566 128.062C78.4638 128.44 78.471 128.818 78.4782 129.196C78.4485 129.598 78.4557 129.976 78.4999 130.33C78.4702 130.732 78.5005 131.146 78.5308 131.56L78.5909 131.573C78.7707 131.203 78.9505 130.834 79.1304 130.464C79.2663 130.148 79.4393 129.808 79.6122 129.468C79.7551 129.122 79.928 128.783 80.124 128.479L84.9523 119.434L87.5042 119.977L87.8098 130.113C87.7939 130.455 87.8011 130.833 87.8083 131.211C87.8155 131.589 87.8227 131.967 87.8368 132.315C87.8071 132.716 87.8074 133.124 87.8077 133.532L87.8678 133.545C88.0476 133.175 88.2274 132.806 88.4373 132.442C88.6033 132.133 88.7762 131.793 88.956 131.423C89.129 131.083 89.3019 130.744 89.5048 130.41L94.5895 121.483L97.1114 122.019L88.468 136.402L85.9761 135.872L85.5553 125.963C85.5043 125.638 85.497 125.26 85.5199 124.889C85.5126 124.511 85.5054 124.133 85.5282 123.761L85.5504 122.573L85.4904 122.561C85.2805 122.924 85.1007 123.294 84.9578 123.64C84.7849 123.979 84.612 124.319 84.4691 124.665C84.2961 125.005 84.1232 125.345 83.9641 125.625L79.1911 134.43L76.6692 133.894L75.3151 117.386ZM101.457 125.076L101.517 125.089C102.223 124.486 103.051 124.034 103.929 123.782C104.806 123.529 105.852 123.5 106.993 123.743C108.614 124.087 109.771 124.804 110.509 125.839C111.246 126.874 111.443 128.203 111.071 129.818L108.564 140.674L106.132 140.157L108.59 129.51C108.825 128.493 108.674 127.645 108.198 126.98C107.692 126.307 106.884 125.853 105.803 125.623C105.172 125.489 104.574 125.488 104.015 125.588C103.427 125.683 102.907 125.886 102.464 126.169C101.991 126.444 101.587 126.829 101.253 127.323C100.918 127.817 100.697 128.366 100.552 128.994L98.3566 138.504L95.9248 137.987L100.861 116.604L103.293 117.121L101.457 125.076ZM118.925 143.315C117.754 143.066 116.752 142.634 115.948 142.023C115.114 141.407 114.471 140.643 113.983 139.755C113.488 138.897 113.208 137.927 113.076 136.864C112.943 135.8 113.035 134.722 113.297 133.585C113.553 132.479 113.945 131.464 114.533 130.553C115.121 129.643 115.801 128.878 116.634 128.271C117.461 127.693 118.379 127.261 119.407 127.04C120.404 126.813 121.51 126.797 122.681 127.046C123.822 127.288 124.817 127.751 125.651 128.368C126.455 128.978 127.098 129.742 127.593 130.6C128.081 131.488 128.361 132.457 128.493 133.521C128.595 134.578 128.534 135.663 128.278 136.77C128.016 137.906 127.594 138.914 127.036 139.831C126.448 140.741 125.768 141.507 124.941 142.084C124.108 142.691 123.19 143.123 122.192 143.351C121.165 143.572 120.066 143.558 118.925 143.315ZM119.394 141.281C120.205 141.454 120.96 141.457 121.667 141.262C122.336 141.091 122.98 140.757 123.525 140.308C124.069 139.859 124.521 139.265 124.904 138.562C125.28 137.889 125.586 137.107 125.787 136.24C125.98 135.402 126.046 134.569 126.009 133.777C125.964 133.015 125.816 132.293 125.527 131.635C125.231 131.008 124.794 130.444 124.269 129.988C123.708 129.555 123.029 129.222 122.218 129.05C121.378 128.871 120.616 128.897 119.916 129.062C119.21 129.257 118.596 129.597 118.051 130.046C117.5 130.525 117.018 131.113 116.642 131.786C116.259 132.489 115.983 133.277 115.789 134.115C115.589 134.982 115.493 135.809 115.537 136.571C115.575 137.363 115.753 138.092 116.049 138.719C116.345 139.347 116.752 139.904 117.313 140.337C117.868 140.8 118.554 141.103 119.394 141.281ZM58.6688 189.489L61.2807 190.045L61.8102 200.165C61.8174 200.543 61.8246 200.921 61.8319 201.299C61.8021 201.701 61.8094 202.079 61.8535 202.433C61.8238 202.835 61.8541 203.249 61.8845 203.664L61.9445 203.676C62.1243 203.307 62.3041 202.937 62.484 202.568C62.62 202.251 62.7929 201.912 62.9658 201.572C63.1087 201.226 63.2816 200.886 63.4777 200.583L68.3059 191.538L70.8578 192.08L71.1634 202.216C71.1475 202.558 71.1547 202.936 71.1619 203.314C71.1691 203.692 71.1763 204.07 71.1905 204.418C71.1607 204.82 71.1611 205.228 71.1614 205.636L71.2214 205.648C71.4012 205.279 71.5811 204.909 71.7909 204.546C71.9569 204.236 72.1298 203.896 72.3097 203.527C72.4826 203.187 72.6555 202.847 72.8584 202.514L77.9431 193.586L80.465 194.122L71.8216 208.505L69.3298 207.976L68.9089 198.066C68.8579 197.742 68.8507 197.364 68.8735 196.992C68.8663 196.614 68.859 196.236 68.8819 195.864L68.904 194.677L68.844 194.664C68.6342 195.027 68.4543 195.397 68.3114 195.743C68.1385 196.083 67.9656 196.423 67.8227 196.769C67.6498 197.108 67.4769 197.448 67.3177 197.728L62.5447 206.534L60.0228 205.997L58.6688 189.489ZM82.848 194.629L85.2798 195.146L81.7102 210.607L79.2784 210.09L82.848 194.629ZM84.2151 188.707L86.6469 189.224L85.9564 192.215L83.5246 191.698L84.2151 188.707ZM88.2042 195.767L90.4559 196.246L91.5813 191.371L94.0131 191.888L92.8877 196.763L95.8899 197.401L95.4342 199.375L92.432 198.737L90.1121 208.785C89.9878 209.323 90.0181 209.738 90.24 210.005C90.4619 210.271 90.8314 210.444 91.3418 210.552C91.582 210.604 91.8222 210.655 92.0762 210.646C92.3302 210.637 92.5172 210.645 92.6811 210.618L92.7712 210.637L92.2879 212.73C91.9738 212.726 91.6598 212.722 91.3227 212.682C90.9786 212.671 90.6484 212.601 90.2881 212.525C89.2673 212.308 88.5051 211.926 87.9782 211.343C87.4212 210.754 87.3005 209.913 87.556 208.807L90.0002 198.22L87.7485 197.741L88.2042 195.767ZM100.964 200.613L101.024 200.626C101.73 200.023 102.559 199.571 103.436 199.319C104.313 199.066 105.359 199.037 106.5 199.28C108.121 199.624 109.278 200.341 110.016 201.376C110.753 202.411 110.95 203.74 110.578 205.354L108.071 216.211L105.639 215.694L108.097 205.047C108.332 204.03 108.181 203.182 107.705 202.516C107.199 201.844 106.391 201.39 105.31 201.16C104.679 201.026 104.081 201.024 103.523 201.125C102.934 201.22 102.414 201.423 101.971 201.705C101.498 201.981 101.094 202.366 100.76 202.86C100.426 203.353 100.204 203.903 100.059 204.531L97.8637 214.041L95.4318 213.524L100.369 192.141L102.8 192.658L100.964 200.613ZM118.074 223.702C117.594 223.599 117.203 223.517 116.887 223.387C116.563 223.286 116.254 223.126 115.958 222.907L116.455 220.754L116.575 220.779C116.698 220.931 116.894 221.035 117.151 221.152C117.407 221.27 117.73 221.37 118.151 221.459C118.661 221.567 119.139 221.544 119.555 221.381C119.97 221.218 120.418 220.78 120.897 220.066L121.85 218.669L119.252 202.367L121.893 202.928L123.333 213.337C123.37 213.721 123.414 214.075 123.452 214.46C123.489 214.844 123.51 215.162 123.561 215.487C123.598 215.871 123.635 216.256 123.686 216.58L123.746 216.593C123.906 216.313 124.109 215.98 124.311 215.647C124.471 215.367 124.66 215.093 124.863 214.76C125.066 214.426 125.262 214.123 125.465 213.79L131.23 204.913L133.812 205.462L123.318 220.769C122.801 221.506 122.319 222.094 121.908 222.509C121.491 222.953 121.071 223.272 120.641 223.494C120.212 223.717 119.81 223.82 119.399 223.826C118.981 223.863 118.554 223.804 118.074 223.702ZM138.807 223.183C137.636 222.934 136.634 222.501 135.83 221.891C134.996 221.275 134.353 220.511 133.866 219.623C133.371 218.764 133.091 217.795 132.958 216.732C132.826 215.668 132.917 214.589 133.18 213.453C133.435 212.346 133.827 211.332 134.415 210.421C135.003 209.511 135.684 208.746 136.517 208.139C137.343 207.561 138.262 207.129 139.289 206.908C140.286 206.681 141.392 206.665 142.563 206.914C143.704 207.156 144.7 207.619 145.534 208.235C146.338 208.846 146.98 209.61 147.475 210.468C147.963 211.356 148.243 212.325 148.375 213.389C148.478 214.446 148.416 215.531 148.161 216.637C147.899 217.774 147.477 218.782 146.919 219.699C146.331 220.609 145.65 221.374 144.824 221.952C143.991 222.559 143.072 222.991 142.075 223.219C141.047 223.439 139.948 223.425 138.807 223.183ZM139.277 221.149C140.087 221.322 140.842 221.325 141.549 221.13C142.218 220.959 142.862 220.625 143.407 220.176C143.952 219.727 144.404 219.133 144.786 218.43C145.162 217.757 145.469 216.975 145.669 216.108C145.862 215.27 145.929 214.437 145.891 213.645C145.847 212.883 145.698 212.161 145.409 211.503C145.113 210.876 144.676 210.312 144.152 209.856C143.59 209.422 142.911 209.09 142.101 208.918C141.26 208.739 140.498 208.765 139.799 208.93C139.092 209.125 138.478 209.465 137.934 209.914C137.382 210.393 136.9 210.981 136.524 211.654C136.141 212.357 135.865 213.145 135.672 213.983C135.471 214.85 135.375 215.677 135.419 216.439C135.457 217.231 135.635 217.959 135.931 218.587C136.227 219.215 136.634 219.772 137.196 220.205C137.75 220.668 138.436 220.971 139.277 221.149ZM159.283 227.096L159.773 224.972L159.713 224.96C158.963 225.616 158.194 226.08 157.37 226.376C156.546 226.671 155.597 226.689 154.456 226.446C152.835 226.102 151.678 225.385 150.954 224.29C150.2 223.189 150.04 221.837 150.413 220.222L152.885 209.516L155.317 210.032L152.859 220.679C152.624 221.696 152.738 222.567 153.214 223.233C153.69 223.899 154.498 224.353 155.609 224.589C156.21 224.717 156.801 224.749 157.366 224.618C157.895 224.511 158.385 224.301 158.835 223.989C159.285 223.676 159.658 223.285 159.963 222.785C160.26 222.315 160.512 221.772 160.657 221.144L162.852 211.634L165.284 212.151L161.714 227.613L159.283 227.096ZM171.011 216.067L171.071 216.079C171.694 215.427 172.476 214.903 173.381 214.531C174.286 214.159 175.279 214.087 176.33 214.311C176.54 214.355 176.713 214.424 176.856 214.485C176.969 214.541 177.113 214.603 177.279 214.701L176.74 217.033L176.65 217.014C176.484 216.916 176.311 216.848 176.167 216.786C176.017 216.754 175.844 216.686 175.604 216.635C175.003 216.507 174.405 216.506 173.817 216.6C173.221 216.725 172.672 216.922 172.162 217.221C171.645 217.55 171.204 217.959 170.826 218.506C170.447 219.053 170.182 219.655 170.017 220.373L168.035 228.956L165.603 228.439L169.173 212.978L171.605 213.495L171.011 216.067ZM54.0879 243.027C51.9263 242.568 50.3787 241.768 49.4588 240.569C48.5088 239.363 48.1891 237.883 48.4763 236.093L50.9682 236.623C50.8694 237.323 50.9184 237.93 51.0919 238.406C51.2285 238.906 51.4759 239.335 51.811 239.657C52.1391 240.009 52.548 240.284 53.0308 240.512C53.4835 240.734 54.017 240.879 54.6175 241.007C55.8784 241.275 56.8643 241.233 57.5452 240.876C58.1961 240.512 58.6413 239.948 58.807 239.23C58.9037 238.812 58.8965 238.434 58.8154 238.103C58.7343 237.772 58.5494 237.481 58.2675 237.202C57.9787 236.952 57.5998 236.683 57.1239 236.425C56.6412 236.197 56.0752 235.92 55.3961 235.588C54.6501 235.272 53.971 234.939 53.3219 234.613C52.6428 234.281 52.0976 233.914 51.6331 233.47C51.1686 233.026 50.8519 232.488 50.676 231.886C50.47 231.278 50.4787 230.558 50.672 229.72C50.9689 228.434 51.654 227.513 52.7942 226.94C53.9344 226.367 55.4052 226.271 57.2366 226.661C59.158 227.069 60.5256 227.83 61.2929 228.872C62.0534 229.943 62.3777 231.267 62.2126 232.801L59.7208 232.271C59.8354 231.229 59.6409 230.435 59.1809 229.835C58.6909 229.229 57.8755 228.804 56.7347 228.562C55.5938 228.319 54.758 228.393 54.181 228.709C53.604 229.026 53.2395 229.513 53.1014 230.111C53.0047 230.53 53.012 230.908 53.13 231.215C53.248 231.523 53.4698 231.79 53.7887 232.046C54.1075 232.302 54.4933 232.541 55.0061 232.775C55.4888 233.003 56.0548 233.28 56.6876 233.54C57.4268 233.886 58.1059 234.218 58.755 234.545C59.4041 234.871 59.9424 235.268 60.3999 235.741C60.8575 236.215 61.1742 236.753 61.3502 237.355C61.5192 237.987 61.5036 238.737 61.2965 239.634C61.117 240.412 60.8081 241.067 60.3697 241.602C59.9314 242.136 59.4006 242.525 58.7705 242.799C58.1403 243.073 57.4108 243.232 56.6188 243.252C55.8199 243.301 54.9886 243.219 54.0879 243.027ZM70.0759 246.394C68.905 246.146 67.9025 245.713 67.0985 245.103C66.2645 244.486 65.622 243.722 65.1341 242.834C64.6393 241.976 64.3592 241.007 64.2268 239.943C64.0944 238.88 64.1859 237.801 64.4483 236.665C64.7038 235.558 65.0955 234.543 65.6836 233.633C66.2717 232.722 66.9523 231.957 67.7854 231.35C68.6116 230.773 69.5303 230.34 70.5577 230.12C71.555 229.892 72.661 229.876 73.8319 230.125C75.6632 230.515 77.047 231.342 77.9669 232.542C78.8868 233.741 79.3035 235.21 79.224 236.919L76.7622 236.396C76.8237 235.31 76.5667 234.377 75.9843 233.626C75.4018 232.875 74.5402 232.378 73.3693 232.129C72.5287 231.95 71.7667 231.977 71.0672 232.142C70.3608 232.337 69.7468 232.677 69.2022 233.126C68.6507 233.605 68.1686 234.192 67.7927 234.865C67.41 235.568 67.1335 236.357 66.9401 237.194C66.7399 238.061 66.6436 238.888 66.688 239.65C66.7256 240.443 66.9039 241.171 67.1999 241.799C67.496 242.426 67.9028 242.983 68.4642 243.416C69.0187 243.879 69.7047 244.182 70.5454 244.361C71.8063 244.629 72.873 244.51 73.7523 243.976C74.6248 243.471 75.266 242.603 75.6623 241.433L78.0641 241.943C77.449 243.789 76.4571 245.084 75.0815 245.858C73.6758 246.626 71.9973 246.803 70.0759 246.394ZM85.2382 235.091L85.2982 235.104C86.0043 234.501 86.8329 234.05 87.7102 233.797C88.5874 233.544 89.6334 233.515 90.7742 233.758C92.3954 234.103 93.5528 234.819 94.2902 235.854C95.0275 236.89 95.2248 238.218 94.852 239.833L92.3457 250.689L89.9139 250.172L92.3718 239.525C92.6066 238.508 92.4559 237.661 91.9797 236.995C91.4735 236.322 90.665 235.868 89.5842 235.638C88.9537 235.504 88.3557 235.503 87.797 235.604C87.2082 235.698 86.6889 235.901 86.2457 236.184C85.7726 236.46 85.3688 236.844 85.0344 237.338C84.6999 237.832 84.4787 238.381 84.3337 239.009L82.1381 248.519L79.7063 248.002L84.6429 226.619L87.0747 227.136L85.2382 235.091ZM102.706 253.33C101.536 253.081 100.533 252.649 99.7291 252.039C98.895 251.422 98.2526 250.658 97.7647 249.77C97.2699 248.912 96.9898 247.942 96.8573 246.879C96.7249 245.815 96.8165 244.737 97.0788 243.6C97.3343 242.494 97.7261 241.479 98.3142 240.569C98.9023 239.658 99.5829 238.893 100.416 238.286C101.242 237.709 102.161 237.276 103.188 237.055C104.186 236.828 105.292 236.812 106.462 237.061C107.603 237.304 108.599 237.766 109.433 238.383C110.237 238.993 110.879 239.757 111.374 240.615C111.862 241.503 112.142 242.473 112.275 243.536C112.377 244.593 112.315 245.678 112.06 246.785C111.798 247.921 111.376 248.93 110.818 249.846C110.23 250.757 109.549 251.522 108.723 252.099C107.89 252.706 106.971 253.139 105.974 253.366C104.946 253.587 103.847 253.573 102.706 253.33ZM103.176 251.297C103.987 251.469 104.742 251.473 105.448 251.278C106.117 251.106 106.761 250.772 107.306 250.323C107.851 249.874 108.303 249.28 108.686 248.577C109.061 247.904 109.368 247.122 109.568 246.255C109.761 245.418 109.828 244.585 109.79 243.792C109.746 243.03 109.597 242.308 109.308 241.651C109.012 241.023 108.575 240.459 108.051 240.003C107.49 239.57 106.81 239.237 106 239.065C105.159 238.886 104.397 238.912 103.698 239.078C102.991 239.273 102.377 239.613 101.833 240.062C101.281 240.54 100.799 241.128 100.423 241.801C100.04 242.504 99.764 243.293 99.5707 244.13C99.3705 244.997 99.2741 245.824 99.3186 246.586C99.3561 247.379 99.5344 248.107 99.8305 248.734C100.127 249.362 100.533 249.919 101.095 250.352C101.649 250.815 102.335 251.118 103.176 251.297ZM119.843 256.973C118.672 256.724 117.669 256.291 116.865 255.681C116.031 255.064 115.389 254.3 114.901 253.412C114.406 252.554 114.126 251.585 113.994 250.521C113.861 249.458 113.953 248.379 114.215 247.243C114.47 246.136 114.862 245.121 115.45 244.211C116.038 243.301 116.719 242.536 117.552 241.928C118.378 241.351 119.297 240.919 120.324 240.698C121.322 240.471 122.428 240.455 123.599 240.704C124.739 240.946 125.735 241.409 126.569 242.025C127.373 242.635 128.016 243.399 128.51 244.258C128.998 245.146 129.278 246.115 129.411 247.178C129.513 248.236 129.452 249.321 129.196 250.427C128.934 251.564 128.512 252.572 127.954 253.489C127.366 254.399 126.685 255.164 125.859 255.742C125.026 256.349 124.107 256.781 123.11 257.008C122.083 257.229 120.983 257.215 119.843 256.973ZM120.312 254.939C121.123 255.111 121.878 255.115 122.584 254.92C123.254 254.749 123.898 254.415 124.442 253.966C124.987 253.517 125.439 252.923 125.822 252.22C126.198 251.547 126.504 250.765 126.704 249.897C126.898 249.06 126.964 248.227 126.926 247.435C126.882 246.672 126.734 245.951 126.445 245.293C126.148 244.665 125.712 244.102 125.187 243.645C124.626 243.212 123.947 242.88 123.136 242.707C122.295 242.529 121.533 242.555 120.834 242.72C120.127 242.915 119.514 243.255 118.969 243.704C118.417 244.183 117.935 244.771 117.559 245.444C117.177 246.147 116.9 246.935 116.707 247.772C116.507 248.64 116.41 249.466 116.455 250.229C116.492 251.021 116.671 251.749 116.967 252.377C117.263 253.005 117.67 253.562 118.231 253.995C118.785 254.458 119.471 254.76 120.312 254.939ZM135.467 237.422L137.899 237.939L132.962 259.322L130.531 258.805L135.467 237.422ZM137.317 257.142L140.229 257.761L139.545 260.721L136.633 260.102L137.317 257.142Z" fill="#FAFAFA"/>
<path d="M140.713 147.978C138.511 147.51 136.901 146.665 135.881 145.445C134.865 144.204 134.491 142.733 134.757 141.033L138.54 141.837C138.409 143.587 139.334 144.673 141.316 145.094C142.217 145.285 142.944 145.273 143.498 145.056C144.072 144.843 144.421 144.468 144.545 143.929C144.591 143.73 144.593 143.542 144.55 143.365C144.526 143.193 144.438 143.028 144.286 142.87C144.158 142.697 144.033 142.555 143.912 142.445C143.81 142.34 143.608 142.214 143.306 142.066C143.004 141.918 142.768 141.805 142.597 141.727C142.446 141.653 142.168 141.541 141.761 141.392C141.379 141.227 141.113 141.108 140.962 141.034C140.158 140.696 139.504 140.39 139.001 140.115C138.522 139.825 138.029 139.459 137.522 139.017C137.02 138.554 136.683 138.012 136.512 137.39C136.365 136.752 136.384 136.035 136.568 135.237C136.936 133.642 137.797 132.549 139.152 131.959C140.526 131.372 142.134 131.275 143.975 131.666C145.956 132.087 147.402 132.876 148.311 134.031C149.244 135.171 149.61 136.545 149.406 138.154L145.713 137.369C145.898 135.84 145.08 134.882 143.259 134.495C142.438 134.32 141.753 134.331 141.204 134.528C140.675 134.73 140.348 135.099 140.223 135.638C140.182 135.817 140.173 135.993 140.196 136.165C140.244 136.322 140.334 136.477 140.467 136.631C140.624 136.769 140.773 136.895 140.915 137.008C141.061 137.102 141.275 137.221 141.557 137.364C141.843 137.488 142.09 137.603 142.296 137.71C142.507 137.796 142.794 137.92 143.155 138.081C143.522 138.221 143.811 138.335 144.022 138.422C144.63 138.697 145.12 138.938 145.493 139.142C145.89 139.331 146.329 139.613 146.81 139.987C147.295 140.341 147.651 140.709 147.877 141.092C148.129 141.459 148.302 141.936 148.398 142.521C148.519 143.09 148.498 143.724 148.337 144.422C147.987 145.937 147.108 147.015 145.7 147.657C144.317 148.284 142.655 148.39 140.713 147.978ZM151.471 136.522L152.092 133.831L154.224 134.284L155.328 129.499L159.321 130.348L158.217 135.133L160.858 135.694L160.237 138.386L157.595 137.824L155.717 145.959C155.482 146.976 155.875 147.593 156.896 147.809L158.104 148.035L157.413 151.025C156.784 150.933 155.929 150.773 154.848 150.543C153.667 150.292 152.741 149.802 152.069 149.074C151.402 148.325 151.22 147.293 151.524 145.977L153.602 136.976L151.471 136.522ZM169.863 153.703C169.723 153.401 169.694 152.799 169.776 151.896L169.716 151.884C169.124 152.448 168.446 152.837 167.683 153.051C166.92 153.266 165.928 153.243 164.707 152.984C163.085 152.639 161.879 151.954 161.087 150.928C160.295 149.902 160.071 148.641 160.417 147.146C160.776 145.591 161.578 144.569 162.825 144.081C164.076 143.573 165.715 143.388 167.74 143.526C169.228 143.633 170.254 143.642 170.821 143.553C171.392 143.445 171.739 143.121 171.864 142.583C171.993 142.024 171.874 141.539 171.507 141.126C171.145 140.694 170.544 140.388 169.703 140.21C167.842 139.814 166.685 140.321 166.234 141.731L162.601 140.959C162.997 139.516 163.866 138.436 165.208 137.717C166.549 136.998 168.281 136.864 170.403 137.315C174.726 138.234 176.453 140.578 175.583 144.346L173.781 152.151C173.514 153.308 173.53 154.054 173.831 154.39L173.796 154.539L169.863 153.703ZM166.353 150.353C167.474 150.591 168.422 150.489 169.195 150.047C169.989 149.609 170.479 148.992 170.663 148.194L171.194 145.892C170.694 146.057 169.674 146.154 168.135 146.182C166.914 146.195 166.025 146.32 165.466 146.556C164.912 146.773 164.557 147.221 164.4 147.899C164.101 149.195 164.752 150.013 166.353 150.353ZM175.476 160.167L176.214 156.967L177.656 157.273C179.177 157.597 180.098 157.06 180.421 155.665C180.577 154.987 180.507 153.518 180.209 151.259L178.586 139.462L182.88 140.375L183.566 147.768L183.784 151.328L183.844 151.341C184.423 150.105 184.981 149.052 185.518 148.183L189.274 141.734L193.387 142.608L184.382 157.197C183.376 158.824 182.417 159.885 181.505 160.382C180.608 160.902 179.399 161.001 177.877 160.677L175.476 160.167ZM74.3205 171.216C74.1802 170.914 74.1512 170.312 74.2337 169.409L74.1736 169.396C73.5814 169.961 72.9036 170.35 72.1402 170.564C71.3769 170.778 70.3847 170.756 69.1638 170.496C67.5426 170.152 66.336 169.466 65.544 168.44C64.752 167.414 64.5286 166.154 64.8738 164.659C65.2329 163.103 66.0356 162.082 67.2821 161.594C68.5333 161.086 70.1718 160.901 72.1977 161.039C73.6848 161.145 74.7115 161.155 75.2779 161.066C75.849 160.957 76.1966 160.634 76.3209 160.095C76.4498 159.537 76.3309 159.052 75.9642 158.639C75.6021 158.206 75.0008 157.901 74.1601 157.722C72.2988 157.327 71.1423 157.834 70.6908 159.244L67.0581 158.472C67.4542 157.029 68.3231 155.948 69.6649 155.229C71.0066 154.511 72.7383 154.377 74.8599 154.828C79.1831 155.747 80.9097 158.09 80.0398 161.858L78.2377 169.664C77.9708 170.82 77.9875 171.566 78.2879 171.902L78.2534 172.052L74.3205 171.216ZM70.8105 167.866C71.9313 168.104 72.8787 168.002 73.6527 167.56C74.4467 167.122 74.9357 166.504 75.1198 165.707L75.6515 163.404C75.1513 163.57 74.1316 163.667 72.5922 163.695C71.3715 163.708 70.4819 163.832 69.9233 164.069C69.3692 164.286 69.014 164.733 68.8575 165.411C68.5583 166.707 69.2093 167.525 70.8105 167.866ZM88.4441 158.123L87.9608 160.216L88.0509 160.236C89.4983 158.786 91.2128 158.272 93.1943 158.693C94.7754 159.029 95.9321 159.84 96.6643 161.125C97.4011 162.39 97.5738 163.87 97.1826 165.565L94.8696 175.584L90.7865 174.716L92.9614 165.295C93.1548 164.458 93.0711 163.729 92.7104 163.108C92.3697 162.492 91.7791 162.095 90.9385 161.916C90.0378 161.725 89.2113 161.894 88.459 162.424C87.7266 162.959 87.2408 163.745 87.0014 164.781L84.9922 173.484L80.9092 172.616L84.4512 157.274L88.4441 158.123ZM103.647 177.92C101.706 177.507 100.303 176.446 99.438 174.735C98.5777 173.004 98.433 170.903 99.0037 168.431C99.5561 166.038 100.615 164.224 102.181 162.988C103.772 161.737 105.528 161.315 107.45 161.723C109.371 162.132 110.647 163.198 111.278 164.922L111.368 164.941L113.191 157.046L117.274 157.913L112.337 179.296L108.405 178.461L108.867 176.457L108.807 176.444C107.429 177.866 105.709 178.358 103.647 177.92ZM105.335 174.702C106.536 174.957 107.541 174.742 108.35 174.057C109.18 173.375 109.76 172.317 110.091 170.881C110.846 167.612 110.033 165.724 107.651 165.217C106.55 164.983 105.608 165.243 104.825 165.997C104.042 166.751 103.483 167.856 103.147 169.311C102.802 170.807 102.815 172.022 103.187 172.959C103.578 173.9 104.294 174.481 105.335 174.702ZM126.812 187.864C124.731 187.421 123.156 186.647 122.088 185.542C121.041 184.441 120.582 183.109 120.711 181.547L124.764 182.409C124.902 183.63 125.802 184.417 127.463 184.77C129.745 185.255 131.132 184.431 131.625 182.298L132.011 180.623L131.921 180.604C130.584 181.575 129.105 181.888 127.484 181.543C125.662 181.156 124.225 180.15 123.173 178.525C122.14 176.904 121.879 174.987 122.39 172.774C122.915 170.501 123.954 168.819 125.508 167.727C127.067 166.615 128.827 166.267 130.788 166.684C132.65 167.08 133.914 168.06 134.582 169.624L134.642 169.637L135.015 168.022L138.948 168.858L135.675 183.033C135.215 185.027 134.245 186.453 132.767 187.31C131.259 188.202 129.274 188.387 126.812 187.864ZM128.927 178.43C130.148 178.69 131.148 178.495 131.928 177.845C132.708 177.195 133.239 176.262 133.519 175.045C133.796 173.849 133.703 172.794 133.242 171.881C132.806 170.951 131.997 170.361 130.816 170.11C129.776 169.889 128.847 170.089 128.032 170.71C127.237 171.336 126.692 172.287 126.397 173.563C126.098 174.859 126.173 175.942 126.624 176.811C127.098 177.665 127.866 178.205 128.927 178.43ZM146.11 170.38L145.544 172.833L145.634 172.852C146.322 172.057 147.004 171.511 147.681 171.216C148.363 170.901 149.144 170.837 150.025 171.024C150.445 171.113 150.756 171.221 150.958 171.348L150.136 174.907L150.046 174.888C148.697 174.454 147.517 174.517 146.506 175.076C145.495 175.635 144.808 176.702 144.445 178.278L142.718 185.754L138.635 184.886L142.177 169.544L146.11 170.38ZM162.839 188.086C160.984 189.302 158.875 189.659 156.513 189.157C154.152 188.655 152.397 187.477 151.251 185.623C150.109 183.748 149.804 181.655 150.338 179.342C150.872 177.029 152.067 175.265 153.923 174.049C155.783 172.813 157.894 172.446 160.256 172.948C162.617 173.45 164.369 174.638 165.511 176.512C166.658 178.366 166.964 180.45 166.43 182.763C165.896 185.075 164.699 186.85 162.839 188.086ZM157.231 186.047C158.452 186.306 159.507 186.06 160.394 185.307C161.306 184.539 161.937 183.397 162.287 181.882C162.637 180.367 162.568 179.076 162.079 178.01C161.61 176.948 160.765 176.288 159.544 176.028C158.303 175.764 157.237 176.019 156.345 176.791C155.457 177.544 154.836 178.688 154.482 180.223C154.132 181.738 154.191 183.027 154.66 184.088C155.133 185.13 155.99 185.783 157.231 186.047ZM170.024 191.558L169.063 175.259L173.116 176.12L173.334 183.634L173.361 186.652L173.421 186.664C173.895 185.615 174.338 184.694 174.752 183.904L178.309 177.224L181.792 177.965L182.167 185.48L182.218 188.534L182.278 188.547C182.767 187.521 183.218 186.613 183.631 185.823L187.226 179.12L191.189 179.962L183.054 194.328L179.331 193.536L179.029 185.566L178.953 182.758L178.893 182.745C178.412 183.647 177.967 184.483 177.558 185.253L173.717 192.343L170.024 191.558Z" fill="#FCFF32"/>
<defs>
<filter id="filter0_f_2233_756" x="17.6165" y="97.4658" width="1184.68" height="506.504" filterUnits="userSpaceOnUse" color-interpolation-filters="sRGB">
<feFlood flood-opacity="0" result="BackgroundImageFix"/>
<feBlend mode="normal" in="SourceGraphic" in2="BackgroundImageFix" result="shape"/>
<feGaussianBlur stdDeviation="4" result="effect1_foregroundBlur_2233_756"/>
</filter>
<filter id="filter1_n_2233_756" x="-6.43274" y="197.745" width="326.839" height="203.531" filterUnits="userSpaceOnUse" color-interpolation-filters="sRGB">
<feFlood flood-opacity="0" result="BackgroundImageFix"/>
<feBlend mode="normal" in="SourceGraphic" in2="BackgroundImageFix" result="shape"/>
<feTurbulence type="fractalNoise" baseFrequency="1 1" stitchTiles="stitch" numOctaves="3" result="noise" seed="1706" />
<feColorMatrix in="noise" type="luminanceToAlpha" result="alphaNoise" />
<feComponentTransfer in="alphaNoise" result="coloredNoise1">
<feFuncA type="discrete" tableValues="1 1 1 1 1 1 1 1 1 1 1 1 1 1 1 1 1 1 1 1 1 1 1 1 1 1 1 1 1 1 1 1 1 1 1 1 1 1 1 1 1 1 1 1 1 1 1 1 1 1 1 0 0 0 0 0 0 0 0 0 0 0 0 0 0 0 0 0 0 0 0 0 0 0 0 0 0 0 0 0 0 0 0 0 0 0 0 0 0 0 0 0 0 0 0 0 0 0 0 0 "/>
</feComponentTransfer>
<feComposite operator="in" in2="shape" in="coloredNoise1" result="noise1Clipped" />
<feFlood flood-color="rgba(0, 0, 0, 0.05)" result="color1Flood" />
<feComposite operator="in" in2="noise1Clipped" in="color1Flood" result="color1" />
<feMerge result="effect1_noise_2233_756">
<feMergeNode in="shape" />
<feMergeNode in="color1" />
</feMerge>
</filter>
<filter id="filter2_n_2233_756" x="238.939" y="53.2212" width="109.876" height="335.988" filterUnits="userSpaceOnUse" color-interpolation-filters="sRGB">
<feFlood flood-opacity="0" result="BackgroundImageFix"/>
<feBlend mode="normal" in="SourceGraphic" in2="BackgroundImageFix" result="shape"/>
<feTurbulence type="fractalNoise" baseFrequency="1 1" stitchTiles="stitch" numOctaves="3" result="noise" seed="1706" />
<feColorMatrix in="noise" type="luminanceToAlpha" result="alphaNoise" />
<feComponentTransfer in="alphaNoise" result="coloredNoise1">
<feFuncA type="discrete" tableValues="1 1 1 1 1 1 1 1 1 1 1 1 1 1 1 1 1 1 1 1 1 1 1 1 1 1 1 1 1 1 1 1 1 1 1 1 1 1 1 1 1 1 1 1 1 1 1 1 1 1 1 0 0 0 0 0 0 0 0 0 0 0 0 0 0 0 0 0 0 0 0 0 0 0 0 0 0 0 0 0 0 0 0 0 0 0 0 0 0 0 0 0 0 0 0 0 0 0 0 0 "/>
</feComponentTransfer>
<feComposite operator="in" in2="shape" in="coloredNoise1" result="noise1Clipped" />
<feFlood flood-color="rgba(0, 0, 0, 0.05)" result="color1Flood" />
<feComposite operator="in" in2="noise1Clipped" in="color1Flood" result="color1" />
<feMerge result="effect1_noise_2233_756">
<feMergeNode in="shape" />
<feMergeNode in="color1" />
</feMerge>
</filter>
<filter id="filter3_n_2233_756" x="0" y="0" width="338.152" height="353.849" filterUnits="userSpaceOnUse" color-interpolation-filters="sRGB">
<feFlood flood-opacity="0" result="BackgroundImageFix"/>
<feBlend mode="normal" in="SourceGraphic" in2="BackgroundImageFix" result="shape"/>
<feTurbulence type="fractalNoise" baseFrequency="1 1" stitchTiles="stitch" numOctaves="3" result="noise" seed="1706" />
<feColorMatrix in="noise" type="luminanceToAlpha" result="alphaNoise" />
<feComponentTransfer in="alphaNoise" result="coloredNoise1">
<feFuncA type="discrete" tableValues="1 1 1 1 1 1 1 1 1 1 1 1 1 1 1 1 1 1 1 1 1 1 1 1 1 1 1 1 1 1 1 1 1 1 1 1 1 1 1 1 1 1 1 1 1 1 1 1 1 1 1 0 0 0 0 0 0 0 0 0 0 0 0 0 0 0 0 0 0 0 0 0 0 0 0 0 0 0 0 0 0 0 0 0 0 0 0 0 0 0 0 0 0 0 0 0 0 0 0 0 "/>
</feComponentTransfer>
<feComposite operator="in" in2="shape" in="coloredNoise1" result="noise1Clipped" />
<feFlood flood-color="rgba(0, 0, 0, 0.05)" result="color1Flood" />
<feComposite operator="in" in2="noise1Clipped" in="color1Flood" result="color1" />
<feMerge result="effect1_noise_2233_756">
<feMergeNode in="shape" />
<feMergeNode in="color1" />
</feMerge>
</filter>
<linearGradient id="paint0_linear_2233_756" x1="-10.8733" y1="343.723" x2="329.081" y2="349.079" gradientUnits="userSpaceOnUse">
<stop stop-color="#0362A6"/>
<stop offset="1" stop-color="#FCFF32"/>
</linearGradient>
<linearGradient id="paint1_linear_2233_756" x1="202.159" y1="315.502" x2="410.447" y2="191.092" gradientUnits="userSpaceOnUse">
<stop stop-color="#FCFF32"/>
<stop offset="1" stop-color="#0362A6"/>
</linearGradient>
<linearGradient id="paint2_linear_2233_756" x1="8.31646e-09" y1="191.855" x2="343.031" y2="191.855" gradientUnits="userSpaceOnUse">
<stop stop-color="#0A7FD2"/>
<stop offset="1" stop-color="#FCFF32"/>
</linearGradient>
</defs>
</svg>
