<svg width="487" height="454" viewBox="0 0 487 454" fill="none" xmlns="http://www.w3.org/2000/svg">
<g filter="url(#filter0_f_2307_1261)">
<path d="M74.6255 382.499L25.6165 333.739L346.727 105.466L466.809 129.697L478.409 122.862L405.958 440.224L394.93 445.312L74.6255 382.499Z" fill="#001524" fill-opacity="0.3"/>
</g>
<mask id="mask0_2307_1261" style="mask-type:alpha" maskUnits="userSpaceOnUse" x="0" y="55" width="347" height="332">
<path d="M214.558 264.716L0.0117188 298.743L25.6233 333.746L282.373 386.301C309.532 274.307 319.809 216.518 346.969 104.524L338.049 55.0967L214.558 264.716Z" fill="#D9D9D9"/>
</mask>
<g mask="url(#mask0_2307_1261)">
<g filter="url(#filter1_n_2307_1261)">
<path d="M24.097 342.285L286.054 401.275L320.406 255.031L16.9149 197.744L-6.43274 297.733L24.097 342.285Z" fill="url(#paint0_linear_2307_1261)"/>
</g>
<g filter="url(#filter2_n_2307_1261)">
<path d="M283.583 389.209L269.483 353.714L238.939 126.747L339.298 53.2207L348.815 105.771L283.583 389.209Z" fill="url(#paint1_linear_2307_1261)"/>
</g>
</g>
<g filter="url(#filter3_n_2307_1261)">
<path d="M338.152 55.1064L68.6007 0L0 298.755L269.574 353.849L338.152 55.1064Z" fill="url(#paint2_linear_2307_1261)"/>
</g>
<path fill-rule="evenodd" clip-rule="evenodd" d="M177.05 275.29C178.143 275.691 179.27 275.943 180.431 276.049C181.565 276.137 182.697 276.113 183.828 275.977C186.369 275.61 188.865 274.979 191.275 274.093C191.626 274.001 191.928 273.778 192.119 273.469C192.31 273.161 192.375 272.791 192.301 272.435C192.201 272.089 191.976 271.792 191.67 271.602C191.364 271.412 190.999 271.342 190.644 271.405C188.254 271.69 185.838 271.775 183.428 271.673C181.985 271.648 180.547 271.545 179.112 271.363L177.027 270.895C180.182 268.248 182.507 264.748 183.724 260.813C186.435 252.646 184.172 243.363 174.668 240.352C171.557 239.632 168.32 239.662 165.223 240.441C162.127 241.219 159.259 242.722 156.859 244.827C154.265 246.777 152.365 249.506 151.439 252.615C150.512 255.725 150.606 259.049 151.709 262.1C152.427 263.947 153.555 265.61 155.006 266.967L156.407 268.159C152.465 270.713 149.149 274.122 146.706 278.133C144.852 281.254 143.433 284.613 142.489 288.118C141.144 293.233 140.323 298.475 140.033 303.756C140 303.948 140.008 304.144 140.054 304.332C140.101 304.52 140.186 304.697 140.303 304.851C140.421 305.005 140.569 305.133 140.739 305.227C140.908 305.322 141.095 305.38 141.288 305.399C141.638 305.433 141.987 305.332 142.264 305.117C142.541 304.901 142.725 304.588 142.778 304.241C143.644 299.194 144.921 294.226 146.594 289.386C147.671 286.291 149.004 283.285 150.585 280.409C152.715 276.381 155.618 272.812 159.127 269.907C160.19 270.453 161.253 270.998 162.334 271.461C162.478 271.525 162.634 271.56 162.792 271.564C162.949 271.568 163.106 271.541 163.253 271.484C163.401 271.427 163.535 271.342 163.65 271.234C163.764 271.125 163.856 270.995 163.92 270.851C163.984 270.707 164.019 270.551 164.023 270.393C164.027 270.236 164 270.079 163.943 269.932C163.887 269.784 163.802 269.65 163.693 269.535C163.584 269.421 163.454 269.329 163.31 269.265C155.383 265.467 154.75 261.242 154.737 261.107C154.03 258.704 154.117 256.137 154.985 253.787C155.852 251.437 157.454 249.429 159.552 248.061C161.448 246.445 163.696 245.295 166.116 244.702C168.535 244.11 171.06 244.091 173.488 244.648C180.537 246.669 181.977 253.533 180.213 259.634C179.528 262.876 177.788 265.8 175.266 267.949C172.743 270.097 169.58 271.35 166.27 271.51C165.912 271.494 165.562 271.615 165.29 271.847C165.018 272.079 164.844 272.406 164.804 272.761C164.789 273.116 164.912 273.462 165.147 273.728C165.382 273.993 165.711 274.157 166.064 274.185C168.398 274.368 170.741 273.958 172.873 272.992C174.139 273.965 175.545 274.742 177.05 275.29Z" fill="#199271"/>
<path fill-rule="evenodd" clip-rule="evenodd" d="M190.677 280.061C188.608 281.292 186.399 282.27 184.097 282.974C181.828 283.643 179.496 284.076 177.139 284.265C175.351 284.303 173.566 284.43 171.786 284.644C170.525 284.811 169.357 285.398 168.47 286.31C167.015 288.403 166.058 290.801 165.672 293.321C164.501 298.541 164.771 305.358 164.28 308.716C164.247 308.891 164.248 309.071 164.286 309.245C164.323 309.419 164.395 309.584 164.497 309.73C164.6 309.876 164.731 310 164.882 310.094C165.033 310.188 165.202 310.251 165.378 310.279C165.549 310.312 165.726 310.31 165.897 310.275C166.067 310.24 166.23 310.171 166.374 310.073C166.518 309.975 166.642 309.849 166.738 309.704C166.833 309.558 166.899 309.394 166.932 309.223C167.57 306.381 168.283 301.054 169.361 296.251C171.789 285.431 173.655 289.05 177.837 288.408C180.377 287.846 182.861 287.053 185.257 286.039C187.695 285.015 189.999 283.688 192.109 282.09C192.25 282.01 192.372 281.902 192.468 281.772C192.564 281.643 192.632 281.494 192.667 281.337C192.703 281.18 192.705 281.016 192.673 280.858C192.642 280.7 192.577 280.55 192.484 280.418C192.401 280.264 192.284 280.129 192.142 280.025C192.001 279.921 191.838 279.849 191.666 279.814C191.493 279.78 191.316 279.784 191.145 279.825C190.974 279.867 190.815 279.946 190.678 280.056M234.219 282.941C232.183 282.704 230.191 282.256 228.243 281.6C222.5 279.433 215.6 272.445 220.345 264.603C221.859 262.341 223.89 260.472 226.27 259.151C228.65 257.83 231.31 257.095 234.03 257.007C236.93 256.794 239.819 257.533 242.261 259.111C244.702 260.689 246.563 263.02 247.56 265.75C248.047 267.142 248.252 268.617 248.165 270.089C248.077 271.56 247.698 273 247.05 274.324C246.401 275.649 245.496 276.831 244.387 277.803C243.278 278.774 241.988 279.516 240.59 279.985C240.26 280.124 239.997 280.385 239.857 280.715C239.717 281.045 239.712 281.416 239.843 281.749C239.931 282.006 240.099 282.229 240.322 282.385C240.545 282.54 240.812 282.621 241.084 282.616C241.264 282.613 241.443 282.572 241.607 282.496C243.412 281.957 245.092 281.065 246.549 279.871C248.007 278.677 249.212 277.206 250.096 275.542C250.98 273.879 251.525 272.056 251.698 270.18C251.872 268.304 251.671 266.413 251.107 264.615C249.967 260.974 247.667 257.806 244.557 255.594C241.447 253.383 237.7 252.251 233.886 252.369C230.421 252.49 227.039 253.463 224.04 255.2C221.04 256.938 218.514 259.387 216.684 262.333C215.507 264.313 214.871 266.568 214.84 268.871C214.808 271.174 215.382 273.446 216.504 275.458C215.869 275.061 215.264 274.617 214.695 274.13C212.838 272.187 211.486 269.818 210.756 267.231C210.147 265.16 209.229 263.193 208.031 261.396C207.082 259.892 205.767 258.654 204.208 257.798C202.649 256.943 200.899 256.497 199.121 256.503C197.603 256.779 196.178 257.427 194.974 258.391C193.77 259.355 192.825 260.603 192.223 262.023C191.763 262.912 191.54 263.906 191.576 264.906C191.761 266.157 192.009 267.396 192.322 268.625C192.643 269.839 193.036 271.024 193.499 272.182C194.621 275.2 196.1 278.078 197.895 280.759C199.706 283.448 201.881 285.885 204.343 288.001C206.372 289.445 208.472 290.78 210.644 292.005C211.281 292.411 211.86 292.892 212.379 293.448C212.464 295.088 212.39 296.724 212.156 298.354C211.907 300.921 211.47 303.455 210.844 305.957C209.889 309.782 208.723 313.542 207.346 317.24C207.287 317.388 207.258 317.546 207.26 317.706C207.262 317.865 207.295 318.023 207.358 318.17C207.421 318.316 207.512 318.449 207.626 318.56C207.74 318.672 207.875 318.759 208.024 318.819C208.172 318.878 208.33 318.907 208.49 318.905C208.649 318.903 208.807 318.87 208.953 318.807C209.1 318.744 209.233 318.653 209.344 318.539C209.455 318.425 209.543 318.289 209.602 318.141C211.092 314.437 212.601 310.649 213.732 306.781C214.519 304.163 215.116 301.502 215.524 298.798C215.861 297.066 216.079 295.312 216.175 293.549C216.165 292.768 215.942 292.004 215.53 291.341C214.787 290.35 213.904 289.472 212.91 288.734C211.036 287.303 208.711 286.123 207.139 284.717C205.021 282.787 203.154 280.6 201.581 278.206C200.012 275.796 198.69 273.234 197.634 270.559C197.255 269.509 196.917 268.471 196.632 267.398C195.593 263.828 195.974 264.089 196.421 263.268C196.677 262.63 197.082 262.062 197.603 261.614C198.124 261.165 198.745 260.849 199.414 260.691C200.957 260.467 202.716 261.432 204.969 263.913C207.221 266.394 207.855 272.55 212.456 276.48C214.64 278.288 217.255 279.507 220.044 280.027C220.387 280.377 220.752 280.707 221.139 281.019C222.987 282.409 225.07 283.456 227.288 284.112C229.427 284.71 231.618 285.099 233.832 285.273C233.988 285.292 234.146 285.279 234.297 285.235C234.448 285.191 234.588 285.116 234.709 285.016C234.83 284.916 234.93 284.792 235.001 284.652C235.073 284.512 235.115 284.359 235.126 284.203C235.168 283.917 235.097 283.626 234.928 283.392C234.76 283.157 234.507 282.998 234.223 282.946" fill="#199271"/>
<path fill-rule="evenodd" clip-rule="evenodd" d="M238.365 282.076C238.289 281.919 238.18 281.78 238.045 281.67C237.91 281.559 237.753 281.479 237.584 281.436C237.415 281.392 237.239 281.386 237.068 281.417C236.896 281.449 236.734 281.517 236.592 281.618C236.449 281.719 236.331 281.849 236.244 282C236.157 282.152 236.105 282.32 236.089 282.494C236.074 282.667 236.097 282.842 236.157 283.006C236.216 283.17 236.311 283.319 236.434 283.442C239.024 288.151 240.113 293.539 239.553 298.884C239.395 302.132 239.022 305.356 238.436 308.554C237.488 313.493 236.261 318.374 234.76 323.173C234.698 323.338 234.67 323.514 234.677 323.69C234.684 323.866 234.726 324.039 234.8 324.199C234.875 324.359 234.98 324.502 235.111 324.62C235.241 324.739 235.394 324.83 235.56 324.889C235.892 325.015 236.259 325.007 236.585 324.867C236.911 324.728 237.171 324.467 237.308 324.14C239.493 319.415 241.281 314.518 242.654 309.497C243.574 306.049 244.047 302.498 244.06 298.93C244.12 292.829 242.111 286.887 238.36 282.075" fill="#199271"/>
<path fill-rule="evenodd" clip-rule="evenodd" d="M185.773 234.859C185.816 235.606 185.928 236.348 186.108 237.085C186.255 237.797 186.449 238.499 186.689 239.191C187.322 240.869 188.067 242.498 188.924 244.078C189.022 244.377 189.23 244.627 189.506 244.779C189.781 244.93 190.104 244.971 190.409 244.894C190.714 244.805 190.971 244.599 191.124 244.321C191.277 244.042 191.313 243.714 191.225 243.409C191.048 241.657 191.111 240.004 190.925 238.293C190.839 237.568 190.707 236.85 190.53 236.141C190.376 235.442 190.179 234.752 189.939 234.077C189.39 232.418 188.737 230.827 188.076 229.274C187.991 228.927 187.773 228.627 187.47 228.439C187.167 228.25 186.802 228.187 186.453 228.263C186.104 228.339 185.799 228.548 185.602 228.846C185.405 229.144 185.332 229.507 185.399 229.858C185.563 231.475 185.545 233.139 185.773 234.859ZM204.473 240.109C204.404 240.413 204.456 240.73 204.618 240.996C204.779 241.261 205.038 241.454 205.338 241.533C205.491 241.579 205.651 241.593 205.81 241.575C205.968 241.556 206.121 241.505 206.258 241.425C206.396 241.344 206.515 241.236 206.609 241.108C206.703 240.979 206.769 240.832 206.804 240.676C207.574 239.005 208.399 237.479 209.012 235.728C209.216 234.999 209.382 234.26 209.509 233.513C209.71 232.786 209.876 232.048 210.006 231.298C210.391 229.585 210.264 227.8 210.407 225.989C210.485 225.648 210.429 225.291 210.252 224.99C210.074 224.689 209.789 224.468 209.454 224.37C209.281 224.325 209.102 224.316 208.926 224.342C208.75 224.368 208.581 224.43 208.429 224.523C208.277 224.616 208.145 224.738 208.042 224.883C207.938 225.028 207.865 225.192 207.826 225.365C207.139 227.055 206.43 228.652 205.868 230.37C205.664 231.099 205.498 231.838 205.371 232.585C205.163 233.317 204.997 234.055 204.874 234.8C204.564 236.574 204.616 238.298 204.473 240.109ZM218.384 249.285C219.813 248.678 221.189 247.963 222.509 247.138C223.032 246.767 223.52 246.35 223.975 245.887C224.422 245.46 224.837 244.983 225.251 244.505C226.178 243.308 226.971 242.125 227.847 240.961C228.124 240.734 228.304 240.409 228.351 240.054C228.398 239.699 228.309 239.339 228.101 239.047C227.855 238.787 227.517 238.633 227.16 238.618C226.802 238.603 226.453 238.729 226.187 238.969C224.865 239.77 223.647 240.506 222.39 241.409C221.911 241.784 221.432 242.16 220.985 242.586C220.465 243.01 219.98 243.473 219.532 243.972C218.615 245.127 217.906 246.329 216.956 247.433C216.824 247.523 216.712 247.639 216.626 247.774C216.54 247.909 216.481 248.059 216.454 248.217C216.427 248.374 216.432 248.535 216.468 248.691C216.504 248.847 216.57 248.994 216.664 249.123C216.758 249.253 216.878 249.362 217.015 249.445C217.152 249.528 217.304 249.582 217.463 249.605C217.621 249.628 217.783 249.619 217.938 249.578C218.093 249.538 218.238 249.466 218.365 249.369L218.384 249.285Z" fill="#199271"/>
<path d="M89.6505 62.2959L94.5872 40.9128L103.684 42.8464C105.946 43.3271 107.524 44.311 108.42 45.7982C109.119 46.9509 109.299 48.2649 108.958 49.7403C108.434 52.0132 106.938 53.2639 104.47 53.4924L104.449 53.5821C105.661 54.1534 106.564 54.9728 107.157 56.0402C107.756 57.0876 107.896 58.2991 107.578 59.6748C107.201 61.3097 106.365 62.5648 105.071 63.4402C103.497 64.5279 101.549 64.825 99.2276 64.3315L89.6505 62.2959ZM92.9118 60.4478L99.6668 61.8836C101.148 62.1984 102.352 62.0778 103.278 61.5217C104.075 60.9799 104.586 60.2206 104.812 59.2437C105.111 57.9477 104.928 56.8736 104.264 56.0213C103.6 55.169 102.588 54.5982 101.227 54.3089L94.6517 52.9114L92.9118 60.4478ZM95.1764 50.6385L101.241 51.9275C102.542 52.204 103.634 52.112 104.517 51.6513C105.4 51.1907 105.969 50.4121 106.222 49.3155C106.461 48.2787 106.307 47.3989 105.76 46.6761C105.238 45.9376 104.376 45.4407 103.175 45.1854L96.7506 43.8198L95.1764 50.6385ZM121.521 69.0701L119.089 68.5532L119.579 66.4299L119.519 66.4171C117.916 67.8124 116.164 68.308 114.263 67.9038C112.661 67.5635 111.494 66.8447 110.761 65.7476C110.032 64.6305 109.851 63.2745 110.219 61.6795L112.691 50.973L115.123 51.4899L112.665 62.1365C112.435 63.1334 112.556 63.9748 113.027 64.6607C113.519 65.3508 114.315 65.8129 115.416 66.0469C116.637 66.3064 117.712 66.1061 118.641 65.4461C119.57 64.7861 120.178 63.838 120.463 62.6018L122.659 53.0916L125.09 53.6085L121.521 69.0701ZM125.41 69.8967L128.979 54.4351L131.411 54.952L127.841 70.4136L125.41 69.8967ZM129.656 51.5043L130.346 48.5136L132.778 49.0305L132.088 52.0212L129.656 51.5043ZM131.847 71.2649L136.783 49.8819L139.215 50.3987L134.278 71.7818L131.847 71.2649ZM144.18 74.3571C142.059 73.9062 140.545 72.8211 139.641 71.1019C138.76 69.367 138.608 67.2534 139.183 64.7612C139.763 62.2491 140.862 60.4015 142.479 59.2183C144.096 58.0351 145.895 57.6541 147.876 58.0753C149.978 58.522 151.403 59.7139 152.153 61.6511L152.213 61.6639L154.084 53.5593L156.516 54.0762L151.579 75.4592L149.148 74.9423L149.582 73.0582L149.522 73.0455C147.943 74.3411 146.162 74.7783 144.18 74.3571ZM144.74 72.3426C146.401 72.6958 147.759 72.4091 148.812 71.4827C149.886 70.5606 150.637 69.1724 151.065 67.3182C151.489 65.4839 151.389 63.915 150.766 62.6113C150.163 61.3118 149.081 60.4962 147.52 60.1644C146.099 59.8623 144.867 60.1965 143.824 61.1671C142.806 62.1219 142.087 63.5065 141.668 65.3208C141.249 67.1351 141.291 68.6814 141.794 69.9595C142.317 71.242 143.299 72.0363 144.74 72.3426ZM173.008 80.171C171.467 79.8434 170.754 78.8865 170.868 77.3002L170.838 77.2938C169.179 78.6564 167.269 79.108 165.108 78.6485C163.567 78.321 162.391 77.6841 161.58 76.7379C160.77 75.7918 160.526 74.6209 160.848 73.2253C161.014 72.5075 161.267 71.9128 161.606 71.4413C161.971 70.954 162.37 70.5892 162.804 70.3467C163.243 70.0844 163.8 69.8995 164.475 69.7921C165.176 69.6691 165.83 69.6094 166.438 69.6132C167.051 69.597 167.823 69.6148 168.756 69.6667C169.355 69.7103 169.779 69.7378 170.029 69.7489C170.303 69.7444 170.651 69.7349 171.075 69.7203C171.502 69.6857 171.813 69.6157 172.005 69.5102C172.197 69.4046 172.391 69.2471 172.586 69.0377C172.782 68.8282 172.916 68.564 172.99 68.245C173.192 67.3677 173.036 66.6338 172.522 66.0434C172.032 65.4373 171.236 65.0172 170.136 64.7832C167.634 64.2514 166.08 65.1135 165.476 67.3693L163.134 66.8716C163.538 65.305 164.37 64.1539 165.632 63.4181C166.914 62.6865 168.545 62.5314 170.527 62.9525C174.35 63.7651 175.884 65.8063 175.129 69.0761L173.43 76.433C173.274 77.1109 173.273 77.6128 173.429 77.9387C173.605 78.2689 174.029 78.4323 174.702 78.4289L174.792 78.448L174.384 80.2125C173.947 80.2869 173.489 80.2731 173.008 80.171ZM166.076 76.9092C167.577 77.2283 168.837 77.0464 169.856 76.3635C170.879 75.6607 171.51 74.7909 171.75 73.7541L172.357 71.1223C171.511 71.4235 170.242 71.5513 168.552 71.5058C167.924 71.4978 167.431 71.4975 167.072 71.5049C166.718 71.4924 166.3 71.5291 165.818 71.6149C165.341 71.6808 164.969 71.7901 164.703 71.9426C164.437 72.0952 164.185 72.324 163.946 72.6289C163.713 72.9138 163.545 73.2756 163.444 73.7143C163.057 75.389 163.935 76.454 166.076 76.9092ZM184.261 68.2563L184.717 66.2825L186.848 66.7355L187.421 64.2533C187.716 62.9773 188.278 62.1346 189.107 61.7253C189.941 61.296 191.029 61.2238 192.37 61.5089C192.75 61.5897 193.156 61.6969 193.587 61.8303L193.111 63.8939C192.835 63.8144 192.577 63.7491 192.337 63.6981C191.556 63.5321 190.978 63.5348 190.603 63.706C190.227 63.8771 189.968 64.2718 189.826 64.8898L189.28 67.2524L192.162 67.865L191.707 69.8389L188.824 69.2263L185.711 82.714L183.279 82.1971L186.393 68.7094L184.261 68.2563ZM203.872 86.5745L201.441 86.0576L201.931 83.9342L201.871 83.9215C200.268 85.3168 198.516 85.8123 196.614 85.4082C195.013 85.0678 193.846 84.3491 193.112 83.2519C192.383 82.1349 192.203 80.7788 192.571 79.1838L195.043 68.4773L197.475 68.9942L195.017 79.6409C194.786 80.6378 194.907 81.4792 195.379 82.165C195.87 82.8552 196.666 83.3172 197.767 83.5512C198.988 83.8107 200.063 83.6105 200.993 82.9504C201.922 82.2904 202.529 81.3423 202.815 80.1062L205.01 70.596L207.442 71.1129L203.872 86.5745ZM207.851 87.4202L212.788 66.0371L215.22 66.554L210.283 87.9371L207.851 87.4202ZM216.407 75.0892L216.863 73.1153L218.994 73.5684L219.568 71.0862C219.862 69.8102 220.424 68.9675 221.254 68.5581C222.088 68.1289 223.175 68.0567 224.516 68.3418C224.896 68.4226 225.302 68.5298 225.733 68.6632L225.257 70.7268C224.981 70.6473 224.723 70.582 224.483 70.5309C223.702 70.365 223.124 70.3677 222.749 70.5388C222.374 70.71 222.114 71.1046 221.972 71.7227L221.426 74.0853L224.308 74.6979L223.853 76.6718L220.971 76.0591L217.857 89.5469L215.425 89.03L218.539 75.5422L216.407 75.0892ZM222.81 90.5999L226.38 75.1383L228.812 75.6551L225.242 91.1168L222.81 90.5999ZM227.057 72.2074L227.747 69.2168L230.179 69.7337L229.488 72.7243L227.057 72.2074ZM229.223 91.963L234.16 70.5799L236.592 71.0968L231.655 92.4799L229.223 91.963ZM235.746 93.3495L240.683 71.9664L243.115 72.4833L238.178 93.8664L235.746 93.3495ZM242.179 94.7168L245.749 79.2552L248.18 79.7721L244.611 95.2337L242.179 94.7168ZM246.425 76.3244L247.116 73.3337L249.548 73.8506L248.857 76.8413L246.425 76.3244ZM254.527 81.1212L254.058 83.1548L254.118 83.1676C255.687 81.8278 257.512 81.3792 259.594 81.8216C261.235 82.1705 262.417 82.8714 263.14 83.9244C263.863 84.9774 264.04 86.3014 263.672 87.8964L261.165 98.7525L258.734 98.2356L261.192 87.5889C261.422 86.592 261.289 85.7585 260.792 85.0883C260.301 84.3981 259.505 83.9361 258.404 83.7021C257.163 83.4383 256.05 83.6201 255.065 84.2474C254.081 84.8748 253.443 85.8165 253.153 87.0725L250.958 96.5828L248.526 96.0659L252.096 80.6043L254.527 81.1212ZM269.985 106.023C268.003 105.602 266.53 104.892 265.564 103.891C264.613 102.916 264.224 101.735 264.397 100.349L266.649 100.828C266.505 102.45 267.745 103.539 270.367 104.097C273.329 104.726 275.116 103.715 275.728 101.064L276.232 98.8804L276.172 98.8676C275.368 99.5332 274.569 99.991 273.776 100.241C272.984 100.491 272.067 100.505 271.026 100.284C269.025 99.8583 267.559 98.7939 266.63 97.0903C265.7 95.3868 265.493 93.4185 266.009 91.1855C266.547 88.8528 267.606 87.1326 269.185 86.025C270.783 84.9215 272.523 84.5698 274.405 84.9697C276.446 85.4036 277.848 86.5173 278.61 88.3107L278.67 88.3234L279.125 86.3496L281.557 86.8665L278.181 101.491C277.725 103.465 276.772 104.82 275.321 105.558C273.885 106.319 272.106 106.474 269.985 106.023ZM271.616 98.2757C274.758 98.9436 276.771 97.3635 277.655 93.5355C278.498 89.8869 277.338 87.7266 274.175 87.0544C272.754 86.7523 271.546 87.0289 270.551 87.884C269.575 88.7434 268.89 90.0305 268.494 91.7451C268.098 93.4597 268.163 94.9063 268.689 96.0848C269.219 97.2433 270.195 97.9736 271.616 98.2757ZM87.5053 100.1C85.2436 99.6192 83.6018 98.4545 82.5798 96.6058C81.5778 94.7614 81.3438 92.6828 81.8777 90.3701C82.4117 88.0573 83.5387 86.268 85.2587 85.0022C86.9988 83.7406 88.9996 83.3501 91.2613 83.8309C93.0827 84.218 94.461 85.0234 95.3963 86.2471C96.3363 87.4509 96.7553 88.9099 96.6535 90.6243L94.1916 90.1011C94.2555 89.0061 93.9961 88.0829 93.4137 87.3317C92.8312 86.5804 91.9596 86.0814 90.7987 85.8346C89.1975 85.4943 87.8231 85.8087 86.6755 86.7779C85.5479 87.7513 84.7792 89.1253 84.3696 90.8997C83.9599 92.6742 84.0519 94.231 84.6456 95.5704C85.2639 96.894 86.3736 97.726 87.9748 98.0663C89.2157 98.3301 90.2824 98.2117 91.1749 97.7112C92.0719 97.1907 92.7109 96.333 93.0917 95.1381L95.4935 95.6486C94.9053 97.4688 93.9111 98.7739 92.5109 99.5639C91.1153 100.334 89.4468 100.513 87.5053 100.1ZM109.583 104.51C108.042 104.183 107.329 103.226 107.443 101.64L107.413 101.633C105.755 102.996 103.845 103.448 101.683 102.988C100.142 102.66 98.9661 102.024 98.1557 101.077C97.3453 100.131 97.1012 98.9604 97.4234 97.5648C97.5891 96.847 97.8419 96.2523 98.1817 95.7808C98.5462 95.2935 98.9454 94.9287 99.3793 94.6862C99.8178 94.4239 100.375 94.239 101.051 94.1316C101.751 94.0086 102.405 93.9489 103.013 93.9527C103.626 93.9365 104.399 93.9543 105.331 94.0062C105.93 94.0498 106.354 94.0772 106.604 94.0884C106.878 94.0839 107.226 94.0744 107.65 94.0598C108.078 94.0252 108.388 93.9552 108.58 93.8497C108.773 93.7441 108.966 93.5866 109.162 93.3772C109.357 93.1677 109.492 92.9034 109.565 92.5844C109.768 91.7072 109.612 90.9733 109.097 90.3829C108.607 89.7768 107.812 89.3567 106.711 89.1227C104.209 88.5909 102.656 89.453 102.051 91.7088L99.7091 91.2111C100.113 89.6445 100.945 88.4934 102.207 87.7576C103.489 87.026 105.121 86.8709 107.102 87.292C110.925 88.1046 112.459 90.1458 111.704 93.4156L110.005 100.773C109.849 101.45 109.849 101.952 110.004 102.278C110.18 102.608 110.604 102.772 111.277 102.768L111.367 102.788L110.96 104.552C110.523 104.626 110.064 104.613 109.583 104.51ZM102.652 101.249C104.153 101.568 105.412 101.386 106.431 100.703C107.454 100 108.085 99.1304 108.325 98.0936L108.932 95.4618C108.086 95.763 106.818 95.8908 105.127 95.8453C104.499 95.8373 104.006 95.837 103.647 95.8444C103.293 95.8319 102.875 95.8686 102.394 95.9544C101.916 96.0203 101.545 96.1296 101.279 96.2821C101.012 96.4347 100.76 96.6635 100.522 96.9684C100.288 97.2533 100.12 97.6151 100.019 98.0538C99.6325 99.7285 100.51 100.793 102.652 101.249ZM119.335 90.206L118.741 92.778L118.801 92.7907C119.49 92.0796 120.293 91.56 121.209 91.2317C122.129 90.8835 123.079 90.8136 124.06 91.0221C124.42 91.0986 124.737 91.2287 125.009 91.4121L124.471 93.7448L124.381 93.7257C124.104 93.5622 123.755 93.4357 123.334 93.3464C122.094 93.0826 120.931 93.2958 119.848 93.9858C118.77 94.656 118.069 95.6888 117.747 97.0845L115.766 105.668L113.334 105.151L116.903 89.6891L119.335 90.206ZM130.177 109.17C127.875 108.681 126.221 107.524 125.214 105.699C124.233 103.859 124.011 101.773 124.549 99.4402C125.079 97.1474 126.203 95.368 127.923 94.1022C129.668 92.8207 131.621 92.4096 133.783 92.8691C136.065 93.3541 137.642 94.526 138.514 96.3847C139.392 98.2236 139.527 100.459 138.919 103.091L126.91 100.538C126.633 102.194 126.805 103.632 127.426 104.852C128.072 106.056 129.145 106.817 130.646 107.136C132.968 107.63 134.643 106.877 135.671 104.879L138.043 105.383C137.301 106.961 136.243 108.086 134.871 108.756C133.503 109.406 131.938 109.544 130.177 109.17ZM136.28 96.7882C135.702 95.745 134.722 95.0767 133.341 94.7831C131.96 94.4896 130.753 94.7141 129.721 95.4568C128.709 96.2038 127.932 97.2937 127.391 98.7265L136.728 100.711C137.007 99.139 136.858 97.8314 136.28 96.7882ZM146.785 112.7C144.484 112.211 142.83 111.054 141.823 109.23C140.841 107.39 140.619 105.303 141.158 102.97C141.687 100.678 142.812 98.8983 144.532 97.6324C146.277 96.3509 148.23 95.9399 150.391 96.3993C152.673 96.8843 154.25 98.0562 155.123 99.915C156 101.754 156.135 103.989 155.527 106.621L143.518 104.068C143.241 105.724 143.413 107.162 144.034 108.382C144.68 109.586 145.754 110.348 147.255 110.667C149.577 111.16 151.252 110.408 152.28 108.409L154.652 108.913C153.909 110.492 152.852 111.616 151.479 112.286C150.111 112.937 148.547 113.075 146.785 112.7ZM152.888 100.318C152.31 99.2752 151.33 98.6069 149.949 98.3133C148.568 98.0198 147.362 98.2444 146.329 98.9871C145.317 99.734 144.54 100.824 144 102.257L153.337 104.241C153.616 102.669 153.466 101.362 152.888 100.318ZM162.857 99.4569L162.263 102.029L162.323 102.042C163.012 101.33 163.815 100.811 164.73 100.483C165.651 100.134 166.601 100.064 167.582 100.273C167.942 100.35 168.259 100.48 168.531 100.663L167.993 102.996L167.903 102.977C167.625 102.813 167.277 102.687 166.856 102.597C165.615 102.333 164.453 102.547 163.37 103.237C162.292 103.907 161.591 104.94 161.269 106.335L159.287 114.918L156.856 114.402L160.425 98.94L162.857 99.4569ZM180.408 119.878C178.347 119.44 176.906 118.266 176.088 116.356L176.028 116.343L175.558 118.377L173.126 117.86L178.063 96.4769L180.495 96.9938L178.617 105.128L178.677 105.141C180.334 103.695 182.193 103.19 184.254 103.629C186.256 104.054 187.689 105.122 188.554 106.833C189.423 108.523 189.566 110.635 188.981 113.167C188.406 115.659 187.347 117.515 185.806 118.735C184.289 119.94 182.49 120.321 180.408 119.878ZM180.698 117.807C182.139 118.113 183.356 117.796 184.35 116.857C185.348 115.898 186.059 114.501 186.482 112.667C186.901 110.853 186.869 109.309 186.387 108.035C185.908 106.741 184.959 105.943 183.538 105.641C181.916 105.296 180.552 105.613 179.444 106.591C178.341 107.548 177.585 108.915 177.175 110.689C176.757 112.503 176.839 114.058 177.421 115.353C178.004 116.648 179.096 117.466 180.698 117.807ZM190.741 126.969C189.82 126.773 189.115 126.508 188.625 126.174L189.122 124.021L189.242 124.046C189.592 124.351 190.117 124.578 190.818 124.726C191.358 124.841 191.841 124.797 192.265 124.595C192.685 124.412 193.118 123.992 193.564 123.334L194.517 121.936L191.918 105.634L194.56 106.196L196 116.604L196.353 119.848L196.413 119.861C197.041 118.781 197.613 117.846 198.131 117.057L203.897 108.18L206.479 108.729L195.985 124.036C195.034 125.424 194.179 126.309 193.419 126.691C192.654 127.093 191.762 127.186 190.741 126.969ZM214.001 126.548L212.647 110.04L215.259 110.595L215.788 120.716L215.863 124.214L215.923 124.227C216.536 122.935 217.047 121.904 217.456 121.133L222.284 112.088L224.836 112.631L225.142 122.767L225.14 126.186L225.2 126.199C225.833 124.911 226.378 123.866 226.837 123.064L231.921 114.137L234.443 114.673L225.8 129.056L223.308 128.526L222.887 118.617L222.882 115.228L222.822 115.215C222.243 116.451 221.734 117.472 221.296 118.279L216.523 127.084L214.001 126.548ZM245.474 131.23C243.754 132.496 241.763 132.889 239.502 132.408C237.24 131.927 235.598 130.762 234.576 128.914C233.574 127.069 233.34 124.991 233.874 122.678C234.408 120.365 235.535 118.576 237.255 117.31C238.995 116.048 240.996 115.658 243.258 116.139C245.519 116.619 247.151 117.782 248.153 119.626C249.155 121.471 249.389 123.549 248.855 125.862C248.321 128.175 247.194 129.964 245.474 131.23ZM236.642 127.878C237.26 129.202 238.37 130.034 239.971 130.374C241.572 130.714 242.934 130.408 244.057 129.454C245.185 128.481 245.954 127.107 246.363 125.333C246.778 123.538 246.676 121.979 246.057 120.656C245.464 119.316 244.376 118.479 242.795 118.142C241.194 117.802 239.819 118.117 238.672 119.086C237.544 120.059 236.776 121.433 236.366 123.208C235.956 124.982 236.048 126.539 236.642 127.878ZM256.101 119.276L255.507 121.848L255.567 121.861C256.256 121.15 257.059 120.63 257.974 120.302C258.895 119.954 259.845 119.884 260.826 120.093C261.186 120.169 261.503 120.299 261.775 120.483L261.237 122.815L261.147 122.796C260.869 122.633 260.521 122.506 260.1 122.417C258.859 122.153 257.697 122.366 256.614 123.056C255.536 123.726 254.835 124.759 254.513 126.155L252.531 134.738L250.1 134.221L253.669 118.76L256.101 119.276ZM271.198 138.706L267.631 129.194L264.852 130.862L263.423 137.053L260.991 136.536L265.928 115.153L268.359 115.67L265.466 128.201L273.807 123.04L276.9 123.697L269.671 127.996L274.051 139.312L271.198 138.706ZM74.767 120.624L75.2227 118.65L77.4744 119.129L78.5998 114.254L81.0316 114.771L79.9062 119.646L82.9084 120.284L82.4527 122.258L79.4505 121.62L77.1306 131.668C76.9097 132.625 77.3196 133.214 78.3604 133.436C78.8007 133.529 79.2471 133.551 79.6996 133.501L79.7897 133.52L79.3064 135.613C78.6137 135.613 77.9471 135.544 77.3066 135.408C75.0249 134.923 74.1142 133.684 74.5745 131.69L77.0187 121.103L74.767 120.624ZM89.8188 115.541L87.9823 123.496L88.0423 123.509C89.6114 122.169 91.4368 121.72 93.5183 122.163C95.1596 122.512 96.3415 123.213 97.0643 124.266C97.7871 125.319 97.9643 126.643 97.5961 128.238L95.0898 139.094L92.658 138.577L95.1159 127.93C95.3461 126.933 95.2131 126.1 94.7169 125.429C94.2253 124.739 93.4291 124.277 92.3283 124.043C91.0874 123.78 89.9745 123.961 88.9898 124.589C88.0051 125.216 87.3678 126.158 87.0778 127.414L84.8822 136.924L82.4504 136.407L87.387 115.024L89.8188 115.541ZM111.067 142.647C109.526 142.319 108.812 141.362 108.926 139.776L108.896 139.769C107.238 141.132 105.328 141.584 103.166 141.124C101.625 140.797 100.449 140.16 99.639 139.214C98.8286 138.267 98.5845 137.097 98.9067 135.701C99.0724 134.983 99.3252 134.388 99.665 133.917C100.03 133.43 100.429 133.065 100.863 132.822C101.301 132.56 101.858 132.375 102.534 132.268C103.234 132.145 103.888 132.085 104.496 132.089C105.109 132.073 105.882 132.09 106.815 132.142C107.414 132.186 107.838 132.213 108.087 132.225C108.361 132.22 108.71 132.21 109.133 132.196C109.561 132.161 109.871 132.091 110.063 131.986C110.256 131.88 110.45 131.723 110.645 131.513C110.84 131.304 110.975 131.04 111.048 130.721C111.251 129.843 111.095 129.109 110.58 128.519C110.09 127.913 109.295 127.493 108.194 127.259C105.692 126.727 104.139 127.589 103.534 129.845L101.192 129.347C101.596 127.781 102.429 126.629 103.691 125.894C104.972 125.162 106.604 125.007 108.585 125.428C112.408 126.241 113.942 128.282 113.187 131.552L111.489 138.909C111.332 139.587 111.332 140.088 111.488 140.414C111.663 140.745 112.088 140.908 112.76 140.904L112.85 140.924L112.443 142.688C112.006 142.763 111.547 142.749 111.067 142.647ZM104.135 139.385C105.636 139.704 106.896 139.522 107.914 138.839C108.937 138.136 109.569 137.266 109.808 136.23L110.416 133.598C109.569 133.899 108.301 134.027 106.611 133.981C105.983 133.973 105.489 133.973 105.131 133.981C104.777 133.968 104.359 134.005 103.877 134.091C103.4 134.156 103.028 134.266 102.762 134.418C102.496 134.571 102.243 134.8 102.005 135.104C101.771 135.389 101.604 135.751 101.502 136.19C101.116 137.865 101.993 138.93 104.135 139.385ZM116.647 129.526L117.103 127.552L119.354 128.031L120.48 123.156L122.912 123.673L121.786 128.548L124.788 129.186L124.333 131.16L121.33 130.522L119.011 140.57C118.79 141.527 119.2 142.116 120.24 142.338C120.681 142.431 121.127 142.453 121.58 142.403L121.67 142.422L121.186 144.515C120.494 144.514 119.827 144.446 119.187 144.31C116.905 143.825 115.994 142.585 116.455 140.592L118.899 130.005L116.647 129.526Z" fill="#FAFAFA"/>
<path d="M129.38 146.382L132.921 131.04L136.854 131.876L136.378 133.94L136.468 133.959C137.831 132.513 139.513 132.002 141.514 132.427C142.475 132.632 143.268 133.062 143.894 133.718C144.544 134.358 144.965 135.127 145.156 136.025L145.216 136.038C146.751 134.482 148.5 133.912 150.461 134.329C152.062 134.669 153.19 135.422 153.846 136.586C154.525 137.734 154.67 139.156 154.278 140.851L151.896 151.168L147.813 150.3L150.036 140.671C150.442 138.916 149.853 137.871 148.272 137.535C147.412 137.352 146.66 137.516 146.017 138.028C145.398 138.524 144.972 139.28 144.737 140.297L142.679 149.209L138.596 148.341L140.82 138.711C141.225 136.957 140.637 135.912 139.055 135.576C138.235 135.401 137.493 135.568 136.83 136.075C136.191 136.567 135.755 137.321 135.52 138.338L133.463 147.25L129.38 146.382ZM164.715 153.893C164.575 153.591 164.546 152.989 164.629 152.086L164.568 152.074C163.976 152.638 163.298 153.027 162.535 153.241C161.772 153.456 160.78 153.433 159.559 153.173C157.938 152.829 156.731 152.144 155.939 151.118C155.147 150.092 154.923 148.831 155.269 147.336C155.628 145.781 156.431 144.759 157.677 144.271C158.928 143.763 160.567 143.578 162.593 143.716C164.08 143.823 165.106 143.832 165.673 143.743C166.244 143.634 166.591 143.311 166.716 142.773C166.845 142.214 166.726 141.729 166.359 141.316C165.997 140.884 165.396 140.578 164.555 140.4C162.694 140.004 161.537 140.511 161.086 141.921L157.453 141.149C157.849 139.706 158.718 138.625 160.06 137.907C161.402 137.188 163.133 137.054 165.255 137.505C169.578 138.424 171.305 140.768 170.435 144.536L168.633 152.341C168.366 153.498 168.382 154.244 168.683 154.58L168.648 154.729L164.715 153.893ZM161.205 150.543C162.326 150.781 163.274 150.679 164.048 150.237C164.842 149.799 165.331 149.182 165.515 148.384L166.046 146.081C165.546 146.247 164.526 146.344 162.987 146.372C161.766 146.385 160.877 146.51 160.318 146.746C159.764 146.963 159.409 147.411 159.252 148.089C158.953 149.384 159.604 150.203 161.205 150.543ZM181.452 157.45L178.744 149.533L176.552 150.981L175.357 156.155L171.304 155.294L176.241 133.91L180.294 134.772L177.56 146.615L184.363 141.974L189.257 143.015L182.236 147.64L186.405 158.503L181.452 157.45ZM194.37 160.667C191.888 160.139 190.112 158.967 189.04 157.15C187.974 155.312 187.714 153.208 188.262 150.835C188.791 148.542 189.944 146.779 191.719 145.546C193.499 144.293 195.5 143.903 197.722 144.375C200.144 144.89 201.822 146.125 202.756 148.08C203.69 150.036 203.833 152.419 203.184 155.23L192.016 152.856C191.895 154.107 192.087 155.141 192.591 155.959C193.099 156.758 193.924 157.278 195.065 157.52C196.566 157.839 197.702 157.422 198.472 156.268L202.495 157.123C201.864 158.495 200.827 159.529 199.385 160.227C197.943 160.924 196.271 161.071 194.37 160.667ZM197.057 147.528C195.076 147.106 193.631 147.95 192.725 150.058L199.57 151.513C199.735 150.523 199.587 149.666 199.125 148.94C198.667 148.194 197.978 147.723 197.057 147.528ZM210.31 164.055C208.109 163.587 206.498 162.743 205.478 161.522C204.462 160.281 204.088 158.811 204.355 157.111L208.137 157.915C208.006 159.665 208.932 160.75 210.913 161.171C211.814 161.363 212.541 161.35 213.095 161.133C213.669 160.921 214.018 160.545 214.142 160.007C214.189 159.807 214.19 159.619 214.147 159.443C214.123 159.271 214.036 159.106 213.883 158.948C213.755 158.774 213.63 158.632 213.509 158.523C213.407 158.418 213.205 158.291 212.903 158.143C212.602 157.996 212.365 157.883 212.194 157.804C212.043 157.73 211.765 157.619 211.358 157.47C210.976 157.305 210.71 157.186 210.559 157.112C209.755 156.773 209.101 156.467 208.598 156.193C208.119 155.903 207.626 155.537 207.119 155.094C206.617 154.632 206.28 154.09 206.109 153.468C205.962 152.83 205.981 152.112 206.165 151.315C206.533 149.72 207.395 148.627 208.749 148.036C210.123 147.45 211.731 147.352 213.572 147.744C215.554 148.165 216.999 148.953 217.908 150.109C218.842 151.248 219.207 152.623 219.003 154.232L215.311 153.447C215.496 151.918 214.677 150.959 212.856 150.572C212.036 150.398 211.351 150.409 210.801 150.606C210.272 150.807 209.945 151.177 209.821 151.715C209.779 151.895 209.77 152.071 209.793 152.243C209.841 152.399 209.931 152.554 210.064 152.708C210.221 152.846 210.37 152.972 210.512 153.086C210.658 153.18 210.872 153.298 211.154 153.442C211.441 153.566 211.687 153.681 211.893 153.787C212.104 153.874 212.391 153.998 212.753 154.158C213.119 154.299 213.408 154.412 213.619 154.499C214.227 154.775 214.718 155.015 215.09 155.22C215.487 155.409 215.926 155.69 216.407 156.064C216.892 156.418 217.248 156.787 217.475 157.17C217.726 157.537 217.899 158.013 217.995 158.598C218.116 159.168 218.095 159.801 217.934 160.499C217.584 162.014 216.706 163.093 215.298 163.735C213.914 164.361 212.252 164.468 210.31 164.055ZM234.681 168.765C234.541 168.463 234.512 167.861 234.595 166.958L234.535 166.945C233.942 167.51 233.265 167.899 232.501 168.113C231.738 168.327 230.746 168.305 229.525 168.045C227.904 167.701 226.697 167.015 225.905 165.989C225.113 164.964 224.89 163.703 225.235 162.208C225.594 160.653 226.397 159.631 227.643 159.143C228.894 158.635 230.533 158.45 232.559 158.588C234.046 158.695 235.073 158.704 235.639 158.615C236.21 158.506 236.558 158.183 236.682 157.644C236.811 157.086 236.692 156.601 236.325 156.188C235.963 155.756 235.362 155.45 234.521 155.271C232.66 154.876 231.503 155.383 231.052 156.793L227.419 156.021C227.815 154.578 228.684 153.497 230.026 152.778C231.368 152.06 233.099 151.926 235.221 152.377C239.544 153.296 241.271 155.639 240.401 159.407L238.599 167.213C238.332 168.369 238.348 169.115 238.649 169.451L238.614 169.601L234.681 168.765ZM231.172 165.415C232.292 165.653 233.24 165.551 234.014 165.109C234.808 164.671 235.297 164.054 235.481 163.256L236.012 160.953C235.512 161.119 234.493 161.216 232.953 161.244C231.733 161.257 230.843 161.381 230.284 161.618C229.73 161.835 229.375 162.282 229.219 162.96C228.919 164.256 229.57 165.074 231.172 165.415ZM69.6511 171.978C67.7097 171.565 66.3065 170.504 65.4416 168.793C64.5814 167.062 64.4366 164.961 65.0074 162.489C65.5597 160.096 66.619 158.282 68.1851 157.046C69.7759 155.795 71.532 155.373 73.4534 155.781C75.3748 156.19 76.651 157.256 77.2819 158.98L77.372 158.999L79.1947 151.104L83.2778 151.971L78.3411 173.354L74.4082 172.519L74.8708 170.515L74.8107 170.502C73.4325 171.924 71.7127 172.416 69.6511 171.978ZM71.3389 168.76C72.5398 169.015 73.5448 168.8 74.354 168.115C75.1832 167.433 75.7635 166.375 76.0949 164.939C76.8498 161.67 76.0364 159.782 73.6546 159.275C72.5538 159.041 71.6119 159.301 70.8289 160.055C70.046 160.809 69.4865 161.914 69.1505 163.369C68.8052 164.865 68.8185 166.08 69.1902 167.017C69.5819 167.958 70.2981 168.539 71.3389 168.76ZM81.5957 174.046L85.1377 158.704L89.2207 159.572L85.6787 174.914L81.5957 174.046ZM85.69 156.312L86.5324 152.663L90.6154 153.531L89.7731 157.18L85.69 156.312ZM90.9024 162.879L91.5514 160.068L93.653 160.514L93.943 159.258C94.3573 157.464 95.2623 156.318 96.6581 155.819C98.074 155.326 99.7573 155.401 101.708 156.046L100.983 159.186C100.052 158.946 99.3605 158.893 98.9096 159.028C98.4586 159.162 98.1457 159.608 97.9708 160.365L97.736 161.382L102.329 162.359L102.647 160.983C103.061 159.188 103.976 158.044 105.392 157.55C106.808 157.057 108.531 157.141 110.562 157.802L109.837 160.942C108.826 160.686 108.085 160.622 107.614 160.752C107.163 160.886 106.85 161.332 106.675 162.09L106.412 163.226L109.175 163.813L108.526 166.625L105.763 166.038L102.871 178.568L98.7875 177.701L101.68 165.17L97.087 164.193L94.1941 176.724L90.111 175.856L93.004 163.325L90.9024 162.879ZM114.791 181.573C112.309 181.045 110.532 179.873 109.461 178.055C108.394 176.218 108.135 174.113 108.683 171.741C109.212 169.448 110.364 167.685 112.14 166.452C113.92 165.199 115.921 164.808 118.143 165.28C120.564 165.795 122.242 167.03 123.177 168.986C124.111 170.941 124.254 173.325 123.605 176.136L112.436 173.762C112.316 175.012 112.507 176.047 113.011 176.865C113.52 177.663 114.345 178.184 115.486 178.426C116.987 178.745 118.122 178.328 118.893 177.174L122.916 178.029C122.284 179.401 121.247 180.435 119.806 181.133C118.364 181.83 116.692 181.977 114.791 181.573ZM117.478 168.433C115.496 168.012 114.052 168.856 113.146 170.964L119.991 172.419C120.156 171.429 120.008 170.571 119.545 169.845C119.088 169.1 118.398 168.629 117.478 168.433ZM132.065 168.679L131.499 171.131L131.589 171.15C132.276 170.355 132.958 169.81 133.635 169.515C134.317 169.2 135.098 169.136 135.979 169.323C136.399 169.412 136.71 169.52 136.912 169.647L136.09 173.205L136 173.186C134.652 172.753 133.472 172.816 132.461 173.375C131.45 173.934 130.763 175.001 130.399 176.576L128.673 184.053L124.59 183.185L128.132 167.843L132.065 168.679ZM142.408 187.443C139.926 186.915 138.149 185.743 137.078 183.926C136.011 182.088 135.752 179.983 136.3 177.611C136.829 175.318 137.982 173.555 139.757 172.322C141.537 171.069 143.538 170.678 145.76 171.151C148.181 171.665 149.859 172.901 150.794 174.856C151.728 176.812 151.871 179.195 151.222 182.006L140.053 179.632C139.933 180.883 140.124 181.917 140.628 182.735C141.137 183.533 141.962 184.054 143.103 184.296C144.604 184.615 145.74 184.198 146.51 183.044L150.533 183.899C149.901 185.271 148.864 186.305 147.423 187.003C145.981 187.7 144.309 187.847 142.408 187.443ZM145.095 174.304C143.113 173.882 141.669 174.726 140.763 176.834L147.608 178.289C147.773 177.299 147.625 176.441 147.162 175.716C146.705 174.97 146.015 174.499 145.095 174.304ZM159.742 174.562L159.258 176.655L159.349 176.674C160.796 175.225 162.51 174.711 164.492 175.132C166.073 175.468 167.23 176.279 167.962 177.564C168.699 178.829 168.871 180.309 168.48 182.004L166.167 192.023L162.084 191.155L164.259 181.734C164.452 180.897 164.369 180.168 164.008 179.547C163.667 178.931 163.077 178.534 162.236 178.355C161.335 178.164 160.509 178.333 159.757 178.863C159.024 179.398 158.538 180.183 158.299 181.22L156.29 189.923L152.207 189.055L155.749 173.713L159.742 174.562ZM176.326 194.652C173.944 194.146 172.21 192.972 171.124 191.131C170.037 189.289 169.763 187.202 170.301 184.87C170.84 182.537 171.987 180.752 173.742 179.514C175.518 178.281 177.556 177.909 179.858 178.399C181.8 178.811 183.263 179.656 184.25 180.932C185.236 182.208 185.671 183.734 185.555 185.508L181.562 184.659C181.583 183.931 181.394 183.295 180.995 182.75C180.596 182.205 180.026 181.854 179.286 181.697C178.085 181.441 177.065 181.674 176.227 182.395C175.388 183.117 174.794 184.235 174.444 185.75C174.099 187.245 174.136 188.498 174.554 189.507C174.976 190.496 175.788 191.118 176.989 191.374C178.77 191.752 180.001 191.104 180.682 189.429L184.615 190.265C184.083 191.93 183.068 193.189 181.57 194.041C180.075 194.874 178.328 195.078 176.326 194.652ZM192.878 198.171C190.396 197.643 188.62 196.471 187.548 194.653C186.482 192.816 186.222 190.711 186.77 188.339C187.299 186.046 188.452 184.283 190.227 183.05C192.007 181.797 194.008 181.406 196.23 181.878C198.652 182.393 200.33 183.628 201.264 185.584C202.199 187.539 202.341 189.923 201.692 192.734L190.524 190.36C190.403 191.61 190.595 192.645 191.099 193.463C191.607 194.261 192.432 194.782 193.573 195.024C195.074 195.343 196.21 194.926 196.98 193.772L201.003 194.627C200.372 195.999 199.335 197.033 197.893 197.731C196.451 198.428 194.78 198.575 192.878 198.171ZM195.565 185.031C193.584 184.61 192.14 185.454 191.233 187.562L198.078 189.017C198.244 188.027 198.095 187.169 197.633 186.443C197.175 185.698 196.486 185.227 195.565 185.031ZM62.799 208.342C60.3172 207.815 58.5407 206.642 57.4694 204.825C56.4028 202.988 56.1434 200.883 56.6911 198.51C57.2204 196.218 58.3729 194.455 60.1483 193.221C61.9284 191.968 63.9293 191.578 66.151 192.05C68.5728 192.565 70.2508 193.8 71.1852 195.756C72.1195 197.711 72.2622 200.095 71.6131 202.906L60.4448 200.532C60.3242 201.782 60.5158 202.816 61.0198 203.635C61.5284 204.433 62.3531 204.953 63.494 205.196C64.9951 205.515 66.1308 205.097 66.9012 203.943L70.9242 204.799C70.2925 206.17 69.2558 207.205 67.8139 207.902C66.3721 208.6 64.7005 208.747 62.799 208.342ZM65.486 195.203C63.5046 194.782 62.0605 195.625 61.1539 197.733L67.999 199.188C68.1645 198.199 68.0161 197.341 67.5537 196.615C67.0959 195.869 66.4067 195.399 65.486 195.203ZM76.388 210.76L74.586 194.282L78.7291 195.163L79.3544 203.641L79.4787 206.24L79.5388 206.253C79.8308 205.625 80.2397 204.854 80.7654 203.941L85.1239 196.522L89.2069 197.39L80.2909 211.59L76.388 210.76ZM94.3448 215.048C91.8629 214.52 90.0864 213.348 89.0152 211.53C87.9485 209.693 87.6891 207.588 88.2368 205.216C88.7662 202.923 89.9186 201.16 91.6941 199.927C93.4742 198.674 95.475 198.283 97.6967 198.755C100.119 199.27 101.797 200.505 102.731 202.461C103.665 204.416 103.808 206.8 103.159 209.611L91.9906 207.237C91.8699 208.487 92.0616 209.522 92.5656 210.34C93.0742 211.138 93.8989 211.659 95.0397 211.901C96.5408 212.22 97.6766 211.803 98.4469 210.649L102.47 211.504C101.838 212.876 100.802 213.91 99.3597 214.608C97.9178 215.305 96.2462 215.452 94.3448 215.048ZM97.0318 201.908C95.0503 201.487 93.6063 202.331 92.6996 204.439L99.5447 205.894C99.7102 204.904 99.5618 204.046 99.0994 203.32C98.6417 202.575 97.9525 202.104 97.0318 201.908ZM111.619 202.154L111.053 204.606L111.143 204.625C111.83 203.83 112.513 203.285 113.19 202.99C113.871 202.674 114.652 202.61 115.533 202.798C115.953 202.887 116.264 202.995 116.466 203.121L115.645 206.68L115.555 206.661C114.206 206.228 113.026 206.291 112.015 206.85C111.004 207.409 110.317 208.476 109.953 210.051L108.227 217.528L104.144 216.66L107.686 201.318L111.619 202.154ZM114.587 224.15L115.325 220.95L116.767 221.257C118.288 221.58 119.209 221.044 119.532 219.648C119.688 218.97 119.618 217.502 119.32 215.242L117.697 203.446L121.991 204.358L122.677 211.752L122.895 215.312L122.955 215.325C123.534 214.088 124.092 213.036 124.629 212.167L128.385 205.718L132.498 206.592L123.493 221.18C122.487 222.807 121.528 223.869 120.616 224.365C119.719 224.886 118.51 224.984 116.988 224.661L114.587 224.15ZM53.0048 244.081C51.0633 243.669 49.6602 242.607 48.7953 240.896C47.935 239.166 47.7902 237.064 48.361 234.592C48.9134 232.199 49.9726 230.385 51.5387 229.149C53.1295 227.898 54.8856 227.476 56.807 227.885C58.7284 228.293 60.0046 229.359 60.6355 231.083L60.7256 231.102L62.5483 223.207L66.6314 224.075L61.6947 245.458L57.7618 244.622L58.2244 242.618L58.1643 242.605C56.7862 244.028 55.0663 244.52 53.0048 244.081ZM54.6925 240.863C55.8934 241.119 56.8985 240.904 57.7076 240.218C58.5368 239.537 59.1172 238.478 59.4486 237.043C60.2035 233.773 59.39 231.885 57.0082 231.379C55.9074 231.145 54.9655 231.405 54.1826 232.159C53.3996 232.913 52.8401 234.017 52.5041 235.473C52.1589 236.968 52.1721 238.184 52.5438 239.12C52.9355 240.061 53.6518 240.642 54.6925 240.863ZM74.6465 248.211C74.5062 247.909 74.4773 247.307 74.5597 246.404L74.4997 246.391C73.9075 246.956 73.2297 247.345 72.4663 247.559C71.703 247.773 70.7108 247.751 69.4899 247.491C67.8687 247.147 66.6621 246.461 65.8701 245.436C65.0781 244.41 64.8547 243.149 65.1999 241.654C65.5589 240.099 66.3617 239.077 67.6082 238.589C68.8593 238.081 70.4978 237.896 72.5237 238.034C74.0108 238.141 75.0376 238.15 75.604 238.061C76.175 237.952 76.5227 237.629 76.647 237.09C76.7759 236.532 76.657 236.047 76.2903 235.634C75.9282 235.202 75.3268 234.896 74.4862 234.717C72.6248 234.322 71.4684 234.829 71.0169 236.239L67.3842 235.467C67.7802 234.024 68.6492 232.943 69.9909 232.225C71.3327 231.506 73.0644 231.372 75.186 231.823C79.5092 232.742 81.2358 235.085 80.3659 238.854L78.5638 246.659C78.2968 247.815 78.3136 248.562 78.614 248.897L78.5795 249.047L74.6465 248.211ZM71.1366 244.861C72.2574 245.099 73.2048 244.997 73.9788 244.555C74.7727 244.117 75.2618 243.5 75.4459 242.702L75.9776 240.399C75.4774 240.565 74.4576 240.662 72.9183 240.69C71.6976 240.703 70.8079 240.827 70.2493 241.064C69.6953 241.281 69.3401 241.728 69.1836 242.406C68.8844 243.702 69.5354 244.52 71.1366 244.861ZM80.259 254.675L80.9978 251.475L82.4388 251.781C83.96 252.104 84.8816 251.568 85.2038 250.173C85.3603 249.495 85.29 248.026 84.9927 245.767L83.3697 233.97L87.6629 234.883L88.3497 242.276L88.5671 245.836L88.6272 245.849C89.2066 244.613 89.7646 243.56 90.3011 242.691L94.0577 236.242L98.1707 237.116L89.165 251.705C88.1595 253.332 87.2005 254.393 86.288 254.889C85.391 255.41 84.1819 255.509 82.6608 255.185L80.259 254.675ZM94.7303 252.48L95.7315 248.143L100.115 249.075L99.1136 253.412L94.7303 252.48Z" fill="#32FF92"/>
<defs>
<filter id="filter0_f_2307_1261" x="17.6165" y="97.4658" width="468.792" height="355.846" filterUnits="userSpaceOnUse" color-interpolation-filters="sRGB">
<feFlood flood-opacity="0" result="BackgroundImageFix"/>
<feBlend mode="normal" in="SourceGraphic" in2="BackgroundImageFix" result="shape"/>
<feGaussianBlur stdDeviation="4" result="effect1_foregroundBlur_2307_1261"/>
</filter>
<filter id="filter1_n_2307_1261" x="-6.43274" y="197.744" width="326.839" height="203.531" filterUnits="userSpaceOnUse" color-interpolation-filters="sRGB">
<feFlood flood-opacity="0" result="BackgroundImageFix"/>
<feBlend mode="normal" in="SourceGraphic" in2="BackgroundImageFix" result="shape"/>
<feTurbulence type="fractalNoise" baseFrequency="1 1" stitchTiles="stitch" numOctaves="3" result="noise" seed="1706" />
<feColorMatrix in="noise" type="luminanceToAlpha" result="alphaNoise" />
<feComponentTransfer in="alphaNoise" result="coloredNoise1">
<feFuncA type="discrete" tableValues="1 1 1 1 1 1 1 1 1 1 1 1 1 1 1 1 1 1 1 1 1 1 1 1 1 1 1 1 1 1 1 1 1 1 1 1 1 1 1 1 1 1 1 1 1 1 1 1 1 1 1 0 0 0 0 0 0 0 0 0 0 0 0 0 0 0 0 0 0 0 0 0 0 0 0 0 0 0 0 0 0 0 0 0 0 0 0 0 0 0 0 0 0 0 0 0 0 0 0 0 "/>
</feComponentTransfer>
<feComposite operator="in" in2="shape" in="coloredNoise1" result="noise1Clipped" />
<feFlood flood-color="rgba(0, 0, 0, 0.05)" result="color1Flood" />
<feComposite operator="in" in2="noise1Clipped" in="color1Flood" result="color1" />
<feMerge result="effect1_noise_2307_1261">
<feMergeNode in="shape" />
<feMergeNode in="color1" />
</feMerge>
</filter>
<filter id="filter2_n_2307_1261" x="238.939" y="53.2207" width="109.876" height="335.988" filterUnits="userSpaceOnUse" color-interpolation-filters="sRGB">
<feFlood flood-opacity="0" result="BackgroundImageFix"/>
<feBlend mode="normal" in="SourceGraphic" in2="BackgroundImageFix" result="shape"/>
<feTurbulence type="fractalNoise" baseFrequency="1 1" stitchTiles="stitch" numOctaves="3" result="noise" seed="1706" />
<feColorMatrix in="noise" type="luminanceToAlpha" result="alphaNoise" />
<feComponentTransfer in="alphaNoise" result="coloredNoise1">
<feFuncA type="discrete" tableValues="1 1 1 1 1 1 1 1 1 1 1 1 1 1 1 1 1 1 1 1 1 1 1 1 1 1 1 1 1 1 1 1 1 1 1 1 1 1 1 1 1 1 1 1 1 1 1 1 1 1 1 0 0 0 0 0 0 0 0 0 0 0 0 0 0 0 0 0 0 0 0 0 0 0 0 0 0 0 0 0 0 0 0 0 0 0 0 0 0 0 0 0 0 0 0 0 0 0 0 0 "/>
</feComponentTransfer>
<feComposite operator="in" in2="shape" in="coloredNoise1" result="noise1Clipped" />
<feFlood flood-color="rgba(0, 0, 0, 0.05)" result="color1Flood" />
<feComposite operator="in" in2="noise1Clipped" in="color1Flood" result="color1" />
<feMerge result="effect1_noise_2307_1261">
<feMergeNode in="shape" />
<feMergeNode in="color1" />
</feMerge>
</filter>
<filter id="filter3_n_2307_1261" x="0" y="0" width="338.152" height="353.849" filterUnits="userSpaceOnUse" color-interpolation-filters="sRGB">
<feFlood flood-opacity="0" result="BackgroundImageFix"/>
<feBlend mode="normal" in="SourceGraphic" in2="BackgroundImageFix" result="shape"/>
<feTurbulence type="fractalNoise" baseFrequency="1 1" stitchTiles="stitch" numOctaves="3" result="noise" seed="1706" />
<feColorMatrix in="noise" type="luminanceToAlpha" result="alphaNoise" />
<feComponentTransfer in="alphaNoise" result="coloredNoise1">
<feFuncA type="discrete" tableValues="1 1 1 1 1 1 1 1 1 1 1 1 1 1 1 1 1 1 1 1 1 1 1 1 1 1 1 1 1 1 1 1 1 1 1 1 1 1 1 1 1 1 1 1 1 1 1 1 1 1 1 0 0 0 0 0 0 0 0 0 0 0 0 0 0 0 0 0 0 0 0 0 0 0 0 0 0 0 0 0 0 0 0 0 0 0 0 0 0 0 0 0 0 0 0 0 0 0 0 0 "/>
</feComponentTransfer>
<feComposite operator="in" in2="shape" in="coloredNoise1" result="noise1Clipped" />
<feFlood flood-color="rgba(0, 0, 0, 0.05)" result="color1Flood" />
<feComposite operator="in" in2="noise1Clipped" in="color1Flood" result="color1" />
<feMerge result="effect1_noise_2307_1261">
<feMergeNode in="shape" />
<feMergeNode in="color1" />
</feMerge>
</filter>
<linearGradient id="paint0_linear_2307_1261" x1="-3.31044" y1="292.179" x2="286.043" y2="294.562" gradientUnits="userSpaceOnUse">
<stop stop-color="#0362A6"/>
<stop offset="1" stop-color="#32FF92"/>
</linearGradient>
<linearGradient id="paint1_linear_2307_1261" x1="144.998" y1="315.481" x2="377.556" y2="122.477" gradientUnits="userSpaceOnUse">
<stop stop-color="#32FF92"/>
<stop offset="1" stop-color="#0362A6"/>
</linearGradient>
<linearGradient id="paint2_linear_2307_1261" x1="0.421221" y1="190.687" x2="343.281" y2="190.687" gradientUnits="userSpaceOnUse">
<stop stop-color="#0A7FD2"/>
<stop offset="1" stop-color="#32FF92"/>
</linearGradient>
</defs>
</svg>
