<svg width="1203" height="604" viewBox="0 0 1203 604" fill="none" xmlns="http://www.w3.org/2000/svg">
<g filter="url(#filter0_f_2307_1178)">
<path d="M74.6255 382.499L25.6165 333.739L346.727 105.466L1182.69 276.456L1194.29 269.621L1129.39 590.883L1118.36 595.97L74.6255 382.499Z" fill="#001524" fill-opacity="0.3"/>
</g>
<mask id="mask0_2307_1178" style="mask-type:alpha" maskUnits="userSpaceOnUse" x="0" y="55" width="347" height="332">
<path d="M214.558 264.716L0.0117188 298.743L25.6233 333.746L282.373 386.301C309.532 274.307 319.809 216.518 346.969 104.524L338.049 55.0967L214.558 264.716Z" fill="#D9D9D9"/>
</mask>
<g mask="url(#mask0_2307_1178)">
<g filter="url(#filter1_n_2307_1178)">
<path d="M24.0972 342.286L286.054 401.276L320.406 255.032L16.915 197.745L-6.43262 297.734L24.0972 342.286Z" fill="url(#paint0_linear_2307_1178)"/>
</g>
<g filter="url(#filter2_n_2307_1178)">
<path d="M283.583 389.209L269.483 353.714L238.938 126.747L339.298 53.2207L348.815 105.771L283.583 389.209Z" fill="url(#paint1_linear_2307_1178)"/>
</g>
</g>
<g filter="url(#filter3_n_2307_1178)">
<path d="M338.152 55.1064L68.6007 0L0 298.755L269.574 353.849L338.152 55.1064Z" fill="url(#paint2_linear_2307_1178)"/>
</g>
<path fill-rule="evenodd" clip-rule="evenodd" d="M208.749 305.085C208.022 304.774 207.273 304.529 206.501 304.349C207.574 303.291 208.278 301.915 208.508 300.425C208.737 298.935 208.481 297.411 207.776 296.078C207.462 295.305 206.998 294.602 206.411 294.008C205.825 293.415 205.126 292.944 204.356 292.622C203.587 292.3 202.761 292.133 201.926 292.131C201.092 292.129 200.265 292.292 199.494 292.611C196.872 293.849 194.01 294.489 191.109 294.49C188.211 294.478 185.328 294.081 182.536 293.307C181.121 292.267 179.848 291.256 179.001 290.48L179.218 290.089C179.304 289.64 179.444 289.203 179.633 288.787C180.619 286.716 181.335 284.526 181.764 282.272C181.816 281.55 181.716 280.825 181.471 280.143C181.226 279.462 180.841 278.84 180.34 278.317C179.872 277.48 179.147 276.815 178.272 276.423C177.397 276.03 176.419 275.929 175.483 276.135C173.889 276.707 172.47 277.682 171.364 278.959C170.744 279.856 169.901 280.584 168.919 281.066C168.008 281.235 167.074 281.237 166.163 281.071C164.002 280.741 161.68 279.964 159.736 279.602C159.264 278.701 158.923 277.738 158.722 276.741C159.758 275.886 162.234 275.011 163.056 274.451L163.693 274.038C163.82 273.871 163.922 273.686 163.997 273.491C164.752 272.127 164.244 271.386 163.602 270.979C162.257 270.209 160.819 269.618 159.322 269.219C155.954 268.118 152.165 267.499 149.192 266.515C148.881 266.417 148.545 266.44 148.251 266.579C147.956 266.717 147.725 266.962 147.602 267.263C147.493 267.574 147.51 267.916 147.651 268.214C147.792 268.512 148.045 268.742 148.355 268.855C151.349 269.902 155 270.853 158.238 272.188L159.175 272.708C157.883 273.473 156.409 274.29 155.709 274.816C155.326 275.069 155.011 275.411 154.788 275.812C154.566 276.214 154.444 276.662 154.431 277.121C154.584 278.733 155.003 280.308 155.676 281.784C156.327 283.218 157.158 284.567 158.137 285.804C158.137 285.804 159.035 286.302 159.608 286.926L159.392 287.317C158.318 287.687 157.085 288.07 156.109 288.449C155.17 288.797 154.329 289.357 153.659 290.104C153.486 290.417 151.569 296.085 150.306 299.562C148.449 297.034 146.302 294.732 143.91 292.702C142.581 291.966 141.617 291.125 140.666 290.547C138.109 289.307 135.626 287.93 133.216 286.418C132.896 286.223 132.515 286.153 132.147 286.223C131.778 286.292 131.449 286.495 131.221 286.793C131.018 287.103 130.94 287.479 131.002 287.845C131.065 288.211 131.263 288.54 131.557 288.766C134.827 291.141 136.732 291.941 138.886 293.391C139.864 294.015 140.786 294.713 141.652 295.486C144.15 298.114 146.415 300.956 148.421 303.977C148.766 304.353 149.188 304.65 149.659 304.849C150.129 305.048 150.636 305.144 151.147 305.13C151.461 305.104 151.765 305.008 152.038 304.85C152.31 304.693 152.545 304.477 152.725 304.218C153.024 303.771 153.284 303.302 153.505 302.811C154 301.917 154.483 300.402 155.067 298.887C161.489 302.753 169.851 308.001 176.853 311.934C180.477 314.121 184.341 315.885 188.37 317.194C192.789 318.22 197.355 318.455 201.856 317.888C203.584 317.715 205.258 317.191 206.776 316.35C208.295 315.508 209.626 314.366 210.688 312.993C211.614 311.799 212.03 310.287 211.844 308.787C211.704 307.95 211.344 307.166 210.8 306.515C210.256 305.863 209.547 305.372 208.749 305.085ZM192.937 298.46C195.762 298.46 198.564 297.955 201.21 296.969C202.305 296.559 203.091 297.352 203.554 298.268C203.869 298.861 204.046 299.518 204.072 300.189C203.878 300.541 204.069 301.107 203.718 301.372C202.75 302.188 201.583 302.737 200.334 302.963C200.161 302.99 199.987 302.996 199.813 302.981L198.354 302.581C195.401 301.414 192.559 299.982 189.872 298.288C190.891 298.414 191.915 298.471 192.944 298.458M201.146 313.199C197.214 313.787 193.214 313.689 189.316 312.918C185.606 311.862 182.023 310.392 178.641 308.533C171.387 304.87 162.726 299.711 156.062 296.272C156.607 294.736 157.083 293.417 157.282 292.965C157.481 292.514 158.505 292.417 159.316 292.152C160.671 291.783 161.939 291.213 163.12 290.44C163.657 290.084 164.1 289.604 164.413 289.04C164.725 288.476 164.897 287.846 164.915 287.202C164.926 286.574 164.727 285.96 164.349 285.458C163.735 284.67 163.043 283.945 162.286 283.293C163.37 283.672 164.476 283.979 165.606 284.214C166.872 284.482 168.18 284.517 169.468 284.322C170.45 284.09 171.348 283.602 172.087 282.914C173.212 281.794 174.413 280.761 175.69 279.814C176.284 279.48 176.878 279.605 177.482 280.45C178.086 281.296 177.567 282.591 177.098 283.807C176.274 285.489 175.556 287.215 174.942 288.986C174.708 289.744 174.68 290.551 174.861 291.324C175.042 292.096 175.426 292.807 175.973 293.382C179.018 296.189 182.303 298.73 185.791 300.969C189.228 303.365 192.9 305.4 196.753 307.046C199.452 307.98 202.395 308.181 205.142 308.938C205.712 309.084 206.269 309.273 206.813 309.507L207.009 309.615L206.662 310.24C205.28 311.905 203.297 312.966 201.142 313.197M184.384 261.08C184.164 261.382 183.982 261.71 183.843 262.057L182.524 264.436C182.341 264.51 182.176 264.622 182.04 264.765C181.903 264.908 181.799 265.079 181.735 265.266C181.67 265.452 181.646 265.651 181.664 265.847C181.682 266.044 181.742 266.235 181.84 266.406C181.957 266.552 182.101 266.674 182.266 266.763C182.43 266.852 182.611 266.906 182.797 266.924C182.983 266.941 183.17 266.92 183.348 266.863C183.526 266.806 183.691 266.713 183.832 266.591C184.729 266.291 185.6 265.92 186.438 265.482C186.865 265.204 187.252 264.874 187.6 264.492C187.887 264.295 188.149 264.065 188.383 263.807C188.488 263.662 188.575 263.504 188.643 263.338C189.919 264.352 191.357 265.149 192.893 265.694C194.343 266.375 195.983 266.539 197.54 266.159C199.096 265.778 200.475 264.876 201.448 263.603C202.029 262.836 202.418 261.941 202.58 260.993C202.742 260.044 202.673 259.07 202.379 258.154C201.242 255.672 199.611 253.448 197.587 251.616C196.9 250.914 196.309 250.125 195.829 249.268C195.669 249.036 195.565 248.77 195.525 248.491C195.485 248.212 195.51 247.927 195.598 247.659C196.444 245.58 198.322 245.6 200.126 246.4C202.32 247.557 204.162 249.282 205.462 251.395C205.618 251.678 205.879 251.89 206.188 251.985C206.497 252.08 206.831 252.052 207.119 251.906C207.292 251.862 207.452 251.78 207.587 251.665C207.723 251.549 207.83 251.405 207.9 251.242C207.971 251.078 208.003 250.901 207.995 250.724C207.986 250.546 207.937 250.373 207.851 250.217C207.256 248.958 206.468 247.8 205.516 246.783C205.697 246.722 205.873 246.649 206.045 246.566C206.373 246.373 206.682 246.153 206.973 245.905C207.146 245.593 207.319 245.28 207.707 245.041C208.097 244.798 208.573 243.478 209.028 242.658C209.29 242.496 209.492 242.254 209.605 241.968C209.717 241.682 209.735 241.367 209.655 241.07C209.574 240.773 209.4 240.51 209.159 240.32C208.917 240.13 208.62 240.022 208.313 240.014C208.108 240.01 207.904 240.051 207.716 240.132C207.528 240.214 207.36 240.335 207.223 240.488C206.326 240.788 205.455 241.159 204.617 241.597C204.266 241.789 203.936 242.017 203.632 242.276C203.098 242.727 202.677 243.297 202.404 243.94C201.531 243.303 200.595 242.784 199.595 242.383C198.845 242.087 198.044 241.944 197.238 241.961C196.433 241.978 195.639 242.156 194.902 242.483C194.166 242.81 193.502 243.28 192.949 243.866C192.396 244.452 191.965 245.143 191.682 245.897C191.217 246.727 190.959 247.657 190.928 248.608C190.898 249.559 191.097 250.504 191.507 251.362C192.829 253.602 194.425 255.669 196.258 257.514C197.287 258.698 198.378 259.762 197.459 261.142C196.543 262.519 194.476 262.287 192.613 261.51C190.398 260.482 188.506 258.868 187.142 256.843C186.785 256.226 186.555 255.545 186.465 254.838C186.406 254.04 186.408 253.239 186.471 252.441C186.496 252.092 186.391 251.746 186.178 251.469C185.965 251.192 185.657 251.002 185.313 250.937C184.939 250.908 184.569 251.029 184.282 251.271C183.996 251.514 183.816 251.859 183.783 252.233C183.584 253.42 183.535 254.615 183.634 255.818C183.718 256.717 183.981 257.588 184.401 258.387C184.732 259.099 185.15 259.756 185.656 260.36C185.196 260.531 184.767 260.776 184.386 261.086" fill="#6F8E49"/>
<path fill-rule="evenodd" clip-rule="evenodd" d="M203.069 228.756C198.737 227.223 194.084 226.831 189.558 227.618C185.031 228.405 180.783 230.344 177.224 233.25C173.373 236.16 170.524 240.196 169.069 244.798C167.614 249.401 167.626 254.341 169.103 258.936C169.628 260.681 170.267 262.38 171.022 264.034C171.808 265.715 172.801 267.291 173.978 268.726C175.38 270.362 177.025 271.769 178.85 272.908C181.507 274.519 184.319 275.858 187.246 276.898C187.549 277.004 187.881 276.988 188.173 276.856C188.465 276.723 188.695 276.483 188.816 276.185C188.88 276.035 188.913 275.873 188.912 275.709C188.912 275.546 188.878 275.384 188.813 275.234C188.748 275.084 188.654 274.948 188.535 274.836C188.416 274.724 188.276 274.637 188.122 274.58C185.465 273.441 182.929 272.035 180.555 270.386C179.089 269.298 177.774 268.02 176.646 266.585C175.719 265.247 174.962 263.8 174.392 262.276C173.805 260.764 173.337 259.209 172.992 257.624C171.942 253.797 172.077 249.741 173.381 245.993C174.684 242.245 177.095 238.98 180.293 236.631C183.479 234.185 187.2 232.531 191.15 231.804C195.1 231.077 199.166 231.298 203.014 232.449C207.815 234.042 212.037 237.022 215.146 241.012C218.245 244.119 220.141 248.224 220.505 252.599C220.91 253.895 222.771 253.855 223.412 252.422C222.543 236.032 206.235 229.853 203.063 228.758M210.161 271.905C209.012 272.596 207.867 273.187 206.686 273.752C205.502 274.322 204.283 274.77 203.051 275.159C200.119 276.151 196.999 276.46 193.929 276.063C193.753 276.012 193.567 275.998 193.385 276.021C193.202 276.045 193.027 276.106 192.869 276.201C192.711 276.295 192.574 276.421 192.467 276.571C192.36 276.721 192.285 276.891 192.247 277.071C192.2 277.252 192.189 277.44 192.217 277.625C192.244 277.81 192.309 277.987 192.407 278.147C192.505 278.306 192.634 278.444 192.786 278.552C192.939 278.66 193.111 278.736 193.294 278.775C198.335 280.437 203.811 280.185 208.679 278.07C210.125 277.427 211.465 276.606 212.701 275.605C214.615 274.087 216.28 272.273 217.618 270.226L215.685 267.725C214.004 269.326 212.166 270.721 210.161 271.905Z" fill="#6F8E49"/>
<path fill-rule="evenodd" clip-rule="evenodd" d="M254.499 274.24C254.404 274.08 254.278 273.94 254.128 273.83C253.979 273.719 253.808 273.64 253.627 273.597C253.446 273.553 253.258 273.547 253.075 273.578C252.891 273.609 252.716 273.677 252.559 273.778C251.5 274.411 250.321 274.819 249.097 274.974C247.887 275.136 246.657 275.027 245.494 274.657C244.954 274.433 244.448 274.152 243.974 273.815C241.707 271.849 239.27 270.088 236.692 268.552C233.61 267.304 227.009 267.623 222.421 266.05C221.306 265.882 220.295 265.299 219.593 264.416C218.89 263.534 218.547 262.419 218.633 261.294C218.661 259.676 220.158 259.74 221.761 259.612C225.684 259.335 230.695 259.774 233.79 257.868C234.735 257.341 235.542 256.599 236.146 255.701C236.75 254.803 237.134 253.776 237.266 252.702C238.198 247.151 236.066 244.289 232.883 243.132C231.397 242.519 229.793 242.248 228.188 242.339C226.584 242.43 225.02 242.881 223.613 243.658C223.387 243.721 223.181 243.842 223.016 244.01C222.851 244.177 222.733 244.386 222.674 244.613C222.615 244.841 222.617 245.08 222.68 245.307C222.743 245.533 222.864 245.739 223.032 245.904C223.234 246.102 223.493 246.231 223.773 246.272C224.053 246.314 224.339 246.265 224.59 246.135C226.259 245.334 228.168 245.161 229.959 245.643C232.623 245.996 234.291 248.045 233.467 251.826C232.84 254.431 230.497 254.511 228.092 254.807C223.354 255.449 222.884 254.269 218.162 255.426C216.882 255.682 215.742 256.403 214.963 257.451C214.184 258.498 213.822 259.798 213.946 261.097C214.001 267.909 220.556 270.981 227.405 271.412C230.043 271.382 232.677 271.627 235.264 272.143C237.758 273.494 240.13 275.065 242.35 276.837C243.109 277.274 243.914 277.601 244.768 277.819C246.386 278.272 248.092 278.344 249.747 278.031C251.351 277.783 252.881 277.188 254.232 276.288C254.393 276.178 254.529 276.035 254.631 275.869C254.733 275.703 254.798 275.517 254.824 275.324C254.849 275.131 254.833 274.934 254.777 274.747C254.721 274.561 254.626 274.388 254.499 274.24Z" fill="#6F8E49"/>
<path fill-rule="evenodd" clip-rule="evenodd" d="M262.159 264.312L255.224 253.634C253.368 250.358 252.099 246.391 250.392 242.846C249.201 240.158 247.5 237.725 245.384 235.683C243.411 234.03 241.054 232.898 238.53 232.39C236.005 231.882 233.394 232.014 230.935 232.775C227.72 233.633 224.613 234.855 221.675 236.416C219.201 237.747 220.611 239.902 222.838 239.201C225.752 238.195 228.714 237.355 231.726 236.682C233.555 236.205 235.473 236.182 237.313 236.615C239.153 237.047 240.86 237.922 242.285 239.164C244.389 241.318 246.086 243.833 247.296 246.589C248.719 249.696 250.311 252.724 252.065 255.657L259.872 265.95C260.087 266.249 260.409 266.454 260.772 266.522C261.134 266.589 261.508 266.514 261.816 266.313C262.119 266.087 262.323 265.753 262.387 265.381C262.451 265.008 262.37 264.626 262.159 264.312Z" fill="#6F8E49"/>
<path d="M94.8155 62.3853L94.198 39.8216L97.0201 40.4215L97.2021 55.0491L97.1772 58.84L97.2373 58.8528C97.9274 57.4099 98.5107 56.2475 98.9872 55.3658L106.057 42.3423L108.969 42.9613L109.525 57.6056L109.546 61.4692L109.606 61.482C110.301 60.0191 110.86 58.8724 111.283 58.042L118.066 44.8949L120.798 45.4756L109.887 65.5888L107.305 65.04L106.852 49.1312L106.824 45.7054L106.764 45.6927C106.155 46.9647 105.634 47.9939 105.2 48.7802L97.5175 62.9596L94.8155 62.3853ZM129.551 67.7605C127.831 69.0264 125.84 69.4189 123.578 68.9382C121.316 68.4574 119.674 67.2927 118.652 65.4441C117.651 63.5996 117.416 61.521 117.95 59.2083C118.484 56.8955 119.611 55.1062 121.331 53.8404C123.071 52.5788 125.072 52.1884 127.334 52.6691C129.596 53.1498 131.228 54.3124 132.23 56.1568C133.232 58.0013 133.466 60.0799 132.932 62.3926C132.398 64.7054 131.271 66.4947 129.551 67.7605ZM120.718 64.4086C121.337 65.7322 122.446 66.5642 124.048 66.9045C125.649 67.2449 127.011 66.9383 128.134 65.9848C129.261 65.0114 130.03 63.6374 130.44 61.863C130.854 60.0686 130.752 58.5096 130.134 57.1859C129.54 55.8466 128.453 55.0089 126.871 54.6728C125.27 54.3325 123.896 54.6469 122.748 55.6161C121.621 56.5895 120.852 57.9635 120.442 59.7379C120.033 61.5124 120.125 63.0693 120.718 64.4086ZM140.177 55.8069L139.584 58.3788L139.644 58.3916C140.333 57.6805 141.135 57.1608 142.051 56.8326C142.971 56.4844 143.922 56.4145 144.902 56.623C145.263 56.6995 145.579 56.8295 145.852 57.013L145.313 59.3457L145.223 59.3265C144.946 59.163 144.597 59.0366 144.177 58.9473C142.936 58.6835 141.774 58.8967 140.691 59.5867C139.612 60.2568 138.912 61.2897 138.589 62.6854L136.608 71.2685L134.176 70.7516L137.746 55.29L140.177 55.8069ZM155.275 75.2363L151.707 65.7246L148.928 67.3929L147.499 73.5835L145.067 73.0666L150.004 51.6835L152.436 52.2004L149.543 64.7312L157.884 59.5705L160.976 60.2278L153.747 64.5268L158.127 75.8426L155.275 75.2363ZM177.89 80.2002C176.349 79.8727 175.636 78.9158 175.75 77.3295L175.72 77.3231C174.062 78.6857 172.152 79.1373 169.99 78.6778C168.449 78.3503 167.273 77.7134 166.463 76.7672C165.652 75.8211 165.408 74.6502 165.73 73.2546C165.896 72.5368 166.149 71.9421 166.489 71.4706C166.853 70.9833 167.252 70.6185 167.686 70.376C168.125 70.1137 168.682 69.9288 169.357 69.8214C170.058 69.6984 170.712 69.6387 171.32 69.6425C171.933 69.6263 172.705 69.6441 173.638 69.696C174.237 69.7396 174.661 69.767 174.911 69.7782C175.185 69.7737 175.533 69.7642 175.957 69.7496C176.385 69.715 176.695 69.645 176.887 69.5395C177.079 69.4339 177.273 69.2764 177.469 69.067C177.664 68.8575 177.798 68.5932 177.872 68.2742C178.075 67.397 177.919 66.6631 177.404 66.0727C176.914 65.4666 176.119 65.0465 175.018 64.8125C172.516 64.2807 170.963 65.1428 170.358 67.3986L168.016 66.9009C168.42 65.3343 169.252 64.1832 170.514 63.4474C171.796 62.7158 173.427 62.5607 175.409 62.9818C179.232 63.7944 180.766 65.8356 180.011 69.1054L178.312 76.4623C178.156 77.1402 178.155 77.6421 178.311 77.968C178.487 78.2982 178.911 78.4616 179.584 78.4582L179.674 78.4773L179.267 80.2418C178.829 80.3162 178.371 80.3024 177.89 80.2002ZM170.958 76.9385C172.46 77.2576 173.719 77.0757 174.738 76.3928C175.761 75.69 176.392 74.8202 176.632 73.7834L177.239 71.1516C176.393 71.4528 175.124 71.5806 173.434 71.5351C172.806 71.5271 172.313 71.5268 171.954 71.5342C171.6 71.5217 171.182 71.5584 170.7 71.6442C170.223 71.7101 169.852 71.8194 169.585 71.9719C169.319 72.1245 169.067 72.3533 168.829 72.6582C168.595 72.9431 168.427 73.3049 168.326 73.7436C167.939 75.4183 168.817 76.4833 170.958 76.9385ZM183.471 67.0798L183.926 65.106L186.178 65.5846L187.303 60.7099L189.735 61.2268L188.61 66.1015L191.612 66.7397L191.156 68.7135L188.154 68.0753L185.834 78.1239C185.613 79.0809 186.023 79.67 187.064 79.8912C187.504 79.9848 187.951 80.0065 188.403 79.9563L188.493 79.9754L188.01 82.0689C187.317 82.068 186.651 81.9996 186.01 81.8634C183.728 81.3784 182.818 80.1391 183.278 78.1453L185.722 67.5584L183.471 67.0798ZM208.688 86.7465C207.147 86.4189 206.433 85.462 206.547 83.8757L206.517 83.8693C204.859 85.2319 202.949 85.6835 200.787 85.2241C199.246 84.8965 198.071 84.2596 197.26 83.3135C196.45 82.3673 196.206 81.1964 196.528 79.8008C196.693 79.083 196.946 78.4884 197.286 78.0168C197.651 77.5295 198.05 77.1647 198.484 76.9222C198.922 76.6599 199.479 76.475 200.155 76.3677C200.855 76.2446 201.509 76.185 202.118 76.1887C202.73 76.1725 203.503 76.1904 204.436 76.2422C205.035 76.2859 205.459 76.3133 205.708 76.3244C205.982 76.3199 206.331 76.3104 206.754 76.2958C207.182 76.2612 207.492 76.1912 207.685 76.0857C207.877 75.9801 208.071 75.8226 208.266 75.6132C208.461 75.4037 208.596 75.1395 208.67 74.8205C208.872 73.9432 208.716 73.2094 208.201 72.6189C207.711 72.0128 206.916 71.5927 205.815 71.3587C203.313 70.8269 201.76 71.689 201.155 73.9449L198.814 73.4471C199.217 71.8805 200.05 70.7294 201.312 69.9936C202.593 69.2621 204.225 69.1069 206.206 69.5281C210.029 70.3406 211.563 72.3818 210.808 75.6516L209.11 83.0085C208.953 83.6864 208.953 84.1883 209.109 84.5142C209.284 84.8444 209.709 85.0078 210.381 85.0044L210.471 85.0235L210.064 86.788C209.627 86.8624 209.168 86.8486 208.688 86.7465ZM201.756 83.4847C203.257 83.8038 204.517 83.6219 205.535 82.939C206.559 82.2362 207.19 81.3664 207.429 80.3296L208.037 77.6979C207.19 77.999 205.922 78.1268 204.232 78.0813C203.604 78.0733 203.11 78.073 202.752 78.0804C202.398 78.0679 201.98 78.1046 201.498 78.1904C201.021 78.2563 200.649 78.3656 200.383 78.5182C200.117 78.6707 199.864 78.8995 199.626 79.2044C199.392 79.4893 199.225 79.8511 199.124 80.2898C198.737 81.9645 199.614 83.0295 201.756 83.4847ZM87.9499 99.2174C85.8283 98.7664 84.2852 97.9469 83.3207 96.7589C82.3808 95.5551 82.0533 94.0632 82.3383 92.2832L84.8301 92.8128C84.581 95.1652 85.7974 96.6265 88.4794 97.1965C89.7003 97.456 90.6539 97.4182 91.3402 97.083C92.0512 96.7321 92.4941 96.1779 92.669 95.4203C92.8577 94.6028 92.7033 93.953 92.2057 93.4707C91.7081 92.9885 90.7256 92.424 89.2581 91.7775C88.6498 91.5018 88.1648 91.2836 87.8029 91.123C87.4656 90.9468 87.0552 90.7236 86.5717 90.4535C86.0927 90.1634 85.7261 89.8868 85.4719 89.6236C85.2423 89.3447 85.012 89.0239 84.7808 88.661C84.5496 88.2981 84.4146 87.8825 84.3758 87.4141C84.3569 86.9499 84.4097 86.4487 84.5339 85.9104C84.8377 84.5945 85.5575 83.6598 86.6931 83.1064C87.8487 82.5572 89.3172 82.472 91.0985 82.8506C94.7813 83.6334 96.4399 85.6801 96.0746 88.9909L93.5827 88.4612C93.6974 87.4189 93.5174 86.6067 93.0428 86.0248C92.5729 85.4229 91.7575 84.9986 90.5966 84.7518C89.5358 84.5264 88.6969 84.5677 88.0798 84.8757C87.4874 85.1681 87.1153 85.6433 86.9634 86.3012C86.7884 87.0589 86.9644 87.661 87.4912 88.1076C88.0226 88.5343 89.0421 89.0752 90.5496 89.7303C91.4643 90.1339 92.1711 90.4828 92.6701 90.7771C93.1937 91.0558 93.7143 91.4383 94.2319 91.9248C94.7541 92.3914 95.0885 92.9436 95.2352 93.5813C95.382 94.2191 95.3564 94.9666 95.1584 95.8239C94.8086 97.3392 93.9789 98.3864 92.6694 98.9656C91.3644 99.5249 89.7912 99.6088 87.9499 99.2174ZM103.938 102.584C101.676 102.104 100.034 100.939 99.0123 99.0902C98.0103 97.2458 97.7763 95.1672 98.3102 92.8545C98.8442 90.5417 99.9712 88.7524 101.691 87.4866C103.431 86.225 105.432 85.8345 107.694 86.3153C109.515 86.7024 110.894 87.5078 111.829 88.7315C112.769 89.9353 113.188 91.3944 113.086 93.1087L110.624 92.5855C110.688 91.4905 110.429 90.5673 109.846 89.8161C109.264 89.0648 108.392 88.5658 107.231 88.319C105.63 87.9787 104.256 88.2931 103.108 89.2623C101.98 90.2357 101.212 91.6097 100.802 93.3841C100.392 95.1586 100.484 96.7155 101.078 98.0548C101.696 99.3784 102.806 100.21 104.407 100.551C105.648 100.814 106.715 100.696 107.607 100.196C108.504 99.6751 109.143 98.8174 109.524 97.6225L111.926 98.133C111.338 99.9532 110.344 101.258 108.943 102.048C107.548 102.818 105.879 102.997 103.938 102.584ZM120.937 83.326L119.1 91.2811L119.16 91.2938C120.729 89.9541 122.555 89.5054 124.636 89.9479C126.277 90.2967 127.459 90.9977 128.182 92.0507C128.905 93.1037 129.082 94.4277 128.714 96.0227L126.208 106.879L123.776 106.362L126.234 95.7151C126.464 94.7183 126.331 93.8847 125.835 93.2145C125.343 92.5244 124.547 92.0623 123.446 91.8283C122.205 91.5646 121.092 91.7464 120.108 92.3737C119.123 93.001 118.486 93.9427 118.196 95.1988L116 104.709L113.568 104.192L118.505 82.8091L120.937 83.326ZM142.541 108.343C140.821 109.608 138.83 110.001 136.568 109.52C134.307 109.039 132.665 107.875 131.643 106.026C130.641 104.182 130.407 102.103 130.941 99.7903C131.475 97.4775 132.602 95.6882 134.322 94.4224C136.062 93.1608 138.063 92.7704 140.324 93.2511C142.586 93.7319 144.218 94.8944 145.22 96.7389C146.222 98.5833 146.456 100.662 145.922 102.975C145.388 105.287 144.261 107.077 142.541 108.343ZM133.709 104.991C134.327 106.314 135.437 107.146 137.038 107.487C138.639 107.827 140.001 107.52 141.124 106.567C142.252 105.593 143.02 104.219 143.43 102.445C143.844 100.651 143.742 99.0916 143.124 97.768C142.53 96.4286 141.443 95.5909 139.862 95.2548C138.261 94.9145 136.886 95.2289 135.739 96.1981C134.611 97.1716 133.842 98.5455 133.433 100.32C133.023 102.094 133.115 103.651 133.709 104.991ZM159.677 111.985C157.957 113.251 155.966 113.643 153.705 113.163C151.443 112.682 149.801 111.517 148.779 109.668C147.777 107.824 147.543 105.745 148.077 103.433C148.611 101.12 149.738 99.3306 151.458 98.0648C153.198 96.8032 155.199 96.4128 157.461 96.8935C159.722 97.3743 161.354 98.5368 162.356 100.381C163.358 102.226 163.592 104.304 163.058 106.617C162.524 108.93 161.397 110.719 159.677 111.985ZM150.845 108.633C151.463 109.957 152.573 110.789 154.174 111.129C155.775 111.469 157.137 111.163 158.26 110.209C159.388 109.236 160.157 107.862 160.566 106.087C160.981 104.293 160.879 102.734 160.26 101.41C159.667 100.071 158.579 99.2333 156.998 98.8973C155.397 98.5569 154.022 98.8713 152.875 99.8405C151.747 100.814 150.978 102.188 150.569 103.962C150.159 105.737 150.251 107.294 150.845 108.633ZM164.393 114.995L169.329 93.6121L171.761 94.129L166.824 115.512L164.393 114.995ZM178.328 103.808L178.784 101.834L181.035 102.312L182.161 97.4376L184.592 97.9545L183.467 102.829L186.469 103.467L186.014 105.441L183.011 104.803L180.691 114.852C180.47 115.809 180.88 116.398 181.921 116.619C182.362 116.713 182.808 116.734 183.26 116.684L183.351 116.703L182.867 118.797C182.175 118.796 181.508 118.727 180.867 118.591C178.586 118.106 177.675 116.867 178.135 114.873L180.58 104.286L178.328 103.808ZM193.38 98.7242L191.543 106.679L191.603 106.692C193.172 105.352 194.998 104.904 197.079 105.346C198.72 105.695 199.902 106.396 200.625 107.449C201.348 108.502 201.525 109.826 201.157 111.421L198.651 122.277L196.219 121.76L198.677 111.113C198.907 110.116 198.774 109.283 198.278 108.613C197.786 107.923 196.99 107.461 195.889 107.227C194.648 106.963 193.535 107.145 192.551 107.772C191.566 108.399 190.929 109.341 190.639 110.597L188.443 120.107L186.011 119.59L190.948 98.2073L193.38 98.7242ZM214.628 125.83C213.086 125.502 212.373 124.545 212.487 122.959L212.457 122.953C210.799 124.315 208.889 124.767 206.727 124.307C205.186 123.98 204.01 123.343 203.2 122.397C202.389 121.451 202.145 120.28 202.468 118.884C202.633 118.166 202.886 117.572 203.226 117.1C203.59 116.613 203.99 116.248 204.423 116.006C204.862 115.743 205.419 115.558 206.095 115.451C206.795 115.328 207.449 115.268 208.057 115.272C208.67 115.256 209.443 115.274 210.376 115.326C210.974 115.369 211.399 115.397 211.648 115.408C211.922 115.403 212.271 115.394 212.694 115.379C213.122 115.345 213.432 115.275 213.624 115.169C213.817 115.064 214.011 114.906 214.206 114.697C214.401 114.487 214.536 114.223 214.609 113.904C214.812 113.027 214.656 112.293 214.141 111.702C213.651 111.096 212.856 110.676 211.755 110.442C209.253 109.91 207.7 110.772 207.095 113.028L204.753 112.53C205.157 110.964 205.99 109.813 207.251 109.077C208.533 108.345 210.165 108.19 212.146 108.611C215.969 109.424 217.503 111.465 216.748 114.735L215.05 122.092C214.893 122.77 214.893 123.272 215.048 123.598C215.224 123.928 215.648 124.091 216.321 124.088L216.411 124.107L216.004 125.871C215.567 125.946 215.108 125.932 214.628 125.83ZM207.696 122.568C209.197 122.887 210.457 122.705 211.475 122.022C212.498 121.32 213.13 120.45 213.369 119.413L213.977 116.781C213.13 117.082 211.862 117.21 210.172 117.165C209.543 117.157 209.05 117.156 208.691 117.164C208.337 117.151 207.919 117.188 207.438 117.274C206.961 117.34 206.589 117.449 206.323 117.602C206.056 117.754 205.804 117.983 205.566 118.288C205.332 118.573 205.165 118.935 205.063 119.373C204.677 121.048 205.554 122.113 207.696 122.568ZM220.208 112.709L220.664 110.736L222.915 111.214L224.041 106.339L226.472 106.856L225.347 111.731L228.349 112.369L227.894 114.343L224.891 113.705L222.571 123.753C222.35 124.71 222.76 125.3 223.801 125.521C224.242 125.614 224.688 125.636 225.14 125.586L225.231 125.605L224.747 127.698C224.055 127.698 223.388 127.629 222.747 127.493C220.466 127.008 219.555 125.769 220.015 123.775L222.46 113.188L220.208 112.709ZM66.3235 175.157C65.4028 174.961 64.6976 174.696 64.2078 174.362L64.7049 172.209L64.825 172.234C65.1747 172.538 65.6998 172.765 66.4003 172.914C66.9407 173.029 67.4233 172.985 67.848 172.782C68.2681 172.6 68.7011 172.179 69.147 171.521L70.0996 170.124L67.5011 153.822L70.1431 154.383L71.5826 164.792L71.936 168.035L71.996 168.048C72.6233 166.968 73.196 166.034 73.7141 165.245L79.48 156.368L82.0619 156.917L71.5674 172.224C70.6171 173.612 69.7619 174.497 69.0018 174.879C68.237 175.281 67.3443 175.374 66.3235 175.157ZM93.0295 173.46C91.3094 174.726 89.3186 175.119 87.0569 174.638C84.7952 174.157 83.1534 172.992 82.1314 171.144C81.1294 169.299 80.8954 167.221 81.4293 164.908C81.9632 162.595 83.0902 160.806 84.8103 159.54C86.5503 158.279 88.5512 157.888 90.8129 158.369C93.0746 158.85 94.7064 160.012 95.7084 161.857C96.7104 163.701 96.9444 165.78 96.4105 168.092C95.8765 170.405 94.7495 172.194 93.0295 173.46ZM84.1972 170.108C84.8155 171.432 85.9252 172.264 87.5264 172.604C89.1276 172.945 90.4897 172.638 91.6127 171.685C92.7403 170.711 93.5089 169.337 93.9186 167.563C94.3329 165.768 94.2309 164.209 93.6126 162.886C93.0189 161.546 91.9315 160.709 90.3503 160.373C88.7491 160.032 87.3747 160.347 86.2271 161.316C85.0995 162.289 84.3308 163.663 83.9212 165.438C83.5115 167.212 83.6035 168.769 84.1972 170.108ZM109.964 179.068L107.532 178.551L108.022 176.427L107.962 176.415C106.359 177.81 104.607 178.306 102.706 177.901C101.105 177.561 99.9372 176.842 99.2036 175.745C98.4747 174.628 98.2943 173.272 98.6625 171.677L101.134 160.971L103.566 161.487L101.108 172.134C100.878 173.131 100.999 173.972 101.47 174.658C101.962 175.348 102.758 175.81 103.859 176.044C105.08 176.304 106.155 176.104 107.084 175.444C108.013 174.784 108.621 173.836 108.906 172.599L111.102 163.089L113.534 163.606L109.964 179.068ZM119.854 164.95L119.26 167.522L119.32 167.534C120.01 166.823 120.812 166.304 121.728 165.975C122.648 165.627 123.598 165.557 124.579 165.766C124.939 165.842 125.256 165.972 125.528 166.156L124.99 168.488L124.9 168.469C124.623 168.306 124.274 168.179 123.854 168.09C122.613 167.826 121.451 168.039 120.367 168.729C119.289 169.4 118.588 170.432 118.266 171.828L116.285 180.411L113.853 179.894L117.422 164.433L119.854 164.95ZM136.662 185.182C134.36 184.692 132.706 183.536 131.699 181.711C130.717 179.871 130.496 177.785 131.034 175.452C131.564 173.159 132.688 171.38 134.408 170.114C136.153 168.832 138.106 168.421 140.268 168.881C142.549 169.366 144.127 170.538 144.999 172.396C145.877 174.235 146.011 176.471 145.404 179.102L133.395 176.55C133.117 178.206 133.289 179.644 133.911 180.863C134.557 182.067 135.63 182.829 137.131 183.148C139.453 183.642 141.128 182.889 142.156 180.891L144.528 181.395C143.786 182.973 142.728 184.097 141.356 184.768C139.988 185.418 138.423 185.556 136.662 185.182ZM142.764 172.8C142.186 171.757 141.207 171.088 139.826 170.795C138.445 170.501 137.238 170.726 136.206 171.468C135.193 172.215 134.417 173.305 133.876 174.738L143.213 176.723C143.492 175.151 143.342 173.843 142.764 172.8ZM148.562 173.122L149.018 171.148L151.149 171.602L151.681 169.299C151.975 168.023 152.537 167.18 153.367 166.771C154.201 166.341 155.288 166.269 156.629 166.554C156.97 166.627 157.355 166.73 157.786 166.863L157.31 168.927C157.074 168.856 156.827 168.792 156.566 168.737C155.786 168.571 155.208 168.574 154.832 168.745C154.477 168.92 154.228 169.317 154.085 169.935L153.581 172.118L158.535 173.171L159.108 170.689C159.402 169.413 159.964 168.57 160.794 168.161C161.628 167.732 162.715 167.66 164.056 167.945C164.437 168.026 164.842 168.133 165.273 168.266L164.797 170.33C164.521 170.25 164.263 170.185 164.023 170.134C163.243 169.968 162.665 169.971 162.289 170.142C161.914 170.313 161.655 170.708 161.512 171.326L160.967 173.688L163.849 174.301L163.393 176.275L160.511 175.662L157.397 189.15L154.965 188.633L158.079 175.145L153.125 174.092L150.011 187.58L147.58 187.063L150.694 173.575L148.562 173.122ZM175.324 190.952C173.603 192.218 171.613 192.611 169.351 192.13C167.089 191.649 165.447 190.485 164.425 188.636C163.423 186.791 163.189 184.713 163.723 182.4C164.257 180.087 165.384 178.298 167.104 177.032C168.844 175.771 170.845 175.38 173.107 175.861C175.369 176.342 177 177.504 178.002 179.349C179.004 181.193 179.238 183.272 178.705 185.584C178.171 187.897 177.044 189.687 175.324 190.952ZM166.491 187.6C167.11 188.924 168.219 189.756 169.82 190.096C171.422 190.437 172.784 190.13 173.907 189.177C175.034 188.203 175.803 186.829 176.213 185.055C176.627 183.26 176.525 181.701 175.907 180.378C175.313 179.038 174.226 178.201 172.644 177.865C171.043 177.524 169.669 177.839 168.521 178.808C167.394 179.781 166.625 181.155 166.215 182.93C165.806 184.704 165.898 186.261 166.491 187.6ZM185.95 178.999L185.356 181.571L185.417 181.583C186.106 180.872 186.908 180.353 187.824 180.024C188.744 179.676 189.694 179.606 190.675 179.815C191.035 179.891 191.352 180.021 191.624 180.205L191.086 182.538L190.996 182.518C190.719 182.355 190.37 182.228 189.95 182.139C188.709 181.875 187.547 182.089 186.463 182.779C185.385 183.449 184.684 184.482 184.362 185.877L182.381 194.46L179.949 193.943L183.518 178.482L185.95 178.999ZM192.963 182.56L193.419 180.586L195.671 181.065L196.796 176.19L199.228 176.707L198.103 181.582L201.105 182.22L200.649 184.194L197.647 183.556L195.327 193.604C195.106 194.561 195.516 195.15 196.557 195.372C196.997 195.465 197.443 195.487 197.896 195.437L197.986 195.456L197.503 197.549C196.81 197.548 196.143 197.48 195.503 197.344C193.221 196.859 192.311 195.619 192.771 193.626L195.215 183.039L192.963 182.56ZM218.181 202.227C216.64 201.899 215.926 200.942 216.04 199.356L216.01 199.35C214.352 200.712 212.442 201.164 210.28 200.704C208.739 200.377 207.563 199.74 206.753 198.794C205.942 197.848 205.698 196.677 206.021 195.281C206.186 194.563 206.439 193.969 206.779 193.497C207.143 193.01 207.543 192.645 207.976 192.403C208.415 192.14 208.972 191.955 209.648 191.848C210.348 191.725 211.002 191.665 211.61 191.669C212.223 191.653 212.996 191.671 213.929 191.723C214.528 191.766 214.952 191.794 215.201 191.805C215.475 191.8 215.824 191.791 216.247 191.776C216.675 191.742 216.985 191.671 217.177 191.566C217.37 191.46 217.564 191.303 217.759 191.093C217.954 190.884 218.089 190.62 218.162 190.301C218.365 189.423 218.209 188.69 217.694 188.099C217.204 187.493 216.409 187.073 215.308 186.839C212.806 186.307 211.253 187.169 210.648 189.425L208.306 188.927C208.71 187.361 209.543 186.21 210.804 185.474C212.086 184.742 213.718 184.587 215.699 185.008C219.522 185.821 221.056 187.862 220.301 191.132L218.603 198.489C218.446 199.167 218.446 199.669 218.602 199.995C218.777 200.325 219.201 200.488 219.874 200.485L219.964 200.504L219.557 202.268C219.12 202.343 218.661 202.329 218.181 202.227ZM211.249 198.965C212.75 199.284 214.01 199.102 215.028 198.419C216.051 197.716 216.683 196.847 216.922 195.81L217.53 193.178C216.683 193.479 215.415 193.607 213.725 193.562C213.096 193.554 212.603 193.553 212.244 193.561C211.89 193.548 211.472 193.585 210.991 193.671C210.514 193.737 210.142 193.846 209.876 193.998C209.61 194.151 209.357 194.38 209.119 194.685C208.885 194.97 208.718 195.331 208.616 195.77C208.23 197.445 209.107 198.51 211.249 198.965ZM227.932 187.922L227.463 189.956L227.523 189.969C229.092 188.629 230.917 188.18 232.999 188.623C234.64 188.972 235.822 189.673 236.545 190.726C237.268 191.779 237.445 193.103 237.077 194.698L234.57 205.554L232.138 205.037L234.596 194.39C234.827 193.393 234.694 192.56 234.197 191.889C233.706 191.199 232.91 190.737 231.809 190.503C230.568 190.239 229.455 190.421 228.47 191.049C227.486 191.676 226.848 192.618 226.558 193.874L224.363 203.384L221.931 202.867L225.5 187.405L227.932 187.922ZM244.294 208.091C242.172 207.64 240.659 206.555 239.754 204.836C238.874 203.101 238.721 200.987 239.297 198.495C239.877 195.983 240.975 194.135 242.592 192.952C244.209 191.769 246.008 191.388 247.99 191.809C250.091 192.256 251.517 193.448 252.266 195.385L252.326 195.398L254.198 187.293L256.629 187.81L251.693 209.193L249.261 208.676L249.696 206.792L249.636 206.779C248.056 208.075 246.275 208.512 244.294 208.091ZM244.853 206.076C246.514 206.43 247.872 206.143 248.926 205.217C249.999 204.294 250.75 202.906 251.178 201.052C251.602 199.218 251.502 197.649 250.879 196.345C250.276 195.046 249.194 194.23 247.633 193.898C246.212 193.596 244.98 193.93 243.937 194.901C242.919 195.856 242.2 197.24 241.781 199.055C241.363 200.869 241.405 202.415 241.907 203.693C242.43 204.976 243.412 205.77 244.853 206.076ZM59.3227 191.975L59.7784 190.001L62.03 190.48L63.1554 185.605L65.5873 186.122L64.4618 190.996L67.4641 191.635L67.0084 193.608L64.0061 192.97L61.6863 203.019C61.4653 203.976 61.8752 204.565 62.916 204.786C63.3563 204.88 63.8028 204.901 64.2553 204.851L64.3454 204.87L63.8621 206.964C63.1693 206.963 62.5027 206.894 61.8623 206.758C59.5806 206.273 58.6699 205.034 59.1302 203.04L61.5743 192.453L59.3227 191.975ZM79.1606 210.498C77.6194 210.17 76.906 209.213 77.0202 207.627L76.9902 207.621C75.3318 208.983 73.4218 209.435 71.2602 208.976C69.719 208.648 68.5433 208.011 67.7328 207.065C66.9224 206.119 66.6783 204.948 67.0005 203.552C67.1662 202.835 67.419 202.24 67.7588 201.768C68.1233 201.281 68.5225 200.916 68.9564 200.674C69.3949 200.411 69.952 200.227 70.6277 200.119C71.328 199.996 71.9822 199.936 72.5903 199.94C73.2029 199.924 73.9757 199.942 74.9086 199.994C75.5074 200.037 75.9315 200.065 76.1809 200.076C76.4549 200.071 76.8036 200.062 77.2269 200.047C77.6548 200.013 77.9649 199.943 78.1573 199.837C78.3496 199.732 78.5435 199.574 78.7388 199.365C78.9341 199.155 79.0686 198.891 79.1423 198.572C79.3448 197.695 79.1888 196.961 78.6742 196.37C78.1842 195.764 77.3888 195.344 76.288 195.11C73.7861 194.578 72.2328 195.44 71.628 197.696L69.2863 197.199C69.6899 195.632 70.5226 194.481 71.7843 193.745C73.0661 193.014 74.6977 192.858 76.6791 193.28C80.502 194.092 82.036 196.133 81.2811 199.403L79.5826 206.76C79.4261 207.438 79.4257 207.94 79.5814 208.266C79.7572 208.596 80.1814 208.759 80.8541 208.756L80.9441 208.775L80.5368 210.539C80.0997 210.614 79.6409 210.6 79.1606 210.498ZM72.2287 207.236C73.7298 207.555 74.9896 207.373 76.0081 206.69C77.0313 205.988 77.6625 205.118 77.9019 204.081L78.5095 201.449C77.6631 201.751 76.3947 201.878 74.7045 201.833C74.0764 201.825 73.583 201.824 73.2244 201.832C72.8703 201.819 72.4524 201.856 71.9707 201.942C71.4935 202.008 71.1218 202.117 70.8556 202.27C70.5894 202.422 70.3372 202.651 70.0988 202.956C69.865 203.241 69.6975 203.603 69.5962 204.041C69.2096 205.716 70.0871 206.781 72.2287 207.236ZM83.0009 211.157L87.9376 189.774L90.3694 190.291L85.4327 211.674L83.0009 211.157ZM95.9719 214.354C93.6702 213.864 92.0161 212.708 91.0095 210.883C90.0275 209.043 89.8058 206.956 90.3443 204.624C90.8737 202.331 91.9984 200.552 93.7184 199.286C95.4631 198.004 97.4162 197.593 99.5778 198.053C101.86 198.538 103.437 199.71 104.309 201.568C105.187 203.407 105.322 205.642 104.714 208.274L92.705 205.722C92.4276 207.378 92.5996 208.816 93.2209 210.035C93.8668 211.239 94.9403 212.001 96.4414 212.32C98.7632 212.814 100.438 212.061 101.466 210.063L103.838 210.567C103.096 212.145 102.038 213.269 100.666 213.94C99.2979 214.59 97.7332 214.728 95.9719 214.354ZM102.075 201.972C101.497 200.929 100.517 200.26 99.1359 199.967C97.7549 199.673 96.5482 199.898 95.5159 200.64C94.5035 201.387 93.727 202.477 93.1862 203.91L102.523 205.895C102.802 204.323 102.653 203.015 102.075 201.972ZM112.044 201.11L111.574 203.144L111.634 203.157C113.203 201.817 115.029 201.368 117.11 201.811C118.751 202.16 119.933 202.86 120.656 203.913C121.379 204.966 121.556 206.29 121.188 207.885L118.682 218.742L116.25 218.225L118.708 207.578C118.938 206.581 118.805 205.748 118.309 205.077C117.817 204.387 117.021 203.925 115.92 203.691C114.679 203.427 113.566 203.609 112.582 204.236C111.597 204.864 110.96 205.806 110.67 207.062L108.474 216.572L106.042 216.055L109.612 200.593L112.044 201.11ZM124.334 205.793L124.79 203.819L127.041 204.298L128.167 199.423L130.599 199.94L129.473 204.815L132.475 205.453L132.02 207.427L129.017 206.789L126.698 216.837C126.477 217.794 126.887 218.383 127.927 218.605C128.368 218.698 128.814 218.72 129.267 218.67L129.357 218.689L128.873 220.782C128.181 220.782 127.514 220.713 126.874 220.577C124.592 220.092 123.681 218.853 124.141 216.859L126.586 206.272L124.334 205.793ZM131.98 221.568L132.664 218.608L135.576 219.227L134.892 222.187L131.98 221.568Z" fill="#FAFAFA"/>
<path d="M83.2128 135.561C83.0725 135.259 83.0436 134.657 83.126 133.754L83.066 133.741C82.4738 134.306 81.796 134.695 81.0326 134.909C80.2693 135.123 79.2771 135.101 78.0562 134.841C76.435 134.497 75.2284 133.811 74.4364 132.785C73.6444 131.76 73.421 130.499 73.7662 129.004C74.1252 127.448 74.928 126.427 76.1745 125.939C77.4256 125.431 79.0641 125.246 81.09 125.384C82.5771 125.491 83.6039 125.5 84.1703 125.411C84.7413 125.302 85.089 124.979 85.2133 124.44C85.3422 123.882 85.2233 123.397 84.8566 122.984C84.4945 122.552 83.8931 122.246 83.0525 122.067C81.1911 121.672 80.0347 122.179 79.5832 123.589L75.9505 122.817C76.3465 121.374 77.2155 120.293 78.5572 119.574C79.899 118.856 81.6307 118.722 83.7523 119.173C88.0755 120.092 89.8021 122.435 88.9322 126.203L87.1301 134.009C86.8631 135.165 86.8799 135.911 87.1803 136.247L87.1458 136.397L83.2128 135.561ZM79.7029 132.211C80.8237 132.449 81.7711 132.347 82.5451 131.905C83.339 131.467 83.8281 130.849 84.0122 130.052L84.5439 127.749C84.0437 127.915 83.0239 128.012 81.4846 128.04C80.2639 128.053 79.3742 128.177 78.8156 128.414C78.2616 128.631 77.9064 129.078 77.7499 129.756C77.4507 131.052 78.1017 131.87 79.7029 132.211ZM88.6416 141.985L93.3436 121.619L97.2765 122.455L96.8346 124.369L96.9247 124.388C98.4245 123.076 100.115 122.619 101.997 123.019C104.018 123.449 105.467 124.541 106.342 126.296C107.218 128.051 107.377 130.135 106.82 132.547C106.25 135.019 105.184 136.863 103.622 138.079C102.065 139.275 100.286 139.66 98.2844 139.235C96.2829 138.809 94.9698 137.767 94.3451 136.107L94.2851 136.095L92.7247 142.853L88.6416 141.985ZM98.194 135.67C99.2347 135.892 100.15 135.657 100.939 134.968C101.748 134.282 102.318 133.221 102.65 131.786C103.004 130.251 102.992 128.983 102.615 127.982C102.237 126.982 101.447 126.354 100.246 126.098C99.0254 125.839 98.0189 126.106 97.2267 126.9C96.4392 127.674 95.8751 128.798 95.5345 130.274C95.2077 131.689 95.2678 132.884 95.715 133.857C96.1667 134.811 96.9931 135.415 98.194 135.67ZM106.394 145.759L111.095 125.393L115.028 126.228L114.586 128.142L114.677 128.162C116.176 126.849 117.867 126.393 119.748 126.793C121.77 127.222 123.219 128.314 124.094 130.069C124.97 131.824 125.129 133.908 124.572 136.32C124.002 138.793 122.935 140.637 121.374 141.852C119.817 143.048 118.038 143.434 116.036 143.008C114.035 142.583 112.722 141.54 112.097 139.881L112.037 139.868L110.477 146.627L106.394 145.759ZM115.946 139.444C116.987 139.665 117.902 139.431 118.691 138.741C119.5 138.055 120.07 136.995 120.402 135.559C120.756 134.024 120.744 132.756 120.366 131.755C119.989 130.755 119.199 130.127 117.998 129.872C116.777 129.612 115.771 129.879 114.979 130.673C114.191 131.447 113.627 132.571 113.286 134.047C112.96 135.462 113.02 136.657 113.467 137.63C113.919 138.584 114.745 139.188 115.946 139.444ZM132.78 130.002L132.214 132.454L132.304 132.473C132.992 131.678 133.674 131.133 134.351 130.838C135.033 130.522 135.814 130.458 136.695 130.646C137.115 130.735 137.426 130.843 137.628 130.969L136.806 134.528L136.716 134.509C135.367 134.076 134.187 134.139 133.176 134.698C132.165 135.257 131.478 136.324 131.114 137.899L129.388 145.376L125.305 144.508L128.847 129.166L132.78 130.002ZM143.123 148.766C140.641 148.238 138.865 147.066 137.794 145.248C136.727 143.411 136.468 141.306 137.015 138.934C137.545 136.641 138.697 134.878 140.473 133.645C142.253 132.392 144.254 132.001 146.475 132.473C148.897 132.988 150.575 134.223 151.509 136.179C152.444 138.134 152.586 140.518 151.937 143.329L140.769 140.955C140.648 142.205 140.84 143.24 141.344 144.058C141.853 144.856 142.677 145.377 143.818 145.619C145.319 145.938 146.455 145.521 147.225 144.367L151.248 145.222C150.617 146.594 149.58 147.628 148.138 148.326C146.696 149.023 145.025 149.17 143.123 148.766ZM145.81 135.626C143.829 135.205 142.385 136.049 141.478 138.157L148.323 139.612C148.489 138.622 148.34 137.764 147.878 137.038C147.42 136.293 146.731 135.822 145.81 135.626ZM159.964 152.345C157.582 151.839 155.848 150.665 154.762 148.824C153.675 146.982 153.401 144.895 153.939 142.562C154.478 140.23 155.625 138.445 157.38 137.207C159.156 135.974 161.194 135.602 163.496 136.091C165.438 136.504 166.901 137.349 167.888 138.625C168.874 139.901 169.309 141.426 169.193 143.201L165.2 142.352C165.221 141.624 165.032 140.988 164.633 140.443C164.234 139.898 163.664 139.547 162.924 139.389C161.723 139.134 160.703 139.367 159.865 140.088C159.026 140.81 158.432 141.928 158.082 143.443C157.737 144.938 157.774 146.191 158.192 147.2C158.614 148.189 159.426 148.811 160.627 149.066C162.408 149.445 163.639 148.797 164.32 147.122L168.253 147.958C167.721 149.623 166.706 150.882 165.208 151.734C163.713 152.567 161.966 152.771 159.964 152.345ZM169.384 153.877L172.926 138.535L177.009 139.403L173.467 154.745L169.384 153.877ZM173.479 136.143L174.321 132.494L178.404 133.362L177.562 137.01L173.479 136.143ZM186.396 157.493C186.256 157.191 186.227 156.589 186.309 155.686L186.249 155.673C185.657 156.238 184.979 156.627 184.216 156.841C183.452 157.056 182.46 157.033 181.239 156.773C179.618 156.429 178.411 155.744 177.619 154.718C176.827 153.692 176.604 152.431 176.949 150.936C177.308 149.381 178.111 148.359 179.358 147.871C180.609 147.363 182.247 147.178 184.273 147.316C185.76 147.423 186.787 147.432 187.353 147.343C187.924 147.234 188.272 146.911 188.396 146.373C188.525 145.814 188.406 145.329 188.04 144.916C187.678 144.484 187.076 144.178 186.236 143.999C184.374 143.604 183.218 144.111 182.766 145.521L179.134 144.749C179.53 143.306 180.399 142.225 181.74 141.507C183.082 140.788 184.814 140.654 186.935 141.105C191.259 142.024 192.985 144.367 192.115 148.136L190.313 155.941C190.046 157.098 190.063 157.844 190.363 158.179L190.329 158.329L186.396 157.493ZM182.886 154.143C184.007 154.381 184.954 154.279 185.728 153.837C186.522 153.399 187.011 152.782 187.195 151.984L187.727 149.681C187.227 149.847 186.207 149.944 184.668 149.972C183.447 149.985 182.557 150.109 181.999 150.346C181.445 150.563 181.089 151.011 180.933 151.688C180.634 152.984 181.285 153.803 182.886 154.143ZM194.711 145.989L195.333 143.298L197.464 143.751L198.569 138.966L202.562 139.814L201.457 144.6L204.099 145.161L203.478 147.853L200.836 147.291L198.958 155.426C198.723 156.442 199.116 157.059 200.137 157.276L201.345 157.502L200.654 160.492C200.025 160.4 199.169 160.239 198.089 160.01C196.908 159.759 195.981 159.269 195.31 158.541C194.643 157.792 194.461 156.76 194.765 155.444L196.843 146.442L194.711 145.989ZM210.245 163.033C207.764 162.505 205.987 161.333 204.916 159.516C203.849 157.678 203.59 155.574 204.138 153.201C204.667 150.908 205.819 149.145 207.595 147.912C209.375 146.659 211.376 146.269 213.597 146.741C216.019 147.256 217.697 148.491 218.632 150.446C219.566 152.402 219.709 154.785 219.06 157.596L207.891 155.222C207.771 156.473 207.962 157.507 208.466 158.325C208.975 159.124 209.8 159.644 210.94 159.886C212.442 160.205 213.577 159.788 214.348 158.634L218.371 159.489C217.739 160.861 216.702 161.895 215.26 162.593C213.819 163.29 212.147 163.437 210.245 163.033ZM212.932 149.894C210.951 149.472 209.507 150.316 208.6 152.424L215.445 153.879C215.611 152.889 215.462 152.032 215 151.306C214.542 150.56 213.853 150.089 212.932 149.894ZM226.186 166.421C223.984 165.953 222.373 165.109 221.353 163.888C220.338 162.647 219.963 161.177 220.23 159.477L224.013 160.281C223.882 162.031 224.807 163.116 226.788 163.537C227.689 163.729 228.416 163.716 228.97 163.499C229.545 163.287 229.894 162.911 230.018 162.373C230.064 162.173 230.065 161.985 230.022 161.809C229.999 161.637 229.911 161.472 229.759 161.314C229.631 161.14 229.506 160.999 229.384 160.889C229.282 160.784 229.081 160.657 228.779 160.509C228.477 160.362 228.241 160.249 228.07 160.17C227.919 160.096 227.64 159.985 227.234 159.836C226.852 159.671 226.585 159.552 226.434 159.478C225.631 159.139 224.977 158.833 224.473 158.559C223.994 158.269 223.502 157.903 222.995 157.46C222.493 156.998 222.156 156.456 221.984 155.834C221.838 155.196 221.856 154.478 222.041 153.681C222.409 152.086 223.27 150.993 224.624 150.402C225.998 149.816 227.606 149.718 229.448 150.11C231.429 150.531 232.874 151.319 233.783 152.475C234.717 153.614 235.082 154.989 234.879 156.598L231.186 155.813C231.371 154.284 230.553 153.325 228.732 152.938C227.911 152.764 227.226 152.775 226.677 152.972C226.147 153.173 225.82 153.543 225.696 154.081C225.655 154.261 225.646 154.437 225.669 154.609C225.717 154.765 225.807 154.92 225.939 155.074C226.096 155.212 226.246 155.338 226.387 155.452C226.534 155.546 226.748 155.664 227.03 155.808C227.316 155.932 227.562 156.047 227.769 156.153C227.98 156.24 228.266 156.364 228.628 156.524C228.995 156.665 229.283 156.778 229.494 156.865C230.102 157.141 230.593 157.381 230.966 157.586C231.363 157.775 231.802 158.056 232.282 158.43C232.768 158.784 233.123 159.153 233.35 159.536C233.601 159.903 233.775 160.379 233.871 160.964C233.991 161.534 233.971 162.167 233.81 162.865C233.46 164.38 232.581 165.459 231.173 166.101C229.79 166.727 228.127 166.834 226.186 166.421Z" fill="#FCFF32"/>
<defs>
<filter id="filter0_f_2307_1178" x="17.6165" y="97.4658" width="1184.68" height="506.504" filterUnits="userSpaceOnUse" color-interpolation-filters="sRGB">
<feFlood flood-opacity="0" result="BackgroundImageFix"/>
<feBlend mode="normal" in="SourceGraphic" in2="BackgroundImageFix" result="shape"/>
<feGaussianBlur stdDeviation="4" result="effect1_foregroundBlur_2307_1178"/>
</filter>
<filter id="filter1_n_2307_1178" x="-6.43262" y="197.745" width="326.839" height="203.531" filterUnits="userSpaceOnUse" color-interpolation-filters="sRGB">
<feFlood flood-opacity="0" result="BackgroundImageFix"/>
<feBlend mode="normal" in="SourceGraphic" in2="BackgroundImageFix" result="shape"/>
<feTurbulence type="fractalNoise" baseFrequency="1 1" stitchTiles="stitch" numOctaves="3" result="noise" seed="1706" />
<feColorMatrix in="noise" type="luminanceToAlpha" result="alphaNoise" />
<feComponentTransfer in="alphaNoise" result="coloredNoise1">
<feFuncA type="discrete" tableValues="1 1 1 1 1 1 1 1 1 1 1 1 1 1 1 1 1 1 1 1 1 1 1 1 1 1 1 1 1 1 1 1 1 1 1 1 1 1 1 1 1 1 1 1 1 1 1 1 1 1 1 0 0 0 0 0 0 0 0 0 0 0 0 0 0 0 0 0 0 0 0 0 0 0 0 0 0 0 0 0 0 0 0 0 0 0 0 0 0 0 0 0 0 0 0 0 0 0 0 0 "/>
</feComponentTransfer>
<feComposite operator="in" in2="shape" in="coloredNoise1" result="noise1Clipped" />
<feFlood flood-color="rgba(0, 0, 0, 0.05)" result="color1Flood" />
<feComposite operator="in" in2="noise1Clipped" in="color1Flood" result="color1" />
<feMerge result="effect1_noise_2307_1178">
<feMergeNode in="shape" />
<feMergeNode in="color1" />
</feMerge>
</filter>
<filter id="filter2_n_2307_1178" x="238.938" y="53.2207" width="109.876" height="335.988" filterUnits="userSpaceOnUse" color-interpolation-filters="sRGB">
<feFlood flood-opacity="0" result="BackgroundImageFix"/>
<feBlend mode="normal" in="SourceGraphic" in2="BackgroundImageFix" result="shape"/>
<feTurbulence type="fractalNoise" baseFrequency="1 1" stitchTiles="stitch" numOctaves="3" result="noise" seed="1706" />
<feColorMatrix in="noise" type="luminanceToAlpha" result="alphaNoise" />
<feComponentTransfer in="alphaNoise" result="coloredNoise1">
<feFuncA type="discrete" tableValues="1 1 1 1 1 1 1 1 1 1 1 1 1 1 1 1 1 1 1 1 1 1 1 1 1 1 1 1 1 1 1 1 1 1 1 1 1 1 1 1 1 1 1 1 1 1 1 1 1 1 1 0 0 0 0 0 0 0 0 0 0 0 0 0 0 0 0 0 0 0 0 0 0 0 0 0 0 0 0 0 0 0 0 0 0 0 0 0 0 0 0 0 0 0 0 0 0 0 0 0 "/>
</feComponentTransfer>
<feComposite operator="in" in2="shape" in="coloredNoise1" result="noise1Clipped" />
<feFlood flood-color="rgba(0, 0, 0, 0.05)" result="color1Flood" />
<feComposite operator="in" in2="noise1Clipped" in="color1Flood" result="color1" />
<feMerge result="effect1_noise_2307_1178">
<feMergeNode in="shape" />
<feMergeNode in="color1" />
</feMerge>
</filter>
<filter id="filter3_n_2307_1178" x="0" y="0" width="338.152" height="353.849" filterUnits="userSpaceOnUse" color-interpolation-filters="sRGB">
<feFlood flood-opacity="0" result="BackgroundImageFix"/>
<feBlend mode="normal" in="SourceGraphic" in2="BackgroundImageFix" result="shape"/>
<feTurbulence type="fractalNoise" baseFrequency="1 1" stitchTiles="stitch" numOctaves="3" result="noise" seed="1706" />
<feColorMatrix in="noise" type="luminanceToAlpha" result="alphaNoise" />
<feComponentTransfer in="alphaNoise" result="coloredNoise1">
<feFuncA type="discrete" tableValues="1 1 1 1 1 1 1 1 1 1 1 1 1 1 1 1 1 1 1 1 1 1 1 1 1 1 1 1 1 1 1 1 1 1 1 1 1 1 1 1 1 1 1 1 1 1 1 1 1 1 1 0 0 0 0 0 0 0 0 0 0 0 0 0 0 0 0 0 0 0 0 0 0 0 0 0 0 0 0 0 0 0 0 0 0 0 0 0 0 0 0 0 0 0 0 0 0 0 0 0 "/>
</feComponentTransfer>
<feComposite operator="in" in2="shape" in="coloredNoise1" result="noise1Clipped" />
<feFlood flood-color="rgba(0, 0, 0, 0.05)" result="color1Flood" />
<feComposite operator="in" in2="noise1Clipped" in="color1Flood" result="color1" />
<feMerge result="effect1_noise_2307_1178">
<feMergeNode in="shape" />
<feMergeNode in="color1" />
</feMerge>
</filter>
<linearGradient id="paint0_linear_2307_1178" x1="-10.8732" y1="343.723" x2="329.081" y2="349.079" gradientUnits="userSpaceOnUse">
<stop stop-color="#0362A6"/>
<stop offset="1" stop-color="#FCFF32"/>
</linearGradient>
<linearGradient id="paint1_linear_2307_1178" x1="202.159" y1="315.501" x2="410.447" y2="191.091" gradientUnits="userSpaceOnUse">
<stop stop-color="#FCFF32"/>
<stop offset="1" stop-color="#0362A6"/>
</linearGradient>
<linearGradient id="paint2_linear_2307_1178" x1="8.31646e-09" y1="191.855" x2="343.031" y2="191.855" gradientUnits="userSpaceOnUse">
<stop stop-color="#0A7FD2"/>
<stop offset="1" stop-color="#FCFF32"/>
</linearGradient>
</defs>
</svg>
