<svg xmlns="http://www.w3.org/2000/svg" width="622" height="374" fill="none"><g filter="url(#a)"><mask id="b" width="606" height="319" x="4" y="39" maskUnits="userSpaceOnUse" style="mask-type:alpha"><path fill="#D9D9D9" d="M539.806 345.12 4.016 226.234l21.673 16.164 519.214 114.713 64.473-280.367V39.512z"/></mask><g mask="url(#b)"><g filter="url(#c)"><path fill="url(#d)" d="M547.012 337.542-5.475 216.796l21.084 28.194 534.468 117.191z"/></g><g filter="url(#e)"><path fill="url(#f)" d="m550.658 370.582-16.903-39.538 79.038-320.126 1.21 62.077z"/></g></g><g filter="url(#g)"><path fill="url(#h)" d="m592.623 113.48 16.751-73.977-75.637-15.95-17.019 73.859L56.564 0 4 226.244l535.808 118.932z"/></g><path fill="#FCFF32" d="m81.943 77.683 5.79-25.08 11.55 2.455q3.627.77 5.4 3.172 1.809 2.407 1.088 5.53-1.11 4.805-6.014 5.088l-.025.105q1.675.908 2.288 2.252.657 1.317.385 3.615-.125.856-.321 2.03-.153 1.144-.272 1.818l-.167 1.363q-.048.689.003 1.105.096.387.318.545l-.057.246-4.895-1.04a.6.6 0 0 1-.19-.298 2.3 2.3 0 0 1-.046-.599l.021-.731q.054-.394.113-.97.103-.605.165-1.032.07-.465.161-1.18a35 35 0 0 0 .197-1.173q.67-4.346-3.942-5.327l-4.12-.876-2.324 10.067zm9.949-19.89-1.612 6.98 5.423 1.152q2.007.427 3.282-.296 1.31-.715 1.667-2.258.364-1.579-.43-2.778-.795-1.2-2.767-1.618zm21.498 27.126q-4.367-.928-6.251-4.125-1.877-3.232-.913-7.407.931-4.034 4.055-6.203 3.131-2.205 7.04-1.374 4.261.906 5.905 4.346t.502 8.387l-13.1-2.785q-.211 2.2.675 3.64.895 1.404 2.902 1.83 2.641.562 3.996-1.468l4.719 1.003q-1.111 2.413-3.648 3.64t-5.882.516m3.151-15.41q-3.485-.743-5.081 2.967l8.029 1.707q.291-1.741-.523-3.019-.805-1.311-2.425-1.656m14.883 25.131q-3.662-.778-5.54-2.723-1.843-1.937-1.615-4.685l4.754 1.01q.242 2.15 3.165 2.77 4.014.855 4.881-2.9l.453-1.964-.105-.022q-2.353 1.707-5.205 1.101-3.204-.681-5.056-3.54-1.816-2.852-.918-6.745.922-4 3.657-5.92 2.742-1.956 6.193-1.223 3.274.696 4.45 3.448l.07.015.437-1.894 4.613.98-3.838 16.627q-.81 3.508-3.412 5.016-2.652 1.57-6.984.65m2.481-11.064q2.148.457 3.52-.687 1.373-1.144 1.866-3.283.486-2.104-.325-3.712-.768-1.635-2.845-2.077-1.831-.39-3.266.704-1.4 1.101-1.917 3.346-.527 2.28.265 3.81.836 1.503 2.702 1.9m11.387 7.572 4.154-17.994 4.789 1.017-4.154 17.995zm4.802-20.8.988-4.28 4.789 1.018-.988 4.28zm10.98 24.707q-3.874-.825-5.668-2.971-1.786-2.183-1.318-5.175l4.437.944q-.23 3.078 3.256 3.82 1.584.336 2.559-.045 1.01-.374 1.229-1.322.08-.35.005-.66-.042-.305-.31-.582a3.3 3.3 0 0 0-.439-.498q-.179-.185-.71-.445a38 38 0 0 0-.831-.398 12 12 0 0 0-.981-.392q-.672-.291-.937-.42a26 26 0 0 1-2.301-1.078q-.841-.51-1.734-1.289a4 4 0 0 1-1.185-1.907q-.258-1.122.066-2.525.648-2.806 3.03-3.846 2.418-1.032 5.658-.343 3.486.741 5.085 2.774 1.643 2.005 1.285 4.836l-4.331-.92q.325-2.69-2.879-3.373-1.444-.305-2.41.04-.932.354-1.151 1.301-.072.316-.032.619.085.276.318.546.276.243.525.443.258.165.754.418.504.217.867.404.37.153 1.007.436.645.247 1.016.4 1.07.485 1.726.845.699.332 1.545.99.853.624 1.252 1.297.442.646.611 1.675.211 1.002-.072 2.23-.615 2.665-3.093 3.795-2.433 1.102-5.849.376m12.617-13.436.729-3.157 2.5.531 1.296-5.612 4.683.995-1.295 5.613 3.098.658-.728 3.157-3.099-.658-2.203 9.54q-.412 1.79 1.383 2.171l1.417.265-.81 3.508a50 50 0 0 1-3.01-.566q-2.077-.443-3.259-1.724-1.173-1.316-.639-3.631l2.437-10.559zm18.22 19.991q-4.366-.928-6.251-4.126-1.876-3.233-.913-7.406.932-4.035 4.055-6.204 3.132-2.205 7.041-1.374 4.26.906 5.904 4.347 1.644 3.44.502 8.386l-13.099-2.785q-.212 2.2.674 3.64.895 1.405 2.902 1.83 2.641.562 3.997-1.468l4.718 1.003q-1.112 2.413-3.648 3.64t-5.882.517m3.152-15.412q-3.486-.74-5.081 2.968l8.028 1.707q.291-1.742-.522-3.018-.805-1.312-2.425-1.657m17.109.288-.664 2.877.106.022q1.209-1.398 2.4-1.918 1.2-.555 2.749-.225.74.156 1.095.38l-.964 4.174-.106-.023q-2.373-.762-4.151.222-1.779.983-2.419 3.754l-2.024 8.769-4.789-1.017 4.154-17.995z"/><path fill="#FAFAFA" d="m226.947 108.505-1.128-19.118 4.754 1.01.256 8.813.032 3.54.071.015a62 62 0 0 1 1.56-3.238l4.173-7.835 4.085.869.44 8.815.059 3.582.071.015a97 97 0 0 1 1.587-3.196l4.216-7.862 4.648.988-9.542 16.85-4.366-.928-.354-9.349-.089-3.294-.07-.015a984 984 0 0 0-1.566 2.943l-4.506 8.315zm23.069 4.903 4.154-17.995 4.789 1.018-4.154 17.995zm4.802-20.8.988-4.28 4.789 1.018-.988 4.28zm6.146 7.561.729-3.157 2.5.532 1.296-5.613 4.683.996-1.296 5.612 3.099.659-.729 3.157-3.099-.659-2.202 9.541q-.414 1.789 1.383 2.171l1.416.264-.81 3.508a51 51 0 0 1-3.009-.566q-2.077-.442-3.259-1.723-1.174-1.317-.64-3.632l2.438-10.558zm20.606-6.365-2.178 9.436.105.022q1.362-1.256 2.713-1.668 1.394-.44 3.19-.058 2.782.592 4.07 2.853 1.296 2.225.608 5.207l-2.713 11.751-4.789-1.018 2.551-11.049q.34-1.475-.294-2.565-.6-1.084-2.079-1.399-1.585-.337-2.908.596-1.289.94-1.709 2.765l-2.357 10.207-4.789-1.018 5.79-25.08zm32.092 33.133-4.613-.981.486-2.105-.105-.022q-1.295 1.123-2.637 1.5-1.308.384-3.139-.005-2.958-.628-4.208-2.734t-.562-5.087l2.77-11.997 4.754 1.011-2.584 11.189q-.753 3.263 2.24 3.899 1.656.351 2.9-.561 1.245-.913 1.667-2.737l2.397-10.383 4.789 1.018zm11.005 2.891q-3.873-.824-5.668-2.971-1.786-2.183-1.317-5.175l4.437.943q-.231 3.08 3.255 3.82 1.586.338 2.559-.045 1.01-.373 1.229-1.321.081-.35.005-.661-.04-.303-.309-.581a3.3 3.3 0 0 0-.439-.498q-.18-.186-.71-.445a37 37 0 0 0-.832-.398 12 12 0 0 0-.981-.392q-.672-.291-.937-.42-1.415-.595-2.3-1.078-.843-.51-1.735-1.289a4 4 0 0 1-1.185-1.908q-.258-1.121.066-2.525.648-2.805 3.031-3.845 2.417-1.032 5.657-.343 3.486.741 5.086 2.774 1.643 2.004 1.284 4.836l-4.331-.921q.325-2.691-2.879-3.372-1.443-.306-2.41.04-.931.354-1.15 1.301a1.7 1.7 0 0 0-.032.619q.084.275.317.546.276.243.526.443a9 9 0 0 0 .753.417q.504.218.867.405.37.153 1.008.435.644.248 1.016.4 1.07.485 1.726.846.699.332 1.544.99.853.624 1.252 1.297.442.646.611 1.675.212 1.002-.072 2.23-.615 2.665-3.092 3.795-2.434 1.102-5.85.376M70.83 124.876l4.022-17.422 11.08 2.355-.485 2.105-8.78-1.866-1.301 5.635 7.958 1.692-.486 2.105-7.958-1.692-1.75 7.577zm13.78 2.929 2.91-12.605 2.184.464-2.91 12.605zm3.375-14.616.648-2.806 2.183.464-.648 2.806zm2.549 15.875 4.086-17.703 2.184.464-4.087 17.703zm5.922 1.259 4.087-17.703 2.184.464-4.087 17.703zm16.278 3.754q-1.83-.39-3.115-1.545a6.4 6.4 0 0 1-1.803-2.861q-.523-1.681-.085-3.576.437-1.893 1.622-3.187a6.8 6.8 0 0 1 2.888-1.84q1.679-.55 3.533-.157 1.831.39 3.11 1.569a6.1 6.1 0 0 1 1.79 2.809q.528 1.658.086 3.576-.444 1.917-1.681 3.224a7 7 0 0 1-2.911 1.835q-1.65.532-3.434.153m.486-2.105a4.04 4.04 0 0 0 2.248-.135 4.25 4.25 0 0 0 1.875-1.294 4.9 4.9 0 0 0 1.092-2.172q.297-1.287-.039-2.388a4.1 4.1 0 0 0-1.136-1.91 3.8 3.8 0 0 0-1.972-1.057 4.1 4.1 0 0 0-2.3.149 4.55 4.55 0 0 0-1.87 1.271q-.79.863-1.087 2.148-.292 1.263.035 2.412a4.27 4.27 0 0 0 1.129 1.933q.828.79 2.025 1.043m13.701 5.12q-1.362-.289-2.32-1.155a4.45 4.45 0 0 1-1.285-2.113q-.322-1.27.018-2.744l1.819-7.881 2.183.465-1.765 7.646q-.216.936-.002 1.717.237.786.826 1.329.612.547 1.504.737.893.19 1.665-.064.796-.247 1.345-.916.572-.663.809-1.692l1.722-7.46 2.207.469-2.91 12.604-2.136-.454.566-2.455.304.285a3.86 3.86 0 0 1-1.958 1.547q-1.208.43-2.592.135m14.659 2.969q-1.854-.394-2.621-1.661-.743-1.262-.3-3.179l1.533-6.642-2.301-.489.481-2.081.469.1q.846.18 1.457-.23t.806-1.252l.238-1.029 2.183.464-.669 2.9 2.84.604-.48 2.081-2.841-.604-1.517 6.572q-.146.631-.066 1.139.103.512.508.893.411.357 1.185.521.165.036.404.062.264.031.481.053l-.443 1.917a4 4 0 0 1-.702-.051 5 5 0 0 1-.645-.088m12.605 2.827q-1.243-.265-2.104-.914-.831-.666-1.187-1.577-.351-.933-.108-1.985.232-1.006.838-1.711.635-.724 1.68-1.09 1.069-.362 2.531-.296l4.874.226-.422 1.824-4.364-.192q-1.269-.05-1.962.393-.669.446-.858 1.265-.179.771.313 1.415.515.65 1.454.849 1.198.255 2.179-.052a3.85 3.85 0 0 0 1.704-1.085 3.83 3.83 0 0 0 .959-1.808l.74-3.204q.237-1.028-.392-1.825-.6-.814-1.844-1.078a3.5 3.5 0 0 0-2.054.152 3.4 3.4 0 0 0-1.556 1.19l-1.675-1.386a4.3 4.3 0 0 1 1.483-1.304 6 6 0 0 1 2.062-.715q1.125-.178 2.251.061 1.456.31 2.43 1.106.979.773 1.362 1.884.413 1.093.116 2.38l-1.976 8.558-2.136-.454.55-2.385.367.225a4.5 4.5 0 0 1-1.382 1.08 5.5 5.5 0 0 1-1.802.55 6 6 0 0 1-2.071-.097m20.308 4.316q-1.784-.38-3.017-1.549a6.23 6.23 0 0 1-1.684-2.835q-.476-1.673-.05-3.519.437-1.894 1.599-3.193a6.56 6.56 0 0 1 2.775-1.888q1.632-.56 3.416-.181 1.573.333 2.637 1.272a5 5 0 0 1 1.515 2.186l-.476.463 1.803-7.811 2.207.469-4.087 17.703-2.136-.454.62-2.69.196.435a4.8 4.8 0 0 1-2.368 1.508q-1.4.414-2.95.084m.674-2.064q1.197.254 2.271-.131a4.36 4.36 0 0 0 1.846-1.276 4.9 4.9 0 0 0 1.092-2.172q.297-1.286-.034-2.411a4.1 4.1 0 0 0-1.106-1.928q-.805-.784-2.002-1.039a4.05 4.05 0 0 0-2.276.154 4.36 4.36 0 0 0-1.846 1.276q-.768.867-1.069 2.177-.292 1.263.01 2.406a4.15 4.15 0 0 0 1.112 1.905q.804.784 2.002 1.039m15.452 5.492q-1.83-.389-3.063-1.559a6.17 6.17 0 0 1-1.708-2.841q-.471-1.694-.039-3.565.436-1.895 1.575-3.198a6.5 6.5 0 0 1 2.742-1.846q1.608-.566 3.345-.197 1.409.3 2.37 1.044a5.2 5.2 0 0 1 1.541 1.75q.58 1.007.726 2.191a6.2 6.2 0 0 1-.096 2.335q-.06.257-.182.574-.094.3-.205.57l-10.377-2.206.432-1.87 9.109 1.936-1.227.622q.492-1.171.267-2.225a3.55 3.55 0 0 0-.964-1.799q-.739-.746-1.842-.981a3.9 3.9 0 0 0-2.149.132q-1.044.367-1.804 1.31-.73.924-.966 2.37-.412 1.36-.139 2.522a4.04 4.04 0 0 0 1.13 1.933q.857.77 2.007 1.015 1.268.27 2.271-.13a4.9 4.9 0 0 0 1.754-1.197l1.615 1.324q-.575.786-1.541 1.341a6.2 6.2 0 0 1-2.114.728q-1.153.196-2.468-.083m14.124 2.855q-1.854-.395-2.621-1.661-.743-1.262-.3-3.18l1.533-6.641-2.301-.489.481-2.081.469.1q.845.179 1.457-.23t.806-1.252l.238-1.029 2.183.464-.669 2.9 2.84.604-.48 2.081-2.841-.604-1.517 6.571q-.145.632-.066 1.139.103.513.508.893.41.357 1.185.522.164.035.404.061.264.031.481.054l-.443 1.917a4 4 0 0 1-.702-.051 5 5 0 0 1-.645-.088m8.035 1.855q-1.245-.264-2.104-.913-.831-.668-1.188-1.577-.351-.934-.108-1.986.233-1.005.839-1.711.635-.723 1.68-1.09 1.068-.362 2.531-.296l4.873.226-.421 1.824-4.364-.192q-1.269-.048-1.962.393a2 2 0 0 0-.859 1.265q-.178.771.314 1.416.515.649 1.454.849 1.197.254 2.179-.052a3.86 3.86 0 0 0 1.704-1.086 3.83 3.83 0 0 0 .959-1.808l.739-3.203q.238-1.03-.391-1.825-.6-.815-1.844-1.079a3.5 3.5 0 0 0-2.055.152 3.4 3.4 0 0 0-1.555 1.19l-1.675-1.386a4.3 4.3 0 0 1 1.483-1.304 6 6 0 0 1 2.061-.715 6.1 6.1 0 0 1 2.252.062q1.455.309 2.429 1.105.98.772 1.363 1.884.412 1.093.116 2.38l-1.976 8.559-2.137-.454.551-2.386.367.225a4.5 4.5 0 0 1-1.383 1.08q-.81.417-1.801.55a6 6 0 0 1-2.071-.097m10.211 1.876 2.91-12.604 2.183.464-2.91 12.604zm3.374-14.616.648-2.806 2.183.464-.648 2.807zm2.549 15.875 4.087-17.702 2.183.464-4.087 17.702zm11.68 2.777q-1.831-.389-3.063-1.559a6.2 6.2 0 0 1-1.709-2.841q-.471-1.694-.039-3.565.438-1.894 1.576-3.198a6.5 6.5 0 0 1 2.741-1.846q1.608-.566 3.346-.197 1.409.3 2.369 1.044a5.2 5.2 0 0 1 1.542 1.75q.58 1.007.725 2.191a6.2 6.2 0 0 1-.095 2.335q-.06.257-.182.574-.094.3-.206.57l-10.376-2.206.432-1.87 9.109 1.936-1.228.622q.492-1.171.268-2.225a3.55 3.55 0 0 0-.964-1.799q-.74-.746-1.842-.981a3.9 3.9 0 0 0-2.149.133q-1.045.366-1.804 1.309-.73.924-.966 2.37-.413 1.36-.139 2.522a4.03 4.03 0 0 0 1.13 1.933q.855.77 2.006 1.015 1.267.27 2.272-.13a4.9 4.9 0 0 0 1.754-1.197l1.615 1.324q-.576.786-1.541 1.341a6.2 6.2 0 0 1-2.114.728q-1.154.196-2.468-.083m14.702 3.125q-1.785-.38-3.017-1.549a6.24 6.24 0 0 1-1.685-2.836q-.476-1.671-.049-3.518.437-1.894 1.599-3.193a6.55 6.55 0 0 1 2.775-1.888q1.632-.561 3.416-.182 1.573.334 2.637 1.272a5.03 5.03 0 0 1 1.515 2.187l-.476.463 1.803-7.811 2.206.469-4.086 17.703-2.137-.455.621-2.689.195.434a4.8 4.8 0 0 1-2.367 1.509q-1.4.413-2.95.084m.673-2.065q1.197.254 2.272-.13a4.36 4.36 0 0 0 1.846-1.276 4.9 4.9 0 0 0 1.092-2.172q.297-1.286-.034-2.412a4.1 4.1 0 0 0-1.107-1.927q-.804-.784-2.001-1.039a4.05 4.05 0 0 0-2.277.154 4.35 4.35 0 0 0-1.846 1.276q-.766.867-1.069 2.177-.29 1.262.011 2.406a4.14 4.14 0 0 0 1.112 1.905q.804.784 2.001 1.038m15.444 5.196 2.429-10.523-2.418-.514.481-2.081 2.418.514.205-.889q.314-1.356 1.116-2.167a4.2 4.2 0 0 1 1.926-1.087 5.2 5.2 0 0 1 2.343-.017q.259.055.553.167.323.093.524.185l-.449 1.941a2 2 0 0 0-.435-.142 5 5 0 0 0-.393-.108q-1.08-.23-1.903.135-.8.37-1.075 1.562l-.205.889 3.004.639-.48 2.081-3.005-.639-2.429 10.524zm13.693 3.205q-1.83-.388-3.115-1.545a6.4 6.4 0 0 1-1.803-2.861q-.522-1.681-.085-3.575t1.622-3.188a6.8 6.8 0 0 1 2.888-1.84q1.679-.55 3.533-.156 1.831.389 3.11 1.569a6.1 6.1 0 0 1 1.79 2.809q.528 1.658.086 3.575t-1.681 3.225a7 7 0 0 1-2.911 1.834q-1.649.532-3.434.153m.486-2.104a4.05 4.05 0 0 0 2.248-.136 4.24 4.24 0 0 0 1.875-1.294q.8-.909 1.093-2.172.296-1.285-.04-2.388a4.1 4.1 0 0 0-1.135-1.909q-.799-.808-1.973-1.058a4.1 4.1 0 0 0-2.3.149 4.56 4.56 0 0 0-1.87 1.271q-.79.862-1.087 2.149-.291 1.262.035 2.411t1.13 1.933q.827.789 2.024 1.044m9.282 3.886 2.91-12.604 2.136.454-.535 2.315-.159-.377q.694-.981 1.729-1.301 1.04-.343 2.354-.064l.775.165-.475 2.058-1.104-.235q-1.338-.285-2.354.383-1.01.643-1.361 2.164l-1.733 7.506zm8.559 1.82 2.91-12.605 2.136.454-.594 2.572-.213-.462q.745-1.092 1.924-1.505a4.5 4.5 0 0 1 2.469-.137q1.48.315 2.464 1.382 1.008 1.074 1.147 2.501l-.616-.106q.833-1.369 2.18-1.868a4.8 4.8 0 0 1 2.784-.217q1.315.28 2.23 1.112a4.53 4.53 0 0 1 1.325 2.048q.385 1.21.073 2.566l-1.885 8.162-2.206-.469 1.722-7.46q.243-1.053.035-1.857a2.76 2.76 0 0 0-.774-1.342q-.537-.556-1.405-.741a2.94 2.94 0 0 0-1.623.097q-.75.258-1.321.921-.543.645-.781 1.674l-1.722 7.46-2.207-.469 1.722-7.46q.243-1.052.035-1.857a2.77 2.77 0 0 0-.774-1.342q-.537-.555-1.405-.74a2.94 2.94 0 0 0-1.623.096q-.749.258-1.321.922-.543.645-.781 1.674l-1.722 7.46zm29.108 6.187-1.433-13.528 2.418.514 1.016 11.28-.839-.203 5.809-9.805 2.066.44.951 11.241-.85-.156 5.909-9.808 2.395.509-7.253 11.681-2.09-.444-.904-11.232.658.14-5.763 9.815zm16.836 3.578 2.91-12.604 2.183.464-2.91 12.604zm3.374-14.615.648-2.806 2.184.464-.648 2.806zm7.658 17.107q-1.854-.393-2.621-1.661-.743-1.262-.3-3.179l1.533-6.642-2.301-.489.481-2.081.469.1q.846.18 1.457-.23t.806-1.252l.238-1.028 2.183.464-.669 2.899 2.84.604-.48 2.081-2.841-.603-1.517 6.571q-.146.631-.066 1.139.103.512.508.893.41.357 1.185.521.164.035.404.062.264.032.481.053l-.443 1.917a4 4 0 0 1-.702-.051 5 5 0 0 1-.645-.088m4.551.821 4.087-17.703 2.183.464-1.744 7.554-.35-.296q.744-1.092 1.929-1.528 1.212-.453 2.621-.154 1.362.29 2.278 1.122a4.37 4.37 0 0 1 1.301 2.043q.386 1.21.073 2.567l-1.884 8.161-2.207-.469 1.722-7.46q.243-1.052.011-1.862a2.7 2.7 0 0 0-.797-1.347q-.583-.566-1.476-.755a3.1 3.1 0 0 0-1.67.086 2.94 2.94 0 0 0-1.368.912q-.565.64-.804 1.669l-1.722 7.46zm17.873 9.196a5.3 5.3 0 0 1-.829-.25 3.4 3.4 0 0 1-.744-.404l.448-1.941q.248.102.612.229.383.155.758.234 1.104.235 1.781-.136.695-.343 1.481-1.403l1.235-1.724-.484 1.884-2.273-14.688 2.371.504 1.718 11.651-.704-.15 6.662-9.869 2.418.514-8.96 12.889a7.8 7.8 0 0 1-1.454 1.604 4.8 4.8 0 0 1-1.81 1.014q-1.005.302-2.226.042m19.55-.948q-1.83-.388-3.115-1.545a6.4 6.4 0 0 1-1.803-2.861q-.522-1.681-.085-3.575t1.622-3.188a6.8 6.8 0 0 1 2.888-1.84q1.678-.55 3.533-.156 1.831.389 3.11 1.569a6.1 6.1 0 0 1 1.79 2.809q.529 1.658.085 3.575-.442 1.917-1.68 3.225a7 7 0 0 1-2.911 1.834q-1.65.532-3.434.153m.486-2.104a4.05 4.05 0 0 0 2.248-.136 4.24 4.24 0 0 0 1.875-1.294 4.9 4.9 0 0 0 1.092-2.172q.297-1.285-.039-2.388a4.1 4.1 0 0 0-1.136-1.909q-.798-.808-1.972-1.058a4.1 4.1 0 0 0-2.3.149 4.56 4.56 0 0 0-1.87 1.271q-.79.862-1.087 2.149-.291 1.262.034 2.411.327 1.149 1.13 1.933.828.789 2.025 1.044m13.7 5.12q-1.36-.29-2.319-1.156a4.45 4.45 0 0 1-1.285-2.113q-.322-1.27.018-2.743l1.819-7.881 2.183.464-1.765 7.647q-.216.935-.002 1.716.237.788.826 1.329.613.548 1.504.737.892.189 1.665-.063a2.77 2.77 0 0 0 1.344-.917q.572-.663.81-1.692l1.722-7.46 2.207.469-2.91 12.605-2.137-.454.567-2.456.304.286a3.86 3.86 0 0 1-1.958 1.546q-1.207.43-2.593.136m9.551 1.736 2.91-12.605 2.136.454-.534 2.315-.159-.377q.694-.981 1.729-1.301 1.039-.343 2.354-.064l.775.165-.476 2.058-1.103-.235q-1.338-.284-2.354.383-1.011.644-1.362 2.164l-1.733 7.507zM72.412 162.828l1.7-7.366.266.449a4.8 4.8 0 0 1-2.368 1.508q-1.4.414-2.95.085-1.785-.38-3.016-1.549a6.23 6.23 0 0 1-1.685-2.836q-.476-1.671-.05-3.519.438-1.894 1.6-3.192a6.55 6.55 0 0 1 2.775-1.888q1.631-.561 3.416-.182 1.572.334 2.637 1.272a5 5 0 0 1 1.514 2.186l-.405.478.626-2.712 2.136.454-3.99 17.281zm-2.678-7.389q1.197.254 2.271-.13a4.36 4.36 0 0 0 1.846-1.276q.8-.909 1.093-2.172.297-1.287-.035-2.412a4.1 4.1 0 0 0-1.106-1.928q-.804-.784-2.001-1.038a4.04 4.04 0 0 0-2.277.154 4.36 4.36 0 0 0-1.846 1.275q-.767.868-1.069 2.177-.29 1.263.01 2.407a4.13 4.13 0 0 0 1.113 1.904q.804.784 2.001 1.039m14.115 5.208q-1.362-.29-2.32-1.155a4.45 4.45 0 0 1-1.285-2.113q-.323-1.27.018-2.744l1.82-7.881 2.183.464-1.766 7.647q-.216.936-.002 1.717.237.786.826 1.328.612.548 1.505.737.892.19 1.664-.063a2.8 2.8 0 0 0 1.344-.916q.572-.664.81-1.693l1.722-7.459 2.207.469-2.91 12.604-2.136-.454.567-2.455.303.285a3.86 3.86 0 0 1-1.958 1.546q-1.208.43-2.592.136m13.195 2.805q-1.245-.264-2.105-.914-.83-.666-1.187-1.577-.351-.933-.108-1.985.232-1.006.838-1.711.636-.724 1.68-1.09 1.07-.362 2.532-.296l4.873.226-.421 1.824-4.364-.192q-1.27-.049-1.963.393-.669.446-.858 1.265-.178.771.313 1.416.516.648 1.454.848 1.198.255 2.18-.052a3.85 3.85 0 0 0 1.703-1.085 3.8 3.8 0 0 0 .959-1.808l.74-3.203q.237-1.03-.391-1.825-.6-.815-1.845-1.079a3.5 3.5 0 0 0-2.054.152 3.4 3.4 0 0 0-1.556 1.19l-1.674-1.386a4.3 4.3 0 0 1 1.483-1.304 6 6 0 0 1 2.061-.715q1.124-.178 2.252.062 1.455.309 2.429 1.105.98.772 1.363 1.884.412 1.093.115 2.38l-1.976 8.558-2.136-.454.551-2.385.366.225a4.5 4.5 0 0 1-1.382 1.08q-.81.417-1.801.55a6 6 0 0 1-2.071-.097m10.21 1.876 4.087-17.703 2.184.465-4.087 17.702zm5.923 1.259 2.91-12.605 2.184.464-2.91 12.605zm3.375-14.616.648-2.806 2.183.464-.648 2.806zm3.887 16.159 2.429-10.523-2.418-.514.481-2.081 2.418.514.205-.889q.312-1.356 1.116-2.167a4.2 4.2 0 0 1 1.925-1.087 5.2 5.2 0 0 1 2.344-.017q.258.055.552.166.324.094.524.185l-.448 1.941a2 2 0 0 0-.435-.141 5 5 0 0 0-.394-.108q-1.08-.23-1.903.135-.8.37-1.075 1.562l-.205.889 6.573 1.397-.48 2.081-6.573-1.397-2.43 10.523zm7.418 1.577 2.91-12.604 2.206.469-2.909 12.604zm11.384 2.714q-1.854-.394-3.11-1.569a6.17 6.17 0 0 1-1.709-2.841q-.476-1.67-.044-3.542.438-1.894 1.599-3.192a6.55 6.55 0 0 1 2.794-1.86q1.655-.555 3.51-.161a6.1 6.1 0 0 1 2.221.938 6.4 6.4 0 0 1 1.626 1.597q.65.922.793 2.008l-2.165.521a3.7 3.7 0 0 0-.994-1.879q-.77-.826-1.967-1.081a4 4 0 0 0-2.225.141q-1.05.39-1.822 1.28-.772.891-1.075 2.201-.29 1.263.011 2.406.308 1.12 1.089 1.9a3.9 3.9 0 0 0 1.954 1.029q1.197.254 2.253-.159a4.03 4.03 0 0 0 1.745-1.371l1.722 1.396a4.9 4.9 0 0 1-1.602 1.499 6.7 6.7 0 0 1-2.177.789 6.2 6.2 0 0 1-2.427-.05m12.177 2.588q-1.245-.264-2.104-.913-.831-.667-1.188-1.577-.351-.933-.108-1.986.233-1.005.839-1.71.635-.724 1.68-1.091 1.068-.362 2.531-.296l4.873.226-.421 1.824-4.364-.191q-1.269-.05-1.962.392-.67.447-.859 1.265-.178.772.314 1.416.515.65 1.454.849 1.197.254 2.179-.052a3.86 3.86 0 0 0 1.704-1.085 3.84 3.84 0 0 0 .959-1.808l.739-3.204q.238-1.029-.391-1.825-.6-.814-1.844-1.079a3.5 3.5 0 0 0-2.055.152 3.4 3.4 0 0 0-1.555 1.191l-1.675-1.387q.552-.79 1.483-1.304a6 6 0 0 1 2.061-.714 6.1 6.1 0 0 1 2.252.061q1.455.31 2.429 1.105.98.772 1.363 1.885.413 1.094.116 2.379l-1.976 8.559-2.137-.454.551-2.385.367.225a4.6 4.6 0 0 1-1.383 1.08q-.81.417-1.801.549a6 6 0 0 1-2.071-.097m15.09 3.061q-1.854-.395-2.621-1.661-.743-1.262-.3-3.18l1.533-6.641-2.3-.489.48-2.081.47.1q.845.18 1.456-.231.612-.41.807-1.251l.237-1.029 2.183.464-.669 2.9 2.84.604-.48 2.081-2.841-.604-1.517 6.571q-.146.632-.066 1.139.104.513.508.893.411.357 1.185.522.165.035.405.061.263.032.48.053l-.443 1.918a4.5 4.5 0 0 1-.702-.051 6 6 0 0 1-.645-.088m4.551.82 2.91-12.604 2.184.464-2.91 12.604zm3.375-14.616.647-2.806 2.184.464-.648 2.806zm8.493 17.433q-1.83-.39-3.115-1.545a6.4 6.4 0 0 1-1.803-2.861q-.523-1.682-.085-3.576.437-1.894 1.622-3.188a6.8 6.8 0 0 1 2.888-1.839q1.678-.551 3.533-.157 1.831.39 3.11 1.569a6.1 6.1 0 0 1 1.79 2.809q.528 1.657.085 3.576-.442 1.917-1.68 3.224a7 7 0 0 1-2.911 1.835q-1.65.532-3.434.153m.486-2.105a4.05 4.05 0 0 0 2.248-.135 4.26 4.26 0 0 0 1.875-1.294 4.9 4.9 0 0 0 1.092-2.172q.297-1.287-.039-2.388a4.1 4.1 0 0 0-1.136-1.91 3.8 3.8 0 0 0-1.972-1.057 4.1 4.1 0 0 0-2.3.149 4.55 4.55 0 0 0-1.87 1.271q-.79.862-1.087 2.148-.291 1.263.034 2.412.326 1.149 1.13 1.933.828.79 2.025 1.043m9.281 3.887 2.91-12.605 2.137.454-.567 2.456-.304-.286q.746-1.093 1.929-1.528 1.214-.453 2.622-.154 1.361.29 2.277 1.122a4.37 4.37 0 0 1 1.302 2.043q.386 1.21.072 2.567l-1.884 8.161-2.207-.469 1.723-7.46q.243-1.051.034-1.857a2.7 2.7 0 0 0-.82-1.352q-.584-.566-1.476-.755a3.15 3.15 0 0 0-1.694.082 3 3 0 0 0-1.344.916q-.567.64-.804 1.669l-1.722 7.46zm18.436 4.213q-1.901-.405-3.094-1.639a5.06 5.06 0 0 1-1.412-2.95l1.931-.473q.282 1.237 1.069 2.092t1.938 1.099q1.034.22 1.827-.127.795-.346.978-1.141.13-.562-.124-.959a2 2 0 0 0-.627-.697 4.5 4.5 0 0 0-.751-.479l-1.777-.942q-1.601-.855-2.188-1.937a3.23 3.23 0 0 1-.284-2.293q.26-1.122 1.012-1.821a4.1 4.1 0 0 1 1.875-.975q1.117-.253 2.362.011 1.666.354 2.787 1.476 1.143 1.127 1.356 2.766l-1.973.439a3.44 3.44 0 0 0-.912-1.813 3.3 3.3 0 0 0-1.766-.989q-.963-.204-1.639.167a1.55 1.55 0 0 0-.839 1.073q-.124.538.076.948.207.388.562.66.362.248.71.445l1.926 1.047q1.446.773 2.076 1.889.653 1.12.35 2.429a3.4 3.4 0 0 1-1.024 1.77q-.782.717-1.922.965-1.141.248-2.503-.041m7.501 4.71.243-1.053q.771-.032 1.271-.49t.763-1.383l-1.057-.225.648-2.806 2.277.484-.459 1.988q-.388 1.683-1.33 2.563-.918.883-2.356.922m17.91.691q-1.831-.39-3.064-1.559a6.2 6.2 0 0 1-1.708-2.841q-.471-1.695-.039-3.565.438-1.895 1.576-3.198a6.5 6.5 0 0 1 2.741-1.846q1.608-.566 3.345-.197 1.409.3 2.37 1.044a5.2 5.2 0 0 1 1.541 1.75q.58 1.006.726 2.191a6.2 6.2 0 0 1-.096 2.334 4 4 0 0 1-.182.575q-.093.298-.205.57l-10.376-2.206.432-1.871 9.108 1.936-1.227.623q.492-1.172.267-2.225a3.55 3.55 0 0 0-.963-1.799q-.74-.746-1.843-.981a3.9 3.9 0 0 0-2.148.132q-1.045.367-1.805 1.309-.73.925-.966 2.371-.412 1.36-.139 2.522a4.05 4.05 0 0 0 1.13 1.933q.857.77 2.007 1.015 1.268.27 2.271-.13a4.85 4.85 0 0 0 1.754-1.198l1.615 1.325q-.575.785-1.54 1.341-.937.536-2.114.728-1.154.196-2.468-.083m7.353 1.269 5.895-5.371-2.961-7.229 2.629.559 2.516 6.275-1.338-.284 4.996-4.679 2.653.564-5.866 5.353 2.932 7.247-2.629-.559-2.469-6.266 1.315.28-4.996 4.678zm12.695 7.604 3.989-17.281 2.137.454-.627 2.713-.157-.598a5.3 5.3 0 0 1 2.335-1.368q1.377-.418 2.95-.085 1.784.38 2.993 1.544a6.2 6.2 0 0 1 1.709 2.841q.481 1.648.044 3.542-.426 1.847-1.594 3.17a6.5 6.5 0 0 1-2.799 1.882q-1.608.566-3.416.182-1.526-.324-2.637-1.272a4.73 4.73 0 0 1-1.482-2.327l.439-.299-1.701 7.366zm7.886-5.143q1.197.254 2.271-.131a4.2 4.2 0 0 0 1.823-1.281q.777-.914 1.069-2.177.302-1.31-.011-2.406a3.97 3.97 0 0 0-1.088-1.9q-.8-.807-1.996-1.062a4.2 4.2 0 0 0-2.295.126 4.5 4.5 0 0 0-1.875 1.294q-.772.89-1.069 2.177-.292 1.263.011 2.406a4.3 4.3 0 0 0 1.135 1.91q.828.789 2.025 1.044m15.007 5.397q-1.831-.389-3.064-1.559a6.17 6.17 0 0 1-1.708-2.84q-.471-1.695-.039-3.566.438-1.894 1.576-3.198a6.5 6.5 0 0 1 2.741-1.846q1.608-.566 3.345-.196 1.409.299 2.37 1.043a5.2 5.2 0 0 1 1.541 1.751q.58 1.006.726 2.19a6.2 6.2 0 0 1-.096 2.335 4 4 0 0 1-.182.574q-.093.3-.205.57l-10.376-2.205.432-1.871 9.108 1.936-1.227.622q.492-1.171.267-2.225a3.55 3.55 0 0 0-.963-1.799q-.74-.746-1.843-.98a3.9 3.9 0 0 0-2.148.132q-1.045.366-1.805 1.309-.73.924-.966 2.37-.412 1.36-.139 2.522a4.05 4.05 0 0 0 1.13 1.933q.856.771 2.007 1.016 1.267.269 2.271-.131a4.9 4.9 0 0 0 1.754-1.197l1.615 1.324q-.575.786-1.54 1.341a6.2 6.2 0 0 1-2.114.728q-1.154.197-2.468-.083m9.015 1.622 2.91-12.604 2.136.454-.535 2.315-.159-.378q.694-.98 1.729-1.3 1.04-.343 2.354-.064l.775.165-.475 2.057-1.103-.234q-1.339-.285-2.355.383-1.01.643-1.361 2.164l-1.733 7.506zm8.559 1.819 2.91-12.604 2.183.464-2.91 12.604zm3.374-14.615.648-2.806 2.183.464-.647 2.806zm8.306 17.392q-1.832-.389-3.063-1.558a6.2 6.2 0 0 1-1.709-2.841q-.47-1.695-.038-3.566.436-1.893 1.575-3.197a6.5 6.5 0 0 1 2.741-1.847q1.61-.565 3.346-.196 1.409.299 2.37 1.043a5.2 5.2 0 0 1 1.541 1.751q.58 1.007.726 2.19a6.2 6.2 0 0 1-.096 2.335q-.06.257-.182.575a7 7 0 0 1-.205.569l-10.377-2.205.432-1.871 9.109 1.936-1.227.622q.492-1.17.267-2.224a3.55 3.55 0 0 0-.964-1.8q-.739-.746-1.842-.98a3.9 3.9 0 0 0-2.149.132q-1.045.367-1.804 1.309-.73.924-.966 2.371-.412 1.36-.139 2.522a4.04 4.04 0 0 0 1.13 1.932q.856.771 2.007 1.016 1.267.269 2.271-.131a4.84 4.84 0 0 0 1.754-1.197l1.615 1.325q-.575.785-1.541 1.34a6.2 6.2 0 0 1-2.114.729q-1.153.196-2.468-.084m9.015 1.622 2.91-12.604 2.136.454-.566 2.455-.304-.285q.745-1.093 1.929-1.528 1.213-.453 2.621-.154 1.362.29 2.278 1.122a4.4 4.4 0 0 1 1.302 2.043q.385 1.21.072 2.566l-1.884 8.162-2.207-.469 1.722-7.46q.243-1.053.035-1.857a2.67 2.67 0 0 0-.821-1.352q-.584-.566-1.475-.755a3.14 3.14 0 0 0-1.694.081 3 3 0 0 0-1.344.917q-.567.64-.804 1.669l-1.723 7.459zm19.774 4.498q-1.854-.395-3.11-1.569a6.2 6.2 0 0 1-1.709-2.841q-.476-1.671-.044-3.542.438-1.894 1.599-3.193a6.55 6.55 0 0 1 2.794-1.859q1.655-.556 3.51-.162a6.1 6.1 0 0 1 2.221.938q.978.675 1.626 1.597.65.923.793 2.009l-2.165.521a3.7 3.7 0 0 0-.994-1.88q-.77-.826-1.967-1.08a4 4 0 0 0-2.225.14q-1.05.39-1.822 1.281t-1.075 2.2q-.29 1.263.011 2.407.307 1.12 1.089 1.899a3.9 3.9 0 0 0 1.954 1.029q1.197.255 2.253-.159a4 4 0 0 0 1.745-1.371l1.722 1.397a4.94 4.94 0 0 1-1.602 1.499 6.7 6.7 0 0 1-2.177.788 6.2 6.2 0 0 1-2.427-.049m14.45 3.071q-1.832-.389-3.063-1.559a6.16 6.16 0 0 1-1.708-2.841q-.471-1.694-.039-3.565.436-1.895 1.575-3.198a6.5 6.5 0 0 1 2.741-1.846q1.61-.566 3.346-.196 1.409.299 2.37 1.043a5.2 5.2 0 0 1 1.541 1.751q.58 1.007.726 2.19a6.2 6.2 0 0 1-.096 2.335q-.06.257-.182.574-.094.3-.205.57l-10.377-2.205.432-1.871 9.109 1.936-1.227.622q.492-1.171.267-2.225a3.55 3.55 0 0 0-.964-1.799q-.739-.746-1.842-.98a3.9 3.9 0 0 0-2.149.132q-1.045.366-1.804 1.309-.73.924-.966 2.37-.412 1.36-.139 2.522a4.04 4.04 0 0 0 1.13 1.933q.857.771 2.007 1.016 1.267.269 2.271-.131a4.9 4.9 0 0 0 1.754-1.197l1.615 1.324q-.575.786-1.541 1.341a6.2 6.2 0 0 1-2.114.728q-1.153.197-2.468-.083m8.64 4.952.243-1.052q.771-.033 1.271-.49.5-.459.763-1.384l-1.057-.224.648-2.807 2.277.485-.459 1.987q-.388 1.684-1.33 2.563-.918.885-2.356.922m-304.44-35.41 2.91-12.605 2.136.454-.534 2.315-.16-.377q.695-.981 1.73-1.301 1.039-.343 2.354-.064l.774.165-.475 2.058-1.103-.235q-1.338-.284-2.354.383-1.011.644-1.362 2.164l-1.733 7.507zm14.317 3.337q-1.831-.39-3.064-1.559a6.2 6.2 0 0 1-1.708-2.841q-.471-1.695-.039-3.565.438-1.894 1.576-3.198a6.5 6.5 0 0 1 2.74-1.846q1.61-.566 3.346-.197 1.41.3 2.37 1.044a5.2 5.2 0 0 1 1.541 1.75q.581 1.006.726 2.191a6.2 6.2 0 0 1-.096 2.334q-.06.258-.181.575a7 7 0 0 1-.206.57l-10.376-2.206.432-1.871 9.108 1.937-1.227.622q.492-1.171.267-2.225a3.55 3.55 0 0 0-.963-1.799q-.74-.746-1.843-.981a3.9 3.9 0 0 0-2.148.132q-1.045.367-1.805 1.31-.73.924-.966 2.37-.412 1.36-.139 2.522a4.05 4.05 0 0 0 1.13 1.933q.856.77 2.007 1.015 1.267.27 2.271-.13A4.85 4.85 0 0 0 75 187.207l1.616 1.325q-.576.786-1.541 1.341-.938.536-2.114.728-1.154.196-2.468-.083m10.353 1.906 2.43-10.523-2.419-.514.48-2.081 2.419.514.205-.889q.313-1.356 1.116-2.167a4.2 4.2 0 0 1 1.926-1.087 5.2 5.2 0 0 1 2.343-.017q.258.055.553.166.323.094.523.185l-.448 1.941a2 2 0 0 0-.435-.141 5 5 0 0 0-.394-.108q-1.08-.23-1.903.135-.798.37-1.074 1.562l-.206.889 3.005.639-.48 2.081-3.005-.639-2.43 10.523zm13.505 3.165q-1.83-.389-3.063-1.559a6.17 6.17 0 0 1-1.708-2.84q-.471-1.695-.039-3.566.437-1.895 1.576-3.198a6.5 6.5 0 0 1 2.74-1.846q1.61-.565 3.346-.196 1.41.299 2.37 1.043a5.2 5.2 0 0 1 1.541 1.751q.58 1.007.726 2.19a6.2 6.2 0 0 1-.096 2.335 4 4 0 0 1-.182.574q-.094.3-.205.57l-10.376-2.205.432-1.871 9.108 1.936-1.227.622q.492-1.171.267-2.224a3.55 3.55 0 0 0-.963-1.8q-.74-.746-1.843-.98a3.9 3.9 0 0 0-2.148.132q-1.046.367-1.805 1.309-.73.924-.966 2.371-.412 1.36-.139 2.521a4.04 4.04 0 0 0 1.13 1.933q.856.771 2.007 1.016 1.267.269 2.271-.131a4.9 4.9 0 0 0 1.754-1.197l1.615 1.324q-.575.786-1.54 1.341a6.2 6.2 0 0 1-2.114.728q-1.154.197-2.469-.083m9.016 1.622 2.91-12.604 2.136.454-.535 2.315-.159-.377q.694-.981 1.729-1.301 1.04-.343 2.354-.064l.775.165-.475 2.058-1.104-.235q-1.338-.285-2.354.383-1.01.643-1.361 2.164l-1.733 7.506zm14.316 3.338q-1.832-.39-3.063-1.559a6.2 6.2 0 0 1-1.709-2.841q-.47-1.695-.038-3.566.436-1.893 1.575-3.197a6.5 6.5 0 0 1 2.741-1.846q1.61-.566 3.346-.197 1.409.3 2.369 1.043a5.24 5.24 0 0 1 1.542 1.751q.58 1.007.726 2.19a6.2 6.2 0 0 1-.096 2.335q-.06.257-.182.575a7 7 0 0 1-.205.569l-10.377-2.205.432-1.871 9.109 1.936-1.228.622q.493-1.17.268-2.224a3.56 3.56 0 0 0-.964-1.8q-.74-.746-1.842-.98a3.9 3.9 0 0 0-2.149.132q-1.044.367-1.804 1.309-.73.924-.966 2.371-.412 1.36-.139 2.522a4.04 4.04 0 0 0 1.13 1.933q.857.77 2.006 1.015 1.269.27 2.272-.131a4.84 4.84 0 0 0 1.754-1.197l1.615 1.325q-.576.785-1.541 1.34a6.2 6.2 0 0 1-2.114.729q-1.153.196-2.468-.083m9.015 1.621 2.91-12.604 2.136.454-.567 2.455-.303-.285q.744-1.093 1.929-1.528 1.213-.454 2.621-.154 1.362.29 2.278 1.122a4.4 4.4 0 0 1 1.302 2.043q.386 1.21.072 2.567l-1.884 8.161-2.207-.469 1.722-7.46q.243-1.052.035-1.857a2.67 2.67 0 0 0-.821-1.352q-.583-.566-1.476-.755a3.15 3.15 0 0 0-1.693.081 3 3 0 0 0-1.344.917q-.567.64-.804 1.669l-1.723 7.459zm19.774 4.498q-1.854-.395-3.11-1.569a6.2 6.2 0 0 1-1.709-2.841q-.476-1.671-.044-3.542.438-1.894 1.599-3.193a6.56 6.56 0 0 1 2.794-1.859q1.655-.557 3.51-.162a6.1 6.1 0 0 1 2.221.938q.978.675 1.626 1.597a4.5 4.5 0 0 1 .793 2.009l-2.165.521a3.73 3.73 0 0 0-.994-1.88q-.77-.826-1.967-1.08a4 4 0 0 0-2.225.14 4.4 4.4 0 0 0-1.822 1.281q-.772.89-1.075 2.2-.29 1.264.011 2.407.308 1.12 1.089 1.9a3.9 3.9 0 0 0 1.954 1.028q1.197.255 2.253-.159a4 4 0 0 0 1.745-1.371l1.722 1.397a4.94 4.94 0 0 1-1.602 1.499 6.7 6.7 0 0 1-2.177.789 6.2 6.2 0 0 1-2.427-.05m14.45 3.071q-1.832-.389-3.063-1.558a6.2 6.2 0 0 1-1.709-2.841q-.47-1.695-.038-3.566.436-1.894 1.575-3.198 1.162-1.298 2.741-1.846 1.61-.565 3.346-.196 1.409.299 2.369 1.043a5.2 5.2 0 0 1 1.542 1.751q.58 1.006.726 2.19a6.2 6.2 0 0 1-.096 2.335q-.06.257-.182.574-.094.3-.205.57l-10.377-2.205.432-1.871 9.109 1.936-1.228.622q.493-1.171.268-2.224a3.55 3.55 0 0 0-.964-1.8q-.74-.746-1.842-.98a3.9 3.9 0 0 0-2.149.132q-1.045.367-1.804 1.309-.73.924-.966 2.371-.412 1.36-.139 2.521a4.03 4.03 0 0 0 1.13 1.933q.857.771 2.006 1.016 1.269.269 2.272-.131a4.9 4.9 0 0 0 1.754-1.197l1.615 1.324q-.576.786-1.541 1.341a6.2 6.2 0 0 1-2.114.728q-1.153.197-2.468-.083m13.481 2.866q-1.902-.405-3.094-1.639a5.06 5.06 0 0 1-1.412-2.95l1.931-.472q.281 1.237 1.069 2.091t1.938 1.099q1.033.22 1.827-.127.794-.346.978-1.141.13-.561-.124-.959a2 2 0 0 0-.627-.697 4.5 4.5 0 0 0-.751-.479l-1.778-.942q-1.6-.855-2.187-1.937-.565-1.077-.284-2.293.26-1.122 1.012-1.821a4.1 4.1 0 0 1 1.875-.975q1.118-.253 2.361.011 1.668.354 2.788 1.476 1.143 1.126 1.356 2.766l-1.973.439a3.44 3.44 0 0 0-.912-1.813 3.3 3.3 0 0 0-1.766-.989q-.963-.204-1.64.167-.671.348-.838 1.073-.125.538.076.949.207.387.562.659.362.248.71.445l1.926 1.047q1.446.774 2.076 1.889.652 1.12.35 2.429a3.4 3.4 0 0 1-1.024 1.77q-.782.717-1.922.965-1.141.249-2.503-.041m18.043 3.835q-1.83-.389-3.063-1.559a6.17 6.17 0 0 1-1.708-2.841q-.471-1.694-.039-3.565.437-1.895 1.575-3.198a6.5 6.5 0 0 1 2.742-1.846q1.608-.566 3.345-.197 1.408.3 2.37 1.044a5.2 5.2 0 0 1 1.541 1.75q.58 1.006.726 2.191a6.2 6.2 0 0 1-.096 2.335q-.06.257-.182.574-.094.3-.205.57l-10.376-2.206.431-1.87 9.109 1.936-1.227.622q.492-1.171.267-2.225a3.55 3.55 0 0 0-.964-1.799q-.739-.746-1.842-.981a3.9 3.9 0 0 0-2.149.132q-1.045.367-1.804 1.31-.73.924-.966 2.37-.412 1.36-.139 2.522a4.04 4.04 0 0 0 1.13 1.933q.856.77 2.007 1.015 1.268.27 2.271-.13a4.9 4.9 0 0 0 1.754-1.197l1.615 1.324q-.575.786-1.541 1.341a6.2 6.2 0 0 1-2.114.728q-1.153.196-2.468-.083m14.124 2.855q-1.854-.395-2.621-1.661-.743-1.262-.3-3.18l1.533-6.641-2.301-.489.481-2.081.469.1q.845.179 1.457-.23t.806-1.252l.238-1.029 2.183.464-.669 2.9 2.84.604-.48 2.081-2.841-.604-1.517 6.571q-.145.632-.066 1.139.103.513.508.893.411.357 1.185.522.165.035.404.061.264.032.481.053l-.443 1.918a4 4 0 0 1-.702-.051 5 5 0 0 1-.645-.088m10.011 2.275q-1.854-.394-3.11-1.569a6.17 6.17 0 0 1-1.708-2.841q-.476-1.671-.045-3.542.438-1.894 1.6-3.192a6.54 6.54 0 0 1 2.793-1.86q1.655-.556 3.51-.162a6.1 6.1 0 0 1 2.221.939 6.4 6.4 0 0 1 1.627 1.597q.648.922.792 2.008l-2.165.521a3.7 3.7 0 0 0-.994-1.879q-.77-.826-1.967-1.081a4 4 0 0 0-2.224.141 4.4 4.4 0 0 0-1.823 1.28q-.772.891-1.074 2.201-.292 1.263.01 2.406.308 1.12 1.089 1.9a3.9 3.9 0 0 0 1.954 1.028q1.197.255 2.253-.158a4.03 4.03 0 0 0 1.745-1.371l1.722 1.396a4.94 4.94 0 0 1-1.602 1.499 6.7 6.7 0 0 1-2.177.789 6.2 6.2 0 0 1-2.427-.05m9.585 1.743.648-2.806 2.277.484-.648 2.806z"/><path fill="#0A964B" d="m558.704 79.874 4.041-17.503-5.282-1.123.454-1.964q5.385.998 7.036-3.436l2.289.487-5.58 24.168z"/></g><defs><filter id="a" width="621.376" height="373.111" x="0" y="0" color-interpolation-filters="sRGB" filterUnits="userSpaceOnUse"><feFlood flood-opacity="0" result="BackgroundImageFix"/><feColorMatrix in="SourceAlpha" result="hardAlpha" values="0 0 0 0 0 0 0 0 0 0 0 0 0 0 0 0 0 0 127 0"/><feOffset dx="4" dy="8"/><feGaussianBlur stdDeviation="4"/><feComposite in2="hardAlpha" operator="out"/><feColorMatrix values="0 0 0 0 0 0 0 0 0 0 0 0 0 0 0 0 0 0 0.25 0"/><feBlend in2="BackgroundImageFix" result="effect1_dropShadow_1724_1997"/><feBlend in="SourceGraphic" in2="effect1_dropShadow_1724_1997" result="shape"/></filter><filter id="c" width="555.552" height="145.385" x="-5.475" y="216.796" color-interpolation-filters="sRGB" filterUnits="userSpaceOnUse"><feFlood flood-opacity="0" result="BackgroundImageFix"/><feBlend in="SourceGraphic" in2="BackgroundImageFix" result="shape"/><feTurbulence baseFrequency="1 1" numOctaves="3" result="noise" seed="1706" stitchTiles="stitch" type="fractalNoise"/><feColorMatrix in="noise" result="alphaNoise" type="luminanceToAlpha"/><feComponentTransfer in="alphaNoise" result="coloredNoise1"><feFuncA tableValues="1 1 1 1 1 1 1 1 1 1 1 1 1 1 1 1 1 1 1 1 1 1 1 1 1 1 1 1 1 1 1 1 1 1 1 1 1 1 1 1 1 1 1 1 1 1 1 1 1 1 1 0 0 0 0 0 0 0 0 0 0 0 0 0 0 0 0 0 0 0 0 0 0 0 0 0 0 0 0 0 0 0 0 0 0 0 0 0 0 0 0 0 0 0 0 0 0 0 0 0" type="discrete"/></feComponentTransfer><feComposite in="coloredNoise1" in2="shape" operator="in" result="noise1Clipped"/><feFlood flood-color="rgba(0, 0, 0, 0.05)" result="color1Flood"/><feComposite in="color1Flood" in2="noise1Clipped" operator="in" result="color1"/><feMerge result="effect1_noise_1724_1997"><feMergeNode in="shape"/><feMergeNode in="color1"/></feMerge></filter><filter id="e" width="80.247" height="359.664" x="533.755" y="10.918" color-interpolation-filters="sRGB" filterUnits="userSpaceOnUse"><feFlood flood-opacity="0" result="BackgroundImageFix"/><feBlend in="SourceGraphic" in2="BackgroundImageFix" result="shape"/><feTurbulence baseFrequency="1 1" numOctaves="3" result="noise" seed="1706" stitchTiles="stitch" type="fractalNoise"/><feColorMatrix in="noise" result="alphaNoise" type="luminanceToAlpha"/><feComponentTransfer in="alphaNoise" result="coloredNoise1"><feFuncA tableValues="1 1 1 1 1 1 1 1 1 1 1 1 1 1 1 1 1 1 1 1 1 1 1 1 1 1 1 1 1 1 1 1 1 1 1 1 1 1 1 1 1 1 1 1 1 1 1 1 1 1 1 0 0 0 0 0 0 0 0 0 0 0 0 0 0 0 0 0 0 0 0 0 0 0 0 0 0 0 0 0 0 0 0 0 0 0 0 0 0 0 0 0 0 0 0 0 0 0 0 0" type="discrete"/></feComponentTransfer><feComposite in="coloredNoise1" in2="shape" operator="in" result="noise1Clipped"/><feFlood flood-color="rgba(0, 0, 0, 0.05)" result="color1Flood"/><feComposite in="color1Flood" in2="noise1Clipped" operator="in" result="color1"/><feMerge result="effect1_noise_1724_1997"><feMergeNode in="shape"/><feMergeNode in="color1"/></feMerge></filter><filter id="g" width="605.374" height="345.176" x="4" y="0" color-interpolation-filters="sRGB" filterUnits="userSpaceOnUse"><feFlood flood-opacity="0" result="BackgroundImageFix"/><feBlend in="SourceGraphic" in2="BackgroundImageFix" result="shape"/><feTurbulence baseFrequency="1 1" numOctaves="3" result="noise" seed="1706" stitchTiles="stitch" type="fractalNoise"/><feColorMatrix in="noise" result="alphaNoise" type="luminanceToAlpha"/><feComponentTransfer in="alphaNoise" result="coloredNoise1"><feFuncA tableValues="1 1 1 1 1 1 1 1 1 1 1 1 1 1 1 1 1 1 1 1 1 1 1 1 1 1 1 1 1 1 1 1 1 1 1 1 1 1 1 1 1 1 1 1 1 1 1 1 1 1 1 0 0 0 0 0 0 0 0 0 0 0 0 0 0 0 0 0 0 0 0 0 0 0 0 0 0 0 0 0 0 0 0 0 0 0 0 0 0 0 0 0 0 0 0 0 0 0 0 0" type="discrete"/></feComponentTransfer><feComposite in="coloredNoise1" in2="shape" operator="in" result="noise1Clipped"/><feFlood flood-color="rgba(0, 0, 0, 0.05)" result="color1Flood"/><feComposite in="color1Flood" in2="noise1Clipped" operator="in" result="color1"/><feMerge result="effect1_noise_1724_1997"><feMergeNode in="shape"/><feMergeNode in="color1"/></feMerge></filter><linearGradient id="d" x1=".222" x2="289.521" y1="266.01" y2="270.629" gradientUnits="userSpaceOnUse"><stop stop-color="#0362A6"/><stop offset="1" stop-color="#32FF92"/></linearGradient><linearGradient id="f" x1="457.413" x2="662.316" y1="371.993" y2="250.227" gradientUnits="userSpaceOnUse"><stop stop-color="#32FF92"/><stop offset="1" stop-color="#0362A6"/></linearGradient><linearGradient id="h" x1="-13.825" x2="764.104" y1="206.751" y2="291.87" gradientUnits="userSpaceOnUse"><stop stop-color="#0A7FD2"/><stop offset=".619" stop-color="#32FF92"/><stop offset="1" stop-color="#FCFF32"/></linearGradient></defs></svg>