<svg xmlns="http://www.w3.org/2000/svg" width="622" height="374" fill="none"><g filter="url(#a)"><mask id="b" width="606" height="319" x="4" y="39" maskUnits="userSpaceOnUse" style="mask-type:alpha"><path fill="#D9D9D9" d="M539.806 345.12 4.016 226.234l21.673 16.164 519.214 114.713 64.473-280.367V39.512z"/></mask><g mask="url(#b)"><g filter="url(#c)"><path fill="url(#d)" d="M547.012 337.542-5.475 216.796l21.084 28.194 534.468 117.191z"/></g><g filter="url(#e)"><path fill="url(#f)" d="m550.658 370.582-16.903-39.538 79.038-320.126 1.21 62.077z"/></g></g><g filter="url(#g)"><path fill="url(#h)" d="m592.623 113.48 16.751-73.977-75.637-15.95-17.019 73.859L56.564 0 4 226.244l535.808 118.932z"/></g><path fill="#FAFAFA" d="m100.395 81.605.601-3.405-.07-.015q-3.224 3.4-7.977 2.39-5.529-1.176-7.996-5.527-2.433-4.344-1.121-10.027 1.49-6.454 6.485-9.367 3.833-2.202 8.763-1.155 4.613.98 6.833 3.845 2.255 2.87 2.006 6.83l-5-1.064q-.02-1.991-1.205-3.42-1.176-1.466-3.5-1.959-3.417-.726-5.857 1.368-2.407 2.1-3.314 6.03-.898 3.894.428 6.788 1.362 2.903 4.566 3.583 2.817.6 5.045-.73 2.236-1.365 2.746-3.575l.033-.14-6.057-1.288.907-3.928 10.599 2.253-3.077 13.329zm16.09 3.972q-4.367-.928-6.251-4.125-1.878-3.233-.913-7.407.931-4.034 4.055-6.203 3.131-2.205 7.04-1.374 4.261.906 5.905 4.346t.502 8.386l-13.1-2.784q-.212 2.2.675 3.64.894 1.404 2.902 1.83 2.64.562 3.996-1.468l4.719 1.003q-1.111 2.413-3.648 3.64t-5.882.516m3.151-15.411q-3.486-.741-5.081 2.968l8.029 1.706q.291-1.74-.523-3.018-.804-1.312-2.425-1.656m10.367 2.167.729-3.157 2.5.531 1.296-5.612 4.683.995-1.295 5.613 3.099.658-.729 3.157-3.099-.658-2.203 9.54q-.412 1.79 1.383 2.171l1.417.265-.81 3.507a50 50 0 0 1-3.009-.566q-2.078-.44-3.26-1.723-1.173-1.316-.639-3.632l2.438-10.558zm168.039 51.283-1.128-19.117 4.754 1.01.256 8.813.032 3.539.071.015a62 62 0 0 1 1.56-3.237l4.173-7.835 4.085.868.44 8.815.059 3.582.071.015a96 96 0 0 1 1.587-3.195l4.216-7.862 4.649.988-9.543 16.85-4.366-.928-.354-9.349-.089-3.294-.07-.015q-.848 1.587-1.566 2.942l-4.506 8.316zm23.069 4.904 4.154-17.995 4.789 1.018-4.154 17.995zm4.802-20.801.988-4.28 4.789 1.018-.988 4.28zm6.146 7.562.729-3.157 2.5.531 1.296-5.612 4.683.996-1.296 5.612 3.099.659-.729 3.157-3.098-.659-2.203 9.541q-.414 1.789 1.383 2.171l1.416.264-.81 3.508a51 51 0 0 1-3.009-.566q-2.077-.442-3.259-1.724-1.175-1.316-.639-3.631l2.437-10.559zm20.606-6.365-2.178 9.436.106.022q1.36-1.255 2.712-1.668 1.395-.44 3.19-.058 2.782.591 4.07 2.852 1.296 2.226.608 5.208l-2.713 11.751-4.789-1.018 2.551-11.05q.34-1.473-.294-2.565-.6-1.084-2.079-1.398-1.584-.337-2.908.596-1.289.94-1.709 2.765l-2.357 10.207-4.789-1.018 5.79-25.08zm23.273 31.81q-3.873-.824-5.668-2.971-1.786-2.183-1.317-5.175l4.437.943q-.231 3.08 3.255 3.82 1.585.338 2.56-.045 1.01-.373 1.228-1.321.081-.35.005-.661-.04-.303-.309-.581a3.3 3.3 0 0 0-.439-.498q-.18-.186-.71-.445a35 35 0 0 0-.832-.398 12 12 0 0 0-.981-.392q-.672-.291-.937-.42a26 26 0 0 1-2.3-1.078 12.5 12.5 0 0 1-1.734-1.289 4 4 0 0 1-1.185-1.908q-.259-1.121.065-2.525.648-2.805 3.031-3.845 2.418-1.032 5.657-.343 3.486.741 5.086 2.774 1.643 2.004 1.284 4.836l-4.331-.921q.326-2.691-2.879-3.372-1.443-.306-2.41.04-.931.354-1.15 1.301a1.7 1.7 0 0 0-.032.619q.084.275.317.546.277.243.526.443.258.165.753.417.504.217.867.405.372.153 1.008.435.644.248 1.016.4a26 26 0 0 1 1.726.846q.699.332 1.544.99.854.624 1.252 1.297.443.645.611 1.675.212 1.002-.071 2.23-.616 2.666-3.093 3.795-2.434 1.102-5.85.376m19.024 4.043q-4.191-.89-6.102-4.13t-.965-7.344q.948-4.104 4.036-6.281 3.124-2.17 7.173-1.309 3.416.726 5.151 2.971t1.532 5.367l-4.684-.995q.037-1.28-.665-2.239t-2.005-1.236q-2.112-.449-3.588.82t-2.09 3.935q-.608 2.63.128 4.406.743 1.74 2.856 2.189 3.134.666 4.331-2.28l4.613.98q-.935 2.929-3.571 4.43-2.63 1.464-6.15.716m21.628-22.266-2.179 9.436.106.023q1.362-1.257 2.712-1.669 1.395-.44 3.191-.057 2.781.591 4.07 2.852 1.296 2.226.608 5.207l-2.713 11.751-4.789-1.018 2.551-11.049q.34-1.473-.295-2.565-.599-1.084-2.078-1.399-1.585-.336-2.908.597-1.288.94-1.71 2.764l-2.356 10.208-4.789-1.018 5.79-25.081zm25.306 29.409q-3.264 2.14-7.42 1.256-4.155-.883-6.172-4.145-2.01-3.297-1.07-7.367.939-4.068 4.204-6.208 3.271-2.174 7.428-1.292 4.154.884 6.164 4.181 2.017 3.263 1.078 7.331-.939 4.07-4.212 6.244m-6.578-2.392q2.149.457 3.71-.867 1.605-1.351 2.221-4.018.615-2.666-.245-4.541-.825-1.868-2.973-2.325-2.183-.464-3.753.895-1.561 1.325-2.185 4.025-.615 2.667.209 4.534.834 1.833 3.016 2.297m27.502 6.84q-3.264 2.14-7.419 1.256-4.155-.883-6.173-4.146-2.009-3.297-1.07-7.366.94-4.069 4.204-6.209 3.273-2.174 7.428-1.291t6.164 4.181q2.018 3.261 1.078 7.331t-4.212 6.244m-6.577-2.392q2.148.456 3.71-.868 1.605-1.352 2.22-4.017t-.244-4.541q-.825-1.869-2.973-2.325-2.184-.464-3.753.895-1.562 1.324-2.185 4.025-.616 2.665.209 4.534.832 1.833 3.016 2.297m11.717 5.766 5.79-25.081 4.789 1.018-5.79 25.08zm15.849 3.92q-3.873-.823-5.668-2.971-1.786-2.183-1.317-5.174l4.437.943q-.231 3.08 3.255 3.82 1.585.338 2.56-.045 1.01-.374 1.228-1.321.081-.35.005-.661-.04-.303-.309-.581a3.3 3.3 0 0 0-.439-.498q-.179-.185-.71-.446a34 34 0 0 0-.832-.397 12 12 0 0 0-.981-.393 25 25 0 0 1-.937-.42 26 26 0 0 1-2.3-1.077 12.6 12.6 0 0 1-1.734-1.289 4 4 0 0 1-1.185-1.908q-.259-1.122.065-2.525.648-2.807 3.031-3.845 2.418-1.032 5.657-.343 3.486.74 5.086 2.773 1.643 2.005 1.284 4.836l-4.331-.92q.326-2.691-2.879-3.372-1.444-.307-2.41.04-.931.353-1.15 1.301a1.7 1.7 0 0 0-.032.619q.084.275.317.545.277.243.526.443.258.166.753.418.504.218.867.405.372.153 1.008.435.644.247 1.016.4 1.07.485 1.726.845.7.333 1.544.991.854.623 1.252 1.296.443.646.611 1.676.212 1.002-.071 2.229-.616 2.667-3.093 3.796-2.434 1.101-5.85.375"/><path fill="#FCFF32" d="m146.649 91.437 4.155-17.995 4.613.98-.559 2.421.106.022q2.397-2.544 5.919-1.796 1.69.36 2.79 1.513a5.26 5.26 0 0 1 1.481 2.707l.07.015q2.702-2.737 6.152-2.004 2.817.598 3.97 2.647 1.195 2.02.507 5.002l-2.794 12.101-4.789-1.017 2.608-11.295q.712-3.087-2.069-3.678-1.514-.322-2.646.578-1.087.873-1.501 2.662l-2.413 10.453-4.789-1.018 2.608-11.295q.713-3.087-2.07-3.678-1.443-.308-2.61.586-1.124.864-1.536 2.654l-2.414 10.453zm41.446 8.809q-.248-.53-.102-2.119l-.07-.015a5.6 5.6 0 0 1-2.385 1.37q-1.344.377-3.491-.08-2.853-.606-4.246-2.41-1.394-1.806-.786-4.437.632-2.736 2.825-3.594 2.2-.894 5.765-.651 2.617.188 3.613.031 1.005-.19 1.223-1.138.227-.982-.418-1.708-.637-.761-2.116-1.075-3.275-.697-4.069 1.784l-4.261-.905q.697-2.539 3.057-3.803t6.094-.471q7.606 1.617 6.075 8.246l-2.113 9.155q-.47 2.035.058 2.625l-.04.176zm-4.117-3.929q1.972.42 3.334-.359 1.397-.77 1.721-2.173l.623-2.7q-.88.29-3.588.34-2.147.022-3.131.439-.974.382-1.25 1.574-.526 2.28 2.291 2.879m13.87-9.563.729-3.157 2.5.531 1.296-5.612 4.683.995-1.295 5.613 3.098.658-.729 3.157-3.098-.658-2.203 9.54q-.412 1.79 1.383 2.171l1.416.265-.809 3.507a50 50 0 0 1-3.01-.566q-2.077-.442-3.259-1.723-1.174-1.316-.639-3.632l2.437-10.558zm18.115 19.968q-4.19-.891-6.103-4.131-1.911-3.24-.964-7.344.948-4.105 4.036-6.28 3.124-2.17 7.173-1.31 3.416.726 5.151 2.972t1.532 5.367l-4.684-.995q.037-1.28-.665-2.24-.702-.958-2.005-1.235-2.113-.45-3.588.82-1.475 1.268-2.09 3.934-.608 2.631.127 4.406.744 1.74 2.857 2.19 3.134.666 4.331-2.281l4.613.981q-.935 2.928-3.571 4.429-2.63 1.466-6.15.717m21.628-22.266-2.179 9.436.106.022q1.361-1.256 2.712-1.668 1.395-.44 3.191-.058 2.781.591 4.07 2.852 1.296 2.226.608 5.208l-2.713 11.751-4.789-1.018 2.551-11.05q.34-1.473-.295-2.564-.599-1.085-2.078-1.399-1.585-.337-2.908.596-1.289.94-1.71 2.765l-2.357 10.207-4.789-1.018 5.791-25.08zm17.816 30.65q-4.367-.928-6.251-4.126-1.878-3.231-.913-7.406.931-4.034 4.055-6.203 3.132-2.205 7.04-1.374 4.261.905 5.905 4.346t.502 8.386l-13.1-2.784q-.212 2.199.675 3.639.894 1.405 2.902 1.831 2.64.562 3.996-1.469l4.719 1.003q-1.111 2.414-3.648 3.641t-5.882.516m3.151-15.411q-3.486-.741-5.081 2.968l8.029 1.706q.291-1.742-.523-3.018-.805-1.312-2.425-1.656m14.982 19.265q-3.416-.726-4.938-3.736-1.514-3.044-.509-7.394.972-4.209 3.727-6.384 2.8-2.201 6.179-1.483 3.381.719 4.491 3.751l.105.023 2.138-9.26 4.789 1.017-5.79 25.081-4.613-.981.543-2.35-.071-.015q-2.424 2.502-6.051 1.731m1.979-3.774q2.114.449 3.537-.757 1.458-1.199 2.042-3.724 1.328-5.753-2.863-6.644-1.937-.411-3.314.915t-1.969 3.887q-.607 2.631.047 4.278.688 1.656 2.52 2.045"/><path fill="#FAFAFA" d="m74.046 125.559-.884-18.464 2.418.514.567 16.213-.564-.119 7.814-14.433 2.418.514.708 16.244-.587-.125 7.673-14.462 2.418.514-8.928 16.379-2.56-.544-.746-16.179.61.13-7.798 14.362zm25.148 5.64q-1.83-.389-3.063-1.559a6.2 6.2 0 0 1-1.709-2.841q-.47-1.695-.039-3.565.438-1.894 1.576-3.198a6.5 6.5 0 0 1 2.741-1.846q1.609-.566 3.346-.197 1.409.3 2.369 1.044a5.2 5.2 0 0 1 1.542 1.75q.58 1.006.725 2.191a6.2 6.2 0 0 1-.095 2.335q-.06.257-.182.574a7 7 0 0 1-.206.57l-10.376-2.206.432-1.871 9.109 1.937-1.228.622q.492-1.171.268-2.225a3.55 3.55 0 0 0-.964-1.799q-.74-.746-1.842-.981a3.9 3.9 0 0 0-2.149.132q-1.045.367-1.804 1.31-.731.924-.966 2.37-.413 1.36-.14 2.522a4.04 4.04 0 0 0 1.13 1.933q.857.77 2.007 1.015 1.268.27 2.272-.13a4.9 4.9 0 0 0 1.754-1.198l1.615 1.325q-.576.786-1.541 1.341-.937.536-2.114.728-1.154.196-2.468-.083m17.891 3.803q-1.902-.405-3.094-1.639a5.07 5.07 0 0 1-1.413-2.95l1.932-.472q.28 1.237 1.069 2.091t1.938 1.099q1.032.22 1.827-.127.793-.346.978-1.141.13-.561-.124-.959a2 2 0 0 0-.627-.697 4.5 4.5 0 0 0-.751-.479l-1.778-.942q-1.6-.855-2.188-1.937-.564-1.077-.283-2.293.26-1.122 1.011-1.821a4.1 4.1 0 0 1 1.876-.975q1.118-.253 2.361.011 1.666.354 2.787 1.476 1.144 1.127 1.357 2.766l-1.974.439a3.43 3.43 0 0 0-.911-1.813 3.3 3.3 0 0 0-1.767-.989q-.962-.204-1.639.167-.67.348-.839 1.073-.123.538.077.949.206.386.562.659.362.248.71.445l1.925 1.047q1.447.773 2.076 1.889.653 1.12.351 2.429a3.4 3.4 0 0 1-1.024 1.77q-.782.717-1.923.965-1.14.249-2.502-.041m7.876 1.38 4.087-17.703 2.183.464-1.744 7.554-.35-.296q.744-1.093 1.929-1.528 1.212-.454 2.621-.154 1.362.29 2.278 1.122a4.37 4.37 0 0 1 1.301 2.043q.385 1.21.073 2.567l-1.884 8.161-2.207-.469 1.722-7.46q.243-1.052.011-1.862a2.7 2.7 0 0 0-.797-1.347q-.583-.566-1.476-.755a3.1 3.1 0 0 0-1.67.086 2.94 2.94 0 0 0-1.368.912q-.566.64-.804 1.669l-1.722 7.46zm17.614 4.038q-1.244-.264-2.104-.913-.831-.668-1.187-1.578-.351-.933-.108-1.985.231-1.005.838-1.711.635-.724 1.68-1.09 1.068-.362 2.531-.296l4.873.226-.421 1.824-4.364-.192q-1.269-.049-1.962.393-.67.446-.859 1.265a1.63 1.63 0 0 0 .314 1.416q.515.648 1.454.848 1.197.255 2.179-.052a3.85 3.85 0 0 0 1.704-1.085 3.83 3.83 0 0 0 .959-1.808l.739-3.203q.238-1.03-.391-1.825-.6-.815-1.844-1.079a3.5 3.5 0 0 0-2.055.152 3.4 3.4 0 0 0-1.555 1.19l-1.675-1.386a4.3 4.3 0 0 1 1.483-1.304 6 6 0 0 1 2.062-.715 6.1 6.1 0 0 1 2.251.062q1.455.309 2.429 1.105.98.773 1.363 1.884.413 1.093.116 2.38l-1.976 8.559-2.137-.455.551-2.385.367.225a4.5 4.5 0 0 1-1.382 1.08 5.5 5.5 0 0 1-1.802.55 6 6 0 0 1-2.071-.097m10.211 1.876 2.91-12.605 2.136.455-.534 2.315-.16-.378q.695-.98 1.729-1.3 1.04-.343 2.355-.064l.774.164-.475 2.058-1.103-.234q-1.338-.285-2.354.383-1.011.643-1.362 2.163l-1.733 7.507zm14.316 3.337q-1.83-.389-3.063-1.558a6.2 6.2 0 0 1-1.708-2.841q-.471-1.695-.039-3.566.437-1.894 1.576-3.198a6.5 6.5 0 0 1 2.741-1.846q1.608-.565 3.345-.196 1.409.299 2.37 1.043a5.2 5.2 0 0 1 1.541 1.751q.58 1.006.726 2.19a6.2 6.2 0 0 1-.096 2.335q-.059.257-.182.575a7 7 0 0 1-.205.569l-10.376-2.205.432-1.871 9.108 1.936-1.227.622q.492-1.17.267-2.224a3.55 3.55 0 0 0-.964-1.8q-.738-.746-1.842-.98a3.9 3.9 0 0 0-2.148.132q-1.046.367-1.805 1.309-.73.924-.966 2.371-.412 1.36-.139 2.521a4.04 4.04 0 0 0 1.13 1.933q.857.771 2.007 1.016 1.268.269 2.271-.131a4.9 4.9 0 0 0 1.754-1.197l1.615 1.324q-.575.786-1.541 1.341a6.2 6.2 0 0 1-2.113.728q-1.154.197-2.469-.083m12.918 7.849a5 5 0 0 1-.828-.25 3.4 3.4 0 0 1-.745-.403l.448-1.941q.247.101.613.228.383.155.758.235 1.104.234 1.78-.137.695-.343 1.482-1.402l1.235-1.725-.484 1.884-2.274-14.687 2.371.504 1.719 11.65-.704-.15 6.662-9.869 2.418.514-8.96 12.889a7.8 7.8 0 0 1-1.454 1.604 4.8 4.8 0 0 1-1.81 1.014q-1.006.302-2.227.042m19.551-.947q-1.831-.39-3.116-1.546a6.4 6.4 0 0 1-1.802-2.861q-.523-1.68-.086-3.575.438-1.894 1.623-3.188a6.8 6.8 0 0 1 2.887-1.839q1.679-.551 3.533-.157 1.832.39 3.111 1.569a6.1 6.1 0 0 1 1.789 2.809q.529 1.658.086 3.575-.442 1.918-1.68 3.225a7 7 0 0 1-2.911 1.835q-1.65.533-3.434.153m.486-2.105a4.06 4.06 0 0 0 2.248-.135A4.26 4.26 0 0 0 204.18 149a4.9 4.9 0 0 0 1.092-2.172q.297-1.285-.04-2.388a4.1 4.1 0 0 0-1.135-1.909q-.799-.808-1.972-1.057a4.1 4.1 0 0 0-2.301.149 4.54 4.54 0 0 0-1.869 1.27q-.79.863-1.087 2.149-.292 1.263.034 2.412.326 1.148 1.13 1.932.828.79 2.025 1.044m13.7 5.12q-1.362-.29-2.319-1.155a4.45 4.45 0 0 1-1.285-2.113q-.322-1.27.017-2.744l1.82-7.881 2.183.464-1.765 7.647q-.216.936-.003 1.717.238.786.826 1.328.613.548 1.505.737.893.19 1.665-.063a2.8 2.8 0 0 0 1.344-.916q.572-.664.809-1.693l1.723-7.459 2.206.469-2.91 12.604-2.136-.454.567-2.455.304.285a3.86 3.86 0 0 1-1.958 1.546q-1.207.43-2.593.136m9.551 1.736 2.91-12.605 2.136.454-.534 2.316-.16-.378q.695-.98 1.729-1.3 1.04-.344 2.355-.064l.774.164-.475 2.058-1.103-.234q-1.338-.285-2.354.383-1.011.643-1.362 2.163l-1.733 7.507zm16.491 3.505-2.044-13.657 2.442.519 1.505 11.506-.845-.179 6.453-9.815 2.441.519-7.887 11.546zm14.875 3.456q-1.83-.389-3.063-1.558a6.2 6.2 0 0 1-1.708-2.841q-.471-1.695-.039-3.566.437-1.894 1.576-3.198a6.5 6.5 0 0 1 2.741-1.846q1.608-.565 3.345-.196 1.409.299 2.37 1.043a5.2 5.2 0 0 1 1.541 1.751q.58 1.007.726 2.19a6.2 6.2 0 0 1-.096 2.335q-.059.257-.182.575a7 7 0 0 1-.205.569l-10.376-2.205.432-1.871 9.108 1.936-1.227.622q.492-1.17.267-2.224a3.55 3.55 0 0 0-.964-1.8q-.738-.746-1.842-.98a3.9 3.9 0 0 0-2.148.132q-1.046.367-1.805 1.309-.73.924-.966 2.371-.412 1.36-.139 2.521a4.04 4.04 0 0 0 1.13 1.933q.857.771 2.007 1.016 1.268.269 2.271-.131a4.9 4.9 0 0 0 1.754-1.197l1.615 1.324q-.575.786-1.541 1.341a6.2 6.2 0 0 1-2.113.728q-1.154.197-2.469-.083m9.015 1.622 2.91-12.604 2.137.454-.535 2.315-.159-.377q.694-.981 1.729-1.301 1.04-.343 2.354-.064l.775.165-.475 2.058-1.104-.235q-1.337-.285-2.354.383-1.01.643-1.361 2.164l-1.733 7.506zm8.56 1.82 2.91-12.605 2.183.464-2.91 12.605zm3.374-14.616.648-2.806 2.183.464-.648 2.806zm3.887 16.159 2.429-10.523-2.418-.514.481-2.081 2.418.514.205-.889q.313-1.357 1.116-2.167a4.2 4.2 0 0 1 1.926-1.087 5.2 5.2 0 0 1 2.343-.017q.259.055.553.166.323.093.524.185l-.448 1.941a2 2 0 0 0-.436-.141 5 5 0 0 0-.393-.109q-1.08-.23-1.903.136-.8.37-1.075 1.562l-.205.889 6.573 1.397-.481 2.081-6.573-1.397-2.429 10.523zm7.418 1.577 2.91-12.605 2.207.469-2.91 12.605zm11.338 2.704q-1.831-.389-3.064-1.559a6.2 6.2 0 0 1-1.708-2.841q-.471-1.695-.039-3.565.438-1.894 1.576-3.198a6.5 6.5 0 0 1 2.741-1.846q1.608-.566 3.345-.197 1.409.3 2.37 1.044a5.2 5.2 0 0 1 1.541 1.75q.58 1.006.726 2.191a6.2 6.2 0 0 1-.096 2.335 4 4 0 0 1-.182.574q-.093.299-.205.57l-10.376-2.206.432-1.871 9.108 1.937-1.227.622q.492-1.171.267-2.225a3.55 3.55 0 0 0-.963-1.799q-.74-.746-1.843-.981a3.9 3.9 0 0 0-2.148.132q-1.045.367-1.805 1.31-.73.924-.966 2.37-.412 1.36-.139 2.522a4.05 4.05 0 0 0 1.13 1.933q.856.77 2.007 1.015 1.267.27 2.271-.13a4.85 4.85 0 0 0 1.754-1.198l1.615 1.325q-.575.786-1.54 1.341-.937.536-2.114.728-1.154.196-2.468-.083m14.701 3.125q-1.784-.38-3.016-1.549a6.23 6.23 0 0 1-1.685-2.836q-.476-1.671-.05-3.519.438-1.894 1.6-3.192a6.55 6.55 0 0 1 2.775-1.888q1.631-.561 3.416-.182 1.572.334 2.637 1.272a5.03 5.03 0 0 1 1.515 2.187l-.477.463 1.804-7.811 2.206.469-4.087 17.702-2.136-.454.621-2.689.195.434a4.8 4.8 0 0 1-2.367 1.509q-1.401.413-2.951.084m.674-2.065q1.197.255 2.271-.13a4.36 4.36 0 0 0 1.846-1.276 4.9 4.9 0 0 0 1.093-2.172q.296-1.286-.034-2.412a4.1 4.1 0 0 0-1.107-1.927q-.804-.785-2.001-1.039a4.04 4.04 0 0 0-2.277.154 4.35 4.35 0 0 0-1.846 1.276q-.766.867-1.069 2.176-.291 1.264.011 2.407a4.14 4.14 0 0 0 1.112 1.905q.804.784 2.001 1.038m13.026 9.589 3.99-17.281 2.136.454-.626 2.712-.158-.597a5.3 5.3 0 0 1 2.335-1.369q1.377-.418 2.95-.084 1.785.38 2.993 1.544a6.2 6.2 0 0 1 1.709 2.841q.481 1.647.044 3.542-.426 1.847-1.594 3.169a6.5 6.5 0 0 1-2.799 1.883q-1.608.566-3.416.182-1.526-.324-2.637-1.272a4.74 4.74 0 0 1-1.482-2.327l.439-.299-1.701 7.366zm7.886-5.144q1.197.254 2.271-.13a4.2 4.2 0 0 0 1.823-1.281q.777-.915 1.069-2.177.302-1.31-.011-2.407a4 4 0 0 0-1.088-1.899q-.8-.809-1.996-1.062a4.2 4.2 0 0 0-2.295.125 4.5 4.5 0 0 0-1.875 1.295q-.772.89-1.069 2.176-.291 1.263.011 2.407.331 1.125 1.135 1.909.828.79 2.025 1.044m9.25 3.88 2.909-12.605 2.137.454-.535 2.315-.159-.377q.694-.98 1.729-1.301 1.04-.343 2.354-.063l.775.164-.475 2.058-1.104-.234q-1.337-.285-2.354.382-1.01.645-1.361 2.164l-1.733 7.507zm14.504 3.377q-1.831-.388-3.116-1.545a6.4 6.4 0 0 1-1.802-2.861q-.523-1.682-.086-3.576.438-1.893 1.623-3.187a6.8 6.8 0 0 1 2.887-1.84q1.679-.55 3.533-.157 1.832.39 3.111 1.569a6.1 6.1 0 0 1 1.789 2.809q.529 1.658.086 3.576-.442 1.917-1.68 3.224a7 7 0 0 1-2.911 1.835q-1.65.533-3.434.153m.486-2.104a4.05 4.05 0 0 0 2.248-.136 4.26 4.26 0 0 0 1.875-1.294 4.9 4.9 0 0 0 1.092-2.172q.297-1.287-.04-2.388a4.1 4.1 0 0 0-1.135-1.91 3.8 3.8 0 0 0-1.972-1.057 4.1 4.1 0 0 0-2.301.149 4.54 4.54 0 0 0-1.869 1.271q-.79.862-1.087 2.148-.292 1.263.034 2.412t1.13 1.933q.828.789 2.025 1.044m10.229 4.087 2.43-10.523-2.418-.514.48-2.081 2.418.514.206-.889q.312-1.356 1.116-2.167a4.2 4.2 0 0 1 1.925-1.087 5.2 5.2 0 0 1 2.344-.017q.258.055.552.167.324.093.524.185l-.448 1.941a2 2 0 0 0-.435-.142 5 5 0 0 0-.394-.108q-1.08-.23-1.903.135-.8.37-1.075 1.562l-.205.889 6.573 1.397-.48 2.081-6.573-1.397-2.43 10.523zm7.419 1.577 2.91-12.604 2.206.469-2.91 12.604zm5.58 1.186 4.087-17.702 2.183.464-4.087 17.702zm11.68 2.777q-1.832-.389-3.063-1.558a6.2 6.2 0 0 1-1.709-2.841q-.47-1.695-.038-3.566.436-1.894 1.575-3.198 1.162-1.298 2.741-1.846 1.608-.565 3.346-.196 1.409.299 2.369 1.043a5.2 5.2 0 0 1 1.542 1.751q.58 1.007.726 2.19a6.2 6.2 0 0 1-.096 2.335q-.06.257-.182.575a7 7 0 0 1-.206.569l-10.376-2.205.432-1.871 9.109 1.936-1.228.622q.493-1.17.268-2.224a3.55 3.55 0 0 0-.964-1.8q-.74-.746-1.842-.98a3.9 3.9 0 0 0-2.149.132q-1.045.367-1.804 1.309-.73.924-.966 2.371-.413 1.36-.139 2.521a4.03 4.03 0 0 0 1.13 1.933q.857.771 2.006 1.016 1.269.269 2.272-.131a4.9 4.9 0 0 0 1.754-1.197l1.615 1.325q-.576.785-1.541 1.34a6.2 6.2 0 0 1-2.114.728q-1.154.197-2.468-.083M66.284 156.619l-1.433-13.527 2.418.514 1.016 11.28-.84-.203 5.81-9.805 2.067.439.95 11.242-.85-.156 5.91-9.808 2.394.509-7.253 11.681-2.09-.444-.903-11.232.657.14-5.763 9.815zm16.837 3.579 2.91-12.604 2.183.464-2.91 12.604zm3.374-14.616.648-2.806 2.183.464-.648 2.807zm7.657 17.108q-1.855-.394-2.62-1.661-.744-1.262-.301-3.179l1.533-6.642-2.3-.489.48-2.081.47.1q.845.18 1.456-.23.612-.41.806-1.252l.238-1.029 2.183.464-.67 2.9 2.841.604-.48 2.081-2.84-.604-1.518 6.571q-.145.632-.066 1.139.105.513.508.893.411.357 1.185.522.165.035.405.062.262.031.48.053l-.443 1.917a4 4 0 0 1-.702-.051 5 5 0 0 1-.645-.088m4.551.82 4.087-17.702 2.183.464-1.743 7.553-.351-.295q.746-1.093 1.929-1.528 1.214-.454 2.622-.154 1.361.29 2.277 1.122a4.37 4.37 0 0 1 1.302 2.043q.385 1.21.072 2.566l-1.884 8.162-2.207-.469 1.722-7.46q.243-1.053.012-1.862a2.7 2.7 0 0 0-.798-1.347q-.584-.566-1.475-.755a3.1 3.1 0 0 0-1.67.086 2.93 2.93 0 0 0-1.368.911q-.567.64-.804 1.67l-1.722 7.459zm18.38 3.907 2.91-12.604 2.183.464-2.91 12.604zm3.374-14.616.648-2.806 2.183.464-.647 2.806zm2.549 15.875 2.91-12.605 2.136.455-.567 2.455-.303-.285q.744-1.093 1.929-1.528 1.212-.454 2.621-.155 1.362.29 2.278 1.122a4.4 4.4 0 0 1 1.301 2.043q.386 1.21.073 2.567l-1.884 8.161-2.207-.469 1.722-7.459q.243-1.053.035-1.858a2.7 2.7 0 0 0-.821-1.352q-.584-.565-1.476-.755a3.15 3.15 0 0 0-1.693.082 3 3 0 0 0-1.345.916q-.565.64-.804 1.669l-1.722 7.46zm18.436 4.213q-1.902-.404-3.094-1.639a5.07 5.07 0 0 1-1.413-2.95l1.932-.472q.28 1.237 1.069 2.091.787.855 1.938 1.099 1.032.22 1.827-.127.793-.346.978-1.141.13-.561-.124-.959a2 2 0 0 0-.627-.697 4.5 4.5 0 0 0-.752-.479l-1.777-.942q-1.6-.855-2.188-1.937-.564-1.077-.283-2.293.26-1.122 1.011-1.821a4.1 4.1 0 0 1 1.876-.975q1.117-.253 2.361.011 1.666.355 2.787 1.476 1.145 1.126 1.356 2.766l-1.973.439a3.43 3.43 0 0 0-.911-1.813 3.28 3.28 0 0 0-1.767-.988q-.962-.205-1.639.166-.67.348-.839 1.073-.123.538.077.949.206.387.562.659.361.249.71.445l1.925 1.047q1.448.774 2.076 1.889.653 1.12.351 2.43a3.4 3.4 0 0 1-1.025 1.769q-.78.717-1.922.965-1.14.249-2.502-.041m12.985 2.613q-1.855-.395-2.621-1.661-.744-1.262-.301-3.18l1.533-6.641-2.3-.489.48-2.081.47.099q.845.18 1.457-.23.611-.41.806-1.251l.237-1.029 2.184.464-.67 2.9 2.841.604-.481 2.081-2.84-.604-1.517 6.571q-.147.632-.066 1.139.103.513.508.893.41.357 1.185.522.164.035.404.061.264.032.48.053l-.442 1.918a4.5 4.5 0 0 1-.703-.051 6 6 0 0 1-.644-.088m4.551.82 2.91-12.605 2.183.465-2.91 12.604zm3.374-14.616L163 158.9l2.183.464-.648 2.806zm7.657 17.108q-1.854-.394-2.621-1.661-.743-1.262-.3-3.18l1.533-6.641-2.3-.489.48-2.081.47.1q.845.179 1.457-.23.61-.41.806-1.252l.237-1.029 2.183.464-.669 2.9 2.841.604-.481 2.081-2.84-.604-1.518 6.571q-.146.632-.065 1.139.102.513.508.893.41.357 1.184.522.165.035.405.062.264.031.48.053l-.443 1.917a4 4 0 0 1-.702-.051 5 5 0 0 1-.645-.088m8.971 2.054q-1.362-.29-2.32-1.155a4.46 4.46 0 0 1-1.285-2.114q-.322-1.27.018-2.743l1.819-7.881 2.183.464-1.765 7.647q-.216.935-.002 1.717.237.786.826 1.328.613.548 1.504.737.893.189 1.665-.063a2.77 2.77 0 0 0 1.344-.917q.573-.663.81-1.692l1.722-7.46 2.207.469-2.91 12.605-2.136-.454.566-2.456.304.286a3.86 3.86 0 0 1-1.958 1.546q-1.208.43-2.592.136m14.659 2.969q-1.854-.395-2.621-1.661-.743-1.263-.3-3.18l1.533-6.641-2.301-.489.481-2.081.469.099q.846.18 1.457-.23t.806-1.251l.238-1.029 2.183.464-.669 2.9 2.84.603-.48 2.082-2.841-.604-1.517 6.571q-.145.632-.066 1.139.103.513.508.893.411.357 1.185.522.165.035.404.061.264.032.481.053l-.443 1.918a4.5 4.5 0 0 1-.702-.051 6 6 0 0 1-.645-.088m4.551.82 2.91-12.605 2.183.464-2.91 12.605zm3.374-14.616.648-2.806 2.183.464-.647 2.806zm8.494 17.433q-1.831-.39-3.116-1.546a6.4 6.4 0 0 1-1.802-2.86q-.523-1.681-.086-3.576.438-1.894 1.623-3.188a6.8 6.8 0 0 1 2.887-1.839q1.679-.551 3.534-.157 1.83.39 3.11 1.569a6.1 6.1 0 0 1 1.789 2.809q.529 1.658.086 3.575-.442 1.919-1.68 3.225a7 7 0 0 1-2.911 1.835q-1.65.532-3.434.153m.486-2.105a4.06 4.06 0 0 0 2.248-.135 4.26 4.26 0 0 0 1.875-1.295 4.9 4.9 0 0 0 1.092-2.172q.297-1.286-.04-2.388a4.1 4.1 0 0 0-1.135-1.909q-.798-.808-1.972-1.057a4.1 4.1 0 0 0-2.3.149q-1.075.384-1.87 1.271-.79.862-1.087 2.148-.291 1.263.034 2.412.326 1.148 1.13 1.932.828.79 2.025 1.044m9.281 3.886 2.91-12.604 2.136.454-.566 2.456-.304-.286q.746-1.093 1.929-1.528 1.213-.454 2.621-.154 1.362.29 2.278 1.122a4.4 4.4 0 0 1 1.302 2.043q.386 1.21.072 2.567l-1.884 8.161-2.207-.469 1.722-7.46q.243-1.052.035-1.857a2.67 2.67 0 0 0-.821-1.352q-.584-.566-1.475-.755a3.15 3.15 0 0 0-1.694.081 3 3 0 0 0-1.344.917q-.567.64-.804 1.669l-1.723 7.46zm18.436 4.214q-1.902-.405-3.094-1.639a5.07 5.07 0 0 1-1.412-2.95l1.931-.473q.28 1.237 1.069 2.092a3.6 3.6 0 0 0 1.938 1.099q1.033.22 1.827-.127.793-.346.978-1.142.13-.56-.124-.958a2 2 0 0 0-.627-.698 4.5 4.5 0 0 0-.751-.478l-1.778-.942q-1.6-.855-2.188-1.937-.564-1.077-.283-2.293.26-1.122 1.011-1.821a4.1 4.1 0 0 1 1.876-.975q1.118-.253 2.361.011 1.667.354 2.787 1.476 1.144 1.125 1.357 2.766l-1.974.439a3.43 3.43 0 0 0-.911-1.813 3.28 3.28 0 0 0-1.766-.989q-.963-.204-1.64.167a1.55 1.55 0 0 0-.838 1.073q-.125.538.076.948.207.387.562.659.362.25.71.446l1.926 1.047q1.446.774 2.075 1.889.653 1.12.351 2.429a3.4 3.4 0 0 1-1.024 1.77q-.781.716-1.923.965-1.14.247-2.502-.041m17.395 3.55q-1.855-.395-2.621-1.661-.744-1.262-.301-3.18l1.534-6.641-2.301-.489.48-2.081.47.099q.845.18 1.457-.23t.806-1.251l.238-1.029 2.183.464-.67 2.9 2.841.603-.481 2.082-2.84-.604-1.517 6.571q-.145.632-.066 1.139.103.513.508.893.41.357 1.185.522.164.035.404.061.264.032.48.053l-.442 1.918a4.5 4.5 0 0 1-.703-.051 6 6 0 0 1-.644-.088m4.551.82 4.087-17.702 2.183.464-1.744 7.553-.35-.295q.744-1.093 1.929-1.528 1.212-.454 2.621-.155 1.362.29 2.278 1.122a4.4 4.4 0 0 1 1.301 2.043q.385 1.21.073 2.567l-1.885 8.161-2.206-.469 1.722-7.459q.243-1.053.011-1.863a2.7 2.7 0 0 0-.797-1.347q-.583-.565-1.476-.755a3.1 3.1 0 0 0-1.67.087 2.93 2.93 0 0 0-1.368.911q-.565.64-.804 1.669l-1.722 7.46zm17.614 4.038q-1.245-.264-2.104-.913-.831-.668-1.188-1.577-.351-.933-.108-1.986.233-1.005.839-1.711.635-.724 1.68-1.09 1.068-.362 2.531-.296l4.873.226-.421 1.824-4.364-.191q-1.269-.05-1.962.392a2 2 0 0 0-.859 1.265q-.178.772.314 1.416.515.65 1.454.849 1.197.254 2.179-.052a3.86 3.86 0 0 0 1.703-1.086 3.8 3.8 0 0 0 .96-1.807l.739-3.204q.238-1.029-.391-1.825-.6-.815-1.844-1.079a3.5 3.5 0 0 0-2.055.152 3.4 3.4 0 0 0-1.555 1.19l-1.675-1.386q.552-.79 1.483-1.304a6 6 0 0 1 2.061-.715 6.1 6.1 0 0 1 2.252.062q1.455.31 2.429 1.105.98.773 1.363 1.884.412 1.094.116 2.38l-1.976 8.559-2.137-.454.551-2.385.367.225a4.6 4.6 0 0 1-1.383 1.08 5.5 5.5 0 0 1-1.801.549 6 6 0 0 1-2.071-.097m15.09 3.061q-1.854-.395-2.621-1.661-.743-1.263-.3-3.18l1.533-6.641-2.301-.489.481-2.082.47.1q.845.18 1.456-.23.612-.41.807-1.251l.237-1.029 2.183.464-.669 2.9 2.84.603-.48 2.082-2.841-.604-1.517 6.571q-.146.632-.066 1.139.104.513.508.893.411.357 1.185.522.165.034.405.061.262.032.48.053l-.443 1.918a4.5 4.5 0 0 1-.702-.051 6 6 0 0 1-.645-.088m12.606 2.826q-1.244-.264-2.105-.913-.83-.668-1.187-1.577-.351-.934-.108-1.986.232-1.006.838-1.711.636-.724 1.68-1.09 1.069-.362 2.531-.296l4.874.226-.421 1.824-4.364-.191q-1.27-.05-1.963.392a2 2 0 0 0-.858 1.265q-.179.771.313 1.416.515.65 1.454.849 1.197.254 2.18-.052a3.87 3.87 0 0 0 1.703-1.086 3.8 3.8 0 0 0 .959-1.807l.74-3.204q.237-1.029-.391-1.825-.6-.815-1.845-1.079a3.5 3.5 0 0 0-2.054.152 3.4 3.4 0 0 0-1.556 1.19l-1.675-1.386a4.3 4.3 0 0 1 1.484-1.304 6 6 0 0 1 2.061-.715q1.125-.178 2.252.062 1.455.309 2.429 1.105.98.773 1.363 1.884.412 1.093.115 2.38l-1.976 8.559-2.136-.454.551-2.386.366.226a4.6 4.6 0 0 1-1.382 1.08q-.81.416-1.801.549a6 6 0 0 1-2.071-.097m10.21 1.876 4.087-17.702 2.184.464-4.087 17.702zm5.923 1.259 2.91-12.604 2.184.464-2.91 12.604zm3.375-14.615.647-2.807 2.184.464-.648 2.807zm7.394 22.301a7.2 7.2 0 0 1-2.391-.95 5.9 5.9 0 0 1-1.679-1.583 4.9 4.9 0 0 1-.827-1.967l2.259-.501q.123.959.898 1.761.793.831 2.202 1.131 1.08.229 2.046-.007a3.3 3.3 0 0 0 1.689-.917q.7-.685.965-1.831l.653-2.83.302.506a4.76 4.76 0 0 1-2.355 1.56 5.65 5.65 0 0 1-2.856.105q-1.785-.38-3.004-1.497a6 6 0 0 1-1.683-2.738q-.464-1.62-.059-3.373.41-1.777 1.538-3.034a6.2 6.2 0 0 1 2.702-1.781q1.602-.543 3.387-.163 1.48.314 2.519 1.247a5.1 5.1 0 0 1 1.528 2.238l-.464.515.648-2.807 2.136.454-2.786 12.067q-.378 1.637-1.449 2.758a5.64 5.64 0 0 1-2.624 1.552q-1.534.46-3.295.085m1.579-7.588a3.83 3.83 0 0 0 2.149-.132 4.4 4.4 0 0 0 1.801-1.187 4.45 4.45 0 0 0 1.031-2.014 4.3 4.3 0 0 0-.054-2.219 4.1 4.1 0 0 0-1.105-1.83q-.762-.75-1.889-.99a4.13 4.13 0 0 0-2.219.117 4.3 4.3 0 0 0-1.83 1.206q-.732.825-1.002 1.995-.27 1.168.025 2.238.324 1.05 1.11 1.806.81.76 1.983 1.01m9.402 4.525 2.91-12.604 2.136.454-.567 2.455-.303-.285q.744-1.093 1.929-1.528 1.212-.454 2.621-.154 1.362.29 2.278 1.122a4.37 4.37 0 0 1 1.301 2.043q.386 1.21.073 2.566l-1.884 8.162-2.207-.469 1.722-7.46q.243-1.053.035-1.857a2.67 2.67 0 0 0-.821-1.352q-.583-.566-1.476-.756a3.15 3.15 0 0 0-1.693.082 3 3 0 0 0-1.344.916q-.567.64-.804 1.669l-1.723 7.46zm21.291 4.526-1.433-13.528 2.418.514 1.016 11.28-.84-.203 5.81-9.805 2.066.44.951 11.241-.851-.156 5.91-9.808 2.394.509-7.253 11.681-2.089-.444-.904-11.232.657.14-5.763 9.815zm16.836 3.578 2.91-12.604 2.183.464-2.91 12.604zm3.374-14.615.648-2.807 2.183.465-.648 2.806zm7.657 17.107q-1.854-.394-2.621-1.661-.743-1.262-.3-3.179l1.533-6.642-2.3-.489.48-2.081.47.1q.845.18 1.457-.23.61-.41.806-1.252l.237-1.029 2.184.465-.67 2.899 2.841.604-.481 2.081-2.84-.604-1.517 6.572q-.147.631-.066 1.139.103.512.508.893.41.357 1.184.521.165.035.405.062.264.031.48.053l-.442 1.917a4 4 0 0 1-.703-.051 5 5 0 0 1-.645-.088m4.552.82 4.086-17.702 2.184.464-1.744 7.553-.351-.295q.745-1.093 1.929-1.528 1.214-.454 2.622-.154 1.362.29 2.277 1.122a4.36 4.36 0 0 1 1.302 2.043q.386 1.21.072 2.567l-1.884 8.161-2.207-.469 1.723-7.46q.242-1.052.011-1.862a2.7 2.7 0 0 0-.797-1.347q-.583-.566-1.476-.755a3.1 3.1 0 0 0-1.67.086 2.93 2.93 0 0 0-1.368.912q-.567.64-.804 1.669l-1.722 7.459zM55.668 192.47a5 5 0 0 1-.829-.25 3.4 3.4 0 0 1-.744-.403l.448-1.941q.248.101.612.228.383.155.759.235 1.104.234 1.78-.137.695-.343 1.481-1.402l1.236-1.725-.485 1.884-2.273-14.687 2.371.504 1.719 11.65-.705-.15 6.663-9.869 2.418.514-8.96 12.889a7.8 7.8 0 0 1-1.454 1.604 4.8 4.8 0 0 1-1.81 1.014q-1.006.301-2.227.042m19.55-.947q-1.83-.39-3.115-1.546a6.4 6.4 0 0 1-1.802-2.861q-.524-1.68-.086-3.575.436-1.894 1.623-3.188a6.8 6.8 0 0 1 2.887-1.839q1.68-.552 3.533-.157 1.832.39 3.11 1.569a6.1 6.1 0 0 1 1.79 2.809q.528 1.658.086 3.575-.442 1.919-1.68 3.225a7 7 0 0 1-2.911 1.834q-1.65.533-3.434.154m.487-2.105a4.05 4.05 0 0 0 2.247-.135 4.26 4.26 0 0 0 1.875-1.295q.8-.909 1.093-2.172.296-1.286-.04-2.388a4.1 4.1 0 0 0-1.135-1.909q-.799-.808-1.973-1.057a4.1 4.1 0 0 0-2.3.149q-1.074.385-1.87 1.27-.79.863-1.086 2.149-.292 1.263.034 2.411a4.27 4.27 0 0 0 1.13 1.933q.827.79 2.025 1.044m13.7 5.12q-1.361-.29-2.32-1.155a4.45 4.45 0 0 1-1.285-2.113q-.323-1.27.018-2.744l1.82-7.881 2.183.464-1.766 7.647q-.216.936-.002 1.717.238.786.826 1.328.612.548 1.505.737.892.19 1.664-.063a2.8 2.8 0 0 0 1.345-.916q.57-.664.81-1.693l1.721-7.459 2.207.469-2.91 12.604-2.136-.454.567-2.455.303.285a3.86 3.86 0 0 1-1.957 1.546q-1.209.43-2.593.136m9.55 1.736 2.911-12.605 2.136.454-.535 2.316-.159-.378q.694-.98 1.729-1.301 1.04-.343 2.354-.063l.775.164-.475 2.058-1.103-.234q-1.339-.285-2.355.382-1.01.645-1.361 2.164l-1.733 7.507zm18.727 4.275q-1.832-.39-3.063-1.559a6.2 6.2 0 0 1-1.709-2.841q-.47-1.695-.038-3.566.436-1.893 1.575-3.197a6.5 6.5 0 0 1 2.741-1.846q1.61-.566 3.346-.197 1.409.3 2.369 1.043a5.24 5.24 0 0 1 1.542 1.751q.58 1.007.726 2.19a6.2 6.2 0 0 1-.096 2.335q-.06.257-.182.575a7 7 0 0 1-.205.569l-10.377-2.205.432-1.871 9.109 1.936-1.228.622q.493-1.17.268-2.224a3.56 3.56 0 0 0-.964-1.8q-.74-.746-1.842-.98a3.9 3.9 0 0 0-2.149.132q-1.044.367-1.804 1.309-.73.924-.966 2.371-.412 1.36-.139 2.522a4.04 4.04 0 0 0 1.13 1.933q.857.77 2.006 1.015 1.269.27 2.272-.131a4.84 4.84 0 0 0 1.754-1.197l1.615 1.325q-.576.785-1.541 1.34a6.2 6.2 0 0 1-2.114.729q-1.153.196-2.468-.083m7.354 1.268 5.894-5.371-2.961-7.228 2.63.559 2.516 6.275-1.338-.284 4.996-4.679 2.652.564-5.865 5.352 2.932 7.247-2.629-.558-2.47-6.266 1.315.279-4.996 4.679zm12.694 7.605 3.99-17.281 2.136.454-.626 2.712-.158-.597a5.3 5.3 0 0 1 2.336-1.368q1.377-.42 2.95-.085 1.784.38 2.993 1.544a6.2 6.2 0 0 1 1.708 2.841q.482 1.648.044 3.542-.426 1.848-1.593 3.169a6.5 6.5 0 0 1-2.799 1.883q-1.608.566-3.416.182-1.525-.324-2.637-1.272a4.74 4.74 0 0 1-1.482-2.327l.438-.299-1.701 7.366zm7.886-5.144q1.198.254 2.272-.13a4.2 4.2 0 0 0 1.822-1.281q.778-.914 1.069-2.177.303-1.31-.011-2.406a3.97 3.97 0 0 0-1.088-1.9q-.798-.807-1.996-1.062a4.2 4.2 0 0 0-2.295.125 4.5 4.5 0 0 0-1.875 1.295q-.772.89-1.069 2.177-.29 1.262.011 2.406.332 1.125 1.136 1.91.827.79 2.024 1.043m15.007 5.398q-1.832-.389-3.063-1.559a6.2 6.2 0 0 1-1.709-2.841q-.47-1.695-.038-3.565.436-1.895 1.575-3.198a6.5 6.5 0 0 1 2.741-1.846q1.61-.566 3.346-.197 1.409.3 2.369 1.044a5.2 5.2 0 0 1 1.542 1.75q.58 1.006.726 2.191a6.2 6.2 0 0 1-.096 2.335q-.06.257-.182.574a7 7 0 0 1-.205.57l-10.377-2.206.432-1.871 9.109 1.937-1.228.622q.493-1.171.268-2.225a3.55 3.55 0 0 0-.964-1.799q-.74-.746-1.842-.981a3.9 3.9 0 0 0-2.149.132q-1.045.367-1.804 1.31-.73.924-.966 2.37-.413 1.36-.139 2.522a4.03 4.03 0 0 0 1.13 1.933q.857.77 2.006 1.015 1.269.27 2.272-.13a4.9 4.9 0 0 0 1.754-1.198l1.615 1.325q-.576.786-1.541 1.341a6.2 6.2 0 0 1-2.114.728q-1.154.196-2.468-.083m9.015 1.622 2.91-12.605 2.136.454-.534 2.316-.159-.378q.695-.98 1.728-1.301 1.04-.343 2.355-.063l.774.164-.475 2.058-1.103-.234q-1.338-.284-2.354.382-1.011.645-1.362 2.164l-1.733 7.507zm13.783 3.077q-1.855-.395-2.621-1.661-.744-1.263-.301-3.18l1.534-6.641-2.301-.489.481-2.081.469.099q.845.18 1.457-.23t.806-1.251l.238-1.029 2.183.464-.67 2.9 2.841.603-.48 2.082-2.841-.604-1.517 6.571q-.146.632-.066 1.139.103.513.508.893.41.357 1.185.522.164.034.404.061.264.032.481.053l-.443 1.918a4.5 4.5 0 0 1-.702-.051 6 6 0 0 1-.645-.088m4.551.82 2.91-12.605 2.183.464-2.91 12.605zm3.374-14.616.648-2.806 2.183.464-.648 2.806zm7.015 17.118q-1.902-.403-3.094-1.639a5.07 5.07 0 0 1-1.413-2.949l1.932-.473q.28 1.237 1.069 2.092a3.6 3.6 0 0 0 1.938 1.099q1.032.22 1.827-.127.793-.347.978-1.142.13-.56-.124-.958a2 2 0 0 0-.627-.698 4.5 4.5 0 0 0-.751-.478l-1.778-.942q-1.6-.856-2.188-1.937-.564-1.077-.283-2.293.26-1.122 1.011-1.821a4.1 4.1 0 0 1 1.876-.975q1.117-.253 2.361.011 1.666.354 2.787 1.475 1.144 1.127 1.357 2.766l-1.974.44a3.43 3.43 0 0 0-.911-1.813 3.28 3.28 0 0 0-1.766-.989q-.963-.204-1.64.167a1.55 1.55 0 0 0-.838 1.073q-.125.537.076.948.206.387.562.659.362.248.71.446l1.925 1.047q1.448.774 2.076 1.888.653 1.12.351 2.43a3.4 3.4 0 0 1-1.024 1.769q-.781.718-1.923.966-1.14.248-2.502-.042m13.633 2.898q-1.832-.389-3.063-1.559a6.17 6.17 0 0 1-1.709-2.84q-.47-1.695-.038-3.566.436-1.894 1.575-3.198 1.162-1.298 2.741-1.846 1.61-.566 3.346-.196 1.409.299 2.37 1.043a5.2 5.2 0 0 1 1.541 1.751q.58 1.006.726 2.19a6.2 6.2 0 0 1-.096 2.335q-.06.257-.182.574-.094.3-.205.57l-10.377-2.205.432-1.871 9.109 1.936-1.227.622q.492-1.171.267-2.225a3.55 3.55 0 0 0-.964-1.799q-.74-.746-1.842-.98a3.9 3.9 0 0 0-2.149.132q-1.044.367-1.804 1.309-.73.924-.966 2.37-.412 1.36-.139 2.522a4.04 4.04 0 0 0 1.13 1.933q.857.771 2.007 1.016 1.268.269 2.271-.131a4.9 4.9 0 0 0 1.754-1.197l1.615 1.324q-.575.786-1.541 1.341a6.2 6.2 0 0 1-2.114.728q-1.153.197-2.468-.083m17.069 3.628q-1.243-.264-2.104-.913-.831-.667-1.187-1.577-.351-.933-.108-1.986.232-1.005.838-1.71.635-.724 1.68-1.091 1.069-.362 2.531-.296l4.874.226-.421 1.824-4.365-.191q-1.269-.05-1.962.392-.669.447-.858 1.265-.179.772.313 1.416.515.65 1.454.849 1.197.254 2.179-.052a3.86 3.86 0 0 0 1.704-1.085 3.84 3.84 0 0 0 .959-1.808l.74-3.204q.237-1.029-.392-1.825-.6-.814-1.844-1.079a3.5 3.5 0 0 0-2.054.152 3.4 3.4 0 0 0-1.556 1.191l-1.675-1.387q.552-.79 1.484-1.304a6 6 0 0 1 2.061-.714q1.125-.179 2.251.061 1.456.31 2.43 1.105.979.772 1.362 1.885.413 1.094.116 2.379l-1.976 8.559-2.136-.454.55-2.385.367.225a4.6 4.6 0 0 1-1.382 1.08 5.5 5.5 0 0 1-1.802.549 6 6 0 0 1-2.071-.097m10.211 1.876 2.91-12.604 2.136.454-.566 2.455-.304-.285q.745-1.093 1.929-1.528 1.213-.453 2.622-.154 1.36.29 2.277 1.122a4.4 4.4 0 0 1 1.302 2.043q.386 1.21.072 2.567l-1.884 8.161-2.207-.469 1.722-7.46q.243-1.051.035-1.857a2.67 2.67 0 0 0-.821-1.352q-.584-.566-1.475-.755a3.15 3.15 0 0 0-1.694.081 3 3 0 0 0-1.344.917q-.567.64-.804 1.669l-1.723 7.459zm19.657 4.473q-1.785-.38-3.017-1.549a6.25 6.25 0 0 1-1.685-2.836q-.475-1.671-.049-3.519.437-1.894 1.599-3.192a6.55 6.55 0 0 1 2.775-1.888q1.632-.561 3.416-.182 1.573.334 2.637 1.272a5.03 5.03 0 0 1 1.515 2.187l-.476.463 1.803-7.811 2.207.469-4.087 17.702-2.137-.454.621-2.689.196.434a4.8 4.8 0 0 1-2.368 1.509q-1.4.413-2.95.084m.673-2.065q1.198.254 2.272-.13a4.36 4.36 0 0 0 1.846-1.276 4.9 4.9 0 0 0 1.092-2.172q.297-1.286-.034-2.412a4.1 4.1 0 0 0-1.106-1.927q-.805-.785-2.002-1.039a4.04 4.04 0 0 0-2.276.154 4.36 4.36 0 0 0-1.847 1.276q-.766.867-1.069 2.176-.29 1.263.011 2.407a4.14 4.14 0 0 0 1.112 1.905q.804.784 2.001 1.038m17.75 5.981q-1.244-.264-2.104-.913-.831-.668-1.187-1.578-.351-.933-.108-1.985.232-1.005.838-1.711.635-.724 1.68-1.09 1.068-.362 2.531-.296l4.873.226-.421 1.824-4.364-.192q-1.269-.048-1.962.393a2 2 0 0 0-.858 1.265q-.179.771.313 1.416.515.648 1.454.848 1.197.255 2.179-.052a3.85 3.85 0 0 0 1.704-1.085 3.83 3.83 0 0 0 .959-1.808l.74-3.203q.238-1.03-.392-1.825-.6-.815-1.844-1.079a3.5 3.5 0 0 0-2.055.152 3.4 3.4 0 0 0-1.555 1.19l-1.675-1.386a4.3 4.3 0 0 1 1.483-1.304 6 6 0 0 1 2.062-.715q1.125-.178 2.251.062 1.456.309 2.43 1.105.979.773 1.362 1.884.413 1.093.116 2.38l-1.976 8.559-2.136-.454.55-2.386.367.225a4.5 4.5 0 0 1-1.382 1.08 5.5 5.5 0 0 1-1.802.55 6 6 0 0 1-2.071-.097m14.677 3.12q-1.902-.405-3.094-1.639a5.07 5.07 0 0 1-1.412-2.95l1.931-.473q.281 1.237 1.069 2.092t1.938 1.099q1.034.22 1.827-.127.794-.346.978-1.141.13-.562-.124-.959a2 2 0 0 0-.627-.697 4.4 4.4 0 0 0-.751-.479l-1.778-.942q-1.6-.855-2.188-1.937-.564-1.077-.283-2.293.26-1.122 1.012-1.821a4.1 4.1 0 0 1 1.875-.975q1.118-.253 2.361.011 1.668.354 2.787 1.476 1.144 1.126 1.357 2.766l-1.973.439a3.44 3.44 0 0 0-.912-1.813 3.3 3.3 0 0 0-1.766-.989q-.962-.204-1.64.167-.671.348-.838 1.073-.125.538.076.948.207.388.562.66.362.248.71.445l1.926 1.047q1.446.774 2.076 1.889.652 1.12.35 2.429a3.4 3.4 0 0 1-1.024 1.77q-.782.717-1.922.965-1.141.248-2.503-.041m6.796 6.056 3.99-17.281 2.136.454-.626 2.713-.157-.598a5.27 5.27 0 0 1 2.335-1.368q1.378-.418 2.95-.085 1.785.38 2.993 1.544a6.2 6.2 0 0 1 1.708 2.841q.482 1.648.045 3.542-.427 1.848-1.594 3.17a6.5 6.5 0 0 1-2.799 1.883q-1.608.565-3.416.181-1.526-.324-2.637-1.272a4.73 4.73 0 0 1-1.482-2.327l.438-.299-1.7 7.366zm7.887-5.143q1.197.254 2.271-.131a4.2 4.2 0 0 0 1.822-1.281q.778-.914 1.069-2.177.303-1.31-.01-2.406a4 4 0 0 0-1.089-1.9q-.798-.807-1.996-1.062a4.2 4.2 0 0 0-2.294.126 4.5 4.5 0 0 0-1.875 1.294q-.772.89-1.069 2.177-.292 1.263.011 2.406.33 1.126 1.135 1.91.827.789 2.025 1.044m9.249 3.879 2.91-12.604 2.183.464-2.91 12.604zm3.374-14.615.648-2.807 2.184.464-.648 2.807zm2.549 15.874 2.91-12.604 2.136.454-.534 2.315-.159-.377q.695-.981 1.728-1.301 1.04-.343 2.355-.064l.774.165-.475 2.058-1.103-.235q-1.338-.285-2.354.383-1.011.643-1.362 2.164l-1.733 7.506zm12.204 2.889q-1.245-.265-2.104-.914-.831-.667-1.188-1.577-.351-.933-.108-1.986.233-1.005.839-1.71.635-.724 1.68-1.091 1.068-.361 2.531-.296l4.873.227-.421 1.824-4.364-.192q-1.269-.05-1.962.392-.67.447-.859 1.265-.178.772.314 1.416.515.65 1.454.849 1.197.255 2.179-.052a3.85 3.85 0 0 0 1.703-1.085 3.83 3.83 0 0 0 .96-1.808l.739-3.204q.238-1.029-.391-1.825-.6-.814-1.844-1.079a3.5 3.5 0 0 0-2.055.152 3.4 3.4 0 0 0-1.555 1.191l-1.675-1.387q.552-.79 1.483-1.303a6 6 0 0 1 2.061-.715 6.1 6.1 0 0 1 2.252.061q1.455.31 2.429 1.105.98.772 1.363 1.885.412 1.093.115 2.379l-1.975 8.559-2.137-.454.551-2.385.367.225a4.6 4.6 0 0 1-1.383 1.08q-.81.417-1.801.549a6 6 0 0 1-2.071-.096m15.09 3.06q-1.854-.395-2.621-1.661-.743-1.262-.3-3.18l1.533-6.641-2.301-.489.481-2.081.469.1q.846.18 1.457-.231.612-.41.806-1.251l.238-1.029 2.183.464-.669 2.9 2.84.604-.48 2.081-2.841-.604-1.517 6.571q-.146.632-.066 1.139.104.513.508.893.411.357 1.185.522.165.035.405.061.262.032.48.053l-.443 1.918a4.5 4.5 0 0 1-.702-.051 6 6 0 0 1-.645-.088m4.551.82 2.91-12.604 2.183.464-2.91 12.604zm3.375-14.616.647-2.806 2.184.464-.648 2.807zm8.493 17.433q-1.831-.39-3.115-1.545a6.4 6.4 0 0 1-1.803-2.861q-.522-1.682-.086-3.576.438-1.893 1.623-3.187a6.8 6.8 0 0 1 2.887-1.84q1.68-.55 3.534-.157 1.83.39 3.11 1.569a6.1 6.1 0 0 1 1.79 2.809q.528 1.657.085 3.576-.442 1.917-1.68 3.224a7 7 0 0 1-2.911 1.835q-1.65.532-3.434.153m.486-2.105a4.04 4.04 0 0 0 2.248-.135 4.26 4.26 0 0 0 1.875-1.294 4.9 4.9 0 0 0 1.092-2.172q.297-1.287-.039-2.388a4.1 4.1 0 0 0-1.136-1.91 3.8 3.8 0 0 0-1.972-1.057 4.1 4.1 0 0 0-2.3.149 4.55 4.55 0 0 0-1.87 1.271q-.79.862-1.087 2.148-.291 1.263.034 2.412.327 1.149 1.13 1.933.828.79 2.025 1.043m9.281 3.887 2.91-12.605 2.137.454-.567 2.456-.304-.286q.745-1.092 1.929-1.528 1.214-.453 2.622-.154 1.361.29 2.277 1.122a4.37 4.37 0 0 1 1.302 2.043q.385 1.21.072 2.567l-1.884 8.161-2.207-.469 1.722-7.46q.243-1.051.035-1.857a2.67 2.67 0 0 0-.821-1.352q-.584-.566-1.475-.755a3.15 3.15 0 0 0-1.694.082 3 3 0 0 0-1.344.916q-.567.64-.804 1.669l-1.722 7.46zm18.436 4.213q-1.902-.405-3.094-1.639a5.06 5.06 0 0 1-1.412-2.95l1.931-.473q.281 1.237 1.069 2.092t1.938 1.099q1.034.22 1.827-.127.794-.346.978-1.141.13-.561-.124-.959a2 2 0 0 0-.627-.697 4.5 4.5 0 0 0-.751-.479l-1.777-.942q-1.601-.855-2.188-1.937-.565-1.077-.284-2.293.26-1.122 1.012-1.821a4.1 4.1 0 0 1 1.875-.975q1.117-.253 2.362.011 1.666.354 2.787 1.476 1.143 1.127 1.356 2.766l-1.973.439a3.44 3.44 0 0 0-.912-1.813 3.3 3.3 0 0 0-1.766-.989q-.962-.204-1.64.167-.671.348-.838 1.073-.125.538.076.948.207.388.562.66.362.248.71.445l1.926 1.047q1.446.773 2.076 1.889.653 1.12.35 2.429a3.4 3.4 0 0 1-1.024 1.77q-.782.717-1.922.965-1.141.248-2.503-.041m8.768 1.569.648-2.806 2.277.484-.648 2.806z"/><path fill="#0A964B" d="M562.351 81.201q-4.12-.876-6.313-3.697-2.194-2.82-1.349-6.8l2.923.622q-.594 2.891.767 4.836 1.404 1.917 4.433 2.561 2.605.555 4.447-.38 1.848-.968 2.424-3.458.526-2.28-.854-3.825-1.344-1.537-4.408-2.188l-1.514-.322.526-2.28 1.479.315q2.782.59 4.477-.19t2.148-2.744q.445-1.93-.809-3.374-1.212-1.472-3.466-1.95-2.57-.547-4.441.674-1.827 1.194-2.41 3.72l-2.887-.614q.86-3.57 3.644-5.224 2.79-1.687 6.734-.85 3.452.734 5.327 3.01 1.884 2.24 1.18 5.292-.86 3.717-5.146 4.205l-.024.105q4.568 2.295 3.442 7.172-.777 3.367-3.687 4.772-2.875 1.413-6.643.612"/></g><defs><filter id="a" width="621.376" height="373.111" x="0" y="0" color-interpolation-filters="sRGB" filterUnits="userSpaceOnUse"><feFlood flood-opacity="0" result="BackgroundImageFix"/><feColorMatrix in="SourceAlpha" result="hardAlpha" values="0 0 0 0 0 0 0 0 0 0 0 0 0 0 0 0 0 0 127 0"/><feOffset dx="4" dy="8"/><feGaussianBlur stdDeviation="4"/><feComposite in2="hardAlpha" operator="out"/><feColorMatrix values="0 0 0 0 0 0 0 0 0 0 0 0 0 0 0 0 0 0 0.25 0"/><feBlend in2="BackgroundImageFix" result="effect1_dropShadow_2313_462"/><feBlend in="SourceGraphic" in2="effect1_dropShadow_2313_462" result="shape"/></filter><filter id="c" width="555.552" height="145.385" x="-5.475" y="216.796" color-interpolation-filters="sRGB" filterUnits="userSpaceOnUse"><feFlood flood-opacity="0" result="BackgroundImageFix"/><feBlend in="SourceGraphic" in2="BackgroundImageFix" result="shape"/><feTurbulence baseFrequency="1 1" numOctaves="3" result="noise" seed="1706" stitchTiles="stitch" type="fractalNoise"/><feColorMatrix in="noise" result="alphaNoise" type="luminanceToAlpha"/><feComponentTransfer in="alphaNoise" result="coloredNoise1"><feFuncA tableValues="1 1 1 1 1 1 1 1 1 1 1 1 1 1 1 1 1 1 1 1 1 1 1 1 1 1 1 1 1 1 1 1 1 1 1 1 1 1 1 1 1 1 1 1 1 1 1 1 1 1 1 0 0 0 0 0 0 0 0 0 0 0 0 0 0 0 0 0 0 0 0 0 0 0 0 0 0 0 0 0 0 0 0 0 0 0 0 0 0 0 0 0 0 0 0 0 0 0 0 0" type="discrete"/></feComponentTransfer><feComposite in="coloredNoise1" in2="shape" operator="in" result="noise1Clipped"/><feFlood flood-color="rgba(0, 0, 0, 0.05)" result="color1Flood"/><feComposite in="color1Flood" in2="noise1Clipped" operator="in" result="color1"/><feMerge result="effect1_noise_2313_462"><feMergeNode in="shape"/><feMergeNode in="color1"/></feMerge></filter><filter id="e" width="80.247" height="359.664" x="533.755" y="10.918" color-interpolation-filters="sRGB" filterUnits="userSpaceOnUse"><feFlood flood-opacity="0" result="BackgroundImageFix"/><feBlend in="SourceGraphic" in2="BackgroundImageFix" result="shape"/><feTurbulence baseFrequency="1 1" numOctaves="3" result="noise" seed="1706" stitchTiles="stitch" type="fractalNoise"/><feColorMatrix in="noise" result="alphaNoise" type="luminanceToAlpha"/><feComponentTransfer in="alphaNoise" result="coloredNoise1"><feFuncA tableValues="1 1 1 1 1 1 1 1 1 1 1 1 1 1 1 1 1 1 1 1 1 1 1 1 1 1 1 1 1 1 1 1 1 1 1 1 1 1 1 1 1 1 1 1 1 1 1 1 1 1 1 0 0 0 0 0 0 0 0 0 0 0 0 0 0 0 0 0 0 0 0 0 0 0 0 0 0 0 0 0 0 0 0 0 0 0 0 0 0 0 0 0 0 0 0 0 0 0 0 0" type="discrete"/></feComponentTransfer><feComposite in="coloredNoise1" in2="shape" operator="in" result="noise1Clipped"/><feFlood flood-color="rgba(0, 0, 0, 0.05)" result="color1Flood"/><feComposite in="color1Flood" in2="noise1Clipped" operator="in" result="color1"/><feMerge result="effect1_noise_2313_462"><feMergeNode in="shape"/><feMergeNode in="color1"/></feMerge></filter><filter id="g" width="605.374" height="345.176" x="4" y="0" color-interpolation-filters="sRGB" filterUnits="userSpaceOnUse"><feFlood flood-opacity="0" result="BackgroundImageFix"/><feBlend in="SourceGraphic" in2="BackgroundImageFix" result="shape"/><feTurbulence baseFrequency="1 1" numOctaves="3" result="noise" seed="1706" stitchTiles="stitch" type="fractalNoise"/><feColorMatrix in="noise" result="alphaNoise" type="luminanceToAlpha"/><feComponentTransfer in="alphaNoise" result="coloredNoise1"><feFuncA tableValues="1 1 1 1 1 1 1 1 1 1 1 1 1 1 1 1 1 1 1 1 1 1 1 1 1 1 1 1 1 1 1 1 1 1 1 1 1 1 1 1 1 1 1 1 1 1 1 1 1 1 1 0 0 0 0 0 0 0 0 0 0 0 0 0 0 0 0 0 0 0 0 0 0 0 0 0 0 0 0 0 0 0 0 0 0 0 0 0 0 0 0 0 0 0 0 0 0 0 0 0" type="discrete"/></feComponentTransfer><feComposite in="coloredNoise1" in2="shape" operator="in" result="noise1Clipped"/><feFlood flood-color="rgba(0, 0, 0, 0.05)" result="color1Flood"/><feComposite in="color1Flood" in2="noise1Clipped" operator="in" result="color1"/><feMerge result="effect1_noise_2313_462"><feMergeNode in="shape"/><feMergeNode in="color1"/></feMerge></filter><linearGradient id="d" x1=".222" x2="289.521" y1="266.01" y2="270.629" gradientUnits="userSpaceOnUse"><stop stop-color="#0362A6"/><stop offset="1" stop-color="#32FF92"/></linearGradient><linearGradient id="f" x1="457.413" x2="662.316" y1="371.993" y2="250.227" gradientUnits="userSpaceOnUse"><stop stop-color="#32FF92"/><stop offset="1" stop-color="#0362A6"/></linearGradient><linearGradient id="h" x1="-13.825" x2="764.104" y1="206.751" y2="291.87" gradientUnits="userSpaceOnUse"><stop stop-color="#0A7FD2"/><stop offset=".619" stop-color="#32FF92"/><stop offset="1" stop-color="#FCFF32"/></linearGradient></defs></svg>