<svg width="208" height="1024" viewBox="0 0 208 1024" fill="none" xmlns="http://www.w3.org/2000/svg">
<path d="M71.411 1012.19C71.411 1014.08 80.9937 1023.17 103.992 1023.17C126.99 1023.17 136.565 1014.08 136.565 1012.19V993.258C136.565 990.987 130.633 989.182 127.941 987.201C125.249 985.22 125.066 982.225 128.899 981.143C132.732 980.061 162.439 977.357 183.52 968.649C208.615 958.284 207.477 943.862 207.477 930.789H203.644C205.17 904.854 195.978 869.077 194.061 866.427C192.145 863.777 187.249 863.518 184.479 862.641C181.709 861.764 183.52 858.855 181.604 855.826C180.834 854.609 175.854 853.555 175.854 853.555L155.731 733.538H125.066L103.992 826.295L82.9102 733.538H52.2456L32.122 853.555C32.122 853.555 27.1425 854.609 26.3724 855.826C24.4559 858.855 26.2676 861.764 23.4976 862.641C20.7276 863.518 15.8314 863.777 13.9149 866.427C11.9984 869.077 2.80604 904.854 4.33225 930.789H0.499178C0.499179 943.862 -0.638851 958.284 24.4559 968.649C45.5378 977.357 75.244 980.061 79.0771 981.143C82.9102 982.225 82.727 985.22 80.0354 987.201C77.3438 989.182 71.411 990.987 71.411 993.258V1012.19Z" fill="black" fill-opacity="0.25"/>
<path d="M82.4189 733.074H51.7539L47.1376 663.399L88.833 661.615L82.4189 733.074Z" fill="url(#paint0_linear_1715_1971)"/>
<path d="M155.239 733.074H124.575L118.046 660.365L160.175 658.562L155.239 733.074Z" fill="url(#paint1_linear_1715_1971)"/>
<path d="M173.813 452.694L166.037 570.068L111.164 583.725L103.493 498.299L95.4736 587.63L42.9834 600.693L32.4755 442.062L173.813 452.694Z" fill="url(#paint2_linear_1715_1971)"/>
<path d="M206.881 212.705C207.032 219.808 206.985 226.888 206.985 233.817H203.152C204.516 292.491 197.314 371.065 194.401 391.88L6.88179 330.979C4.75291 300.541 3.12825 264.464 3.84078 233.817H0.0077674C0.0077674 219.653 -0.199733 204.863 1.53023 190.521L206.881 212.705Z" fill="url(#paint3_linear_1715_1971)"/>
<path d="M136.074 74.8955V75.7031C136.074 81.4527 130.141 86.0212 127.449 91.0352C124.758 96.0492 124.575 103.63 128.408 106.368C132.243 109.106 161.948 115.951 183.029 137.99C183.65 138.639 184.255 139.295 184.844 139.956L14.1972 150.694C16.9052 146.252 20.1284 142.001 23.9648 137.99C45.0465 115.951 74.7524 109.106 78.5859 106.368C82.419 103.63 82.2355 96.0492 79.5439 91.0352C76.8522 86.0213 70.9199 81.4527 70.9199 75.7031V72.6426L136.074 74.8955Z" fill="url(#paint4_linear_1715_1971)"/>
<path d="M103.493 0C126.491 0.000192895 136.074 22.9987 136.074 27.79V43.4268L70.9199 28.6553V27.79C70.9199 22.9987 80.4947 0 103.493 0Z" fill="url(#paint5_linear_1715_1971)"/>
<defs>
<linearGradient id="paint0_linear_1715_1971" x1="86.9103" y1="0.000244172" x2="86.9103" y2="714.971" gradientUnits="userSpaceOnUse">
<stop stop-color="#FCFF32"/>
<stop offset="0.507026" stop-color="#32FF92"/>
<stop offset="1" stop-color="#0A7FD2"/>
</linearGradient>
<linearGradient id="paint1_linear_1715_1971" x1="86.9103" y1="0.000244172" x2="86.9103" y2="714.971" gradientUnits="userSpaceOnUse">
<stop stop-color="#FCFF32"/>
<stop offset="0.507026" stop-color="#32FF92"/>
<stop offset="1" stop-color="#0A7FD2"/>
</linearGradient>
<linearGradient id="paint2_linear_1715_1971" x1="86.9103" y1="0.000244172" x2="86.9103" y2="714.971" gradientUnits="userSpaceOnUse">
<stop stop-color="#FCFF32"/>
<stop offset="0.507026" stop-color="#32FF92"/>
<stop offset="1" stop-color="#0A7FD2"/>
</linearGradient>
<linearGradient id="paint3_linear_1715_1971" x1="86.9103" y1="0.000244172" x2="86.9103" y2="714.971" gradientUnits="userSpaceOnUse">
<stop stop-color="#FCFF32"/>
<stop offset="0.507026" stop-color="#32FF92"/>
<stop offset="1" stop-color="#0A7FD2"/>
</linearGradient>
<linearGradient id="paint4_linear_1715_1971" x1="86.9103" y1="0.000244172" x2="86.9103" y2="714.971" gradientUnits="userSpaceOnUse">
<stop stop-color="#FCFF32"/>
<stop offset="0.507026" stop-color="#32FF92"/>
<stop offset="1" stop-color="#0A7FD2"/>
</linearGradient>
<linearGradient id="paint5_linear_1715_1971" x1="86.9103" y1="0.000244172" x2="86.9103" y2="714.971" gradientUnits="userSpaceOnUse">
<stop stop-color="#FCFF32"/>
<stop offset="0.507026" stop-color="#32FF92"/>
<stop offset="1" stop-color="#0A7FD2"/>
</linearGradient>
</defs>
</svg>
